<?xml version="1.0" encoding="utf-8"?>
<svg width="26px" height="23px" viewBox="0 0 26 23" version="1.1" xmlns:xlink="http://www.w3.org/1999/xlink" xmlns="http://www.w3.org/2000/svg">
  <g id="Group-19" transform="translate(0.4008789 0.40063477)">
    <g id="folder-2">
      <path d="M8.59606 2.22801L7.09949 0.17474L6.97245 0L0 0L0 16.8692L19.4444 16.8692L19.4444 2.22801L8.59606 2.22801Z" transform="translate(0 0.15914352)" id="Shape" fill="#4086F1" fill-rule="evenodd" stroke="none" />
      <path d="M0 15.5961L0 0L5.99051 0L7.61088 2.22801L7.61477 2.22801L9.13468 4.31311C9.19787 4.39968 9.29704 4.44583 9.39815 4.44615L9.39815 4.45602L18.1481 4.45602L18.1481 15.5961L0 15.5961Z" transform="translate(0.6481481 0.7957176)" id="Path" fill="#4086F1" stroke="none" />
      <path d="M9.73616 0L9.73616 1.59144L1.15986 1.59144L0 0L9.73616 0Z" transform="translate(9.060139 3.023727)" id="Path" fill="#FFFFFF" stroke="none" />
    </g>
    <path d="M6.94444 0C3.11538 0 0 3.08397 0 6.875C0 10.666 3.11538 13.75 6.94444 13.75C10.7735 13.75 13.8889 10.666 13.8889 6.875C13.8889 3.08397 10.7735 0 6.94444 0Z" transform="translate(11.111111 7.5625)" id="Shape" fill="#4086F1" fill-rule="evenodd" stroke="#FFFFFF" stroke-width="0.80128205" />
    <path d="M7.21154 4.23077L4.40705 4.23077L4.40705 7.13942C4.40705 7.43135 4.16774 7.66827 3.87286 7.66827C3.57799 7.66827 3.33868 7.43135 3.33868 7.13942L3.33868 4.23077L0.534188 4.23077C0.239316 4.23077 0 3.99385 0 3.70192C0 3.41 0.239316 3.17308 0.534188 3.17308L3.33868 3.17308L3.33868 0.528846C3.33868 0.236923 3.57799 0 3.87286 0C4.16774 0 4.40705 0.236923 4.40705 0.528846L4.40705 3.17308L7.21154 3.17308C7.50641 3.17308 7.74573 3.41 7.74573 3.70192C7.74573 3.99385 7.50641 4.23077 7.21154 4.23077Z" transform="translate(14.182693 10.735577)" id="Path" fill="#FFFFFF" stroke="#FFFFFF" stroke-width="0.80128205" />
  </g>
</svg>