<?xml version="1.0" encoding="utf-8"?>
<svg width="27px" height="25px" viewBox="0 0 27 25" version="1.1" xmlns:xlink="http://www.w3.org/1999/xlink" xmlns="http://www.w3.org/2000/svg">
  <g id="Group-4" transform="translate(0.4326172 0.43273926)">
    <g id="men">
      <path d="M4.74871 1.54283C4.74871 1.00116 4.84633 0.481537 5.02501 0L3.27206 0C1.46784 0 0 1.44487 0 3.22085L0 6.77598C0 7.84155 0.88068 8.70849 1.96323 8.70849L4.86129 8.70849C4.78864 8.50681 4.74871 8.2901 4.74871 8.06428L4.74871 1.54283Z" transform="translate(0 10.254814)" id="Path" fill="#4086F1" stroke="none" />
      <path d="M7.27954 0L3.27206 0C1.46784 0 0 1.44487 0 3.22085L0 9.74229C0 10.098 0.292984 10.3865 0.654411 10.3865L9.89719 10.3865C10.2586 10.3865 10.5516 10.0981 10.5516 9.74229L10.5516 3.22085C10.5516 1.44487 9.08375 0 7.27954 0Z" transform="translate(6.0575337 8.5768)" id="Path" fill="#4086F1" stroke="none" />
      <path d="M3.93506 0C1.76526 0 0 1.73763 0 3.87352C0 5.32227 0.812326 6.58755 2.01198 7.25185C2.58099 7.56692 3.23699 7.74699 3.93506 7.74699C4.63312 7.74699 5.28912 7.56692 5.85814 7.25185C7.05783 6.58755 7.87011 5.32222 7.87011 3.87352C7.87011 1.73767 6.10486 0 3.93506 0Z" transform="translate(7.398276 0.036605503)" id="Path" fill="#4086F1" stroke="none" />
      <path d="M2.9429 0C1.32016 0 0 1.2995 0 2.89685C0 4.4942 1.32016 5.79369 2.9429 5.79369C3.35453 5.79369 3.74651 5.70976 4.10258 5.55889C4.71821 5.29799 5.22582 4.83615 5.53992 4.25766C5.76039 3.85164 5.88581 3.38845 5.88581 2.89685C5.88581 1.29954 4.56565 0 2.9429 0Z" transform="translate(1.4805495 3.6469977)" id="Path" fill="#4086F1" stroke="none" />
    </g>
    <path d="M7.5 0C3.36462 0 0 3.36433 0 7.5C0 11.6357 3.36462 15 7.5 15C11.6354 15 15 11.6357 15 7.5C15 3.36433 11.6354 0 7.5 0Z" transform="translate(11 8.75)" id="Shape" fill="#4086F1" fill-rule="evenodd" stroke="#FFFFFF" stroke-width="0.86538464" />
    <path d="M7.78846 4.61539L4.75962 4.61539L4.75962 7.78846C4.75962 8.10692 4.50115 8.36539 4.18269 8.36539C3.86423 8.36539 3.60577 8.10692 3.60577 7.78846L3.60577 4.61539L0.576923 4.61539C0.258462 4.61539 0 4.35692 0 4.03846C0 3.72 0.258462 3.46154 0.576923 3.46154L3.60577 3.46154L3.60577 0.576923C3.60577 0.258462 3.86423 0 4.18269 0C4.50115 0 4.75962 0.258462 4.75962 0.576923L4.75962 3.46154L7.78846 3.46154C8.10692 3.46154 8.36539 3.72 8.36539 4.03846C8.36539 4.35692 8.10692 4.61539 7.78846 4.61539Z" transform="translate(14.317307 12.211538)" id="Path" fill="#FFFFFF" stroke="#FFFFFF" stroke-width="0.86538464" />
  </g>
</svg>