<?xml version="1.0" encoding="utf-8"?>
<svg width="24px" height="19px" viewBox="0 0 24 19" version="1.1" xmlns:xlink="http://www.w3.org/1999/xlink" xmlns="http://www.w3.org/2000/svg">
  <g id="Group-4">
    <g id="men">
      <path d="M4.74871 1.54283C4.74871 1.00116 4.84633 0.481537 5.02501 0L3.27206 0C1.46784 0 0 1.44487 0 3.22085L0 6.77598C0 7.84155 0.88068 8.70849 1.96323 8.70849L4.86129 8.70849C4.78864 8.50681 4.74871 8.2901 4.74871 8.06428L4.74871 1.54283Z" transform="translate(0 10.254814)" id="Path" fill="#4086F1" stroke="none" />
      <path d="M7.27954 0L3.27206 0C1.46784 0 0 1.44487 0 3.22085L0 9.74229C0 10.098 0.292984 10.3865 0.654411 10.3865L9.89719 10.3865C10.2586 10.3865 10.5516 10.0981 10.5516 9.74229L10.5516 3.22085C10.5516 1.44487 9.08375 0 7.27954 0Z" transform="translate(6.0575337 8.5768)" id="Path" fill="#4086F1" stroke="none" />
      <path d="M3.93506 0C1.76526 0 0 1.73763 0 3.87352C0 5.32227 0.812326 6.58755 2.01198 7.25185C2.58099 7.56692 3.23699 7.74699 3.93506 7.74699C4.63312 7.74699 5.28912 7.56692 5.85814 7.25185C7.05783 6.58755 7.87011 5.32222 7.87011 3.87352C7.87011 1.73767 6.10486 0 3.93506 0Z" transform="translate(7.398276 0.036605503)" id="Path" fill="#4086F1" stroke="none" />
      <path d="M2.9429 0C1.32016 0 0 1.2995 0 2.89685C0 4.4942 1.32016 5.79369 2.9429 5.79369C3.35453 5.79369 3.74651 5.70976 4.10258 5.55889C4.71821 5.29799 5.22582 4.83615 5.53992 4.25766C5.76039 3.85164 5.88581 3.38845 5.88581 2.89685C5.88581 1.29954 4.56565 0 2.9429 0Z" transform="translate(1.4805495 3.6469977)" id="Path" fill="#4086F1" stroke="none" />
      <path d="M4.74871 1.54283C4.74871 1.00116 4.84633 0.481537 5.02501 0L3.27206 0C1.46784 0 0 1.44487 0 3.22085L0 6.77598C0 7.84155 0.88068 8.70849 1.96323 8.70849L4.86129 8.70849C4.78864 8.50681 4.74871 8.2901 4.74871 8.06428L4.74871 1.54283Z" transform="matrix(-1 0 0 1 23.025005 10.254814)" id="Path" fill="#4086F1" stroke="none" />
      <path d="M2.9429 0C1.32016 0 0 1.2995 0 2.89685C0 4.4942 1.32016 5.79369 2.9429 5.79369C3.35453 5.79369 3.74651 5.70976 4.10258 5.55889C4.71821 5.29799 5.22582 4.83615 5.53992 4.25766C5.76039 3.85164 5.88581 3.38845 5.88581 2.89685C5.88581 1.29954 4.56565 0 2.9429 0Z" transform="matrix(-1 0 0 1 21.366358 3.6469977)" id="Path" fill="#4086F1" stroke="none" />
    </g>
  </g>
</svg>