<?xml version="1.0" encoding="utf-8"?>
<svg width="19px" height="21px" viewBox="0 0 19 21" version="1.1" xmlns:xlink="http://www.w3.org/1999/xlink" xmlns="http://www.w3.org/2000/svg">
  <g id="archive-(1)">
    <path d="M18.0036 0L0.996444 0C0.447204 0 0 0.44485 0 0.9912L0 10.15L19 10.15L19 0.9912C19 0.44485 18.5528 0 18.0036 0ZM12.6667 5.07325C12.6667 5.7498 12.1136 6.3 11.4334 6.3L7.56657 6.3C6.88644 6.3 6.33333 5.7498 6.33333 5.07325L6.33333 4.55C6.33333 4.35645 6.49061 4.2 6.68519 4.2C6.87976 4.2 7.03704 4.35645 7.03704 4.55L7.03704 5.07325C7.03704 5.36375 7.27454 5.6 7.56657 5.6L11.4334 5.6C11.7255 5.6 11.963 5.36375 11.963 5.07325L11.963 4.55C11.963 4.35645 12.1202 4.2 12.3148 4.2C12.5094 4.2 12.6667 4.35645 12.6667 4.55L12.6667 5.07325Z" id="Shape" fill="#4086F1" stroke="none" />
    <path d="M0 9.1588C0 9.70515 0.447204 10.15 0.996444 10.15L18.0036 10.15C18.5528 10.15 19 9.70515 19 9.1588L19 0L0 0L0 9.1588ZM6.33333 3.85C6.33333 3.65645 6.49061 3.5 6.68519 3.5C6.87976 3.5 7.03704 3.65645 7.03704 3.85L7.03704 4.37325C7.03704 4.66375 7.27454 4.9 7.56657 4.9L11.4334 4.9C11.7255 4.9 11.963 4.66375 11.963 4.37325L11.963 3.85C11.963 3.65645 12.1202 3.5 12.3148 3.5C12.5094 3.5 12.6667 3.65645 12.6667 3.85L12.6667 4.37325C12.6667 5.0498 12.1136 5.6 11.4334 5.6L7.56657 5.6C6.88644 5.6 6.33333 5.0498 6.33333 4.37325L6.33333 3.85Z" transform="translate(0 10.85)" id="Shape" fill="#4086F1" stroke="none" />
  </g>
</svg>