<?xml version="1.0" encoding="utf-8"?>
<svg width="23px" height="23px" viewBox="0 0 23 23" version="1.1" xmlns:xlink="http://www.w3.org/1999/xlink" xmlns="http://www.w3.org/2000/svg">
  <g id="link-4">
    <path d="M11.4996 0C5.14863 0 0 5.14901 0 11.4998C0 17.8505 5.14863 23 11.4996 23C17.8506 23 22.9998 17.8508 22.9998 11.4998C22.9998 5.1487 17.8506 0 11.4996 0ZM17.2778 9.45315L14.4652 12.2657C14.1601 12.5708 13.7545 12.7388 13.3232 12.7388C12.892 12.7388 12.4863 12.5707 12.1813 12.2659L12.0711 12.1557L11.7716 12.4552L11.8816 12.5651C12.5113 13.1949 12.5113 14.2195 11.8816 14.8493L9.06936 17.6619C8.7643 17.9669 8.35874 18.1349 7.92718 18.1349C7.4957 18.1349 7.09006 17.9668 6.78485 17.6616L5.72186 16.5983C5.09212 15.969 5.09212 14.9444 5.72163 14.3144L8.53446 11.502C8.83951 11.1969 9.24508 11.029 9.67664 11.029C10.1082 11.029 10.5135 11.197 10.8188 11.502L10.9286 11.6118L11.2281 11.3123L11.1183 11.2025C10.4885 10.573 10.4885 9.54837 11.1179 8.91863L13.9307 6.10604C14.2359 5.80083 14.6416 5.63278 15.0729 5.63278C15.5042 5.63278 15.9098 5.80083 16.2151 6.10581L17.2783 7.16941C17.9075 7.79876 17.9075 8.82357 17.2778 9.45315Z" transform="translate(7.666666E-05 0)" id="Shape" fill="#4086F1" stroke="none" />
    <path d="M4.4859 1.07655L3.9421 1.62035L3.09862 0.777093L3.64241 0.233297L3.53263 0.12351C3.45289 0.0440067 3.34694 0 3.23439 0C3.12162 0 3.01566 0.04393 2.93593 0.12351L0.123337 2.93572C-0.0411125 3.10032 -0.0411125 3.36797 0.123337 3.53242L1.1867 4.59601C1.3464 4.75571 1.62432 4.75548 1.78363 4.59624L4.59584 1.78365C4.76052 1.61905 4.76052 1.35117 4.59584 1.18649L4.4859 1.07655Z" transform="translate(6.442089 12.22197)" id="Path" fill="#4086F1" stroke="none" />
    <path d="M3.53312 0.123663C3.45338 0.04393 3.3472 0 3.23442 0C3.12165 0 3.01546 0.04393 2.93573 0.123893L0.123136 2.93633C-0.0410837 3.10094 -0.0410837 3.36858 0.123366 3.53326L0.233306 3.64305L1.06744 2.80868L1.91093 3.65217L1.07679 4.48653L1.18673 4.59647C1.34643 4.75571 1.62396 4.75594 1.78366 4.59624L4.5961 1.78403C4.76055 1.61943 4.76055 1.35179 4.5961 1.18711L3.53312 0.123663Z" transform="translate(11.838014 6.8256335)" id="Path" fill="#4086F1" stroke="none" />
  </g>
</svg>