<?xml version="1.0" encoding="utf-8"?>
<svg width="16px" height="20px" viewBox="0 0 16 20" version="1.1" xmlns:xlink="http://www.w3.org/1999/xlink" xmlns="http://www.w3.org/2000/svg">
  <g id="garbage">
    <path d="M15.3469 2.0339L10.7611 2.0339C10.7252 1.61017 10.5995 0.895593 10.1691 0.436949C9.89682 0.147119 9.55135 0 9.14253 0L5.87755 0C5.46873 0 5.12327 0.147119 4.85094 0.436949C4.42057 0.895593 4.29486 1.61017 4.25894 2.0339L0.326531 2.0339C0.146286 2.0339 0 2.18542 0 2.37288C0 2.56034 0.146286 2.71186 0.326531 2.71186L0.99298 2.71186L1.61829 18.3122C1.63037 18.8959 1.98041 20 3.2209 20L12.4526 20C13.6931 20 14.0431 18.8959 14.0549 18.3193L14.6805 2.71186L15.3469 2.71186C15.5272 2.71186 15.6735 2.56034 15.6735 2.37288C15.6735 2.18542 15.5272 2.0339 15.3469 2.0339ZM5.0068 16.9492C5.0068 17.1366 4.83614 17.2881 4.62585 17.2881C4.41556 17.2881 4.2449 17.1366 4.2449 16.9492L4.2449 5.76271C4.2449 5.57525 4.41556 5.42373 4.62585 5.42373C4.83614 5.42373 5.0068 5.57525 5.0068 5.76271L5.0068 16.9492ZM8.27211 16.9492C8.27211 17.1366 8.10144 17.2881 7.89116 17.2881C7.68087 17.2881 7.5102 17.1366 7.5102 16.9492L7.5102 5.76271C7.5102 5.57525 7.68087 5.42373 7.89116 5.42373C8.10144 5.42373 8.27211 5.57525 8.27211 5.76271L8.27211 16.9492ZM11.5374 16.9492C11.5374 17.1366 11.3667 17.2881 11.1565 17.2881C10.9462 17.2881 10.7755 17.1366 10.7755 16.9492L10.7755 5.76271C10.7755 5.57525 10.9462 5.42373 11.1565 5.42373C11.3667 5.42373 11.5374 5.57525 11.5374 5.76271L11.5374 16.9492ZM5.97414 1.3701C6.08152 1.2785 6.2155 1.2339 6.38352 1.2339L8.78011 1.2339C8.94813 1.2339 9.08211 1.2785 9.18949 1.3701C9.38243 1.5347 9.45985 1.8243 9.48669 2.0339L5.67717 2.0339C5.70401 1.8243 5.78143 1.5347 5.97414 1.3701Z" transform="translate(0.1632653 0)" id="Shape" fill="#4086F1" stroke="none" />
  </g>
</svg>