<?xml version="1.0" encoding="utf-8"?>
<svg width="18px" height="14px" viewBox="0 0 18 14" version="1.1" xmlns:xlink="http://www.w3.org/1999/xlink" xmlns="http://www.w3.org/2000/svg">
  <g id="sign-out-option">
    <path d="M7.02521 12.95C7.00322 12.8917 6.99565 12.8421 7.0031 12.802C7.01053 12.7621 6.98496 12.7291 6.92633 12.7037C6.86769 12.6782 6.83844 12.6581 6.83844 12.6437C6.83844 12.6291 6.79641 12.6181 6.71218 12.6109C6.62798 12.6036 6.58596 12.5999 6.58596 12.5999L6.44332 12.5999L6.32259 12.5999L3.16126 12.5999C2.67829 12.5999 2.26479 12.4287 1.92081 12.0857C1.5769 11.743 1.40497 11.3311 1.40497 10.8499L1.40497 3.1498C1.40497 2.66856 1.57686 2.2567 1.92081 1.91398C2.26479 1.57122 2.67829 1.39979 3.16126 1.39979L6.67381 1.39979C6.76896 1.39979 6.84378 1.37627 6.8988 1.32876C6.95359 1.28137 6.99011 1.21023 7.00849 1.11546C7.02679 1.02068 7.03782 0.935096 7.04151 0.858515C7.04513 0.782011 7.04336 0.685318 7.03598 0.568666C7.02871 0.452052 7.02506 0.379149 7.02506 0.349842C7.02506 0.255064 6.99026 0.173197 6.92079 0.10378C6.85124 0.0346701 6.76896 0 6.67385 0L3.16126 0C2.29051 0 1.54587 0.308085 0.927455 0.924216C0.30919 1.54035 0 2.28221 0 3.14992L0 10.8499C0 11.7175 0.30919 12.4596 0.927455 13.0755C1.54587 13.6919 2.29051 14 3.16126 14L6.67396 14C6.76912 14 6.84397 13.9762 6.89895 13.929C6.95374 13.8815 6.99026 13.8104 7.00864 13.7156C7.02694 13.6209 7.03798 13.5349 7.04167 13.4586C7.04528 13.382 7.04351 13.2855 7.03613 13.1689C7.02879 13.0521 7.02521 12.9792 7.02521 12.95Z" id="Path" fill="#4086F1" stroke="none" />
    <path d="M13.0908 6.12177L6.97811 0.206569C6.83587 0.0690086 6.66727 0 6.47249 0C6.27771 0 6.1091 0.0690086 5.96671 0.206569C5.82435 0.344319 5.75324 0.507586 5.75324 0.695951L5.75324 3.82746L0.719214 3.82746C0.524317 3.82746 0.355828 3.89647 0.213473 4.03403C0.0711185 4.17178 0 4.33493 0 4.52341L0 8.69881C0 8.88725 0.0711185 9.0504 0.213473 9.18808C0.355986 9.32556 0.524435 9.39476 0.719214 9.39476L5.75328 9.39476L5.75328 12.5262C5.75328 12.7146 5.82439 12.8779 5.96675 13.0155C6.1091 13.1533 6.27771 13.2222 6.47253 13.2222C6.66727 13.2222 6.83587 13.1533 6.97815 13.0155L13.0908 7.10057C13.2332 6.9627 13.3043 6.79978 13.3043 6.61126C13.3043 6.42282 13.2332 6.25952 13.0908 6.12177Z" transform="translate(4.695652 0)" id="Path" fill="#4086F1" stroke="none" />
  </g>
</svg>