<?xml version="1.0" encoding="utf-8"?>
<svg width="17px" height="22px" viewBox="0 0 17 22" version="1.1" xmlns:xlink="http://www.w3.org/1999/xlink" xmlns="http://www.w3.org/2000/svg">
  <g id="Group-17">
    <path d="M1.41667 0C0.6375 0 0 0.61875 0 1.375L0 20.625C0 21.3813 0.6375 22 1.41667 22L15.5833 22C16.3625 22 17 21.3813 17 20.625L17 5.5L11.3333 0L1.41667 0Z" id="Path" fill="#4086F1" stroke="none" />
    <path d="M0.499 0L10.501 0Q10.5501 0 10.5983 0.00958814Q10.6466 0.0191763 10.692 0.0379841Q10.7374 0.0567919 10.7782 0.0840967Q10.8191 0.111401 10.8538 0.146154Q10.8886 0.180906 10.9159 0.22177Q10.9432 0.262635 10.962 0.308041Q10.9808 0.353447 10.9904 0.40165Q11 0.449853 11 0.499L11 0.501Q11 0.550147 10.9904 0.59835Q10.9808 0.646553 10.962 0.691959Q10.9432 0.737365 10.9159 0.778229Q10.8886 0.819094 10.8538 0.853846Q10.8191 0.888599 10.7782 0.915903Q10.7374 0.943208 10.692 0.962016Q10.6466 0.980824 10.5983 0.990412Q10.5501 1 10.501 1L0.499 1Q0.449853 1 0.40165 0.990412Q0.353447 0.980824 0.308041 0.962016Q0.262635 0.943208 0.22177 0.915903Q0.180906 0.888599 0.146154 0.853846Q0.111401 0.819094 0.0840967 0.778229Q0.0567919 0.737365 0.0379841 0.691959Q0.0191763 0.646553 0.00958814 0.59835Q3.05311e-16 0.550147 3.05311e-16 0.501L3.05311e-16 0.499Q3.05311e-16 0.449853 0.00958814 0.40165Q0.0191763 0.353447 0.0379841 0.308041Q0.0567919 0.262635 0.0840967 0.22177Q0.111401 0.180906 0.146154 0.146154Q0.180906 0.111401 0.22177 0.0840967Q0.262635 0.0567919 0.308041 0.0379841Q0.353447 0.0191763 0.40165 0.00958814Q0.449853 0 0.499 0Z" transform="translate(3 8)" id="Rectangle" fill="#FFFFFF" fill-rule="evenodd" stroke="none" />
    <path d="M0.499 0L10.501 0Q10.5501 0 10.5983 0.00958814Q10.6466 0.0191763 10.692 0.0379841Q10.7374 0.0567919 10.7782 0.0840967Q10.8191 0.111401 10.8538 0.146154Q10.8886 0.180906 10.9159 0.22177Q10.9432 0.262635 10.962 0.308041Q10.9808 0.353447 10.9904 0.40165Q11 0.449853 11 0.499L11 0.501Q11 0.550147 10.9904 0.59835Q10.9808 0.646553 10.962 0.691959Q10.9432 0.737365 10.9159 0.778229Q10.8886 0.819094 10.8538 0.853846Q10.8191 0.888599 10.7782 0.915903Q10.7374 0.943208 10.692 0.962016Q10.6466 0.980824 10.5983 0.990412Q10.5501 1 10.501 1L0.499 1Q0.449853 1 0.40165 0.990412Q0.353447 0.980824 0.308041 0.962016Q0.262635 0.943208 0.22177 0.915903Q0.180906 0.888599 0.146154 0.853846Q0.111401 0.819094 0.0840967 0.778229Q0.0567919 0.737365 0.0379841 0.691959Q0.0191763 0.646553 0.00958814 0.59835Q3.05311e-16 0.550147 3.05311e-16 0.501L3.05311e-16 0.499Q3.05311e-16 0.449853 0.00958814 0.40165Q0.0191763 0.353447 0.0379841 0.308041Q0.0567919 0.262635 0.0840967 0.22177Q0.111401 0.180906 0.146154 0.146154Q0.180906 0.111401 0.22177 0.0840967Q0.262635 0.0567919 0.308041 0.0379841Q0.353447 0.0191763 0.40165 0.00958814Q0.449853 0 0.499 0Z" transform="translate(3 11)" id="Rectangle" fill="#FFFFFF" fill-rule="evenodd" stroke="none" />
    <path d="M0.499 0L10.501 0Q10.5501 0 10.5983 0.00958814Q10.6466 0.0191763 10.692 0.0379841Q10.7374 0.0567919 10.7782 0.0840967Q10.8191 0.111401 10.8538 0.146154Q10.8886 0.180906 10.9159 0.22177Q10.9432 0.262635 10.962 0.308041Q10.9808 0.353447 10.9904 0.40165Q11 0.449853 11 0.499L11 0.501Q11 0.550147 10.9904 0.59835Q10.9808 0.646553 10.962 0.691959Q10.9432 0.737365 10.9159 0.778229Q10.8886 0.819094 10.8538 0.853846Q10.8191 0.888599 10.7782 0.915903Q10.7374 0.943208 10.692 0.962016Q10.6466 0.980824 10.5983 0.990412Q10.5501 1 10.501 1L0.499 1Q0.449853 1 0.40165 0.990412Q0.353447 0.980824 0.308041 0.962016Q0.262635 0.943208 0.22177 0.915903Q0.180906 0.888599 0.146154 0.853846Q0.111401 0.819094 0.0840967 0.778229Q0.0567919 0.737365 0.0379841 0.691959Q0.0191763 0.646553 0.00958814 0.59835Q3.05311e-16 0.550147 3.05311e-16 0.501L3.05311e-16 0.499Q3.05311e-16 0.449853 0.00958814 0.40165Q0.0191763 0.353447 0.0379841 0.308041Q0.0567919 0.262635 0.0840967 0.22177Q0.111401 0.180906 0.146154 0.146154Q0.180906 0.111401 0.22177 0.0840967Q0.262635 0.0567919 0.308041 0.0379841Q0.353447 0.0191763 0.40165 0.00958814Q0.449853 0 0.499 0Z" transform="translate(3 14)" id="Rectangle" fill="#FFFFFF" fill-rule="evenodd" stroke="none" />
  </g>
</svg>