<?xml version="1.0" encoding="utf-8"?>
<svg width="23px" height="23px" viewBox="0 0 23 23" version="1.1" xmlns:xlink="http://www.w3.org/1999/xlink" xmlns="http://www.w3.org/2000/svg">
  <g id="info">
    <path d="M10.8049 21.6099C4.84706 21.6099 0 16.7628 0 10.8049C0 4.84706 4.84706 0 10.8049 0C16.7628 0 21.6099 4.84706 21.6099 10.8049C21.6099 16.7628 16.7628 21.6099 10.8049 21.6099Z" transform="translate(0.69505495 0.69505495)" id="Shape" fill="#4086F1" fill-rule="evenodd" stroke="none" />
    <path d="M1.26816 2.53632C1.96854 2.53632 2.53632 1.96854 2.53632 1.26816C2.53632 0.567774 1.96854 0 1.26816 0C0.567774 0 0 0.567774 0 1.26816C0 1.96854 0.567774 2.53632 1.26816 2.53632Z" transform="translate(10.4282255 5.3188133)" id="Oval" fill="#FFFFFF" stroke="none" />
    <path d="M0.758242 0C0.339692 0 0 0.339692 0 0.758242L0 7.2033C0 7.62185 0.339692 7.96154 0.758242 7.96154C1.17679 7.96154 1.51648 7.62185 1.51648 7.2033L1.51648 0.758242C1.51648 0.339313 1.17679 0 0.758242 0Z" transform="translate(10.604137 9.923615)" id="Path" fill="#FFFFFF" stroke="none" />
  </g>
</svg>