<svg width="38" height="38" viewBox="0 0 38 38" fill="none" xmlns="http://www.w3.org/2000/svg">
<g clip-path="url(#clip0_0_364)">
<path d="M15.7019 1.9395C15.5557 1.71737 15.3076 1.58355 15.0417 1.58325H0.791691C0.354469 1.58325 1.56014e-08 1.93772 1.56014e-08 2.37494V35.6249C-7.42031e-05 36.0012 0.264664 36.3255 0.633308 36.4007C0.68541 36.4112 0.738476 36.4166 0.791617 36.4166C1.10742 36.4177 1.39361 36.231 1.51993 35.9416L15.7699 2.69156C15.8761 2.44553 15.8505 2.16253 15.7019 1.9395Z" fill="#F44336"/>
<path d="M19.7331 13.9523C19.6119 13.6538 19.3221 13.4585 19 13.4583C18.6814 13.4582 18.3937 13.6491 18.2701 13.9428L11.9367 28.9844C11.7671 29.3874 11.9563 29.8516 12.3592 30.0213C12.4565 30.0622 12.5611 30.0833 12.6666 30.0833H18.4506L20.634 35.9036C20.7501 36.2122 21.0452 36.4166 21.375 36.4166H27.7083C28.1455 36.4163 28.4998 36.0617 28.4995 35.6245C28.4994 35.5226 28.4797 35.4217 28.4414 35.3273L19.7331 13.9523Z" fill="#F44336"/>
<path d="M37.2083 1.58326H22.9583C22.5211 1.5817 22.1654 1.93491 22.1639 2.37213C22.1635 2.48205 22.186 2.59085 22.2299 2.69157L36.4799 35.9416C36.6063 36.231 36.8925 36.4177 37.2082 36.4166C37.2614 36.4165 37.3145 36.4112 37.3666 36.4007C37.7352 36.3255 37.9999 36.0012 37.9999 35.6249V2.37495C38 1.93773 37.6455 1.58326 37.2083 1.58326Z" fill="#F44336"/>
</g>
<defs>
<clipPath id="clip0_0_364">
<rect width="38" height="38" fill="white"/>
</clipPath>
</defs>
</svg>
