<svg width="38" height="36" viewBox="0 0 38 36" fill="none" xmlns="http://www.w3.org/2000/svg">
<path d="M15.7019 0.939502C15.5557 0.717365 15.3076 0.583549 15.0417 0.583252H0.791691C0.354469 0.583252 1.56014e-08 0.937721 1.56014e-08 1.37494V34.6249C-7.42031e-05 35.0012 0.264664 35.3255 0.633308 35.4007C0.68541 35.4112 0.738476 35.4166 0.791617 35.4166C1.10742 35.4177 1.39361 35.231 1.51993 34.9416L15.7699 1.69156C15.8761 1.44553 15.8505 1.16253 15.7019 0.939502Z" fill="#F44336"/>
<path d="M19.7331 12.9523C19.6119 12.6538 19.3221 12.4585 19 12.4583C18.6814 12.4582 18.3937 12.6491 18.2701 12.9428L11.9367 27.9844C11.7671 28.3874 11.9563 28.8516 12.3592 29.0213C12.4565 29.0622 12.5611 29.0833 12.6666 29.0833H18.4506L20.634 34.9036C20.7501 35.2122 21.0452 35.4166 21.375 35.4166H27.7083C28.1455 35.4163 28.4998 35.0617 28.4995 34.6245C28.4994 34.5226 28.4797 34.4217 28.4414 34.3273L19.7331 12.9523Z" fill="#F44336"/>
<path d="M37.2083 0.583257H22.9583C22.5211 0.581698 22.1654 0.934905 22.1639 1.37213C22.1635 1.48205 22.186 1.59085 22.2299 1.69157L36.4799 34.9416C36.6063 35.231 36.8925 35.4177 37.2082 35.4166C37.2614 35.4165 37.3145 35.4112 37.3666 35.4007C37.7352 35.3255 37.9999 35.0012 37.9999 34.6249V1.37495C38 0.937726 37.6455 0.583257 37.2083 0.583257Z" fill="#F44336"/>
</svg>
