<svg width="36" height="36" viewBox="0 0 36 36" fill="none" xmlns="http://www.w3.org/2000/svg">
<g clip-path="url(#clip0_0_556)">
<path d="M20.7491 34.9466C20.7491 35.434 20.3835 35.8468 19.8988 35.8988C19.275 35.9656 18.6415 36 18 36C17.166 36 16.3456 35.942 15.5424 35.8298C14.7864 35.7242 14.2275 35.0705 14.2275 34.307C14.2275 29.8748 10.6345 26.2819 6.20234 26.2819H3.37939C2.677 26.2819 2.03819 25.8647 1.76579 25.2173C0.890361 23.1366 0.40332 20.8524 0.395272 18.4553C0.362793 8.7329 8.27762 0.790405 18.0001 0.790405C27.7229 0.790405 35.6048 8.67232 35.6048 18.3952C35.6048 21.5323 34.7842 24.4777 33.3461 27.0286C33.1244 27.4217 32.7077 27.6647 32.2565 27.6647H28.0311C24.0093 27.6647 20.7491 30.9248 20.7491 34.9466Z" fill="#012D4E"/>
<path d="M33.3772 23.0659V26.9731C30.6348 31.8788 25.6129 35.3372 19.7451 35.9146C18.495 35.6027 17.5689 34.4724 17.5689 33.1257C17.5689 33.1645 17.5681 33.203 17.5666 33.2413C17.5378 33.9685 16.4431 33.9358 16.4431 33.208V22.9835C16.4431 22.2557 17.5377 22.2231 17.5666 22.9502C17.5681 22.9885 17.5689 23.027 17.5689 23.0658C17.5689 21.4784 18.8557 20.1915 20.4431 20.1915H30.503C32.0904 20.1916 33.3772 21.4785 33.3772 23.0659Z" fill="#0AB59E"/>
<path d="M33.3772 23.0659V26.9732C31.9234 29.5739 29.8288 31.7678 27.3073 33.3414H25.976C22.8012 33.3414 20.2275 30.7677 20.2275 27.5928V25.9402C20.2275 22.7653 22.8012 20.1917 25.976 20.1917H30.503C32.0904 20.1917 33.3772 21.4785 33.3772 23.0659Z" fill="#0ED1B2"/>
<path d="M29.3614 30.9224C29.236 31.072 29.0997 31.2125 28.9564 31.3401C28.2254 31.9912 27.2828 32.3353 26.2307 32.3353C23.5762 32.3353 21.4166 30.1757 21.4166 27.5212C21.4166 24.8667 23.5762 22.707 26.2307 22.707C27.1954 22.707 28.1264 22.9915 28.9229 23.5296C29.2518 23.7518 29.3382 24.1985 29.116 24.5273C28.8939 24.8561 28.4472 24.9426 28.1184 24.7204C27.5604 24.3434 26.9076 24.1441 26.2307 24.1441C24.3686 24.1441 22.8537 25.659 22.8537 27.5211C22.8537 29.3832 24.3686 30.8982 26.2307 30.8982C26.9348 30.8982 27.5302 30.6858 28.0005 30.267C28.0921 30.1854 28.1795 30.0952 28.2604 29.9988C28.5155 29.6948 28.9687 29.655 29.2727 29.9101C29.5767 30.1652 29.6165 30.6184 29.3614 30.9224Z" fill="#006E66"/>
<path d="M17.5689 23.0659V33.1258C17.5689 34.3838 16.7607 35.4529 15.6352 35.8425C9.35905 34.9999 4.13065 30.8504 1.76047 25.2046V23.0659C1.76047 21.4785 3.04734 20.1917 4.63472 20.1917H14.6946C16.282 20.1917 17.5689 21.4785 17.5689 23.0659Z" fill="#E43950"/>
<path d="M17.5689 23.0659V27.5928C17.5689 30.7677 14.9952 33.3414 11.8204 33.3414H10.1677C9.44328 33.3414 8.75022 33.2073 8.11185 32.9628C7.0496 32.2404 6.07056 31.4048 5.1919 30.4734C4.70055 29.6265 4.41916 28.6425 4.41916 27.5928V25.9402C4.41916 22.7653 6.99284 20.1917 10.1677 20.1917H14.6946C16.282 20.1917 17.5689 21.4785 17.5689 23.0659Z" fill="#FD4343"/>
<path d="M11.5595 26.9565C11.9268 26.5076 12.1474 25.9342 12.1474 25.3104C12.1474 23.8749 10.9796 22.707 9.54416 22.707H7.16485C6.76799 22.707 6.44629 23.0287 6.44629 23.4256V31.6167C6.44629 31.6383 6.4473 31.6598 6.44924 31.6811C6.70842 31.9066 6.97422 32.1247 7.24634 32.3349C7.64291 32.3332 9.42883 32.3255 9.9597 32.3255C11.5717 32.3255 12.883 31.0141 12.883 29.4022C12.883 28.3803 12.356 27.4792 11.5595 26.9565ZM7.88341 24.1442H9.54416C10.1872 24.1442 10.7103 24.6673 10.7103 25.3104C10.7103 25.9534 10.1871 26.4766 9.54416 26.4766C9.36991 26.4766 9.04044 26.4775 8.68088 26.4788H7.88341V24.1442ZM9.9597 30.8884C9.58282 30.8884 8.58006 30.8922 7.88341 30.8951V27.919C8.13268 27.918 8.41695 27.9169 8.6844 27.916H9.9597C10.7792 27.916 11.4459 28.5827 11.4459 29.4022C11.4459 30.2218 10.7792 30.8884 9.9597 30.8884Z" fill="#962437"/>
<path d="M27.6534 15.3684L17.9363 17.9721C16.4029 18.383 14.8269 17.473 14.416 15.9397L11.8123 6.22261C11.4014 4.68927 12.3114 3.11324 13.8447 2.70237L23.5618 0.0986574C25.0952 -0.312217 26.6712 0.597771 27.0821 2.13104L29.6858 11.8482C30.0966 13.3814 29.1867 14.9575 27.6534 15.3684Z" fill="#F5C02C"/>
<path d="M24.1889 13.5441L22.5925 13.9719C19.5259 14.7936 16.3738 12.9737 15.5521 9.90706L15.1243 8.3107C14.3026 5.24409 16.1225 2.09197 19.1891 1.27022L23.5618 0.0985354C25.0951 -0.312339 26.6712 0.597649 27.082 2.13092L28.2537 6.50359C29.0754 9.57034 27.2556 12.7225 24.1889 13.5441Z" fill="#FDED32"/>
<path d="M25.4304 11.5951L20.3962 4.58309C20.3921 4.57734 20.3879 4.57174 20.3837 4.56613C20.1602 4.27325 19.7858 4.14585 19.4301 4.24163C19.0743 4.33734 18.8144 4.63533 18.7679 5.00072C18.7672 5.00654 18.7665 5.01236 18.7659 5.01818L17.8852 13.6148C17.8447 14.0096 18.132 14.3624 18.5268 14.4028C18.5517 14.4054 18.5764 14.4066 18.6009 14.4066C18.9647 14.4066 19.2769 14.1311 19.3148 13.7612L19.4837 12.1129L23.299 11.0906L24.263 12.4333C24.4944 12.7557 24.9434 12.8294 25.2658 12.598C25.5882 12.3664 25.6618 11.9175 25.4304 11.5951ZM19.6405 10.583L20.0519 6.56755L22.4033 9.84276L19.6405 10.583Z" fill="#C98001"/>
</g>
<defs>
<clipPath id="clip0_0_556">
<rect width="36" height="36" fill="white"/>
</clipPath>
</defs>
</svg>
