<?xml version="1.0" encoding="utf-8"?>
<!-- Generator: Adobe Illustrator 19.2.1, SVG Export Plug-In . SVG Version: 6.00 Build 0)  -->
<svg version="1.1" id="layer" xmlns="http://www.w3.org/2000/svg" xmlns:xlink="http://www.w3.org/1999/xlink" x="0px" y="0px"
	 viewBox="0 0 652 652" style="enable-background:new 0 0 652 652;" xml:space="preserve">
<style type="text/css">
	.st0{fill:#005A8C;}
	.st1{fill:#575A5D;}
</style>
<g>
	<g>
		<path class="st0" d="M154.5,405c4.5,0,6.5-1.4,6.5-5.2c0-1.4-0.7-2.8-2.1-3.8c-1-0.7-2.8-0.7-4.5-0.7c-1,0-1,0-1,0
			c-5.5,0-5.5,0-5.5,0c0,9.6,0,9.6,0,9.6H154.5z M145.8,393.3c7.6,0,7.6,0,7.6,0c0.3,0,0.3,0,0.3,0c2.8,0,4.8,0,6.6,1
			c1.7,1,2.8,3.1,2.8,5.5c0,3.1-1.4,5.2-3.8,6.2c2.4,0.7,2.8,2.4,3.1,5.5c0.3,3.8,0.3,3.8,0.3,3.8c0,1,0.3,1.7,0.7,2.1
			c0,0.3,0,0.3,0,0.3c-2.4,0-2.4,0-2.4,0c-0.3-0.3-0.7-1.4-0.7-2.4c-0.3-3.1-0.3-3.1-0.3-3.1c0-4.5-0.7-5.5-4.8-5.5
			c-7.2,0-7.2,0-7.2,0c0,11,0,11,0,11c-2.1,0-2.1,0-2.1,0V393.3z"/>
		<polygon class="st0" points="177.6,393.3 193.8,393.3 193.8,395.4 180,395.4 180,404.3 192.8,404.3 192.8,406.4 180,406.4 
			180,415.7 194.1,415.7 194.1,417.8 177.6,417.8 		"/>
		<path class="st0" d="M209.3,410.5c0,3.8,2.8,5.9,6.9,5.9c4.1,0,6.2-1.7,6.2-4.8c0-3.1-1.7-4.1-5.9-5.2c-2.1-0.3-2.1-0.3-2.1-0.3
			c-4.5-1.4-6.9-2.8-6.9-6.9c0-3.8,3.1-6.5,8.3-6.5c5.2,0,7.9,2.8,8.3,7.6c-2.4,0-2.4,0-2.4,0c0-3.4-2.4-5.5-6.2-5.5
			c-3.4,0-5.5,1.7-5.5,4.8c0,2.1,1.4,3.4,4.1,4.1c2.8,0.7,2.8,0.7,2.8,0.7c5.5,1.4,7.9,3.1,7.9,7.2c0,4.1-3.4,6.9-8.6,6.9
			c-5.9,0-9-2.8-9-7.9l0,0H209.3z"/>
		<polygon class="st0" points="239,393.3 255.2,393.3 255.2,395.4 241.1,395.4 241.1,404.3 253.9,404.3 253.9,406.4 241.1,406.4 
			241.1,415.7 255.6,415.7 255.6,417.8 239,417.8 		"/>
		<path class="st0" d="M282.2,408.5l-4.8-12.7l-4.8,12.7H282.2z M276,393.3h2.8l9.3,24.4h-2.4l-2.8-7.2h-11l-2.8,7.2h-2.4L276,393.3
			z"/>
		<path class="st0" d="M309.4,405c4.5,0,6.6-1.4,6.6-5.2c0-1.4-0.7-2.8-2.1-3.8c-1-0.7-2.8-0.7-4.5-0.7c-1,0-1,0-1,0
			c-5.5,0-5.5,0-5.5,0c0,9.6,0,9.6,0,9.6H309.4z M300.5,393.3c7.9,0,7.9,0,7.9,0c0.3,0,0.3,0,0.3,0c2.8,0,4.8,0,6.6,1
			c1.7,1,2.8,3.1,2.8,5.5c0,3.1-1.4,5.2-3.8,6.2c2.4,0.7,2.8,2.4,3.1,5.5c0.3,3.8,0.3,3.8,0.3,3.8c0,1,0.3,1.7,0.7,2.1
			c0,0.3,0,0.3,0,0.3c-2.4,0-2.4,0-2.4,0c-0.3-0.3-0.7-1.4-0.7-2.4c-0.3-3.1-0.3-3.1-0.3-3.1c-0.3-4.5-0.7-5.5-4.8-5.5
			c-7.2,0-7.2,0-7.2,0c0,11,0,11,0,11c-2.4,0-2.4,0-2.4,0V393.3z"/>
		<path class="st0" d="M352.3,409.8c-0.3,5.5-4.1,8.6-10,8.6c-6.6,0-10.7-4.8-10.7-12.7c0-8.3,4.5-13.1,10.7-13.1
			c5.9,0,9.3,3.1,9.7,7.9c-2.1,0-2.1,0-2.1,0c-0.7-3.4-3.4-5.9-7.6-5.9c-5.2,0-8.3,3.8-8.3,11c0,6.9,3.4,10.7,8.6,10.7
			c4.1,0,6.9-2.4,7.2-6.5H352.3z"/>
		<polygon class="st0" points="366.4,393.3 368.8,393.3 368.8,404 382.6,404 382.6,393.3 385.1,393.3 385.1,417.8 382.6,417.8 
			382.6,406.1 368.8,406.1 368.8,417.8 366.4,417.8 		"/>
		<polygon class="st0" points="144.4,372.7 144.4,303.8 172.7,303.8 172.7,310.3 152,310.3 152,334.8 171.4,334.8 171.4,341.3 
			152,341.3 152,366.1 174.1,366.1 174.1,372.7 		"/>
		<path class="st0" d="M201.1,372.7c-7.9,0-7.9,0-7.9,0c-13.5-49.2-13.5-49.2-13.5-49.2c7.3,0,7.3,0,7.3,0
			c9.3,36.8,9.3,36.8,9.3,36.8c0.3,2.1,0.7,4.1,1,6.2l0,0c0.7-2.8,1-4.8,1.4-6.2c10.7-36.8,10.7-36.8,10.7-36.8c7.2,0,7.2,0,7.2,0
			L201.1,372.7z"/>
		<path class="st0" d="M248,344.1c0-10.3-3.1-15.8-9.3-15.8c-3.1,0-5.5,1.4-7.6,4.1c-2.1,2.8-3.1,6.5-3.4,11.7H248z M227.6,349.6
			c0,12.1,4.5,17.9,13.1,17.9c3.4,0,7.6-1.4,11.4-3.8c0,6.5,0,6.5,0,6.5c-3.8,2.1-7.9,3.1-12.4,3.1c-6.2,0-11-2.1-14.2-6.5
			c-3.4-4.1-5.2-10.7-5.2-18.9c0-7.6,1.7-13.8,5.2-18.3c3.1-4.8,7.6-6.9,13.5-6.9c10.7,0,15.9,7.2,15.9,22.4c0,4.5,0,4.5,0,4.5
			H227.6z"/>
		<path class="st0" d="M286.3,330.3c-1.7-0.7-3.1-1-4.5-1c-7.2,0-10.7,6.2-10.7,18.3c0,25.1,0,25.1,0,25.1c-6.9,0-6.9,0-6.9,0
			c0-49.2,0-49.2,0-49.2c6.9,0,6.9,0,6.9,0c0,8.6,0,8.6,0,8.6c0.3,0,0.3,0,0.3,0c1.4-6.2,5.2-9.3,10.7-9.3c1.7,0,3.1,0,4.1,0.3
			V330.3z"/>
		<path class="st0" d="M315.3,344.1c0-10.3-3.1-15.8-9.3-15.8c-3.1,0-5.5,1.4-7.6,4.1c-1.7,2.8-2.8,6.5-3.1,11.7H315.3z
			 M295.3,349.6c0,12.1,4.1,17.9,12.8,17.9c3.8,0,7.6-1.4,11.4-3.8c0,6.5,0,6.5,0,6.5c-3.8,2.1-7.9,3.1-12.4,3.1
			c-6.2,0-10.7-2.1-14.2-6.5c-3.1-4.1-4.8-10.7-4.8-18.9c0-7.6,1.7-13.8,4.8-18.3c3.4-4.8,7.9-6.9,13.5-6.9
			c10.7,0,16.2,7.2,16.2,22.4c0,4.5,0,4.5,0,4.5H295.3z"/>
		<path class="st0" d="M329.5,370.9c0-6.9,0-6.9,0-6.9c3.8,2.4,7.2,3.4,10.7,3.4c5.9,0,8.6-2.4,8.6-7.6c0-1.7-0.3-3.1-1.7-4.5
			c-1-1.4-3.1-2.8-6.2-4.8c-4.8-2.4-7.9-4.8-9.3-7.2c-1.4-2.1-2.1-4.5-2.1-7.2c0-3.8,1.4-7.2,4.5-9.6c2.8-2.8,6.6-3.8,11-3.8
			c3.4,0,6.6,0.3,9.3,1.7c0,6.9,0,6.9,0,6.9c-3.1-2.1-6.2-2.8-9.3-2.8c-2.4,0-4.5,0.7-5.9,2.1c-1.7,1.4-2.4,3.1-2.4,5.2
			c0,1.7,0.7,3.1,1.4,4.5c1,1.4,3.5,3.1,6.9,5.2c4.8,2.4,7.6,4.8,9,7.2c1.4,2.1,2.1,4.5,2.1,7.2c0,3.8-1.4,7.2-4.1,9.6
			c-2.8,2.8-6.6,3.8-11.7,3.8C336,373.3,332.6,372.7,329.5,370.9"/>
		<path class="st0" d="M384,372.3c-1.7,0.7-4.1,1-6.2,1c-7.2,0-10.7-4.1-10.7-12.4c0-31.7,0-31.7,0-31.7c-6.9,0-6.9,0-6.9,0
			c0-5.9,0-5.9,0-5.9c6.9,0,6.9,0,6.9,0c0-12.1,0-12.1,0-12.1c0-0.3,0.7-0.3,1.4-0.7c2.8-0.7,4.5-1.4,5.5-1.7c0,14.5,0,14.5,0,14.5
			c10,0,10,0,10,0c0,5.9,0,5.9,0,5.9c-10,0-10,0-10,0c0,31,0,31,0,31c0,4.8,1.7,7.2,5.5,7.2c1.7,0,3.1-0.3,4.5-1V372.3z"/>
		<path class="st0" d="M456.5,367.8c-5.5,4.1-11.4,5.9-17.9,5.9c-7.9,0-14.2-3.1-19-9.3c-4.8-6.2-7.2-14.8-7.2-25.1
			c0-11,2.4-19.6,7.6-26.5c5.5-6.9,12.1-10,20.7-10c5.2,0,9.7,1,14.2,3.1c0,7.9,0,7.9,0,7.9c-4.5-3.1-9.3-4.5-14.2-4.5
			c-6.2,0-11,2.8-14.8,8.3s-5.9,12.4-5.9,21c0,9,1.7,15.8,5.2,21c3.8,5.2,8.3,7.6,14.2,7.6c3.4,0,6.9-1,9.7-2.8c0-21,0-21,0-21
			c-11.4,0-11.4,0-11.4,0c0-6.2,0-6.2,0-6.2c19,0,19,0,19,0V367.8z"/>
		<path class="st0" d="M491,330.3c-1.7-0.7-3.1-1-4.5-1c-7.2,0-10.7,6.2-10.7,18.3c0,25.1,0,25.1,0,25.1c-7.3,0-7.3,0-7.3,0
			c0-49.2,0-49.2,0-49.2c7.3,0,7.3,0,7.3,0c0,8.6,0,8.6,0,8.6l0,0c1.7-6.2,5.5-9.3,11-9.3c1.7,0,3.1,0,4.1,0.3V330.3z"/>
		<path class="st0" d="M511.4,328.6c-3.8,0-6.6,1.7-8.6,5.2c-1.7,3.4-2.8,8.3-2.8,14.5c0,12.7,3.8,19.3,11.4,19.3
			c7.2,0,11-6.5,11-19.6c0-6.2-1-11-2.8-14.1C517.6,330.3,514.9,328.6,511.4,328.6 M511.1,373.3c-5.9,0-10.4-2.1-13.5-6.5
			c-3.4-4.5-4.8-10.7-4.8-18.3c0-8.3,1.4-14.8,4.8-19.3c3.5-4.5,7.9-6.5,13.8-6.5c5.9,0,10.3,2.1,13.5,6.5
			c3.4,4.5,5.2,10.3,5.2,18.3c0,8.3-1.7,14.5-4.8,18.9C521.8,371.3,517.3,373.3,511.1,373.3"/>
		<path class="st0" d="M565.6,372.7c0-7.6,0-7.6,0-7.6c-0.3,0-0.3,0-0.3,0c-2.4,5.5-6.9,8.3-12.4,8.3c-9,0-13.5-5.2-13.5-15.5
			c0-34.4,0-34.4,0-34.4c6.9,0,6.9,0,6.9,0c0,32.7,0,32.7,0,32.7c0,7.6,3.1,11.4,9,11.4c3.1,0,5.5-1.4,7.3-3.4
			c2.1-2.4,3.1-5.2,3.1-9c0-31.7,0-31.7,0-31.7c6.9,0,6.9,0,6.9,0c0,49.2,0,49.2,0,49.2H565.6z"/>
		<path class="st0" d="M591.8,345.4c0,6.5,0,6.5,0,6.5c0,4.5,1,8.3,2.8,11c1.7,3.1,4.5,4.5,7.6,4.5c7.6,0,11-7.2,11-21.3
			c0-5.5-0.7-10-2.4-13.1c-1.7-2.8-4.5-4.5-7.6-4.5c-3.4,0-6.2,1.7-8.3,4.5C592.9,336.2,591.8,340.3,591.8,345.4 M592.2,366.5
			L592.2,366.5c0,28.9,0,28.9,0,28.9c-7.2,0-7.2,0-7.2,0c0-72,0-72,0-72c7.2,0,7.2,0,7.2,0c0,7.9,0,7.9,0,7.9l0,0
			c2.4-5.9,6.9-8.6,13.1-8.6c4.8,0,8.6,1.7,11.4,5.9c2.4,4.1,3.8,9.6,3.8,17.2c0,8.6-1.4,15.2-4.1,20.3c-3.1,4.8-7.2,7.2-12.8,7.2
			C598.4,373.3,594.6,370.9,592.2,366.5"/>
		<polygon class="st1" points="228.3,296.6 148.6,256.6 20.5,354.4 20.5,354.1 148.2,226 228.3,296.2 		"/>
	</g>
</g>
</svg>
