<?xml version="1.0" encoding="utf-8"?>
<!-- Generator: Adobe Illustrator 16.2.0, SVG Export Plug-In . SVG Version: 6.00 Build 0)  -->
<!DOCTYPE svg PUBLIC "-//W3C//DTD SVG 1.1//EN" "http://www.w3.org/Graphics/SVG/1.1/DTD/svg11.dtd" [
	<!ENTITY ns_extend "http://ns.adobe.com/Extensibility/1.0/">
	<!ENTITY ns_ai "http://ns.adobe.com/AdobeIllustrator/10.0/">
	<!ENTITY ns_graphs "http://ns.adobe.com/Graphs/1.0/">
	<!ENTITY ns_vars "http://ns.adobe.com/Variables/1.0/">
	<!ENTITY ns_imrep "http://ns.adobe.com/ImageReplacement/1.0/">
	<!ENTITY ns_sfw "http://ns.adobe.com/SaveForWeb/1.0/">
	<!ENTITY ns_custom "http://ns.adobe.com/GenericCustomNamespace/1.0/">
	<!ENTITY ns_adobe_xpath "http://ns.adobe.com/XPath/1.0/">
]>
<svg version="1.1" xmlns:x="&ns_extend;" xmlns:i="&ns_ai;" xmlns:graph="&ns_graphs;"
	 xmlns="http://www.w3.org/2000/svg" xmlns:xlink="http://www.w3.org/1999/xlink" x="0px" y="0px" width="600px" height="220px"
	 viewBox="0 0 600 220" style="enable-background:new 0 0 600 220;" xml:space="preserve">
<metadata>
	<sfw  xmlns="&ns_sfw;">
		<slices></slices>
		<sliceSourceBounds  width="600" height="220" x="-1285.841" y="-2119.504" bottomLeftOrigin="true"></sliceSourceBounds>
		<optimizationSettings>
			<targetSettings  fileFormat="JPEGFormat" targetSettingsID="0">
				
					<JPEGFormat  noMatteColor="false" optimized="true" matteColor="#FFFFFF" quality="100" progressive="true" blurAmount="0" embedICCProfile="false">
					</JPEGFormat>
			</targetSettings>
		</optimizationSettings>
	</sfw>
</metadata>
<g id="Layer_3">
</g>
<g id="Layer_2">
	<g>
		<g>
			<g>
				<path style="fill:#25408F;" d="M344.959,11.528v-0.04H318.8v32.181C333.713,40.634,344.943,27.396,344.959,11.528z"/>
				<path style="fill:#25408F;" d="M318.8,70.238V129.7h26.159V60.643C337.314,65.78,328.404,69.16,318.8,70.238z"/>
			</g>
			<polygon style="fill:#25408F;" points="266.483,103.434 266.483,11.488 240.328,11.488 240.328,103.434 240.328,129.7 
				266.483,129.7 299.183,129.7 299.183,103.434 			"/>
			<path style="fill:#25408F;" d="M481.926,64.05h-6.179v-0.025h-52.312v26.274h26.157c-5.961,7.972-15.461,13.135-26.157,13.135
				c-18.063,0-32.7-14.704-32.7-32.834c0-18.134,14.637-32.834,32.7-32.834c10.704,0,20.21,5.164,26.173,13.144h29.332
				c-8.07-22.964-29.875-39.421-55.505-39.421c-32.506,0-58.854,26.46-58.854,59.111c0,32.641,26.348,59.101,58.854,59.101
				c32.504,0,58.855-26.46,58.855-59.101C482.291,68.383,482.162,66.192,481.926,64.05z"/>
			<path style="fill:#25408F;" d="M508.31,129.7l7.168-19.702h51.146l7.172,19.702h25.401l0.425-0.153L556.839,12.015v-0.526
				h-31.388v0.097l-0.214-0.082l-42.947,118.003l0.527,0.194H508.31z M541.047,39.738l16.015,43.988h-32.02L541.047,39.738z"/>
		</g>
		<polygon style="fill:#DE1336;" points="240.328,156.219 289.576,156.219 240.394,202.182 240.328,202.182 240.328,208.758 
			299.183,208.758 299.183,202.182 249.997,202.182 299.141,156.239 299.117,156.219 299.183,156.219 299.183,149.653 
			240.328,149.653 		"/>
		<path style="fill:#DE1336;" d="M371.116,160.632c-5.392-6.701-13.643-10.979-22.887-10.979c-16.254,0-29.429,13.225-29.429,29.547
			c0,16.325,13.174,29.558,29.429,29.558c9.244,0,17.496-4.289,22.887-10.981v10.981h6.54v-59.104h-6.54V160.632z M348.229,202.182
			c-12.644,0-22.889-10.282-22.889-22.981c0-12.685,10.245-22.981,22.889-22.981c12.638,0,22.887,10.297,22.887,22.981
			C371.116,191.899,360.867,202.182,348.229,202.182z"/>
		<polygon style="fill:#DE1336;" points="462.295,149.653 451.013,149.653 410.458,178.167 410.458,149.653 403.944,149.653 
			403.944,208.256 410.458,208.256 410.458,186.107 415.306,182.688 451.456,208.291 462.54,208.291 462.54,208.758 
			462.798,208.381 420.933,178.731 		"/>
		<path style="fill:#DE1336;" d="M498.638,149.653c-16.253,0-29.433,13.225-29.433,29.547c0,16.325,13.18,29.558,29.433,29.558
			c16.251,0,29.429-13.232,29.429-29.558C528.067,162.878,514.889,149.653,498.638,149.653z M498.639,202.182
			c-12.643,0-22.892-10.282-22.892-22.981c0-12.685,10.25-22.981,22.892-22.981c12.639,0,22.889,10.297,22.889,22.981
			C521.528,191.899,511.278,202.182,498.639,202.182z"/>
		<polygon style="fill:#DE1336;" points="593.459,149.653 593.459,199.113 547.684,149.713 547.684,149.653 541.145,149.653 
			541.145,208.758 547.684,208.758 547.684,159.354 593.458,208.744 593.459,208.742 593.459,208.758 600,208.758 600,149.653 		"/>
		<g>
			<path style="fill:#DE1336;" d="M129.399,169.546c-6.435,37.049-56.344,49.865-87.542,50.454c-1.679,0-1.404-1.226-0.618-1.82
				c9.295-7.036,9.295-24.883,5.804-34.664c-8.278-22.101-40.403-34.019-46.333-57.289c-0.269-0.56-1.318-6.949-0.218-13.5
				C6.958,76.895,53.153,64.103,84.334,62.82c3.917-0.229,4.309,0.829,3.158,1.926c-8.069,7.667-8.069,24.834-4.523,34.044
				C92.926,124.904,135.299,136.501,129.399,169.546z"/>
			<path style="fill:#DE1336;" d="M218.51,106.772c-6.463,37.047-56.37,49.832-87.549,50.421c-1.698,0-1.402-1.189-0.639-1.813
				c9.315-7.033,9.315-24.883,5.783-34.661c-8.246-22.107-40.361-34.017-46.313-57.243c-0.281-0.599-1.303-6.992-0.204-13.583
				C96.074,14.1,142.234,1.295,173.428,0.027c3.942-0.209,4.317,0.824,3.146,1.928c-8.035,7.678-8.035,24.813-4.531,34.051
				C182.032,62.127,224.404,73.68,218.51,106.772z"/>
		</g>
	</g>
</g>
</svg>
