<svg width="35" height="35" viewBox="0 0 35 35" fill="none" xmlns="http://www.w3.org/2000/svg">
<path d="M31.4372 7.0456C33.671 9.93718 35 13.5634 35 17.5C35 26.9528 27.337 34.6158 17.8842 34.6158C8.43144 34.6158 0.768463 26.9528 0.768463 17.5C0.768463 8.04725 8.43144 0.384277 17.8842 0.384277C21.4207 0.384277 24.7066 1.45684 27.4346 3.29438C27.5194 3.35152 31.3893 6.98356 31.4372 7.0456Z" fill="#FD4343"/>
<path d="M0.945129 19.9684H34.8232C34.7201 20.6822 34.573 21.3817 34.3847 22.0642H1.38378C1.19544 21.3817 1.04824 20.6822 0.945129 19.9684ZM5.29589 29.0968H30.4726C31.075 28.4432 31.6271 27.7426 32.1229 27.001H3.64551C4.14131 27.7426 4.69348 28.4432 5.29589 29.0968ZM29.1035 5.9032H5.29589C4.69348 6.55681 4.14131 7.25744 3.64551 7.99901H32.123C31.9014 7.66759 31.6686 7.34428 31.425 7.02977C30.8705 6.31377 30.009 5.9032 29.1035 5.9032ZM34.3847 12.9358H1.38378C1.19544 13.6183 1.04824 14.3179 0.945199 15.0316H34.8233C34.7202 14.3178 34.573 13.6183 34.3847 12.9358Z" fill="#C92E43"/>
<path d="M31.4371 7.04551V22.4077C31.4371 25.6872 28.7785 28.3458 25.499 28.3458C22.2195 28.3458 19.5609 25.6872 19.5609 22.4077C19.5609 19.1282 22.2195 16.4696 25.499 16.4696C26.9643 16.4696 28.3057 17.0004 29.3413 17.8801V9.33574L11.8762 11.5893V25.9007C11.8762 29.1803 9.21764 31.8389 5.93812 31.8389C2.6586 31.8389 0 29.1803 0 25.9007C0 22.6212 2.6586 19.9626 5.93812 19.9626C7.40344 19.9626 8.74483 20.4934 9.78044 21.3732V8.02935C9.78044 6.62432 10.8237 5.43775 12.2172 5.25793L27.4345 3.29443C28.9616 4.32299 30.3138 5.59137 31.4371 7.04551Z" fill="#ADE8F0"/>
<path d="M30.8625 24.9592C29.9081 26.9618 27.8652 28.3458 25.499 28.3458C22.2195 28.3458 19.5609 25.6872 19.5609 22.4076C19.5609 20.0415 20.9448 17.9986 22.9474 17.0442C22.579 17.8172 22.3728 18.6824 22.3728 19.5958C22.3728 22.8753 25.0314 25.5339 28.3109 25.5339C29.2242 25.5339 30.0895 25.3277 30.8625 24.9592ZM2.81188 23.0888C2.81188 22.1754 3.0181 21.3102 3.38655 20.5372C1.38393 21.4916 0 23.5345 0 25.9007C0 29.1802 2.6586 31.8388 5.93812 31.8388C8.30429 31.8388 10.3472 30.4548 11.3016 28.4522C10.5286 28.8206 9.66335 29.0269 8.75 29.0269C5.47048 29.0269 2.81188 26.3683 2.81188 23.0888Z" fill="#81BDFD"/>
</svg>
