<svg width="36" height="36" viewBox="0 0 36 36" fill="none" xmlns="http://www.w3.org/2000/svg">
<g clip-path="url(#clip0_0_369)">
<path d="M18.0583 0.773535C18.1913 0.773957 18.3241 0.775926 18.4564 0.779371C18.9017 0.790972 21.7222 1.9133 21.7265 3.02389C21.7266 3.07064 20.1797 20.3907 4.45478 20.3177C3.62966 20.3139 2.81818 20.2555 2.02421 20.1412C1.34521 20.0434 0.822785 19.483 0.791566 18.7977C0.778277 18.5063 0.77223 18.213 0.773637 17.918C0.818004 8.38205 8.52222 0.741965 18.0583 0.773535Z" fill="#012D4E"/>
<path d="M18 35.2264C8.60253 35.2264 0.962581 27.7015 0.776886 18.3485C0.778152 18.2838 0.779698 18.2193 0.781667 18.1547C0.870472 15.1984 3.82423 13.2313 6.62189 14.1909C7.42064 14.4649 8.27881 14.611 9.17192 14.6046C13.3253 14.5752 16.7329 11.1995 16.7993 7.04653C16.8157 6.02904 16.6341 5.05584 16.2907 4.16302C15.6831 2.58338 16.7975 0.89025 18.4563 0.779297C27.7594 1.02117 35.2266 8.63848 35.2266 17.9999C35.2266 27.5139 27.514 35.2264 18 35.2264Z" fill="#ADE8F0"/>
<path d="M35.2232 17.6563C35.2254 17.7706 35.2266 17.8851 35.2266 17.9999C35.2266 27.5139 27.514 35.2265 18 35.2265C8.60253 35.2265 0.962581 27.7016 0.776886 18.3486C0.778152 18.2839 0.779698 18.2193 0.781667 18.1548C0.809581 17.2261 1.12015 16.3951 1.61979 15.7217C2.92388 23.9433 10.0444 31.1484 18.6328 31.1484C26.5339 31.1484 34.3125 25.6743 35.2232 17.6563Z" fill="#ACD1FD"/>
<path d="M11.9531 27.7734C11.9531 29.9185 10.6724 31.7644 8.83392 32.5882C5.93782 30.7647 3.62278 28.1026 2.22968 24.9427C3.16582 23.4741 4.80902 22.5 6.67968 22.5C9.5921 22.5 11.9531 24.861 11.9531 27.7734Z" fill="#FDE803"/>
<path d="M4.61807 28.8488C3.65823 27.6664 2.85203 26.3542 2.22969 24.9427C3.16583 23.4741 4.80904 22.5 6.6797 22.5C7.21949 22.5 7.74029 22.5811 8.23072 22.7318C6.07522 23.3942 4.50831 25.4008 4.50831 27.7734C4.50831 28.1419 4.54614 28.5016 4.61807 28.8488ZM3.90573 29.1405C2.72701 28.9521 2.35035 28.125 1.28518 28.125C1.26887 28.125 1.25263 28.1251 1.23639 28.1255C-0.412089 28.1614 -0.412089 30.6436 1.23639 30.6795C1.25263 30.6798 1.26887 30.68 1.28518 30.68C2.19876 30.68 3.78831 29.8616 3.90573 29.1405ZM3.55628 34.2521C3.55628 34.2743 3.55649 34.2964 3.55698 34.3185C3.60578 36.5605 6.98176 36.5605 7.03049 34.3185C7.03098 34.2965 7.03119 34.2743 7.03119 34.2521C7.03119 32.8035 5.90626 32.2912 5.65012 30.688C4.66933 30.8478 3.55628 33.0096 3.55628 34.2521Z" fill="#F5C02C"/>
<path d="M5.55468 33.4688C6.13715 33.4688 6.60937 33.941 6.60937 34.5234C6.60937 35.1059 6.13715 35.5781 5.55468 35.5781C4.97221 35.5781 4.49999 35.1059 4.49999 34.5234C4.49999 33.941 4.97221 33.4688 5.55468 33.4688ZM0.374969 29.1445C0.374969 29.5329 0.689759 29.8477 1.07809 29.8477C1.46643 29.8477 1.78122 29.5329 1.78122 29.1445C1.78122 28.7562 1.46643 28.4414 1.07809 28.4414C0.689759 28.4414 0.374969 28.7562 0.374969 29.1445Z" fill="#FDE803"/>
<path d="M28.125 30.2344C28.125 30.9201 28.0023 31.5771 27.7777 32.1847C25.4504 33.792 22.7082 34.8413 19.7445 35.1393C18.0318 34.175 16.875 32.3398 16.875 30.2344C16.875 27.1278 19.3934 24.6094 22.5 24.6094C25.6066 24.6094 28.125 27.1278 28.125 30.2344Z" fill="#FD4343"/>
<path d="M20.1838 30.2344C20.1838 32.0376 21.0324 33.6427 22.352 34.6721C21.5063 34.8922 20.6354 35.0497 19.7445 35.1393C18.0318 34.1751 16.875 32.3398 16.875 30.2344C16.875 27.1278 19.3934 24.6094 22.5 24.6094C23.0758 24.6094 23.6313 24.6959 24.1544 24.8567C21.8552 25.5631 20.1838 27.7035 20.1838 30.2344Z" fill="#E43950"/>
<path d="M29.5312 16.1719C31.8612 16.1719 33.75 18.0607 33.75 20.3906C33.75 22.7206 31.8612 24.6094 29.5312 24.6094C27.2013 24.6094 25.3125 22.7206 25.3125 20.3906C25.3125 18.0607 27.2013 16.1719 29.5312 16.1719Z" fill="#0AB59E"/>
<path d="M30.7721 24.424C30.3798 24.5445 29.9631 24.6094 29.5313 24.6094C27.2013 24.6094 25.3125 22.7206 25.3125 20.3906C25.3125 18.0607 27.2013 16.1719 29.5313 16.1719C29.9631 16.1719 30.3798 16.2368 30.7721 16.3573C29.0476 16.8872 27.7941 18.4925 27.7941 20.3906C27.7941 22.2888 29.0476 23.8941 30.7721 24.424Z" fill="#01988C"/>
<path d="M28.8281 8.4375C30.3814 8.4375 31.6406 9.69673 31.6406 11.25C31.6406 12.8033 30.3814 14.0625 28.8281 14.0625C27.2749 14.0625 26.0156 12.8033 26.0156 11.25C26.0156 9.69673 27.2749 8.4375 28.8281 8.4375Z" fill="#00429A"/>
<path d="M29.6554 13.9389C29.3938 14.0193 29.1161 14.0625 28.8281 14.0625C27.2749 14.0625 26.0156 12.8033 26.0156 11.25C26.0156 9.69673 27.2749 8.4375 28.8281 8.4375C29.116 8.4375 29.3938 8.48074 29.6554 8.56111C28.5057 8.91436 27.6701 9.98459 27.6701 11.25C27.6701 12.5154 28.5057 13.5856 29.6554 13.9389Z" fill="#012D4E"/>
<path d="M17.5743 20.3473L15.6528 18.4258L28.6843 1.58509C30.1905 -0.361371 33.0632 -0.543761 34.8035 1.19654C36.5438 2.93685 36.3614 5.80954 34.415 7.3157L17.5743 20.3473Z" fill="#D98800"/>
<path d="M34.415 7.31571L17.6125 20.3177L16.6635 19.1631L31.2726 3.67106C32.4662 2.40537 34.2535 2.0834 35.7506 2.67494C36.3424 4.28763 35.8748 6.186 34.415 7.31571Z" fill="#F4AA39"/>
<path d="M6.1243 28.8489C5.97833 28.7706 5.93614 28.5806 6.02973 28.4438C8.5588 24.7474 7.42206 21.4839 10.3168 18.5892C10.362 18.5439 10.4077 18.4992 10.4536 18.4552C15.1303 13.9777 22.0223 20.8697 17.5448 25.5463C17.5008 25.5923 17.4561 25.6379 17.4108 25.6832C14.9644 28.1297 8.65822 30.2084 6.1243 28.8489Z" fill="#D63D24"/>
<path d="M7.06323 29.172C8.46456 26.7461 8.79995 24.3587 11.3721 22.6195C11.4252 22.5836 11.4785 22.5484 11.532 22.514C14.3561 20.6927 17.1851 21.9919 18.5144 24.1862C18.2834 24.6516 17.9639 25.1087 17.5449 25.5464C17.5008 25.5924 17.4561 25.638 17.4108 25.6834C15.2274 27.8666 9.96995 29.757 7.06323 29.172Z" fill="#EF5300"/>
<path d="M19.6149 18.9317C19.9916 19.3084 19.9916 19.9192 19.6149 20.2959C19.2381 20.6727 18.6273 20.6727 18.2506 20.2959L15.704 17.7494C15.3273 17.3726 15.3273 16.7618 15.704 16.3851C16.0808 16.0083 16.6916 16.0083 17.0683 16.3851L17.1605 16.4773L20.2552 12.478L23.522 15.7447L19.5226 18.8396L19.6149 18.9317Z" fill="#3180C2"/>
<path d="M19.581 20.3282C19.1968 20.6778 18.5986 20.6441 18.2313 20.2768L16.9513 18.9968C16.589 18.6344 16.5494 18.0458 16.8874 17.6605C17.2306 17.2691 17.8078 17.2258 18.2027 17.5308L18.2961 17.613C18.6728 17.9898 19.2836 17.9898 19.6603 17.613C20.0371 17.2363 20.0371 16.6255 19.6603 16.2488C19.5891 16.1775 19.5874 16.0625 19.6565 15.9892L21.6512 13.874L23.5221 15.7449L19.5227 18.8396L19.6149 18.9318C20.0025 19.3194 19.9912 19.955 19.581 20.3282Z" fill="#75A5D3"/>
</g>
<defs>
<clipPath id="clip0_0_369">
<rect width="36" height="36" fill="white"/>
</clipPath>
</defs>
</svg>
