<svg width="37" height="37" viewBox="0 0 37 37" fill="none" xmlns="http://www.w3.org/2000/svg">
<path d="M19.2949 36.2051C29.0732 36.2051 37 28.2782 37 18.5C37 8.72176 29.0732 0.794922 19.2949 0.794922C9.51668 0.794922 1.58984 8.72176 1.58984 18.5C1.58984 28.2782 9.51668 36.2051 19.2949 36.2051Z" fill="#69CDFF"/>
<path d="M19.1092 25.9094H13.4212V28.8889H19.1092V25.9094Z" fill="#445EA0"/>
<path d="M14.8551 25.9094H13.4212V28.8889H14.8551V25.9094Z" fill="#2E4C89"/>
<path d="M22.8978 28.8169H9.21821C9.01543 28.8169 8.84958 28.9828 8.84958 29.1856V31.0335C8.84958 31.2363 9.0155 31.4022 9.21821 31.4022H22.8978V28.8169Z" fill="#293D7C"/>
<path d="M10.2835 31.0335V29.1856C10.2835 28.9828 10.4494 28.8169 10.6522 28.8169H9.21821C9.01543 28.8169 8.84958 28.9828 8.84958 29.1856V31.0335C8.84958 31.2363 9.0155 31.4022 9.21821 31.4022H10.6521C10.4494 31.4022 10.2835 31.2363 10.2835 31.0335Z" fill="#1A2B63"/>
<path d="M32.1621 4.26099H0.368699C0.165922 4.26099 0 4.42691 0 4.62969V25.613C0 25.8159 0.165922 25.9817 0.368699 25.9817H22.8978V14.9421C22.8978 14.6633 23.1247 14.4363 23.4037 14.4363H32.5308V4.62969C32.5308 4.42691 32.3649 4.26099 32.1621 4.26099Z" fill="#293D7C"/>
<path d="M1.61847 22.2949C1.61847 22.4166 1.71798 22.516 1.83967 22.516H22.8978V14.9421C22.8978 14.6632 23.1247 14.4363 23.4037 14.4363H30.9123V7.87671H1.61847V22.2949Z" fill="white"/>
<path d="M3.05244 22.2949V7.87671H1.61847V22.2949C1.61847 22.4166 1.71798 22.516 1.83967 22.516H3.27364C3.15195 22.516 3.05244 22.4165 3.05244 22.2949Z" fill="#D9EAFC"/>
<path d="M16.2656 25.2376C16.8153 25.2376 17.2609 24.7919 17.2609 24.2422C17.2609 23.6925 16.8153 23.2468 16.2656 23.2468C15.7158 23.2468 15.2702 23.6925 15.2702 24.2422C15.2702 24.7919 15.7158 25.2376 16.2656 25.2376Z" fill="#445EA0"/>
<path d="M22.8978 16.1257H19.0371C18.9178 16.1257 18.8203 16.2233 18.8203 16.3425V20.6524C18.8203 20.7716 18.9178 20.8692 19.0371 20.8692H22.8978V16.1257Z" fill="#C3DDF4"/>
<path d="M20.2542 20.6524V16.3425C20.2542 16.2233 20.3517 16.1257 20.471 16.1257H19.0371C18.9178 16.1257 18.8203 16.2233 18.8203 16.3425V20.6524C18.8203 20.7716 18.9178 20.8692 19.0371 20.8692H20.471C20.3517 20.8692 20.2542 20.7716 20.2542 20.6524Z" fill="#AEC1ED"/>
<path d="M23.4037 14.4363H26.7725V9.71143C26.7725 9.5127 26.6099 9.3501 26.4112 9.3501H6.1196C5.92087 9.3501 5.75827 9.5127 5.75827 9.71143V14.5189C5.75827 14.7176 5.92087 14.8802 6.1196 14.8802H22.9021C22.9327 14.6305 23.1458 14.4363 23.4037 14.4363Z" fill="#C3DDF4"/>
<path d="M7.19217 14.5189V9.71143C7.19217 9.5127 7.35476 9.3501 7.55349 9.3501H6.1196C5.92087 9.3501 5.75827 9.5127 5.75827 9.71143V14.5189C5.75827 14.7176 5.92087 14.8802 6.1196 14.8802H7.55349C7.35476 14.8802 7.19217 14.7176 7.19217 14.5189Z" fill="#AEC1ED"/>
<path d="M30.6911 6.14136H1.83967C1.71798 6.14136 1.61847 6.24087 1.61847 6.36263V7.94908H30.9123V6.36263C30.9123 6.24087 30.8128 6.14136 30.6911 6.14136Z" fill="#FFAF10"/>
<path d="M3.27364 6.14136H1.83967C1.71798 6.14136 1.61847 6.24087 1.61847 6.36263V7.94908H3.05236V6.36263C3.05244 6.24087 3.15195 6.14136 3.27364 6.14136Z" fill="#FF9518"/>
<path d="M12.3938 17.27H6.31125C6.01192 17.27 5.76926 17.0274 5.76926 16.728C5.76926 16.4286 6.01192 16.186 6.31125 16.186H12.3938C12.6932 16.186 12.9358 16.4286 12.9358 16.728C12.9358 17.0274 12.6932 17.27 12.3938 17.27Z" fill="#5DC1D8"/>
<path d="M12.3938 19.0396H6.31125C6.01192 19.0396 5.76926 18.797 5.76926 18.4976C5.76926 18.1982 6.01192 17.9556 6.31125 17.9556H12.3938C12.6932 17.9556 12.9358 18.1982 12.9358 18.4976C12.9358 18.7969 12.6932 19.0396 12.3938 19.0396Z" fill="#5DC1D8"/>
<path d="M12.3938 20.8091H6.31125C6.01192 20.8091 5.76926 20.5665 5.76926 20.2671C5.76926 19.9677 6.01192 19.7251 6.31125 19.7251H12.3938C12.6932 19.7251 12.9358 19.9677 12.9358 20.2671C12.9358 20.5665 12.6932 20.8091 12.3938 20.8091Z" fill="#5DC1D8"/>
<path d="M17.1674 17.27H14.0364C13.7371 17.27 13.4944 17.0274 13.4944 16.728C13.4944 16.4286 13.7371 16.186 14.0364 16.186H17.1674C17.4667 16.186 17.7094 16.4286 17.7094 16.728C17.7094 17.0274 17.4667 17.27 17.1674 17.27Z" fill="#5DC1D8"/>
<path d="M17.1674 19.0396H14.0364C13.7371 19.0396 13.4944 18.797 13.4944 18.4976C13.4944 18.1982 13.7371 17.9556 14.0364 17.9556H17.1674C17.4667 17.9556 17.7094 18.1982 17.7094 18.4976C17.7094 18.7969 17.4667 19.0396 17.1674 19.0396Z" fill="#5DC1D8"/>
<path d="M17.1674 20.8091H14.0364C13.7371 20.8091 13.4944 20.5665 13.4944 20.2671C13.4944 19.9677 13.7371 19.7251 14.0364 19.7251H17.1674C17.4667 19.7251 17.7094 19.9677 17.7094 20.2671C17.7094 20.5665 17.4667 20.8091 17.1674 20.8091Z" fill="#5DC1D8"/>
<path d="M36.4219 14.364C36.7398 14.364 37 14.6242 37 14.9421V32.4138C37 32.7318 36.7398 32.9919 36.4219 32.9919H23.4037C23.0857 32.9919 22.8255 32.7318 22.8255 32.4138V14.9421C22.8255 14.6242 23.0857 14.364 23.4037 14.364H36.4219Z" fill="#445EA0"/>
<path d="M24.3945 30.7219C24.1958 30.7219 24.0332 30.5593 24.0332 30.3605V15.8391C24.0332 15.6404 24.1958 15.4778 24.3945 15.4778H35.4311C35.6299 15.4778 35.7925 15.6404 35.7925 15.8391V30.3605C35.7925 30.5593 35.6299 30.7219 35.4311 30.7219H24.3945Z" fill="white"/>
<path d="M25.4671 30.3605V15.8391C25.4671 15.6404 25.6297 15.4778 25.8284 15.4778H24.3945C24.1958 15.4778 24.0332 15.6404 24.0332 15.8391V30.3605C24.0332 30.5593 24.1958 30.7219 24.3945 30.7219H25.8284C25.6297 30.7219 25.4671 30.5593 25.4671 30.3605Z" fill="#D9EAFC"/>
<path d="M29.2363 32.1672C29.0376 32.1672 28.875 32.0046 28.875 31.8058V31.6653C28.875 31.4666 29.0376 31.304 29.2363 31.304H30.5893C30.7881 31.304 30.9507 31.4666 30.9507 31.6653V31.8058C30.9507 32.0046 30.7881 32.1672 30.5893 32.1672H29.2363Z" fill="#445EA0"/>
<path d="M35.7925 16.872V15.8391C35.7925 15.6404 35.6299 15.4778 35.4311 15.4778H24.3945C24.1958 15.4778 24.0332 15.6404 24.0332 15.8391V16.872H35.7925Z" fill="#FFAF10"/>
<path d="M25.8284 15.4778H24.3945C24.1958 15.4778 24.0332 15.6404 24.0332 15.8391V16.872H25.4671V15.8391C25.4671 15.6404 25.6297 15.4778 25.8284 15.4778Z" fill="#FF9518"/>
<path d="M32.3759 23.4814H27.4496C27.1503 23.4814 26.9077 23.2389 26.9077 22.9395C26.9077 22.6401 27.1503 22.3975 27.4496 22.3975H32.3759C32.6752 22.3975 32.9179 22.6401 32.9179 22.9395C32.9179 23.2388 32.6752 23.4814 32.3759 23.4814Z" fill="#5DC1D8"/>
<path d="M32.3759 25.1528H27.4496C27.1503 25.1528 26.9077 24.9102 26.9077 24.6108C26.9077 24.3115 27.1503 24.0688 27.4496 24.0688H32.3759C32.6752 24.0688 32.9179 24.3115 32.9179 24.6108C32.9179 24.9102 32.6752 25.1528 32.3759 25.1528Z" fill="#5DC1D8"/>
<path d="M32.3759 26.824H27.4496C27.1503 26.824 26.9077 26.5814 26.9077 26.282C26.9077 25.9827 27.1503 25.74 27.4496 25.74H32.3759C32.6752 25.74 32.9179 25.9827 32.9179 26.282C32.9179 26.5814 32.6752 26.824 32.3759 26.824Z" fill="#5DC1D8"/>
<path d="M34.6699 21.1202C34.6699 21.3189 34.5073 21.4815 34.3085 21.4815H25.5171C25.3183 21.4815 25.1557 21.3189 25.1557 21.1202V18.1396C25.1557 17.9409 25.3183 17.7783 25.5171 17.7783H34.3085C34.5073 17.7783 34.6699 17.9409 34.6699 18.1396V21.1202Z" fill="#C3DDF4"/>
<path d="M26.5896 21.1202V18.1396C26.5896 17.9409 26.7522 17.7783 26.9509 17.7783H25.5171C25.3183 17.7783 25.1557 17.9409 25.1557 18.1396V21.1202C25.1557 21.3189 25.3183 21.4815 25.5171 21.4815H26.9509C26.7522 21.4815 26.5896 21.3189 26.5896 21.1202Z" fill="#AEC1ED"/>
<path d="M33.3692 29.5868C33.3692 29.7855 33.2066 29.9481 33.0078 29.9481H26.8178C26.619 29.9481 26.4565 29.7855 26.4565 29.5868V28.3647C26.4565 28.166 26.619 28.0034 26.8178 28.0034H33.0078C33.2066 28.0034 33.3692 28.166 33.3692 28.3647V29.5868Z" fill="#C3DDF4"/>
<path d="M27.8903 29.5868V28.3647C27.8903 28.166 28.0529 28.0034 28.2517 28.0034H26.8178C26.619 28.0034 26.4565 28.166 26.4565 28.3647V29.5868C26.4565 29.7855 26.619 29.9481 26.8178 29.9481H28.2517C28.0529 29.9481 27.8903 29.7855 27.8903 29.5868Z" fill="#AEC1ED"/>
</svg>
