<svg width="37" height="37" viewBox="0 0 37 37" fill="none" xmlns="http://www.w3.org/2000/svg">
<path d="M3.33955 29.07L32.5348 29.5532C34.5957 26.659 35.8079 23.1185 35.8079 19.2948C35.8079 9.51649 27.881 1.5896 18.1027 1.5896C8.32436 1.5896 0.3974 9.51656 0.3974 19.2949C0.3974 22.9086 1.48095 26.2687 3.33955 29.07Z" fill="#FFDD40"/>
<path d="M11.7705 4.12793C11.7705 5.42849 10.7161 6.48285 9.41556 6.48285H32.5348V4.12793H11.7705Z" fill="#BECAF5"/>
<path d="M3.33954 4.12793V6.48285H9.56298C10.8635 6.48285 11.9179 5.42849 11.9179 4.12793H3.33954Z" fill="#3C58A0"/>
<path d="M10.231 6.33533L10.2887 6.36618C10.1617 6.63321 9.69453 7.69963 9.66143 9.00092C9.62624 10.3822 10.0839 12.317 12.4565 13.709V21.2856C12.324 21.4131 11.7048 22.0516 11.6847 22.862C11.6732 23.3223 11.859 23.7516 12.2368 24.138V31.8788C12.1446 32.0016 11.6886 32.6472 11.5432 33.5786C11.4025 34.4805 11.6156 35.2617 11.978 35.9112C13.8865 36.6151 15.9496 37 18.1026 37C21.5216 37 24.714 36.0305 27.4206 34.352L29.9439 32.4575C30.9096 31.5881 31.7793 30.6141 32.5348 29.5531V6.33533H10.231Z" fill="#DEEEFF"/>
<path d="M3.33954 6.33533V29.0698C5.42231 32.209 8.47907 34.6457 12.0788 35.9485C10.8174 33.7868 12.309 31.9033 12.309 31.9033V25.2144V24.1083C10.9484 22.7476 12.5288 21.3168 12.5288 21.3168V13.6675C7.9344 11.0043 10.3844 6.33533 10.3844 6.33533H3.33954Z" fill="#D3DCFB"/>
<path d="M29.9629 0H11.3538C11.3538 0 10.6622 0.72215 11.3538 1.41373L11.4482 2.78765C11.4482 2.78765 10.8599 3.6776 11.7705 4.26505H32.5347V2.57186C32.5347 1.15733 31.3774 0 29.9629 0V0Z" fill="#2A428C"/>
<path d="M5.91133 0C4.49687 0 3.33954 1.15733 3.33954 2.57186V4.26505H11.918C11.0074 3.6776 11.5957 2.78765 11.5957 2.78765L11.5013 1.41373C10.8096 0.722078 11.5013 0 11.5013 0H5.91133V0Z" fill="#1C2E7A"/>
<path d="M7.33354 2.1325C7.33354 2.59037 6.96238 2.96153 6.50451 2.96153C6.04663 2.96153 5.67548 2.59037 5.67548 2.1325C5.67548 1.67462 6.04663 1.30347 6.50451 1.30347C6.96238 1.30339 7.33354 1.67462 7.33354 2.1325Z" fill="#FF4155"/>
<path d="M8.90173 2.9584C9.35639 2.90254 9.67968 2.48869 9.62382 2.03403C9.56796 1.57937 9.1541 1.25609 8.69945 1.31194C8.24479 1.3678 7.9215 1.78166 7.97736 2.23631C8.03322 2.69097 8.44708 3.01426 8.90173 2.9584Z" fill="#FFDD40"/>
<path d="M11.4084 2.89519C11.8315 2.71983 12.0323 2.23471 11.857 1.81165C11.6816 1.38859 11.1965 1.18778 10.7734 1.36315C10.3503 1.53851 10.1495 2.02363 10.3249 2.44669C10.5003 2.86975 10.9854 3.07056 11.4084 2.89519Z" fill="#88CE65"/>
<path d="M19.021 2.13264C19.021 1.82717 19.2686 1.57959 19.5741 1.57959H14.6405C14.3351 1.57959 14.0875 1.82717 14.0875 2.13264C14.0875 2.43811 14.335 2.68569 14.6405 2.68569H19.5741C19.2686 2.68569 19.021 2.43811 19.021 2.13264Z" fill="#3C58A0"/>
<path d="M23.5859 2.13264C23.5859 1.82717 23.3384 1.57959 23.0329 1.57959H19.4266C19.1211 1.57959 18.8736 1.82717 18.8736 2.13264C18.8736 2.43811 19.1211 2.68569 19.4266 2.68569H23.0329C23.3384 2.68569 23.5859 2.43811 23.5859 2.13264Z" fill="#6289CC"/>
<path d="M29.7166 2.68569H28.9958C28.6903 2.68569 28.4427 2.43811 28.4427 2.13264C28.4427 1.82717 28.6903 1.57959 28.9958 1.57959H29.7166C30.0221 1.57959 30.2697 1.82717 30.2697 2.13264C30.2697 2.43811 30.0221 2.68569 29.7166 2.68569Z" fill="#6289CC"/>
<path d="M27.2106 2.68569H26.4896C26.1842 2.68569 25.9366 2.43811 25.9366 2.13264C25.9366 1.82717 26.1842 1.57959 26.4896 1.57959H27.2106C27.516 1.57959 27.7636 1.82717 27.7636 2.13264C27.7636 2.43811 27.516 2.68569 27.2106 2.68569Z" fill="#3C58A0"/>
<path d="M12.309 25.2144H8.50385C8.19839 25.2144 7.95081 24.9668 7.95081 24.6613C7.95081 24.3559 8.19839 24.1083 8.50385 24.1083H12.309C12.6145 24.1083 12.862 24.3559 12.862 24.6613C12.862 24.9668 12.6145 25.2144 12.309 25.2144Z" fill="#49B1F7"/>
<path d="M20.8207 27.4441H8.50385C8.19839 27.4441 7.95081 27.1965 7.95081 26.8911C7.95081 26.5856 8.19839 26.338 8.50385 26.338H20.8207C21.1261 26.338 21.3737 26.5856 21.3737 26.8911C21.3737 27.1965 21.1261 27.4441 20.8207 27.4441Z" fill="#BECAF5"/>
<path d="M20.8207 29.6738H8.50385C8.19839 29.6738 7.95081 29.4263 7.95081 29.1208C7.95081 28.8153 8.19839 28.5677 8.50385 28.5677H20.8207C21.1261 28.5677 21.3737 28.8153 21.3737 29.1208C21.3737 29.4263 21.1261 29.6738 20.8207 29.6738Z" fill="#BECAF5"/>
<path d="M20.8207 31.9033H8.50385C8.19839 31.9033 7.95081 31.6558 7.95081 31.3503C7.95081 31.0448 8.19839 30.7972 8.50385 30.7972H20.8207C21.1261 30.7972 21.3737 31.0448 21.3737 31.3503C21.3737 31.6558 21.1261 31.9033 20.8207 31.9033Z" fill="#BECAF5"/>
<path d="M16.1597 10.8933C15.3877 10.8933 14.762 11.5191 14.762 12.291V17.0102C14.7621 17.782 15.3878 18.4078 16.1597 18.4078C16.9316 18.4078 17.5574 17.782 17.5574 17.0101V12.291C17.5574 11.5191 16.9316 10.8933 16.1597 10.8933Z" fill="#9BD8F9"/>
<path d="M12.5288 13.6675C11.7569 13.6675 11.1311 14.2932 11.1311 15.0652V17.0101C11.1311 17.782 11.7569 18.4077 12.5288 18.4077C13.3007 18.4077 13.9265 17.782 13.9265 17.0101V15.0652C13.9265 14.2932 13.3007 13.6675 12.5288 13.6675Z" fill="#73C3F9"/>
<path d="M16.1597 18.2624C15.3877 18.2624 14.762 17.6367 14.762 16.8647V20.8081H17.5574V16.8647C17.5574 17.6367 16.9316 18.2624 16.1597 18.2624Z" fill="#73C3F9"/>
<path d="M12.5288 18.2624C11.7569 18.2624 11.1311 17.6367 11.1311 16.8647V20.8081H13.9265V16.8647C13.9265 17.6367 13.3007 18.2624 12.5288 18.2624Z" fill="#49B1F7"/>
<path d="M10.2956 20.8081V18.78C10.2956 18.0081 9.66974 17.3823 8.89787 17.3823C8.126 17.3823 7.50018 18.0081 7.50018 18.78V20.8081H10.2956Z" fill="#1FA2EA"/>
<path d="M17.9831 21.3168H6.94228C6.65719 21.3168 6.42609 21.0857 6.42609 20.8006C6.42609 20.5155 6.65719 20.2844 6.94228 20.2844H17.9831C18.2682 20.2844 18.4993 20.5155 18.4993 20.8006C18.4993 21.0858 18.2682 21.3168 17.9831 21.3168Z" fill="#9BD8F9"/>
<path d="M28.3139 28.3347C27.6688 28.3347 27.141 27.8068 27.141 27.1617V23.2672C27.141 22.6221 27.6688 22.0942 28.3139 22.0942C28.959 22.0942 29.4868 22.6221 29.4868 23.2672V27.1617C29.4868 27.8068 28.959 28.3347 28.3139 28.3347Z" fill="#BECAF5"/>
<path d="M25.2282 11.7965C25.4358 12.3425 25.8532 12.7544 26.4695 13.022C26.3704 13.2541 26.1811 13.8191 26.4083 14.3437C26.5803 14.7408 26.951 15.0241 27.5105 15.1862L28.1989 17.7147C28.133 17.8627 27.9294 18.3967 28.1416 18.9375C28.2941 19.3261 28.6244 19.626 29.1243 19.8302C28.9979 20.1689 28.6627 21.2508 29.1203 22.1964C29.4098 22.7949 29.9611 23.2186 30.7595 23.4576C33.738 22.4408 35.88 19.6185 35.88 16.2958C35.88 12.1172 32.4925 8.72974 28.3139 8.72974C27.2975 8.72974 26.3281 8.93063 25.4427 9.29413C25.2858 9.64751 24.8463 10.7925 25.2282 11.7965Z" fill="#2A428C"/>
<path d="M29.2654 19.7687C27.5839 19.1538 28.3139 17.7247 28.3139 17.7247L27.599 15.0983C25.7408 14.6004 26.6157 12.9652 26.6157 12.9652C24.1845 12.0086 25.5898 9.23555 25.5898 9.23547C22.7573 10.3291 20.7479 13.0776 20.7479 16.2958C20.7479 20.4744 24.1353 23.8618 28.314 23.8618C29.2359 23.8618 30.1193 23.6967 30.9363 23.3948C28.0079 22.6302 29.2654 19.7687 29.2654 19.7687Z" fill="#1C2E7A"/>
<path d="M26.4695 13.022C26.3704 13.2542 26.1811 13.8191 26.4083 14.3437C26.5803 14.7408 26.951 15.0241 27.5105 15.1862L28.1989 17.7147C28.1329 17.8627 27.9294 18.3967 28.1415 18.9375C28.2855 19.3042 28.5879 19.5918 29.0415 19.7946C30.9245 19.6022 32.5889 18.6716 33.7401 17.2963C34.2236 16.7186 34.2236 15.873 33.7401 15.2953C32.4427 13.7452 30.4935 12.7593 28.314 12.7593C27.6663 12.7593 27.0393 12.8469 26.4434 13.01C26.4521 13.014 26.4606 13.0182 26.4695 13.022Z" fill="#DEEEFF"/>
<path d="M28.3139 19.8323C28.6364 19.8323 28.9537 19.8102 29.2648 19.7684C27.5841 19.1534 28.3139 17.7247 28.3139 17.7247L27.599 15.0983C25.7409 14.6004 26.6156 12.9653 26.6156 12.9653C25.1344 13.3303 23.8367 14.1616 22.8878 15.2953C22.4043 15.873 22.4043 16.7186 22.8878 17.2963C24.1852 18.8464 26.1344 19.8323 28.3139 19.8323Z" fill="#BECAF5"/>
<path d="M26.4083 14.3437C26.5804 14.7408 26.951 15.0241 27.5106 15.1861L28.1989 17.7146C28.133 17.8626 27.9295 18.3967 28.1416 18.9374C28.2783 19.2856 28.5581 19.5623 28.9741 19.763C30.452 19.4306 31.563 18.0046 31.563 16.2957C31.563 14.3403 30.1084 12.7551 28.314 12.7551C27.5662 12.7551 26.8781 13.0311 26.329 13.4937C26.2845 13.7466 26.2816 14.0514 26.4083 14.3437Z" fill="#49B1F7"/>
<path d="M28.3139 19.8364C28.6004 19.8364 28.878 19.7956 29.1426 19.7198C27.6218 19.0815 28.3139 17.7247 28.3139 17.7247L27.599 15.0983C26.343 14.7617 26.3359 13.9061 26.463 13.3865C25.6183 14.0258 25.0648 15.0901 25.0648 16.2958C25.0649 18.2512 26.5196 19.8364 28.3139 19.8364Z" fill="#1FA2EA"/>
<path d="M28.3139 17.7246C29.0381 17.7246 29.6251 17.0849 29.6251 16.2958C29.6251 15.5067 29.0381 14.8669 28.3139 14.8669C27.5898 14.8669 27.0027 15.5067 27.0027 16.2958C27.0027 17.0849 27.5898 17.7246 28.3139 17.7246Z" fill="#218EE8"/>
<path d="M30.9363 14.4626C30.9363 14.923 30.5938 15.2962 30.1713 15.2962C29.7488 15.2962 29.4062 14.9229 29.4062 14.4626C29.4062 14.0022 29.7487 13.629 30.1713 13.629C30.5938 13.629 30.9363 14.0022 30.9363 14.4626Z" fill="#73C3F9"/>
<path d="M28.3139 25.9491C27.4175 25.9491 26.684 26.6826 26.684 27.5791V32.991C26.684 33.5582 26.9778 34.0599 27.4205 34.3521C28.3182 33.7953 29.1626 33.1608 29.9439 32.4575V27.5791C29.9439 26.6825 29.2104 25.9491 28.3139 25.9491Z" fill="#FF4155"/>
<path d="M28.314 24.5846C23.7435 24.5846 20.0252 20.8663 20.0252 16.2959C20.0252 14.6992 20.4804 13.1487 21.3416 11.8122C22.1797 10.5113 23.3597 9.47271 24.7539 8.80866C25.1142 8.6371 25.5455 8.78994 25.7171 9.1504C25.8887 9.51072 25.7357 9.94193 25.3754 10.1136C23.0034 11.2433 21.4706 13.67 21.4706 16.2959C21.4706 20.0694 24.5405 23.1393 28.314 23.1393C28.9688 23.1393 29.616 23.0472 30.2379 22.8653C30.6211 22.7535 31.0222 22.9732 31.1343 23.3562C31.2462 23.7393 31.0264 24.1406 30.6434 24.2526C29.8896 24.4729 29.1059 24.5846 28.314 24.5846Z" fill="#A8B7EF"/>
<path d="M30.4402 24.2819C30.1275 24.2819 29.8392 24.0771 29.7469 23.7618C29.635 23.3787 29.8547 22.9773 30.2378 22.8654C31.6288 22.4588 32.881 21.5958 33.7639 20.4354C34.6754 19.2373 35.1573 17.8058 35.1573 16.2959C35.1573 12.5225 32.0874 9.45259 28.314 9.45259C27.285 9.45259 26.2963 9.67502 25.3753 10.1136C25.0152 10.2852 24.5838 10.1323 24.4122 9.77186C24.2406 9.41154 24.3935 8.98033 24.7539 8.8087C25.8706 8.2769 27.0683 8.0072 28.314 8.0072C32.8844 8.0072 36.6027 11.7255 36.6027 16.2959C36.6027 18.1246 36.0188 19.8587 34.9142 21.3105C33.8456 22.7151 32.3289 23.76 30.6434 24.2527C30.5757 24.2724 30.5073 24.2819 30.4402 24.2819Z" fill="#BECAF5"/>
<path d="M29.5663 28.0547C29.6851 27.5524 29.3741 27.049 28.8719 26.9303C28.3696 26.8115 27.8662 27.1225 27.7474 27.6247C27.6287 28.127 27.9396 28.6304 28.4419 28.7492C28.9442 28.8679 29.4476 28.557 29.5663 28.0547Z" fill="#FF7186"/>
</svg>
