<svg width="24" height="24" viewBox="0 0 24 24" fill="none" xmlns="http://www.w3.org/2000/svg">
<path d="M22.4333 10.3126L17.7616 14.8666L18.8648 21.2986C18.9128 21.5798 18.7973 21.8641 18.5663 22.0321C18.4358 22.1273 18.2806 22.1753 18.1253 22.1753C18.0061 22.1753 17.8861 22.1468 17.7766 22.0891L12.0001 19.0523L6.22431 22.0883C5.97231 22.2218 5.66556 22.2001 5.43456 22.0313C5.20356 21.8633 5.08806 21.5791 5.13606 21.2978L6.23931 14.8658L1.56681 10.3126C1.36281 10.1131 1.28856 9.81455 1.37706 9.5438C1.46556 9.27305 1.70031 9.0743 1.98306 9.03305L8.43981 8.09555L11.3273 2.24405C11.5801 1.7318 12.4201 1.7318 12.6728 2.24405L15.5603 8.09555L22.0171 9.03305C22.2998 9.0743 22.5346 9.2723 22.6231 9.5438C22.7116 9.8153 22.6373 10.1123 22.4333 10.3126Z" fill="#FFB800"/>
</svg>
