<?xml version="1.0" encoding="UTF-8" standalone="no"?>
<svg
   xmlns:dc="http://purl.org/dc/elements/1.1/"
   xmlns:cc="http://creativecommons.org/ns#"
   xmlns:rdf="http://www.w3.org/1999/02/22-rdf-syntax-ns#"
   xmlns:svg="http://www.w3.org/2000/svg"
   xmlns="http://www.w3.org/2000/svg"
   xmlns:sodipodi="http://sodipodi.sourceforge.net/DTD/sodipodi-0.dtd"
   xmlns:inkscape="http://www.inkscape.org/namespaces/inkscape"
   width="15.9028in"
   height="5.48611in"
   viewBox="0 0 1145 395"
   version="1.1"
   id="svg2002"
   sodipodi:docname="uslogo.svg"
   inkscape:version="1.0.2 (e86c870879, 2021-01-15, custom)">
  <metadata
     id="metadata2008">
    <rdf:RDF>
      <cc:Work
         rdf:about="">
        <dc:format>image/svg+xml</dc:format>
        <dc:type
           rdf:resource="http://purl.org/dc/dcmitype/StillImage" />
        <dc:title></dc:title>
      </cc:Work>
    </rdf:RDF>
  </metadata>
  <defs
     id="defs2006" />
  <sodipodi:namedview
     pagecolor="#ffffff"
     bordercolor="#666666"
     borderopacity="1"
     objecttolerance="10"
     gridtolerance="10"
     guidetolerance="10"
     inkscape:pageopacity="0"
     inkscape:pageshadow="2"
     inkscape:window-width="1920"
     inkscape:window-height="1137"
     id="namedview2004"
     showgrid="true"
     inkscape:zoom="0.68253181"
     inkscape:cx="763.33438"
     inkscape:cy="270.65896"
     inkscape:window-x="-8"
     inkscape:window-y="-8"
     inkscape:window-maximized="1"
     inkscape:current-layer="svg2002">
    <inkscape:grid
       type="xygrid"
       id="grid2609" />
  </sodipodi:namedview>
  <path
     id="icon"
     fill="none"
     stroke="black"
     stroke-width="1"
     d="M 403.00,137.00            C 400.43,126.86 385.18,122.48 376.00,120.42              361.20,117.11 350.89,117.02 336.00,117.00              336.00,117.00 319.00,116.00 319.00,116.00              319.00,116.00 289.00,116.00 289.00,116.00              286.27,115.99 282.68,116.32 280.51,114.40              278.73,112.83 276.92,107.38 276.05,105.00              276.05,105.00 268.00,82.00 268.00,82.00              260.85,61.01 253.81,36.85 240.52,19.00              232.63,8.39 222.75,0.16 209.00,0.00              203.95,-0.06 199.87,-0.17 195.00,1.55              184.74,5.16 178.05,12.39 171.91,21.00              160.66,36.76 153.28,60.55 147.00,79.00              147.00,79.00 139.00,102.00 139.00,102.00              138.17,104.43 135.56,112.00 134.16,113.69              132.20,116.04 129.80,115.94 127.00,116.00              127.00,116.00 99.00,116.00 99.00,116.00              99.00,116.00 84.00,117.00 84.00,117.00              64.14,117.23 44.95,116.74 26.00,124.20              17.49,127.56 9.11,133.15 4.13,141.00              -4.83,155.12 0.83,174.49 9.92,187.00              23.33,205.47 46.59,221.06 65.00,234.87              65.00,234.87 82.00,247.63 82.00,247.63              84.15,249.26 87.43,251.32 88.10,254.09              88.66,256.38 87.05,260.72 86.34,263.00              86.34,263.00 81.42,279.00 81.42,279.00              76.26,296.63 65.21,327.74 65.00,345.00              65.00,345.00 65.00,357.00 65.00,357.00              65.01,363.96 65.55,367.41 68.06,374.00              69.45,377.65 71.22,380.92 73.68,383.96              79.38,391.01 88.04,394.89 97.00,395.00              117.14,395.24 127.81,390.91 145.00,380.60              145.00,380.60 158.00,372.14 158.00,372.14              158.00,372.14 174.00,361.02 174.00,361.02              174.00,361.02 197.00,345.14 197.00,345.14              199.66,343.25 204.65,339.09 208.00,339.64              210.08,339.98 214.11,343.05 216.00,344.33              216.00,344.33 232.00,355.34 232.00,355.34              252.07,369.00 284.17,394.70 309.00,395.00              315.36,395.07 320.87,395.36 327.00,393.24              343.94,387.40 348.99,370.16 349.91,354.00              350.37,345.84 346.95,328.26 344.87,320.00              344.87,320.00 338.72,299.00 338.72,299.00              336.45,291.45 334.86,284.32 325.00,285.12              316.54,285.81 315.20,293.07 316.67,300.00              319.98,315.62 327.81,330.75 328.00,347.00              328.12,357.40 328.28,373.14 314.00,373.96              304.71,374.49 291.92,368.62 284.00,363.99              284.00,363.99 237.00,332.28 237.00,332.28              232.05,328.82 219.00,319.08 214.00,317.64              211.70,316.97 209.37,317.00 207.00,317.00              195.51,317.00 187.12,325.45 178.00,331.66              178.00,331.66 126.00,366.24 126.00,366.24              118.13,370.23 109.01,374.47 100.00,373.96              88.80,373.32 86.04,362.27 86.00,353.00              85.91,333.66 97.16,300.36 103.34,281.00              106.60,270.81 113.34,255.23 109.44,245.00              106.36,236.94 94.90,229.80 88.00,224.63              88.00,224.63 41.00,188.42 41.00,188.42              33.99,182.41 21.33,168.73 21.14,159.00              20.98,151.40 28.71,146.53 35.00,144.07              51.20,137.73 65.15,138.19 82.00,138.00              82.00,138.00 97.00,137.00 97.00,137.00              97.00,137.00 128.00,137.00 128.00,137.00              136.99,136.99 146.38,136.14 151.87,127.96              155.15,123.06 158.79,110.18 161.05,104.00              168.22,84.39 173.86,63.65 183.25,45.00              187.11,37.33 197.13,21.46 206.58,20.97              210.83,20.75 215.13,24.30 218.00,27.04              225.46,34.16 230.02,42.67 234.14,52.00              234.14,52.00 243.69,78.00 243.69,78.00              243.69,78.00 253.66,106.00 253.66,106.00              256.24,113.43 259.35,126.34 265.18,131.47              271.01,136.60 280.53,136.99 288.00,137.00              288.00,137.00 403.00,137.00 403.00,137.00 Z"
     style="stroke:#868787;stroke-opacity:1;fill:#868787;fill-opacity:1" />
  <path
     id="update"
     fill="none"
     stroke="#000000"
     stroke-width="1"
     d="m 462.11825,128.57913 c -2.1,1.31 -3.15,1.8 -4.24,4.24 -1.4,3.17 -0.85,17.56 -0.85,21.91 0,0 0,74 0,74 -0.01,5.91 -0.05,11.45 -5.11,15.57 -3.15,2.57 -6.07,2.41 -9.89,2.43 0,0 -29,0 -29,0 -3.59,-0.01 -7.77,0.23 -10.89,-1.85 -7.18,-4.8 -5.11,-24.05 -5.11,-32.15 0,-5.77 -0.88,-15.24 2.56,-19.95 1.63,-2.23 3.79,-3.72 6.44,-4.48 0,0 27,-0.57 27,-0.57 3.41,-0.01 6.97,0.26 9.94,-1.74 5.49,-3.69 6.07,-12.35 0.84,-16.56 -3.03,-2.43 -7.08,-2.65 -10.78,-2.7 -16.87,-0.2 -41.21,-3.07 -51.89,13 -6.07,9.12 -5.11,22.45 -5.11,33 0,19.96 -4,45.31 20,53.25 4.06,1.34 6.77,1.7 11,1.75 0,0 25,0 25,0 14.14,0 25.92,2 36.96,-9.04 3.43,-3.43 5.9,-7.28 7.25,-11.96 1.24,-4.29 1.78,-11.47 1.79,-16 0,0 0,-89 0,-89 -0.13,-10.86 -4.57,-16.37 -15.91,-13.15 z m 155.91,59.15 c 0,0 28,0 28,0 14.52,-0.25 14.28,-14.41 6.95,-18.91 -3.34,-2.05 -7.18,-2.07 -10.95,-2.09 0,0 -24,0 -24,0 0,0 0,-25 0,-25 -0.02,-3.11 0.06,-6.12 -1.45,-8.96 -3.15,-5.89 -12.71,-7.03 -17.12,-1.89 -2.74,3.18 -2.42,6.94 -2.43,10.85 0,0 0,95 0,95 0.03,18.74 12.26,30.78 31,31 8.96,0.1 16.94,0.67 25,-4.09 8.98,-5.31 19.66,-21.6 13.15,-31.87 -3.68,-5.8 -11.92,-6.67 -16.58,-1.65 -2.67,2.88 -2.35,5.84 -3.46,8.61 -2.24,5.59 -6.35,7.82 -12.11,7.98 -5.48,0.17 -10.88,0.03 -14.26,-5.03 -2.47,-3.7 -1.74,-11.47 -1.74,-15.95 0,0 0,-38 0,-38 z m -454,-20.42 c -7.49,2.93 -7.96,7.13 -8,14.42 0,0 0,54 0,54 0.04,8.5 1.3,15.46 7.18,21.98 10.4,11.55 22.87,10.02 36.82,10.02 0,0 24,0 24,0 19.48,-0.03 32.97,-10.77 33,-31 0,0 0,-55 0,-55 -0.01,-3.61 0.26,-7.59 -2.01,-10.66 -4.21,-5.71 -13.32,-4.96 -17.14,0.77 -2.08,3.13 -1.84,7.29 -1.85,10.89 0,0 0,51 0,51 -0.14,9.84 -4.6,12.88 -14,13 0,0 -29,0 -29,0 -5.51,-0.01 -10.76,0.21 -14.15,-5.05 -2.64,-4.12 -1.85,-13.9 -1.85,-18.95 0,0 0,-43 0,-43 -0.12,-8.43 -4.03,-13.63 -13,-12.42 z m 129,-0.36 c -19.29,3.83 -26.97,15.9 -27,34.78 0,0 0,90 0,90 0.01,4.14 -0.26,8.43 2.51,11.83 4.14,5.18 12.6,5.41 16.6,0 2.14,-2.96 1.88,-6.41 1.89,-9.83 0,0 0,-90 0,-90 0.01,-2.18 -0.03,-4.91 0.57,-7 3.05,-10.64 13.86,-9 22.43,-9 0,0 20,0 20,0 5.52,0.01 10.9,-0.08 14.4,5.05 2.21,3.24 1.6,9.08 1.6,12.95 0,0 0,28 0,28 -0.02,3.03 0.15,6.21 -1.74,8.79 -2.75,3.75 -7.01,4.15 -11.26,4.21 0,0 -22,0 -22,0 -7.52,0.01 -16.13,2.22 -14.62,12 1.81,11.74 17.01,9 25.62,9 17.26,0 36.83,1.41 43.64,-19 1.33,-4 1.34,-5.88 1.36,-10 0,0 0,-34 0,-34 0,-8.85 1.07,-14.86 -3.32,-23 -9.62,-17.84 -31.61,-15 -48.68,-14.78 0,0 -22,0 -22,0 z m 221,-0.01 c -12.67,2.3 -21.92,7.8 -25.95,20.79 -2.17,7.01 -2.26,18.22 6.95,19.77 14.7,2.48 9.93,-13.63 19.02,-18.32 3.68,-1.9 8.88,-1.45 12.98,-1.45 0,0 23,0 23,0 2.52,0 5.6,-0.11 8,0.65 9.9,3.12 9,12.08 9,20.35 0,0 0,13 0,13 0,5.84 1.03,15.21 -2.51,19.96 -3.56,4.77 -7.04,5.01 -12.49,5.04 0,0 -29,0 -29,0 -4.16,-0.01 -8.36,0.21 -11.77,-2.65 -4.93,-4.14 -3.78,-11.84 1.86,-14.78 4.86,-2.54 23.48,-1.56 29.91,-1.57 7.52,-0.01 16.13,-2.22 14.62,-12 -1.79,-11.56 -17.14,-9 -25.62,-9 -16.94,0 -36.98,-0.97 -43.64,19 -1.18,3.56 -1.31,5.31 -1.36,9 -0.05,4.48 -0.25,8.65 1.04,13 6.15,20.67 24.63,20 41.96,20 0,0 25,0 25,0 4.75,-0.01 7.35,-0.02 12,-1.44 24.45,-7.5 21,-33.62 21,-53.56 0,-11.11 1.2,-23.43 -5.64,-33 -10.95,-15.36 -27.88,-13 -44.36,-12.79 0,0 -24,0 -24,0 z m 190,0.01 c -4.41,1.04 -6.9,1.54 -11,3.59 -19.82,9.92 -16,30.81 -16,49.19 0,18.72 -2.52,38.8 20,46.25 4.06,1.34 6.77,1.7 11,1.75 0,0 37,0 37,0 13.06,-0.02 24.35,-4.34 30.1,-17 3.43,-7.57 5.62,-20.77 -5.1,-23.57 -12.74,-3.32 -12.37,11.34 -15.65,15.36 -3.57,4.38 -8.25,4.2 -13.35,4.21 0,0 -27,0 -27,0 -5.14,-0.01 -9.87,0.07 -13.57,-4.21 -2.58,-3 -2.41,-6.1 -2.43,-9.79 0,0 0,-29 0,-29 0,-2.44 -0.13,-5.73 0.74,-8 1.23,-3.21 4.07,-5.89 7.26,-7.11 3.87,-1.48 21.7,-0.89 27,-0.89 5.84,0 15.12,-0.92 19.87,2.7 6.9,5.25 4.36,16.12 -8.87,16.3 0,0 -22,0 -22,0 -4.06,0.01 -8.34,-0.26 -11.61,2.65 -4.99,4.45 -4.41,13.95 1.65,17.18 2.59,1.38 6.09,1.17 8.96,1.17 0,0 25,0 25,0 8.88,-0.01 17.09,-1.88 23.7,-8.32 11.63,-11.35 11.13,-33.59 -0.74,-44.5 -11.07,-10.17 -28.03,-8.18 -41.96,-7.96 0,0 -23,0 -23,0 z"
     style="fill:#00a0ff;fill-opacity:1;stroke:#00a0ff;stroke-opacity:1" />
  <path
     id="star"
     fill="none"
     stroke="#000000"
     stroke-width="1"
     d="m 913.5396,182.3288 c 0,0 30,0 30,0 3.52,-0.01 8.79,0.54 9.63,-4.05 1.26,-6.97 -7.15,-6.94 -11.63,-6.95 0,0 -28,0 -28,0 0,0 0,-29 0,-29 -0.01,-3.7 0.51,-8.69 -4.05,-9.92 -3.18,-0.86 -5.64,0.98 -6.81,3.97 0,0 0,18.95 0,18.95 0,0 0,78 0,78 -0.13,8 0.8,14.56 6.38,20.82 3.09,3.47 8,6.23 12.48,7.42 6.88,1.82 22.7,1.24 29,-2.15 7.45,-4.02 12.7,-11.51 12.96,-20.09 0.05,-1.71 0.02,-4.11 -0.98,-5.63 -1.94,-2.76 -6.12,-2.6 -8.24,0 -1.87,2.18 -1.53,5.35 -3.19,8.63 -3.55,6.99 -9.24,8.91 -16.55,9 -8.63,0.1 -15.58,-1.14 -19.47,-10 -2.21,-5.05 -1.53,-14.29 -1.53,-20 0,0 0,-39 0,-39 z m -99,-10.78 c -25.14,5.09 -28.49,33.94 -11.99,45.99 5.96,4.35 10.93,4.78 17.99,4.79 0,0 31,0 31,0 8.96,0.01 19.1,2.33 20.62,13 0.9,6.27 -4.09,12.45 -9.62,14.77 -3.27,1.38 -6.54,1.22 -10,1.23 0,0 -29,0 -29,0 -4.73,-0.01 -7.71,0.13 -11.99,-2.36 -3.52,-2.06 -5.79,-4.8 -7.16,-8.64 -1.12,-3.14 -1.02,-7.14 -4.91,-8.15 -1.28,-0.59 -2.62,-0.45 -3.79,0 -5.01,2.9 -2.74,11.06 -1.06,15.15 4.19,10.2 13.28,14.87 23.91,15 0,0 39,0 39,0 27.69,-0.34 32.84,-31.32 17.91,-44.67 -6.03,-5.39 -13.19,-6.32 -20.91,-6.33 0,0 -31,0 -31,0 -4.69,-0.01 -8.91,0.13 -12.96,-2.7 -9.41,-6.55 -8.3,-17.54 0.96,-23.58 4.2,-2.73 9.19,-2.71 14,-2.72 0,0 26,0 26,0 4.47,0.01 7.85,-0.13 11.99,2 9.01,4.63 8.4,13.06 10.18,15.57 1.59,2.24 5.2,2.91 7.52,1.4 2.52,-1.63 2.41,-5.33 2.14,-7.97 -0.74,-7.24 -4.68,-13.65 -10.84,-17.53 -8.54,-5.39 -17.39,-4.47 -26.99,-4.25 0,0 -31,0 -31,0 z m 190,0.01 c -9.31,2.31 -16.39,6.32 -19.91,15.77 -1.71,4.61 -4.2,14.71 3.9,14.71 5.43,0 5.03,-6.11 6.66,-9.71 1.46,-3.22 4.25,-6.17 7.35,-7.86 3.66,-2 7.9399,-2.12 11.9999,-2.14 0,0 27,0 27,0 7.54,0.01 14.63,0.9 18.99,8.02 2.66,4.32 2.01,10.06 2.01,14.98 0,0 0,29 0,29 -0.25,18.24 -14.66,17 -28,17 0,0 -21,0 -21,0 -4.76,-0.01 -8.8399,0.13 -12.9799,-2.7 -8.06,-5.5 -9.02,-16.67 -0.98,-22.65 4.72,-3.52 9.3799,-3.64 14.9599,-3.65 0,0 19,0 19,0 3.7,-0.01 8.6,0.58 9.67,-4.05 2.19,-9.54 -15.15,-6.95 -20.67,-6.95 -14.45,0 -31.6099,-1.7 -38.0499,15 -0.95,2.47 -1.7,6.35 -1.86,9 -0.16,2.77 0.14,5.3 0.73,8 4.36,20.18 22.13,19 38.1799,19 0,0 24,0 24,0 4.16,-0.01 6.93,0.05 11,-1.22 4.34,-1.36 7.72,-3.48 10.82,-6.82 8.05,-8.69 6.18,-18.1 6.18,-28.96 0,0 0,-29 0,-29 -0.05,-3.6 -0.15,-5.57 -1.47,-9 -7.53,-19.59 -29.68,-16 -46.53,-15.77 0,0 -20.9999,0 -20.9999,0 z m 110.9999,0.36 c -3.17,0.44 -6.07,0.94 -9,2.41 -15.7,7.87 -14,24.25 -14,39 0,0 0,37 0,37 0,2.67 -0.21,6.52 1.17,8.85 2.12,3.58 6.85,3.77 8.81,0.84 1.23,-1.84 1.02,-5.51 1.02,-7.69 0,0 0,-47 0,-47 0.01,-3.27 -0.07,-5.76 0.68,-9 3.71,-16.04 17.7,-13.92 30.32,-14 2,-0.01 4.98,0.12 6.69,-1.02 2.86,-1.91 3.17,-7.43 -0.84,-9.39 -2.9,-1.17 -20.97,-0.65 -24.85,0 z"
     style="fill:#868787;fill-opacity:1;stroke:#868787;stroke-opacity:1" />
</svg>
