<svg width="21" height="21" viewBox="0 0 21 21" fill="none" xmlns="http://www.w3.org/2000/svg">
<path d="M15.75 11.5938C14.928 11.5938 14.1244 11.8375 13.4409 12.2942C12.7574 12.7509 12.2247 13.4 11.9101 14.1595C11.5956 14.9189 11.5132 15.7546 11.6736 16.5608C11.834 17.3671 12.2298 18.1077 12.8111 18.6889C13.3924 19.2702 14.1329 19.666 14.9392 19.8264C15.7454 19.9868 16.5811 19.9045 17.3405 19.5899C18.1 19.2753 18.7491 18.7426 19.2058 18.0591C19.6625 17.3756 19.9063 16.572 19.9063 15.75C19.905 14.6481 19.4667 13.5917 18.6875 12.8125C17.9083 12.0333 16.8519 11.595 15.75 11.5938ZM12.9063 15.75C12.9071 14.9961 13.207 14.2733 13.7401 13.7401C14.2733 13.207 14.9961 12.9071 15.75 12.9063C16.2756 12.9082 16.7902 13.0572 17.2356 13.3365L13.3365 17.2356C13.0572 16.7902 12.9082 16.2756 12.9063 15.75V15.75ZM15.75 18.5938C15.2244 18.5918 14.7098 18.4428 14.2644 18.1635L18.1635 14.2644C18.4428 14.7098 18.5918 15.2244 18.5938 15.75C18.5929 16.5039 18.293 17.2267 17.7599 17.7599C17.2268 18.293 16.5039 18.5929 15.75 18.5938V18.5938Z" fill="#4086F1"/>
<path d="M7.875 9.40625C10.1704 9.40625 12.0312 7.54543 12.0312 5.25C12.0312 2.95457 10.1704 1.09375 7.875 1.09375C5.57957 1.09375 3.71875 2.95457 3.71875 5.25C3.71875 7.54543 5.57957 9.40625 7.875 9.40625Z" fill="#4086F1"/>
<path d="M13.6413 10.7004C13.1702 10.0147 12.5625 9.4338 11.8563 8.99414C11.3457 9.53828 10.729 9.97199 10.0442 10.2685C9.35945 10.5649 8.62119 10.7179 7.875 10.7179C7.12882 10.7179 6.39056 10.5649 5.7058 10.2685C5.02105 9.97199 4.40434 9.53828 3.89375 8.99414C3.03767 9.51898 2.33066 10.2548 1.8404 11.1311C1.35014 12.0075 1.09305 12.995 1.09375 13.9991V15.7491C1.09501 15.9228 1.16456 16.089 1.28735 16.2118C1.41015 16.3346 1.57634 16.4041 1.75 16.4054H10.325C10.1736 15.2221 10.4165 14.022 11.016 12.9907C11.6155 11.9594 12.5382 11.1544 13.6413 10.7004V10.7004Z" fill="#4086F1"/>
</svg>
