<svg width="17" height="17" viewBox="0 0 17 17" fill="none" xmlns="http://www.w3.org/2000/svg">
<path d="M3.77439 5.48828L0.149709 9.11297C-0.0446948 9.30737 -0.0446948 9.62233 0.149709 9.81671L3.78914 13.4564L5.54937 11.6962C5.74377 11.5018 6.05874 11.5018 6.25311 11.6962C6.44751 11.8906 6.44751 12.2055 6.25311 12.3999L4.49288 14.1601L5.28211 14.9495L7.54009 12.6915C7.7345 12.4971 8.04946 12.4971 8.24383 12.6915C8.43824 12.8859 8.43824 13.2009 8.24383 13.3953L5.98585 15.6532L7.18674 16.8543C7.38105 17.0486 7.69621 17.0486 7.89049 16.8543L11.5152 13.2296L3.77439 5.48828Z" fill="#4086F1"/>
<path d="M16.2576 4.22385C17.2413 3.25126 17.2427 1.68348 16.2596 0.710427C15.3206 -0.238751 13.6838 -0.234866 12.7491 0.710427L8.60229 4.89044C8.4137 5.07903 8.08711 5.07903 7.89855 4.89044L7.18897 4.18039C6.61256 3.60494 5.66435 3.60252 5.06945 4.18281L4.47607 4.78263L12.2206 12.5276L12.8268 11.9275C13.4007 11.3389 13.3988 10.3912 12.8224 9.81479L12.1128 9.10521C11.9183 8.90971 11.9183 8.59693 12.1128 8.40147L16.2576 4.22385ZM14.4945 1.92838C14.7732 1.92838 14.9922 2.14739 14.9922 2.42607C14.9922 2.70481 14.7732 2.92375 14.4945 2.92375C14.2158 2.92375 13.9968 2.70481 13.9968 2.42607C13.9968 2.14739 14.2158 1.92838 14.4945 1.92838Z" fill="#4086F1"/>
<path d="M10.4548 16.9876C10.7297 16.9876 10.9525 16.7647 10.9525 16.4899C10.9525 16.215 10.7297 15.9922 10.4548 15.9922C10.18 15.9922 9.95715 16.215 9.95715 16.4899C9.95715 16.7647 10.18 16.9876 10.4548 16.9876Z" fill="#4086F1"/>
<path d="M12.4457 14.9993C12.7205 14.9993 12.9434 14.7764 12.9434 14.5016C12.9434 14.2267 12.7205 14.0039 12.4457 14.0039C12.1708 14.0039 11.948 14.2267 11.948 14.5016C11.948 14.7764 12.1708 14.9993 12.4457 14.9993Z" fill="#4086F1"/>
<path d="M12.4457 16.9876C12.7205 16.9876 12.9434 16.7647 12.9434 16.4899C12.9434 16.215 12.7205 15.9922 12.4457 15.9922C12.1708 15.9922 11.948 16.215 11.948 16.4899C11.948 16.7647 12.1708 16.9876 12.4457 16.9876Z" fill="#4086F1"/>
</svg>
