<svg width="17" height="17" viewBox="0 0 17 17" fill="none" xmlns="http://www.w3.org/2000/svg">
<path d="M11.2417 9.64624C11.2417 11.1581 10.0118 12.3879 8.5 12.3879C6.98817 12.3879 5.75878 11.1581 5.75878 9.64624C5.75878 8.13441 6.98817 6.90455 8.5 6.90455C10.0118 6.90455 11.2417 8.13488 11.2417 9.64624ZM17 5.75317V13.5403C17 14.5784 16.1583 15.4201 15.1202 15.4201H1.8798C0.841682 15.4201 0 14.5784 0 13.5403V5.75317C0 4.71505 0.841682 3.87337 1.8798 3.87337H4.19196V3.22295C4.19196 2.31454 4.9279 1.57812 5.83679 1.57812H11.1632C12.0721 1.57812 12.808 2.31454 12.808 3.22295V3.8729H15.1202C16.1583 3.87336 17 4.71505 17 5.75317ZM12.6515 9.64624C12.6515 7.35711 10.7891 5.4947 8.5 5.4947C6.21134 5.4947 4.34892 7.35711 4.34892 9.64624C4.34892 11.9354 6.21134 13.7978 8.5 13.7978C10.7891 13.7978 12.6515 11.9354 12.6515 9.64624Z" fill="#AEAEAE"/>
</svg>
