<?xml version="1.0" encoding="UTF-8"?>
<svg width="17px" height="17px" viewBox="0 0 17 17" version="1.1" xmlns="http://www.w3.org/2000/svg" xmlns:xlink="http://www.w3.org/1999/xlink">
    <title>Group 19</title>
    <g id="Page-1" stroke="none" stroke-width="1" fill="none" fill-rule="evenodd">
        <g id="7.1-Мои-файлы-(вид-блоки)" transform="translate(-691.000000, -568.000000)">
            <g id="Group-18" transform="translate(675.000000, 279.000000)">
                <g id="Group-19" transform="translate(16.000000, 289.000000)">
                    <rect id="Rectangle" fill="#4086F1" x="0" y="0" width="16.5" height="16.5" rx="3.75"></rect>
                    <g id="Group-2" transform="translate(3.000000, 4.000000)" fill="#FFFFFF" fill-rule="nonzero" stroke="#FFFFFF" stroke-width="0.5">
                        <g id="upload" transform="translate(0.450000, 0.000000)">
                            <path d="M9.25425509,4.277497 C9.10384126,4.277497 8.98351019,4.40410566 8.98351019,4.56236649 L8.98351019,7.15362372 C8.98351019,7.85841192 8.43800934,8.43026103 7.7701719,8.43026103 L1.8298281,8.43026103 C1.15998514,8.43026103 0.616489813,7.85630178 0.616489813,7.15362372 L0.616489813,4.5201636 C0.616489813,4.36190278 0.496158744,4.23529412 0.345744907,4.23529412 C0.19533107,4.23529412 0.075,4.36190278 0.075,4.5201636 L0.075,7.15362372 C0.075,8.17282343 0.863168506,9 1.8298281,9 L7.7701719,9 C8.73883701,9 9.525,8.17071328 9.525,7.15362372 L9.525,4.56236649 C9.525,4.40621581 9.40466893,4.277497 9.25425509,4.277497 Z" id="Path"></path>
                            <path d="M3.18599849,2.24734104 L4.51442961,0.951353735 L4.51442961,6.60375695 C4.51442961,6.7585325 4.64134979,6.88235294 4.8,6.88235294 C4.95865021,6.88235294 5.08557039,6.7585325 5.08557039,6.60375695 L5.08557039,0.951353735 L6.41400151,2.24734104 C6.46900025,2.30099656 6.54303702,2.329888 6.61495845,2.329888 C6.68899522,2.329888 6.76091665,2.30306023 6.81591539,2.24734104 C6.9280282,2.13796631 6.9280282,1.96255402 6.81591539,1.85317929 L5.00095694,0.0825469618 C4.94807353,0.0309551107 4.87403677,0 4.8,0 C4.7238479,0 4.65192647,0.0288914366 4.59904306,0.0825469618 L2.78408461,1.85317929 C2.6719718,1.96255402 2.6719718,2.13796631 2.78408461,2.24734104 C2.8940821,2.35465209 3.07600101,2.35465209 3.18599849,2.24734104 Z" id="Path" transform="translate(4.800000, 3.441176) rotate(180.000000) translate(-4.800000, -3.441176) "></path>
                        </g>
                    </g>
                </g>
            </g>
        </g>
    </g>
</svg>