<svg width="18" height="18" viewBox="0 0 18 18" fill="none" xmlns="http://www.w3.org/2000/svg">
<g clip-path="url(#clip0_2_30343)">
<path d="M14.6471 5.37848H8.15294L6.86118 3.84319C6.81772 3.79096 6.7526 3.76166 6.68471 3.76378H1.44529C0.645353 3.7696 0 4.41972 0 5.21966V14.6626C0.000970588 15.4653 0.651441 16.1157 1.45412 16.1167H14.6471C15.4497 16.1157 16.1002 15.4653 16.1012 14.6626V6.8326C16.1002 6.02993 15.4497 5.37946 14.6471 5.37848Z" fill="#AEAEAE"/>
<path d="M16.5549 3.49763H10.059L8.76727 1.96233C8.72381 1.9101 8.6587 1.8808 8.5908 1.88292H3.35315C2.62733 1.88411 2.01356 2.42032 1.91492 3.13939H6.69197C6.94247 3.13877 7.18031 3.24933 7.34139 3.44116L8.44433 4.75233H14.6473C15.7945 4.75427 16.7241 5.68388 16.7261 6.83116V14.2217C17.4535 14.131 17.9996 13.513 18.0002 12.78V4.94998C17.9983 4.15141 17.3534 3.50345 16.5549 3.49763Z" fill="#AEAEAE"/>
</g>
<defs>
<clipPath id="clip0_2_30343">
<rect width="18" height="18" fill="white"/>
</clipPath>
</defs>
</svg>
