<svg width="15" height="15" viewBox="0 0 15 15" fill="none" xmlns="http://www.w3.org/2000/svg">
<path fill-rule="evenodd" clip-rule="evenodd" d="M7.49659 0H7.5211C8.75433 0.00119935 9.91736 0.29627 10.9416 0.817581C10.3618 1.36458 10 2.14003 10 3C10 4.65685 11.3431 6 13 6C13.6432 6 14.2391 5.7976 14.7275 5.45302C14.8888 6.05412 14.9741 6.68537 14.9728 7.33624C14.9728 11.3932 11.6105 14.6925 7.47616 14.6925C6.62641 14.6965 5.78484 14.5522 4.98411 14.2676L0.984566 14.9571C0.906945 14.9691 0.825238 14.9611 0.751702 14.929C0.547435 14.8449 0.449387 14.6083 0.539264 14.4039L1.63005 11.9144C0.576032 10.6195 0 9.01194 0 7.35628C0 3.2993 3.36223 0 7.49659 0ZM7.16162 5.87721H4.95554C4.73085 5.87721 4.54701 6.05761 4.54701 6.2781C4.54701 6.49859 4.73085 6.67899 4.95554 6.67899H7.16162C7.38631 6.67899 7.57015 6.49859 7.57015 6.2781C7.57015 6.05761 7.38631 5.87721 7.16162 5.87721ZM10.0214 8.68344H4.95554C4.73085 8.68344 4.54701 8.50305 4.54701 8.28256C4.54701 8.06207 4.73085 7.88167 4.95554 7.88167H10.0214C10.246 7.88167 10.4299 8.06207 10.4299 8.28256C10.4299 8.50305 10.246 8.68344 10.0214 8.68344Z" fill="#4086F1"/>
<circle cx="13" cy="3" r="2" fill="#4086F1"/>
</svg>
