<?xml version="1.0" encoding="UTF-8"?>
<svg width="18px" height="18px" viewBox="0 0 18 18" version="1.1" xmlns="http://www.w3.org/2000/svg" xmlns:xlink="http://www.w3.org/1999/xlink">
    <title>add-2</title>
    <g id="Page-1" stroke="none" stroke-width="1" fill="none" fill-rule="evenodd">
        <g id="21-Ñ‡Ğ°Ñ‚" transform="translate(-569.000000, -872.000000)" fill="#4086F1" fill-rule="nonzero">
            <g id="add-2" transform="translate(569.000000, 872.000000)">
                <path d="M9,0 C4.03720095,0 0,4.03720095 0,9 C0,13.9627991 4.03720095,18 9,18 C13.9627991,18 18,13.9627991 18,9 C18,4.03720095 13.9627991,0 9,0 Z M12.9375,9.74995421 L9.74995421,9.74995421 L9.74995421,12.9375 C9.74995421,13.3515472 9.41404725,13.6874542 9,13.6874542 C8.58595275,13.6874542 8.25004579,13.3515472 8.25004579,12.9375 L8.25004579,9.74995421 L5.0625,9.74995421 C4.64845275,9.74995421 4.31254579,9.41404725 4.31254579,9 C4.31254579,8.58595275 4.64845275,8.25004579 5.0625,8.25004579 L8.25004579,8.25004579 L8.25004579,5.0625 C8.25004579,4.64845275 8.58595275,4.31254579 9,4.31254579 C9.41404725,4.31254579 9.74995421,4.64845275 9.74995421,5.0625 L9.74995421,8.25004579 L12.9375,8.25004579 C13.3515472,8.25004579 13.6874542,8.58595275 13.6874542,9 C13.6874542,9.41404725 13.3515472,9.74995421 12.9375,9.74995421 L12.9375,9.74995421 Z" id="Shape"></path>
            </g>
        </g>
    </g>
</svg>