<svg width="12" height="16" viewBox="0 0 12 16" fill="none" xmlns="http://www.w3.org/2000/svg">
<path d="M1 0C0.45 0 0 0.45 0 1V15C0 15.55 0.45 16 1 16H11C11.55 16 12 15.55 12 15V4L8 0H1Z" fill="#B6B6B6"/>
<path d="M9.17423 9.79716H6.77314V12.4077C6.77314 12.6697 6.56825 12.8824 6.31579 12.8824C6.06333 12.8824 5.85844 12.6697 5.85844 12.4077V9.79716H3.45735C3.20489 9.79716 3 9.58452 3 9.32252C3 9.06051 3.20489 8.84787 3.45735 8.84787H5.85844V6.47465C5.85844 6.21264 6.06333 6 6.31579 6C6.56825 6 6.77314 6.21264 6.77314 6.47465V8.84787H9.17423C9.42669 8.84787 9.63158 9.06051 9.63158 9.32252C9.63158 9.58452 9.42669 9.79716 9.17423 9.79716Z" fill="white"/>
</svg>
