<svg width="14" height="13" viewBox="0 0 14 13" fill="none" xmlns="http://www.w3.org/2000/svg">
<path d="M6.18917 1.80556L5.11163 0.252543L5.02017 0.120377H0V12.8796H14V1.80556H6.18917Z" fill="#B6B6B6"/>
<path d="M9.85843 8.00305H7.45734V10.6136C7.45734 10.8756 7.25245 11.0882 6.99999 11.0882C6.74754 11.0882 6.54264 10.8756 6.54264 10.6136V8.00305H4.14155C3.8891 8.00305 3.6842 7.79041 3.6842 7.5284C3.6842 7.2664 3.8891 7.05376 4.14155 7.05376H6.54264V4.68053C6.54264 4.41853 6.74754 4.20589 6.99999 4.20589C7.25245 4.20589 7.45734 4.41853 7.45734 4.68053V7.05376H9.85843C10.1109 7.05376 10.3158 7.2664 10.3158 7.5284C10.3158 7.79041 10.1109 8.00305 9.85843 8.00305Z" fill="white"/>
</svg>
