<?xml version="1.0" encoding="UTF-8"?>
<svg width="25px" height="23px" viewBox="0 0 25 23" version="1.1" xmlns="http://www.w3.org/2000/svg" xmlns:xlink="http://www.w3.org/1999/xlink">
    <title>Group 4</title>
    <g id="Page-1" stroke="none" stroke-width="1" fill="none" fill-rule="evenodd">
        <g id="21-чат" transform="translate(-1012.000000, -113.000000)" fill-rule="nonzero">
            <g id="Group-4" transform="translate(1012.000000, 113.000000)">
                <g id="men" fill="#4086F1">
                    <path d="M4.38342548,10.8145117 C4.38342548,10.3179769 4.47353365,9.84165501 4.63846635,9.40024637 L3.02036058,9.40024637 C1.35493269,9.40024637 0,10.724712 0,12.3526909 L0,15.611565 C0,16.5883364 0.812935096,17.3830317 1.81221635,17.3830317 L4.48734615,17.3830317 C4.42028606,17.1981594 4.38342548,16.9995055 4.38342548,16.7925029 L4.38342548,10.8145117 Z" id="Path"></path>
                    <path d="M12.3111466,7.86206709 L8.61193029,7.86206709 C6.9465024,7.86206709 5.59156971,9.18653268 5.59156971,10.8145117 L5.59156971,16.7925029 C5.59156971,17.118586 5.86201683,17.3829918 6.19564183,17.3829918 L14.7274351,17.3829918 C15.0610601,17.3829918 15.3315072,17.118626 15.3315072,16.7925029 L15.3315072,10.8145117 C15.3315072,9.18653268 13.9765745,7.86206709 12.3111466,7.86206709 Z" id="Path"></path>
                    <path d="M10.4615385,0.0335550459 C8.45864423,0.0335550459 6.82917788,1.62638112 6.82917788,3.5842781 C6.82917788,4.91229893 7.57901683,6.07214507 8.68638702,6.68108926 C9.21162981,6.96990233 9.81717308,7.1349612 10.4615385,7.1349612 C11.1059038,7.1349612 11.7114471,6.96990233 12.2366899,6.68108926 C13.344101,6.07214507 14.093899,4.91225898 14.093899,3.5842781 C14.093899,1.62642106 12.4644327,0.0335550459 10.4615385,0.0335550459 Z" id="Path"></path>
                    <path d="M4.0831875,3.34308123 C2.58526683,3.34308123 1.36666106,4.53428536 1.36666106,5.9985237 C1.36666106,7.46276204 2.58526683,8.65396617 4.0831875,8.65396617 C4.46315385,8.65396617 4.82497596,8.57702924 5.15365625,8.43873452 C5.72193029,8.19957492 6.19049279,7.77622209 6.48043269,7.24593253 C6.68394231,6.87375115 6.79971394,6.44915998 6.79971394,5.9985237 C6.79971394,4.53432531 5.58110817,3.34308123 4.0831875,3.34308123 Z" id="Path"></path>
                </g>
                <path d="M17.0769231,8.02083333 C13.259645,8.02083333 10.1538462,11.1047997 10.1538462,14.8958333 C10.1538462,18.686867 13.259645,21.7708333 17.0769231,21.7708333 C20.8942012,21.7708333 24,18.686867 24,14.8958333 C24,11.1047997 20.8942012,8.02083333 17.0769231,8.02083333 Z" id="Shape" stroke="#F5F9FE" stroke-width="0.798816568" fill="#4086F1"></path>
                <path d="M20.4053254,15.4246795 L17.6094675,15.4246795 L17.6094675,18.3333333 C17.6094675,18.6252564 17.3708876,18.8621795 17.0769231,18.8621795 C16.7829586,18.8621795 16.5443787,18.6252564 16.5443787,18.3333333 L16.5443787,15.4246795 L13.7485207,15.4246795 C13.4545562,15.4246795 13.2159763,15.1877564 13.2159763,14.8958333 C13.2159763,14.6039103 13.4545562,14.3669872 13.7485207,14.3669872 L16.5443787,14.3669872 L16.5443787,11.7227564 C16.5443787,11.4308333 16.7829586,11.1939103 17.0769231,11.1939103 C17.3708876,11.1939103 17.6094675,11.4308333 17.6094675,11.7227564 L17.6094675,14.3669872 L20.4053254,14.3669872 C20.6992899,14.3669872 20.9378698,14.6039103 20.9378698,14.8958333 C20.9378698,15.1877564 20.6992899,15.4246795 20.4053254,15.4246795 Z" id="Path" stroke="#FFFFFF" stroke-width="0.798816568" fill="#FFFFFF"></path>
            </g>
        </g>
    </g>
</svg>