<svg width="19" height="22" viewBox="0 0 19 22" fill="none" xmlns="http://www.w3.org/2000/svg">
<path d="M8.97574 9.88867H4.17533C2.01413 9.88867 0.255859 11.5617 0.255859 13.6181V21.1692C0.255859 21.5811 0.606814 21.9151 1.03975 21.9151H12.1113C12.5443 21.9151 12.8952 21.5812 12.8952 21.1692V13.6181C12.8952 11.5617 11.1369 9.88867 8.97574 9.88867Z" fill="#BABABA"/>
<path d="M6.57596 0C3.97684 0 1.8623 2.01199 1.8623 4.48512C1.8623 6.16262 2.83536 7.62769 4.27237 8.39688C4.95397 8.7617 5.73977 8.9702 6.57596 8.9702C7.41214 8.9702 8.19794 8.7617 8.87954 8.39688C10.3166 7.62769 11.2896 6.16257 11.2896 4.48512C11.2896 2.01204 9.17508 0 6.57596 0Z" fill="#BABABA"/>
<circle cx="13.5" cy="16.5" r="5.5" fill="#ECF3FE"/>
<circle cx="13.5" cy="16.5" r="4.5" fill="#BABABA"/>
<line x1="13.5" y1="14" x2="13.5" y2="19" stroke="#ECF3FE"/>
<line x1="11" y1="16.5" x2="16" y2="16.5" stroke="#ECF3FE"/>
</svg>
