<svg width="324" height="116" viewBox="0 0 324 116" fill="none" xmlns="http://www.w3.org/2000/svg">
<path d="M130.701 6.1025L130.971 6.17L131.151 6.7775L131.443 7.115L131.668 7.43C131.683 7.505 131.713 7.5725 131.758 7.6325C131.803 7.6775 131.856 7.73 131.916 7.79V7.8575H131.983C132.118 8.0225 132.238 8.24 132.343 8.51L132.501 8.78L132.613 8.9375L132.973 9.545L133.243 9.7025V9.9725L133.356 10.13L133.401 10.3775L133.716 10.94L133.918 11.4125L133.941 11.66L134.143 11.9525L134.121 12.3125L134.211 12.5375L134.368 12.4025L135.223 12.5825L135.403 12.38L135.988 12.605L136.011 12.7175L135.921 13.1225L135.988 13.1675L136.123 13.2125L135.876 13.4375L135.808 13.685L135.831 13.73C135.846 13.97 135.823 14.1725 135.763 14.3375C135.718 14.5025 135.658 14.6375 135.583 14.7425L135.628 15.2825L135.651 15.6875L135.358 16.1825L135.381 16.5875L135.268 16.9925L134.728 17.96L134.593 18.05L134.368 17.2175L134.346 16.745C134.241 16.595 134.211 16.355 134.256 16.025L134.188 15.935L134.233 15.7775L134.076 15.4625L134.278 15.1475L134.143 14.99L134.301 14.765C134.181 14.495 134.121 14.27 134.121 14.09L133.333 13.9775L133.356 13.91H133.311L133.378 13.7975C133.258 13.8425 133.138 13.865 133.018 13.865H132.073C131.968 13.865 131.856 13.835 131.736 13.775C131.706 13.775 131.616 13.76 131.466 13.73L131.286 13.91L130.431 13.7525L130.251 13.865H129.756L129.013 13.775L127.866 13.91L127.236 13.7525L125.886 13.91C125.766 13.91 125.556 13.9175 125.256 13.9325C124.956 13.9325 124.693 13.9325 124.468 13.9325C124.378 13.9325 124.303 13.955 124.243 14C124.198 14.03 124.161 14.03 124.131 14L123.793 13.955L123.141 14.0675L123.208 14.135C123.088 14.12 122.998 14.105 122.938 14.09C122.893 14.09 122.856 14.09 122.826 14.09C122.736 14.09 122.631 14.075 122.511 14.045C122.391 14.03 122.308 14.06 122.263 14.135L121.813 14.2475L121.611 14.1575C121.611 14.2625 121.588 14.3675 121.543 14.4725C121.513 14.5925 121.468 14.7125 121.408 14.8325L121.521 15.08L121.386 15.215L121.588 15.5525L121.476 15.845L121.521 16.025L121.453 16.115C121.453 16.28 121.446 16.415 121.431 16.52C121.431 16.625 121.393 16.73 121.318 16.835L121.161 17.3075L120.666 18.095L120.531 18.005L120.261 16.97L120.193 16.565L120.261 16.16L119.968 15.6875L120.036 15.2825L120.126 14.72C119.961 14.525 119.893 14.1875 119.923 13.7075L119.946 13.685C119.931 13.625 119.916 13.5725 119.901 13.5275C119.901 13.4825 119.901 13.43 119.901 13.37L119.721 12.875L120.441 12.515H120.823L121.543 12.6275L121.746 12.3125C121.851 12.2375 121.896 12.14 121.881 12.02C121.881 11.9 121.911 11.8025 121.971 11.7275L122.241 11.6375L122.196 11.345L122.533 10.8275C122.548 10.7975 122.563 10.775 122.578 10.76C122.593 10.73 122.601 10.7 122.601 10.67V10.6025L122.668 10.4225L122.893 10.2425L123.028 9.8825V9.635L123.298 9.6125L123.321 9.2525L123.501 9.1175L123.546 8.9825C123.816 8.8175 123.951 8.705 123.951 8.645L124.176 8.195L124.356 7.8125L124.626 7.4525L124.806 7.1375L125.031 6.89L125.233 6.5075L125.571 6.125L125.683 6.0575V5.765L125.751 5.7425L125.796 5.5625C125.916 5.4125 126.013 5.24 126.088 5.045C126.163 4.835 126.223 4.685 126.268 4.595L126.291 4.2575L126.426 3.9425L126.538 3.8975V3.5825H126.583L126.741 3.29L126.651 2.615L126.831 2.21C126.951 2.12 127.101 2.0525 127.281 2.0075C127.476 1.9475 127.626 1.9175 127.731 1.9175C127.911 1.9175 128.046 1.955 128.136 2.03C128.196 2.06 128.278 2.2025 128.383 2.4575C128.503 2.7125 128.683 3.02 128.923 3.38L129.103 3.8525L129.351 4.145L129.733 4.64L130.116 5.1125L130.138 5.27L130.678 5.8775L130.701 6.1025ZM124.401 11.0525L124.266 11.165C124.206 11.195 124.168 11.2475 124.153 11.3225C124.153 11.3975 124.138 11.465 124.108 11.525L123.928 11.9525L123.861 12.3575L124.356 12.335L124.851 12.425H125.346L125.773 12.3575H126.741C126.861 12.3575 126.981 12.3425 127.101 12.3125C127.236 12.2675 127.311 12.245 127.326 12.245H127.506C127.521 12.245 127.558 12.245 127.618 12.245C127.693 12.23 127.768 12.215 127.843 12.2C127.918 12.185 127.986 12.17 128.046 12.155C128.106 12.14 128.136 12.1325 128.136 12.1325L128.856 12.245L129.261 12.155L130.003 12.245L130.993 12.29C131.038 12.275 131.113 12.2675 131.218 12.2675C131.443 12.2675 131.616 12.2975 131.736 12.3575L132.006 12.4025C131.991 12.2825 131.976 12.1775 131.961 12.0875C131.946 11.9825 131.923 11.8775 131.893 11.7725C131.863 11.7275 131.826 11.675 131.781 11.615C131.751 11.54 131.736 11.465 131.736 11.39L131.421 10.8275L131.398 10.6025L131.128 10.085L131.083 9.7925L130.746 9.32L130.318 8.42L129.868 7.6325L129.396 7.025C129.336 6.995 129.291 6.9275 129.261 6.8225C129.231 6.7175 129.193 6.605 129.148 6.485L128.923 6.4175L128.856 6.17L128.361 5.765C128.331 5.72 128.293 5.645 128.248 5.54C128.218 5.435 128.158 5.345 128.068 5.27L127.956 5.1575L127.776 5.2475L127.731 5.5175L127.326 6.125L126.831 6.89L126.673 7.1825L126.561 7.43L126.223 7.8125L125.976 8.3975L125.548 8.8925L125.233 9.5225L125.098 9.725C125.053 9.92 124.986 10.0475 124.896 10.1075C124.821 10.1675 124.753 10.28 124.693 10.445L124.401 11.0525ZM145.636 8.735L145.501 9.14C145.501 9.53 145.479 9.8375 145.434 10.0625L145.299 10.2875V10.535L145.186 10.6925L145.119 11.0075L144.871 11.255L144.714 11.8175L144.534 11.885L144.444 12.1325L144.174 12.29L143.994 12.6725L143.724 12.8075L143.701 13.0775L143.274 13.235C143.079 13.505 142.839 13.6775 142.554 13.7525L142.464 13.775C142.254 14.09 141.976 14.2475 141.631 14.2475C141.481 14.3375 141.309 14.3825 141.114 14.3825L140.889 14.54L140.664 14.6075L140.371 14.8325L140.079 14.81L139.764 14.9L139.381 14.7425L138.414 14.675L138.076 14.1575L137.581 13.64L137.694 13.28L137.356 12.515L137.514 12.2225L137.401 11.6825L137.514 11.345C137.484 11.135 137.469 10.985 137.469 10.895C137.469 10.61 137.544 10.4 137.694 10.265C137.709 10.115 137.806 9.8675 137.986 9.5225H138.099L138.054 9.365L138.121 9.05V8.7125C138.241 8.5775 138.309 8.4875 138.324 8.4425L138.256 8.1275V8.0375C138.361 7.8275 138.414 7.61 138.414 7.385L138.886 6.7325C138.886 6.7325 138.901 6.7175 138.931 6.6875C138.976 6.6575 139.014 6.6275 139.044 6.5975L139.021 6.5075H139.111L139.449 6.125L139.471 5.6075L140.034 5.405C140.244 5.27 140.379 5.045 140.439 4.73H140.731C140.896 4.64 141.046 4.595 141.181 4.595C141.316 4.595 141.444 4.625 141.564 4.685L141.811 4.7075L142.396 4.4825L142.711 4.775L142.959 4.9325H143.139L143.476 5.1125H143.656C143.851 5.2925 144.076 5.54 144.331 5.855L144.376 5.9675L144.534 6.0575L145.006 6.665L145.434 7.7225V7.9475L145.636 8.735ZM144.151 9.275L144.129 9.1625C144.024 9.0575 143.964 8.945 143.949 8.825L144.016 8.7125L143.814 8.285L143.859 7.8575L143.769 7.745C143.574 7.595 143.469 7.475 143.454 7.385C143.319 7.325 143.251 7.175 143.251 6.935L143.116 6.9125L142.846 6.4625L142.644 6.305L142.171 6.125L141.991 6.08C141.901 6.08 141.841 6.05 141.811 5.99L141.361 6.485L141.069 7.115L140.596 7.3625L140.529 7.61L140.304 7.7225L140.214 8.3075L139.944 8.4425C139.884 8.6525 139.854 8.8475 139.854 9.0275L139.494 9.365L139.606 9.4325C139.606 9.6125 139.539 9.77 139.404 9.905C139.359 10.04 139.299 10.19 139.224 10.355V10.535L139.156 10.625L139.179 10.895L138.931 11.5025L138.976 11.615V12.245L138.886 12.56L138.909 12.875L139.111 13.1675L139.426 13.28L139.539 13.325L139.719 13.235L140.304 13.28L140.394 13.055H140.484C140.574 13.055 140.626 13.0775 140.641 13.1225L140.844 13.055L141.024 13.1225L141.316 12.92L141.361 12.8525L141.564 12.8075C141.669 12.6425 141.916 12.4775 142.306 12.3125L142.351 12.2L142.801 11.885L143.049 11.525L143.409 11.345L143.431 11.2325L143.544 10.985V10.6925L143.814 10.4675L143.904 10.31L144.016 10.175C143.956 9.995 143.926 9.8675 143.926 9.7925C143.926 9.6575 143.971 9.515 144.061 9.365L144.151 9.275ZM149.191 10.2875L149.146 10.6925L148.966 11.03C149.116 11.225 149.168 11.45 149.123 11.705L149.686 12.2675C149.731 12.4625 149.738 12.6125 149.708 12.7175L149.663 12.7625L150.586 12.8075C150.676 12.8225 150.766 12.815 150.856 12.785C150.961 12.755 151.051 12.695 151.126 12.605L151.621 12.83L152.048 12.7625L152.251 12.695L152.903 12.245L153.106 12.29L153.353 12.0875L153.646 11.9975L153.668 11.7725L154.186 11.435L154.478 11.075L154.636 11.03L154.568 10.8725L154.883 10.1975V9.9725L155.018 9.275L155.063 9.23L155.018 9.0725C154.943 9.0275 154.883 8.9675 154.838 8.8925C154.793 8.8025 154.756 8.7125 154.726 8.6225C154.711 8.5325 154.696 8.4575 154.681 8.3975C154.681 8.3375 154.673 8.3075 154.658 8.3075C154.613 8.3225 154.553 8.2925 154.478 8.2175C154.418 8.1425 154.343 8.0525 154.253 7.9475C154.163 7.8425 154.058 7.745 153.938 7.655C153.833 7.55 153.713 7.475 153.578 7.43C153.488 7.415 153.376 7.4 153.241 7.385C153.121 7.355 152.986 7.325 152.836 7.295L152.701 7.34L152.318 7.3175L152.026 7.5425L151.823 7.4975L151.598 7.655L150.991 8.06C150.946 8.09 150.886 8.165 150.811 8.285C150.736 8.405 150.638 8.48 150.518 8.51C150.428 8.63 150.331 8.765 150.226 8.915C150.136 9.065 150.038 9.125 149.933 9.095L149.641 9.59L149.506 9.9275L149.191 10.2875ZM153.893 2.12L153.668 2.1425L153.398 2.345L153.106 2.5025C153.031 2.5775 152.963 2.6225 152.903 2.6375C152.843 2.6525 152.753 2.7275 152.633 2.8625C152.243 3.0575 151.996 3.32 151.891 3.65L151.306 3.965L151.261 4.415L150.856 4.3925L150.316 5.27C150.196 5.405 150.136 5.48 150.136 5.495L150.046 5.675L149.528 6.62L149.416 6.755L149.281 7.385L149.101 7.565L149.078 7.9025L148.943 8.3075L148.921 8.6L149.168 8.33L149.618 7.925L149.843 7.5425L150.316 7.295L150.518 6.89L151.058 6.5525L151.666 6.125L152.408 5.99L152.543 5.8775L153.151 5.9675L154.073 5.8325L155.176 6.4625L155.761 7.205L155.851 7.2275C155.941 7.2725 156.008 7.3475 156.053 7.4525C156.098 7.5425 156.128 7.6475 156.143 7.7675C156.173 7.8875 156.196 8.0075 156.211 8.1275C156.241 8.2475 156.278 8.345 156.323 8.42L156.278 8.6225L156.571 9.0725C156.601 9.1925 156.608 9.395 156.593 9.68C156.593 9.95 156.571 10.145 156.526 10.265C156.496 10.31 156.466 10.3625 156.436 10.4225C156.406 10.4675 156.368 10.5275 156.323 10.6025L156.278 10.985L155.918 11.48L155.828 11.795L155.558 12.0425L155.333 12.5375L154.973 12.74L154.703 13.0325L154.388 13.1225L154.186 13.415H153.916C153.841 13.505 153.751 13.58 153.646 13.64C153.541 13.7 153.443 13.7525 153.353 13.7975C153.338 13.8125 153.278 13.835 153.173 13.865C153.083 13.88 152.971 13.9175 152.836 13.9775L152.341 14.27L152.071 14.18C151.846 14.36 151.583 14.42 151.283 14.36L151.216 14.495L150.451 14.36L150.406 14.3825C150.361 14.4125 150.301 14.4425 150.226 14.4725C150.166 14.5025 150.091 14.5475 150.001 14.6075L149.641 14.36L148.966 14.135L148.898 14.2025L148.471 14.1575L148.088 13.55L147.593 12.8075L147.436 11.8625L147.211 11.165L147.256 10.8275L147.053 10.49L147.256 10.22L147.188 10.0625L147.233 9.7925L147.143 9.41C147.158 9.35 147.196 9.29 147.256 9.23C147.316 9.17 147.346 9.125 147.346 9.095C147.241 8.9 147.233 8.675 147.323 8.42L147.368 7.97L147.481 7.8125L147.548 7.52V7.2725L147.683 7.07L147.863 6.215L148.201 5.675L148.223 5.585C148.268 5.465 148.321 5.3675 148.381 5.2925C148.456 5.2175 148.538 5.1425 148.628 5.0675L148.741 4.955L148.763 4.6625C149.003 4.5425 149.168 4.3625 149.258 4.1225C149.258 4.0925 149.258 4.055 149.258 4.01C149.258 3.965 149.273 3.905 149.303 3.83H149.528L149.933 3.335L150.113 2.84L150.248 2.9075L150.563 2.7725L150.811 2.4125L151.126 2.345L151.238 2.03L151.463 1.985L151.441 1.7825L151.756 1.6025L151.846 1.6475L151.891 1.5125L152.206 1.4225C152.326 1.3475 152.431 1.3025 152.521 1.2875C152.626 1.2575 152.723 1.22 152.813 1.175L153.106 1.0175L153.421 0.724999L153.848 0.77L154.051 0.544999L155.176 0.275L155.603 0.365C155.768 0.409999 155.881 0.469999 155.941 0.544999C156.166 0.814999 156.173 1.0625 155.963 1.2875C155.873 1.3625 155.776 1.415 155.671 1.445C155.581 1.46 155.453 1.46 155.288 1.445L155.041 1.625L154.703 1.67L154.546 1.7375L154.028 1.94L153.893 2.12ZM167.201 4.8875L166.976 5.18L167.156 5.72L166.863 6.0575L166.751 6.53L166.683 6.6425L166.728 6.755C166.728 6.965 166.676 7.1225 166.571 7.2275L166.526 7.295V7.385C166.571 7.49 166.593 7.5875 166.593 7.6775C166.593 7.7525 166.586 7.805 166.571 7.835L166.593 7.925L166.503 8.1725L166.571 8.4425L166.391 8.6225L166.458 8.9375L166.593 9.095L166.391 9.275V9.635L166.233 9.995L166.346 10.355L166.211 10.535L166.436 10.6925L166.121 11.21L166.098 11.2775L166.323 11.3225L166.166 11.84V11.93C166.166 12.035 166.158 12.1175 166.143 12.1775L166.166 12.245L166.526 12.29L166.818 12.74L166.661 13.0775L166.908 13.055C166.998 13.235 167.051 13.3925 167.066 13.5275L166.728 13.865C166.623 13.97 166.473 14.075 166.278 14.18L165.896 14.3825L165.783 14.27L165.558 14.405L164.861 13.595V13.2125C164.771 12.9125 164.726 12.635 164.726 12.38V12.245L164.591 10.9175L164.771 9.9725L164.636 9.4325L164.253 10.0625L164.051 10.6475L163.871 10.7375L163.556 11.2325L162.993 11.75L162.836 12.02L162.341 12.4475L162.228 12.74L161.508 13.19L160.743 14.045L160.316 14.135L160.023 14.36C159.648 14.345 159.363 14.2025 159.168 13.9325C158.493 13.6025 158.141 13.13 158.111 12.515L158.223 12.4475L158.201 12.3125L158.178 12.0425L158.043 11.75L158.178 11.435L158.223 10.9625L158.381 10.22C158.381 10.205 158.381 10.175 158.381 10.13C158.366 10.1 158.358 10.07 158.358 10.04C158.358 9.98 158.373 9.905 158.403 9.815C158.388 9.785 158.381 9.725 158.381 9.635C158.381 9.53 158.426 9.3575 158.516 9.1175L158.673 9.05C158.583 8.975 158.538 8.8925 158.538 8.8025C158.538 8.7425 158.546 8.6975 158.561 8.6675C158.546 8.6225 158.538 8.57 158.538 8.51C158.538 8.33 158.628 8.195 158.808 8.105C158.853 7.955 158.936 7.805 159.056 7.655L158.943 7.475L159.213 7.1375V7.0475C159.213 6.7625 159.311 6.5 159.506 6.26L159.483 5.855L159.573 5.765C159.573 5.75 159.573 5.7275 159.573 5.6975C159.558 5.6675 159.551 5.645 159.551 5.63C159.551 5.54 159.581 5.465 159.641 5.405V5.27C159.701 5.12 159.858 4.895 160.113 4.595C160.368 4.295 160.556 4.0325 160.676 3.8075L160.788 3.92L161.036 3.8075L161.148 3.7625L161.891 3.425L163.623 3.515V3.6725L164.163 3.785C164.508 3.785 164.733 3.8975 164.838 4.1225C164.838 4.0775 164.846 4.025 164.861 3.965C164.861 3.92 164.861 3.89 164.861 3.875L165.333 4.3025L165.761 4.3925L166.571 4.19L166.863 4.7525L167.201 4.8875ZM165.063 6.0575L164.973 5.9L164.793 5.855L164.096 5.2925L163.646 5.225H163.286L163.241 5.18L163.061 5.2475L162.858 5.135H162.273L162.341 5.225L161.823 5.405L161.733 5.5175L161.666 5.54C161.396 5.765 161.208 5.9525 161.103 6.1025L160.946 6.6425L160.856 6.845L161.081 7.16L160.698 7.4525L160.743 7.5425C160.578 7.8275 160.496 8.105 160.496 8.375L160.316 8.6V9.005L160.136 9.2075L160.091 9.41L160.023 9.455V9.77L159.956 9.8825C159.956 10.0625 159.941 10.205 159.911 10.31L159.956 10.4225L159.753 10.85L159.843 10.985L159.686 11.21L159.843 11.6375L159.596 11.9525L159.641 12.38V12.4475L159.731 12.4925L159.843 12.47C159.918 12.395 159.993 12.3275 160.068 12.2675L160.023 12.0875L160.338 12.0425L160.406 11.885L161.733 10.805L161.868 10.76L162.026 10.3775C162.116 10.3475 162.243 10.2875 162.408 10.1975L162.543 9.8375H162.723L162.656 9.455L162.971 9.41C163.001 9.35 163.046 9.275 163.106 9.185C163.181 9.095 163.256 9.0125 163.331 8.9375L164.478 7.4075L164.658 7.07L164.636 6.98L164.793 6.7325L164.838 6.485L165.041 6.305L165.063 6.0575ZM173.161 11.795L173.206 12.0425L173.048 12.38L173.071 12.4925L173.138 12.515L173.183 12.83L173.633 12.8975L174.083 12.74L174.488 12.7175C174.578 12.7775 174.638 12.815 174.668 12.83C174.713 12.83 174.766 12.8225 174.826 12.8075L175.186 12.6275L175.748 12.65L176.333 12.47L176.828 12.2675L177.121 12.29L177.391 12.065L177.638 12.02C177.728 12.02 177.833 12.0125 177.953 11.9975C178.073 11.9675 178.193 11.9375 178.313 11.9075C178.433 11.8775 178.546 11.84 178.651 11.795C178.756 11.735 178.838 11.6675 178.898 11.5925L179.078 11.3675L179.528 11.2325L179.663 10.985L179.776 10.8725L179.708 10.8275L179.371 10.7825L179.303 10.67H179.191L178.718 10.4675L178.336 10.5125L178.156 10.355L177.728 10.4C177.638 10.31 177.548 10.2575 177.458 10.2425C177.338 10.3175 177.226 10.355 177.121 10.355C177.046 10.34 176.933 10.295 176.783 10.22C176.663 10.22 176.573 10.22 176.513 10.22C176.468 10.205 176.378 10.19 176.243 10.175L175.996 10.1525C175.876 10.1225 175.771 10.1225 175.681 10.1525C175.606 10.1825 175.523 10.1975 175.433 10.1975C175.388 10.1975 175.328 10.19 175.253 10.175C175.193 10.145 175.126 10.1375 175.051 10.1525L174.601 10.1975L174.286 9.9725L174.263 10.1075L173.588 10.085L173.363 9.995C173.123 9.995 173.003 10.1075 173.003 10.3325V10.5575V10.7375L173.116 10.805L173.003 11.12L173.048 11.255L173.003 11.5475L173.161 11.795ZM181.643 11.2775L181.283 11.5925L181.193 11.8625L180.946 11.9075L180.676 12.3125L180.203 12.4025L179.798 12.695L179.641 12.7625L179.326 13.1L178.808 13.055L178.583 13.235L178.291 13.19C178.156 13.28 178.043 13.3625 177.953 13.4375C177.863 13.5125 177.728 13.565 177.548 13.595L177.391 13.505L176.806 13.9325L176.581 13.82L176.423 13.91L176.063 13.82L175.928 13.91L175.546 13.955L175.253 13.8875L174.893 14.2025L174.466 14.1575V14.18C174.451 14.195 174.368 14.225 174.218 14.27L174.106 14.135C173.911 14.285 173.686 14.36 173.431 14.36H173.318C173.273 14.345 173.236 14.3375 173.206 14.3375L172.868 14.6975L172.486 14.81L172.148 14.63L171.901 14.4275L171.721 14.225L171.586 14.1125C171.586 14.0825 171.586 14.03 171.586 13.955C171.586 13.88 171.518 13.67 171.383 13.325L171.406 12.9425L171.361 12.4925L171.473 12.155L171.406 11.705L171.563 11.39L171.473 11.12L171.541 10.67L171.383 10.175L171.361 10.1075C170.911 9.8675 170.656 9.65 170.596 9.455C170.626 9.29 170.693 9.185 170.798 9.14C170.903 9.08 171.038 8.9975 171.203 8.8925L171.428 8.7575L171.293 8.375L171.451 8.3075L171.361 7.9925L171.428 7.7L171.316 7.385L171.361 7.2275L171.338 6.9575L171.091 6.4625L171.136 6.26L171.023 6.17L171.068 5.9L170.956 5.7425L170.821 5.45L170.798 5.4275L170.573 5.6075L170.348 5.4725L170.123 5.6075L170.056 5.5175L169.696 5.7425L169.493 5.4275L169.088 5.675C168.398 5.285 168.053 4.9325 168.053 4.6175C168.053 4.3475 168.196 4.19 168.481 4.145C168.631 3.92 168.833 3.8075 169.088 3.8075H169.156L169.381 3.8975H169.426C169.726 3.8975 169.988 3.905 170.213 3.92C170.438 3.92 170.618 3.935 170.753 3.965C170.873 3.935 170.978 3.92 171.068 3.92C171.173 3.905 171.271 3.8975 171.361 3.8975L171.473 3.965L171.608 3.92L172.193 4.145L172.711 4.28C172.756 4.265 172.861 4.2575 173.026 4.2575C173.116 4.2575 173.191 4.265 173.251 4.28C173.311 4.28 173.363 4.2875 173.408 4.3025L173.633 4.2575C173.828 4.2725 174.016 4.3325 174.196 4.4375L174.353 4.5275C174.593 4.5875 174.781 4.6175 174.916 4.6175L175.411 4.5275L175.501 4.64C175.681 4.64 175.838 4.715 175.973 4.865H176.581L176.828 5.1125C176.918 5.1425 177.001 5.165 177.076 5.18C177.151 5.195 177.218 5.2025 177.278 5.2025L177.683 5.3375L177.863 5.495H178.336L178.448 5.7875L178.876 6.0575L179.033 6.6875L178.696 7.295C178.531 7.46 178.381 7.5875 178.246 7.6775C178.111 7.7675 177.961 7.835 177.796 7.88L177.458 8.0825L177.301 8.0375L176.896 8.375H176.648L176.063 8.6225L175.658 8.6675C175.508 8.7275 175.388 8.78 175.298 8.825C175.223 8.855 175.141 8.885 175.051 8.915C174.976 8.945 174.886 8.975 174.781 9.005C174.691 9.035 174.556 9.08 174.376 9.14V9.185C174.406 9.185 174.488 9.1775 174.623 9.1625C174.758 9.1475 174.901 9.1325 175.051 9.1175C175.216 9.1025 175.366 9.0875 175.501 9.0725C175.636 9.0575 175.726 9.05 175.771 9.05C175.936 9.02 176.108 8.99 176.288 8.96C176.468 8.93 176.588 8.9525 176.648 9.0275C176.768 8.9675 176.873 8.9375 176.963 8.9375C177.218 9.0125 177.376 9.05 177.436 9.05C177.496 9.05 177.556 9.05 177.616 9.05C177.676 9.05 177.751 9.035 177.841 9.005C177.931 9.05 178.058 9.08 178.223 9.095C178.388 9.095 178.598 9.095 178.853 9.095L179.033 9.2075C179.213 9.2375 179.378 9.26 179.528 9.275C179.678 9.275 179.813 9.305 179.933 9.365H180.271C180.346 9.44 180.458 9.4925 180.608 9.5225C180.773 9.5525 180.901 9.605 180.991 9.68C181.036 9.71 181.096 9.755 181.171 9.815C181.261 9.86 181.366 9.9425 181.486 10.0625C181.696 10.2425 181.801 10.43 181.801 10.625L181.778 10.8725L181.643 11.2775ZM177.301 6.5075H177.076L176.873 6.395L176.581 6.3275L176.356 6.485L175.928 6.17L175.591 6.08L175.456 6.1475L175.276 5.945H175.186C175.036 5.945 174.803 5.9225 174.488 5.8775L174.016 5.945L173.768 5.72L173.543 5.765L173.476 5.7425L173.341 5.8325L172.958 5.6975L172.868 5.7425V6.2375L173.003 6.62L172.891 6.935L173.003 7.1825L172.981 7.61L173.093 7.9475L172.958 8.285L173.026 8.51L173.341 8.4875C173.371 8.4725 173.416 8.4575 173.476 8.4425C173.536 8.4125 173.596 8.36 173.656 8.285L173.746 8.24L173.881 8.33L173.948 8.1725L174.511 7.88C174.721 7.82 174.863 7.7825 174.938 7.7675C175.028 7.7525 175.103 7.7075 175.163 7.6325L175.478 7.5425L175.591 7.52C175.786 7.4 176.011 7.325 176.266 7.295L176.356 7.2275C176.386 7.2275 176.446 7.1975 176.536 7.1375L176.873 6.9575H176.918C176.993 6.8975 177.068 6.845 177.143 6.8C177.233 6.74 177.331 6.695 177.436 6.665L177.301 6.5075ZM185.306 11.75L185.351 12.02L185.441 12.5825L185.486 12.8525L185.554 12.92L185.869 13.01H186.161L186.656 12.92H187.286L187.984 12.875L188.209 12.5375L188.411 12.65L188.591 12.47L188.794 12.3575L189.109 12.2675L189.176 12.245L189.266 11.93L189.626 11.84L189.919 11.6825L190.166 11.3L190.526 11.03L190.661 10.6475L190.886 10.445L190.976 10.1975L190.864 9.6125L190.796 9.5675L190.549 9.23L190.144 9.0725C190.159 9.0725 190.136 9.0275 190.076 8.9375C190.031 8.8325 189.979 8.795 189.919 8.825L189.649 8.7575L189.221 8.51L189.041 8.5775H188.861C188.756 8.6375 188.644 8.6675 188.524 8.6675C188.494 8.6675 188.456 8.645 188.411 8.6C188.381 8.555 188.344 8.5175 188.299 8.4875C188.254 8.5025 188.171 8.525 188.051 8.555C187.931 8.585 187.781 8.6 187.601 8.6C187.541 8.585 187.459 8.585 187.354 8.6C187.249 8.6 187.189 8.6 187.174 8.6C187.114 8.645 187.069 8.6675 187.039 8.6675C187.024 8.6675 186.979 8.6675 186.904 8.6675C186.844 8.6675 186.769 8.7125 186.679 8.8025C186.604 8.8775 186.544 8.9225 186.499 8.9375L186.026 8.825L185.554 8.9375L185.486 9.6125L185.441 10.355L185.419 10.715L185.621 11.435L185.306 11.75ZM183.934 7.43C183.949 7.385 183.956 7.265 183.956 7.07C183.956 6.89 183.941 6.725 183.911 6.575L183.956 6.4175L183.776 6.215C183.791 6.125 183.844 6.05 183.934 5.99L183.821 5.8325C183.866 5.7425 183.889 5.6525 183.889 5.5625C183.889 5.4425 183.836 5.3075 183.731 5.1575C183.731 5.0375 183.754 4.9175 183.799 4.7975L183.709 4.5725L183.821 4.325L183.461 3.56L183.821 3.4925V3.4475L184.609 3.0425L185.014 3.515L185.059 3.74L185.396 3.9875L185.374 4.325C185.374 4.385 185.366 4.46 185.351 4.55C185.351 4.625 185.344 4.715 185.329 4.82C185.434 4.925 185.486 5.0225 185.486 5.1125C185.486 5.1275 185.471 5.18 185.441 5.27L185.531 5.36L185.441 5.72L185.599 6.125L185.576 6.2825L185.869 6.4175L185.711 6.71L185.576 6.845L185.486 7.25L185.554 7.5875L186.116 7.385L186.679 7.43L186.836 7.07L187.466 7.205L188.051 7.2275L188.209 7.16L188.569 7.34L188.659 7.295L189.086 7.0475L189.694 7.16L189.964 7.1825L190.706 7.3625L190.841 7.34C190.961 7.415 191.081 7.49 191.201 7.565C191.336 7.64 191.464 7.7375 191.584 7.8575L191.989 7.9025L192.146 8.375L192.236 8.42L192.484 8.78L192.619 9.1625L192.776 9.32L192.731 9.815L192.776 10.0175C192.746 10.1525 192.694 10.295 192.619 10.445C192.544 10.595 192.514 10.76 192.529 10.94L192.326 10.7825L192.349 10.94L192.236 11.12L192.281 11.615L191.809 11.39L191.741 11.66L191.629 11.795C191.599 11.87 191.569 11.945 191.539 12.02C191.509 12.08 191.471 12.1325 191.426 12.1775L191.494 12.335L191.066 12.47L191.044 12.5375L190.706 12.9425L190.481 13.3475L190.301 13.4825L190.121 13.775L189.559 13.6175L189.469 13.7525C189.424 13.7675 189.349 13.775 189.244 13.775C189.139 13.775 189.056 13.775 188.996 13.775L188.681 14.09L188.614 14.315C188.524 14.345 188.434 14.405 188.344 14.495C188.254 14.6 188.156 14.6525 188.051 14.6525L187.669 14.5175L187.061 14.3375L186.634 14.585L186.544 14.63L186.184 14.6075L186.251 14.5625L185.644 14.6525L185.216 14.72L185.036 14.5175L184.631 14.5625C184.256 14.4875 184.001 14.2775 183.866 13.9325L183.844 13.775L183.731 13.595V13.19L183.596 12.965L183.776 12.695C183.731 12.545 183.709 12.4025 183.709 12.2675C183.709 12.2225 183.716 12.1925 183.731 12.1775V11.39L183.821 11.165L183.844 9.8375L183.911 9.5225L183.799 9.3875L184.001 8.78L183.934 8.555V8.06L184.046 7.925L184.024 7.61L183.934 7.43ZM206.549 4.775L206.076 5.9225L205.851 5.99H205.491L205.154 6.035L204.906 5.99L203.714 6.08L203.354 5.99L203.286 6.0125C203.166 6.0725 202.949 6.125 202.634 6.17H202.184L202.049 6.125H201.981C201.831 6.125 201.644 6.155 201.419 6.215C201.239 6.26 201.006 6.2825 200.721 6.2825L200.406 6.215L200.361 6.44H200.136L200.069 7.0925L200.159 7.25L200.136 7.5425V8.0375C200.136 8.5475 200.084 8.8925 199.979 9.0725L200.136 9.2975L200.001 9.8375L200.136 9.995L199.911 10.31V10.4675L199.799 10.67L199.889 11.0975L199.821 11.885L199.709 12.245C199.724 12.26 199.731 12.2975 199.731 12.3575C199.731 12.3275 199.709 12.41 199.664 12.605C199.664 12.62 199.671 12.6425 199.686 12.6725V12.7625C199.686 12.8975 199.641 13.0325 199.551 13.1675L199.619 13.4375C199.619 13.5425 199.611 13.6025 199.596 13.6175L199.574 13.6625C199.559 13.7075 199.544 13.7525 199.529 13.7975C199.529 13.8275 199.529 13.865 199.529 13.91C199.529 14.15 199.559 14.3525 199.619 14.5175C199.469 14.5475 199.311 14.5625 199.146 14.5625C198.996 14.5775 198.906 14.585 198.876 14.585C198.786 14.585 198.696 14.57 198.606 14.54H198.561C198.231 14.45 198.066 14.1425 198.066 13.6175C198.081 13.5725 198.089 13.4825 198.089 13.3475C198.089 13.2425 198.074 13.1 198.044 12.92C198.014 12.725 197.999 12.59 197.999 12.515C197.999 12.38 198.021 12.2675 198.066 12.1775L198.134 11.39C198.029 11.24 197.976 11.1275 197.976 11.0525C197.976 11.0675 197.991 11.015 198.021 10.895C197.976 10.805 197.954 10.73 197.954 10.67C197.954 10.55 197.984 10.4675 198.044 10.4225C198.044 10.3475 198.096 10.19 198.201 9.95C198.171 9.8 198.156 9.6875 198.156 9.6125C198.246 9.6125 198.291 9.5675 198.291 9.4775C198.291 9.4475 198.276 9.41 198.246 9.365C198.231 9.32 198.224 9.26 198.224 9.185L198.269 9.2525L198.201 9.0725C198.201 8.8175 198.231 8.6075 198.291 8.4425V7.9025L198.201 7.4975L198.291 6.845L198.201 6.44L198.224 6.26H197.954L197.729 6.3725H197.594V6.44C197.309 6.44 197.046 6.4175 196.806 6.3725L196.739 6.53L195.996 6.2825L195.006 6.26L194.376 6.44C194.121 6.215 193.926 5.99 193.791 5.765C193.671 5.525 193.611 5.3525 193.611 5.2475C193.611 5.1275 193.626 5.0375 193.656 4.9775L194.084 4.595L194.444 4.6175L195.726 4.865L196.064 4.7525L197.031 4.775L197.796 4.865L198.291 4.685L198.471 4.19L199.236 4.37L199.259 4.3475L199.304 4.3925L199.574 4.73H199.641L199.911 4.64L200.474 4.775C200.759 4.73 200.976 4.6925 201.126 4.6625C201.291 4.6325 201.396 4.6175 201.441 4.6175C201.576 4.6175 201.741 4.655 201.936 4.73H202.161C202.236 4.73 202.304 4.73 202.364 4.73C202.424 4.715 202.469 4.7075 202.499 4.7075H202.634L203.286 4.6175L203.849 4.73L203.916 4.7525L204.209 4.6625L204.614 4.7525L205.559 4.73L205.986 4.775H206.549ZM213.644 12.155C213.644 12.335 213.509 12.56 213.239 12.83C213.164 13.07 213.051 13.265 212.901 13.415L212.766 13.4375L212.519 13.865L212.114 13.9325L211.686 14.2025L211.461 14.6075L211.214 14.5625C211.049 14.6375 210.914 14.6825 210.809 14.6975L210.674 14.9C210.629 14.885 210.561 14.8775 210.471 14.8775C210.276 14.8775 210.089 15.0125 209.909 15.2825L209.594 15.0125C209.534 15.0275 209.444 15.035 209.324 15.035C209.129 15.035 208.964 15.005 208.829 14.945H208.446L208.266 14.8325C207.696 14.7425 207.336 14.525 207.186 14.18V14.1125L206.916 13.9775L206.781 13.595L206.511 13.415V13.0775L206.241 12.0875L206.286 11.2775L206.376 10.9175V10.445L206.489 10.085L206.466 9.9275L206.624 9.6575L206.579 9.7025C206.579 9.5675 206.616 9.425 206.691 9.275V9.1625L206.624 8.6225C206.624 8.3675 206.736 8.1425 206.961 7.9475C206.976 7.9175 206.984 7.8725 206.984 7.8125C206.984 7.7525 206.954 7.6325 206.894 7.4525C206.849 7.2575 206.826 7.1225 206.826 7.0475C206.826 6.8675 206.871 6.68 206.961 6.485C207.081 6.665 207.254 6.755 207.479 6.755H207.546C207.576 6.695 207.644 6.6275 207.749 6.5525C207.869 6.1775 208.034 5.8625 208.244 5.6075L208.334 5.5175C208.334 5.4575 208.379 5.285 208.469 5H208.649L208.694 4.8875L208.874 4.8425C208.949 4.7225 208.994 4.655 209.009 4.64C209.039 4.61 209.204 4.5125 209.504 4.3475C209.564 4.2425 209.654 4.145 209.774 4.055C209.834 4.025 209.909 3.995 209.999 3.965L210.089 3.83C210.494 3.695 210.749 3.6275 210.854 3.6275C210.974 3.6275 211.086 3.6575 211.191 3.7175L211.304 3.695L211.461 3.785C211.641 3.92 211.821 4.0325 212.001 4.1225L212.384 4.415V4.505C212.729 4.775 212.901 5.1575 212.901 5.6525L212.834 5.8775L212.901 6.62L212.699 6.755L212.474 7.34L212.046 7.8125L212.024 8.1725C211.544 8.5175 211.101 8.795 210.696 9.005C210.561 9.215 210.351 9.32 210.066 9.32H209.999L209.571 9.59H209.211L208.671 9.815L208.266 9.6125H208.221C208.191 9.7325 208.161 9.9125 208.131 10.1525L207.951 10.2875L207.929 10.5575L207.794 10.94C207.839 11.3 207.861 11.5325 207.861 11.6375L207.771 11.705C207.771 11.9 207.764 12.0425 207.749 12.1325C207.749 12.1475 207.741 12.17 207.726 12.2C207.726 12.23 207.726 12.2525 207.726 12.2675C207.726 12.3875 207.786 12.485 207.906 12.56C207.951 12.74 208.026 12.8525 208.131 12.8975L208.289 13.0325L208.784 13.1675V13.235L208.964 13.28L209.729 13.325L210.179 13.2575L210.404 13.1L210.539 13.055L210.764 12.7175L210.876 12.695L211.439 12.515C211.499 12.41 211.596 12.32 211.731 12.245L211.799 12.1325C212.099 12.0725 212.271 11.915 212.316 11.66C212.526 11.45 212.796 11.345 213.126 11.345H213.216C213.501 11.675 213.644 11.945 213.644 12.155ZM211.416 5.675C211.416 5.63 211.394 5.54 211.349 5.405L211.236 5.3825L211.191 5.405C211.176 5.405 211.146 5.405 211.101 5.405C211.071 5.42 211.041 5.4275 211.011 5.4275C210.996 5.4275 210.974 5.42 210.944 5.405C210.914 5.405 210.891 5.405 210.876 5.405L210.651 5.5625L210.449 5.585L210.336 5.63L209.954 6.125L209.706 6.305L209.346 6.935L209.144 7.07C209.099 7.325 208.994 7.5425 208.829 7.7225L208.739 7.88C208.904 7.775 209.091 7.7225 209.301 7.7225L209.459 7.655L209.526 7.4525L209.841 7.475L210.021 7.205H210.156L210.404 7.295L210.516 6.9575H210.674V6.71L210.966 6.6425L211.034 6.575L211.079 6.3725L211.371 5.945C211.401 5.87 211.416 5.78 211.416 5.675ZM231.02 5.1575L231.11 5.2025L231.088 5.315L231.043 5.4725L230.953 5.5625L230.84 5.8775L230.638 5.9675L230.48 6.395L230.233 6.6875C230.173 6.8075 230.09 6.8975 229.985 6.9575C229.88 7.0175 229.783 7.0625 229.693 7.0925C229.678 7.1075 229.663 7.13 229.648 7.16C229.633 7.19 229.618 7.2275 229.603 7.2725C229.588 7.3025 229.573 7.3325 229.558 7.3625L229.108 7.4525C229.048 7.5575 228.973 7.6475 228.883 7.7225V7.835L228.5 7.97L228.095 8.3525L227.645 8.69C227.57 8.735 227.473 8.795 227.353 8.87C227.233 8.93 227.113 8.99 226.993 9.05C226.888 9.095 226.79 9.1325 226.7 9.1625C226.61 9.1925 226.565 9.2 226.565 9.185C226.355 9.29 226.13 9.38 225.89 9.455C225.65 9.515 225.403 9.5825 225.148 9.6575L224.428 9.7475L224.405 9.86L225.26 10.2875L226.34 10.76L226.385 10.9175L226.79 11.03L227.285 11.3225L227.87 11.6375L228.208 11.9075L228.545 11.9975L229.063 12.245L229.715 12.4475L230.188 12.4925L231.088 12.38H231.448L231.515 12.335C231.62 12.23 231.748 12.1775 231.898 12.1775L232.123 12.065V12.02L232.46 11.66L232.595 11.5475V11.4125C232.685 11.3675 232.745 11.345 232.775 11.345C232.82 11.345 232.888 11.345 232.978 11.345C233.008 11.345 233.06 11.3225 233.135 11.2775C233.21 11.2175 233.263 11.2025 233.293 11.2325L233.585 11.39L233.788 11.75L233.855 12.1775L233.653 12.515L233.09 13.2125L232.64 13.55L232.078 13.8425L231.493 14.045L230.953 14.1575L230.795 14.1125L230.548 14.18L230.188 14.135L229.76 14.2025L229.648 14.135L229.58 14.1575L229.265 14.1125H228.815L228.523 13.8425L228.05 13.7525L227.96 13.6175L227.803 13.6625L227.375 13.28L226.97 13.145L226.768 12.8975H226.138L226.003 12.65H225.823L225.71 12.47L225.395 12.3575L225.35 12.38L224.99 11.9975L224.675 11.7725L224.315 11.435L223.955 11.21C223.88 11.15 223.783 11.0825 223.663 11.0075C223.558 10.9325 223.423 10.8425 223.258 10.7375C223.198 10.6175 223.123 10.535 223.033 10.49L223.123 11.0525L223.213 11.075L223.28 11.255L223.1 11.9975C223.16 12.0725 223.213 12.2225 223.258 12.4475L223.123 12.65L223.1 12.8975L223.078 13.3025L222.92 13.64L222.853 14.045L222.538 14.54L222.043 15.305C221.518 15.305 221.225 15.125 221.165 14.765L221.323 14.2925L221.413 13.955L221.435 13.91L221.48 13.7975C221.465 13.7675 221.435 13.7225 221.39 13.6625C221.36 13.5875 221.345 13.5275 221.345 13.4825C221.345 13.3925 221.375 13.31 221.435 13.235L221.345 13.145L221.683 12.7625L221.503 12.47L221.593 12.2675C221.518 12.1175 221.48 12.0125 221.48 11.9525C221.48 11.8625 221.51 11.75 221.57 11.615L221.615 11.5025C221.6 11.3525 221.585 11.2325 221.57 11.1425C221.57 11.0375 221.57 10.9625 221.57 10.9175C221.51 10.8425 221.48 10.7075 221.48 10.5125L221.548 10.445L221.413 10.1075L221.593 9.95L221.548 9.905V9.41L221.435 8.8025L221.615 8.69C221.6 8.645 221.593 8.54 221.593 8.375V8.06H221.548L221.435 6.89C221.45 6.845 221.525 6.755 221.66 6.62C221.66 6.5 221.668 6.425 221.683 6.395L221.728 6.26L221.75 6.1475C221.63 5.9075 221.57 5.6975 221.57 5.5175C221.57 5.2475 221.668 4.97 221.863 4.685C222.028 4.64 222.163 4.61 222.268 4.595C222.388 4.58 222.478 4.5725 222.538 4.5725C222.643 4.5725 222.733 4.5875 222.808 4.6175C222.898 4.6325 223.01 4.67 223.145 4.73L223.663 5.2475L223.573 5.675L223.798 5.8775L223.663 6.125L223.753 6.395L223.46 6.7775L223.595 7.295L223.415 7.7675L223.258 8.6225L223.55 8.6L223.685 8.51L224.158 8.375L224.405 8.33L224.945 8.1725V8.105L225.283 8.015C225.403 7.895 225.575 7.8125 225.8 7.7675L225.778 7.745C225.778 7.67 225.958 7.6175 226.318 7.5875L226.79 7.385L226.97 7.115L227.24 7.0025L227.285 6.7775H227.465V6.71L227.78 6.6425L227.983 6.305H228.163C228.193 6.185 228.245 6.1175 228.32 6.1025C228.395 6.0725 228.493 6.035 228.613 5.99L228.725 5.8325L228.77 5.6075L229.108 5.5175C229.198 5.2775 229.318 5.105 229.468 5L229.58 5.1125L229.693 4.73H229.963C230.008 4.325 230.255 4.1225 230.705 4.1225C230.72 4.1225 230.87 4.31 231.155 4.685L231.02 5.1575ZM242.7 8.735L242.565 9.14C242.565 9.53 242.542 9.8375 242.497 10.0625L242.362 10.2875V10.535L242.25 10.6925L242.182 11.0075L241.935 11.255L241.777 11.8175L241.597 11.885L241.507 12.1325L241.237 12.29L241.057 12.6725L240.787 12.8075L240.765 13.0775L240.337 13.235C240.142 13.505 239.902 13.6775 239.617 13.7525L239.527 13.775C239.317 14.09 239.04 14.2475 238.695 14.2475C238.545 14.3375 238.372 14.3825 238.177 14.3825L237.952 14.54L237.727 14.6075L237.435 14.8325L237.142 14.81L236.827 14.9L236.445 14.7425L235.477 14.675L235.14 14.1575L234.645 13.64L234.757 13.28L234.42 12.515L234.577 12.2225L234.465 11.6825L234.577 11.345C234.547 11.135 234.532 10.985 234.532 10.895C234.532 10.61 234.607 10.4 234.757 10.265C234.772 10.115 234.87 9.8675 235.05 9.5225H235.162L235.117 9.365L235.185 9.05V8.7125C235.305 8.5775 235.372 8.4875 235.387 8.4425L235.32 8.1275V8.0375C235.425 7.8275 235.477 7.61 235.477 7.385L235.95 6.7325C235.95 6.7325 235.965 6.7175 235.995 6.6875C236.04 6.6575 236.077 6.6275 236.107 6.5975L236.085 6.5075H236.175L236.512 6.125L236.535 5.6075L237.097 5.405C237.307 5.27 237.442 5.045 237.502 4.73H237.795C237.96 4.64 238.11 4.595 238.245 4.595C238.38 4.595 238.507 4.625 238.627 4.685L238.875 4.7075L239.46 4.4825L239.775 4.775L240.022 4.9325H240.202L240.54 5.1125H240.72C240.915 5.2925 241.14 5.54 241.395 5.855L241.44 5.9675L241.597 6.0575L242.07 6.665L242.497 7.7225V7.9475L242.7 8.735ZM241.215 9.275L241.192 9.1625C241.087 9.0575 241.027 8.945 241.012 8.825L241.08 8.7125L240.877 8.285L240.922 7.8575L240.832 7.745C240.637 7.595 240.532 7.475 240.517 7.385C240.382 7.325 240.315 7.175 240.315 6.935L240.18 6.9125L239.91 6.4625L239.707 6.305L239.235 6.125L239.055 6.08C238.965 6.08 238.905 6.05 238.875 5.99L238.425 6.485L238.132 7.115L237.66 7.3625L237.592 7.61L237.367 7.7225L237.277 8.3075L237.007 8.4425C236.947 8.6525 236.917 8.8475 236.917 9.0275L236.557 9.365L236.67 9.4325C236.67 9.6125 236.602 9.77 236.467 9.905C236.422 10.04 236.362 10.19 236.287 10.355V10.535L236.22 10.625L236.242 10.895L235.995 11.5025L236.04 11.615V12.245L235.95 12.56L235.972 12.875L236.175 13.1675L236.49 13.28L236.602 13.325L236.782 13.235L237.367 13.28L237.457 13.055H237.547C237.637 13.055 237.69 13.0775 237.705 13.1225L237.907 13.055L238.087 13.1225L238.38 12.92L238.425 12.8525L238.627 12.8075C238.732 12.6425 238.98 12.4775 239.37 12.3125L239.415 12.2L239.865 11.885L240.112 11.525L240.472 11.345L240.495 11.2325L240.607 10.985V10.6925L240.877 10.4675L240.967 10.31L241.08 10.175C241.02 9.995 240.99 9.8675 240.99 9.7925C240.99 9.6575 241.035 9.515 241.125 9.365L241.215 9.275ZM258.855 7.5425L258.607 7.7225L258.81 8.1275L258.045 8.5775H257.955C257.88 8.5775 257.797 8.555 257.707 8.51L257.46 8.69L257.122 8.6675L256.74 8.9375L256.402 8.7575L255.952 8.87L255.525 9.095C255.525 9.08 255.495 9.0725 255.435 9.0725C255.345 9.0725 255.285 9.1025 255.255 9.1625L255.075 9.6575C255.15 9.7325 255.187 9.8075 255.187 9.8825C255.187 9.9875 255.157 10.0775 255.097 10.1525L255.052 10.31L255.142 10.3325C255.142 10.4375 255.12 10.5425 255.075 10.6475C255.045 10.7375 255.007 10.82 254.962 10.895C255.007 10.985 255.037 11.0675 255.052 11.1425C255.082 11.2025 255.112 11.255 255.142 11.3L254.94 11.435L254.962 12.11L254.782 13.0775L254.76 13.28C254.775 13.355 254.782 13.415 254.782 13.46C254.797 13.505 254.805 13.5425 254.805 13.5725V13.6625L254.895 13.8425L254.917 14.18C254.902 14.21 254.887 14.2475 254.872 14.2925C254.857 14.3375 254.835 14.3975 254.805 14.4725C254.79 14.6825 254.685 14.84 254.49 14.945C254.295 15.065 254.025 15.1325 253.68 15.1475L253.635 14.72L253.477 14.495L253.365 14.1575V13.505L253.207 13.1L253.252 13.0775L253.207 12.785V12.3125L253.252 11.5925L253.23 10.94L253.365 10.5575V10.13C253.365 10.055 253.38 9.965 253.41 9.86C253.44 9.74 253.455 9.6425 253.455 9.5675C253.455 9.4625 253.417 9.35 253.342 9.23L253.297 9.1625L253.23 9.2075L252.96 9.14C252.84 9.17 252.72 9.1925 252.6 9.2075C252.495 9.2225 252.382 9.23 252.262 9.23C252.187 9.23 252.12 9.23 252.06 9.23C252 9.23 251.955 9.2225 251.925 9.2075L251.632 9.455L251.025 9.365C250.905 9.35 250.8 9.3425 250.71 9.3425C250.62 9.3275 250.552 9.32 250.507 9.32C250.297 9.32 250.05 9.365 249.765 9.455H249.675L249.18 9.635L248.865 9.4325L248.347 9.5225L248.302 9.4775L248.212 9.5225L247.807 9.5L247.762 9.6575L247.177 9.455L246.66 9.5V10.22L246.615 10.6475L246.705 11.0075L246.547 11.3L246.682 11.5475L246.547 12.3575L246.637 12.605L246.592 13.055L246.795 13.415L246.682 13.595L246.727 13.82C246.697 14.09 246.525 14.225 246.21 14.225C245.94 14.225 245.715 14.1125 245.535 13.8875C245.355 13.6475 245.265 13.3025 245.265 12.8525L244.972 12.515L244.86 12.29C244.86 12.215 244.875 12.1475 244.905 12.0875C244.935 12.0125 244.965 11.945 244.995 11.885L245.04 11.57L244.972 11.39L244.86 9.9275V9.68L244.837 9.6125L244.297 9.23L244.365 8.3525L244.95 7.9925C244.98 7.8875 245.002 7.775 245.017 7.655C245.032 7.535 245.04 7.4 245.04 7.25C245.04 7.1 245.032 6.98 245.017 6.89C245.002 6.8 244.98 6.695 244.95 6.575L245.062 6.6425L245.04 6.3725L245.175 5.99L245.04 5.3375V4.91L245.197 4.2575L246.097 3.8525L246.48 4.1225L246.907 4.2575L246.975 4.6625L247.155 4.91L246.975 5.45C247.005 5.555 247.02 5.66 247.02 5.765C247.035 5.855 247.042 5.96 247.042 6.08C247.042 6.26 247.035 6.44 247.02 6.62C247.005 6.785 246.967 6.95 246.907 7.115L247.087 7.4075L246.885 7.655V7.88L247.065 7.9475L247.56 7.88L247.897 7.925L248.46 7.8575L248.505 7.925C248.535 7.91 248.587 7.9025 248.662 7.9025C248.752 7.9025 248.812 7.9025 248.842 7.9025C248.887 7.9025 248.97 7.9175 249.09 7.9475H249.135H249.427C249.442 7.9475 249.532 7.9475 249.697 7.9475C249.862 7.9325 250.05 7.925 250.26 7.925L250.575 7.7225L250.912 7.9025L251.205 7.925L251.295 7.9475C251.445 7.9175 251.535 7.9025 251.565 7.9025H251.677L253.072 7.7L253.365 7.7225L253.477 7.655L253.365 7.34L253.477 7.07L253.342 6.3725L253.477 6.125L253.117 5.225L253.072 5.09L252.982 5C252.997 4.985 253.005 4.97 253.005 4.955C253.02 4.925 253.042 4.88 253.072 4.82C253.072 4.805 253.072 4.7975 253.072 4.7975C253.087 4.7975 253.095 4.79 253.095 4.775L253.117 4.7525V4.685C253.117 4.595 253.222 4.4975 253.432 4.3925L253.635 3.875L254.332 3.965L254.557 4.1L255.165 3.9875V4.2575L255.412 4.19V5.0675L255.3 5.225L255.457 5.6075V5.8325L255.547 6.1475L255.412 6.485L255.457 6.7325L255.345 7.52V7.655L255.772 7.6325L256.582 7.475L256.987 7.4975L257.235 7.475H257.685C257.73 7.445 257.782 7.43 257.842 7.43C257.902 7.415 257.962 7.4075 258.022 7.4075C258.067 7.4075 258.112 7.415 258.157 7.43C258.202 7.43 258.255 7.445 258.315 7.475L258.855 7.5425ZM271.28 4.775L270.807 5.9225L270.582 5.99H270.222L269.885 6.035L269.637 5.99L268.445 6.08L268.085 5.99L268.017 6.0125C267.897 6.0725 267.68 6.125 267.365 6.17H266.915L266.78 6.125H266.712C266.562 6.125 266.375 6.155 266.15 6.215C265.97 6.26 265.737 6.2825 265.452 6.2825L265.137 6.215L265.092 6.44H264.867L264.8 7.0925L264.89 7.25L264.867 7.5425V8.0375C264.867 8.5475 264.815 8.8925 264.71 9.0725L264.867 9.2975L264.732 9.8375L264.867 9.995L264.642 10.31V10.4675L264.53 10.67L264.62 11.0975L264.552 11.885L264.44 12.245C264.455 12.26 264.462 12.2975 264.462 12.3575C264.462 12.3275 264.44 12.41 264.395 12.605C264.395 12.62 264.402 12.6425 264.417 12.6725V12.7625C264.417 12.8975 264.372 13.0325 264.282 13.1675L264.35 13.4375C264.35 13.5425 264.342 13.6025 264.327 13.6175L264.305 13.6625C264.29 13.7075 264.275 13.7525 264.26 13.7975C264.26 13.8275 264.26 13.865 264.26 13.91C264.26 14.15 264.29 14.3525 264.35 14.5175C264.2 14.5475 264.042 14.5625 263.877 14.5625C263.727 14.5775 263.637 14.585 263.607 14.585C263.517 14.585 263.427 14.57 263.337 14.54H263.292C262.962 14.45 262.797 14.1425 262.797 13.6175C262.812 13.5725 262.82 13.4825 262.82 13.3475C262.82 13.2425 262.805 13.1 262.775 12.92C262.745 12.725 262.73 12.59 262.73 12.515C262.73 12.38 262.752 12.2675 262.797 12.1775L262.865 11.39C262.76 11.24 262.707 11.1275 262.707 11.0525C262.707 11.0675 262.722 11.015 262.752 10.895C262.707 10.805 262.685 10.73 262.685 10.67C262.685 10.55 262.715 10.4675 262.775 10.4225C262.775 10.3475 262.827 10.19 262.932 9.95C262.902 9.8 262.887 9.6875 262.887 9.6125C262.977 9.6125 263.022 9.5675 263.022 9.4775C263.022 9.4475 263.007 9.41 262.977 9.365C262.962 9.32 262.955 9.26 262.955 9.185L263 9.2525L262.932 9.0725C262.932 8.8175 262.962 8.6075 263.022 8.4425V7.9025L262.932 7.4975L263.022 6.845L262.932 6.44L262.955 6.26H262.685L262.46 6.3725H262.325V6.44C262.04 6.44 261.777 6.4175 261.537 6.3725L261.47 6.53L260.727 6.2825L259.737 6.26L259.107 6.44C258.852 6.215 258.657 5.99 258.522 5.765C258.402 5.525 258.342 5.3525 258.342 5.2475C258.342 5.1275 258.357 5.0375 258.387 4.9775L258.815 4.595L259.175 4.6175L260.457 4.865L260.795 4.7525L261.762 4.775L262.527 4.865L263.022 4.685L263.202 4.19L263.967 4.37L263.99 4.3475L264.035 4.3925L264.305 4.73H264.372L264.642 4.64L265.205 4.775C265.49 4.73 265.707 4.6925 265.857 4.6625C266.022 4.6325 266.127 4.6175 266.172 4.6175C266.307 4.6175 266.472 4.655 266.667 4.73H266.892C266.967 4.73 267.035 4.73 267.095 4.73C267.155 4.715 267.2 4.7075 267.23 4.7075H267.365L268.017 4.6175L268.58 4.73L268.647 4.7525L268.94 4.6625L269.345 4.7525L270.29 4.73L270.717 4.775H271.28ZM280.242 4.8875L280.017 5.18L280.197 5.72L279.905 6.0575L279.792 6.53L279.725 6.6425L279.77 6.755C279.77 6.965 279.717 7.1225 279.612 7.2275L279.567 7.295V7.385C279.612 7.49 279.635 7.5875 279.635 7.6775C279.635 7.7525 279.627 7.805 279.612 7.835L279.635 7.925L279.545 8.1725L279.612 8.4425L279.432 8.6225L279.5 8.9375L279.635 9.095L279.432 9.275V9.635L279.275 9.995L279.387 10.355L279.252 10.535L279.477 10.6925L279.162 11.21L279.14 11.2775L279.365 11.3225L279.207 11.84V11.93C279.207 12.035 279.2 12.1175 279.185 12.1775L279.207 12.245L279.567 12.29L279.86 12.74L279.702 13.0775L279.95 13.055C280.04 13.235 280.092 13.3925 280.107 13.5275L279.77 13.865C279.665 13.97 279.515 14.075 279.32 14.18L278.937 14.3825L278.825 14.27L278.6 14.405L277.902 13.595V13.2125C277.812 12.9125 277.767 12.635 277.767 12.38V12.245L277.632 10.9175L277.812 9.9725L277.677 9.4325L277.295 10.0625L277.092 10.6475L276.912 10.7375L276.597 11.2325L276.035 11.75L275.877 12.02L275.382 12.4475L275.27 12.74L274.55 13.19L273.785 14.045L273.357 14.135L273.065 14.36C272.69 14.345 272.405 14.2025 272.21 13.9325C271.535 13.6025 271.182 13.13 271.152 12.515L271.265 12.4475L271.242 12.3125L271.22 12.0425L271.085 11.75L271.22 11.435L271.265 10.9625L271.422 10.22C271.422 10.205 271.422 10.175 271.422 10.13C271.407 10.1 271.4 10.07 271.4 10.04C271.4 9.98 271.415 9.905 271.445 9.815C271.43 9.785 271.422 9.725 271.422 9.635C271.422 9.53 271.467 9.3575 271.557 9.1175L271.715 9.05C271.625 8.975 271.58 8.8925 271.58 8.8025C271.58 8.7425 271.587 8.6975 271.602 8.6675C271.587 8.6225 271.58 8.57 271.58 8.51C271.58 8.33 271.67 8.195 271.85 8.105C271.895 7.955 271.977 7.805 272.097 7.655L271.985 7.475L272.255 7.1375V7.0475C272.255 6.7625 272.352 6.5 272.547 6.26L272.525 5.855L272.615 5.765C272.615 5.75 272.615 5.7275 272.615 5.6975C272.6 5.6675 272.592 5.645 272.592 5.63C272.592 5.54 272.622 5.465 272.682 5.405V5.27C272.742 5.12 272.9 4.895 273.155 4.595C273.41 4.295 273.597 4.0325 273.717 3.8075L273.83 3.92L274.077 3.8075L274.19 3.7625L274.932 3.425L276.665 3.515V3.6725L277.205 3.785C277.55 3.785 277.775 3.8975 277.88 4.1225C277.88 4.0775 277.887 4.025 277.902 3.965C277.902 3.92 277.902 3.89 277.902 3.875L278.375 4.3025L278.802 4.3925L279.612 4.19L279.905 4.7525L280.242 4.8875ZM278.105 6.0575L278.015 5.9L277.835 5.855L277.137 5.2925L276.687 5.225H276.327L276.282 5.18L276.102 5.2475L275.9 5.135H275.315L275.382 5.225L274.865 5.405L274.775 5.5175L274.707 5.54C274.437 5.765 274.25 5.9525 274.145 6.1025L273.987 6.6425L273.897 6.845L274.122 7.16L273.74 7.4525L273.785 7.5425C273.62 7.8275 273.537 8.105 273.537 8.375L273.357 8.6V9.005L273.177 9.2075L273.132 9.41L273.065 9.455V9.77L272.997 9.8825C272.997 10.0625 272.982 10.205 272.952 10.31L272.997 10.4225L272.795 10.85L272.885 10.985L272.727 11.21L272.885 11.6375L272.637 11.9525L272.682 12.38V12.4475L272.772 12.4925L272.885 12.47C272.96 12.395 273.035 12.3275 273.11 12.2675L273.065 12.0875L273.38 12.0425L273.447 11.885L274.775 10.805L274.91 10.76L275.067 10.3775C275.157 10.3475 275.285 10.2875 275.45 10.1975L275.585 9.8375H275.765L275.697 9.455L276.012 9.41C276.042 9.35 276.087 9.275 276.147 9.185C276.222 9.095 276.297 9.0125 276.372 8.9375L277.52 7.4075L277.7 7.07L277.677 6.98L277.835 6.7325L277.88 6.485L278.082 6.305L278.105 6.0575ZM293.177 5.1575L293.267 5.2025L293.245 5.315L293.2 5.4725L293.11 5.5625L292.997 5.8775L292.795 5.9675L292.637 6.395L292.39 6.6875C292.33 6.8075 292.247 6.8975 292.142 6.9575C292.037 7.0175 291.94 7.0625 291.85 7.0925C291.835 7.1075 291.82 7.13 291.805 7.16C291.79 7.19 291.775 7.2275 291.76 7.2725C291.745 7.3025 291.73 7.3325 291.715 7.3625L291.265 7.4525C291.205 7.5575 291.13 7.6475 291.04 7.7225V7.835L290.657 7.97L290.252 8.3525L289.802 8.69C289.727 8.735 289.63 8.795 289.51 8.87C289.39 8.93 289.27 8.99 289.15 9.05C289.045 9.095 288.947 9.1325 288.857 9.1625C288.767 9.1925 288.722 9.2 288.722 9.185C288.512 9.29 288.287 9.38 288.047 9.455C287.807 9.515 287.56 9.5825 287.305 9.6575L286.585 9.7475L286.562 9.86L287.417 10.2875L288.497 10.76L288.542 10.9175L288.947 11.03L289.442 11.3225L290.027 11.6375L290.365 11.9075L290.702 11.9975L291.22 12.245L291.872 12.4475L292.345 12.4925L293.245 12.38H293.605L293.672 12.335C293.777 12.23 293.905 12.1775 294.055 12.1775L294.28 12.065V12.02L294.617 11.66L294.752 11.5475V11.4125C294.842 11.3675 294.902 11.345 294.932 11.345C294.977 11.345 295.045 11.345 295.135 11.345C295.165 11.345 295.217 11.3225 295.292 11.2775C295.367 11.2175 295.42 11.2025 295.45 11.2325L295.742 11.39L295.945 11.75L296.012 12.1775L295.81 12.515L295.247 13.2125L294.797 13.55L294.235 13.8425L293.65 14.045L293.11 14.1575L292.952 14.1125L292.705 14.18L292.345 14.135L291.917 14.2025L291.805 14.135L291.737 14.1575L291.422 14.1125H290.972L290.68 13.8425L290.207 13.7525L290.117 13.6175L289.96 13.6625L289.532 13.28L289.127 13.145L288.925 12.8975H288.295L288.16 12.65H287.98L287.867 12.47L287.552 12.3575L287.507 12.38L287.147 11.9975L286.832 11.7725L286.472 11.435L286.112 11.21C286.037 11.15 285.94 11.0825 285.82 11.0075C285.715 10.9325 285.58 10.8425 285.415 10.7375C285.355 10.6175 285.28 10.535 285.19 10.49L285.28 11.0525L285.37 11.075L285.437 11.255L285.257 11.9975C285.317 12.0725 285.37 12.2225 285.415 12.4475L285.28 12.65L285.257 12.8975L285.235 13.3025L285.077 13.64L285.01 14.045L284.695 14.54L284.2 15.305C283.675 15.305 283.382 15.125 283.322 14.765L283.48 14.2925L283.57 13.955L283.592 13.91L283.637 13.7975C283.622 13.7675 283.592 13.7225 283.547 13.6625C283.517 13.5875 283.502 13.5275 283.502 13.4825C283.502 13.3925 283.532 13.31 283.592 13.235L283.502 13.145L283.84 12.7625L283.66 12.47L283.75 12.2675C283.675 12.1175 283.637 12.0125 283.637 11.9525C283.637 11.8625 283.667 11.75 283.727 11.615L283.772 11.5025C283.757 11.3525 283.742 11.2325 283.727 11.1425C283.727 11.0375 283.727 10.9625 283.727 10.9175C283.667 10.8425 283.637 10.7075 283.637 10.5125L283.705 10.445L283.57 10.1075L283.75 9.95L283.705 9.905V9.41L283.592 8.8025L283.772 8.69C283.757 8.645 283.75 8.54 283.75 8.375V8.06H283.705L283.592 6.89C283.607 6.845 283.682 6.755 283.817 6.62C283.817 6.5 283.825 6.425 283.84 6.395L283.885 6.26L283.907 6.1475C283.787 5.9075 283.727 5.6975 283.727 5.5175C283.727 5.2475 283.825 4.97 284.02 4.685C284.185 4.64 284.32 4.61 284.425 4.595C284.545 4.58 284.635 4.5725 284.695 4.5725C284.8 4.5725 284.89 4.5875 284.965 4.6175C285.055 4.6325 285.167 4.67 285.302 4.73L285.82 5.2475L285.73 5.675L285.955 5.8775L285.82 6.125L285.91 6.395L285.617 6.7775L285.752 7.295L285.572 7.7675L285.415 8.6225L285.707 8.6L285.842 8.51L286.315 8.375L286.562 8.33L287.102 8.1725V8.105L287.44 8.015C287.56 7.895 287.732 7.8125 287.957 7.7675L287.935 7.745C287.935 7.67 288.115 7.6175 288.475 7.5875L288.947 7.385L289.127 7.115L289.397 7.0025L289.442 6.7775H289.622V6.71L289.937 6.6425L290.14 6.305H290.32C290.35 6.185 290.402 6.1175 290.477 6.1025C290.552 6.0725 290.65 6.035 290.77 5.99L290.882 5.8325L290.927 5.6075L291.265 5.5175C291.355 5.2775 291.475 5.105 291.625 5L291.737 5.1125L291.85 4.73H292.12C292.165 4.325 292.412 4.1225 292.862 4.1225C292.877 4.1225 293.027 4.31 293.312 4.685L293.177 5.1575ZM308.952 4.775L308.479 5.9225L308.254 5.99H307.894L307.557 6.035L307.309 5.99L306.117 6.08L305.757 5.99L305.689 6.0125C305.569 6.0725 305.352 6.125 305.037 6.17H304.587L304.452 6.125H304.384C304.234 6.125 304.047 6.155 303.822 6.215C303.642 6.26 303.409 6.2825 303.124 6.2825L302.809 6.215L302.764 6.44H302.539L302.472 7.0925L302.562 7.25L302.539 7.5425V8.0375C302.539 8.5475 302.487 8.8925 302.382 9.0725L302.539 9.2975L302.404 9.8375L302.539 9.995L302.314 10.31V10.4675L302.202 10.67L302.292 11.0975L302.224 11.885L302.112 12.245C302.127 12.26 302.134 12.2975 302.134 12.3575C302.134 12.3275 302.112 12.41 302.067 12.605C302.067 12.62 302.074 12.6425 302.089 12.6725V12.7625C302.089 12.8975 302.044 13.0325 301.954 13.1675L302.022 13.4375C302.022 13.5425 302.014 13.6025 301.999 13.6175L301.977 13.6625C301.962 13.7075 301.947 13.7525 301.932 13.7975C301.932 13.8275 301.932 13.865 301.932 13.91C301.932 14.15 301.962 14.3525 302.022 14.5175C301.872 14.5475 301.714 14.5625 301.549 14.5625C301.399 14.5775 301.309 14.585 301.279 14.585C301.189 14.585 301.099 14.57 301.009 14.54H300.964C300.634 14.45 300.469 14.1425 300.469 13.6175C300.484 13.5725 300.492 13.4825 300.492 13.3475C300.492 13.2425 300.477 13.1 300.447 12.92C300.417 12.725 300.402 12.59 300.402 12.515C300.402 12.38 300.424 12.2675 300.469 12.1775L300.537 11.39C300.432 11.24 300.379 11.1275 300.379 11.0525C300.379 11.0675 300.394 11.015 300.424 10.895C300.379 10.805 300.357 10.73 300.357 10.67C300.357 10.55 300.387 10.4675 300.447 10.4225C300.447 10.3475 300.499 10.19 300.604 9.95C300.574 9.8 300.559 9.6875 300.559 9.6125C300.649 9.6125 300.694 9.5675 300.694 9.4775C300.694 9.4475 300.679 9.41 300.649 9.365C300.634 9.32 300.627 9.26 300.627 9.185L300.672 9.2525L300.604 9.0725C300.604 8.8175 300.634 8.6075 300.694 8.4425V7.9025L300.604 7.4975L300.694 6.845L300.604 6.44L300.627 6.26H300.357L300.132 6.3725H299.997V6.44C299.712 6.44 299.449 6.4175 299.209 6.3725L299.142 6.53L298.399 6.2825L297.409 6.26L296.779 6.44C296.524 6.215 296.329 5.99 296.194 5.765C296.074 5.525 296.014 5.3525 296.014 5.2475C296.014 5.1275 296.029 5.0375 296.059 4.9775L296.487 4.595L296.847 4.6175L298.129 4.865L298.467 4.7525L299.434 4.775L300.199 4.865L300.694 4.685L300.874 4.19L301.639 4.37L301.662 4.3475L301.707 4.3925L301.977 4.73H302.044L302.314 4.64L302.877 4.775C303.162 4.73 303.379 4.6925 303.529 4.6625C303.694 4.6325 303.799 4.6175 303.844 4.6175C303.979 4.6175 304.144 4.655 304.339 4.73H304.564C304.639 4.73 304.707 4.73 304.767 4.73C304.827 4.715 304.872 4.7075 304.902 4.7075H305.037L305.689 4.6175L306.252 4.73L306.319 4.7525L306.612 4.6625L307.017 4.7525L307.962 4.73L308.389 4.775H308.952ZM321.627 11.4575C321.657 11.5325 321.687 11.615 321.717 11.705C321.747 11.795 321.762 11.885 321.762 11.975L321.919 12.3125L321.807 12.6275L321.762 12.965C321.822 13.055 321.859 13.205 321.874 13.415L321.829 13.46L322.009 13.82L321.672 14.0675L321.627 14.2025C321.462 14.3675 321.267 14.45 321.042 14.45C321.072 14.45 321.019 14.4425 320.884 14.4275C320.749 14.4125 320.524 14.3675 320.209 14.2925L320.074 13.3025L320.142 13.1225L320.074 12.6725L320.097 12.2L320.187 12.0875L320.119 11.345C320.149 11.12 320.164 10.9625 320.164 10.8725C320.179 10.7675 320.187 10.6775 320.187 10.6025L319.984 10.3325L320.187 10.085L320.254 9.68L320.209 9.3875L320.344 9.14L320.209 8.825L320.412 8.5775L320.434 8.42V7.8125L320.502 7.7225L320.479 7.0475L320.547 6.305L320.457 6.17L320.434 5.675L320.502 5.2475L320.434 5.09L320.569 4.055C320.884 3.995 321.109 3.9575 321.244 3.9425C321.379 3.9275 321.432 3.92 321.402 3.92C321.627 3.92 321.822 4.01 321.987 4.19L322.032 4.3475L322.369 4.595L322.189 4.9325L322.234 5C322.219 5.195 322.182 5.33 322.122 5.405L322.167 5.7425L322.279 6.0575L322.122 6.4175C322.122 6.6125 322.084 6.785 322.009 6.935C322.009 6.965 322.002 7.0025 321.987 7.0475C321.987 7.0775 321.979 7.13 321.964 7.205L321.942 7.3175L322.144 7.475L322.054 7.6775L322.099 7.8125C322.099 7.9025 322.069 8.0075 322.009 8.1275L322.054 8.2175L321.919 8.8025V9.14L321.762 9.4775L321.852 9.7925L321.762 10.535L321.829 10.58L321.717 10.985L321.627 11.4575ZM311.052 11.75L311.097 12.02L311.187 12.5825L311.232 12.8525L311.299 12.92L311.614 13.01H311.907L312.402 12.92H313.032L313.729 12.875L313.954 12.5375L314.157 12.65L314.337 12.47L314.539 12.3575L314.854 12.2675L314.922 12.245L315.012 11.93L315.372 11.84L315.664 11.6825L315.912 11.3L316.272 11.03L316.407 10.6475L316.632 10.445L316.722 10.1975L316.609 9.6125L316.542 9.5675L316.294 9.23L315.889 9.0725C315.904 9.0725 315.882 9.0275 315.822 8.9375C315.777 8.8325 315.724 8.795 315.664 8.825L315.394 8.7575L314.967 8.51L314.787 8.5775H314.607C314.502 8.6375 314.389 8.6675 314.269 8.6675C314.239 8.6675 314.202 8.645 314.157 8.6C314.127 8.555 314.089 8.5175 314.044 8.4875C313.999 8.5025 313.917 8.525 313.797 8.555C313.677 8.585 313.527 8.6 313.347 8.6C313.287 8.585 313.204 8.585 313.099 8.6C312.994 8.6 312.934 8.6 312.919 8.6C312.859 8.645 312.814 8.6675 312.784 8.6675C312.769 8.6675 312.724 8.6675 312.649 8.6675C312.589 8.6675 312.514 8.7125 312.424 8.8025C312.349 8.8775 312.289 8.9225 312.244 8.9375L311.772 8.825L311.299 8.9375L311.232 9.6125L311.187 10.355L311.164 10.715L311.367 11.435L311.052 11.75ZM309.679 7.43C309.694 7.385 309.702 7.265 309.702 7.07C309.702 6.89 309.687 6.725 309.657 6.575L309.702 6.4175L309.522 6.215C309.537 6.125 309.589 6.05 309.679 5.99L309.567 5.8325C309.612 5.7425 309.634 5.6525 309.634 5.5625C309.634 5.4425 309.582 5.3075 309.477 5.1575C309.477 5.0375 309.499 4.9175 309.544 4.7975L309.454 4.5725L309.567 4.325L309.207 3.56L309.567 3.4925V3.4475L310.354 3.0425L310.759 3.515L310.804 3.74L311.142 3.9875L311.119 4.325C311.119 4.385 311.112 4.46 311.097 4.55C311.097 4.625 311.089 4.715 311.074 4.82C311.179 4.925 311.232 5.0225 311.232 5.1125C311.232 5.1275 311.217 5.18 311.187 5.27L311.277 5.36L311.187 5.72L311.344 6.125L311.322 6.2825L311.614 6.4175L311.457 6.71L311.322 6.845L311.232 7.25L311.299 7.5875L311.862 7.385L312.424 7.43L312.582 7.07L313.212 7.205L313.797 7.2275L313.954 7.16L314.314 7.34L314.404 7.295L314.832 7.0475L315.439 7.16L315.709 7.1825L316.452 7.3625L316.587 7.34C316.707 7.415 316.827 7.49 316.947 7.565C317.082 7.64 317.209 7.7375 317.329 7.8575L317.734 7.9025L317.892 8.375L317.982 8.42L318.229 8.78L318.364 9.1625L318.522 9.32L318.477 9.815L318.522 10.0175C318.492 10.1525 318.439 10.295 318.364 10.445C318.289 10.595 318.259 10.76 318.274 10.94L318.072 10.7825L318.094 10.94L317.982 11.12L318.027 11.615L317.554 11.39L317.487 11.66L317.374 11.795C317.344 11.87 317.314 11.945 317.284 12.02C317.254 12.08 317.217 12.1325 317.172 12.1775L317.239 12.335L316.812 12.47L316.789 12.5375L316.452 12.9425L316.227 13.3475L316.047 13.4825L315.867 13.775L315.304 13.6175L315.214 13.7525C315.169 13.7675 315.094 13.775 314.989 13.775C314.884 13.775 314.802 13.775 314.742 13.775L314.427 14.09L314.359 14.315C314.269 14.345 314.179 14.405 314.089 14.495C313.999 14.6 313.902 14.6525 313.797 14.6525L313.414 14.5175L312.807 14.3375L312.379 14.585L312.289 14.63L311.929 14.6075L311.997 14.5625L311.389 14.6525L310.962 14.72L310.782 14.5175L310.377 14.5625C310.002 14.4875 309.747 14.2775 309.612 13.9325L309.589 13.775L309.477 13.595V13.19L309.342 12.965L309.522 12.695C309.477 12.545 309.454 12.4025 309.454 12.2675C309.454 12.2225 309.462 12.1925 309.477 12.1775V11.39L309.567 11.165L309.589 9.8375L309.657 9.5225L309.544 9.3875L309.747 8.78L309.679 8.555V8.06L309.792 7.925L309.769 7.61L309.679 7.43Z" fill="#EFBB45"/>
<path fill-rule="evenodd" clip-rule="evenodd" d="M224.868 30.8245C211.312 72.205 169.087 98.8847 128.208 107.964C108.617 112.315 86.9283 111.538 70.9158 98.0777C63.4083 91.7732 57.7383 82.996 56.5833 73.1297C55.8408 66.7525 57.0783 58.5265 63.4833 55.4192C72.1458 51.2155 76.7883 61.3847 73.9233 68.3657C68.6883 81.109 48.8583 76.9712 39.1908 73.5587C26.4183 69.0467 15.3108 61.0315 5.06583 52.3322C2.31332 49.9945 -0.911667 54.6257 1.84833 56.9425C13.6233 66.8342 26.7183 75.8522 41.7108 79.9982C52.3083 82.9285 65.7783 84.2177 74.5908 76.2137C81.2583 70.1567 82.6008 57.4697 74.9133 51.5372C65.8233 44.5165 54.5058 52.9457 51.8433 62.2052C45.0558 85.7935 67.9083 107.861 88.7733 113.386C114.523 120.204 142.884 111.133 165.826 99.4007C193.728 85.1327 218.043 62.3222 227.248 31.6682C227.712 30.1225 225.377 29.269 224.868 30.8245Z" fill="#EFBB45"/>
<path fill-rule="evenodd" clip-rule="evenodd" d="M30.4457 51.5361C29.6957 54.1754 21.1682 53.4771 19.3532 53.3496C15.7757 53.0976 12.3707 52.1931 8.97322 51.1026C6.28072 50.2371 2.53822 49.0544 0.625717 52.1211C-1.15928 54.9906 1.33822 59.1201 2.35072 61.7579C4.93072 68.4921 7.30822 75.3599 10.2182 81.9584C11.6132 85.1151 16.0157 82.8824 14.9732 79.7669C13.1957 74.4374 11.0057 69.2376 8.96572 64.0019C8.43322 62.6159 5.65822 57.8466 6.31822 56.4479C6.93322 55.1346 9.06322 56.5251 10.8557 56.9316C16.9757 58.3199 28.3232 59.7936 33.1307 54.7259C33.7532 54.0704 33.9782 53.3316 33.6482 52.4721C33.5057 52.1181 33.3707 51.7634 33.2282 51.4086C32.7632 50.2154 30.7982 50.2934 30.4457 51.5361Z" fill="#EFBB45"/>
</svg>
