<?xml version="1.0" encoding="UTF-8"?>
<svg width="375px" height="142px" viewBox="0 0 375 142" version="1.1" xmlns="http://www.w3.org/2000/svg" xmlns:xlink="http://www.w3.org/1999/xlink">
    <title>Group 13</title>
    <g id="Page-1" stroke="none" stroke-width="1" fill="none" fill-rule="evenodd">
        <g id="5-Файлообменник-стартовый-экран" transform="translate(-786.000000, -182.000000)" fill="#EFBB45">
            <g id="Group-13" transform="translate(786.000000, 182.250000)">
                <text id="Добавьте-Ваш-первый" font-family="BradleyHandITCTT-Bold, Bradley Hand" font-size="22.5" font-style="expanded" font-weight="bold" line-spacing="13.5" letter-spacing="-0.0622845311">
                    <tspan x="87.125" y="132.25">Добавьте Ваш первый файл </tspan>
                </text>
                <g id="Group" transform="translate(114.000000, 43.125000) scale(-1, 1) translate(-114.000000, -43.125000) ">
                    <path d="M2.44102059,84.907934 C15.9965206,43.527434 58.2215206,16.847684 99.1010206,7.76818401 C118.691771,3.41743401 140.380271,4.19443401 156.392771,17.654684 C163.900271,23.959184 169.570271,32.736434 170.725271,42.602684 C171.467771,48.979934 170.230271,57.205934 163.825271,60.313184 C155.162771,64.516934 150.520271,54.347684 153.385271,47.366684 C158.620271,34.623434 178.450271,38.761184 188.117771,42.173684 C200.890271,46.685684 211.997771,54.700934 222.242771,63.400184 C224.995271,65.737934 228.220271,61.106684 225.460271,58.789934 C213.685271,48.898184 200.590271,39.880184 185.597771,35.734184 C175.000271,32.803934 161.530271,31.514684 152.717771,39.518684 C146.050271,45.575684 144.707771,58.262684 152.395271,64.195184 C161.485271,71.215934 172.802771,62.786684 175.465271,53.527184 C182.252771,29.938934 159.400271,7.87093401 138.535271,2.34643401 C112.785521,-4.47181599 84.4242706,4.59943401 61.4825206,16.331684 C33.5810206,30.599684 9.26602059,53.410184 0.0605205889,84.064184 C-0.402979411,85.609934 1.93177059,86.463434 2.44102059,84.907934" id="Fill-21"></path>
                    <path d="M196.862771,64.195934 C197.612771,61.556684 206.140271,62.254934 207.955271,62.382434 C211.532771,62.634434 214.937771,63.538934 218.335271,64.629434 C221.027771,65.494934 224.770271,66.677684 226.682771,63.610934 C228.467771,60.741434 225.970271,56.611934 224.957771,53.974184 C222.377771,47.239934 220.000271,40.372184 217.090271,33.773684 C215.695271,30.616934 211.292771,32.849684 212.335271,35.965184 C214.112771,41.294684 216.302771,46.494434 218.342771,51.730184 C218.875271,53.116184 221.650271,57.885434 220.990271,59.284184 C220.375271,60.597434 218.245271,59.206934 216.452771,58.800434 C210.332771,57.412184 198.985271,55.938434 194.177771,61.006184 C193.555271,61.661684 193.330271,62.400434 193.660271,63.259934 C193.802771,63.613934 193.937771,63.968684 194.080271,64.323434 C194.545271,65.516684 196.510271,65.438684 196.862771,64.195934" id="Fill-22"></path>
                </g>
            </g>
        </g>
    </g>
</svg>