<svg width="22" height="24" viewBox="0 0 22 24" fill="none" xmlns="http://www.w3.org/2000/svg">
<path d="M18.935 6.51244L20.4422 5.00531C20.7168 4.73072 20.7168 4.28555 20.4422 4.01095C20.1676 3.73636 19.7224 3.73636 19.4478 4.01095L17.9407 5.51808C16.2495 4.03688 14.0834 3.08672 11.7031 2.92969V1.40625H12.4062C12.7946 1.40625 13.1094 1.09144 13.1094 0.703125C13.1094 0.314812 12.7946 0 12.4062 0H9.59375C9.20544 0 8.89062 0.314812 8.89062 0.703125C8.89062 1.09144 9.20544 1.40625 9.59375 1.40625H10.2969V2.92969C4.80781 3.2925 0.453125 7.87359 0.453125 13.4531C0.453125 19.2689 5.18422 24 11 24C16.8158 24 21.5469 19.2689 21.5469 13.4531C21.5469 10.7977 20.5607 8.36864 18.935 6.51244ZM11 21.1875C6.73531 21.1875 3.26562 17.7178 3.26562 13.4531C3.26562 9.18844 6.73531 5.71875 11 5.71875C15.2647 5.71875 18.7344 9.18844 18.7344 13.4531C18.7344 17.7178 15.2647 21.1875 11 21.1875Z" fill="white"/>
<path d="M11 7.125C7.51062 7.125 4.67188 9.96375 4.67188 13.4531C4.67188 16.9425 7.51062 19.7812 11 19.7812C14.4894 19.7812 17.3281 16.9425 17.3281 13.4531C17.3281 9.96375 14.4894 7.125 11 7.125ZM14.4791 10.9688L11.4973 13.9505C11.2227 14.2247 10.7773 14.2252 10.5027 13.9505C10.2284 13.6758 10.2284 13.2305 10.5027 12.9558L13.4844 9.97406C13.7591 9.69937 14.2044 9.69937 14.4791 9.97406C14.7537 10.2487 14.7537 10.6941 14.4791 10.9688Z" fill="white"/>
</svg>
