<?xml version="1.0" encoding="utf-8"?>
<svg width="21px" height="27px" viewBox="0 0 21 27" version="1.1" xmlns:xlink="http://www.w3.org/1999/xlink" xmlns="http://www.w3.org/2000/svg">
  <g id="man-user">
    <path d="M5.401 13.164C8.38368 13.164 10.8019 10.2172 10.8019 6.58205C10.8019 2.94684 10.0079 0 5.401 0C0.794073 0 0 2.94684 0 6.58205C0 10.2172 2.41817 13.164 5.401 13.164Z" transform="translate(4.869831 0)" id="Path" fill="#4086F1" stroke="none" />
    <path d="M0.0506928 0.113903C0.0494928 -0.107736 0.0482928 0.0514566 0.0506928 0.113903L0.0506928 0.113903Z" transform="translate(0.030818002 23.100029)" id="Path" fill="#000000" stroke="none" />
    <path d="M0.0489918 0.201329C0.0527918 0.140651 0.0502918 -0.219647 0.0489918 0.201329L0.0489918 0.201329Z" transform="translate(20.433983 23.185717)" id="Path" fill="#000000" stroke="none" />
    <path d="M20.3904 9.2791C20.2904 2.94661 19.4661 1.14219 13.1585 0C13.1585 0 12.2707 1.13519 10.2012 1.13519C8.13166 1.13519 7.24362 0 7.24362 0C1.00486 1.12973 0.130455 2.90738 0.0154829 9.07338C0.00605519 9.57687 0.00168626 9.60333 0 9.54488C0.00038324 9.65439 0.000843128 9.85696 0.000843128 10.2102C0.000843128 10.2102 1.50253 13.2476 10.2012 13.2476C18.8996 13.2476 20.4015 10.2102 20.4015 10.2102C20.4015 9.98324 20.4016 9.82543 20.4019 9.71807C20.4002 9.75422 20.3968 9.68416 20.3904 9.2791Z" transform="translate(0.069596395 13.669052)" id="Path" fill="#4086F1" stroke="none" />
  </g>
</svg>