<?xml version="1.0" encoding="utf-8"?>
<svg width="143px" height="143px" viewBox="0 0 143 143" version="1.1" xmlns:xlink="http://www.w3.org/1999/xlink"
     xmlns="http://www.w3.org/2000/svg">
    <defs>
        <path d="M70 140C108.66 140 140 108.66 140 70C140 31.3401 108.66 0 70 0C31.3401 0 0 31.3401 0 70C0 108.66 31.3401 140 70 140Z"
              id="path_1"/>
        <clipPath id="mask_1">
            <use xlink:href="#path_1"/>
        </clipPath>
    </defs>
    <g id="chto-znachit-esli-muzhchina-nikogda-ne-pishet-pervym-no-vsegda-otvechaet-na-vashi-soobshhenija1"
       transform="translate(1.458252 1.4583435)">
        <path d="M70 140C108.66 140 140 108.66 140 70C140 31.3401 108.66 0 70 0C31.3401 0 0 31.3401 0 70C0 108.66 31.3401 140 70 140Z"
              id="Mask" fill="#D8D8D8" fill-rule="evenodd" stroke="none"/>
        <g clip-path="url(#mask_1)">
            <g id="man-user" transform="translate(29.166748 29.166656)">
                <path d="M22.2394 54.2048C34.521 54.2048 44.4782 42.0708 44.4782 27.1026C44.4782 12.134 41.2091 0 22.2394 0C3.26971 0 0 12.134 0 27.1026C0 42.0708 9.95716 54.2048 22.2394 54.2048Z"
                      transform="translate(20.052246 0)" id="Path" fill="#4086F1" stroke="none"/>
                <path d="M0.159991 0.469014C0.156204 -0.44362 0.152417 0.21188 0.159991 0.469014L0.159991 0.469014Z"
                      transform="translate(0.12689766 95.11777)" id="Path" fill="#000000" stroke="none"/>
                <path d="M0.154623 0.829003C0.166616 0.579153 0.158726 -0.90443 0.154623 0.829003L0.154623 0.829003Z"
                      transform="translate(84.13993 95.4706)" id="Path" fill="#000000" stroke="none"/>
                <path d="M83.9606 38.208C83.5488 12.1331 80.1547 4.70313 54.1823 0C54.1823 0 50.5262 4.67432 42.0048 4.67432C33.4833 4.67432 29.8267 0 29.8267 0C4.13764 4.65183 0.537167 11.9716 0.0637531 37.361C0.0249331 39.4342 0.00694341 39.5431 0 39.3024C0.00157805 39.7534 0.0034717 40.5875 0.0034717 42.0419C0.0034717 42.0419 6.18689 54.549 42.0048 54.549C77.822 54.549 84.0061 42.0419 84.0061 42.0419C84.0061 41.1074 84.0067 40.4576 84.0077 40.0156C84.0007 40.1644 83.9868 39.8759 83.9606 38.208Z"
                      transform="translate(0.28657338 56.284332)" id="Path" fill="#4086F1" stroke="none"/>
            </g>
        </g>
    </g>
</svg>