<svg width="19" height="19" viewBox="0 0 19 19" fill="none" xmlns="http://www.w3.org/2000/svg">
<g clip-path="url(#clip0_34_39290)">
<path d="M10.5582 6.21191C10.5582 5.62855 10.0836 5.1543 9.50098 5.1543C8.91799 5.1543 8.44336 5.62855 8.44336 6.21191V8.49043H10.5582V6.21191Z" fill="#B9B9B9"/>
<path d="M16.2175 2.78307C14.4237 0.988828 12.0379 0.000976562 9.50074 0.000976562C6.95986 0.000976562 4.57484 0.984004 2.78543 2.77008C-0.443458 5.99154 -0.848321 10.9397 1.48326 14.5954C1.48326 14.5954 1.48326 14.5976 1.48178 14.6005L0.119863 17.3889C-0.096485 17.8242 -0.0141022 18.3278 0.329531 18.6714C0.673534 19.0151 1.17711 19.0971 1.61092 18.8815L4.39152 17.5095C8.02453 19.8319 12.982 19.4686 16.2272 16.2189C18.0151 14.4287 19 12.043 19 9.50023C19 6.9627 18.0118 4.5773 16.2175 2.78307ZM13.6195 13.8446C13.6195 14.4584 13.12 14.9579 12.5062 14.9579H6.49488C5.88109 14.9579 5.3816 14.4584 5.3816 13.8446V9.60525C5.3816 8.99146 5.88109 8.49197 6.49488 8.49197H7.32984V6.21346C7.32984 5.01631 8.30359 4.04256 9.50074 4.04256C10.6975 4.04256 11.6713 5.01631 11.6713 6.21346V8.49197H12.5062C13.12 8.49197 13.6195 8.99146 13.6195 9.60525V13.8446Z" fill="#B9B9B9"/>
<path d="M6.49512 9.60449V13.8439H12.5065H12.5072L12.5065 9.60449H6.49512ZM10.4302 11.3256C10.4172 11.555 10.2654 11.7468 10.0572 11.8188V12.1777C10.0572 12.4849 9.80824 12.7343 9.50098 12.7343C9.19334 12.7343 8.94434 12.4849 8.94434 12.1777V11.8188C8.73615 11.7468 8.58437 11.555 8.57139 11.3256C8.57064 11.3149 8.57027 11.3041 8.57027 11.293C8.57027 10.9857 8.81928 10.7363 9.12691 10.7363H9.87467C10.1823 10.7363 10.4313 10.9857 10.4313 11.293C10.4313 11.3041 10.4309 11.3149 10.4302 11.3256Z" fill="#B9B9B9"/>
</g>
<defs>
<clipPath id="clip0_34_39290">
<rect width="19" height="19" fill="white"/>
</clipPath>
</defs>
</svg>
