<?xml version="1.0" encoding="utf-8"?>
<svg width="12px" height="12px" viewBox="0 0 12 12" version="1.1" xmlns:xlink="http://www.w3.org/1999/xlink" xmlns="http://www.w3.org/2000/svg">
  <g id="calendar-6">
    <path d="M0.703125 2.8125C0.314789 2.8125 0 2.49771 0 2.10938L0 0.703125C0 0.314789 0.314789 0 0.703125 0C1.09146 0 1.40625 0.314789 1.40625 0.703125L1.40625 2.10938C1.40625 2.49771 1.09146 2.8125 0.703125 2.8125Z" transform="translate(8.109375 0)" id="Path" fill="#979797" stroke="none" />
    <path d="M10.7109 0L10.2188 0L10.2188 0.703125C10.2188 1.47853 9.58791 2.10938 8.8125 2.10938C8.03709 2.10938 7.40625 1.47853 7.40625 0.703125L7.40625 0L4.59375 0L4.59375 0.703125C4.59375 1.47853 3.96291 2.10938 3.1875 2.10938C2.41209 2.10938 1.78125 1.47853 1.78125 0.703125L1.78125 0L1.28906 0C0.578273 0 0 0.578273 0 1.28906L0 2.85938L12 2.85938L12 1.28906C12 0.578273 11.4217 0 10.7109 0Z" transform="translate(0 1.40625)" id="Path" fill="#979797" stroke="none" />
    <path d="M0.703125 2.8125C0.314789 2.8125 0 2.49771 0 2.10938L0 0.703125C0 0.314789 0.314789 0 0.703125 0C1.09146 0 1.40625 0.314789 1.40625 0.703125L1.40625 2.10938C1.40625 2.49771 1.09146 2.8125 0.703125 2.8125Z" transform="translate(2.484375 0)" id="Path" fill="#979797" stroke="none" />
    <path d="M0 0L0 5.74219C0 6.45298 0.578273 7.03125 1.28906 7.03125L10.7109 7.03125C11.4217 7.03125 12 6.45298 12 5.74219L12 0L0 0Z" transform="translate(0 4.96875)" id="Shape" fill="#979797" fill-rule="evenodd" stroke="none" />
  </g>
</svg>