<svg width="17" height="19" viewBox="0 0 17 19" fill="none" xmlns="http://www.w3.org/2000/svg">
<rect x="0.25" y="2.08789" width="16.0484" height="16.6613" rx="1.75" stroke="#DBBB95" stroke-width="0.5"/>
<path d="M5.26631 8.21875V10.1704H3.3147V8.21875H5.26631Z" stroke="#DBBB95" stroke-width="0.5"/>
<path d="M9.55659 8.21875V10.1704H7.60498V8.21875H9.55659Z" stroke="#DBBB95" stroke-width="0.5"/>
<path d="M13.8469 8.21875V10.1704H11.8953V8.21875H13.8469Z" stroke="#DBBB95" stroke-width="0.5"/>
<path d="M5.26631 11.8965V13.8481H3.3147V11.8965H5.26631Z" stroke="#DBBB95" stroke-width="0.5"/>
<path d="M9.55659 11.8965V13.8481H7.60498V11.8965H9.55659Z" stroke="#DBBB95" stroke-width="0.5"/>
<path d="M13.8469 11.8965V13.8481H11.8953V11.8965H13.8469Z" stroke="#DBBB95" stroke-width="0.5"/>
<path d="M5.26631 15.5723V17.5239H3.3147V15.5723H5.26631Z" stroke="#DBBB95" stroke-width="0.5"/>
<path d="M9.55659 15.5723V17.5239H7.60498V15.5723H9.55659Z" stroke="#DBBB95" stroke-width="0.5"/>
<path d="M13.8469 15.5723V17.5239H11.8953V15.5723H13.8469Z" stroke="#DBBB95" stroke-width="0.5"/>
<path d="M0.306452 6.86439H16.2419" stroke="#DBBB95" stroke-width="0.5" stroke-linecap="square"/>
<rect x="2.70166" y="0.25" width="1.33871" height="4.40323" rx="0.669355" fill="white" stroke="#DBBB95" stroke-width="0.5"/>
<rect x="12.5081" y="0.25" width="1.33871" height="4.40323" rx="0.669355" fill="white" stroke="#DBBB95" stroke-width="0.5"/>
</svg>
