<?xml version="1.0" encoding="utf-8"?>
<svg width="69px" height="60px" viewBox="0 0 69 60" version="1.1" xmlns:xlink="http://www.w3.org/1999/xlink" xmlns="http://www.w3.org/2000/svg">
  <g id="photo-camera-4">
    <path d="M66.2048 11.9124C64.4104 10.1132 62.246 9.21328 59.7101 9.21328L51.6723 9.21328L49.8426 4.31924C49.3879 3.14382 48.557 2.13 47.3483 1.2779C46.1401 0.426176 44.9023 0 43.6343 0L25.2618 0C23.9939 0 22.7558 0.426176 21.5476 1.2779C20.3394 2.13 19.5084 3.14382 19.0538 4.31924L17.2239 9.21328L9.18605 9.21328C6.64989 9.21328 4.48538 10.1132 2.691 11.9124C0.897 13.7118 0 15.8829 0 18.4262L0 50.6715C0 53.215 0.897 55.3863 2.691 57.1852C4.48538 58.9848 6.65002 59.8847 9.18605 59.8847L59.7093 59.8847C62.2452 59.8847 64.4094 58.9848 66.2039 57.1852C67.9978 55.3863 68.8951 53.215 68.8951 50.6715L68.8951 18.4262C68.8956 15.8829 67.9983 13.7118 66.2048 11.9124ZM45.8047 45.9395C42.659 49.0945 38.8736 50.6724 34.4477 50.6724C30.0218 50.6724 26.2367 49.0945 23.0907 45.9395C19.9448 42.7849 18.3721 38.9876 18.3721 34.5498C18.3721 30.1105 19.9453 26.3145 23.0907 23.1594C26.2363 20.0042 30.0219 18.4269 34.4477 18.4269C38.8735 18.4269 42.659 20.0046 45.8047 23.1594C48.9505 26.3142 50.5235 30.1105 50.5235 34.5498C50.5235 38.9876 48.9507 42.7845 45.8047 45.9395Z" transform="translate(0 0.06806723)" id="Shape" fill="#FFFFFF" stroke="none" />
    <path d="M10.3347 0C7.48782 0 5.05372 1.0137 3.03223 3.04134C1.01074 5.06874 0 7.50958 0 10.3654C0 13.22 1.01074 15.6613 3.03223 17.6887C5.05372 19.7157 7.48769 20.7294 10.3347 20.7294C13.1811 20.7294 15.6155 19.7157 17.637 17.6887C19.6585 15.6613 20.6693 13.2202 20.6693 10.3654C20.6693 7.50971 19.6585 5.06887 17.637 3.04134C15.6156 1.01382 13.1811 0 10.3347 0Z" transform="translate(24.113049 24.25248)" id="Path" fill="#FFFFFF" stroke="none" />
  </g>
</svg>