<?xml version="1.0" encoding="UTF-8"?>
<svg width="20px" height="20px" viewBox="0 0 20 20" version="1.1" xmlns="http://www.w3.org/2000/svg" xmlns:xlink="http://www.w3.org/1999/xlink">
    <title>chat-2</title>
    <g id="Page-1" stroke="none" stroke-width="1" fill="none" fill-rule="evenodd">
        <g id="21-чат" transform="translate(-272.000000, -106.000000)" fill="#FFFFFF" fill-rule="nonzero">
            <g id="chat-2" transform="translate(272.000000, 106.000000)">
                <path d="M10.0526431,0 C10.0471935,0 10.0362943,0 10.0199455,0 C4.50495913,0 0.0199455041,4.40106952 0.0199455041,9.81283422 C0.0199455041,12.0213904 0.788337875,14.1657754 2.19433243,15.8930481 L0.739291553,19.2139037 C0.619400545,19.486631 0.750190736,19.802139 1.0226703,19.9144385 C1.12076294,19.9572193 1.22975477,19.9679144 1.333297,19.9518717 L6.66844687,19.0320856 C7.73656676,19.4117647 8.85918256,19.6042781 9.99269755,19.5989305 C15.5076839,19.5989305 19.9927175,15.197861 19.9927175,9.78609626 C20.0035967,4.39037433 15.5512807,0.00534759358 10.0526431,0 Z M6.63029973,7.83957219 L9.57307902,7.83957219 C9.87280654,7.83957219 10.1180381,8.0802139 10.1180381,8.37433155 C10.1180381,8.6684492 9.87280654,8.90909091 9.57307902,8.90909091 L6.63029973,8.90909091 C6.33057221,8.90909091 6.0853406,8.6684492 6.0853406,8.37433155 C6.0853406,8.0802139 6.33057221,7.83957219 6.63029973,7.83957219 Z M13.3877929,11.5828877 L6.63029973,11.5828877 C6.33057221,11.5828877 6.0853406,11.342246 6.0853406,11.0481283 C6.0853406,10.7540107 6.33057221,10.513369 6.63029973,10.513369 L13.3877929,10.513369 C13.6875204,10.513369 13.932752,10.7540107 13.932752,11.0481283 C13.932752,11.342246 13.6875204,11.5828877 13.3877929,11.5828877 Z" id="Shape"></path>
            </g>
        </g>
    </g>
</svg>