<svg width="12" height="12" viewBox="0 0 12 12" fill="none" xmlns="http://www.w3.org/2000/svg">
<path fill-rule="evenodd" clip-rule="evenodd" d="M0 6C0 2.69147 2.69147 0 6 0C9.30853 0 12 2.69147 12 6C12 9.30853 9.30853 12 6 12C2.69147 12 0 9.30853 0 6ZM8.50003 9.25003C8.62802 9.25003 8.75601 9.20096 8.85352 9.10345C9.04898 8.90799 9.04898 8.59204 8.85352 8.39648L6.49997 6.04303V3C6.49997 2.72351 6.27603 2.50003 6 2.50003C5.72397 2.50003 5.50003 2.72351 5.50003 3V6.25003C5.50003 6.38297 5.55249 6.51004 5.64651 6.60352L8.14655 9.10345C8.24396 9.20096 8.37204 9.25003 8.50003 9.25003Z" fill="#979797"/>
</svg>
