<svg width="22" height="22" viewBox="0 0 22 22" fill="none" xmlns="http://www.w3.org/2000/svg">
<path d="M5.24594 11C5.24594 11.4674 4.86722 11.8462 4.39979 11.8462H2.70748C2.24006 11.8462 1.86133 11.4674 1.86133 11C1.86133 10.5326 2.24006 10.1538 2.70748 10.1538H4.39979C4.86727 10.1538 5.24594 10.5326 5.24594 11ZM5.24594 5.58462C5.24594 5.11719 4.86722 4.73846 4.39979 4.73846H2.70748C2.24006 4.73846 1.86133 5.11719 1.86133 5.58462C1.86133 6.05204 2.24006 6.43077 2.70748 6.43077H4.39979C4.86727 6.43077 5.24594 6.05204 5.24594 5.58462ZM5.24594 16.4154C5.24594 15.9479 4.86722 15.5693 4.39979 15.5693H2.70748C2.24006 15.5693 1.86133 15.9479 1.86133 16.4154C1.86133 16.8829 2.24006 17.2616 2.70748 17.2616H4.39979C4.86727 17.2616 5.24594 16.8828 5.24594 16.4154ZM20.1383 2.70769V19.2923C20.1383 20.7877 18.9259 22 17.4307 22H5.58451C4.0892 22 2.87681 20.7877 2.87681 19.2923V17.9385H4.39989C5.23962 17.9385 5.92297 17.2551 5.92297 16.4154C5.92297 15.5757 5.23962 14.8922 4.39989 14.8922H2.87671V12.523H4.39979C5.23952 12.523 5.92287 11.8396 5.92287 10.9999C5.92287 10.1602 5.23952 9.47682 4.39979 9.47682H2.87671V7.10759H4.39979C5.23952 7.10759 5.92287 6.42425 5.92287 5.58452C5.92287 4.74478 5.23952 4.06144 4.39979 4.06144H2.87671V2.70769C2.87671 1.21239 4.0891 0 5.58441 0H17.4306C18.9259 0 20.1383 1.21234 20.1383 2.70769ZM9.40429 8.02627C9.40429 9.46811 10.5733 10.6371 12.0152 10.6371C13.4571 10.6371 14.6261 9.46811 14.6261 8.02627C14.6261 6.58442 13.4571 5.41534 12.0152 5.41534C10.5734 5.41538 9.40429 6.58442 9.40429 8.02627ZM16.0767 14.4086C16.0767 12.8067 14.7777 11.5076 13.1758 11.5076H10.8549C9.25268 11.5076 7.95364 12.8067 7.95364 14.4086V15.5692H16.0767V14.4086Z" fill="#A2A2A2"/>
</svg>
