<svg width="34" height="44" viewBox="0 0 34 44" fill="none" xmlns="http://www.w3.org/2000/svg">
<path d="M3.49742 1C2.04542 1 0.857422 2.18125 0.857422 3.625V40.375C0.857422 41.8187 2.04542 43 3.49742 43H29.8974C31.3494 43 32.5374 41.8187 32.5374 40.375V11.5L21.9774 1H3.49742Z" fill="white" stroke="#E3E3E3"/>
<path d="M24.6175 11.5H32.5375L21.9775 1V8.875C21.9775 10.3188 23.1655 11.5 24.6175 11.5Z" fill="#DCDCDC"/>
<path d="M10.4137 27.3452C10.4137 26.8387 10.5082 26.3527 10.681 25.9023H8.98506C7.23948 25.9023 5.81934 27.2536 5.81934 28.9146V32.2394C5.81934 33.2359 6.6714 34.0467 7.71877 34.0467H10.5227C10.4524 33.8581 10.4137 33.6554 10.4137 33.4442V27.3452Z" fill="#DCDCDC"/>
<path d="M18.7227 24.332H14.8454C13.0998 24.332 11.6797 25.6833 11.6797 27.3442V33.4432C11.6797 33.7759 11.9632 34.0457 12.3128 34.0457H21.2552C21.6049 34.0457 21.8884 33.776 21.8884 33.4432V27.3442C21.8884 25.6833 20.4682 24.332 18.7227 24.332Z" fill="#DCDCDC"/>
<path d="M16.7847 16.3457C14.6854 16.3457 12.9775 17.9708 12.9775 19.9683C12.9775 21.3232 13.7635 22.5065 14.9241 23.1278C15.4747 23.4225 16.1093 23.5909 16.7847 23.5909C17.4601 23.5909 18.0948 23.4225 18.6453 23.1278C19.806 22.5065 20.5919 21.3232 20.5919 19.9683C20.5919 17.9708 18.884 16.3457 16.7847 16.3457Z" fill="#DCDCDC"/>
<path d="M10.0992 19.7227C8.52921 19.7227 7.25195 20.938 7.25195 22.4319C7.25195 23.9257 8.52921 25.141 10.0992 25.141C10.4975 25.141 10.8767 25.0626 11.2212 24.9215C11.8168 24.6775 12.3079 24.2455 12.6118 23.7045C12.8251 23.3248 12.9465 22.8916 12.9465 22.4319C12.9465 20.938 11.6692 19.7227 10.0992 19.7227Z" fill="#DCDCDC"/>
<path d="M23.2201 27.3452C23.2201 26.8387 23.1256 26.3527 22.9527 25.9023H24.6487C26.3943 25.9023 27.8145 27.2536 27.8145 28.9146V32.2394C27.8145 33.2359 26.9624 34.0467 25.915 34.0467H23.1111C23.1814 33.8581 23.2201 33.6554 23.2201 33.4442V27.3452Z" fill="#DCDCDC"/>
<path d="M23.8061 19.7227C25.3761 19.7227 26.6533 20.938 26.6533 22.4319C26.6533 23.9257 25.3761 25.141 23.8061 25.141C23.4078 25.141 23.0286 25.0626 22.6841 24.9215C22.0884 24.6775 21.5973 24.2455 21.2934 23.7045C21.0801 23.3248 20.9588 22.8916 20.9588 22.4319C20.9588 20.938 22.236 19.7227 23.8061 19.7227Z" fill="#DCDCDC"/>
</svg>
