<svg width="18" height="18" viewBox="0 0 18 18" fill="none" xmlns="http://www.w3.org/2000/svg">
<path d="M9.00071 0C4.03037 0 0.00100708 4.02966 0.00100708 8.99982C0.00100708 13.97 4.03037 18 9.00071 18C13.971 18 18.0009 13.9702 18.0009 8.99982C18.0009 4.02942 13.971 0 9.00071 0ZM13.5227 7.39812L11.3216 9.59928C11.0828 9.83802 10.7654 9.96948 10.4279 9.96948C10.0904 9.96948 9.77291 9.83796 9.53417 9.5994L9.44795 9.51318L9.21359 9.74754L9.29963 9.83358C9.79247 10.3264 9.79247 11.1283 9.29963 11.6212L7.09877 13.8223C6.86003 14.0611 6.54263 14.1925 6.20489 14.1925C5.86721 14.1925 5.54975 14.061 5.31089 13.8221L4.47899 12.99C3.98615 12.4975 3.98615 11.6956 4.47881 11.2026L6.68015 9.00156C6.91889 8.76282 7.23629 8.63136 7.57403 8.63136C7.91177 8.63136 8.22899 8.76288 8.46791 9.00156L8.55383 9.08748L8.78819 8.85312L8.70227 8.7672C8.20943 8.27454 8.20943 7.47264 8.70197 6.9798L10.9033 4.77864C11.1422 4.53978 11.4596 4.40826 11.7972 4.40826C12.1347 4.40826 12.4521 4.53978 12.6911 4.77846L13.5231 5.61084C14.0156 6.10338 14.0156 6.9054 13.5227 7.39812Z" fill="#BABABA"/>
<path d="M8.55212 10.4075L8.12654 10.833L7.46642 10.1731L7.892 9.74752L7.80608 9.6616C7.74368 9.59938 7.66076 9.56494 7.57268 9.56494C7.48442 9.56494 7.4015 9.59932 7.3391 9.6616L5.13794 11.8625C5.00924 11.9913 5.00924 12.2007 5.13794 12.3294L5.97014 13.1618C6.09512 13.2868 6.31262 13.2866 6.4373 13.162L8.63816 10.9608C8.76704 10.832 8.76704 10.6224 8.63816 10.4935L8.55212 10.4075Z" fill="#BABABA"/>
<path d="M12.0296 5.43809C11.9672 5.37569 11.8841 5.34131 11.7958 5.34131C11.7076 5.34131 11.6245 5.37569 11.5621 5.43827L9.36089 7.63931C9.23237 7.76813 9.23237 7.97759 9.36107 8.10647L9.44711 8.19239L10.0999 7.53941L10.76 8.19953L10.1072 8.85251L10.1933 8.93855C10.3183 9.06317 10.5355 9.06335 10.6604 8.93837L12.8615 6.73751C12.9902 6.60869 12.9902 6.39923 12.8615 6.27035L12.0296 5.43809Z" fill="#BABABA"/>
</svg>
