<?xml version="1.0" encoding="UTF-8"?>
<svg width="20px" height="20px" viewBox="0 0 20 20" version="1.1" xmlns="http://www.w3.org/2000/svg" xmlns:xlink="http://www.w3.org/1999/xlink">
    <title>Group 33</title>
    <g id="Page-1" stroke="none" stroke-width="1" fill="none" fill-rule="evenodd">
        <g id="7.14-скопировать-ссылку-" transform="translate(-425.000000, -314.000000)" fill-rule="nonzero">
            <g id="Group-41" transform="translate(390.000000, 287.000000)">
                <g id="Group-33" transform="translate(35.000000, 27.000000)">
                    <path d="M18.0423356,5.730565 L13.8234456,9.949455 C13.3658606,10.40704 12.7575106,10.659005 12.1105206,10.659005 C11.4636456,10.659005 10.8551806,10.406925 10.3975956,9.949685 L10.2323406,9.78443 L9.78315063,10.23362 L9.94806063,10.39853 C10.8926706,11.34314 10.8926706,12.880115 9.94806063,13.824725 L5.72974563,18.043615 C5.27216063,18.5012 4.66381063,18.753165 4.01647563,18.753165 C3.36925563,18.753165 2.76079063,18.501085 2.30297563,18.04327 L0.708500631,16.448335 C-0.236109369,15.5043 -0.236109369,13.96744 0.708155631,13.022485 L4.92739063,8.803825 C5.38497563,8.34624 5.99332563,8.094275 6.64066063,8.094275 C7.28799563,8.094275 7.89600063,8.346355 8.35393063,8.803825 L8.51861063,8.968505 L8.96780063,8.519315 L8.80312063,8.354635 C7.85851063,7.41037 7.85851063,5.873395 8.80254563,4.928785 L13.0217806,0.709895 C13.4795956,0.25208 14.0880606,-4.34319247e-13 14.7350506,-4.34319247e-13 C15.3820406,-4.34319247e-13 15.9903906,0.25208 16.4483206,0.70955 L18.0431406,2.304945 C18.9869456,3.24898 18.9869456,4.786185 18.0423356,5.730565 Z" id="Path" fill="#FFFFFF"></path>
                    <path d="M8.51757563,11.49862 L7.70188063,12.314315 L6.43665063,11.04943 L7.25234563,10.233735 L7.08766563,10.069055 C6.96806563,9.9498 6.80913563,9.88379 6.64031563,9.88379 C6.47115063,9.88379 6.31222063,9.949685 6.19262063,10.069055 L1.97373063,14.28737 C1.72705563,14.534275 1.72705563,14.93574 1.97373063,15.182415 L3.56878063,16.77781 C3.80832563,17.017355 4.22520063,17.01701 4.46417063,16.778155 L8.68248563,12.559265 C8.92950563,12.31236 8.92950563,11.91055 8.68248563,11.66353 L8.51757563,11.49862 Z" id="Path" fill="#4086F1"></path>
                    <path d="M15.1822856,1.97478 C15.0626856,1.85518 14.9034106,1.789285 14.7342456,1.789285 C14.5650806,1.789285 14.4058056,1.85518 14.2862056,1.975125 L10.0673156,6.193785 C9.82098563,6.44069 9.82098563,6.842155 10.0676606,7.089175 L10.2325706,7.253855 L11.4837706,6.00231 L12.7490006,7.26754 L11.4978006,8.519085 L11.6627106,8.683995 C11.9022556,8.92285 12.3185556,8.923195 12.5581006,8.68365 L16.7767606,4.465335 C17.0234356,4.21843 17.0234356,3.816965 16.7767606,3.569945 L15.1822856,1.97478 Z" id="Path" fill="#4086F1"></path>
                </g>
            </g>
        </g>
    </g>
</svg>