<?xml version="1.0" encoding="UTF-8"?>
<svg width="12px" height="13px" viewBox="0 0 12 13" version="1.1" xmlns="http://www.w3.org/2000/svg">
    <title>interface</title>
    <g id="Page-1" stroke="none" stroke-width="1" fill="none" fill-rule="evenodd">
        <g id="5-Файлообменник-стартовый-экран" transform="translate(-1378.000000, -111.000000)" fill="grey"
           fill-rule="nonzero">
            <g id="interface" transform="translate(1378.000000, 111.000000)">
                <path d="M11.5333243,1.85663389 L8.30451351,1.85663389 L8.30451351,1.39246862 C8.30451351,0.62342887 7.68497297,0 6.92072973,0 L5.07567568,0 C4.31143243,0 3.69189189,0.62342887 3.69189189,1.39246862 L3.69189189,1.85663389 L0.463054054,1.85663389 C0.208297297,1.85663389 0.00178378378,2.06444351 0.00178378378,2.32079916 C0.00178378378,2.57715481 0.208324324,2.78493724 0.463054054,2.78493724 L0.964432432,2.78493724 L1.84683784,12.574454 C1.86859459,12.8141653 2.06889189,12.9973619 2.30810811,12.996387 L9.6882973,12.996387 C9.92751351,12.9973891 10.1277838,12.8141925 10.1495676,12.574454 L11.0319459,2.78493724 L11.5333514,2.78493724 C11.7881081,2.78493724 11.9946216,2.57712762 11.9946216,2.32077197 C11.9946216,2.06441632 11.7880811,1.85663389 11.5333243,1.85663389 Z M4.61440541,1.39246862 C4.61440541,1.13611297 4.82091892,0.928303347 5.07567568,0.928303347 L6.92072973,0.928303347 C7.17548649,0.928303347 7.382,1.13611297 7.382,1.39246862 L7.382,1.85663389 L4.61440541,1.85663389 L4.61440541,1.39246862 L4.61440541,1.39246862 Z M6.45945946,10.6755837 C6.45945946,10.9319393 6.25294595,11.139749 5.99818919,11.139749 C5.74343243,11.139749 5.53691892,10.9319393 5.53691892,10.6755837 L5.53691892,4.17740586 C5.53691892,3.92105021 5.74343243,3.71324059 5.99818919,3.71324059 C6.25294595,3.71324059 6.45945946,3.92105021 6.45945946,4.17740586 L6.45945946,10.6755837 Z M8.45945946,10.6755837 C8.45945946,10.9319393 8.25294595,11.139749 7.99818919,11.139749 C7.74343243,11.139749 7.53691892,10.9319393 7.53691892,10.6755837 L7.53691892,4.17740586 C7.53691892,3.92105021 7.74343243,3.71324059 7.99818919,3.71324059 C8.25294595,3.71324059 8.45945946,3.92105021 8.45945946,4.17740586 L8.45945946,10.6755837 Z M4.45945946,10.6755837 C4.45945946,10.9319393 4.25294595,11.139749 3.99818919,11.139749 C3.74343243,11.139749 3.53691892,10.9319393 3.53691892,10.6755837 L3.53691892,4.17740586 C3.53691892,3.92105021 3.74343243,3.71324059 3.99818919,3.71324059 C4.25294595,3.71324059 4.45945946,3.92105021 4.45945946,4.17740586 L4.45945946,10.6755837 Z"
                      id="Shape"></path>
            </g>
        </g>
    </g>
</svg>