<?xml version="1.0" encoding="utf-8"?>
<svg width="24px" height="4px" viewBox="0 0 24 4" version="1.1" xmlns:xlink="http://www.w3.org/1999/xlink" xmlns="http://www.w3.org/2000/svg">
  <g id="Group-2" transform="matrix(-4.371139E-08 1 -1 -4.371139E-08 24 0)">
    <path d="M0.999 0L3.001 0Q3.09939 0 3.19589 0.0191955Q3.2924 0.038391 3.3833 0.0760443Q3.4742 0.113698 3.55601 0.168362Q3.63783 0.223026 3.7074 0.2926Q3.77697 0.362175 3.83164 0.443985Q3.8863 0.525796 3.92396 0.616699Q3.96161 0.707602 3.9808 0.804105Q4 0.900607 4 0.999L4 3.001Q4 3.09939 3.9808 3.19589Q3.96161 3.2924 3.92396 3.3833Q3.8863 3.4742 3.83164 3.55601Q3.77697 3.63783 3.7074 3.7074Q3.63783 3.77697 3.55601 3.83164Q3.4742 3.8863 3.3833 3.92396Q3.2924 3.96161 3.19589 3.9808Q3.09939 4 3.001 4L0.999 4Q0.900607 4 0.804105 3.9808Q0.707602 3.96161 0.616699 3.92396Q0.525796 3.8863 0.443985 3.83164Q0.362175 3.77697 0.2926 3.7074Q0.223026 3.63783 0.168362 3.55601Q0.113698 3.4742 0.0760443 3.3833Q0.038391 3.2924 0.0191955 3.19589Q0 3.09939 0 3.001L0 0.999Q0 0.900607 0.0191955 0.804105Q0.038391 0.707602 0.0760443 0.616699Q0.113698 0.525796 0.168362 0.443985Q0.223026 0.362175 0.2926 0.2926Q0.362175 0.223026 0.443985 0.168362Q0.525796 0.113698 0.616699 0.0760443Q0.707602 0.038391 0.804105 0.0191955Q0.900607 0 0.999 0Z" transform="translate(0 10)" id="Rectangle" fill="#4086F1" fill-rule="evenodd" stroke="none" />
    <path d="M0.999 0L3.001 0Q3.09939 0 3.19589 0.0191955Q3.2924 0.038391 3.3833 0.0760443Q3.4742 0.113698 3.55601 0.168362Q3.63783 0.223026 3.7074 0.2926Q3.77697 0.362175 3.83164 0.443985Q3.8863 0.525796 3.92396 0.616699Q3.96161 0.707602 3.9808 0.804105Q4 0.900607 4 0.999L4 3.001Q4 3.09939 3.9808 3.19589Q3.96161 3.2924 3.92396 3.3833Q3.8863 3.4742 3.83164 3.55601Q3.77697 3.63783 3.7074 3.7074Q3.63783 3.77697 3.55601 3.83164Q3.4742 3.8863 3.3833 3.92396Q3.2924 3.96161 3.19589 3.9808Q3.09939 4 3.001 4L0.999 4Q0.900607 4 0.804105 3.9808Q0.707602 3.96161 0.616699 3.92396Q0.525796 3.8863 0.443985 3.83164Q0.362175 3.77697 0.2926 3.7074Q0.223026 3.63783 0.168362 3.55601Q0.113698 3.4742 0.0760443 3.3833Q0.038391 3.2924 0.0191955 3.19589Q0 3.09939 0 3.001L0 0.999Q0 0.900607 0.0191955 0.804105Q0.038391 0.707602 0.0760443 0.616699Q0.113698 0.525796 0.168362 0.443985Q0.223026 0.362175 0.2926 0.2926Q0.362175 0.223026 0.443985 0.168362Q0.525796 0.113698 0.616699 0.0760443Q0.707602 0.038391 0.804105 0.0191955Q0.900607 0 0.999 0Z" id="Rectangle" fill="#4086F1" fill-rule="evenodd" stroke="none" />
    <path d="M0.999 0L3.001 0Q3.09939 0 3.19589 0.0191955Q3.2924 0.038391 3.3833 0.0760443Q3.4742 0.113698 3.55601 0.168362Q3.63783 0.223026 3.7074 0.2926Q3.77697 0.362175 3.83164 0.443985Q3.8863 0.525796 3.92396 0.616699Q3.96161 0.707602 3.9808 0.804105Q4 0.900607 4 0.999L4 3.001Q4 3.09939 3.9808 3.19589Q3.96161 3.2924 3.92396 3.3833Q3.8863 3.4742 3.83164 3.55601Q3.77697 3.63783 3.7074 3.7074Q3.63783 3.77697 3.55601 3.83164Q3.4742 3.8863 3.3833 3.92396Q3.2924 3.96161 3.19589 3.9808Q3.09939 4 3.001 4L0.999 4Q0.900607 4 0.804105 3.9808Q0.707602 3.96161 0.616699 3.92396Q0.525796 3.8863 0.443985 3.83164Q0.362175 3.77697 0.2926 3.7074Q0.223026 3.63783 0.168362 3.55601Q0.113698 3.4742 0.0760443 3.3833Q0.038391 3.2924 0.0191955 3.19589Q0 3.09939 0 3.001L0 0.999Q0 0.900607 0.0191955 0.804105Q0.038391 0.707602 0.0760443 0.616699Q0.113698 0.525796 0.168362 0.443985Q0.223026 0.362175 0.2926 0.2926Q0.362175 0.223026 0.443985 0.168362Q0.525796 0.113698 0.616699 0.0760443Q0.707602 0.038391 0.804105 0.0191955Q0.900607 0 0.999 0Z" transform="translate(0 20)" id="Rectangle" fill="#4086F1" fill-rule="evenodd" stroke="none" />
  </g>
</svg>