<?xml version="1.0" encoding="UTF-8"?>
<svg width="14px" height="13px" viewBox="0 0 14 13" version="1.1" xmlns="http://www.w3.org/2000/svg" xmlns:xlink="http://www.w3.org/1999/xlink">
    <title>upload</title>
    <g id="Page-1" stroke="none" stroke-width="1" fill="none" fill-rule="evenodd">
        <g id="7.2-Мои-файлы-(вид-линии)" transform="translate(-1135.000000, -339.000000)" fill-rule="nonzero"  stroke-width="0.703125">
            <g id="Group-2" transform="translate(1136.000000, 339.000000)">
                <g id="upload" transform="translate(0.000000, 1.000000)">
                    <path d="M11.6364407,5.48727117 C11.4457627,5.48727117 11.2932203,5.64173341 11.2932203,5.83481121 L11.2932203,8.99613844 C11.2932203,9.85597826 10.6016949,10.5536327 9.75508475,10.5536327 L2.22457627,10.5536327 C1.37542373,10.5536327 0.686440678,9.85340389 0.686440678,8.99613844 L0.686440678,5.7833238 C0.686440678,5.590246 0.533898305,5.43578375 0.343220339,5.43578375 C0.152542373,5.43578375 0,5.590246 0,5.7833238 L0,8.99613844 C0,10.2395595 0.999152542,11.2487128 2.22457627,11.2487128 L9.75508475,11.2487128 C10.9830508,11.2487128 11.979661,10.2369851 11.979661,8.99613844 L11.979661,5.83481121 C11.979661,5.64430778 11.8271186,5.48727117 11.6364407,5.48727117 Z" id="Path"></path>
                    <path d="M4.05,2.80992563 L5.64661017,1.19322082 L5.64661017,8.2444222 C5.64661017,8.4375 5.79915254,8.59196224 5.98983051,8.59196224 C6.18050847,8.59196224 6.33305085,8.4375 6.33305085,8.2444222 L6.33305085,1.19322082 L7.92966102,2.80992563 C7.99576271,2.87685927 8.08474576,2.91290046 8.17118644,2.91290046 C8.26016949,2.91290046 8.34661017,2.87943364 8.41271186,2.80992563 C8.54745763,2.67348398 8.54745763,2.45466247 8.41271186,2.31822082 L6.23135593,0.109410755 C6.16779661,0.0450514874 6.07881356,0.00643592677 5.98983051,0.00643592677 C5.89830508,0.00643592677 5.81186441,0.0424771167 5.74830508,0.109410755 L3.56694915,2.31822082 C3.43220339,2.45466247 3.43220339,2.67348398 3.56694915,2.80992563 C3.69915254,2.94379291 3.91779661,2.94379291 4.05,2.80992563 Z" id="Path" transform="translate(5.989831, 4.299199) scale(1, -1) translate(-5.989831, -4.299199) "></path>
                </g>
            </g>
        </g>
    </g>
</svg>