<svg width="15" height="10" viewBox="0 0 15 10" fill="none" xmlns="http://www.w3.org/2000/svg">
<path d="M7.48933 3.01144C6.36251 3.01144 5.44678 3.90531 5.44678 5.00521C5.44678 6.10512 6.36251 6.99898 7.48933 6.99898C8.61615 6.99898 9.53188 6.10512 9.53188 5.00521C9.53188 3.90531 8.61612 3.01144 7.48933 3.01144Z" fill="#979797"/>
<path fill-rule="evenodd" clip-rule="evenodd" d="M0 5.00521C1.17788 2.08764 4.08511 0.0207825 7.48937 0.0207825C10.897 0.0207825 13.8009 2.08764 14.9787 5.00521C13.8009 7.92274 10.897 9.98963 7.48937 9.98963C4.08511 9.98963 1.17788 7.92274 0 5.00521ZM4.08511 5.00518C4.08511 6.83944 5.61022 8.32813 7.48937 8.32813C9.36852 8.32813 10.8936 6.83947 10.8936 5.00521C10.8936 3.17094 9.36852 1.68225 7.48937 1.68225C5.61022 1.68225 4.08511 3.17091 4.08511 5.00518Z" fill="#979797"/>
</svg>
