<?xml version="1.0" encoding="UTF-8"?>
<svg width="14px" height="18px" viewBox="0 0 14 18" version="1.1" xmlns="http://www.w3.org/2000/svg" xmlns:xlink="http://www.w3.org/1999/xlink">
    <title>file-4</title>
    <g id="Page-1" stroke="none" stroke-width="1" fill="none" fill-rule="evenodd">
        <g id="21-чат" transform="translate(-607.000000, -872.000000)" fill="#4086F1" fill-rule="nonzero">
            <g id="file-4" transform="translate(607.000000, 872.000000)">
                <path d="M8.22165605,17.3431765 L12.2859165,17.3431765 C12.8645435,17.3431765 13.3341826,16.8591722 13.3341826,16.2628415 L13.3341826,2.21385132 L13.3341826,1.08037578 C13.3341826,0.484024689 12.8645435,-1.7408297e-13 12.2859165,-1.7408297e-13 L6.6661005,-1.7408297e-13 L5.57523001,-1.7408297e-13 L5.57523001,0.357402197 C5.57917339,0.394163565 5.58117481,0.432967232 5.58117481,0.4717709 L5.58117481,2.8265408 L5.58117481,4.21366978 C5.58117481,5.05305437 4.91932059,5.73518199 4.10488323,5.73518199 L2.74055202,5.73518199 L0.45576787,5.73518199 C0.426043878,5.73518199 0.394338287,5.73313969 0.364614296,5.73109739 L2.13162821e-14,5.73109739 L2.13162821e-14,16.2628415 C2.13162821e-14,16.8591722 0.469639066,17.3431765 1.0482661,17.3431765 L2.19759377,17.3431765 L6.6661005,17.3431765 L8.22165605,17.3431765 Z" id="Shape"></path>
                <path d="M0.45576787,4.33988382 L3.32710545,4.33988382 C3.32908705,4.33988382 3.33305025,4.33988382 3.33503185,4.33988382 C3.81457891,4.33579922 4.2029724,3.93550876 4.2069356,3.44127258 C4.2069356,3.43923028 4.2069356,3.43514568 4.2069356,3.43310339 L4.2069356,0.4717709 C4.2069356,0.198102932 3.98895966,0.0163383861 3.76307714,0.0163383861 C3.65408917,0.0163383861 3.5451012,0.0571843515 3.45394763,0.151130072 L0.142675159,3.56381047 C-0.134748762,3.84973223 0.0614295824,4.33988382 0.45576787,4.33988382 Z" id="Path"></path>
            </g>
        </g>
    </g>
</svg>