<?xml version="1.0" encoding="utf-8"?>
<svg width="9px" height="9px" viewBox="0 0 9 9" version="1.1" xmlns:xlink="http://www.w3.org/1999/xlink" xmlns="http://www.w3.org/2000/svg">
  <path d="M3.5355 1.93718L3.5355 0.321344C3.53544 0.143816 3.39149 -5.6485e-05 3.21396 1.66364e-08C3.12291 1.88505e-05 3.03616 0.038666 2.97522 0.106298L0.082271 3.32062C-0.0235218 3.43845 -0.0277595 3.61575 0.0723076 3.73849L2.96527 7.27423C3.07767 7.41162 3.28018 7.43189 3.4176 7.31949C3.49203 7.2586 3.53529 7.16757 3.5355 7.07141L3.5355 5.46972C6.07489 5.55232 7.65957 6.6378 8.37383 8.78047C8.41764 8.91155 8.54035 8.99994 8.67855 9C8.69588 9.00005 8.71321 8.99864 8.73031 8.99582C8.88581 8.97045 9 8.83612 9 8.67856C8.99998 4.89338 6.7213 2.11267 3.5355 1.93718Z" id="Path" fill="#444444" stroke="none" />
</svg>