<?xml version="1.0" encoding="UTF-8"?>
<svg width="22px" height="22px" viewBox="0 0 22 22" version="1.1" xmlns="http://www.w3.org/2000/svg" xmlns:xlink="http://www.w3.org/1999/xlink">
    <title>gear-6</title>
    <g id="Page-1" stroke="none" stroke-width="1" fill="none" fill-rule="evenodd">
        <g id="21.1-звонок-чат" transform="translate(-491.000000, -162.000000)" fill="#BABABA" fill-rule="nonzero">
            <g id="Group-3" transform="translate(302.000000, 161.000000)">
                <g id="gear-6" transform="translate(189.000000, 1.000000)">
                    <path d="M21.5101563,9.13515625 L18.9363281,8.50351563 C18.7945313,8.05234375 18.6140625,7.6140625 18.3949219,7.18867188 L19.7097656,4.99726563 C19.8644531,4.73945313 19.8257813,4.4171875 19.6195313,4.2109375 L17.7890625,2.38046875 C17.5828125,2.17421875 17.2605469,2.13554687 17.0027344,2.29023437 L14.8113281,3.60507813 C14.3859375,3.3859375 13.9476562,3.20546875 13.4964844,3.06367188 L12.8777344,0.48984375 C12.8003906,0.20625 12.5425781,0 12.2460938,0 L9.66796875,0 C9.37148437,0 9.11367187,0.20625 9.03632813,0.48984375 L8.41757813,3.06367187 C7.96640625,3.20546875 7.528125,3.3859375 7.10273438,3.60507812 L4.91132813,2.29023437 C4.65351563,2.13554687 4.33125,2.17421875 4.125,2.38046875 L2.29453125,4.2109375 C2.08828125,4.4171875 2.04960937,4.73945312 2.20429687,4.99726562 L3.51914063,7.18867188 C3.3,7.6140625 3.11953125,8.05234375 2.97773438,8.50351563 L0.48984375,9.13515625 C0.20625,9.19960937 0,9.45742187 0,9.75390625 L0,12.3320312 C0,12.6285156 0.20625,12.8863281 0.48984375,12.9507812 L2.97773437,13.5824219 C3.11953125,14.0335937 3.3,14.471875 3.51914062,14.8972656 L2.20429687,17.0886719 C2.04960937,17.3464844 2.08828125,17.66875 2.29453125,17.875 L4.125,19.7054688 C4.33125,19.9117188 4.65351562,19.9503906 4.91132812,19.7957031 L7.10273438,18.4808594 C7.528125,18.7 7.96640625,18.8804688 8.41757813,19.0222656 L9.03632813,21.5101563 C9.11367188,21.79375 9.37148438,22 9.66796875,22 L12.2460938,22 C12.5425781,22 12.8003906,21.79375 12.8777344,21.5101563 L13.4964844,19.0222656 C13.9476562,18.8804688 14.3859375,18.7 14.8113281,18.4808594 L17.0027344,19.7957031 C17.2605469,19.9503906 17.5828125,19.9117188 17.7890625,19.7054688 L19.6195313,17.875 C19.8257813,17.66875 19.8644531,17.3464844 19.7097656,17.0886719 L18.3949219,14.8972656 C18.6140625,14.471875 18.7945313,14.0335937 18.9363281,13.5824219 L21.5101563,12.9507812 C21.79375,12.8863281 22,12.6285156 22,12.3320312 L22,9.75390625 C22,9.45742187 21.79375,9.19960937 21.5101563,9.13515625 Z M10.9570312,14.265625 C9.178125,14.265625 7.734375,12.821875 7.734375,11.0429688 C7.734375,9.2640625 9.178125,7.8203125 10.9570312,7.8203125 C12.7359375,7.8203125 14.1796875,9.2640625 14.1796875,11.0429688 C14.1796875,12.821875 12.7359375,14.265625 10.9570312,14.265625 Z" id="Shape"></path>
                </g>
            </g>
        </g>
    </g>
</svg>