<?xml version="1.0" encoding="UTF-8"?>
<svg width="19px" height="19px" viewBox="0 0 19 19" version="1.1" xmlns="http://www.w3.org/2000/svg" xmlns:xlink="http://www.w3.org/1999/xlink">
    <title>info-2</title>
    <g id="Page-1" stroke="none" stroke-width="1" fill="none" fill-rule="evenodd">
        <g id="21-чат" transform="translate(-1146.000000, -115.000000)" fill="#4086F1" fill-rule="nonzero">
            <g id="info-2" transform="translate(1146.000000, 115.000000)">
                <path d="M9.48617524,0 C4.25556571,0 0,4.25556571 0,9.48617524 C0,14.7167848 4.25556571,18.9723505 9.48617524,18.9723505 C14.7167848,18.9723505 18.9723505,14.7167848 18.9723505,9.48617524 C18.9723505,4.25556571 14.7167486,0 9.48617524,0 Z M10.1032229,15.1145543 C9.65254286,15.1896857 8.75577905,15.3773333 8.30039429,15.4150438 C7.91492952,15.4469638 7.55117905,15.2263105 7.32944,14.9095714 C7.1071219,14.5928686 7.05384952,14.1875714 7.18583619,13.8239657 L8.97896571,8.89330286 L7.11461333,8.89330286 C7.11302095,7.86589143 7.88366095,7.11045143 8.86930857,6.82052952 C9.33967619,6.68213714 10.2160286,6.49275238 10.67192,6.52177714 C10.9450495,6.53914857 11.4211352,6.71051048 11.6428743,7.02724952 C11.8651924,7.34395238 11.9184648,7.74924952 11.7864781,8.11285524 L9.99334857,13.0435181 L11.8571219,13.0435181 C11.8574838,14.0697352 11.115579,14.9458343 10.1032229,15.1145543 L10.1032229,15.1145543 Z M10.67192,5.92886857 C10.0170171,5.92886857 9.48613905,5.3979181 9.48613905,4.74308762 C9.48613905,4.08818476 10.0170171,3.55730667 10.67192,3.55730667 C11.3268229,3.55730667 11.857701,4.08818476 11.857701,4.74308762 C11.857701,5.39795429 11.326859,5.92886857 10.67192,5.92886857 Z" id="Shape"></path>
            </g>
        </g>
    </g>
</svg>