<?xml version="1.0" encoding="UTF-8"?>
<svg width="15px" height="10px" viewBox="0 0 15 10" version="1.1" xmlns="http://www.w3.org/2000/svg" xmlns:xlink="http://www.w3.org/1999/xlink">
    <title>Group 7</title>
    <g id="Page-1" stroke="none" stroke-width="1" fill="none" fill-rule="evenodd">
        <g id="5-Файлообменник-стартовый-экран" transform="translate(-642.000000, -113.000000)" fill="#B6B6B6">
            <g id="Group-7" transform="translate(642.000000, 113.000000)">
                <g id="Group-3" transform="translate(-0.000000, 0.000000)">
                    <path d="M0.75,0 L13.5,0 C13.9142136,-1.17977644e-15 14.25,0.335786438 14.25,0.75 L14.25,1.5 C14.25,1.91421356 13.9142136,2.25 13.5,2.25 L0.75,2.25 C0.335786438,2.25 1.61748834e-16,1.91421356 0,1.5 L0,0.75 C6.02957711e-17,0.335786438 0.335786438,7.6089797e-17 0.75,0 Z" id="Rectangle"></path>
                    <path d="M0.75,3.75 L13.5,3.75 C13.9142136,3.75 14.25,4.08578644 14.25,4.5 L14.25,5.25 C14.25,5.66421356 13.9142136,6 13.5,6 L0.75,6 C0.335786438,6 1.61748834e-16,5.66421356 0,5.25 L0,4.5 C6.02957711e-17,4.08578644 0.335786438,3.75 0.75,3.75 Z" id="Rectangle"></path>
                    <path d="M0.75,7.5 L13.5,7.5 C13.9142136,7.5 14.25,7.83578644 14.25,8.25 L14.25,9 C14.25,9.41421356 13.9142136,9.75 13.5,9.75 L0.75,9.75 C0.335786438,9.75 1.61748834e-16,9.41421356 0,9 L0,8.25 C6.02957711e-17,7.83578644 0.335786438,7.5 0.75,7.5 Z" id="Rectangle"></path>
                </g>
            </g>
        </g>
    </g>
</svg>