<?xml version="1.0" encoding="utf-8"?>
<svg width="16px" height="12px" viewBox="0 0 16 12" version="1.1" xmlns="http://www.w3.org/2000/svg">
    <g id="mail-3">
        <path d="M0.117718 0.973625C2.30937 2.83334 6.15505 6.10516 7.28534 7.12531C7.43708 7.263 7.59982 7.333 7.76877 7.333C7.93738 7.333 8.09985 7.26366 8.25124 7.12663C9.3825 6.10547 13.2282 2.83334 15.4199 0.973625C15.5563 0.858063 15.5771 0.654938 15.4666 0.513656C15.2113 0.187188 14.8305 0 14.4224 0L1.11511 0C0.707067 0 0.326279 0.187188 0.070934 0.513687C-0.0395377 0.654938 -0.0187346 0.858063 0.117718 0.973625Z"
              transform="translate(0.21563128 0)" id="Path" stroke="none"/>
        <path d="M5.22322 0.0310764C5.10529 -0.0239236 4.96656 -0.00473609 4.86844 0.0792639C3.43309 1.29833 1.54194 2.90901 0.115694 4.13817C0.0406532 4.20264 -0.00157678 4.29736 4.50569e-05 4.39664C0.00166689 4.49561 0.0474837 4.58901 0.124801 4.65086C1.45003 5.71433 3.44709 7.17723 4.88925 8.21695C4.94676 8.25861 5.01497 8.27976 5.08352 8.27976C5.13551 8.27976 5.18748 8.26773 5.23526 8.24298C5.34638 8.18601 5.41622 8.07142 5.41622 7.94642L5.41622 0.333483C5.41618 0.203608 5.3408 0.0854514 5.22322 0.0310764Z"
              transform="translate(10.552626 1.9503611)" id="Path" stroke="none"/>
        <path d="M0.526971 8.21666C1.96947 7.17695 3.96688 5.71407 5.29176 4.65057C5.36908 4.58873 5.41489 4.49529 5.41651 4.39635C5.41814 4.29707 5.37591 4.20235 5.30087 4.13788C3.87459 2.90873 1.9831 1.29804 0.547774 0.0789763C0.448998 -0.00502367 0.309957 -0.0235549 0.192998 0.0307888C0.075384 0.0851638 0 0.20332 0 0.333195L0 7.94616C0 8.07116 0.0698636 8.18576 0.180959 8.24273C0.22871 8.26748 0.280702 8.27951 0.332694 8.27951C0.401248 8.27951 0.469458 8.25835 0.526971 8.21666Z"
              transform="translate(0 1.9506487)" id="Path" stroke="none"/>
        <path d="M15.2921 4.17998C13.8993 3.18161 11.3337 1.32029 9.80218 0.0748252C9.67743 -0.0270498 9.49678 -0.0237998 9.37399 0.0823252C9.07348 0.345013 8.822 0.566388 8.64363 0.727169C8.09586 1.22261 7.33563 1.22261 6.78657 0.726513C6.60886 0.566044 6.35741 0.344013 6.05687 0.0822939C5.93505 -0.0244873 5.75409 -0.0277373 5.62899 0.0747939C4.10266 1.31601 1.53411 3.17961 0.139056 4.17995C0.0613954 4.23595 0.0113681 4.3222 0.00163709 4.41757C-0.00778201 4.51295 0.023719 4.60767 0.0890289 4.67798C0.34085 4.94982 0.695625 5.10576 1.06179 5.10576L14.3691 5.10576C14.7353 5.10576 15.0897 4.94982 15.3422 4.67801C15.4071 4.60801 15.439 4.51329 15.4296 4.41792C15.4198 4.32258 15.3698 4.23598 15.2921 4.17998Z"
              transform="translate(0.2689594 6.8942375)" id="Path" stroke="none"/>
    </g>
</svg>