<?xml version="1.0" encoding="UTF-8"?>
<svg width="28px" height="22px" viewBox="0 0 28 22" version="1.1" xmlns="http://www.w3.org/2000/svg" xmlns:xlink="http://www.w3.org/1999/xlink">
    <title>men</title>
    <g id="Page-1" stroke="none" stroke-width="1" fill="none" fill-rule="evenodd">
        <g id="21.1-звонок-чат" transform="translate(-395.000000, -161.000000)" fill="#BABABA" fill-rule="nonzero">
            <g id="Group-3" transform="translate(302.000000, 161.000000)">
                <g id="men" transform="translate(93.000000, 0.000000)">
                    <path d="M5.68829545,13.6604358 C5.68829545,13.0332339 5.80522727,12.4315642 6.01925758,11.8739954 L3.9194697,11.8739954 C1.75827273,11.8739954 0,13.5470046 0,15.6033991 L0,19.7198716 C0,20.9536881 1.05493182,21.9575138 2.35168182,21.9575138 L5.82315152,21.9575138 C5.73612879,21.7239908 5.68829545,21.4730596 5.68829545,21.2115826 L5.68829545,13.6604358 Z" id="Path"></path>
                    <path d="M15.9759621,9.93103211 L11.175553,9.93103211 C9.01435606,9.93103211 7.25608333,11.6040413 7.25608333,13.6604358 L7.25608333,21.2115826 C7.25608333,21.6234771 7.60703788,21.9574633 8.03997727,21.9574633 L19.1115379,21.9574633 C19.5444773,21.9574633 19.8954318,21.6235275 19.8954318,21.2115826 L19.8954318,13.6604358 C19.8954318,11.6040413 18.1371591,9.93103211 15.9759621,9.93103211 Z" id="Path"></path>
                    <path d="M13.5757576,0.0423853211 C10.9766364,0.0423853211 8.86210606,2.05437615 8.86210606,4.52750917 C8.86210606,6.20500917 9.83515909,7.67007798 11.2721742,8.43927064 C11.9537727,8.80408716 12.7395758,9.01258257 13.5757576,9.01258257 C14.4119394,9.01258257 15.1977424,8.80408716 15.8793409,8.43927064 C17.3164091,7.67007798 18.2894091,6.20495872 18.2894091,4.52750917 C18.2894091,2.05442661 16.1748788,0.0423853211 13.5757576,0.0423853211 Z" id="Path"></path>
                    <path d="M5.29868182,4.22283945 C3.35485606,4.22283945 1.77349242,5.72751835 1.77349242,7.57708257 C1.77349242,9.42664679 3.35485606,10.9313257 5.29868182,10.9313257 C5.79175758,10.9313257 6.26128788,10.8341422 6.68781061,10.6594541 C7.42525,10.3573578 8.03329545,9.82259633 8.40954545,9.15275688 C8.67363636,8.68263303 8.82387121,8.14630734 8.82387121,7.57708257 C8.82387121,5.72756881 7.24250758,4.22283945 5.29868182,4.22283945 Z" id="Path"></path>
                    <path d="M26.9004167,13.6604358 C26.9004167,13.0332339 27.0173485,12.4315642 27.2313788,11.8739954 L25.1315909,11.8739954 C22.9703939,11.8739954 21.2121212,13.5470046 21.2121212,15.6033991 L21.2121212,19.7198716 C21.2121212,20.9536881 22.267053,21.9575138 23.563803,21.9575138 L27.0352727,21.9575138 C26.94825,21.7239908 26.9004167,21.4730596 26.9004167,21.2115826 L26.9004167,13.6604358 Z" id="Path" transform="translate(24.221750, 16.915755) scale(-1, 1) translate(-24.221750, -16.915755) "></path>
                    <path d="M22.2683788,4.22283945 C20.324553,4.22283945 18.7431894,5.72751835 18.7431894,7.57708257 C18.7431894,9.42664679 20.324553,10.9313257 22.2683788,10.9313257 C22.7614545,10.9313257 23.2309848,10.8341422 23.6575076,10.6594541 C24.394947,10.3573578 25.0029924,9.82259633 25.3792424,9.15275688 C25.6433333,8.68263303 25.7935682,8.14630734 25.7935682,7.57708257 C25.7935682,5.72756881 24.2122045,4.22283945 22.2683788,4.22283945 Z" id="Path" transform="translate(22.268379, 7.577083) scale(-1, 1) translate(-22.268379, -7.577083) "></path>
                </g>
            </g>
        </g>
    </g>
</svg>