<?xml version="1.0" encoding="UTF-8"?>
<svg width="13px" height="9px" viewBox="0 0 13 9" version="1.1" xmlns="http://www.w3.org/2000/svg" xmlns:xlink="http://www.w3.org/1999/xlink">
    <title>Group 6</title>
    <g id="Page-1" stroke="none" stroke-width="1" fill="none" fill-rule="evenodd">
        <g id="5-Файлообменник-стартовый-экран" transform="translate(-780.000000, -113.000000)" fill="#B6B6B6">
            <g id="Group-3" transform="translate(780.000000, 113.000000)">
                <path d="M0.375,-2.84217094e-14 L12.375,-2.84217094e-14 C12.5821068,-2.84597543e-14 12.75,0.167893219 12.75,0.375 C12.75,0.582106781 12.5821068,0.75 12.375,0.75 L0.375,0.75 C0.167893219,0.75 2.53632657e-17,0.582106781 0,0.375 C-2.53632657e-17,0.167893219 0.167893219,-2.83836645e-14 0.375,-2.84217094e-14 Z" id="Rectangle"></path>
                <path d="M0.75,1.5 L3,1.5 C3.41421356,1.5 3.75,1.83578644 3.75,2.25 L3.75,3 C3.75,3.41421356 3.41421356,3.75 3,3.75 L0.75,3.75 C0.335786438,3.75 -6.02957711e-17,3.41421356 0,3 L0,2.25 C-5.07265313e-17,1.83578644 0.335786438,1.5 0.75,1.5 Z" id="Rectangle"></path>
                <path d="M5.25,1.5 L7.5,1.5 C7.91421356,1.5 8.25,1.83578644 8.25,2.25 L8.25,3 C8.25,3.41421356 7.91421356,3.75 7.5,3.75 L5.25,3.75 C4.83578644,3.75 4.5,3.41421356 4.5,3 L4.5,2.25 C4.5,1.83578644 4.83578644,1.5 5.25,1.5 Z" id="Rectangle"></path>
                <path d="M9.75,1.5 L12,1.5 C12.4142136,1.5 12.75,1.83578644 12.75,2.25 L12.75,3 C12.75,3.41421356 12.4142136,3.75 12,3.75 L9.75,3.75 C9.33578644,3.75 9,3.41421356 9,3 L9,2.25 C9,1.83578644 9.33578644,1.5 9.75,1.5 Z" id="Rectangle"></path>
                <path d="M0.375,5.25 L12.375,5.25 C12.5821068,5.25 12.75,5.41789322 12.75,5.625 C12.75,5.83210678 12.5821068,6 12.375,6 L0.375,6 C0.167893219,6 2.53632657e-17,5.83210678 0,5.625 C-2.53632657e-17,5.41789322 0.167893219,5.25 0.375,5.25 Z" id="Rectangle"></path>
                <path d="M0.75,6.75 L3,6.75 C3.41421356,6.75 3.75,7.08578644 3.75,7.5 L3.75,8.25 C3.75,8.66421356 3.41421356,9 3,9 L0.75,9 C0.335786438,9 -6.02957711e-17,8.66421356 0,8.25 L0,7.5 C-5.07265313e-17,7.08578644 0.335786438,6.75 0.75,6.75 Z" id="Rectangle"></path>
                <path d="M5.25,6.75 L7.5,6.75 C7.91421356,6.75 8.25,7.08578644 8.25,7.5 L8.25,8.25 C8.25,8.66421356 7.91421356,9 7.5,9 L5.25,9 C4.83578644,9 4.5,8.66421356 4.5,8.25 L4.5,7.5 C4.5,7.08578644 4.83578644,6.75 5.25,6.75 Z" id="Rectangle"></path>
                <path d="M9.75,6.75 L12,6.75 C12.4142136,6.75 12.75,7.08578644 12.75,7.5 L12.75,8.25 C12.75,8.66421356 12.4142136,9 12,9 L9.75,9 C9.33578644,9 9,8.66421356 9,8.25 L9,7.5 C9,7.08578644 9.33578644,6.75 9.75,6.75 Z" id="Rectangle"></path>
            </g>
        </g>
    </g>
</svg>