<svg width="12" height="13" viewBox="0 0 12 13" fill="none" xmlns="http://www.w3.org/2000/svg">
<path fill-rule="evenodd" clip-rule="evenodd" d="M10.2223 13C11.204 13 12 12.2836 12 11.4V1.6C12 0.716382 11.204 0 10.2222 0H2.44444C1.46268 0 0.666667 0.716412 0.666667 1.6V2.39994H1.66667C2.21801 2.39994 2.66667 2.80374 2.66667 3.29994C2.66667 3.79615 2.21801 4.19994 1.66667 4.19994H0.666667V5.59994H1.66667C2.21801 5.59994 2.66667 6.00374 2.66667 6.49994C2.66667 6.99615 2.21801 7.39994 1.66667 7.39994H0.666667V8.79994H1.66673C2.21807 8.79994 2.66673 9.20379 2.66673 9.7C2.66673 10.1962 2.21807 10.6 1.66673 10.6H0.666732V11.4C0.666732 12.2836 1.46275 13 2.44451 13H10.2223ZM1.66667 2.8C1.97356 2.8 2.22222 3.02379 2.22222 3.3C2.22222 3.57621 1.97359 3.8 1.66667 3.8H0.555556C0.24866 3.8 0 3.57621 0 3.3C0 3.02379 0.24866 2.8 0.555556 2.8H1.66667ZM1.66667 7C1.97356 7 2.22222 6.77621 2.22222 6.5C2.22222 6.22379 1.97359 6 1.66667 6H0.555556C0.24866 6 0 6.22379 0 6.5C0 6.77621 0.24866 7 0.555556 7H1.66667ZM2.22222 9.70003C2.22222 9.42376 1.97356 9.20003 1.66667 9.20003H0.555556C0.24866 9.20003 0 9.42376 0 9.70003C0 9.97624 0.24866 10.2 0.555556 10.2H1.66667C1.97359 10.2 2.22222 9.97621 2.22222 9.70003ZM4.95245 4.74279C4.95245 5.59479 5.72 6.28559 6.66667 6.28559C7.61337 6.28559 8.38088 5.59479 8.38088 4.74279C8.38088 3.89079 7.61337 3.19997 6.66667 3.19997C5.72003 3.2 4.95245 3.89079 4.95245 4.74279ZM7.42866 6.79997C8.48046 6.79997 9.33333 7.56759 9.33333 8.51418V9.2H4V8.51418C4 7.56762 4.85291 6.79997 5.9049 6.79997H7.42866Z" fill="#979797"/>
</svg>
