<svg width="11" height="14" viewBox="0 0 11 14" fill="none" xmlns="http://www.w3.org/2000/svg">
<path fill-rule="evenodd" clip-rule="evenodd" d="M9.625 5.25H9.16667V3.5C9.16667 1.56975 7.52217 0 5.5 0C3.47783 0 1.83333 1.56975 1.83333 3.5V5.25H1.375C0.617222 5.25 0 5.83858 0 6.5625V12.6875C0 13.4114 0.617222 14 1.375 14H9.625C10.3828 14 11 13.4114 11 12.6875V6.5625C11 5.83858 10.3828 5.25 9.625 5.25ZM3.05556 3.5C3.05556 2.21317 4.15189 1.16667 5.5 1.16667C6.84811 1.16667 7.94444 2.21317 7.94444 3.5V5.25H3.05556V3.5ZM6.11111 11.0833V9.7545C6.47472 9.55208 6.72222 9.17992 6.72222 8.75C6.72222 8.10658 6.17406 7.58333 5.5 7.58333C4.82594 7.58333 4.27778 8.10658 4.27778 8.75C4.27778 9.17992 4.52528 9.55208 4.88889 9.7545V11.0833C4.88889 11.4053 5.16206 11.6667 5.5 11.6667C5.83794 11.6667 6.11111 11.4053 6.11111 11.0833Z" fill="#979797"/>
</svg>
