<?xml version="1.0" encoding="utf-8"?>
<svg width="14px" height="14px" viewBox="0 0 14 14" version="1.1" xmlns:xlink="http://www.w3.org/1999/xlink" xmlns="http://www.w3.org/2000/svg">
  <path d="M13.5642 1.70016L12.2956 0.433887C11.7159 -0.144643 10.7728 -0.144616 10.1932 0.433887C9.64742 0.978632 1.31151 9.29892 0.754439 9.85493C0.695103 9.91415 0.655345 9.99286 0.641181 10.0698L0.00686095 13.4888C-0.0177211 13.6213 0.024607 13.7575 0.120119 13.8528C0.21574 13.9483 0.352185 13.9904 0.48483 13.9659L3.91015 13.3327C3.98931 13.318 4.06713 13.2779 4.12549 13.2197L13.5642 3.79861C14.1452 3.21874 14.1453 2.28011 13.5642 1.70016ZM0.922056 13.0524L1.30577 10.9842L2.99414 12.6694L0.922056 13.0524ZM3.83548 12.3512L1.62449 10.1444L9.69664 2.08739L11.9076 4.29423L3.83548 12.3512ZM12.9842 3.2197L12.4876 3.71532L10.2767 1.50848L10.7732 1.01285C11.033 0.75354 11.4557 0.753513 11.7155 1.01285L12.9842 2.27913C13.2446 2.53907 13.2446 2.95973 12.9842 3.2197Z" id="Shape" fill="#FFFFFF" stroke="none" />
</svg>