<?xml version="1.0" encoding="utf-8"?>
<svg width="15px" height="15px" viewBox="0 0 15 15" version="1.1" xmlns="http://www.w3.org/2000/svg">
    <g id="phone-3">
        <path d="M14.5657 11.0008L12.4739 8.90895C11.7268 8.16187 10.4568 8.46073 10.158 9.43191C9.93383 10.1043 9.18675 10.4779 8.51438 10.3284C7.02022 9.95486 5.00311 8.01245 4.62957 6.44358C4.40545 5.77118 4.8537 5.0241 5.52607 4.8C6.49727 4.50117 6.7961 3.23113 6.04902 2.48405L3.9572 0.392218C3.35954 -0.130739 2.46305 -0.130739 1.94009 0.392218L0.520644 1.81167C-0.898804 3.30584 0.67006 7.26537 4.18133 10.7767C7.69259 14.2879 11.6521 15.9315 13.1463 14.4374L14.5657 13.0179C15.0887 12.4202 15.0887 11.5237 14.5657 11.0008Z"
              id="Path" stroke="none"/>
    </g>
</svg>