<?xml version="1.0" encoding="UTF-8"?>
<svg width="19px" height="19px" viewBox="0 0 19 19" version="1.1" xmlns="http://www.w3.org/2000/svg" xmlns:xlink="http://www.w3.org/1999/xlink">
    <title>phone-5</title>
    <g id="Page-1" stroke="none" stroke-width="1" fill="none" fill-rule="evenodd">
        <g id="21-чат" transform="translate(-1061.000000, -114.000000)" fill="#4086F1" fill-rule="nonzero">
            <g id="phone-5" transform="translate(1061.000000, 114.000000)">
                <path d="M18.4699222,13.9343191 L15.8202724,11.2846693 C14.8739689,10.3383658 13.2652529,10.7169241 12.8867315,11.9470817 C12.6028405,12.7987918 11.656537,13.2719436 10.8048638,13.0826459 C8.91225681,12.6094942 6.35723735,10.1491051 5.8840856,8.1618677 C5.60019455,7.31015759 6.16797665,6.36385409 7.01964981,6.08 C8.24984436,5.7014786 8.62836576,4.09276265 7.68206226,3.14645914 L5.03241245,0.496809339 C4.27536965,-0.165603113 3.13980545,-0.165603113 2.477393,0.496809339 L0.679416342,2.29478599 C-1.11856031,4.187393 0.868677043,9.20280156 5.3163035,13.650428 C9.76392996,18.0980545 14.7793385,20.1799591 16.6719455,18.2873152 L18.4699222,16.4893385 C19.1323716,15.7322957 19.1323716,14.5967315 18.4699222,13.9343191 Z" id="Path"></path>
            </g>
        </g>
    </g>
</svg>