<?xml version="1.0" encoding="UTF-8"?>
<svg width="20px" height="18px" viewBox="0 0 20 18" version="1.1" xmlns="http://www.w3.org/2000/svg" xmlns:xlink="http://www.w3.org/1999/xlink">
    <title>photo-5</title>
    <g id="Page-1" stroke="none" stroke-width="1" fill="none" fill-rule="evenodd">
        <g id="21-чат" transform="translate(-639.000000, -872.000000)" fill="#4086F1" fill-rule="nonzero">
            <g id="photo-5" transform="translate(639.000000, 872.000000)">
                <path d="M5.20782469,14.3168218 C3.87374879,14.3168218 2.68707273,13.4793551 2.25616453,12.2325798 L2.22702027,12.1386303 C2.12539672,11.8084608 2.08282469,11.5308012 2.08282469,11.252992 L2.08282469,5.68244681 L0.0611877344,12.2987034 C-0.198822031,13.2718584 0.393676758,14.280768 1.38778687,14.5496011 L14.2736816,17.9329787 C14.4345093,17.9738198 14.5953369,17.9934176 14.7537231,17.9934176 C15.5836487,17.9934176 16.3420105,17.4533577 16.5545654,16.65748 L17.3052979,14.3168218 L5.20782469,14.3168218 Z" id="Path"></path>
                <path d="M7.49954223,5.7380984 C8.41873168,5.7380984 9.16610719,5.00520278 9.16610719,4.10400597 C9.16610719,3.20280917 8.41873168,2.46991358 7.49954223,2.46991358 C6.58035277,2.46991358 5.83282469,3.20280917 5.83282469,4.10400597 C5.83282469,5.00520278 6.58035277,5.7380984 7.49954223,5.7380984 Z" id="Path"></path>
                <path d="M17.9161072,0.0188497532 L5.41610719,0.0188497532 C4.26788328,0.0188497532 3.33282469,0.935605072 3.33282469,2.06150266 L3.33282469,11.048637 C3.33282469,12.1745346 4.26788328,13.0912899 5.41610719,13.0912899 L17.9161072,13.0912899 C19.0644836,13.0912899 19.9995422,12.1745346 19.9995422,11.048637 L19.9995422,2.06150266 C19.9995422,0.935605072 19.0644836,0.0188497532 17.9161072,0.0188497532 Z M5.41610719,1.65294214 L17.9161072,1.65294214 C18.1462097,1.65294214 18.3328247,1.83590426 18.3328247,2.06150266 L18.3328247,7.86153592 L15.7003784,4.8499169 C15.4211426,4.528873 15.0169373,4.3572806 14.5828247,4.34755651 C14.1511536,4.34995012 13.7461853,4.53784906 13.4695434,4.86308179 L10.3744507,8.50526927 L9.36614992,7.51909906 C8.79623414,6.96033911 7.86865234,6.96033911 7.29949953,7.51909906 L4.99954223,9.77328789 L4.99954223,2.06150266 C4.99954223,1.83590426 5.18615723,1.65294214 5.41610719,1.65294214 Z" id="Shape"></path>
            </g>
        </g>
    </g>
</svg>