<?xml version="1.0" encoding="utf-8"?>
<svg width="21px" height="17px" viewBox="0 0 21 17" version="1.1" xmlns:xlink="http://www.w3.org/1999/xlink" xmlns="http://www.w3.org/2000/svg">
  <g id="picture">
    <path d="M20.6379 0L0.362069 0C0.162207 0 0 0.160337 0 0.358696L0 16.1413C0 16.3397 0.162207 16.5 0.362069 16.5L20.6379 16.5C20.8378 16.5 21 16.3397 21 16.1413L21 0.358696C21 0.160337 20.8378 0 20.6379 0ZM20.2759 15.7826L0.724138 15.7826L0.724138 0.717391L20.2759 0.717391L20.2759 15.7826Z" id="Shape" fill="#36B817" stroke="none" />
    <path d="M2.01636 3.99515C3.12828 3.99515 4.03272 3.09913 4.03272 1.99793C4.03272 0.896022 3.12828 0 2.01636 0C0.904448 0 0 0.896022 0 1.99758C-6.43164e-16 3.09913 0.904448 3.99515 2.01636 3.99515ZM2.01636 0.717391C2.72891 0.717391 3.30859 1.29202 3.30859 1.99758C3.30859 2.70313 2.72891 3.27776 2.01636 3.27776C1.30381 3.27776 0.724138 2.70349 0.724138 1.99793C0.724138 1.29238 1.30381 0.717391 2.01636 0.717391Z" transform="translate(3.7767413 3.9456522)" id="Shape" fill="#36B817" stroke="none" />
    <path d="M0.362261 8.24974C0.446985 8.24974 0.532433 8.22033 0.601226 8.16043L6.50766 3.00884L10.2377 6.70377C10.3793 6.84402 10.6081 6.84402 10.7497 6.70377C10.8912 6.56352 10.8912 6.33682 10.7497 6.19657L9.00919 4.47232L12.3333 0.865993L16.4106 4.56881C16.558 4.7026 16.7872 4.69256 16.9222 4.54657C17.0573 4.40058 17.0475 4.17353 16.8998 4.03973L12.5549 0.0940803C12.484 0.0298737 12.3895 -0.00205017 12.2942 0.000102002C12.1983 0.00440635 12.1078 0.0463737 12.043 0.116678L8.49686 3.96441L6.77957 2.26311C6.64416 2.12932 6.42764 2.1225 6.28426 2.24733L0.122933 7.62167C-0.0273257 7.75259 -0.0418084 7.97929 0.0903467 8.12815C0.162036 8.20885 0.261967 8.24974 0.362261 8.24974Z" transform="translate(2.1722221 6.098083)" id="Path" fill="#36B817" stroke="none" />
  </g>
</svg>