<svg width="18" height="15" viewBox="0 0 18 15" fill="none" xmlns="http://www.w3.org/2000/svg">
<path d="M5.17501 9.22539L1.15001 12.6754L0.575012 13.8254L1.72501 14.4004H16.675L17.25 13.8254V11.5254L12.075 5.77539L7.47501 10.9504L5.17501 9.22539Z" fill="#BABABA"/>
<path d="M16.1287 14.9367H1.79207C0.803744 14.9367 0 14.1329 0 13.1446V2.39217C0 1.40384 0.803744 0.600098 1.79207 0.600098H16.1287C17.117 0.600098 17.9207 1.40384 17.9207 2.39217V13.1446C17.9207 14.1329 17.117 14.9367 16.1287 14.9367ZM1.79207 1.49613C1.29836 1.49613 0.896036 1.89845 0.896036 2.39217V13.1446C0.896036 13.6383 1.29836 14.0406 1.79207 14.0406H16.1287C16.6224 14.0406 17.0247 13.6383 17.0247 13.1446V2.39217C17.0247 1.89845 16.6224 1.49613 16.1287 1.49613H1.79207Z" fill="#BABABA"/>
<path d="M4.48067 6.87321C3.49234 6.87321 2.6886 6.06946 2.6886 5.08113C2.6886 4.09281 3.49234 3.28906 4.48067 3.28906C5.469 3.28906 6.27274 4.09281 6.27274 5.08113C6.27274 6.06946 5.469 6.87321 4.48067 6.87321Z" fill="#BABABA"/>
<path d="M0.511108 13.9781C0.396416 13.9781 0.281723 13.9341 0.193911 13.8472C0.0191845 13.6725 0.0191845 13.3885 0.193911 13.2137L4.42589 8.98176C4.93305 8.4746 5.81923 8.4746 6.32638 8.98176L7.58621 10.2416L11.0736 6.0571C11.3272 5.75335 11.6999 5.57683 12.0969 5.57324H12.1067C12.4992 5.57324 12.871 5.74349 13.1273 6.04187L17.8136 11.5095C17.9748 11.6967 17.9533 11.9799 17.7652 12.1412C17.5779 12.3025 17.2957 12.2819 17.1335 12.0928L12.4472 6.62519C12.3603 6.52483 12.2402 6.46928 12.1067 6.46928C12.0135 6.46121 11.8495 6.52573 11.7626 6.63056L7.96075 11.1923C7.88011 11.2891 7.76273 11.3473 7.63639 11.3527C7.50915 11.3616 7.38818 11.3115 7.29948 11.2218L5.69288 9.61526C5.52353 9.4468 5.22874 9.4468 5.05939 9.61526L0.827409 13.8472C0.740493 13.9341 0.625801 13.9781 0.511108 13.9781Z" fill="#BABABA"/>
</svg>
