<?xml version="1.0" encoding="UTF-8"?>
<svg width="40px" height="40px" viewBox="0 0 40 40" version="1.1" xmlns="http://www.w3.org/2000/svg" xmlns:xlink="http://www.w3.org/1999/xlink">
    <title>plus-3</title>
    <g id="Page-1" stroke="none" stroke-width="1" fill="none" fill-rule="evenodd">
        <g id="5-Файлообменник-стартовый-экран" transform="translate(-656.000000, -213.000000)" fill="#4086F1" fill-rule="nonzero">
            <g id="plus-3" transform="translate(656.250000, 213.750000)">
                <path d="M19.5,0 C8.748,0 0,8.74725 0,19.5 C0,30.25275 8.748,39 19.5,39 C30.252,39 39,30.25275 39,19.5 C39,8.74725 30.252,0 19.5,0 Z M28.875,21 L21,21 L21,29.25 C21,30.078 20.328,30.75 19.5,30.75 C18.672,30.75 18,30.078 18,29.25 L18,21 L10.125,21 C9.297,21 8.625,20.328 8.625,19.5 C8.625,18.672 9.297,18 10.125,18 L18,18 L18,10.5 C18,9.672 18.672,9 19.5,9 C20.328,9 21,9.672 21,10.5 L21,18 L28.875,18 C29.703,18 30.375,18.672 30.375,19.5 C30.375,20.328 29.703,21 28.875,21 Z" id="Shape"></path>
            </g>
        </g>
    </g>
</svg>