<svg width="12" height="12" viewBox="0 0 12 12" fill="none" xmlns="http://www.w3.org/2000/svg">
<path d="M11.1724 6.62069H6.82759V11.1724C6.82759 11.6292 6.45683 12 6 12C5.54317 12 5.17241 11.6292 5.17241 11.1724V6.62069H0.827586C0.370759 6.62069 0 6.24993 0 5.7931C0 5.33628 0.370759 4.96552 0.827586 4.96552H5.17241V0.827586C5.17241 0.370759 5.54317 0 6 0C6.45683 0 6.82759 0.370759 6.82759 0.827586V4.96552H11.1724C11.6292 4.96552 12 5.33628 12 5.7931C12 6.24993 11.6292 6.62069 11.1724 6.62069Z" fill="white"/>
</svg>
