<svg width="13" height="13" viewBox="0 0 13 13" fill="none" xmlns="http://www.w3.org/2000/svg">
<path d="M11.0688 11.1191C8.52881 13.659 4.41811 13.6586 1.87845 11.1191C-0.661505 8.579 -0.661108 4.46829 1.87845 1.92873C2.07672 1.73037 2.39817 1.73037 2.59643 1.92873C2.79479 2.127 2.79479 2.44845 2.59643 2.64671C0.453402 4.78974 0.453699 8.25824 2.59643 10.401C4.73956 12.5442 8.20806 12.5438 10.3508 10.4011C12.4939 8.25794 12.4936 4.78944 10.3508 2.64671C10.1525 2.44845 10.1525 2.1269 10.3508 1.92873C10.5491 1.73047 10.8705 1.73037 11.0688 1.92873C13.6088 4.46869 13.6084 8.57939 11.0688 11.1191ZM6.47366 7.03156C6.75405 7.03156 6.98137 6.80423 6.98137 6.52384V0.533043C6.98137 0.252655 6.75405 0.0253296 6.47366 0.0253296C6.19327 0.0253296 5.96595 0.252655 5.96595 0.533043V6.52384C5.96595 6.80423 6.19327 7.03156 6.47366 7.03156Z" fill="#B6B6B6"/>
</svg>
