<?xml version="1.0" encoding="UTF-8"?>
<svg width="15px" height="10px" viewBox="0 0 15 10" version="1.1" xmlns="http://www.w3.org/2000/svg" xmlns:xlink="http://www.w3.org/1999/xlink">
    <title>Group 8</title>
    <g id="Page-1" stroke="none" stroke-width="1" fill="none" fill-rule="evenodd">
        <g id="5-Файлообменник-стартовый-экран" transform="translate(-683.000000, -113.000000)" fill="#B6B6B6">
            <g id="Group-8" transform="translate(683.000000, 113.000000)">
                <g id="Group-3" transform="translate(-0.000000, 0.000000)">
                    <path d="M0.75,0 L13.5,0 C13.9142136,-7.6089797e-17 14.25,0.335786438 14.25,0.75 L14.25,5.25 C14.25,5.66421356 13.9142136,6 13.5,6 L0.75,6 C0.335786438,6 5.07265313e-17,5.66421356 0,5.25 L0,0.75 C-5.07265313e-17,0.335786438 0.335786438,7.6089797e-17 0.75,0 Z" id="Rectangle"></path>
                    <path d="M0.75,7.5 L3,7.5 C3.41421356,7.5 3.75,7.83578644 3.75,8.25 L3.75,9 C3.75,9.41421356 3.41421356,9.75 3,9.75 L0.75,9.75 C0.335786438,9.75 -6.02957711e-17,9.41421356 0,9 L0,8.25 C-1.61748834e-16,7.83578644 0.335786438,7.5 0.75,7.5 Z" id="Rectangle"></path>
                    <path d="M11.25,7.5 L13.5,7.5 C13.9142136,7.5 14.25,7.83578644 14.25,8.25 L14.25,9 C14.25,9.41421356 13.9142136,9.75 13.5,9.75 L11.25,9.75 C10.8357864,9.75 10.5,9.41421356 10.5,9 L10.5,8.25 C10.5,7.83578644 10.8357864,7.5 11.25,7.5 Z" id="Rectangle"></path>
                    <path d="M6,7.5 L8.25,7.5 C8.66421356,7.5 9,7.83578644 9,8.25 L9,9 C9,9.41421356 8.66421356,9.75 8.25,9.75 L6,9.75 C5.58578644,9.75 5.25,9.41421356 5.25,9 L5.25,8.25 C5.25,7.83578644 5.58578644,7.5 6,7.5 Z" id="Rectangle"></path>
                </g>
            </g>
        </g>
    </g>
</svg>