<?xml version="1.0" encoding="UTF-8"?>
<svg width="13px" height="13px" viewBox="0 0 13 13" version="1.1" xmlns="http://www.w3.org/2000/svg" xmlns:xlink="http://www.w3.org/1999/xlink">
    <title>print</title>
    <g id="Page-1" stroke="none" stroke-width="1" fill="none" fill-rule="evenodd">
        <g id="7.2-Мои-файлы-(вид-линии)" transform="translate(-1186.000000, -340.000000)" fill="#B1B1B1" fill-rule="nonzero">
            <g id="Group-2" transform="translate(1136.000000, 339.000000)">
                <g id="print" transform="translate(50.000000, 1.000000)">
                    <path d="M10.2916667,2.70833333 L10.2916667,1.48958333 C10.2916667,0.667875 9.62379167,0 8.80208333,0 L4.19791667,0 C3.37620833,0 2.70833333,0.667875 2.70833333,1.48958333 L2.70833333,2.70833333 L10.2916667,2.70833333 Z" id="Path"></path>
                    <path d="M11.5104167,3.25 L1.48958333,3.25 C0.667875,3.25 0,3.917875 0,4.73958333 L0,8.26041667 C0,9.082125 0.667875,9.75 1.48958333,9.75 L2.16666667,9.75 L2.16666667,7.44791667 C2.16666667,6.92520833 2.591875,6.5 3.11458333,6.5 L9.88541667,6.5 C10.408125,6.5 10.8333333,6.92520833 10.8333333,7.44791667 L10.8333333,9.75 L11.5104167,9.75 C12.332125,9.75 13,9.082125 13,8.26041667 L13,4.73958333 C13,3.917875 12.332125,3.25 11.5104167,3.25 Z" id="Path"></path>
                    <path d="M9.88541667,7.04166667 L3.11458333,7.04166667 C2.89033333,7.04166667 2.70833333,7.22366667 2.70833333,7.44791667 L2.70833333,11.5104167 C2.70833333,12.332125 3.37620833,13 4.19791667,13 L8.80208333,13 C9.62379167,13 10.2916667,12.332125 10.2916667,11.5104167 L10.2916667,7.44791667 C10.2916667,7.22366667 10.1096667,7.04166667 9.88541667,7.04166667 Z M4.73958333,8.9375 L5.55208333,8.9375 C5.77633333,8.9375 5.95833333,9.1195 5.95833333,9.34375 C5.95833333,9.568 5.77633333,9.75 5.55208333,9.75 L4.73958333,9.75 C4.51533333,9.75 4.33333333,9.568 4.33333333,9.34375 C4.33333333,9.1195 4.51533333,8.9375 4.73958333,8.9375 Z M7.71875,11.375 L4.73958333,11.375 C4.51533333,11.375 4.33333333,11.193 4.33333333,10.96875 C4.33333333,10.7445 4.51533333,10.5625 4.73958333,10.5625 L7.71875,10.5625 C7.943,10.5625 8.125,10.7445 8.125,10.96875 C8.125,11.193 7.943,11.375 7.71875,11.375 Z" id="Shape"></path>
                </g>
            </g>
        </g>
    </g>
</svg>