<svg width="13" height="13" viewBox="0 0 13 13" fill="none" xmlns="http://www.w3.org/2000/svg">
<path d="M10.2917 2.70833V1.48958C10.2917 0.667875 9.62383 0 8.80212 0H4.19796C3.37625 0 2.70837 0.667875 2.70837 1.48958V2.70833H10.2917Z" fill="#B1B1B1"/>
<path d="M11.5104 3.25H1.48958C0.667875 3.25 0 3.91788 0 4.73958V8.26042C0 9.08212 0.667875 9.75 1.48958 9.75H2.16667V7.44792C2.16667 6.92521 2.59187 6.5 3.11458 6.5H9.88542C10.4081 6.5 10.8333 6.92521 10.8333 7.44792V9.75H11.5104C12.3321 9.75 13 9.08212 13 8.26042V4.73958C13 3.91788 12.3321 3.25 11.5104 3.25Z" fill="#B1B1B1"/>
<path fill-rule="evenodd" clip-rule="evenodd" d="M9.88546 7.0415H3.11462C2.89037 7.0415 2.70837 7.2235 2.70837 7.44775V11.5103C2.70837 12.332 3.37625 12.9998 4.19796 12.9998H8.80212C9.62383 12.9998 10.2917 12.332 10.2917 11.5103V7.44775C10.2917 7.2235 10.1097 7.0415 9.88546 7.0415ZM4.73962 8.93734H5.55212C5.77637 8.93734 5.95837 9.11934 5.95837 9.34359C5.95837 9.56784 5.77637 9.74984 5.55212 9.74984H4.73962C4.51537 9.74984 4.33337 9.56784 4.33337 9.34359C4.33337 9.11934 4.51537 8.93734 4.73962 8.93734ZM4.73962 11.3748H7.71879C7.94304 11.3748 8.12504 11.1928 8.12504 10.9686C8.12504 10.7443 7.94304 10.5623 7.71879 10.5623H4.73962C4.51537 10.5623 4.33337 10.7443 4.33337 10.9686C4.33337 11.1928 4.51537 11.3748 4.73962 11.3748Z" fill="#B1B1B1"/>
</svg>
