<?xml version="1.0" encoding="UTF-8"?>
<svg width="14px" height="18px" viewBox="0 0 14 18" version="1.1" xmlns="http://www.w3.org/2000/svg" xmlns:xlink="http://www.w3.org/1999/xlink">
    <title>radio-3</title>
    <g id="Page-1" stroke="none" stroke-width="1" fill="none" fill-rule="evenodd">
        <g id="21-чат" transform="translate(-1107.000000, -871.000000)" fill="#FFFFFF" fill-rule="nonzero">
            <g id="radio-3" transform="translate(1107.000000, 871.000000)">
                <path d="M13.9832589,9 C13.9832589,8.70735168 13.742606,8.4705963 13.4453125,8.4705963 C13.1481585,8.4705963 12.9075056,8.70735168 12.9075056,9 C12.9075056,12.2110291 10.2532087,14.8235779 6.99162946,14.8235779 C3.73005021,14.8235779 1.07561386,12.2110291 1.07561386,9 C1.07561386,8.70735168 0.835100429,8.4705963 0.537806929,8.4705963 C0.240513393,8.4705963 2.84217094e-14,8.70735168 2.84217094e-14,9 C2.84217094e-14,12.6161499 2.84988839,15.5834198 6.45382254,15.8554688 L6.45382254,16.9411926 L3.76464843,16.9411926 C3.46749443,16.9411926 3.2268415,17.177948 3.2268415,17.4705963 C3.2268415,17.7632446 3.46749443,18 3.76464843,18 L10.218471,18 C10.5157645,18 10.7562779,17.7632446 10.7562779,17.4705963 C10.7562779,17.177948 10.5157645,16.9411926 10.218471,16.9411926 L7.52943639,16.9411926 L7.52943639,15.8554688 C11.1333705,15.5834198 13.9832589,12.6161499 13.9832589,9 Z" id="Path"></path>
                <path d="M6.99162946,13.7647705 C9.66071429,13.7647705 11.8318917,11.6273804 11.8318917,9 L11.8318917,4.76477051 C11.8318917,2.13725282 9.66071429,0 6.99162946,0 C4.32254464,0 2.15122768,2.13725282 2.15122768,4.76477051 L2.15122768,9 C2.15122768,11.6273804 4.32254464,13.7647705 6.99162946,13.7647705 Z M6.99162946,4.23522949 C7.28864396,4.23522949 7.52943639,4.47225954 7.52943639,4.76477051 C7.52943639,5.05714416 7.28864396,5.2941742 6.99162946,5.2941742 C6.69461496,5.2941742 6.45382254,5.05714416 6.45382254,4.76477051 C6.45382254,4.47225954 6.69461496,4.23522949 6.99162946,4.23522949 Z M6.99162946,6.35298156 C7.28864396,6.35298156 7.52943639,6.58987425 7.52943639,6.88238525 C7.52943639,7.1747589 7.28864396,7.41178895 6.99162946,7.41178895 C6.69461496,7.41178895 6.45382254,7.1747589 6.45382254,6.88238525 C6.45382254,6.58987425 6.69461496,6.35298156 6.99162946,6.35298156 Z M6.99162946,8.4705963 C7.28864396,8.4705963 7.52943639,8.70748903 7.52943639,9 C7.52943639,9.29237365 7.28864396,9.5294037 6.99162946,9.5294037 C6.69461496,9.5294037 6.45382254,9.29237365 6.45382254,9 C6.45382254,8.70748903 6.69461496,8.4705963 6.99162946,8.4705963 L6.99162946,8.4705963 Z" id="Shape"></path>
            </g>
        </g>
    </g>
</svg>