<?xml version="1.0" encoding="UTF-8"?>
<svg width="11px" height="13px" viewBox="0 0 11 13" version="1.1" xmlns="http://www.w3.org/2000/svg" xmlns:xlink="http://www.w3.org/1999/xlink">
    <title>file-2</title>
    <g id="Page-1" stroke="none" stroke-width="1" fill="none" fill-rule="evenodd">
        <g id="5-Файлообменник-стартовый-экран" transform="translate(-1277.000000, -111.000000)" fill="#B6B6B6" fill-rule="nonzero">
            <g id="file-2" transform="translate(1277.000000, 111.000000)">
                <path d="M0,9.38888889 L0,11.8828125 C0,12.4496667 0.479111111,12.9097222 1.06944444,12.9097222 L9.93055556,12.9097222 C10.5208889,12.9097222 11,12.4496667 11,11.8828125 L11,9.38888889 L0,9.38888889 Z M7.33333333,11.2960069 C7.33333333,11.5389444 7.128,11.7361111 6.875,11.7361111 L4.125,11.7361111 C3.872,11.7361111 3.66666667,11.5389444 3.66666667,11.2960069 L3.66666667,10.7092014 C3.66666667,10.4662639 3.872,10.2690972 4.125,10.2690972 C4.378,10.2690972 4.58333333,10.4662639 4.58333333,10.7092014 L4.58333333,10.8559028 L6.41666667,10.8559028 L6.41666667,10.7092014 C6.41666667,10.4662639 6.622,10.2690972 6.875,10.2690972 C7.128,10.2690972 7.33333333,10.4662639 7.33333333,10.7092014 L7.33333333,11.2960069 Z" id="Shape"></path>
                <path d="M0,5.28125 L0,8.80208333 L11,8.80208333 L11,5.28125 L0,5.28125 Z M7.33333333,7.18836806 C7.33333333,7.43130556 7.128,7.62847222 6.875,7.62847222 L4.125,7.62847222 C3.872,7.62847222 3.66666667,7.43130556 3.66666667,7.18836806 L3.66666667,6.6015625 C3.66666667,6.358625 3.872,6.16145833 4.125,6.16145833 C4.378,6.16145833 4.58333333,6.358625 4.58333333,6.6015625 L4.58333333,6.74826389 L6.41666667,6.74826389 L6.41666667,6.6015625 C6.41666667,6.358625 6.622,6.16145833 6.875,6.16145833 C7.128,6.16145833 7.33333333,6.358625 7.33333333,6.6015625 L7.33333333,7.18836806 Z" id="Shape"></path>
                <path d="M9.93055556,0 L1.06944444,0 C0.479111111,0 0,0.460055556 0,1.02690972 L0,4.69444444 L11,4.69444444 L11,1.02690972 C11,0.460055556 10.5208889,0 9.93055556,0 Z M7.33333333,2.78732639 C7.33333333,3.03026389 7.128,3.22743056 6.875,3.22743056 L4.125,3.22743056 C3.872,3.22743056 3.66666667,3.03026389 3.66666667,2.78732639 L3.66666667,2.20052083 C3.66666667,1.95758333 3.872,1.76041667 4.125,1.76041667 C4.378,1.76041667 4.58333333,1.95758333 4.58333333,2.20052083 L4.58333333,2.34722222 L6.41666667,2.34722222 L6.41666667,2.20052083 C6.41666667,1.95758333 6.622,1.76041667 6.875,1.76041667 C7.128,1.76041667 7.33333333,1.95758333 7.33333333,2.20052083 L7.33333333,2.78732639 Z" id="Shape"></path>
            </g>
        </g>
    </g>
</svg>