<?xml version="1.0" encoding="UTF-8"?>
<svg width="60px" height="60px" viewBox="0 0 60 60" version="1.1" xmlns="http://www.w3.org/2000/svg" xmlns:xlink="http://www.w3.org/1999/xlink">
    <g id="Page-1" stroke="none" stroke-width="1" fill="none" fill-rule="evenodd">
        <g id="5,3,1-Создать-пароль-для-Сейфа" transform="translate(-518.000000, -199.000000)" fill-rule="nonzero">
            <g id="Group-12" transform="translate(476.000000, 97.000000)">
                <g id="bank" transform="translate(42.000000, 102.000000)">
                    <path d="M53.125,60 L11.25,60 C7.4575,60 4.375,56.9175 4.375,53.125 L4.375,6.875 C4.375,3.0825 7.4575,0 11.25,0 L53.125,0 C56.9175,0 60,3.0825 60,6.875 L60,53.125 C60,56.9175 56.9175,60 53.125,60 Z" id="Path" fill="#4086F1"></path>
                    <path d="M32.5,0 L11.25,0 C7.4575,0 4.375,3.0825 4.375,6.875 L4.375,53.125 C4.375,56.9175 7.4575,60 11.25,60 L32.5,60 L32.5,0 Z" id="Path" fill="#367DEA"></path>
                    <path d="M10.625,22.5 L1.875,22.5 C0.84,22.5 0,21.66 0,20.625 L0,14.375 C0,13.34 0.84,12.5 1.875,12.5 L10.625,12.5 C11.66,12.5 12.5,13.34 12.5,14.375 L12.5,20.625 C12.5,21.66 11.66,22.5 10.625,22.5 Z" id="Path" fill="#1976D2"></path>
                    <path d="M10.625,47.5 L1.875,47.5 C0.84,47.5 0,46.66 0,45.625 L0,39.375 C0,38.34 0.84,37.5 1.875,37.5 L10.625,37.5 C11.66,37.5 12.5,38.34 12.5,39.375 L12.5,45.625 C12.5,46.66 11.66,47.5 10.625,47.5 Z" id="Path" fill="#1976D2"></path>
                    <path d="M12.5,42.5 L0,42.5 L0,45.625 C0,46.66 0.84,47.5 1.875,47.5 L10.625,47.5 C11.66,47.5 12.5,46.66 12.5,45.625 L12.5,42.5 Z" id="Path" fill="#1667B7"></path>
                    <path d="M12.5,17.5 L0,17.5 L0,20.625 C0,21.66 0.84,22.5 1.875,22.5 L10.625,22.5 C11.66,22.5 12.5,21.66 12.5,20.625 L12.5,17.5 Z" id="Path" fill="#1667B7"></path>
                    <path d="M32.5,45 C28.4875,45 24.7225,43.44 21.8925,40.61 C19.06,37.7775 17.5,34.0075 17.5,30 C17.5,25.99 19.06,22.2225 21.8925,19.39 C24.7225,16.56 28.49,15 32.5,15 C36.51,15 40.2775,16.5575 43.1075,19.39 C45.94,22.2225 47.5,25.99 47.5,30 C47.5,34.0075 45.94,37.7775 43.1075,40.61 C40.2775,43.44 36.51,45 32.5,45 Z" id="Path" fill="#D5D5D5"></path>
                    <path d="M32.5,15 C28.4875,15 24.7225,16.56 21.8925,19.39 C19.06,22.2225 17.5,25.99 17.5,30 C17.5,34.0075 19.06,37.7775 21.8925,40.61 C24.7225,43.44 28.49,45 32.5,45 L32.5,37.555 C30.52,37.555 28.585,36.75 27.1925,35.3475 C25.7775,33.9225 25,32.025 25,30.0025 C25,27.9775 25.7775,26.0825 27.1925,24.6575 C28.585,23.255 30.5425,22.5525 32.5,22.5525 L32.5,15 Z" id="Path" fill="#C2C2C2"></path>
                    <path d="M32.5,26.5925 C31.6375,26.5925 30.9375,25.8925 30.9375,25.03 L30.9375,19.0625 C30.9375,18.2 31.6375,17.5 32.5,17.5 C33.3625,17.5 34.0625,18.2 34.0625,19.0625 L34.0625,25.03 C34.0625,25.89 33.3625,26.5925 32.5,26.5925 Z" id="Path" fill="#455A64"></path>
                    <path d="M32.5,42.5 C31.6375,42.5 30.9375,41.8 30.9375,40.9375 L30.9375,34.97 C30.9375,34.1075 31.6375,33.4075 32.5,33.4075 C33.3625,33.4075 34.0625,34.1075 34.0625,34.97 L34.0625,40.9375 C34.0625,41.8 33.3625,42.5 32.5,42.5 Z" id="Path" fill="#455A64"></path>
                    <path d="M32.5,17.5 C31.6375,17.5 30.9375,18.2 30.9375,19.0625 L30.9375,25.03 C30.9375,25.8925 31.6375,26.5925 32.5,26.5925 L32.5,17.5 Z" id="Path" fill="#3C4E57"></path>
                    <path d="M32.5,33.4075 C31.6375,33.4075 30.9375,34.1075 30.9375,34.97 L30.9375,40.9375 C30.9375,41.8 31.6375,42.5 32.5,42.5 L32.5,33.4075 Z" id="Path" fill="#3C4E57"></path>
                    <path d="M27.5275,31.5625 L21.5625,31.5625 C20.7,31.5625 20,30.8625 20,30 C20,29.1375 20.7,28.4375 21.5625,28.4375 L27.5275,28.4375 C28.3925,28.4375 29.09,29.1375 29.09,30 C29.09,30.8625 28.39,31.5625 27.5275,31.5625 Z" id="Path" fill="#455A64"></path>
                    <path d="M43.4375,31.5625 L37.4725,31.5625 C36.6075,31.5625 35.91,30.8625 35.91,30 C35.91,29.1375 36.6075,28.4375 37.4725,28.4375 L43.4375,28.4375 C44.3,28.4375 45,29.1375 45,30 C45,30.8625 44.3,31.5625 43.4375,31.5625 Z" id="Path" fill="#455A64"></path>
                    <path d="M29.09,30 L20,30 C20,30.8625 20.7,31.5625 21.5625,31.5625 L27.5275,31.5625 C28.39,31.5625 29.09,30.8625 29.09,30 Z" id="Path" fill="#3C4E57"></path>
                    <path d="M45,30 L35.91,30 C35.91,30.8625 36.6075,31.5625 37.4725,31.5625 L43.4375,31.5625 C44.3,31.5625 45,30.8625 45,30 Z" id="Path" fill="#3C4E57"></path>
                    <path d="M30.09,27.59 C29.48,28.2 28.49,28.2 27.88,27.59 L23.66,23.37 C23.05,22.76 23.05,21.77 23.66,21.16 C24.27,20.55 25.26,20.55 25.87,21.16 L30.09,25.38 C30.7,25.99 30.7,26.98 30.09,27.59 Z" id="Path" fill="#455A64"></path>
                    <path d="M41.34,38.84 C40.73,39.45 39.74,39.45 39.13,38.84 L34.91,34.62 C34.3,34.01 34.3,33.02 34.91,32.41 C35.52,31.8 36.51,31.8 37.12,32.41 L41.34,36.63 C41.95,37.24 41.9475,38.23 41.34,38.84 Z" id="Path" fill="#455A64"></path>
                    <path d="M23.66,21.16 C23.05,21.77 23.05,22.76 23.66,23.37 L27.88,27.59 C28.49,28.2 29.48,28.2 30.09,27.59 L23.66,21.16 Z" id="Path" fill="#3C4E57"></path>
                    <path d="M34.91,32.41 C34.3,33.02 34.3,34.01 34.91,34.62 L39.13,38.84 C39.74,39.45 40.73,39.45 41.34,38.84 L34.91,32.41 Z" id="Path" fill="#3C4E57"></path>
                    <path d="M30.0875,34.6225 L25.87,38.84 C25.26,39.45 24.27,39.45 23.66,38.84 C23.05,38.23 23.05,37.24 23.66,36.63 L27.8775,32.4125 C28.4875,31.8025 29.4775,31.8025 30.0875,32.4125 C30.6975,33.0225 30.7,34.01 30.0875,34.6225 Z" id="Path" fill="#455A64"></path>
                    <path d="M41.34,23.37 L37.1225,27.5875 C36.5125,28.1975 35.5225,28.1975 34.9125,27.5875 C34.3025,26.9775 34.3025,25.99 34.9125,25.3775 L39.13,21.16 C39.74,20.55 40.73,20.55 41.34,21.16 C41.95,21.7725 41.9475,22.7625 41.34,23.37 Z" id="Path" fill="#455A64"></path>
                    <path d="M30.0875,32.4125 L23.66,38.84 C24.27,39.45 25.26,39.45 25.87,38.84 L30.0875,34.6225 C30.7,34.01 30.6975,33.0225 30.0875,32.4125 Z" id="Path" fill="#3C4E57"></path>
                    <path d="M41.34,21.16 L34.9125,27.5875 C35.5225,28.1975 36.51,28.1975 37.1225,27.5875 L41.34,23.37 C41.9475,22.7625 41.95,21.7725 41.34,21.16 Z" id="Path" fill="#3C4E57"></path>
                    <path d="M32.5,37.555 C30.52,37.555 28.585,36.75 27.1925,35.3475 C25.7775,33.9225 25,32.025 25,30.0025 C25,27.9775 25.7775,26.0825 27.1925,24.6575 C29.975,21.8525 35.025,21.8525 37.8075,24.6575 C39.2225,26.0825 40,27.9775 40,30.0025 C40,32.025 39.2225,33.9225 37.8075,35.3475 C36.415,36.75 34.48,37.555 32.5,37.555 L32.5,37.555 Z" id="Path" fill="#ECEFF1"></path>
                    <path d="M32.5,22.5525 C30.5425,22.5525 28.585,23.255 27.1925,24.6575 C25.7775,26.0825 25,27.9775 25,30.0025 C25,32.025 25.7775,33.9225 27.1925,35.3475 C28.585,36.75 30.52,37.555 32.5,37.555 L32.5,22.5525 Z" id="Path" fill="#CDD0D2"></path>
                </g>
            </g>
        </g>
    </g>
</svg>