<?xml version="1.0" encoding="UTF-8"?>
<svg width="14px" height="14px" viewBox="0 0 14 14" version="1.1" xmlns="http://www.w3.org/2000/svg" xmlns:xlink="http://www.w3.org/1999/xlink">
    <title>settings (1)</title>
    <g id="Page-1" stroke="none" stroke-width="1" fill="none" fill-rule="evenodd">
        <g id="7.2-Мои-файлы-(вид-линии)" transform="translate(-1237.000000, -259.000000)" fill-rule="nonzero">
            <g id="Group-2" transform="translate(1136.000000, 259.000000)">
                <g id="settings-(1)" transform="translate(101.000000, 0.000000)">
                    <path d="M12.8981689,5.44630078 C12.6442793,5.4082793 12.3836396,5.37181348 12.1235273,5.33790527 C12.0920186,5.33381836 12.0664424,5.31243457 12.0584795,5.2834834 C11.9384297,4.84781836 11.7642217,4.42741992 11.5407334,4.03396875 C11.5257041,4.00754883 11.5285254,3.9742207 11.5479316,3.9489873 C11.7079014,3.74108203 11.8664736,3.53090918 12.0192715,3.32434863 C12.2255684,3.04543652 12.1956152,2.64966504 11.9496621,2.40368555 L11.0962617,1.55028516 C10.8502822,1.30433203 10.4545371,1.27437891 10.1755723,1.48072852 C9.96945996,1.63318359 9.75931348,1.79175586 9.55095996,1.95204199 C9.52580566,1.97144824 9.49239844,1.97426953 9.46597852,1.9592666 C9.07255371,1.73577832 8.65215527,1.56157031 8.21646387,1.44149414 C8.18748633,1.43355762 8.16610254,1.40798145 8.16198926,1.37639355 C8.12800195,1.11588574 8.0915625,0.855272461 8.05364648,0.601831055 C8.00230957,0.258714844 7.70130176,0 7.35343945,0 L6.14653418,0 C5.79864551,0 5.4976377,0.258714844 5.44637988,0.601804688 C5.4084375,0.855298828 5.37199805,1.11588574 5.33801074,1.37644629 C5.33387109,1.40800781 5.31251367,1.43353125 5.28350977,1.44149414 C4.84781836,1.56162305 4.42739355,1.73580469 4.03404785,1.9592666 C4.00760156,1.97426953 3.9742207,1.97136914 3.94901367,1.95204199 C3.74068652,1.79175586 3.53051367,1.63318359 3.324375,1.48070215 C3.04538379,1.27437891 2.64963867,1.30438477 2.40371191,1.55031152 L1.55031152,2.40371191 C1.30433203,2.64971777 1.27440527,3.04551563 1.48075488,3.32440137 C1.63379004,3.53127832 1.7923623,3.74139844 1.95206836,3.9489873 C1.97144824,3.97416797 1.9742959,4.00752246 1.95929297,4.03396875 C1.73575195,4.42749902 1.56157031,4.84789746 1.44152051,5.2834834 C1.43358398,5.3124082 1.40800781,5.33379199 1.37647266,5.33793164 C1.11649219,5.37186621 0.855878906,5.40830566 0.601857422,5.44632715 C0.258714844,5.49761133 0,5.79867188 0,6.14650781 L0,7.35343945 C0,7.70130176 0.258714844,8.00233594 0.601804688,8.05364648 C0.855826172,8.09166797 1.11646582,8.12810742 1.37644629,8.16201563 C1.40800781,8.16615527 1.43353125,8.1875127 1.44149414,8.21649023 C1.56154395,8.65210254 1.73575195,9.07250098 1.9592666,9.46600488 C1.97426953,9.49245117 1.97142187,9.52580566 1.95204199,9.55098633 C1.79194043,9.75907617 1.63336816,9.96922266 1.48072852,10.1755986 C1.27440527,10.4545107 1.30430566,10.8503086 1.55028516,11.0962881 L2.40368555,11.9496885 C2.64969141,12.195668 3.04548926,12.2256211 3.324375,12.0192451 C3.5304873,11.86679 3.74063379,11.7082178 3.9489873,11.5479316 C3.97416797,11.5285254 4.00754883,11.5257305 4.03396875,11.540707 C4.42736719,11.7641953 4.84773926,11.9383506 5.2834834,12.0584795 C5.31246094,12.0664424 5.33384473,12.0919922 5.33795801,12.1235273 C5.37194531,12.3840352 5.40841113,12.6446748 5.44632715,12.8980898 C5.4976377,13.2412061 5.79864551,13.4999209 6.14653418,13.4999209 L7.35343945,13.4999209 C7.70130176,13.4999209 8.00233594,13.2412061 8.05362012,12.8980371 C8.0915625,12.6443057 8.12800195,12.3836924 8.16196289,12.1234746 C8.16610254,12.0919131 8.18745996,12.0663633 8.2164375,12.058374 C8.65212891,11.9382451 9.07255371,11.7640635 9.46592578,11.5406016 C9.49237207,11.5256514 9.52572656,11.528499 9.55093359,11.5478262 C9.75926074,11.7081123 9.96943359,11.8666846 10.1755459,12.0191396 C10.454458,12.2254629 10.8502295,12.1955625 11.0962354,11.949583 L11.9496357,11.0961826 C12.1955889,10.8502031 12.225542,10.4544316 12.0192188,10.1754932 C11.8664209,9.96901172 11.7078223,9.75883887 11.5478789,9.55088086 C11.528499,9.5257002 11.5256514,9.4923457 11.5406807,9.46589941 C11.7641953,9.07239551 11.938377,8.65199707 12.0584268,8.21641113 C12.0664424,8.18740723 12.0919658,8.1660498 12.1235273,8.16191016 C12.3835869,8.12800195 12.6442266,8.09153613 12.8981426,8.05354102 C13.2412588,8.00225684 13.4999736,7.70122266 13.4999736,7.35336035 L13.4999736,6.14642871 C13.4999736,5.79864551 13.2412588,5.49758496 12.8981689,5.44630078 Z" id="Shape" ></path>
                    <path d="M6.75,3.81970898 C5.13421875,3.81970898 3.81970898,5.13421875 3.81970898,6.75 C3.81970898,8.36578125 5.13421875,9.68029102 6.75,9.68029102 C8.36578125,9.68029102 9.68029102,8.36578125 9.68029102,6.75 C9.68029102,5.13421875 8.36578125,3.81970898 6.75,3.81970898 Z M6.75,9.04987793 C5.48181738,9.04987793 4.45012207,8.01815625 4.45012207,6.75 C4.45012207,5.48181738 5.48187012,4.45012207 6.75,4.45012207 C8.01815625,4.45012207 9.04987793,5.48184375 9.04987793,6.75 C9.04987793,8.01815625 8.01818262,9.04987793 6.75,9.04987793 Z" id="Shape" fill="green"></path>
                </g>
            </g>
        </g>
    </g>
</svg>