<svg width="14" height="14" viewBox="0 0 14 14" fill="none" xmlns="http://www.w3.org/2000/svg">
<path d="M12.8982 5.4463C12.6443 5.40828 12.3836 5.37181 12.1235 5.33791C12.092 5.33382 12.0664 5.31243 12.0585 5.28348C11.9384 4.84782 11.7642 4.42742 11.5407 4.03397C11.5257 4.00755 11.5285 3.97422 11.5479 3.94899C11.7079 3.74108 11.8665 3.53091 12.0193 3.32435C12.2256 3.04544 12.1956 2.64967 11.9497 2.40369L11.0963 1.55029C10.8503 1.30433 10.4545 1.27438 10.1756 1.48073C9.96946 1.63318 9.75931 1.79176 9.55096 1.95204C9.52581 1.97145 9.4924 1.97427 9.46598 1.95927C9.07255 1.73578 8.65216 1.56157 8.21646 1.44149C8.18749 1.43356 8.1661 1.40798 8.16199 1.37639C8.128 1.11589 8.09156 0.855272 8.05365 0.601831C8.00231 0.258715 7.7013 0 7.35344 0H6.14653C5.79865 0 5.49764 0.258715 5.44638 0.601805C5.40844 0.855299 5.372 1.11589 5.33801 1.37645C5.33387 1.40801 5.31251 1.43353 5.28351 1.44149C4.84782 1.56162 4.42739 1.7358 4.03405 1.95927C4.0076 1.97427 3.97422 1.97137 3.94901 1.95204C3.74069 1.79176 3.53051 1.63318 3.32437 1.4807C3.04538 1.27438 2.64964 1.30438 2.40371 1.55031L1.55031 2.40371C1.30433 2.64972 1.27441 3.04552 1.48075 3.3244C1.63379 3.53128 1.79236 3.7414 1.95207 3.94899C1.97145 3.97417 1.9743 4.00752 1.95929 4.03397C1.73575 4.4275 1.56157 4.8479 1.44152 5.28348C1.43358 5.31241 1.40801 5.33379 1.37647 5.33793C1.11649 5.37187 0.855879 5.40831 0.601857 5.44633C0.258715 5.49761 0 5.79867 0 6.14651V7.35344C0 7.7013 0.258715 8.00234 0.601805 8.05365C0.855826 8.09167 1.11647 8.12811 1.37645 8.16202C1.40801 8.16616 1.43353 8.18751 1.44149 8.21649C1.56154 8.6521 1.73575 9.0725 1.95927 9.46601C1.97427 9.49245 1.97142 9.52581 1.95204 9.55099C1.79194 9.75908 1.63337 9.96922 1.48073 10.1756C1.27441 10.4545 1.30431 10.8503 1.55029 11.0963L2.40369 11.9497C2.64969 12.1957 3.04549 12.2256 3.32437 12.0192C3.53049 11.8668 3.74063 11.7082 3.94899 11.5479C3.97417 11.5285 4.00755 11.5257 4.03397 11.5407C4.42737 11.7642 4.84774 11.9384 5.28348 12.0585C5.31246 12.0664 5.33384 12.092 5.33796 12.1235C5.37195 12.384 5.40841 12.6447 5.44633 12.8981C5.49764 13.2412 5.79865 13.4999 6.14653 13.4999H7.35344C7.7013 13.4999 8.00234 13.2412 8.05362 12.898C8.09156 12.6443 8.128 12.3837 8.16196 12.1235C8.1661 12.0919 8.18746 12.0664 8.21644 12.0584C8.65213 11.9382 9.07255 11.7641 9.46593 11.5406C9.49237 11.5257 9.52573 11.5285 9.55093 11.5478C9.75926 11.7081 9.96943 11.8667 10.1755 12.0191C10.4545 12.2255 10.8502 12.1956 11.0962 11.9496L11.9496 11.0962C12.1956 10.8502 12.2255 10.4544 12.0192 10.1755C11.8664 9.96901 11.7078 9.75884 11.5479 9.55088C11.5285 9.5257 11.5257 9.49235 11.5407 9.4659C11.7642 9.0724 11.9384 8.652 12.0584 8.21641C12.0664 8.18741 12.092 8.16605 12.1235 8.16191C12.3836 8.128 12.6442 8.09154 12.8981 8.05354C13.2413 8.00226 13.5 7.70122 13.5 7.35336V6.14643C13.5 5.79865 13.2413 5.49759 12.8982 5.4463Z" fill="#B1B1B1"/>
<path fill-rule="evenodd" clip-rule="evenodd" d="M3.8197 6.75012C3.8197 5.13433 5.13421 3.81982 6.74999 3.81982C8.36577 3.81982 9.68028 5.13433 9.68028 6.75012C9.68028 8.3659 8.36577 9.68041 6.74999 9.68041C5.13421 9.68041 3.8197 8.3659 3.8197 6.75012ZM4.45012 6.75012C4.45012 8.01827 5.48181 9.04999 6.74999 9.04999C8.01818 9.04999 9.04987 8.01827 9.04987 6.75012C9.04987 5.48196 8.01815 4.45024 6.74999 4.45024C5.48186 4.45024 4.45012 5.48193 4.45012 6.75012Z" fill="white"/>
</svg>
