<svg width="16" height="21" viewBox="0 0 16 21" fill="none" xmlns="http://www.w3.org/2000/svg">
<path d="M0.542687 5.47979H3.95913C3.96149 5.47979 3.9662 5.47979 3.96856 5.47979C4.53915 5.47504 5.00127 5.00965 5.00599 4.43504C5.00599 4.43266 5.00599 4.42792 5.00599 4.42554V0.982622C5.00599 0.664449 4.74663 0.453125 4.47787 0.453125C4.34819 0.453125 4.21851 0.500614 4.11005 0.609837L0.170155 4.5775C-0.159936 4.90992 0.0734857 5.47979 0.542687 5.47979Z" fill="#4086F1"/>
<path fill-rule="evenodd" clip-rule="evenodd" d="M14.6183 20.5982H9.78248H7.93162H2.61479H1.24727C0.558797 20.5982 0 20.0355 0 19.3422V7.09769H0.433834C0.469201 7.10006 0.506926 7.10244 0.542292 7.10244H3.26083H4.88417C5.85322 7.10244 6.64072 6.30938 6.64072 5.33349V3.72078V0.983063C6.64072 0.937949 6.63834 0.892835 6.63365 0.850095V0.43457H7.93162H14.6183C15.3068 0.43457 15.8656 0.997309 15.8656 1.69064V3.00845V19.3422C15.8656 20.0355 15.3068 20.5982 14.6183 20.5982ZM5.70652 12.0219C5.53968 12.2024 5.25589 12.2136 5.07798 12.0445C4.89991 11.8697 4.88884 11.5879 5.04461 11.4017L8.30442 7.85467C8.39329 7.76458 8.50463 7.71384 8.63249 7.71384C8.7605 7.71384 8.87729 7.76458 8.96071 7.85467L12.2205 11.4017C12.3874 11.5822 12.3763 11.8697 12.1982 12.039C12.0203 12.2081 11.7365 12.1967 11.5697 12.0164L9.08312 9.30967V15.7549C9.08312 16.0031 8.88291 16.2061 8.6381 16.2061C8.39329 16.2061 8.19308 16.0031 8.19308 15.7549V9.3152L5.70652 12.0219Z" fill="#4086F1"/>
</svg>
