<?xml version="1.0" encoding="utf-8"?>
<svg width="20px" height="21px" viewBox="0 0 20 21" version="1.1" xmlns:xlink="http://www.w3.org/1999/xlink" xmlns="http://www.w3.org/2000/svg">
  <g id="shopping-cart">
    <path d="M2.43573 4.94693C3.78094 4.94693 4.87146 3.83952 4.87146 2.47346C4.87146 1.10741 3.78094 0 2.43573 0C1.09051 0 0 1.10741 0 2.47346C0 3.83952 1.09051 4.94693 2.43573 4.94693Z" transform="translate(5.492798 15.9765625)" id="Oval" fill="#4086F1" stroke="none" />
    <path d="M2.43573 0L2.43573 0C1.09053 0 0 1.10743 0 2.47346C0 3.8395 1.09053 4.94693 2.43573 4.94693C3.78092 4.94693 4.87146 3.8395 4.87146 2.47346C4.87146 1.10743 3.78092 0 2.43573 0Z" transform="translate(12.601196 15.9765625)" id="Path" fill="#4086F1" stroke="none" />
    <path d="M19.1876 13.4527L6.48699 13.4527L6.23845 11.9888L16.6773 11.9888C16.9844 11.9897 17.2606 11.7994 17.3732 11.5093L19.8586 5.14892C20.0097 4.75988 19.8215 4.32016 19.4384 4.16685C19.3506 4.1317 19.257 4.11381 19.1627 4.1141L4.94602 4.1141L4.34951 0.631061C4.28825 0.262772 3.97165 -0.00515023 3.60388 7.51231e-05L0.745631 7.51231e-05C0.333835 7.51231e-05 0 0.339082 0 0.757258C0 1.17543 0.333835 1.51444 0.745631 1.51444L2.98252 1.51444L5.12 14.3361C5.18126 14.7044 5.49786 14.9723 5.86563 14.9671L19.1876 14.9671C19.5994 14.9671 19.9332 14.6281 19.9332 14.2099C19.9332 13.7917 19.5994 13.4527 19.1876 13.4527Z" id="Path" fill="#4086F1" stroke="none" />
  </g>
</svg>