<svg width="20" height="20" viewBox="0 0 20 20" fill="none" xmlns="http://www.w3.org/2000/svg">
<path d="M9.99988 0.625C8.14568 0.625 6.33312 1.17483 4.79141 2.20497C3.2497 3.23511 2.04808 4.69929 1.33851 6.41234C0.62894 8.1254 0.443284 10.0104 0.80502 11.829C1.16676 13.6475 2.05964 15.318 3.37076 16.6291C4.68187 17.9402 6.35234 18.8331 8.17091 19.1949C9.98948 19.5566 11.8745 19.3709 13.5875 18.6614C15.3006 17.9518 16.7648 16.7502 17.7949 15.2085C18.825 13.6668 19.3749 11.8542 19.3749 10C19.3721 7.51446 18.3834 5.13152 16.6259 3.37398C14.8684 1.61644 12.4854 0.627812 9.99988 0.625ZM12.4999 6.25C12.7471 6.25 12.9888 6.32331 13.1943 6.46066C13.3999 6.59801 13.5601 6.79324 13.6547 7.02165C13.7493 7.25005 13.7741 7.50139 13.7259 7.74386C13.6776 7.98634 13.5586 8.20907 13.3838 8.38388C13.2089 8.5587 12.9862 8.67775 12.7437 8.72598C12.5013 8.77421 12.2499 8.74946 12.0215 8.65485C11.7931 8.56024 11.5979 8.40002 11.4605 8.19446C11.3232 7.9889 11.2499 7.74723 11.2499 7.5C11.2499 7.16848 11.3816 6.85054 11.616 6.61612C11.8504 6.3817 12.1684 6.25 12.4999 6.25ZM7.49988 6.25C7.74711 6.25 7.98878 6.32331 8.19434 6.46066C8.39991 6.59801 8.56012 6.79324 8.65473 7.02165C8.74934 7.25005 8.77409 7.50139 8.72586 7.74386C8.67763 7.98634 8.55858 8.20907 8.38376 8.38388C8.20895 8.5587 7.98622 8.67775 7.74374 8.72598C7.50127 8.77421 7.24994 8.74946 7.02153 8.65485C6.79312 8.56024 6.5979 8.40002 6.46054 8.19446C6.32319 7.9889 6.24988 7.74723 6.24988 7.5C6.24988 7.16848 6.38158 6.85054 6.616 6.61612C6.85042 6.3817 7.16836 6.25 7.49988 6.25ZM14.8749 12.8125C14.3812 13.6678 13.6711 14.3781 12.8159 14.872C11.9607 15.3658 10.9906 15.6258 10.003 15.6258C9.01545 15.6258 8.0453 15.3658 7.19009 14.872C6.33488 14.3781 5.62476 13.6678 5.13113 12.8125C5.08712 12.7414 5.05783 12.6621 5.04502 12.5794C5.0322 12.4967 5.03611 12.4123 5.05652 12.3312C5.07694 12.2501 5.11343 12.1739 5.16384 12.1071C5.21425 12.0403 5.27755 11.9843 5.35 11.9425C5.42244 11.9006 5.50255 11.8738 5.58557 11.8634C5.6686 11.8531 5.75285 11.8596 5.83333 11.8824C5.91381 11.9053 5.98889 11.9441 6.05411 11.9965C6.11933 12.0489 6.17336 12.1138 6.21301 12.1875C6.59684 12.8531 7.1492 13.4059 7.81452 13.7903C8.47984 14.1746 9.23465 14.377 10.003 14.377C10.7714 14.377 11.5262 14.1746 12.1915 13.7903C12.8568 13.4059 13.4092 12.8531 13.793 12.1875C13.8327 12.1138 13.8867 12.0489 13.9519 11.9965C14.0171 11.9441 14.0922 11.9053 14.1727 11.8824C14.2532 11.8596 14.3374 11.8531 14.4204 11.8634C14.5035 11.8738 14.5836 11.9006 14.656 11.9425C14.7285 11.9843 14.7918 12.0403 14.8422 12.1071C14.8926 12.1739 14.9291 12.2501 14.9495 12.3312C14.9699 12.4123 14.9738 12.4967 14.961 12.5794C14.9482 12.6621 14.9189 12.7414 14.8749 12.8125Z" fill="white"/>
</svg>
