<?xml version="1.0" encoding="utf-8"?>
<svg width="15px" height="13px" viewBox="0 0 15 13" version="1.1" xmlns="http://www.w3.org/2000/svg">
    <g id="sms">
        <path d="M13.1319 0L2.08962 0C1.11808 0 0 0.884 0 1.73609L0 8.59064C0 9.37536 0.947308 9.94205 1.85596 10.0295L1.26462 12.3287L5.05385 10.0455L13.1319 10.0455C14.1035 10.0455 15 9.44214 15 8.59064L15 3.04495L15 1.73609C15 0.884 14.1029 0 13.1319 0ZM3.77387 5.78616C3.22291 5.78616 2.77637 5.3288 2.77637 4.76448C2.77637 4.20016 3.22291 3.7428 3.77387 3.7428C4.32425 3.7428 4.77137 4.20016 4.77137 4.76448C4.77137 5.3288 4.32425 5.78616 3.77387 5.78616ZM7.50043 5.78616C6.94947 5.78616 6.50293 5.3288 6.50293 4.76448C6.50293 4.20016 6.94947 3.7428 7.50043 3.7428C8.05139 3.7428 8.49793 4.20016 8.49793 4.76448C8.49793 5.3288 8.05139 5.78616 7.50043 5.78616ZM11.2266 5.78616C10.6756 5.78616 10.2285 5.3288 10.2285 4.76448C10.2285 4.20016 10.6756 3.7428 11.2266 3.7428C11.7764 3.7428 12.2241 4.20016 12.2241 4.76448C12.2241 5.3288 11.7764 5.78616 11.2266 5.78616Z"
              id="Shape" fill="#979797" stroke="none"/>
    </g>
</svg>