<?xml version="1.0" encoding="utf-8"?>
<svg width="16px" height="15px" viewBox="0 0 16 15" version="1.1" xmlns="http://www.w3.org/2000/svg">
    <g id="star-2">
        <path d="M3.58105 14.9588C3.40576 14.9588 3.23168 14.9054 3.08312 14.8006C2.80639 14.605 2.67712 14.2687 2.75243 13.9441L3.78173 9.52065L0.291009 6.53404C0.0344172 6.3155 -0.0636052 5.96942 0.0417415 5.65275C0.147088 5.33668 0.433709 5.1129 0.773065 5.08229L5.39172 4.67321L7.21777 0.504121C7.35241 0.197813 7.65905 0 7.99975 0C8.34045 0 8.64709 0.197813 8.78173 0.503406L10.6078 4.67321L15.2257 5.08229C15.5658 5.11219 15.8524 5.33668 15.9578 5.65275C16.0631 5.96882 15.9657 6.3155 15.7091 6.53404L12.2184 9.52005L13.2477 13.9434C13.3231 14.2687 13.1937 14.605 12.9171 14.8C12.6411 14.9951 12.2731 15.0101 11.9824 14.8397L7.99975 12.5177L4.01708 14.841C3.88244 14.919 3.73242 14.9588 3.58105 14.9588ZM7.99975 11.5175C8.15112 11.5175 8.30102 11.5571 8.43579 11.6351L12.1945 13.8284L11.223 9.65332C11.1537 9.35618 11.2571 9.04595 11.4924 8.84492L14.7884 6.0248L10.4277 5.63846C10.1138 5.61047 9.84374 5.4179 9.72106 5.13565L7.99975 1.20129L6.27636 5.13624C6.15502 5.41659 5.885 5.60916 5.57177 5.63715L1.21044 6.02349L4.50634 8.84361C4.74242 9.04523 4.8457 9.35487 4.77575 9.65273L3.80505 13.8276L7.56371 11.6351C7.69836 11.5571 7.84838 11.5175 7.99975 11.5175Z"
              transform="translate(6.5712256E-06 0.015005732)" id="Shape" fill="#4086F1" stroke="none"/>
    </g>
</svg>