<?xml version="1.0" encoding="utf-8"?>
<svg width="17px" height="16px" viewBox="0 0 17 16" version="1.1" xmlns:xlink="http://www.w3.org/1999/xlink" xmlns="http://www.w3.org/2000/svg">
  <g id="star-2" transform="translate(0.5 0.5)">
    <path d="M3.58105 14.9588C3.40576 14.9588 3.23168 14.9054 3.08312 14.8006C2.80639 14.605 2.67712 14.2687 2.75243 13.9441L3.78173 9.52065L0.291009 6.53404C0.0344172 6.3155 -0.0636052 5.96942 0.0417415 5.65275C0.147088 5.33668 0.433709 5.1129 0.773065 5.08229L5.39172 4.67321L7.21777 0.504121C7.35241 0.197813 7.65905 0 7.99975 0C8.34045 0 8.64709 0.197813 8.78173 0.503406L10.6078 4.67321L15.2257 5.08229C15.5658 5.11219 15.8524 5.33668 15.9578 5.65275C16.0631 5.96882 15.9657 6.3155 15.7091 6.53404L12.2184 9.52005L13.2477 13.9434C13.3231 14.2687 13.1937 14.605 12.9171 14.8C12.6411 14.9951 12.2731 15.0101 11.9824 14.8397L7.99975 12.5177L4.01708 14.841C3.88244 14.919 3.73242 14.9588 3.58105 14.9588Z" transform="translate(6.5712256E-06 0.015005732)" id="Shape" fill="#4086F1" fill-rule="evenodd" stroke="none" />
    <path d="M6.78931 10.3162C6.94067 10.3162 7.09058 10.3559 7.22534 10.4339L10.984 12.6271L10.0126 8.45203C9.94324 8.15489 10.0466 7.84466 10.282 7.64363L13.578 4.8235L9.21729 4.43717C8.90332 4.40918 8.6333 4.21661 8.51062 3.93436L6.78931 0L5.06592 3.93495C4.94458 4.2153 4.67456 4.40787 4.36133 4.43586L0 4.82219L3.2959 7.64232C3.53198 7.84394 3.63525 8.15358 3.56531 8.45143L2.5946 12.6264L6.35327 10.4339C6.48792 10.3559 6.63794 10.3162 6.78931 10.3162Z" transform="translate(1.2104492 1.2162967)" id="Path" fill="#4086F1" stroke="none" />
  </g>
</svg>