<?xml version="1.0" encoding="utf-8"?>
<svg width="12px" height="10px" viewBox="0 0 12 10" version="1.1" xmlns:xlink="http://www.w3.org/1999/xlink" xmlns="http://www.w3.org/2000/svg">
  <g id="Group-25">
    <path d="M9.001 0L0.999 0Q0.900607 0 0.804105 0.0191955Q0.707602 0.038391 0.616699 0.0760443Q0.525796 0.113698 0.443985 0.168362Q0.362175 0.223026 0.2926 0.2926Q0.223026 0.362175 0.168362 0.443985Q0.113698 0.525796 0.0760443 0.616699Q0.038391 0.707602 0.0191955 0.804105Q0 0.900607 0 0.999L0 3L5.001 3Q5.09939 3 5.19589 3.0192Q5.2924 3.03839 5.3833 3.07604Q5.4742 3.1137 5.55601 3.16836Q5.63782 3.22303 5.7074 3.2926Q5.77697 3.36217 5.83164 3.44398Q5.8863 3.5258 5.92395 3.6167Q5.96161 3.7076 5.9808 3.8041Q6 3.90061 6 3.999L6 10L9.001 10Q9.09939 10 9.1959 9.9808Q9.2924 9.96161 9.3833 9.92395Q9.4742 9.8863 9.55602 9.83164Q9.63783 9.77697 9.7074 9.7074Q9.77697 9.63783 9.83164 9.55602Q9.8863 9.4742 9.92395 9.3833Q9.96161 9.2924 9.9808 9.1959Q10 9.09939 10 9.001L10 0.999Q10 0.900607 9.9808 0.804105Q9.96161 0.707602 9.92395 0.616699Q9.8863 0.525796 9.83164 0.443985Q9.77697 0.362175 9.7074 0.2926Q9.63783 0.223026 9.55602 0.168362Q9.4742 0.113698 9.3833 0.0760443Q9.2924 0.038391 9.1959 0.0191955Q9.09939 0 9.001 0Z" transform="translate(2 0)" id="Combined-Shape" fill="#B6B6B6" fill-rule="evenodd" stroke="none" />
    <path d="M5.44544 0L0.554556 0Q0.499937 0 0.446367 0.0106556Q0.392798 0.0213113 0.342336 0.042213Q0.291875 0.0631148 0.246461 0.0934595Q0.201047 0.123804 0.162426 0.162426Q0.123804 0.201047 0.0934595 0.246461Q0.0631148 0.291875 0.042213 0.342336Q0.0213113 0.392798 0.0106556 0.446367Q0 0.499937 0 0.554556L0 2L2.44544 2Q2.50006 2 2.55363 2.01066Q2.6072 2.02131 2.65766 2.04221Q2.70812 2.06311 2.75354 2.09346Q2.79895 2.1238 2.83757 2.16243Q2.8762 2.20105 2.90654 2.24646Q2.93688 2.29187 2.95779 2.34234Q2.97869 2.3928 2.98934 2.44637Q3 2.49994 3 2.55456L3 6L5.44544 6Q5.50006 6 5.55363 5.98934Q5.6072 5.97869 5.65766 5.95779Q5.70812 5.93688 5.75354 5.90654Q5.79895 5.87619 5.83757 5.83757Q5.87619 5.79895 5.90654 5.75354Q5.93688 5.70812 5.95779 5.65766Q5.97869 5.6072 5.98934 5.55363Q6 5.50006 6 5.44544L6 0.554556Q6 0.499937 5.98934 0.446367Q5.97869 0.392798 5.95779 0.342336Q5.93688 0.291875 5.90654 0.246461Q5.87619 0.201047 5.83757 0.162426Q5.79895 0.123804 5.75354 0.0934595Q5.70812 0.0631148 5.65766 0.042213Q5.6072 0.0213113 5.55363 0.0106556Q5.50006 0 5.44544 0Z" transform="translate(1 4)" id="Combined-Shape" fill="#B6B6B6" fill-rule="evenodd" stroke="none" />
    <path d="M0.554556 0L2.44544 0Q2.50006 0 2.55363 0.0106556Q2.6072 0.0213113 2.65766 0.042213Q2.70812 0.0631148 2.75354 0.0934595Q2.79895 0.123804 2.83757 0.162426Q2.8762 0.201047 2.90654 0.246461Q2.93688 0.291875 2.95779 0.342336Q2.97869 0.392798 2.98934 0.446367Q3 0.499937 3 0.554556L3 2.44544Q3 2.50006 2.98934 2.55363Q2.97869 2.6072 2.95779 2.65766Q2.93688 2.70812 2.90654 2.75354Q2.8762 2.79895 2.83757 2.83757Q2.79895 2.8762 2.75354 2.90654Q2.70812 2.93688 2.65766 2.95779Q2.6072 2.97869 2.55363 2.98934Q2.50006 3 2.44544 3L0.554556 3Q0.499937 3 0.446367 2.98934Q0.392798 2.97869 0.342336 2.95779Q0.291875 2.93688 0.246461 2.90654Q0.201047 2.8762 0.162426 2.83757Q0.123804 2.79895 0.0934595 2.75354Q0.0631148 2.70812 0.042213 2.65766Q0.0213113 2.6072 0.0106556 2.55363Q0 2.50006 0 2.44544L0 0.554556Q0 0.499937 0.0106556 0.446367Q0.0213113 0.392798 0.042213 0.342336Q0.0631148 0.291875 0.0934595 0.246461Q0.123804 0.201047 0.162426 0.162426Q0.201047 0.123804 0.246461 0.0934595Q0.291875 0.0631148 0.342336 0.042213Q0.392798 0.0213113 0.446367 0.0106556Q0.499937 0 0.554556 0L0.554556 0Z" transform="translate(0 7)" id="Combined-Shape" fill="#B6B6B6" fill-rule="evenodd" stroke="none" />
  </g>
</svg>