<?xml version="1.0" encoding="utf-8"?>
<svg width="10px" height="11px" viewBox="0 0 10 11" version="1.1" xmlns:xlink="http://www.w3.org/1999/xlink" xmlns="http://www.w3.org/2000/svg">
  <g id="interface">
    <path d="M9.60962 1.571L6.91894 1.571L6.91894 1.17824C6.91894 0.527517 6.40266 0 5.76579 0L4.22824 0C3.59137 0 3.07509 0.527517 3.07509 1.17824L3.07509 1.571L0.384392 1.571C0.172095 1.571 0 1.74684 0 1.96375C0 2.18067 0.172117 2.35649 0.384392 2.35649L0.802207 2.35649L1.53755 10.6399C1.55568 10.8428 1.72259 10.9978 1.92194 10.9969L8.07209 10.9969C8.27144 10.9978 8.43833 10.8428 8.45649 10.6399L9.1918 2.35649L9.60964 2.35649C9.82194 2.35649 9.99403 2.18065 9.99403 1.96373C9.99403 1.74681 9.82191 1.571 9.60962 1.571ZM3.84385 1.17824C3.84385 0.961326 4.01595 0.785487 4.22824 0.785487L5.76579 0.785487C5.97809 0.785487 6.15018 0.961326 6.15018 1.17824L6.15018 1.571L3.84387 1.571L3.84387 1.17824L3.84385 1.17824ZM5.3814 9.03319C5.3814 9.2501 5.2093 9.42594 4.997 9.42594C4.78471 9.42594 4.61261 9.2501 4.61261 9.03319L4.61261 3.53473C4.61261 3.31781 4.78471 3.14197 4.997 3.14197C5.2093 3.14197 5.3814 3.31781 5.3814 3.53473L5.3814 9.03319ZM7.04806 9.03319C7.04806 9.2501 6.87597 9.42594 6.66367 9.42594C6.45137 9.42594 6.27928 9.2501 6.27928 9.03319L6.27928 3.53473C6.27928 3.31781 6.45137 3.14197 6.66367 3.14197C6.87597 3.14197 7.04806 3.31781 7.04806 3.53473L7.04806 9.03319ZM3.71473 9.03319C3.71473 9.2501 3.54264 9.42594 3.33034 9.42594C3.11804 9.42594 2.94595 9.2501 2.94595 9.03319L2.94595 3.53473C2.94595 3.31781 3.11804 3.14197 3.33034 3.14197C3.54264 3.14197 3.71473 3.31781 3.71473 3.53473L3.71473 9.03319Z" transform="translate(0.0014864865 0)" id="Shape" fill="#444444" stroke="none" />
  </g>
</svg>