<?xml version="1.0" encoding="utf-8"?>
<svg width="13px" height="12px" viewBox="0 0 13 12" version="1.1" xmlns:xlink="http://www.w3.org/1999/xlink" xmlns="http://www.w3.org/2000/svg">
  <g id="upload" transform="translate(0.3515625 0.3515625)">
    <path d="M11.6364 0.0514874C11.4458 0.0514874 11.2932 0.20595 11.2932 0.399027L11.2932 3.56035C11.2932 4.42019 10.6017 5.11785 9.75508 5.11785L2.22458 5.11785C1.37542 5.11785 0.686441 4.41762 0.686441 3.56035L0.686441 0.34754C0.686441 0.154462 0.533898 0 0.34322 0C0.152542 0 0 0.154462 0 0.34754L0 3.56035C0 4.80378 0.999152 5.81293 2.22458 5.81293L9.75508 5.81293C10.9831 5.81293 11.9797 4.8012 11.9797 3.56035L11.9797 0.399027C11.9797 0.208524 11.8271 0.0514874 11.6364 0.0514874Z" transform="translate(0 5.435784)" id="Path" fill="#000000" stroke="#4086F1" stroke-width="0.703125" />
    <path d="M0.58411 2.80349L2.18072 1.18678L2.18072 8.23799C2.18072 8.43106 2.33326 8.58553 2.52394 8.58553C2.71462 8.58553 2.86716 8.43106 2.86716 8.23799L2.86716 1.18678L4.46377 2.80349C4.52987 2.87042 4.61886 2.90646 4.7053 2.90646C4.79428 2.90646 4.88072 2.873 4.94682 2.80349C5.08157 2.66705 5.08157 2.44823 4.94682 2.31178L2.76547 0.102975C2.70191 0.0386156 2.61292 0 2.52394 0C2.43242 0 2.34597 0.0360412 2.28242 0.102975L0.101059 2.31178C-0.0336864 2.44823 -0.0336864 2.66705 0.101059 2.80349C0.233263 2.93736 0.451907 2.93736 0.58411 2.80349Z" transform="translate(3.46589 0.006435927)" id="Path" fill="#000000" stroke="#4086F1" stroke-width="0.703125" />
  </g>
</svg>