<svg width="14" height="13" viewBox="0 0 14 13" fill="none" xmlns="http://www.w3.org/2000/svg">
<path d="M12.6364 6.48703C12.4458 6.48703 12.2932 6.6415 12.2932 6.83457V9.9959C12.2932 10.8557 11.6017 11.5534 10.7551 11.5534H3.22458C2.37542 11.5534 1.68644 10.8532 1.68644 9.9959V6.78309C1.68644 6.59001 1.5339 6.43555 1.34322 6.43555C1.15254 6.43555 1 6.59001 1 6.78309V9.9959C1 11.2393 1.99915 12.2485 3.22458 12.2485H10.7551C11.9831 12.2485 12.9797 11.2367 12.9797 9.9959V6.83457C12.9797 6.64407 12.8271 6.48703 12.6364 6.48703Z" fill="black" stroke="#B1B1B1" stroke-width="0.703125"/>
<path d="M5.05005 6.78831L6.64666 8.40501V1.35381C6.64666 1.16073 6.79921 1.00627 6.98988 1.00627C7.18056 1.00627 7.3331 1.16073 7.3331 1.35381V8.40501L8.92971 6.78831C8.99582 6.72137 9.0848 6.68533 9.17124 6.68533C9.26022 6.68533 9.34666 6.7188 9.41276 6.78831C9.54751 6.92475 9.54751 7.14357 9.41276 7.28001L7.23141 9.48882C7.16785 9.55318 7.07887 9.5918 6.98988 9.5918C6.89836 9.5918 6.81192 9.55576 6.74836 9.48882L4.567 7.28001C4.43226 7.14357 4.43226 6.92475 4.567 6.78831C4.69921 6.65444 4.91785 6.65444 5.05005 6.78831Z" fill="black" stroke="#B1B1B1" stroke-width="0.703125"/>
</svg>
