<?xml version="1.0" encoding="UTF-8"?>
<svg width="20px" height="22px" viewBox="0 0 20 22" version="1.1" xmlns="http://www.w3.org/2000/svg" xmlns:xlink="http://www.w3.org/1999/xlink">
    <title>user-4</title>
    <g id="Page-1" stroke="none" stroke-width="1" fill="none" fill-rule="evenodd">
        <g id="7.14-скопировать-ссылку-" transform="translate(-425.000000, -422.000000)" fill="#A4A4A4" fill-rule="nonzero">
            <g id="Group-41" transform="translate(390.000000, 287.000000)">
                <g id="user-4" transform="translate(35.000000, 135.000000)">
                    <path d="M10.202954,0 C6.90162753,0 4.202954,2.69867353 4.202954,6 C4.202954,9.30132647 6.90162753,12 10.202954,12 C13.5042805,12 16.202954,9.30132647 16.202954,6 C16.202954,2.69867353 13.5042805,0 10.202954,0 Z" id="Path"></path>
                    <path d="M19.9397094,15.9817354 C19.7878935,15.6077354 19.5855206,15.2586941 19.3578208,14.934564 C18.1939952,13.2391323 16.397724,12.11718 14.3737046,11.8429197 C14.1207264,11.8180087 13.8424213,11.8678308 13.64,12.0174403 C12.577385,12.7903514 11.3123971,13.1892625 9.99675545,13.1892625 C8.6811138,13.1892625 7.41612591,12.7903514 6.3535109,12.0174403 C6.15108959,11.8678308 5.8727845,11.7930499 5.6198063,11.8429197 C3.59578692,12.11718 1.77418886,13.2391323 0.635690073,14.934564 C0.407990315,15.2586941 0.205569007,15.6326941 0.0538014528,15.9817354 C-0.0220823245,16.1313449 0.00319612591,16.3058655 0.0790799031,16.4554751 C0.281501211,16.8045163 0.534479419,17.1536052 0.762179177,17.4527766 C1.11636804,17.9265163 1.49588378,18.3503384 1.92600484,18.7492495 C2.2801937,19.0982907 2.68498789,19.4224208 3.08983051,19.746551 C5.088523,21.2175922 7.49205811,21.9904555 9.971477,21.9904555 C12.4508959,21.9904555 14.854431,21.2175445 16.8531235,19.746551 C17.2579177,19.4473796 17.6627119,19.0982907 18.0169492,18.7492495 C18.4217433,18.3503384 18.8265375,17.9264685 19.1807748,17.4527766 C19.433753,17.1286464 19.6615012,16.8045163 19.8638741,16.4554751 C19.9903148,16.3058655 20.0155932,16.1312972 19.9397094,15.9817354 Z" id="Path"></path>
                </g>
            </g>
        </g>
    </g>
</svg>