<?xml version="1.0" encoding="UTF-8"?>
<svg width="10px" height="12px" viewBox="0 0 10 12" version="1.1" xmlns="http://www.w3.org/2000/svg" xmlns:xlink="http://www.w3.org/1999/xlink">
    <title>Group 3</title>
    <g id="Page-1" stroke="none" stroke-width="1" fill="none" fill-rule="evenodd">
        <g id="5-Файлообменник-стартовый-экран" transform="translate(-727.000000, -112.000000)" fill="#B6B6B6">
            <g id="Group-3" transform="translate(732.000000, 118.000000) rotate(90.000000) translate(-732.000000, -118.000000) translate(726.000000, 113.000000)">
                <path d="M0.75,0 L11.25,0 C11.6642136,-1.17977644e-15 12,0.335786438 12,0.75 L12,1.5 C12,1.91421356 11.6642136,2.25 11.25,2.25 L0.75,2.25 C0.335786438,2.25 -5.67926923e-14,1.91421356 -5.68434189e-14,1.5 L-5.68434189e-14,0.75 C-5.68941454e-14,0.335786438 0.335786438,7.6089797e-17 0.75,0 Z" id="Rectangle"></path>
                <path d="M0.75,3.75 L11.25,3.75 C11.6642136,3.75 12,4.08578644 12,4.5 L12,5.25 C12,5.66421356 11.6642136,6 11.25,6 L0.75,6 C0.335786438,6 5.07265313e-17,5.66421356 0,5.25 L0,4.5 C-5.07265313e-17,4.08578644 0.335786438,3.75 0.75,3.75 Z" id="Rectangle"></path>
                <path d="M0.75,7.5 L11.25,7.5 C11.6642136,7.5 12,7.83578644 12,8.25 L12,9 C12,9.41421356 11.6642136,9.75 11.25,9.75 L0.75,9.75 C0.335786438,9.75 5.07265313e-17,9.41421356 0,9 L0,8.25 C-5.07265313e-17,7.83578644 0.335786438,7.5 0.75,7.5 Z" id="Rectangle"></path>
            </g>
        </g>
    </g>
</svg>