<?xml version="1.0" encoding="utf-8"?>
<svg width="20px" height="12px" viewBox="0 0 20 12" version="1.1" xmlns="http://www.w3.org/2000/svg">
    <g id="video-camera">
        <path d="M11.3121 0L2.18802 0C0.984611 0 0 1.00174 0 2.22609L0 9.728C0 10.9523 0.984611 11.9541 2.18802 11.9541L11.3121 11.9541C12.5155 11.9541 13.5001 10.9523 13.5001 9.728L13.5001 2.22609C13.5001 0.979478 12.5155 0 11.3121 0Z"
              id="Path" stroke="none"/>
        <path d="M3.78528 0.0358559C3.654 0.0581167 3.52272 0.124899 3.41332 0.191682L0 2.19516L0 7.35968L3.4352 9.36316C4.06972 9.74159 4.85741 9.51899 5.22938 8.87342C5.33878 8.67307 5.40442 8.45046 5.40442 8.20559L5.40442 1.32699C5.40442 0.503334 4.63861 -0.164492 3.78528 0.0358559Z"
              transform="translate(14.59375 1.1884766)" id="Path" stroke="none"/>
    </g>
</svg>