<?xml version="1.0" encoding="UTF-8"?>
<svg width="24px" height="24px" viewBox="0 0 24 24" version="1.1" xmlns="http://www.w3.org/2000/svg" xmlns:xlink="http://www.w3.org/1999/xlink">
    <title>world</title>
    <g id="Page-1" stroke="none" stroke-width="1" fill="none" fill-rule="evenodd">
        <g id="7.14-скопировать-ссылку-" transform="translate(-423.000000, -506.000000)" fill="#A4A4A4" fill-rule="nonzero">
            <g id="Group-41" transform="translate(390.000000, 287.000000)">
                <g id="world" transform="translate(33.000000, 219.000000)">
                    <path d="M21.56625,5.226 L21.21375,5.33775 L19.3365,5.505 L18.80625,6.35175 L18.4215,6.2295 L16.9275,4.8825 L16.71075,4.182 L16.4205,3.435 L15.4815,2.59275 L14.37375,2.376 L14.34825,2.883 L15.4335,3.942 L15.9645,4.5675 L15.3675,4.8795 L14.8815,4.73625 L14.15325,4.4325 L14.178,3.84525 L13.2225,3.45225 L12.90525,4.833 L11.94225,5.05125 L12.0375,5.8215 L13.29225,6.063 L13.509,4.83225 L14.54475,4.98525 L15.02625,5.26725 L15.79875,5.26725 L16.3275,6.32625 L17.72925,7.74825 L17.6265,8.301 L16.49625,8.157 L14.54325,9.14325 L13.137,10.83 L12.954,11.577 L12.44925,11.577 L11.50875,11.1435 L10.59525,11.577 L10.8225,12.54075 L11.22,12.0825 L11.919,12.06075 L11.87025,12.92625 L12.44925,13.09575 L13.0275,13.74525 L13.97175,13.47975 L15.05025,13.65 L16.30275,13.98675 L16.92825,14.06025 L17.98875,15.264 L20.0355,16.46775 L18.71175,18.99675 L17.3145,19.64625 L16.78425,21.0915 L14.76225,22.4415 L14.547,23.22 C19.716,21.975 23.56125,17.33175 23.56125,11.78025 C23.55975,9.3555 22.82475,7.09875 21.56625,5.226 Z" id="Path"></path>
                    <path d="M13.13625,17.93775 L12.27825,16.347 L13.06575,14.706 L12.27825,14.4705 L11.394,13.5825 L9.435,13.143 L8.78475,11.7825 L8.78475,12.59025 L8.49825,12.59025 L6.81,10.30125 L6.81,8.421 L5.5725,6.40875 L3.6075,6.759 L2.28375,6.759 L1.61775,6.3225 L2.4675,5.649 L1.62,5.84475 C0.5985,7.58925 0.003,9.6135 0.003,11.78175 C0.003,18.2865 5.27625,23.562 11.78175,23.562 C12.28275,23.562 12.774,23.51775 13.26,23.45925 L13.137,22.032 C13.137,22.032 13.67775,19.9125 13.67775,19.8405 C13.677,19.76775 13.13625,17.93775 13.13625,17.93775 Z" id="Path"></path>
                    <path d="M4.38,3.79875 L6.4725,3.507 L7.437,2.97825 L8.52225,3.291 L10.25625,3.195 L10.85025,2.26125 L11.7165,2.40375 L13.82025,2.2065 L14.4,1.5675 L15.2175,1.0215 L16.374,1.1955 L16.7955,1.13175 C15.27225,0.41475 13.57725,0 11.781,0 C8.12475,0 4.8555,1.6665 2.697,4.28325 L2.703,4.28325 L4.38,3.79875 Z M12.279,1.1715 L13.482,0.50925 L14.2545,0.9555 L13.13625,1.80675 L12.06825,1.914 L11.5875,1.602 L12.279,1.1715 Z M8.71575,1.26825 L9.24675,1.4895 L9.942,1.26825 L10.32075,1.9245 L8.71575,2.346 L7.94399944,1.8945 C7.94325,1.8945 8.6985,1.4085 8.71575,1.26825 Z" id="Shape"></path>
                </g>
            </g>
        </g>
    </g>
</svg>