<svg width="12" height="13" viewBox="0 0 12 13" fill="none" xmlns="http://www.w3.org/2000/svg">
<path fill-rule="evenodd" clip-rule="evenodd" d="M9.50406 4.34311H11.1188V10.7476H9.50406V12.6178H0V0H6.686L9.50406 2.72803V4.34311ZM2.97243 9.69622H10.1005V5.39472H2.97243V9.69622Z" fill="#B6B6B6"/>
<path d="M6.00158 8.19094H4.72749L5.99181 6.55904V6.20911H4.20287V6.61624H5.47366L4.16699 8.24814V8.59807H6.00158V8.19094Z" fill="#B6B6B6"/>
<rect x="6.35352" y="6.20911" width="0.449678" height="2.38896" fill="#B6B6B6"/>
<path fill-rule="evenodd" clip-rule="evenodd" d="M8.28227 7.79726H7.73483V8.59807H7.28516V6.20911H8.26594C8.37235 6.20911 8.47072 6.23213 8.56087 6.27808C8.65096 6.3241 8.72865 6.38467 8.79382 6.45981C8.85903 6.535 8.91004 6.6202 8.94701 6.71553C8.9839 6.8109 9.0024 6.9068 9.0024 7.00322C9.0024 7.10413 8.98499 7.20227 8.95027 7.2976C8.91551 7.393 8.8666 7.47765 8.80363 7.55164C8.7406 7.6257 8.6646 7.68514 8.57554 7.72997C8.48644 7.77487 8.38868 7.79726 8.28227 7.79726ZM8.23674 6.61639H7.73496V7.39028H8.25629C8.33884 7.39028 8.40782 7.35547 8.46325 7.28593C8.51861 7.21647 8.5463 7.12225 8.5463 7.00333C8.5463 6.94277 8.53762 6.8884 8.52024 6.84014C8.50282 6.79191 8.48001 6.75098 8.45181 6.71733C8.42353 6.68368 8.39037 6.65841 8.35239 6.64162C8.31437 6.62476 8.27581 6.61639 8.23674 6.61639Z" fill="#B6B6B6"/>
</svg>
