<?xml version="1.0" encoding="utf-8"?>
<svg width="31px" height="31px" viewBox="0 0 31 31" version="1.1" xmlns:xlink="http://www.w3.org/1999/xlink" xmlns="http://www.w3.org/2000/svg">
  <g id="Group-19" transform="translate(0.5 0.5)">
    <path d="M15 30C23.2843 30 30 23.2843 30 15C30 6.71573 23.2843 0 15 0C6.71573 0 0 6.71573 0 15C0 23.2843 6.71573 30 15 30Z" id="Oval" fill="#531754" fill-rule="evenodd" stroke="none" />
    <g id="slack" transform="translate(5 5)">
      <path d="M2.0168 0C0.9032 0 0 0.9032 0 2.0168L0 7.0616C0 8.1752 0.9032 9.0784 2.0168 9.0784C3.1304 9.0784 4.0336 8.1752 4.0336 7.0616L4.0336 2.0168C4.0328 0.9032 3.1296 0 2.0168 0Z" transform="translate(5.0576 10.9208)" id="Path" fill="#E91E63" stroke="none" />
      <path d="M0 2.0184C0 3.1328 0.904 4.0368 2.0184 4.0368C3.1328 4.0368 4.0368 3.1328 4.0368 2.0184L4.0368 0L2.02 0C2.0192 0 2.0192 0 2.0184 0C0.904 0 4.57967e-16 0.904 0 2.0184Z" transform="translate(0.0152 10.9192)" id="Path" fill="#E91E63" stroke="none" />
      <path d="M2.0208 0C2.02 0 2.0192 0 2.0184 0C0.904 0 0 0.904 0 2.0184C0 3.1328 0.904 4.0368 2.0184 4.0368L4.0352 4.0368L4.0352 2.0184C4.0352 2.0176 4.0352 2.016 4.0352 2.0144C4.0344 0.9016 3.1328 8.81239e-17 2.0208 0Z" transform="translate(5.056 0.7992)" id="Path" fill="#00BCD4" stroke="none" />
      <path d="M2.0184 4.0368L7.0728 4.0368C8.1872 4.0368 9.0912 3.1328 9.0912 2.0184C9.0912 0.904 8.1872 0 7.0728 0L2.0184 0C0.904 0 0 0.904 0 2.0184C0 3.1328 0.904 4.0368 2.0184 4.0368Z" transform="translate(0.0016 5.8592)" id="Path" fill="#00BCD4" stroke="none" />
      <path d="M2.0144 0C0.9016 0 0 0.9016 0 2.0144L0 2.0184L0 4.0368L2.0168 4.0368C3.1312 4.0368 4.0352 3.1328 4.0352 2.0184C4.0352 0.904 3.1312 1.42109e-15 2.0168 1.42109e-15C2.016 1.42109e-15 2.0152 1.42109e-15 2.0144 1.42109e-15L2.0144 0Z" transform="translate(15.1512 5.8584)" id="Path" fill="#4CAF50" stroke="none" />
      <path d="M1.42109e-15 2.0168L1.42109e-15 7.0768C1.42109e-15 8.1904 0.9032 9.0936 2.0168 9.0936C3.1304 9.0936 4.0336 8.1904 4.0336 7.0768L4.0336 2.0168C4.0336 0.9032 3.1304 0 2.0168 0C0.9032 0 0 0.9032 0 2.0168L1.42109e-15 2.0168Z" transform="translate(10.1128 0.8008)" id="Path" fill="#4CAF50" stroke="none" />
      <g id="Group" transform="translate(9.6 10.4)">
        <path d="M4.0336 2.0168C4.0336 0.9032 3.1304 0 2.0168 0L0 0L0 2.0184C0.0008 3.1312 0.9032 4.0336 2.0168 4.0336C3.1304 4.0336 4.0336 3.1304 4.0336 2.0168Z" transform="translate(0.512 5.564)" id="Path" fill="#FF9800" stroke="none" />
        <path d="M7.0728 0L2.0184 0C0.904 0 0 0.904 0 2.0184C0 3.1328 0.904 4.0368 2.0184 4.0368L7.0728 4.0368C8.1872 4.0368 9.0912 3.1328 9.0912 2.0184C9.0912 0.904 8.1872 1.42109e-15 7.0728 1.42109e-15L7.0728 0Z" transform="translate(0.5104 0.5192)" id="Path" fill="#FF9800" stroke="none" />
      </g>
    </g>
  </g>
</svg>