<?xml version="1.0" encoding="utf-8"?>
<svg width="30px" height="30px" viewBox="0 0 30 30" version="1.1" xmlns:xlink="http://www.w3.org/1999/xlink" xmlns="http://www.w3.org/2000/svg">
  <g id="facebook">
    <path d="M14.8933 29.7865C23.1186 29.7865 29.7865 23.1186 29.7865 14.8933C29.7865 6.66795 23.1186 0 14.8933 0C6.66795 0 0 6.66795 0 14.8933C0 23.1186 6.66795 29.7865 14.8933 29.7865Z" id="Oval" fill="#3B5998" stroke="none" />
    <path d="M8.59885 9.6985L5.94133 9.6985L5.94133 19.4344L1.91496 19.4344L1.91496 9.6985L0 9.6985L0 6.2769L1.91496 6.2769L1.91496 4.06274C1.91496 2.47938 2.66708 0 5.97717 0L8.95965 0.0124779L8.95965 3.33372L6.79566 3.33372C6.44071 3.33372 5.94159 3.51106 5.94159 4.26637L5.94159 6.28009L8.95062 6.28009L8.59885 9.6985Z" transform="translate(10.038584 5.7777877)" id="Path" fill="#FFFFFF" stroke="none" />
  </g>
</svg>