<?xml version="1.0" encoding="utf-8"?>
<svg width="24px" height="24px" viewBox="0 0 24 24" version="1.1" xmlns:xlink="http://www.w3.org/1999/xlink" xmlns="http://www.w3.org/2000/svg">
  <defs>
    <linearGradient x1="0.09138575" y1="0.15503205" x2="0.8181859" y2="1" id="gradient_1">
      <stop offset="0" stop-color="#FE5D3F" />
      <stop offset="0.30844527" stop-color="#D13C99" />
      <stop offset="1" stop-color="#FFC953" />
    </linearGradient>
  </defs>
  <g id="instagram-2">
    <path d="M4.59375 2.29688C4.59375 3.56543 3.56543 4.59375 2.29688 4.59375C1.02832 4.59375 0 3.56543 0 2.29688C0 1.02832 1.02832 0 2.29688 0C3.56543 0 4.59375 1.02832 4.59375 2.29688Z" transform="translate(9.703125 9.703125)" id="Path" fill="url(#gradient_1)" stroke="none" />
    <path d="M11.0208 1.58514C10.9103 1.28595 10.7342 1.01514 10.5053 0.792847C10.283 0.563965 10.0124 0.387817 9.71301 0.277405C9.47021 0.183105 9.10547 0.0708618 8.43365 0.0402832C7.70691 0.00714112 7.48901 0 5.64917 0C3.80914 0 3.59125 0.00695803 2.86468 0.0401001C2.19287 0.0708618 1.82794 0.183105 1.58533 0.277405C1.28595 0.387817 1.01514 0.563965 0.79303 0.792847C0.564148 1.01514 0.388 1.28577 0.277405 1.58514C0.183105 1.82794 0.0708618 2.19287 0.0402832 2.86468C0.00714112 3.59125 0 3.80914 0 5.64917C0 7.48901 0.00714112 7.70691 0.0402832 8.43365C0.0708618 9.10547 0.183105 9.47021 0.277405 9.71301C0.388 10.0124 0.563965 10.283 0.792847 10.5053C1.01514 10.7342 1.28577 10.9103 1.58514 11.0208C1.82794 11.1152 2.19287 11.2275 2.86468 11.2581C3.59125 11.2912 3.80896 11.2982 5.64899 11.2982C7.4892 11.2982 7.70709 11.2912 8.43347 11.2581C9.10529 11.2275 9.47021 11.1152 9.71301 11.0208C10.314 10.7889 10.7889 10.314 11.0208 9.71301C11.1151 9.47021 11.2273 9.10547 11.2581 8.43365C11.2912 7.70691 11.2982 7.48901 11.2982 5.64917C11.2982 3.80914 11.2912 3.59125 11.2581 2.86468C11.2275 2.19287 11.1152 1.82794 11.0208 1.58514L11.0208 1.58514ZM5.64917 9.18732C3.69489 9.18732 2.11066 7.60327 2.11066 5.64899C2.11066 3.6947 3.69489 2.11066 5.64917 2.11066C7.60327 2.11066 9.1875 3.6947 9.1875 5.64899C9.1875 7.60327 7.60327 9.18732 5.64917 9.18732ZM9.32739 2.79767C8.87073 2.79767 8.50049 2.42743 8.50049 1.97076C8.50049 1.5141 8.87073 1.14386 9.32739 1.14386C9.78406 1.14386 10.1543 1.5141 10.1543 1.97076C10.1541 2.42743 9.78406 2.79767 9.32739 2.79767Z" transform="translate(6.35083 6.351013)" id="Shape" fill="url(#gradient_1)" stroke="none" />
    <path d="M12 0C5.3736 0 0 5.3736 0 12C0 18.6264 5.3736 24 12 24C18.6264 24 24 18.6264 24 12C24 5.3736 18.6264 0 12 0ZM18.8491 14.8409C18.8157 15.5744 18.6991 16.0752 18.5288 16.5135C18.1708 17.4391 17.4391 18.1708 16.5135 18.5288C16.0754 18.6991 15.5744 18.8156 14.8411 18.8491C14.1063 18.8826 13.8715 18.8906 12.0002 18.8906C10.1287 18.8906 9.8941 18.8826 9.15912 18.8491C8.42578 18.8156 7.9248 18.6991 7.48663 18.5288C7.02667 18.3558 6.61029 18.0846 6.26605 17.7339C5.91559 17.3899 5.64441 16.9733 5.47137 16.5135C5.30109 16.0754 5.18445 15.5744 5.15112 14.8411C5.11725 14.1061 5.10938 13.8713 5.10938 12C5.10938 10.1287 5.11725 9.89392 5.15094 9.15912C5.18427 8.4256 5.30072 7.9248 5.47101 7.48645C5.64404 7.02667 5.91541 6.61011 6.26605 6.26605C6.61011 5.91541 7.02667 5.64423 7.48645 5.47119C7.9248 5.3009 8.4256 5.18445 9.15912 5.15094C9.89392 5.11743 10.1287 5.10938 12 5.10938C13.8713 5.10938 14.1061 5.11743 14.8409 5.15112C15.5744 5.18445 16.0752 5.3009 16.5135 5.47101C16.9733 5.64404 17.3899 5.91541 17.7341 6.26605C18.0846 6.61029 18.356 7.02667 18.5288 7.48645C18.6993 7.9248 18.8157 8.4256 18.8492 9.15912C18.8828 9.89392 18.8906 10.1287 18.8906 12C18.8906 13.8713 18.8828 14.1061 18.8491 14.8409L18.8491 14.8409Z" id="Shape" fill="url(#gradient_1)" stroke="none" />
  </g>
</svg>