<?xml version="1.0" encoding="utf-8"?>
<svg width="30px" height="30px" viewBox="0 0 30 30" version="1.1" xmlns:xlink="http://www.w3.org/1999/xlink" xmlns="http://www.w3.org/2000/svg">
  <g id="linkedin">
    <path d="M14.8933 29.5253C23.1186 29.5253 29.7865 22.9158 29.7865 14.7626C29.7865 6.60946 23.1186 0 14.8933 0C6.66795 0 0 6.60946 0 14.7626C0 22.9158 6.66795 29.5253 14.8933 29.5253Z" transform="translate(0 0.26289475)" id="Oval" fill="#007AB9" stroke="none" />
    <path d="M16.6057 9.64263L16.6057 15.7289L13.0458 15.7289L13.0458 10.0505C13.0458 8.62474 12.5318 7.65105 11.2428 7.65105C10.2592 7.65105 9.67487 8.30658 9.41681 8.94132C9.3231 9.16816 9.29894 9.48316 9.29894 9.80132L9.29894 15.7287L5.73876 15.7287C5.73876 15.7287 5.78655 6.11132 5.73876 5.11579L9.2992 5.11579L9.2992 6.61974C9.29204 6.63158 9.28195 6.64316 9.27558 6.65447L9.2992 6.65447L9.2992 6.61974C9.7723 5.89816 10.616 4.86658 12.5076 4.86658C14.8497 4.86658 16.6057 6.38342 16.6057 9.64263L16.6057 9.64263ZM2.01451 0C0.796726 0 0 0.792368 0 1.83342C0 2.85237 0.773628 3.66763 1.96779 3.66763L1.99089 3.66763C3.23257 3.66763 4.0046 2.85237 4.0046 1.83342C3.98097 0.792368 3.23257 0 2.01451 0L2.01451 0ZM0.211593 15.7289L3.77044 15.7289L3.77044 5.11579L0.211593 5.11579L0.211593 15.7289Z" transform="translate(7.186195 6.5707893)" id="Shape" fill="#F1F2F2" stroke="none" />
  </g>
</svg>