<svg width="35" height="35" viewBox="0 0 35 35" fill="none" xmlns="http://www.w3.org/2000/svg">
<circle cx="17.5" cy="17.5" r="17.5" fill="#4086F1"/>
<path d="M10.3333 12.9736C12.525 14.8333 16.3706 18.1052 17.5009 19.1253C17.6527 19.263 17.8154 19.333 17.9844 19.333C18.153 19.333 18.3154 19.2637 18.4668 19.1266C19.5981 18.1055 23.4438 14.8333 25.6354 12.9736C25.7719 12.8581 25.7927 12.6549 25.6822 12.5137C25.4268 12.1872 25.0461 12 24.638 12H11.3307C10.9226 12 10.5419 12.1872 10.2865 12.5137C10.176 12.6549 10.1968 12.8581 10.3333 12.9736Z" fill="white"/>
<path d="M25.776 13.9814C25.658 13.9264 25.5193 13.9456 25.4212 14.0296C23.9858 15.2486 22.0947 16.8593 20.6684 18.0885C20.5934 18.153 20.5512 18.2477 20.5528 18.347C20.5544 18.4459 20.6002 18.5393 20.6775 18.6012C22.0028 19.6646 23.9998 21.1276 25.442 22.1673C25.4995 22.2089 25.5677 22.2301 25.6363 22.2301C25.6882 22.2301 25.7402 22.2181 25.788 22.1933C25.8991 22.1363 25.969 22.0217 25.969 21.8967V14.2838C25.9689 14.1539 25.8935 14.0358 25.776 13.9814Z" fill="white"/>
<path d="M10.527 22.1673C11.9695 21.1276 13.9669 19.6648 15.2918 18.6013C15.3691 18.5394 15.4149 18.446 15.4165 18.347C15.4181 18.2478 15.3759 18.153 15.3009 18.0886C13.8746 16.8594 11.9831 15.2487 10.5478 14.0297C10.449 13.9457 10.31 13.9271 10.193 13.9815C10.0754 14.0358 10 14.154 10 14.2839V21.8968C10 22.0218 10.0699 22.1364 10.181 22.1934C10.2287 22.2182 10.2807 22.2302 10.3327 22.2302C10.4012 22.2302 10.4695 22.209 10.527 22.1673Z" fill="white"/>
<path d="M25.5612 23.0743C24.1684 22.0759 21.6027 20.2146 20.0712 18.9691C19.9465 18.8672 19.7658 18.8705 19.643 18.9766C19.3425 19.2393 19.091 19.4607 18.9127 19.6215C18.3649 20.1169 17.6047 20.1169 17.0556 19.6208C16.8779 19.4603 16.6265 19.2383 16.3259 18.9766C16.2041 18.8698 16.0231 18.8665 15.898 18.9691C14.3717 20.2103 11.8032 22.0739 10.4081 23.0742C10.3304 23.1302 10.2804 23.2165 10.2707 23.3119C10.2613 23.4072 10.2928 23.502 10.3581 23.5723C10.6099 23.8441 10.9647 24 11.3308 24H24.6382C25.0043 24 25.3588 23.8441 25.6112 23.5723C25.6762 23.5023 25.708 23.4076 25.6986 23.3122C25.6888 23.2169 25.6388 23.1303 25.5612 23.0743Z" fill="white"/>
</svg>
