<?xml version="1.0" encoding="utf-8"?>
<svg width="30px" height="30px" viewBox="0 0 30 30" version="1.1" xmlns:xlink="http://www.w3.org/1999/xlink" xmlns="http://www.w3.org/2000/svg">
  <g id="skype-2">
    <path d="M15 30C23.2843 30 30 23.2843 30 15C30 6.71573 23.2843 0 15 0C6.71573 0 0 6.71573 0 15C0 23.2843 6.71573 30 15 30Z" id="Oval" fill="#65A2D9" stroke="none" />
    <g id="Group" transform="translate(6.3867188 7.5)">
      <path d="M16.4791 8.80447C16.2066 8.42783 16.0805 7.96799 16.0809 7.50334C16.0809 7.50059 16.0809 7.49789 16.0809 7.49514C16.0809 3.35566 12.7253 0 8.58596 0C7.68022 0 6.8125 0.161191 6.00907 0.455684C5.57453 0.615059 5.09828 0.645586 4.65268 0.520137C4.25916 0.409336 3.83852 0.362461 3.40287 0.392578C1.57305 0.518555 0.0999441 2.01814 0.00502227 3.84996C-0.0401535 4.7243 0.221878 5.53529 0.692679 6.18574C0.964905 6.56238 1.09129 7.02223 1.09088 7.48717L1.09088 7.49537C1.09088 11.6347 4.44631 14.9903 8.58584 14.9903C9.49158 14.9903 10.3593 14.8293 11.1627 14.5346C11.5973 14.3753 12.0735 14.3447 12.5191 14.4702C12.9126 14.5812 13.3333 14.6279 13.7689 14.598C15.5988 14.4721 17.0719 12.9724 17.1668 11.1407C17.212 10.2661 16.9499 9.45504 16.4791 8.80447L16.4791 8.80447ZM8.86035 6.15123C10.3715 6.5107 12.6552 7.05387 12.6552 9.56941C12.6552 10.8085 12.0449 11.754 10.9368 12.2312C10.1461 12.5717 9.25106 12.6177 8.47973 12.6177C6.10961 12.6177 4.61295 10.7749 4.55014 10.6964C4.16196 10.2097 4.24188 9.50027 4.72873 9.11209C5.21559 8.72391 5.92498 8.80383 6.31305 9.29068C6.31639 9.29473 7.21164 10.323 8.47961 10.3631C10.0064 10.4114 10.3553 9.95719 10.4004 9.56947C10.4556 9.09586 10.0343 8.74828 8.3384 8.3448C6.9008 8.00309 4.72838 7.48635 4.72838 5.16967C4.72838 4.44814 5.02182 2.0942 8.7976 2.0942C11.1818 2.0942 12.5893 3.97125 12.6481 4.05117C13.0168 4.55291 12.9091 5.25844 12.4074 5.62723C11.908 5.99438 11.2068 5.88943 10.8366 5.39379C10.8101 5.35975 10.0045 4.46338 8.7976 4.34883C7.88459 4.26205 6.98307 4.59146 6.98307 5.07779C6.9833 5.59307 7.24217 5.76639 8.86035 6.15123L8.86035 6.15123Z" transform="translate(0.027380073 0.0050390624)" id="Shape" fill="#FFFFFF" stroke="none" />
      <path d="M1.64637 1.12002C1.69676 0.687773 1.34971 0.360527 0 0L0 1.91695C1.29492 1.90506 1.604 1.48336 1.64637 1.12002Z" transform="translate(8.78168 8.454433)" id="Path" fill="#FFFFFF" stroke="none" />
    </g>
    <path d="M0 0.741984C0 1.24571 0.248203 1.42278 1.771 1.78999L1.771 0.0100891C0.873105 -0.0623913 0 0.263273 0 0.741984Z" transform="translate(13.397403 11.840848)" id="Path" fill="#FFFFFF" stroke="none" />
  </g>
</svg>