<?xml version="1.0" encoding="utf-8"?>
<svg width="37px" height="37px" viewBox="0 0 37 37" version="1.1" xmlns:xlink="http://www.w3.org/1999/xlink" xmlns="http://www.w3.org/2000/svg">
  <g id="Group-19" transform="translate(0.58203125 0.5834961)">
    <path d="M17.5 35C27.165 35 35 27.165 35 17.5C35 7.83502 27.165 0 17.5 0C7.83502 0 0 7.83502 0 17.5C0 27.165 7.83502 35 17.5 35Z" id="Oval" fill="#531754" fill-rule="evenodd" stroke="none" />
    <g id="slack" transform="translate(5.8320312 5.833496)">
      <path d="M2.35293 0C1.05373 0 0 1.05373 0 2.35293L0 8.23853C0 9.53773 1.05373 10.5915 2.35293 10.5915C3.65213 10.5915 4.70587 9.53773 4.70587 8.23853L4.70587 2.35293C4.70493 1.05373 3.6512 0 2.35293 0Z" transform="translate(5.900533 12.740933)" id="Path" fill="#E91E63" stroke="none" />
      <path d="M0 2.3548C0 3.65493 1.05467 4.7096 2.3548 4.7096C3.65493 4.7096 4.7096 3.65493 4.7096 2.3548L4.7096 0L2.35667 0C2.35573 0 2.35573 0 2.3548 0C1.05467 0 5.34295e-16 1.05467 0 2.3548Z" transform="translate(0.017733334 12.739067)" id="Path" fill="#E91E63" stroke="none" />
      <path d="M2.3576 0C2.35667 0 2.35573 0 2.3548 0C1.05467 0 0 1.05467 0 2.3548C0 3.65493 1.05467 4.7096 2.3548 4.7096L4.70773 4.7096L4.70773 2.3548C4.70773 2.35387 4.70773 2.352 4.70773 2.35013C4.7068 1.05187 3.65493 1.02811e-16 2.3576 0Z" transform="translate(5.898667 0.9324)" id="Path" fill="#00BCD4" stroke="none" />
      <path d="M2.3548 4.7096L8.2516 4.7096C9.55173 4.7096 10.6064 3.65493 10.6064 2.3548C10.6064 1.05467 9.55173 0 8.2516 0L2.3548 0C1.05467 0 0 1.05467 0 2.3548C0 3.65493 1.05467 4.7096 2.3548 4.7096Z" transform="translate(0.0018666667 6.8357334)" id="Path" fill="#00BCD4" stroke="none" />
      <path d="M2.35013 0C1.05187 0 0 1.05187 0 2.35013L0 2.3548L0 4.7096L2.35293 4.7096C3.65307 4.7096 4.70773 3.65493 4.70773 2.3548C4.70773 1.05467 3.65307 1.65793e-15 2.35293 1.65793e-15C2.352 1.65793e-15 2.35107 1.65793e-15 2.35013 1.65793e-15L2.35013 0Z" transform="translate(17.6764 6.8348)" id="Path" fill="#4CAF50" stroke="none" />
      <path d="M1.65793e-15 2.35293L1.65793e-15 8.25627C1.65793e-15 9.55547 1.05373 10.6092 2.35293 10.6092C3.65213 10.6092 4.70587 9.55547 4.70587 8.25627L4.70587 2.35293C4.70587 1.05373 3.65213 0 2.35293 0C1.05373 0 0 1.05373 0 2.35293L1.65793e-15 2.35293Z" transform="translate(11.798266 0.9342667)" id="Path" fill="#4CAF50" stroke="none" />
      <g id="Group" transform="translate(11.2 12.133333)">
        <path d="M4.70587 2.35293C4.70587 1.05373 3.65213 0 2.35293 0L0 0L0 2.3548C0.000933333 3.65307 1.05373 4.70587 2.35293 4.70587C3.65213 4.70587 4.70587 3.65213 4.70587 2.35293Z" transform="translate(0.5973333 6.4913335)" id="Path" fill="#FF9800" stroke="none" />
        <path d="M8.2516 0L2.3548 0C1.05467 0 0 1.05467 0 2.3548C0 3.65493 1.05467 4.7096 2.3548 4.7096L8.2516 4.7096C9.55173 4.7096 10.6064 3.65493 10.6064 2.3548C10.6064 1.05467 9.55173 1.65793e-15 8.2516 1.65793e-15L8.2516 0Z" transform="translate(0.5954667 0.60573334)" id="Path" fill="#FF9800" stroke="none" />
      </g>
    </g>
  </g>
</svg>