<?xml version="1.0" encoding="utf-8"?>
<svg width="30px" height="30px" viewBox="0 0 30 30" version="1.1" xmlns:xlink="http://www.w3.org/1999/xlink" xmlns="http://www.w3.org/2000/svg">
  <g id="telegram">
    <path d="M15 30C23.2843 30 30 23.2843 30 15C30 6.71573 23.2843 0 15 0C6.71573 0 0 6.71573 0 15C0 23.2843 6.71573 30 15 30Z" id="Oval" fill="#039BE5" stroke="none" />
    <path d="M0.759342 5.6445L15.2218 0.0682475C15.8931 -0.174252 16.4793 0.231998 16.2618 1.247L16.2631 1.24575L13.8006 12.847C13.6181 13.6695 13.1293 13.8695 12.4456 13.482L8.69559 10.7182L6.88684 12.4607C6.68684 12.6607 6.51809 12.8295 6.13059 12.8295L6.39684 9.01325L13.3468 2.7345C13.6493 2.46825 13.2793 2.31825 12.8806 2.58325L4.29184 7.99075L0.589342 6.83575C-0.214408 6.58075 -0.231908 6.032 0.759342 5.6445Z" transform="translate(6.1044083 9.030502)" id="Path" fill="#FFFFFF" stroke="none" />
  </g>
</svg>