<?xml version="1.0" encoding="utf-8"?>
<svg width="30px" height="30px" viewBox="0 0 30 30" version="1.1" xmlns:xlink="http://www.w3.org/1999/xlink" xmlns="http://www.w3.org/2000/svg">
  <g id="twitter">
    <path d="M14.8933 29.7865C23.1186 29.7865 29.7865 23.1186 29.7865 14.8933C29.7865 6.66795 23.1186 0 14.8933 0C6.66795 0 0 6.66795 0 14.8933C0 23.1186 6.66795 29.7865 14.8933 29.7865Z" transform="translate(0.0002654867 0)" id="Oval" fill="#55ACEE" stroke="none" />
    <path d="M17.3517 1.66938C16.7135 1.95239 16.0269 2.14381 15.3069 2.22929C16.042 1.78885 16.6062 1.09195 16.8725 0.260177C16.1846 0.66823 15.4224 0.964248 14.6119 1.12381C13.9625 0.432212 13.0373 0 12.0127 0C10.0471 0 8.45283 1.59425 8.45283 3.55991C8.45283 3.83894 8.48442 4.11053 8.54549 4.37124C5.5869 4.22283 2.96363 2.80566 1.2077 0.651239C0.901327 1.1769 0.725575 1.78885 0.725575 2.44115C0.725575 3.67593 1.35451 4.76602 2.3092 5.40425C1.72593 5.38593 1.17664 5.22584 0.696903 4.9585C0.696637 4.97363 0.696637 4.98876 0.696637 5.00363C0.696637 6.7285 1.92425 8.16717 3.55248 8.49398C3.25407 8.57575 2.93894 8.61903 2.61478 8.61903C2.38487 8.61903 2.16212 8.59699 1.94496 8.55558C2.39788 9.96956 3.7123 10.9988 5.27044 11.0278C4.05186 11.9827 2.51708 12.5517 0.848761 12.5517C0.562035 12.5517 0.277965 12.535 0 12.5018C1.5746 13.5122 3.44628 14.1013 5.45655 14.1013C12.0045 14.1013 15.5854 8.6769 15.5854 3.97221C15.5854 3.81796 15.5819 3.66425 15.575 3.51186C16.2711 3.01009 16.8746 2.38327 17.3517 1.66938L17.3517 1.66938Z" transform="translate(6.664513 9.033982)" id="Path" fill="#F1F2F2" stroke="none" />
  </g>
</svg>