<?xml version="1.0" encoding="utf-8"?>
<svg width="30px" height="30px" viewBox="0 0 30 30" version="1.1" xmlns:xlink="http://www.w3.org/1999/xlink" xmlns="http://www.w3.org/2000/svg">
  <g id="viber">
    <path d="M15 30C23.2843 30 30 23.2843 30 15C30 6.71573 23.2843 0 15 0C6.71573 0 0 6.71573 0 15C0 23.2843 6.71573 30 15 30Z" id="Oval" fill="#6F3FAA" stroke="none" />
    <g id="Group" transform="translate(6.6796875 6.3867188)">
      <path d="M16.2418 4.12825L16.2369 4.10845C15.8361 2.48815 14.0292 0.74956 12.3698 0.387861L12.3511 0.383994C9.66715 -0.127998 6.94576 -0.127998 4.2624 0.383994L4.24312 0.387861C2.58434 0.74956 0.777363 2.48827 0.376055 4.10845L0.371602 4.12825C-0.123867 6.39097 -0.123867 8.68573 0.371602 10.9484L0.376055 10.9683C0.760312 12.5193 2.43264 14.1781 4.03008 14.6343L4.03008 16.443C4.03008 17.0976 4.82783 17.4191 5.28147 16.9467L7.11398 15.0419C7.51148 15.0641 7.90916 15.0765 8.30672 15.0765C9.65771 15.0765 11.0094 14.9487 12.351 14.6928L12.3697 14.6889C14.0291 14.3272 15.836 12.5885 16.2368 10.9683L16.2417 10.9485C16.7372 8.68573 16.7372 6.39108 16.2418 4.12825ZM14.7915 10.6204C14.5239 11.6775 13.152 12.9916 12.0619 13.2344C10.6349 13.5058 9.19646 13.6218 7.75951 13.582C7.73092 13.5812 7.70344 13.5923 7.68357 13.6128C7.47961 13.8221 6.34559 14.9864 6.34559 14.9864L4.92246 16.447C4.8184 16.5555 4.63559 16.4816 4.63559 16.3319L4.63559 13.3357C4.63559 13.2862 4.60025 13.2442 4.55162 13.2345C4.55133 13.2344 4.55109 13.2344 4.5508 13.2344C3.46072 12.9916 2.08928 11.6774 1.82121 10.6203C1.37525 8.57505 1.37525 6.50165 1.82121 4.45638C2.08928 3.39929 3.46072 2.08515 4.5508 1.84233C7.04314 1.36831 9.57018 1.36831 12.062 1.84233C13.1526 2.08515 14.524 3.39929 14.7916 4.45638C15.238 6.50171 15.238 8.57511 14.7915 10.6204Z" transform="translate(0.013710937 0.027451172)" id="Shape" fill="#FFFFFF" stroke="none" />
      <path d="M6.69609 8.25354C6.52851 8.20262 6.36885 8.16846 6.22043 8.10699C4.68346 7.46932 3.269 6.64666 2.14863 5.38567C1.51148 4.6686 1.01279 3.85901 0.591269 3.00225C0.391347 2.59596 0.22289 2.17379 0.0511513 1.75426C-0.105411 1.37176 0.125214 0.976603 0.368026 0.688322C0.595897 0.417795 0.889159 0.210842 1.20674 0.0582048C1.45459 -0.0608577 1.69904 0.00781421 1.8801 0.217873C2.27139 0.672092 2.63092 1.14951 2.92189 1.67604C3.1009 1.99988 3.0518 2.39574 2.72736 2.61612C2.64849 2.66967 2.57666 2.7326 2.50324 2.79307C2.43879 2.8461 2.3782 2.89965 2.33402 2.97143C2.25334 3.10274 2.24947 3.25772 2.30139 3.40051C2.70141 4.49979 3.37564 5.35467 4.48219 5.81516C4.65926 5.88881 4.83703 5.97453 5.04105 5.9508C5.38266 5.9109 5.49328 5.53613 5.73269 5.34037C5.96666 5.14906 6.26572 5.14654 6.51773 5.30604C6.76986 5.46565 7.0142 5.63686 7.25713 5.81C7.4956 5.97992 7.73297 6.14604 7.95287 6.33981C8.16439 6.52608 8.23723 6.77041 8.1181 7.02313C7.90014 7.48608 7.58285 7.8711 7.12529 8.11696C6.99609 8.18621 6.84176 8.20865 6.69609 8.25354C6.52851 8.20262 6.84176 8.20865 6.69609 8.25354Z" transform="translate(3.995509 3.777342)" id="Path" fill="#FFFFFF" stroke="none" />
      <path d="M0.362292 0.000795032C2.37258 0.0571622 4.02381 1.39128 4.37766 3.37878C4.43796 3.71745 4.4594 4.06363 4.48624 4.4074C4.49755 4.55195 4.41563 4.68929 4.25965 4.69122C4.09852 4.69316 4.02604 4.55828 4.01549 4.41384C3.99481 4.12779 3.98046 3.84038 3.94102 3.55679C3.73296 2.05919 2.53882 0.820229 1.04819 0.554389C0.823834 0.514369 0.594381 0.503881 0.367096 0.480033C0.223483 0.464975 0.035397 0.456303 0.00358061 0.277709C-0.0230795 0.128002 0.103249 0.00882237 0.245807 0.00114659C0.28442 -0.00113856 0.323385 0.000677844 0.362292 0.000795032C2.3727 0.0571622 0.323385 0.000677844 0.362292 0.000795032Z" transform="translate(7.962181 3.3054159)" id="Path" fill="#FFFFFF" stroke="none" />
      <path d="M3.04828 2.88669C3.04494 2.91183 3.04325 2.97084 3.02848 3.02638C2.97516 3.22818 2.66907 3.25343 2.59869 3.04982C2.57778 2.98941 2.57467 2.92062 2.57455 2.85558C2.57385 2.42984 2.48133 2.00445 2.26659 1.63396C2.04586 1.25316 1.7086 0.933179 1.31315 0.739409C1.07397 0.622339 0.815394 0.549507 0.553245 0.506206C0.438694 0.487222 0.322913 0.475796 0.207776 0.459742C0.0682648 0.440347 -0.00626649 0.35146 0.000413195 0.213999C0.00656554 0.0852103 0.100726 -0.00754363 0.241116 0.000483711C0.702425 0.0266165 1.14809 0.12646 1.5583 0.343609C2.39233 0.785347 2.86881 1.4825 3.00791 2.41349C3.01418 2.45574 3.02426 2.49746 3.02748 2.53976C3.03534 2.64418 3.04032 2.74876 3.04828 2.88669C3.04494 2.91171 3.04032 2.74876 3.04828 2.88669Z" transform="translate(8.331326 4.3800435)" id="Path" fill="#FFFFFF" stroke="none" />
      <path d="M1.49247 1.73677C1.32431 1.73982 1.23431 1.64665 1.2169 1.49255C1.20489 1.38509 1.19528 1.27611 1.16962 1.17146C1.11911 0.965384 1.0096 0.774485 0.836278 0.648216C0.754481 0.588626 0.661727 0.545208 0.564637 0.517083C0.441297 0.481399 0.313094 0.491243 0.190106 0.461126C0.0564536 0.428372 -0.0174918 0.320091 0.0035434 0.194759C0.022645 0.0806182 0.133622 -0.00844428 0.258368 0.000637751C1.03778 0.0568877 1.59483 0.459837 1.67434 1.37742C1.68003 1.44216 1.68659 1.51054 1.67223 1.57259C1.64751 1.67847 1.56899 1.73161 1.49247 1.73677C1.32425 1.73976 1.56899 1.73161 1.49247 1.73677Z" transform="translate(8.636749 5.4812765)" id="Path" fill="#FFFFFF" stroke="none" />
    </g>
    <path d="M0.0560405 0.0806866C0.216735 0.00408661 -0.128829 -0.00621339 0.0560405 0.0806866L0.0560405 0.0806866Z" transform="translate(17.32049 18.370321)" id="Path" fill="#FFFFFF" stroke="none" />
    <g id="Group" transform="translate(14.941406 9.609375)">
      <path d="M0.0547716 0.0501903C0.0518716 0.0501903 0.0490716 0.0498903 0.0461716 0.0498903C0.0433716 0.0496903 0.0469716 0.0498903 0.0547716 0.0501903Z" transform="translate(0.035817426 0.054439306)" id="Path" fill="#FFFFFF" stroke="none" />
      <path d="M0 0.0286485C0.00169922 0.0286485 0.00333984 0.0289485 0.00503906 0.0289485C0.116602 0.0357485 1.93113 0.121049 0 0.0286485Z" transform="translate(0.0628125 0.06676844)" id="Path" fill="#FFFFFF" stroke="none" />
    </g>
    <g id="Group" transform="translate(16.699219 13.535156)">
      <path d="M0.0537596 0.0954663C0.0401596 -0.139218 0.0480596 0.138037 0.0537596 0.0954663L0.0537596 0.0954663Z" transform="translate(1.3285784 0.06219292)" id="Path" fill="#FFFFFF" stroke="none" />
      <path d="M0.0618 0.0515481C0.0663 0.0512481 0.0706 0.0489481 0.0749 0.0484481C0.0628 0.0484481 0.0442 0.0487481 0.0251 0.0494481C0.0375 0.0497481 0.0488 0.0516481 0.0618 0.0515481Z" transform="translate(0.07347656 0.039405413)" id="Path" fill="#FFFFFF" stroke="none" />
      <path d="M0.1 0.0504754C0.0874796 0.0506754 0.076415 0.0487754 0.0643799 0.0483754C0.00410712 0.0500754 -0.0581068 0.0533754 0.1 0.0504754Z" transform="translate(0.0493174 0.04003397)" id="Path" fill="#FFFFFF" stroke="none" />
      <path d="M0.0501284 0.04845C0.0456284 0.04895 0.0413284 0.05125 0.0370284 0.05155C0.0706284 0.04925 0.0677284 0.04845 0.0501284 0.04845Z" transform="translate(0.0879912 0.039404295)" id="Path" fill="#FFFFFF" stroke="none" />
    </g>
  </g>
</svg>