<?xml version="1.0" encoding="utf-8"?>
<svg width="24px" height="24px" viewBox="0 0 24 24" version="1.1" xmlns:xlink="http://www.w3.org/1999/xlink" xmlns="http://www.w3.org/2000/svg">
  <g id="Group-20">
    <g id="skype-2">
      <path d="M12 24C18.6274 24 24 18.6274 24 12C24 5.37258 18.6274 0 12 0C5.37258 0 0 5.37258 0 12C0 18.6274 5.37258 24 12 24Z" id="Oval" fill="#4D76A1" stroke="none" />
    </g>
    <g id="vk-social-network-logo" transform="translate(4 8)">
      <path d="M15.8966 8.09856C15.8772 8.05754 15.8592 8.02352 15.8424 7.99626C15.5651 7.50513 15.0353 6.9023 14.2531 6.1876L14.2366 6.17124L14.2283 6.16321L14.22 6.15499L14.2116 6.15499C13.8566 5.82219 13.6318 5.59842 13.5377 5.48386C13.3654 5.26562 13.3269 5.04472 13.421 4.82089C13.4875 4.65179 13.7373 4.29465 14.1699 3.74901C14.3974 3.45983 14.5776 3.22807 14.7107 3.05345C15.6704 1.79861 16.0865 0.996754 15.9588 0.647559L15.9093 0.565957C15.876 0.51683 15.79 0.471887 15.6515 0.4309C15.5126 0.389999 15.3352 0.383234 15.1188 0.410492L12.7224 0.426773C12.6836 0.413244 12.6282 0.414505 12.556 0.4309C12.4838 0.447295 12.4478 0.455521 12.4478 0.455521L12.4061 0.476015L12.373 0.500636C12.3452 0.516916 12.3147 0.54555 12.2814 0.58648C12.2482 0.627266 12.2205 0.675133 12.1984 0.729677C11.9375 1.3898 11.6409 2.00355 11.3079 2.57089C11.1027 2.9092 10.9142 3.20238 10.742 3.45063C10.5701 3.69879 10.4259 3.88163 10.3095 3.99883C10.1929 4.11614 10.0877 4.21013 9.99321 4.28112C9.89887 4.35215 9.82686 4.38216 9.77699 4.37118C9.72701 4.3602 9.67994 4.34931 9.63538 4.33842C9.55777 4.28929 9.49534 4.22248 9.44828 4.13793C9.40101 4.05337 9.36918 3.94695 9.35254 3.81874C9.33599 3.69045 9.32619 3.5801 9.3234 3.48732C9.3208 3.39465 9.322 3.26358 9.32762 3.09447C9.33339 2.92528 9.33599 2.8108 9.33599 2.75078C9.33599 2.54344 9.3401 2.31841 9.34834 2.07564C9.35674 1.83287 9.36353 1.64051 9.36921 1.4988C9.37486 1.35695 9.37749 1.20688 9.37749 1.04866C9.37749 0.890445 9.36769 0.766365 9.34834 0.676308C9.32922 0.586365 9.29988 0.499059 9.2612 0.414419C9.2223 0.329865 9.16535 0.264457 9.09062 0.218024C9.01575 0.171648 8.92267 0.134846 8.81189 0.107502C8.51786 0.0420657 8.14345 0.00666756 7.68848 0.00116437C6.65676 -0.00972734 5.99382 0.055795 5.69982 0.197645C5.58333 0.257578 5.47792 0.339467 5.38367 0.443053C5.28379 0.56312 5.26986 0.628642 5.34196 0.639419C5.67484 0.688461 5.9105 0.805776 6.0492 0.99125L6.09918 1.08953C6.13805 1.16044 6.17687 1.28599 6.21572 1.46599C6.25451 1.64599 6.27955 1.8451 6.29056 2.06323C6.31825 2.46155 6.31825 2.80251 6.29056 3.08616C6.26279 3.36992 6.23656 3.59082 6.21153 3.74903C6.18649 3.90725 6.14907 4.03546 6.09918 4.13363C6.0492 4.23182 6.01594 4.29184 5.99927 4.31363C5.98263 4.33541 5.96876 4.34914 5.95774 4.35453C5.88564 4.3817 5.81065 4.39554 5.73304 4.39554C5.65532 4.39554 5.56106 4.35731 5.45014 4.28089C5.33925 4.20448 5.22416 4.09952 5.10487 3.96584C4.98559 3.83213 4.85106 3.64528 4.70123 3.40526C4.55152 3.16524 4.39618 2.88157 4.23531 2.55424L4.10221 2.31686C4.019 2.16415 3.90534 1.94178 3.76111 1.64997C3.61679 1.35804 3.48922 1.07566 3.37833 0.802881C3.334 0.688317 3.26741 0.601098 3.17867 0.541078L3.13702 0.516457C3.10933 0.494674 3.06489 0.471543 3.00392 0.446894C2.94286 0.422273 2.87915 0.404617 2.81253 0.393754L0.532634 0.410034C0.299658 0.410034 0.141581 0.461941 0.0583461 0.565613L0.0250346 0.614655C0.00839344 0.64197 0 0.685594 0 0.745642C0 0.805661 0.0166412 0.879324 0.0499526 0.966543C0.382776 1.73584 0.744714 2.47777 1.13577 3.19244C1.52682 3.90711 1.86664 4.48279 2.15502 4.91898C2.44345 5.35548 2.73746 5.76744 3.03703 6.15467C3.3366 6.54204 3.53489 6.79029 3.63191 6.89935C3.72905 7.00861 3.80535 7.0903 3.86081 7.14484L4.06887 7.34121C4.202 7.47217 4.39749 7.62901 4.65545 7.81173C4.91346 7.99457 5.1991 8.17457 5.51251 8.35202C5.82598 8.52918 6.19066 8.67375 6.60675 8.78557C7.02278 8.89749 7.4277 8.94241 7.82158 8.92074L8.77849 8.92074C8.97256 8.90426 9.11959 8.84424 9.21953 8.74065L9.25263 8.69964C9.2749 8.66708 9.29574 8.61649 9.31497 8.54841C9.33444 8.48022 9.34412 8.4051 9.34412 8.32338C9.33843 8.08884 9.35659 7.87745 9.39809 7.68926C9.43956 7.50112 9.48683 7.35927 9.5397 7.26373C9.59254 7.16829 9.65217 7.08775 9.71853 7.02245C9.78503 6.95702 9.83242 6.91738 9.86023 6.90373C9.88785 6.89001 9.90992 6.88069 9.92656 6.8751C10.0597 6.83148 10.2164 6.87373 10.3968 7.00205C10.5771 7.13025 10.7463 7.28856 10.9045 7.4767C11.0626 7.66501 11.2525 7.87628 11.4744 8.11082C11.6964 8.34546 11.8904 8.51987 12.0568 8.6346L12.2232 8.7328C12.3343 8.79832 12.4785 8.85834 12.656 8.91288C12.8333 8.9674 12.9885 8.98104 13.1219 8.95379L15.2519 8.92111C15.4626 8.92111 15.6265 8.8868 15.7428 8.81873C15.8593 8.75054 15.9285 8.67542 15.9509 8.5937C15.9731 8.5119 15.9743 8.41909 15.9551 8.31533C15.9354 8.21183 15.9159 8.13946 15.8966 8.09856Z" transform="translate(0 0.021450276)" id="Path" fill="#FFFFFF" stroke="none" />
    </g>
  </g>
</svg>