<?xml version="1.0" encoding="utf-8"?>
<svg width="30px" height="30px" viewBox="0 0 30 30" version="1.1" xmlns:xlink="http://www.w3.org/1999/xlink" xmlns="http://www.w3.org/2000/svg">
  <g id="whatsapp">
    <path d="M15 30C23.2843 30 30 23.2843 30 15C30 6.71573 23.2843 0 15 0C6.71573 0 0 6.71573 0 15C0 23.2843 6.71573 30 15 30Z" id="Oval" fill="#75B73B" stroke="none" />
    <g id="Group" transform="translate(6.3867188 6.328125)">
      <path d="M8.16619 0.0100157C3.59418 0.227516 -0.0137303 4.03517 3.92818e-05 8.61222C0.00425803 10.0063 0.340821 11.3221 0.93461 12.485L0.0230666 16.9096C-0.0262107 17.149 0.189649 17.3586 0.427422 17.3023L4.76307 16.2751C5.87699 16.8301 7.12815 17.1504 8.45225 17.1707C13.1253 17.2421 17.0216 13.5317 17.1675 8.86037C17.3235 3.85306 13.1908 -0.22934 8.16619 0.0100157L8.16619 0.0100157ZM13.3396 13.3394C12.0699 14.6091 10.3816 15.3084 8.5859 15.3084C7.53449 15.3084 6.52773 15.0725 5.59375 14.6073L4.99012 14.3065L2.33172 14.9362L2.89123 12.22L2.59387 11.6374C2.10895 10.6878 1.86309 9.66117 1.86309 8.58562C1.86309 6.78984 2.5624 5.1017 3.83207 3.83191C5.09043 2.57343 6.80623 1.86293 8.58602 1.86293C10.3816 1.86293 12.0699 2.56224 13.3396 3.83191C14.6092 5.10158 15.3085 6.7899 15.3085 8.58545C15.3087 10.3653 14.598 12.081 13.3396 13.3394L13.3396 13.3394Z" transform="translate(0.027382594 0.016175754)" id="Shape" fill="#FFFFFF" stroke="none" />
      <path d="M8.49271 6.00039L6.82958 5.5229C6.61109 5.46027 6.37554 5.52232 6.21622 5.68462L5.80947 6.09888C5.63802 6.27373 5.37786 6.3298 5.15087 6.23798C4.36413 5.91958 2.70915 4.44806 2.28675 3.71224C2.16464 3.4999 2.18486 3.23458 2.33462 3.04064L2.68958 2.58132C2.82868 2.40144 2.85798 2.15962 2.76605 1.95162L2.06638 0.369116C1.8988 -0.0098684 1.41447 -0.120259 1.098 0.147397C0.633879 0.540034 0.0831569 1.13646 0.0163014 1.7974C-0.101765 2.96265 0.39804 4.43142 2.28751 6.19515C4.47054 8.23292 6.2188 8.50193 7.35722 8.22624C8.00286 8.06998 8.51884 7.44314 8.84427 6.9298C9.0664 6.57959 8.89085 6.11482 8.49271 6.00039L8.49271 6.00039Z" transform="translate(4.287468 4.4634037)" id="Path" fill="#FFFFFF" stroke="none" />
    </g>
  </g>
</svg>