<svg width="16" height="19" viewBox="0 0 16 19" fill="none" xmlns="http://www.w3.org/2000/svg">
<path d="M9.55545 18.5982H13.776C14.3769 18.5982 14.8646 18.1071 14.8646 17.502V3.24641V2.09626C14.8646 1.49114 14.3769 1 13.776 1H7.94007H6.80724V1.36266C6.81134 1.39996 6.81341 1.43933 6.81341 1.47871V3.86811V5.27564C6.81341 6.12736 6.1261 6.81952 5.28034 6.81952H3.86354H1.49088C1.46001 6.81952 1.42708 6.81745 1.39622 6.81538H1.01758V17.502C1.01758 18.1071 1.50528 18.5982 2.10616 18.5982H3.29969H7.94007H9.55545Z" fill="none" stroke="#DBBB95" stroke-width="0.6"/>
<path d="M1.49125 5.40373H4.47303C4.47509 5.40373 4.4792 5.40373 4.48126 5.40373C4.97925 5.39958 5.38258 4.99341 5.3867 4.4919C5.3867 4.48983 5.3867 4.48569 5.3867 4.48361V1.47873C5.3867 1.20104 5.16034 1.0166 4.92577 1.0166C4.81259 1.0166 4.69941 1.05805 4.60475 1.15338L1.16612 4.61624C0.878026 4.90637 1.08175 5.40373 1.49125 5.40373Z" fill="white" stroke="#DBBB95" stroke-width="0.6"/>
</svg>
