<svg width="20" height="21" viewBox="0 0 20 21" fill="none" xmlns="http://www.w3.org/2000/svg">
<path d="M5.5 5C5.22384 5 5 4.72247 5 4.38009V0.61991C5 0.277526 5.22384 0 5.5 0C5.77616 0 6 0.277526 6 0.61991V4.38009C6 4.72247 5.77616 5 5.5 5Z" fill="white"/>
<path d="M14.5 5C14.2238 5 14 4.72247 14 4.38009V0.61991C14 0.277526 14.2238 0 14.5 0C14.7762 0 15 0.277526 15 0.61991V4.38009C15 4.72247 14.7762 5 14.5 5Z" fill="white"/>
<path d="M0 9V18.1662C0 19.7288 1.32407 21 2.95161 21H17.0484C18.6759 21 20 19.7288 20 18.1662V9L0 9Z" fill="white"/>
<path d="M20 8V4.8951C20 3.29875 18.6759 2.00004 17.0484 2.00004H16.5897V4.73705C16.5897 5.85977 15.6585 6.77311 14.5139 6.77311C13.3692 6.77311 12.4381 5.85977 12.4381 4.73705V2H7.56198V4.73701C7.56198 5.85972 6.6308 6.77306 5.48615 6.77306C4.34151 6.77306 3.41033 5.85972 3.41033 4.73701V2H2.95161C1.32408 2 0 3.29871 0 4.89506V7.99996H20V8Z" fill="white"/>
</svg>
