<svg width="20" height="20" viewBox="0 0 20 20" fill="none" xmlns="http://www.w3.org/2000/svg">
<path fill-rule="evenodd" clip-rule="evenodd" d="M10.0526 0H10.0199C4.50491 0 0.0198975 4.40107 0.0198975 9.81283C0.0198975 12.0214 0.78829 14.1658 2.19428 15.893L0.739244 19.2139C0.619353 19.4866 0.750143 19.8021 1.02262 19.9144C1.12071 19.9572 1.22971 19.9679 1.33325 19.9519L6.6684 19.0321C7.73652 19.4118 8.85913 19.6043 9.99265 19.5989C15.5076 19.5989 19.9926 15.1979 19.9926 9.7861C20.0035 4.39037 15.5512 0.00534759 10.0526 0ZM6.63025 7.83957H9.57303C9.87276 7.83957 10.118 8.08021 10.118 8.37433C10.118 8.66845 9.87276 8.90909 9.57303 8.90909H6.63025C6.33052 8.90909 6.08529 8.66845 6.08529 8.37433C6.08529 8.08021 6.33052 7.83957 6.63025 7.83957ZM6.63025 11.5829H13.3877C13.6875 11.5829 13.9327 11.3422 13.9327 11.0481C13.9327 10.754 13.6875 10.5134 13.3877 10.5134H6.63025C6.33052 10.5134 6.08529 10.754 6.08529 11.0481C6.08529 11.3422 6.33052 11.5829 6.63025 11.5829Z" fill="white"/>
</svg>
