<svg width="15" height="19" viewBox="0 0 15 19" fill="none" xmlns="http://www.w3.org/2000/svg">
<path d="M8.82808 18.3067H13.1826C13.8026 18.3067 14.3058 17.7958 14.3058 17.1663V2.33684V1.1404C14.3058 0.510915 13.8026 0 13.1826 0H7.16142H5.99263V0.377258C5.99685 0.416062 5.999 0.457021 5.999 0.49798V2.98357V4.44776C5.999 5.33378 5.28987 6.0538 4.41725 6.0538H2.95547H0.507488C0.475641 6.0538 0.44167 6.05165 0.409823 6.04949H0.019165V17.1663C0.019165 17.7958 0.52235 18.3067 1.14231 18.3067H2.37373H7.16142H8.82808Z" fill="white"/>
<path d="M0.507445 4.58083H3.58388C3.586 4.58083 3.59025 4.58083 3.59237 4.58083C4.10617 4.57652 4.52231 4.15399 4.52655 3.6323C4.52655 3.63014 4.52655 3.62583 4.52655 3.62368V0.497824C4.52655 0.208952 4.29301 0.0170898 4.05099 0.0170898C3.93422 0.0170898 3.81744 0.060205 3.71978 0.15937L0.171988 3.76164C-0.125252 4.06345 0.0849393 4.58083 0.507445 4.58083Z" fill="white"/>
</svg>
