<svg width="20" height="17" viewBox="0 0 20 17" fill="none" xmlns="http://www.w3.org/2000/svg">
<path d="M17.1129 9.17529H15.5662C15.7238 9.60614 15.81 10.0711 15.81 10.5557V16.3907C15.81 16.5928 15.7747 16.7867 15.7106 16.9671H18.2677C19.2229 16.9671 20 16.1914 20 15.238V12.0571C20 10.4681 18.7048 9.17529 17.1129 9.17529Z" fill="white"/>
<path d="M4.19004 10.5557C4.19004 10.0711 4.27617 9.60614 4.43383 9.17529H2.88711C1.29516 9.17529 0 10.4681 0 12.0571V15.238C0 16.1914 0.77707 16.9671 1.73227 16.9671H4.28937C4.22527 16.7867 4.19004 16.5928 4.19004 16.3907V10.5557Z" fill="white"/>
<path d="M11.768 7.67383H8.23196C6.64 7.67383 5.34485 8.96661 5.34485 10.5556V16.3906C5.34485 16.7089 5.60336 16.967 5.92227 16.967H14.0777C14.3966 16.967 14.6551 16.7089 14.6551 16.3906V10.5556C14.6551 8.96661 13.3599 7.67383 11.768 7.67383Z" fill="white"/>
<path d="M9.99994 0.0327148C8.08541 0.0327148 6.52783 1.58744 6.52783 3.49849C6.52783 4.79474 7.24459 5.92684 8.30311 6.52122C8.80518 6.80312 9.384 6.96423 9.99994 6.96423C10.6159 6.96423 11.1947 6.80312 11.6968 6.52122C12.7553 5.92684 13.4721 4.7947 13.4721 3.49849C13.4721 1.58747 11.9145 0.0327148 9.99994 0.0327148Z" fill="white"/>
<path d="M3.90308 3.26318C2.47124 3.26318 1.3064 4.42589 1.3064 5.8551C1.3064 7.28431 2.47124 8.44701 3.90308 8.44701C4.26628 8.44701 4.61214 8.37192 4.92632 8.23693C5.46952 8.00349 5.91741 7.59027 6.19456 7.07267C6.38909 6.70939 6.49976 6.29495 6.49976 5.8551C6.49976 4.42593 5.33491 3.26318 3.90308 3.26318Z" fill="white"/>
<path d="M16.0969 3.26318C14.6651 3.26318 13.5002 4.42589 13.5002 5.8551C13.5002 6.29499 13.6109 6.70943 13.8054 7.07267C14.0826 7.59031 14.5305 8.00353 15.0737 8.23693C15.3879 8.37192 15.7337 8.44701 16.0969 8.44701C17.5288 8.44701 18.6936 7.28431 18.6936 5.8551C18.6936 4.42589 17.5288 3.26318 16.0969 3.26318Z" fill="white"/>
</svg>
