<svg width="18" height="18" viewBox="0 0 18 18" fill="none" xmlns="http://www.w3.org/2000/svg">
<path d="M2.62255 11.5341C2.52085 11.7374 2.56046 11.9831 2.72069 12.1438L2.84939 12.2727C3.22123 11.8312 3.65462 11.3521 4.18025 10.8255C4.2174 10.7883 4.25564 10.7703 4.29292 10.736L3.46493 9.90625C2.98357 10.7786 2.70287 11.3746 2.62255 11.5341Z" fill="white"/>
<path d="M7.15748 13.8082C6.63061 14.3361 6.15364 14.7711 5.71545 15.144L5.8898 15.3187C6.05153 15.4807 6.29906 15.5197 6.5026 15.4148C6.77521 15.274 7.20394 15.0719 8.11403 14.5641L7.24698 13.6953C7.21271 13.7328 7.19476 13.771 7.15748 13.8082Z" fill="white"/>
<path d="M6.87692 11.1073C6.49658 10.7262 5.42695 11.0679 4.92449 11.5712C3.24356 13.2554 2.48438 14.4495 2.14351 15.1546C2.04578 15.3566 2.08649 15.5984 2.24493 15.7572C2.40365 15.9163 2.64543 15.9567 2.84718 15.8588C3.53509 15.5241 4.71231 14.767 6.41325 13.0629C6.96574 12.509 7.23836 11.4696 6.87734 11.1077L6.87692 11.1073Z" fill="white"/>
<path d="M1.64279 7.02089L0.154166 8.51242C-0.0141452 8.68106 -0.0486847 8.94212 0.0705588 9.14894C0.186924 9.35301 0.430619 9.45697 0.662527 9.39476C1.46708 9.1786 2.175 9.08728 2.6517 9.20977C3.32988 8.00169 4.05863 6.8896 4.83043 5.87941C4.38402 5.59266 2.90883 5.75238 1.64279 7.02089Z" fill="white"/>
<path d="M8.90854 17.9432C9.11125 18.0459 9.35673 18.0062 9.51723 17.8453L11.006 16.3538C12.1585 15.1987 12.3614 13.7084 12.0999 13.2358C10.9754 14.0849 9.8363 14.8019 8.77353 15.4022C8.84686 15.8171 8.79806 16.2196 8.62468 17.3951C8.59083 17.6227 8.70815 17.8428 8.90854 17.9432Z" fill="white"/>
<path d="M10.4492 5.28981C9.83366 5.90669 9.83366 6.91016 10.4492 7.52704C11.0649 8.14392 12.0665 8.14392 12.6822 7.52704C13.2979 6.91016 13.2979 5.90669 12.6822 5.28981C12.0665 4.67293 11.0649 4.67293 10.4492 5.28981Z" fill="white"/>
<path d="M17.9339 0.514389C17.915 0.253601 17.7078 0.0474702 17.4483 0.0279695C16.1557 -0.0695342 14.8681 0.0897676 13.6061 0.476486C13.7011 1.34523 14.1495 2.28539 14.9152 3.05251C15.69 3.82869 16.6538 4.27789 17.5363 4.36194C17.8762 3.16841 18.0374 1.89015 17.9339 0.514389Z" fill="white"/>
<path fill-rule="evenodd" clip-rule="evenodd" d="M12.5887 0.84375C12.7603 1.8685 13.2951 2.92099 14.171 3.79852C15.061 4.69034 16.1442 5.22716 17.1919 5.38577C15.6773 9.25832 12.1153 12.169 9.05582 14.0165L7.82899 12.7873C8.15834 11.9752 8.24702 10.9885 7.62134 10.3615C6.99647 9.73553 6.01128 9.82274 5.19974 10.1529L4.01196 8.96278C6.40272 4.97859 9.42822 2.14247 12.5887 0.84375ZM9.70495 8.27312C10.731 9.30103 12.4005 9.30103 13.4264 8.27312C14.4525 7.24507 14.4525 5.57227 13.4264 4.54422C12.4005 3.51631 10.731 3.51631 9.70495 4.54422C8.6789 5.57213 8.6789 7.24507 9.70495 8.27312Z" fill="white"/>
</svg>
