<svg width="17" height="20" viewBox="0 0 17 20" fill="none" xmlns="http://www.w3.org/2000/svg">
<path fill-rule="evenodd" clip-rule="evenodd" d="M14.0414 1.91299H10.7984C10.3933 0.80345 9.30657 0 8.01731 0C6.72805 0 5.64131 0.80345 5.23628 1.91299H1.99322C0.901569 1.91299 0.017334 2.76903 0.017334 3.82598V18.087C0.017334 19.1439 0.901522 20 1.99322 20H14.0414C15.1331 20 16.0173 19.144 16.0173 18.087V3.82594C16.0173 2.76903 15.1331 1.91299 14.0414 1.91299ZM7.99136 1.1983C8.60087 1.1983 9.09957 1.6874 9.09957 2.29742C9.09957 2.90745 8.60087 3.39655 7.99136 3.39655C7.38185 3.39655 6.88315 2.90745 6.88315 2.29742C6.88315 1.6874 7.38185 1.1983 7.99136 1.1983ZM4.01733 12.026L7.01735 15L13.0173 9.05206L11.9561 8L7.01735 12.8959L5.07859 10.974L4.01733 12.026Z" fill="white"/>
</svg>
