<?xml version="1.0" encoding="UTF-8"?>
<svg width="22px" height="21px" viewBox="0 0 22 21" version="1.1" xmlns="http://www.w3.org/2000/svg" xmlns:xlink="http://www.w3.org/1999/xlink">
    <title>excel</title>
    <g id="Page-1" stroke="none" stroke-width="1" fill="none" fill-rule="evenodd">
        <g id="6,1--всплывающее-окно" transform="translate(-954.000000, -306.000000)" fill-rule="nonzero">
            <g id="Group-14" transform="translate(939.000000, 203.000000)">
                <g id="excel" transform="translate(15.000000, 103.000000)">
                    <path d="M21.3125,18.168529 L11.6875,18.168529 C11.308,18.168529 11,17.8562303 11,17.4714336 C11,17.0866369 11,3.91432158 11,3.5295249 C11,3.14472822 11.308,2.83242946 11.6875,2.83242946 L21.3125,2.83242946 C21.692,2.83242946 22,3.14472822 22,3.5295249 L22,17.4714336 C22,17.8562303 21.692,18.168529 21.3125,18.168529 Z" id="Path" fill="#ECEFF1"></path>
                    <g id="Group" transform="translate(11.000000, 5.620332)" fill="#388E3C">
                        <path d="M3.4375,1.39467012 L0.6875,1.39467012 C0.308,1.39467012 0,1.08237137 0,0.697574689 C0,0.312778008 0.308,0.000479253112 0.6875,0.000479253112 L3.4375,0.000479253112 C3.817,0.000479253112 4.125,0.312778008 4.125,0.697574689 C4.125,1.08237137 3.817,1.39467012 3.4375,1.39467012 Z" id="Path"></path>
                        <path d="M3.4375,4.18305187 L0.6875,4.18305187 C0.308,4.18305187 0,3.87075311 0,3.48595643 C0,3.10115975 0.308,2.788861 0.6875,2.788861 L3.4375,2.788861 C3.817,2.788861 4.125,3.10115975 4.125,3.48595643 C4.125,3.87075311 3.817,4.18305187 3.4375,4.18305187 Z" id="Path"></path>
                        <path d="M3.4375,6.97143361 L0.6875,6.97143361 C0.308,6.97143361 0,6.65913485 0,6.27433817 C0,5.88954149 0.308,5.57724274 0.6875,5.57724274 L3.4375,5.57724274 C3.817,5.57724274 4.125,5.88954149 4.125,6.27433817 C4.125,6.65913485 3.817,6.97143361 3.4375,6.97143361 Z" id="Path"></path>
                        <path d="M3.4375,9.75981535 L0.6875,9.75981535 C0.308,9.75981535 0,9.4475166 0,9.06271992 C0,8.67792324 0.308,8.36562448 0.6875,8.36562448 L3.4375,8.36562448 C3.817,8.36562448 4.125,8.67792324 4.125,9.06271992 C4.125,9.4475166 3.817,9.75981535 3.4375,9.75981535 Z" id="Path"></path>
                        <path d="M7.5625,1.39467012 L6.1875,1.39467012 C5.808,1.39467012 5.5,1.08237137 5.5,0.697574689 C5.5,0.312778008 5.808,0.000479253112 6.1875,0.000479253112 L7.5625,0.000479253112 C7.942,0.000479253112 8.25,0.312778008 8.25,0.697574689 C8.25,1.08237137 7.942,1.39467012 7.5625,1.39467012 Z" id="Path"></path>
                        <path d="M7.5625,4.18305187 L6.1875,4.18305187 C5.808,4.18305187 5.5,3.87075311 5.5,3.48595643 C5.5,3.10115975 5.808,2.788861 6.1875,2.788861 L7.5625,2.788861 C7.942,2.788861 8.25,3.10115975 8.25,3.48595643 C8.25,3.87075311 7.942,4.18305187 7.5625,4.18305187 Z" id="Path"></path>
                        <path d="M7.5625,6.97143361 L6.1875,6.97143361 C5.808,6.97143361 5.5,6.65913485 5.5,6.27433817 C5.5,5.88954149 5.808,5.57724274 6.1875,5.57724274 L7.5625,5.57724274 C7.942,5.57724274 8.25,5.88954149 8.25,6.27433817 C8.25,6.65913485 7.942,6.97143361 7.5625,6.97143361 Z" id="Path"></path>
                        <path d="M7.5625,9.75981535 L6.1875,9.75981535 C5.808,9.75981535 5.5,9.4475166 5.5,9.06271992 C5.5,8.67792324 5.808,8.36562448 6.1875,8.36562448 L7.5625,8.36562448 C7.942,8.36562448 8.25,8.67792324 8.25,9.06271992 C8.25,9.4475166 7.942,9.75981535 7.5625,9.75981535 Z" id="Path"></path>
                    </g>
                    <path d="M12.126125,0.204379668 C11.969375,0.0719315353 11.759,0.0147697095 11.561,0.0565954357 L0.561,2.14788174 C0.235125,2.20922614 0,2.49642946 0,2.83242946 L0,18.168529 C0,18.5031349 0.235125,18.7917324 0.561,18.8530768 L11.561,20.9443631 C11.60225,20.9527282 11.644875,20.9569108 11.6875,20.9569108 C11.847,20.9569108 12.002375,20.9011432 12.126125,20.7965788 C12.28425,20.6641307 12.375,20.4661556 12.375,20.2598154 L12.375,0.741143154 C12.375,0.533408714 12.28425,0.336827801 12.126125,0.204379668 Z" id="Path" fill="#2E7D32"></path>
                    <path d="M9.4545,12.8301722 L7.280625,10.3108693 L9.47925,7.44441286 C9.713,7.14047925 9.658,6.70270332 9.359625,6.46569087 C9.06125,6.22867842 8.6295,6.28444606 8.394375,6.58698548 L6.358,9.2415249 L4.642,7.25340871 C4.390375,6.96062863 3.955875,6.934139 3.672625,7.18788174 C3.386625,7.44162448 3.35775,7.8821888 3.608,8.17078631 L5.498625,10.3624544 L3.581875,12.8608444 C3.348125,13.164778 3.403125,13.6025539 3.7015,13.8395664 C3.828,13.9385539 3.977875,13.9859564 4.125,13.9859564 C4.329875,13.9859564 4.532,13.8939398 4.668125,13.7168776 L6.42125,11.4304046 L8.4205,13.7461556 C8.556625,13.9050934 8.746375,13.9859564 8.9375,13.9859564 C9.098375,13.9859564 9.25925,13.9287946 9.389875,13.8130768 C9.675875,13.559334 9.70475,13.1187697 9.4545,12.8301722 Z" id="Path" fill="#FAFAFA"></path>
                </g>
            </g>
        </g>
    </g>
</svg>