<?xml version="1.0" encoding="UTF-8"?>
<svg width="22px" height="21px" viewBox="0 0 22 21" version="1.1" xmlns="http://www.w3.org/2000/svg" xmlns:xlink="http://www.w3.org/1999/xlink">
    <title>powerpoint</title>
    <g id="Page-1" stroke="none" stroke-width="1" fill="none" fill-rule="evenodd">
        <g id="6,1--всплывающее-окно" transform="translate(-954.000000, -341.000000)" fill-rule="nonzero">
            <g id="Group-14" transform="translate(939.000000, 203.000000)">
                <g id="powerpoint" transform="translate(15.000000, 138.000000)">
                    <path d="M21.3125,2.83242946 L11.6875,2.83242946 C11.308,2.83242946 11,3.14472822 11,3.5295249 L11,17.4714336 C11,17.8562303 11.308,18.168529 11.6875,18.168529 L21.3125,18.168529 C21.692,18.168529 22,17.8562303 22,17.4714336 L22,3.5295249 C22,3.14472822 21.692,2.83242946 21.3125,2.83242946 Z" id="Path" fill="#ECEFF1"></path>
                    <g id="Group" transform="translate(11.000000, 4.226141)" fill="#F57C00">
                        <path d="M7.5625,11.1540062 L0.6875,11.1540062 C0.308,11.1540062 0,10.8417075 0,10.4569108 C0,10.0721141 0.308,9.75981535 0.6875,9.75981535 L7.5625,9.75981535 C7.942,9.75981535 8.25,10.0721141 8.25,10.4569108 C8.25,10.8417075 7.942,11.1540062 7.5625,11.1540062 Z" id="Path"></path>
                        <path d="M4.125,1.39467012 C2.226125,1.39467012 0.6875,2.95476971 0.6875,4.8801473 C0.6875,6.8055249 2.226125,8.36562448 4.125,8.36562448 C6.023875,8.36562448 7.5625,6.8055249 7.5625,4.8801473 L4.125,4.8801473 L4.125,1.39467012 Z" id="Path"></path>
                        <path d="M5.5,0.000479253112 L5.5,3.48595643 L8.9375,3.48595643 C8.9375,1.56057884 7.398875,0.000479253112 5.5,0.000479253112 Z" id="Path"></path>
                    </g>
                    <path d="M12.126125,0.204379668 C11.969375,0.0719315353 11.759,0.0147697095 11.561,0.0565954357 L0.561,2.14788174 C0.235125,2.20922614 0,2.49642946 0,2.83242946 L0,18.168529 C0,18.5031349 0.235125,18.7917324 0.561,18.8530768 L11.561,20.9443631 C11.60225,20.9527282 11.644875,20.9569108 11.6875,20.9569108 C11.847,20.9569108 12.002375,20.9011432 12.126125,20.7965788 C12.28425,20.6641307 12.375,20.4661556 12.375,20.2598154 L12.375,0.741143154 C12.375,0.533408714 12.28425,0.336827801 12.126125,0.204379668 Z" id="Path" fill="#EF6C00"></path>
                    <path d="M4.8125,15.3801473 C4.433,15.3801473 4.125,15.0678485 4.125,14.6830519 L4.125,7.71209751 C4.125,7.32730083 4.433,7.01500207 4.8125,7.01500207 L6.875,7.01500207 C8.391625,7.01500207 9.625,8.26559129 9.625,9.80338382 C9.625,11.3411763 8.391625,12.5917656 6.875,12.5917656 L5.5,12.5917656 L5.5,14.6830519 C5.5,15.0678485 5.192,15.3801473 4.8125,15.3801473 Z M5.5,11.1975747 L6.875,11.1975747 C7.632625,11.1975747 8.25,10.571583 8.25,9.80338382 C8.25,9.03518465 7.632625,8.40919295 6.875,8.40919295 L5.5,8.40919295 L5.5,11.1975747 Z" id="Shape" fill="#FAFAFA"></path>
                </g>
            </g>
        </g>
    </g>
</svg>