<?xml version="1.0" encoding="UTF-8"?>
<svg width="22px" height="21px" viewBox="0 0 22 21" version="1.1" xmlns="http://www.w3.org/2000/svg" xmlns:xlink="http://www.w3.org/1999/xlink">
    <title>word</title>
    <g id="Page-1" stroke="none" stroke-width="1" fill="none" fill-rule="evenodd">
        <g id="6,1--всплывающее-окно" transform="translate(-954.000000, -271.000000)" fill-rule="nonzero">
            <g id="Group-14" transform="translate(939.000000, 203.000000)">
                <g id="word" transform="translate(15.000000, 68.000000)">
                    <path d="M21.3125,18.1682241 L11.6875,18.1682241 C11.308,18.1682241 11,17.8573195 11,17.4711286 C11,17.0849378 11,3.9140166 11,3.52921992 C11,3.14442324 11.308,2.83212448 11.6875,2.83212448 L21.3125,2.83212448 C21.692,2.83212448 22,3.14442324 22,3.52921992 L22,17.4711286 C22,17.8573195 21.692,18.1682241 21.3125,18.1682241 Z" id="Path" fill="#ECEFF1"></path>
                    <g id="Group" transform="translate(11.000000, 5.620332)" fill="#1976D2">
                        <path d="M7.5625,1.39436515 L0.6875,1.39436515 C0.308,1.39436515 0,1.08346058 0,0.69726971 C0,0.311078838 0.308,0.000174273859 0.6875,0.000174273859 L7.5625,0.000174273859 C7.942,0.000174273859 8.25,0.312473029 8.25,0.69726971 C8.25,1.08206639 7.942,1.39436515 7.5625,1.39436515 Z" id="Path"></path>
                        <path d="M7.5625,4.18274689 L0.6875,4.18274689 C0.308,4.18274689 0,3.87184232 0,3.48565145 C0,3.09946058 0.308,2.78855602 0.6875,2.78855602 L7.5625,2.78855602 C7.942,2.78855602 8.25,3.10085477 8.25,3.48565145 C8.25,3.87044813 7.942,4.18274689 7.5625,4.18274689 Z" id="Path"></path>
                        <path d="M7.5625,6.97112863 L0.6875,6.97112863 C0.308,6.97112863 0,6.66022407 0,6.2740332 C0,5.88784232 0.308,5.57693776 0.6875,5.57693776 L7.5625,5.57693776 C7.942,5.57693776 8.25,5.88923651 8.25,6.2740332 C8.25,6.65882988 7.942,6.97112863 7.5625,6.97112863 Z" id="Path"></path>
                        <path d="M7.5625,9.75951037 L0.6875,9.75951037 C0.308,9.75951037 0,9.44860581 0,9.06241494 C0,8.67622407 0.308,8.3653195 0.6875,8.3653195 L7.5625,8.3653195 C7.942,8.3653195 8.25,8.67761826 8.25,9.06241494 C8.25,9.44721162 7.942,9.75951037 7.5625,9.75951037 Z" id="Path"></path>
                    </g>
                    <path d="M12.126125,0.20546888 C11.969375,0.071626556 11.759,0.0158589212 11.561,0.0562904564 L0.561,2.14757676 C0.2365,2.20892116 0,2.49751867 0,2.83212448 L0,18.1682241 C0,18.5028299 0.235125,18.7914274 0.561,18.8527718 L11.561,20.9440581 C11.603625,20.9524232 11.644875,20.9566058 11.6875,20.9566058 C11.847,20.9566058 12.002375,20.9008382 12.126125,20.7962739 C12.28425,20.6638257 12.375,20.4672448 12.375,20.2595104 L12.375,0.740838174 C12.375,0.533103734 12.28425,0.337917012 12.126125,0.20546888 Z" id="Path" fill="#1565C0"></path>
                    <path d="M8.933375,14.0637261 C8.897625,14.3829959 8.650125,14.6381328 8.33525,14.6771701 C8.306375,14.6813527 8.278875,14.6827469 8.25,14.6827469 C7.96675,14.6827469 7.70825,14.5042905 7.6065,14.231029 L6.1875,10.3942158 L4.7685,14.231029 C4.6585,14.5293859 4.36975,14.7120249 4.05075,14.6785643 C3.738625,14.6451037 3.488375,14.3997261 3.444375,14.0832448 L2.756875,9.20357676 C2.70325,8.82435685 2.9645,8.47023237 3.339875,8.41585892 C3.716625,8.36009129 4.0645,8.62638174 4.118125,9.00699585 L4.42475,11.1875104 L5.542625,8.16351037 C5.743375,7.61977593 6.628875,7.61977593 6.831,8.16351037 L7.88425,11.0104481 L8.254125,7.63371784 C8.29675,7.25170954 8.646,6.97705394 9.013125,7.01748548 C9.39125,7.06209959 9.662125,7.40646473 9.620875,7.78847303 L8.933375,14.0637261 Z" id="Path" fill="#FAFAFA"></path>
                </g>
            </g>
        </g>
    </g>
</svg>