<svg width="136" height="15" viewBox="0 0 136 15" fill="none" xmlns="http://www.w3.org/2000/svg">
<path d="M10.1264 9.725L10.2794 9.64L10.6024 9.759L10.7214 9.623L11.0954 9.776L11.1124 9.844L11.0614 10.099L11.0954 10.133L11.1804 10.473L11.0274 10.609L11.1464 10.762L11.1634 10.796C11.1747 11.0907 11.1237 11.306 11.0104 11.442L11.0444 11.799V12.054L10.8574 12.377L10.8744 12.632L10.8064 12.887L10.5174 13.516L10.2624 13.567L10.1094 13.04L10.0074 12.734C9.96205 12.6773 9.94505 12.6093 9.95639 12.53C9.96772 12.462 9.98472 12.377 10.0074 12.275L9.95639 12.207L9.99039 12.122L9.88839 11.918L10.0244 11.714L9.93939 11.612L10.0244 11.459C10.0131 11.255 9.97905 11.1077 9.92239 11.017C9.87705 10.9263 9.74105 10.8923 9.51439 10.915H9.48039L9.53139 10.847C9.48605 10.8583 9.44639 10.8697 9.41239 10.881C9.37839 10.881 9.33872 10.881 9.29339 10.881H8.63039C8.57372 10.881 8.50572 10.864 8.42639 10.83C8.40372 10.83 8.37539 10.83 8.34139 10.83C8.31872 10.8187 8.28472 10.8073 8.23939 10.796L8.13739 10.915L7.57639 10.813L7.45739 10.881H7.15139L6.67539 10.83L5.92739 10.915L5.53639 10.813L4.66939 10.915C4.59005 10.915 4.45405 10.9207 4.26139 10.932C4.06872 10.932 3.89872 10.932 3.75139 10.932C3.69472 10.932 3.64939 10.9433 3.61539 10.966C3.58139 10.9887 3.55305 10.9887 3.53039 10.966L3.32639 10.949L2.85039 11.017L2.88439 11.051C2.81639 11.051 2.76539 11.0453 2.73139 11.034C2.69739 11.034 2.66905 11.034 2.64639 11.034C2.58972 11.034 2.52172 11.0227 2.44239 11C2.36305 10.9887 2.31205 11.0057 2.28939 11.051L2.00039 11.136L1.86439 11.068C1.86439 11.1813 1.81905 11.3287 1.72839 11.51L1.81339 11.663L1.72839 11.748L1.84739 11.969L1.77939 12.156L1.81339 12.275L1.76239 12.326C1.76239 12.428 1.75672 12.513 1.74539 12.581C1.74539 12.6603 1.72272 12.7283 1.67739 12.785L1.57539 13.091L1.30339 13.601L0.997388 13.55L0.827388 12.887L0.793388 12.615L0.827388 12.36L0.640388 12.054L0.691388 11.799L0.742388 11.442C0.640388 11.2947 0.595054 11.0737 0.606388 10.779L0.623388 10.762C0.612054 10.728 0.600721 10.6997 0.589388 10.677C0.589388 10.643 0.589388 10.609 0.589388 10.575C0.589388 10.3937 0.629054 10.2463 0.708388 10.133C0.799054 10.0083 0.957721 9.91767 1.18439 9.861H1.40539L1.91539 9.81L2.00039 9.657C2.06839 9.61167 2.09672 9.54933 2.08539 9.47C2.08539 9.39067 2.10805 9.32833 2.15339 9.283L2.32339 9.215L2.28939 9.028L2.51039 8.943C2.53305 8.875 2.54439 8.83533 2.54439 8.824V8.79L2.59539 8.671L2.74839 8.552L2.83339 8.331V8.161H3.00339L3.02039 7.923L3.12239 7.838L3.15639 7.753C3.32639 7.63967 3.41139 7.566 3.41139 7.532L3.56439 7.243L3.68339 7.005L3.85339 6.767L3.97239 6.563L4.10839 6.41L4.24439 6.155L4.46539 5.917L4.53339 5.866V5.679L4.56739 5.662L4.60139 5.56C4.68072 5.46933 4.74305 5.356 4.78839 5.22C4.84505 5.084 4.88472 4.98767 4.90739 4.931L4.92439 4.71L5.00939 4.506L5.07739 4.489V4.285H5.11139L5.21339 4.098L5.14539 3.656L5.26439 3.401C5.35505 3.34433 5.45705 3.299 5.57039 3.265C5.69505 3.231 5.78572 3.214 5.84239 3.214C5.94439 3.214 6.03505 3.23667 6.11439 3.282C6.14839 3.30467 6.19939 3.401 6.26739 3.571C6.33539 3.72967 6.44872 3.92233 6.60739 4.149L6.72639 4.455L6.87939 4.642L7.13439 4.965L7.37239 5.271L7.38939 5.373L7.74639 5.764V5.9L7.93339 5.951L8.03539 6.342L8.23939 6.546L8.37539 6.75C8.38672 6.79533 8.40372 6.84067 8.42639 6.886C8.46039 6.92 8.49439 6.954 8.52839 6.988V7.022H8.57939C8.63605 7.07867 8.68139 7.14667 8.71539 7.226C8.74939 7.294 8.78339 7.36767 8.81739 7.447L8.90239 7.617L8.98739 7.719L9.14039 8.11L9.25939 8.212V8.382L9.32739 8.484L9.48039 8.739L9.61639 9.011L9.82039 9.317L9.90539 9.47L10.0074 9.623L10.1264 9.725ZM3.88739 8.943L3.80239 8.994C3.77972 9.01667 3.76272 9.05067 3.75139 9.096C3.75139 9.14133 3.74005 9.17533 3.71739 9.198L3.51339 9.47L3.42839 9.776L3.87039 9.759L4.15939 9.81H4.43139L4.70339 9.776H5.24739C5.33805 9.776 5.41739 9.76467 5.48539 9.742C5.56472 9.71933 5.61005 9.708 5.62139 9.708H5.72339C5.74605 9.71933 5.80839 9.70233 5.91039 9.657C6.02372 9.60033 6.08605 9.572 6.09739 9.572L6.52239 9.708L6.76039 9.589L7.20239 9.708L7.78039 9.742C7.80306 9.73067 7.83139 9.725 7.86539 9.725C7.91072 9.725 7.95039 9.725 7.98439 9.725C8.08639 9.725 8.18272 9.742 8.27339 9.776L8.44339 9.793C8.44339 9.73633 8.43772 9.66833 8.42639 9.589C8.41505 9.49833 8.39805 9.43033 8.37539 9.385C8.30739 9.29433 8.27339 9.20933 8.27339 9.13L8.03539 8.79L8.01839 8.671L7.86539 8.365L7.83139 8.195L7.64439 7.923L7.38939 7.43L7.11739 6.954L6.84539 6.614C6.81139 6.59133 6.78305 6.55167 6.76039 6.495C6.74905 6.43833 6.73205 6.37033 6.70939 6.291L6.55639 6.257L6.52239 6.104L6.23339 5.9C6.21072 5.866 6.18805 5.82067 6.16539 5.764C6.14272 5.70733 6.10305 5.65633 6.04639 5.611L5.99539 5.543L5.89339 5.594L5.85939 5.764L5.62139 6.087L5.31539 6.529L5.23039 6.699L5.16239 6.835L4.97539 7.073L4.82239 7.396L4.56739 7.668L4.36339 8.042L4.29539 8.178C4.27272 8.28 4.23872 8.348 4.19339 8.382C4.14805 8.416 4.10272 8.47833 4.05739 8.569L3.88739 8.943ZM18.3616 7.022L18.2596 7.328C18.2596 7.62267 18.2426 7.855 18.2086 8.025L18.1066 8.195V8.382L18.0216 8.501L17.9706 8.739L17.7836 8.926L17.6646 9.351L17.5286 9.402L17.4606 9.589L17.2566 9.708L17.1206 9.997L16.9166 10.099L16.8996 10.303L16.5766 10.422C16.4292 10.626 16.2479 10.7563 16.0326 10.813L15.9646 10.83C15.8059 11.068 15.5962 11.187 15.3356 11.187C15.2222 11.255 15.0919 11.289 14.9446 11.289L14.7746 11.408L14.6046 11.459L14.3836 11.629L14.1626 11.612L13.9246 11.68L13.6356 11.561L12.9046 11.51L12.6496 11.119L12.2756 10.728L12.3606 10.456L12.1056 9.878L12.2246 9.657L12.1396 9.249L12.2246 8.994C12.2019 8.83533 12.1906 8.722 12.1906 8.654C12.1906 8.43867 12.2472 8.28 12.3606 8.178C12.3719 8.06467 12.4456 7.87767 12.5816 7.617H12.6666L12.6326 7.498L12.6836 7.26V7.005C12.7742 6.903 12.8252 6.835 12.8366 6.801L12.7856 6.563V6.495C12.8649 6.33633 12.9046 6.172 12.9046 6.002L13.2616 5.509C13.2616 5.509 13.2729 5.49767 13.2956 5.475C13.3296 5.45233 13.3579 5.42967 13.3806 5.407L13.3636 5.339H13.4316L13.6866 5.05L13.7036 4.659L14.1286 4.506C14.2872 4.404 14.3892 4.234 14.4346 3.996H14.6556C14.7802 3.928 14.8936 3.894 14.9956 3.894C15.0976 3.894 15.1939 3.91667 15.2846 3.962L15.4716 3.979L15.9136 3.809L16.1516 4.03L16.3386 4.149H16.4746L16.7296 4.285H16.8656C17.0129 4.421 17.1829 4.608 17.3756 4.846L17.4096 4.931L17.5286 4.999L17.8856 5.458L18.2086 6.257V6.427L18.3616 7.022ZM17.2396 7.43L17.2226 7.345C17.1432 7.26567 17.0979 7.18067 17.0866 7.09L17.1376 7.005L16.9846 6.682L17.0186 6.359L16.9506 6.274C16.8032 6.16067 16.7239 6.07 16.7126 6.002C16.6106 5.95667 16.5596 5.84333 16.5596 5.662L16.4576 5.645L16.2536 5.305L16.1006 5.186L15.7436 5.05L15.6076 5.016C15.5396 5.016 15.4942 4.99333 15.4716 4.948L15.1316 5.322L14.9106 5.798L14.5536 5.985L14.5026 6.172L14.3326 6.257L14.2646 6.699L14.0606 6.801C14.0152 6.95967 13.9926 7.107 13.9926 7.243L13.7206 7.498L13.8056 7.549C13.8056 7.685 13.7546 7.804 13.6526 7.906C13.6186 8.008 13.5732 8.12133 13.5166 8.246V8.382L13.4656 8.45L13.4826 8.654L13.2956 9.113L13.3296 9.198V9.674L13.2616 9.912L13.2786 10.15L13.4316 10.371L13.6696 10.456L13.7546 10.49L13.8906 10.422L14.3326 10.456L14.4006 10.286H14.4686C14.5366 10.286 14.5762 10.303 14.5876 10.337L14.7406 10.286L14.8766 10.337L15.0976 10.184L15.1316 10.133L15.2846 10.099C15.3639 9.97433 15.5509 9.84967 15.8456 9.725L15.8796 9.64L16.2196 9.402L16.4066 9.13L16.6786 8.994L16.6956 8.909L16.7806 8.722V8.501L16.9846 8.331L17.0526 8.212L17.1376 8.11C17.0922 7.974 17.0696 7.87767 17.0696 7.821C17.0696 7.719 17.1036 7.61133 17.1716 7.498L17.2396 7.43ZM21.0322 8.195L20.9982 8.501L20.8622 8.756C20.9755 8.90333 21.0152 9.07333 20.9812 9.266L21.4062 9.691C21.4402 9.83833 21.4458 9.95167 21.4232 10.031L21.3892 10.065L22.0862 10.099C22.1542 10.1103 22.2222 10.1047 22.2902 10.082C22.3695 10.0593 22.4375 10.014 22.4942 9.946L22.8682 10.116L23.1912 10.065L23.3442 10.014L23.8372 9.674L23.9902 9.708L24.1772 9.555L24.3982 9.487L24.4152 9.317L24.8062 9.062L25.0272 8.79L25.1462 8.756L25.0952 8.637L25.3332 8.127V7.957L25.4352 7.43L25.4692 7.396L25.4352 7.277C25.3785 7.243 25.3332 7.19767 25.2992 7.141C25.2652 7.073 25.2368 7.005 25.2142 6.937C25.2028 6.869 25.1915 6.81233 25.1802 6.767C25.1802 6.72167 25.1745 6.699 25.1632 6.699C25.1292 6.71033 25.0838 6.68767 25.0272 6.631C24.9818 6.57433 24.9252 6.50633 24.8572 6.427C24.7892 6.34767 24.7098 6.274 24.6192 6.206C24.5398 6.12667 24.4492 6.07 24.3472 6.036C24.2792 6.02467 24.1942 6.01333 24.0922 6.002C24.0015 5.97933 23.8995 5.95667 23.7862 5.934L23.6842 5.968L23.3952 5.951L23.1742 6.121L23.0212 6.087L22.8512 6.206L22.3922 6.512C22.3582 6.53467 22.3128 6.59133 22.2562 6.682C22.1995 6.77267 22.1258 6.82933 22.0352 6.852C21.9672 6.94267 21.8935 7.04467 21.8142 7.158C21.7462 7.27133 21.6725 7.31667 21.5932 7.294L21.3722 7.668L21.2702 7.923L21.0322 8.195ZM24.5852 2.024L24.4152 2.041L24.2112 2.194L23.9902 2.313C23.9335 2.36967 23.8825 2.40367 23.8372 2.415C23.7918 2.42633 23.7238 2.483 23.6332 2.585C23.3385 2.73233 23.1515 2.93067 23.0722 3.18L22.6302 3.418L22.5962 3.758L22.2902 3.741L21.8822 4.404C21.7915 4.506 21.7462 4.56267 21.7462 4.574L21.6782 4.71L21.2872 5.424L21.2022 5.526L21.1002 6.002L20.9642 6.138L20.9472 6.393L20.8452 6.699L20.8282 6.92L21.0152 6.716L21.3552 6.41L21.5252 6.121L21.8822 5.934L22.0352 5.628L22.4432 5.373L22.9022 5.05L23.4632 4.948L23.5652 4.863L24.0242 4.931L24.7212 4.829L25.5542 5.305L25.9962 5.866L26.0642 5.883C26.1322 5.917 26.1832 5.97367 26.2172 6.053C26.2512 6.121 26.2738 6.20033 26.2852 6.291C26.3078 6.38167 26.3248 6.47233 26.3362 6.563C26.3588 6.65367 26.3872 6.72733 26.4212 6.784L26.3872 6.937L26.6082 7.277C26.6308 7.36767 26.6365 7.52067 26.6252 7.736C26.6252 7.94 26.6082 8.08733 26.5742 8.178C26.5515 8.212 26.5288 8.25167 26.5062 8.297C26.4835 8.331 26.4552 8.37633 26.4212 8.433L26.3872 8.722L26.1152 9.096L26.0472 9.334L25.8432 9.521L25.6732 9.895L25.4012 10.048L25.1972 10.269L24.9592 10.337L24.8062 10.558H24.6022C24.5455 10.626 24.4775 10.6827 24.3982 10.728C24.3188 10.7733 24.2452 10.813 24.1772 10.847C24.1658 10.8583 24.1205 10.8753 24.0412 10.898C23.9732 10.9093 23.8882 10.9377 23.7862 10.983L23.4122 11.204L23.2082 11.136C23.0382 11.272 22.8398 11.3173 22.6132 11.272L22.5622 11.374L21.9842 11.272L21.9502 11.289C21.9162 11.3117 21.8708 11.3343 21.8142 11.357C21.7688 11.3797 21.7122 11.4137 21.6442 11.459L21.3722 11.272L20.8622 11.102L20.8112 11.153L20.4882 11.119L20.1992 10.66L19.8252 10.099L19.7062 9.385L19.5362 8.858L19.5702 8.603L19.4172 8.348L19.5702 8.144L19.5192 8.025L19.5532 7.821L19.4852 7.532C19.4965 7.48667 19.5248 7.44133 19.5702 7.396C19.6155 7.35067 19.6382 7.31667 19.6382 7.294C19.5588 7.14667 19.5532 6.97667 19.6212 6.784L19.6552 6.444L19.7402 6.325L19.7912 6.104V5.917L19.8932 5.764L20.0292 5.118L20.2842 4.71L20.3012 4.642C20.3352 4.55133 20.3748 4.47767 20.4202 4.421C20.4768 4.36433 20.5392 4.30767 20.6072 4.251L20.6922 4.166L20.7092 3.945C20.8905 3.85433 21.0152 3.71833 21.0832 3.537C21.0832 3.51433 21.0832 3.486 21.0832 3.452C21.0832 3.418 21.0945 3.37267 21.1172 3.316H21.2872L21.5932 2.942L21.7292 2.568L21.8312 2.619L22.0692 2.517L22.2562 2.245L22.4942 2.194L22.5792 1.956L22.7492 1.922L22.7322 1.769L22.9702 1.633L23.0382 1.667L23.0722 1.565L23.3102 1.497C23.4008 1.44033 23.4802 1.40633 23.5482 1.395C23.6275 1.37233 23.7012 1.344 23.7692 1.31L23.9902 1.191L24.2282 0.969999L24.5512 1.004L24.7042 0.833999L25.5542 0.63L25.8772 0.698C26.0018 0.731999 26.0868 0.777333 26.1322 0.833999C26.3022 1.038 26.3078 1.225 26.1492 1.395C26.0812 1.45167 26.0075 1.49133 25.9282 1.514C25.8602 1.52533 25.7638 1.52533 25.6392 1.514L25.4522 1.65L25.1972 1.684L25.0782 1.735L24.6872 1.888L24.5852 2.024ZM34.6245 4.115L34.4545 4.336L34.5905 4.744L34.3695 4.999L34.2845 5.356L34.2335 5.441L34.2675 5.526C34.2675 5.68467 34.2278 5.80367 34.1485 5.883L34.1145 5.934V6.002C34.1485 6.08133 34.1655 6.155 34.1655 6.223C34.1655 6.27967 34.1598 6.31933 34.1485 6.342L34.1655 6.41L34.0975 6.597L34.1485 6.801L34.0125 6.937L34.0635 7.175L34.1655 7.294L34.0125 7.43V7.702L33.8935 7.974L33.9785 8.246L33.8765 8.382L34.0465 8.501L33.8085 8.892L33.7915 8.943L33.9615 8.977L33.8425 9.368V9.436C33.8425 9.51533 33.8368 9.57767 33.8255 9.623L33.8425 9.674L34.1145 9.708L34.3355 10.048L34.2165 10.303L34.4035 10.286C34.4715 10.422 34.5111 10.541 34.5225 10.643L34.2675 10.898C34.1881 10.9773 34.0748 11.0567 33.9275 11.136L33.6385 11.289L33.5535 11.204L33.3835 11.306L32.8565 10.694V10.405C32.7885 10.1783 32.7545 9.96867 32.7545 9.776V9.674L32.6525 8.671L32.7885 7.957L32.6865 7.549L32.3975 8.025L32.2445 8.467L32.1085 8.535L31.8705 8.909L31.4455 9.3L31.3265 9.504L30.9525 9.827L30.8675 10.048L30.3235 10.388L29.7455 11.034L29.4225 11.102L29.2015 11.272C28.9181 11.2607 28.7028 11.153 28.5555 10.949C28.0455 10.6997 27.7791 10.3427 27.7565 9.878L27.8415 9.827L27.8245 9.725L27.8075 9.521L27.7055 9.3L27.8075 9.062L27.8415 8.705L27.9605 8.144C27.9605 8.13267 27.9605 8.11 27.9605 8.076C27.9491 8.05333 27.9435 8.03067 27.9435 8.008C27.9435 7.96267 27.9548 7.906 27.9775 7.838C27.9661 7.81533 27.9605 7.77 27.9605 7.702C27.9605 7.62267 27.9945 7.49233 28.0625 7.311L28.1815 7.26C28.1135 7.20333 28.0795 7.141 28.0795 7.073C28.0795 7.02767 28.0851 6.99367 28.0965 6.971C28.0851 6.937 28.0795 6.89733 28.0795 6.852C28.0795 6.716 28.1475 6.614 28.2835 6.546C28.3175 6.43267 28.3798 6.31933 28.4705 6.206L28.3855 6.07L28.5895 5.815V5.747C28.5895 5.53167 28.6631 5.33333 28.8105 5.152L28.7935 4.846L28.8615 4.778C28.8615 4.76667 28.8615 4.74967 28.8615 4.727C28.8501 4.70433 28.8445 4.68733 28.8445 4.676C28.8445 4.608 28.8671 4.55133 28.9125 4.506V4.404C28.9578 4.29067 29.0768 4.12067 29.2695 3.894C29.4621 3.66733 29.6038 3.469 29.6945 3.299L29.7795 3.384L29.9665 3.299L30.0515 3.265L30.6125 3.01L31.9215 3.078V3.197L32.3295 3.282C32.5901 3.282 32.7601 3.367 32.8395 3.537C32.8395 3.503 32.8451 3.46333 32.8565 3.418C32.8565 3.384 32.8565 3.36133 32.8565 3.35L33.2135 3.673L33.5365 3.741L34.1485 3.588L34.3695 4.013L34.6245 4.115ZM33.0095 4.999L32.9415 4.88L32.8055 4.846L32.2785 4.421L31.9385 4.37H31.6665L31.6325 4.336L31.4965 4.387L31.3435 4.302H30.9015L30.9525 4.37L30.5615 4.506L30.4935 4.591L30.4425 4.608C30.2385 4.778 30.0968 4.91967 30.0175 5.033L29.8985 5.441L29.8305 5.594L30.0005 5.832L29.7115 6.053L29.7455 6.121C29.6208 6.33633 29.5585 6.546 29.5585 6.75L29.4225 6.92V7.226L29.2865 7.379L29.2525 7.532L29.2015 7.566V7.804L29.1505 7.889C29.1505 8.025 29.1391 8.13267 29.1165 8.212L29.1505 8.297L28.9975 8.62L29.0655 8.722L28.9465 8.892L29.0655 9.215L28.8785 9.453L28.9125 9.776V9.827L28.9805 9.861L29.0655 9.844C29.1221 9.78733 29.1788 9.73633 29.2355 9.691L29.2015 9.555L29.4395 9.521L29.4905 9.402L30.4935 8.586L30.5955 8.552L30.7145 8.263C30.7825 8.24033 30.8788 8.195 31.0035 8.127L31.1055 7.855H31.2415L31.1905 7.566L31.4285 7.532C31.4511 7.48667 31.4851 7.43 31.5305 7.362C31.5871 7.294 31.6438 7.23167 31.7005 7.175L32.5675 6.019L32.7035 5.764L32.6865 5.696L32.8055 5.509L32.8395 5.322L32.9925 5.186L33.0095 4.999ZM39.1122 9.334L39.1462 9.521L39.0272 9.776L39.0442 9.861L39.0952 9.878L39.1292 10.116L39.4692 10.167L39.8092 10.048L40.1152 10.031C40.1832 10.0763 40.2285 10.1047 40.2512 10.116C40.2852 10.116 40.3249 10.1103 40.3702 10.099L40.6422 9.963L41.0672 9.98L41.5092 9.844L41.8832 9.691L42.1042 9.708L42.3082 9.538L42.4952 9.504C42.5632 9.504 42.6425 9.49833 42.7332 9.487C42.8239 9.46433 42.9145 9.44167 43.0052 9.419C43.0959 9.39633 43.1809 9.368 43.2602 9.334C43.3395 9.28867 43.4019 9.23767 43.4472 9.181L43.5832 9.011L43.9232 8.909L44.0252 8.722L44.1102 8.637L44.0592 8.603L43.8042 8.569L43.7532 8.484H43.6682L43.3112 8.331L43.0222 8.365L42.8862 8.246L42.5632 8.28C42.4952 8.212 42.4272 8.17233 42.3592 8.161C42.2685 8.21767 42.1835 8.246 42.1042 8.246C42.0475 8.23467 41.9625 8.20067 41.8492 8.144C41.7585 8.144 41.6905 8.144 41.6452 8.144C41.6112 8.13267 41.5432 8.12133 41.4412 8.11L41.2542 8.093C41.1635 8.07033 41.0842 8.07033 41.0162 8.093C40.9595 8.11567 40.8972 8.127 40.8292 8.127C40.7952 8.127 40.7499 8.12133 40.6932 8.11C40.6479 8.08733 40.5969 8.08167 40.5402 8.093L40.2002 8.127L39.9622 7.957L39.9452 8.059L39.4352 8.042L39.2652 7.974C39.0839 7.974 38.9932 8.059 38.9932 8.229V8.399V8.535L39.0782 8.586L38.9932 8.824L39.0272 8.926L38.9932 9.147L39.1122 9.334ZM45.5212 8.943L45.2492 9.181L45.1812 9.385L44.9942 9.419L44.7902 9.725L44.4332 9.793L44.1272 10.014L44.0082 10.065L43.7702 10.32L43.3792 10.286L43.2092 10.422L42.9882 10.388C42.8862 10.456 42.8012 10.5183 42.7332 10.575C42.6652 10.6317 42.5632 10.6713 42.4272 10.694L42.3082 10.626L41.8662 10.949L41.6962 10.864L41.5772 10.932L41.3052 10.864L41.2032 10.932L40.9142 10.966L40.6932 10.915L40.4212 11.153L40.0982 11.119V11.136C40.0869 11.1473 40.0245 11.17 39.9112 11.204L39.8262 11.102C39.6789 11.2153 39.5089 11.272 39.3162 11.272H39.2312C39.1972 11.2607 39.1689 11.255 39.1462 11.255L38.8912 11.527L38.6022 11.612L38.3472 11.476L38.1602 11.323L38.0242 11.17L37.9222 11.085C37.9222 11.0623 37.9222 11.0227 37.9222 10.966C37.9222 10.9093 37.8712 10.7507 37.7692 10.49L37.7862 10.201L37.7522 9.861L37.8372 9.606L37.7862 9.266L37.9052 9.028L37.8372 8.824L37.8882 8.484L37.7692 8.11L37.7522 8.059C37.4122 7.87767 37.2195 7.71333 37.1742 7.566C37.1969 7.44133 37.2479 7.362 37.3272 7.328C37.4065 7.28267 37.5085 7.22033 37.6332 7.141L37.8032 7.039L37.7012 6.75L37.8202 6.699L37.7522 6.461L37.8032 6.24L37.7182 6.002L37.7522 5.883L37.7352 5.679L37.5482 5.305L37.5822 5.152L37.4972 5.084L37.5312 4.88L37.4462 4.761L37.3442 4.54L37.3272 4.523L37.1572 4.659L36.9872 4.557L36.8172 4.659L36.7662 4.591L36.4942 4.761L36.3412 4.523L36.0352 4.71C35.5139 4.41533 35.2532 4.149 35.2532 3.911C35.2532 3.707 35.3609 3.588 35.5762 3.554C35.6895 3.384 35.8425 3.299 36.0352 3.299H36.0862L36.2562 3.367H36.2902C36.5169 3.367 36.7152 3.37267 36.8852 3.384C37.0552 3.384 37.1912 3.39533 37.2932 3.418C37.3839 3.39533 37.4632 3.384 37.5312 3.384C37.6105 3.37267 37.6842 3.367 37.7522 3.367L37.8372 3.418L37.9392 3.384L38.3812 3.554L38.7722 3.656C38.8062 3.64467 38.8855 3.639 39.0102 3.639C39.0782 3.639 39.1349 3.64467 39.1802 3.656C39.2255 3.656 39.2652 3.66167 39.2992 3.673L39.4692 3.639C39.6165 3.65033 39.7582 3.69567 39.8942 3.775L40.0132 3.843C40.1945 3.88833 40.3362 3.911 40.4382 3.911L40.8122 3.843L40.8802 3.928C41.0162 3.928 41.1352 3.98467 41.2372 4.098H41.6962L41.8832 4.285C41.9512 4.30767 42.0135 4.32467 42.0702 4.336C42.1269 4.34733 42.1779 4.353 42.2232 4.353L42.5292 4.455L42.6652 4.574H43.0222L43.1072 4.795L43.4302 4.999L43.5492 5.475L43.2942 5.934C43.1695 6.05867 43.0562 6.155 42.9542 6.223C42.8522 6.291 42.7389 6.342 42.6142 6.376L42.3592 6.529L42.2402 6.495L41.9342 6.75H41.7472L41.3052 6.937L40.9992 6.971C40.8859 7.01633 40.7952 7.056 40.7272 7.09C40.6705 7.11267 40.6082 7.13533 40.5402 7.158C40.4835 7.18067 40.4155 7.20333 40.3362 7.226C40.2682 7.24867 40.1662 7.28267 40.0302 7.328V7.362C40.0529 7.362 40.1152 7.35633 40.2172 7.345C40.3192 7.33367 40.4269 7.32233 40.5402 7.311C40.6649 7.29967 40.7782 7.28833 40.8802 7.277C40.9822 7.26567 41.0502 7.26 41.0842 7.26C41.2089 7.23733 41.3392 7.21467 41.4752 7.192C41.6112 7.16933 41.7019 7.18633 41.7472 7.243C41.8379 7.19767 41.9172 7.175 41.9852 7.175C42.1779 7.23167 42.2969 7.26 42.3422 7.26C42.3875 7.26 42.4329 7.26 42.4782 7.26C42.5235 7.26 42.5802 7.24867 42.6482 7.226C42.7162 7.26 42.8125 7.28267 42.9372 7.294C43.0619 7.294 43.2205 7.294 43.4132 7.294L43.5492 7.379C43.6852 7.40167 43.8099 7.41867 43.9232 7.43C44.0365 7.43 44.1385 7.45267 44.2292 7.498H44.4842C44.5409 7.55467 44.6259 7.59433 44.7392 7.617C44.8639 7.63967 44.9602 7.67933 45.0282 7.736C45.0622 7.75867 45.1075 7.79267 45.1642 7.838C45.2322 7.872 45.3115 7.93433 45.4022 8.025C45.5609 8.161 45.6402 8.30267 45.6402 8.45L45.6232 8.637L45.5212 8.943ZM42.2402 5.339H42.0702L41.9172 5.254L41.6962 5.203L41.5262 5.322L41.2032 5.084L40.9482 5.016L40.8462 5.067L40.7102 4.914H40.6422C40.5289 4.914 40.3532 4.897 40.1152 4.863L39.7582 4.914L39.5712 4.744L39.4012 4.778L39.3502 4.761L39.2482 4.829L38.9592 4.727L38.8912 4.761V5.135L38.9932 5.424L38.9082 5.662L38.9932 5.849L38.9762 6.172L39.0612 6.427L38.9592 6.682L39.0102 6.852L39.2482 6.835C39.2709 6.82367 39.3049 6.81233 39.3502 6.801C39.3955 6.77833 39.4409 6.73867 39.4862 6.682L39.5542 6.648L39.6562 6.716L39.7072 6.597L40.1322 6.376C40.2909 6.33067 40.3985 6.30233 40.4552 6.291C40.5232 6.27967 40.5799 6.24567 40.6252 6.189L40.8632 6.121L40.9482 6.104C41.0955 6.01333 41.2655 5.95667 41.4582 5.934L41.5262 5.883C41.5489 5.883 41.5942 5.86033 41.6622 5.815L41.9172 5.679H41.9512C42.0079 5.63367 42.0645 5.594 42.1212 5.56C42.1892 5.51467 42.2629 5.48067 42.3422 5.458L42.2402 5.339ZM48.4609 9.368L48.5969 9.895L48.7159 9.725L49.0899 9.283L49.6169 9.028C49.6735 8.892 49.7642 8.79 49.8889 8.722C50.0249 8.64267 50.1552 8.57467 50.2799 8.518L51.2659 7.617L51.7249 7.073L52.1329 6.784L52.1499 6.699C52.1725 6.60833 52.2292 6.563 52.3199 6.563C52.4105 6.55167 52.4842 6.53467 52.5409 6.512L52.8809 6.002L52.9319 5.9L53.5609 5.526L54.2239 4.642L54.4959 4.489L54.5809 4.268L54.8189 4.149C54.8755 4.047 54.9719 3.93367 55.1079 3.809C55.2552 3.68433 55.3912 3.59367 55.5159 3.537L55.6519 3.69L55.8049 3.656C56.0542 3.67867 56.1732 3.76367 56.1619 3.911C56.1959 3.96767 56.2129 4.03 56.2129 4.098C56.2129 4.15467 56.1845 4.22267 56.1279 4.302L56.0599 5.135L55.9919 5.271L56.0089 5.679L55.9239 6.172L55.9579 6.852L55.8049 7.124L56.0429 7.549L55.9069 7.957L55.9919 8.195L56.0769 8.365L56.0259 8.807V8.96C56.0372 8.994 56.0429 9.028 56.0429 9.062C56.0429 9.08467 56.0429 9.10733 56.0429 9.13L55.9919 9.232L55.8729 9.368C55.8842 9.39067 55.8899 9.436 55.8899 9.504C55.8899 9.56067 55.8785 9.606 55.8559 9.64C55.8445 9.66267 55.8332 9.68533 55.8219 9.708L55.9239 9.929L55.7879 10.167L55.9239 10.66C55.8899 10.864 55.7935 11.017 55.6349 11.119C55.4875 11.221 55.3232 11.272 55.1419 11.272H54.8359C54.7792 11.1813 54.7225 11.0907 54.6659 11C54.6205 10.898 54.5922 10.7903 54.5809 10.677C54.5809 10.6317 54.5979 10.5807 54.6319 10.524L54.4619 10.286L54.5809 10.082L54.5639 9.793L54.6149 9.47L54.4619 8.96L54.6149 8.926C54.5922 8.88067 54.5809 8.83533 54.5809 8.79C54.5922 8.73333 54.5979 8.67667 54.5979 8.62C54.5979 8.50667 54.6375 8.416 54.7169 8.348L54.7679 8.144L54.6149 7.43L54.6659 7.005L54.5809 6.393L54.7169 6.24L54.7679 5.917L54.8189 5.662L54.7339 5.645L54.3089 6.223L53.9859 6.461L53.7989 6.682C53.7082 6.80667 53.6062 6.92567 53.4929 7.039C53.3795 7.15233 53.2605 7.25433 53.1359 7.345L52.9489 7.617L52.6769 7.685L52.2009 8.365L51.5549 8.892L51.2829 9.164L51.0789 9.283L50.8069 9.521L50.3989 9.725L50.3309 9.861L49.1069 10.762L49.0219 10.779L48.9029 11C48.8462 11.0113 48.7839 11.034 48.7159 11.068C48.6592 11.1133 48.5969 11.1417 48.5289 11.153L48.4439 11.221H48.4269V11.34L47.4749 11.578L47.3049 11.357L47.0499 11.17L47.3389 10.864L47.1689 10.235L47.2199 10.184L47.1349 9.997L47.4749 9.827L47.2199 9.504L47.4409 9.147L47.3729 8.841L47.3899 8.62L47.3049 8.144L47.4409 7.974L47.3049 7.43L47.4239 7.277L47.2369 7.005L47.3389 6.342L47.3049 6.274C47.2142 6.19467 47.1632 5.92267 47.1519 5.458L47.1349 5.407L47.1859 5.084L47.1349 4.88C47.1575 4.78933 47.2085 4.693 47.2879 4.591C47.3445 4.57967 47.3729 4.54567 47.3729 4.489C47.3729 4.43233 47.3899 4.37567 47.4239 4.319C47.4579 4.251 47.4635 4.17167 47.4409 4.081L47.9849 4.013L48.0699 3.86L48.9199 4.183L48.8179 4.336L49.0049 4.506L48.8009 4.625L48.9879 5.169L48.7499 5.356V6.172L48.6309 6.631L48.7839 7.192L48.5289 7.413V7.464L48.6819 7.685L48.6649 8.45L48.5969 8.501L48.7159 8.773L48.4609 9.368ZM67.1637 4.03L66.8067 4.897L66.6367 4.948H66.3647L66.1097 4.982L65.9227 4.948L65.0217 5.016L64.7497 4.948L64.6987 4.965C64.608 5.01033 64.4437 5.05 64.2057 5.084H63.8657L63.7637 5.05H63.7127C63.5993 5.05 63.4577 5.07267 63.2877 5.118C63.1517 5.152 62.976 5.169 62.7607 5.169L62.5227 5.118L62.4887 5.288H62.3187L62.2677 5.781L62.3357 5.9L62.3187 6.121V6.495C62.3187 6.88033 62.279 7.141 62.1997 7.277L62.3187 7.447L62.2167 7.855L62.3187 7.974L62.1487 8.212V8.331L62.0637 8.484L62.1317 8.807L62.0807 9.402L61.9957 9.674C62.007 9.68533 62.0127 9.71367 62.0127 9.759C62.0127 9.73633 61.9957 9.79867 61.9617 9.946C61.9617 9.95733 61.9673 9.97433 61.9787 9.997V10.065C61.9787 10.167 61.9447 10.269 61.8767 10.371L61.9277 10.575C61.9277 10.6543 61.922 10.6997 61.9107 10.711L61.8937 10.745C61.8823 10.779 61.871 10.813 61.8597 10.847C61.8597 10.8697 61.8597 10.898 61.8597 10.932C61.8597 11.1133 61.8823 11.2663 61.9277 11.391C61.8143 11.4137 61.6953 11.425 61.5707 11.425C61.4573 11.4363 61.3893 11.442 61.3667 11.442C61.2987 11.442 61.2307 11.4307 61.1627 11.408H61.1287C60.8793 11.34 60.7547 11.1077 60.7547 10.711C60.766 10.677 60.7717 10.609 60.7717 10.507C60.7717 10.4277 60.7603 10.32 60.7377 10.184C60.715 10.0367 60.7037 9.93467 60.7037 9.878C60.7037 9.776 60.7207 9.691 60.7547 9.623L60.8057 9.028C60.7263 8.91467 60.6867 8.82967 60.6867 8.773C60.6867 8.78433 60.698 8.74467 60.7207 8.654C60.6867 8.586 60.6697 8.52933 60.6697 8.484C60.6697 8.39333 60.6923 8.331 60.7377 8.297C60.7377 8.24033 60.7773 8.12133 60.8567 7.94C60.834 7.82667 60.8227 7.74167 60.8227 7.685C60.8907 7.685 60.9247 7.651 60.9247 7.583C60.9247 7.56033 60.9133 7.532 60.8907 7.498C60.8793 7.464 60.8737 7.41867 60.8737 7.362L60.9077 7.413L60.8567 7.277C60.8567 7.08433 60.8793 6.92567 60.9247 6.801V6.393L60.8567 6.087L60.9247 5.594L60.8567 5.288L60.8737 5.152H60.6697L60.4997 5.237H60.3977V5.288C60.1823 5.288 59.984 5.271 59.8027 5.237L59.7517 5.356L59.1907 5.169L58.4427 5.152L57.9667 5.288C57.774 5.118 57.6267 4.948 57.5247 4.778C57.434 4.59667 57.3887 4.46633 57.3887 4.387C57.3887 4.29633 57.4 4.22833 57.4227 4.183L57.7457 3.894L58.0177 3.911L58.9867 4.098L59.2417 4.013L59.9727 4.03L60.5507 4.098L60.9247 3.962L61.0607 3.588L61.6387 3.724L61.6557 3.707L61.6897 3.741L61.8937 3.996H61.9447L62.1487 3.928L62.5737 4.03C62.789 3.996 62.9533 3.96767 63.0667 3.945C63.1913 3.92233 63.2707 3.911 63.3047 3.911C63.4067 3.911 63.5313 3.93933 63.6787 3.996H63.8487C63.9053 3.996 63.9563 3.996 64.0017 3.996C64.047 3.98467 64.081 3.979 64.1037 3.979H64.2057L64.6987 3.911L65.1237 3.996L65.1747 4.013L65.3957 3.945L65.7017 4.013L66.4157 3.996L66.7387 4.03H67.1637ZM68.7353 9.3L68.7693 9.504L68.8373 9.929L68.8713 10.133L68.9223 10.184L69.1603 10.252H69.3813L69.7553 10.184H70.2313L70.7583 10.15L70.9283 9.895L71.0813 9.98L71.2173 9.844L71.3703 9.759L71.6083 9.691L71.6593 9.674L71.7273 9.436L71.9993 9.368L72.2203 9.249L72.4073 8.96L72.6793 8.756L72.7813 8.467L72.9513 8.314L73.0193 8.127L72.9343 7.685L72.8833 7.651L72.6963 7.396L72.3903 7.277C72.4016 7.277 72.3846 7.243 72.3393 7.175C72.3053 7.09567 72.2656 7.06733 72.2203 7.09L72.0163 7.039L71.6933 6.852L71.5573 6.903H71.4213C71.3419 6.94833 71.2569 6.971 71.1663 6.971C71.1436 6.971 71.1153 6.954 71.0813 6.92C71.0586 6.886 71.0303 6.85767 70.9963 6.835C70.9623 6.84633 70.8999 6.86333 70.8093 6.886C70.7186 6.90867 70.6053 6.92 70.4693 6.92C70.4239 6.90867 70.3616 6.90867 70.2823 6.92C70.2029 6.92 70.1576 6.92 70.1463 6.92C70.1009 6.954 70.0669 6.971 70.0443 6.971C70.0329 6.971 69.9989 6.971 69.9423 6.971C69.8969 6.971 69.8403 7.005 69.7723 7.073C69.7156 7.12967 69.6703 7.16367 69.6363 7.175L69.2793 7.09L68.9223 7.175L68.8713 7.685L68.8373 8.246L68.8203 8.518L68.9733 9.062L68.7353 9.3ZM67.6983 6.036C67.7096 6.002 67.7153 5.91133 67.7153 5.764C67.7153 5.628 67.7039 5.50333 67.6813 5.39L67.7153 5.271L67.5793 5.118C67.5906 5.05 67.6303 4.99333 67.6983 4.948L67.6133 4.829C67.6473 4.761 67.6643 4.693 67.6643 4.625C67.6643 4.53433 67.6246 4.43233 67.5453 4.319C67.5453 4.22833 67.5623 4.13767 67.5963 4.047L67.5282 3.877L67.6133 3.69L67.3413 3.112L67.6133 3.061V3.027L68.2083 2.721L68.5143 3.078L68.5483 3.248L68.8033 3.435L68.7863 3.69C68.7863 3.73533 68.7806 3.792 68.7693 3.86C68.7693 3.91667 68.7636 3.98467 68.7523 4.064C68.8316 4.14333 68.8713 4.217 68.8713 4.285C68.8713 4.29633 68.8599 4.336 68.8373 4.404L68.9052 4.472L68.8373 4.744L68.9563 5.05L68.9393 5.169L69.1603 5.271L69.0413 5.492L68.9393 5.594L68.8713 5.9L68.9223 6.155L69.3473 6.002L69.7723 6.036L69.8913 5.764L70.3673 5.866L70.8093 5.883L70.9283 5.832L71.2003 5.968L71.2683 5.934L71.5913 5.747L72.0503 5.832L72.2543 5.849L72.8153 5.985L72.9173 5.968C73.0079 6.02467 73.0986 6.08133 73.1893 6.138C73.2913 6.19467 73.3876 6.26833 73.4783 6.359L73.7843 6.393L73.9033 6.75L73.9713 6.784L74.1583 7.056L74.2603 7.345L74.3793 7.464L74.3453 7.838L74.3793 7.991C74.3566 8.093 74.3169 8.20067 74.2603 8.314C74.2036 8.42733 74.1809 8.552 74.1923 8.688L74.0393 8.569L74.0563 8.688L73.9713 8.824L74.0053 9.198L73.6483 9.028L73.5973 9.232L73.5123 9.334C73.4896 9.39067 73.4669 9.44733 73.4443 9.504C73.4216 9.54933 73.3933 9.589 73.3593 9.623L73.4103 9.742L73.0873 9.844L73.0703 9.895L72.8153 10.201L72.6453 10.507L72.5093 10.609L72.3733 10.83L71.9483 10.711L71.8803 10.813C71.8463 10.8243 71.7896 10.83 71.7103 10.83C71.6309 10.83 71.5686 10.83 71.5233 10.83L71.2853 11.068L71.2343 11.238C71.1663 11.2607 71.0983 11.306 71.0303 11.374C70.9623 11.4533 70.8886 11.493 70.8093 11.493L70.5203 11.391L70.0613 11.255L69.7383 11.442L69.6703 11.476L69.3983 11.459L69.4493 11.425L68.9903 11.493L68.6673 11.544L68.5312 11.391L68.2253 11.425C67.9419 11.3683 67.7493 11.2097 67.6473 10.949L67.6303 10.83L67.5453 10.694V10.388L67.4433 10.218L67.5793 10.014C67.5453 9.90067 67.5282 9.793 67.5282 9.691C67.5282 9.657 67.5339 9.63433 67.5453 9.623V9.028L67.6133 8.858L67.6303 7.855L67.6813 7.617L67.5963 7.515L67.7493 7.056L67.6983 6.886V6.512L67.7833 6.41L67.7663 6.172L67.6983 6.036ZM87.0343 8.076L87.2723 8.365L87.3233 8.671L87.4083 8.841L87.3233 9.521L87.0853 9.776L87.0003 10.048L86.6943 10.184V10.303L86.4393 10.354L86.2693 10.575C86.19 10.609 86.0823 10.643 85.9463 10.677C85.8216 10.711 85.68 10.7507 85.5213 10.796C85.4533 10.8527 85.3853 10.9093 85.3173 10.966C85.2606 11.0113 85.1813 11.0397 85.0793 11.051C84.9886 11.0963 84.8753 11.153 84.7393 11.221C84.6146 11.289 84.4843 11.34 84.3483 11.374L84.1783 11.323L83.5323 11.493L83.2093 11.476L82.9543 11.425L82.7333 11.476L82.3593 11.527H82.1213L81.9853 11.459C81.974 11.4817 81.957 11.4987 81.9343 11.51C81.889 11.5327 81.855 11.527 81.8323 11.493L81.7473 11.391C81.7246 11.4023 81.702 11.425 81.6793 11.459C81.668 11.5043 81.6396 11.5327 81.5943 11.544C81.5263 11.544 81.4413 11.527 81.3393 11.493L81.2203 11.527C81.1523 11.527 81.107 11.5213 81.0843 11.51C81.073 11.5213 81.0616 11.51 81.0503 11.476C81.039 11.4533 81.022 11.442 80.9993 11.442C80.92 11.442 80.8406 11.4193 80.7613 11.374L80.5233 11.493L80.3533 11.238L80.2513 11.323L80.0813 11.238C80.036 11.2833 79.9963 11.306 79.9623 11.306C79.9283 11.306 79.8886 11.306 79.8433 11.306C79.764 11.306 79.6903 11.2493 79.6223 11.136C79.4863 11.068 79.3843 10.983 79.3163 10.881C79.2483 10.779 79.2143 10.5977 79.2143 10.337C79.2143 10.0083 79.3616 9.827 79.6563 9.793C79.713 9.77033 79.747 9.73633 79.7583 9.691C79.7696 9.64567 79.8093 9.61167 79.8773 9.589L80.1153 9.538L80.5403 9.47C80.869 9.606 81.0333 9.75333 81.0333 9.912C81.0333 10.0027 80.9936 10.0877 80.9143 10.167C80.9483 10.167 81.0106 10.184 81.1013 10.218L81.3733 10.167C81.4866 10.167 81.6 10.2067 81.7133 10.286C81.7926 10.2633 81.872 10.269 81.9513 10.303C82.042 10.337 82.1326 10.354 82.2233 10.354H82.5123C82.6143 10.286 82.688 10.252 82.7333 10.252C82.79 10.252 82.8636 10.2747 82.9543 10.32C83.011 10.286 83.062 10.2633 83.1073 10.252C83.1526 10.2407 83.2036 10.2293 83.2603 10.218L83.5323 10.388L83.5663 10.32L83.8723 10.269H84.0593L84.3313 10.082C84.422 10.082 84.49 10.0877 84.5353 10.099C84.592 10.099 84.626 10.099 84.6373 10.099C84.6713 10.099 84.728 10.0763 84.8073 10.031C84.8866 9.97433 84.966 9.91767 85.0453 9.861H85.1983L85.2323 9.776L85.4873 9.606L85.5383 9.504C85.6516 9.45867 85.731 9.402 85.7763 9.334C85.8216 9.266 85.8613 9.20933 85.8953 9.164C85.952 9.07333 85.9746 8.99967 85.9633 8.943C85.9633 8.875 85.952 8.81267 85.9293 8.756C85.9066 8.73333 85.884 8.722 85.8613 8.722C85.8386 8.722 85.782 8.71067 85.6913 8.688L85.4363 8.484L85.1303 8.433L84.8583 8.518L84.7563 8.365L84.6203 8.399L84.4673 8.229L84.3993 8.28C84.2406 8.246 84.15 8.229 84.1273 8.229C84.0706 8.24033 84.0196 8.25167 83.9743 8.263C83.9403 8.27433 83.9063 8.28567 83.8723 8.297C83.827 8.28567 83.7703 8.23467 83.7023 8.144L83.6343 8.195C83.555 8.21767 83.47 8.23467 83.3793 8.246C83.3 8.25733 83.2093 8.26867 83.1073 8.28L83.0223 8.178L82.6653 8.127L82.5463 8.008L82.3593 8.025L82.0363 7.872L81.7643 7.566L81.6793 7.226L81.8323 6.886L82.1213 6.699C82.2233 6.631 82.3253 6.59133 82.4273 6.58C82.5406 6.55733 82.6483 6.53467 82.7503 6.512L82.9543 6.359L83.6343 6.155L83.7703 6.053L84.0423 6.104L84.1783 5.934L84.2803 6.002C84.4616 5.80933 84.6713 5.713 84.9093 5.713L85.0453 5.594L85.0793 5.56C85.1246 5.51467 85.153 5.48633 85.1643 5.475C85.187 5.46367 85.238 5.43533 85.3173 5.39C85.3853 5.27667 85.4023 5.21433 85.3683 5.203C85.3456 5.18033 85.2833 5.118 85.1813 5.016C85.136 4.95933 85.0736 4.90833 84.9943 4.863C84.915 4.80633 84.762 4.74967 84.5353 4.693L84.3143 4.727C84.1216 4.693 83.9856 4.676 83.9063 4.676C83.8496 4.676 83.793 4.68167 83.7363 4.693C83.691 4.693 83.64 4.69867 83.5833 4.71H83.4303L83.1583 4.778L82.9033 4.71L82.7843 4.846L82.2063 4.88L81.8663 4.999C81.7756 5.101 81.685 5.152 81.5943 5.152C81.5603 5.152 81.5263 5.14633 81.4923 5.135C81.4583 5.12367 81.413 5.10667 81.3563 5.084C81.345 5.118 81.3336 5.14633 81.3223 5.169C81.311 5.18033 81.2996 5.19733 81.2883 5.22H81.2033C81.1353 5.22 81.0616 5.22567 80.9823 5.237C80.9143 5.24833 80.8406 5.31633 80.7613 5.441C80.6933 5.441 80.648 5.43533 80.6253 5.424L80.5403 5.679L79.9793 5.254L79.8263 5.084L79.8773 4.982H79.7753C79.73 4.90267 79.7073 4.829 79.7073 4.761V4.659L79.7923 4.353L79.8773 4.268C79.9226 4.234 79.968 4.20567 80.0133 4.183C80.0586 4.149 80.1096 4.132 80.1663 4.132H80.2343L80.3363 3.979L80.5743 4.047C80.631 3.99033 80.6933 3.95067 80.7613 3.928C80.8406 3.90533 80.9143 3.894 80.9823 3.894H81.0503C81.0503 3.84867 81.0843 3.78067 81.1523 3.69H81.4413L81.5603 3.622L81.7983 3.588L82.0023 3.775L81.9853 3.622H82.2063L82.4103 3.571L82.9033 3.469L83.0733 3.486C83.2773 3.42933 83.4813 3.401 83.6853 3.401H83.8723L83.8213 3.452H83.8893C83.9686 3.452 84.0423 3.469 84.1103 3.503L84.2633 3.452L84.5863 3.486C84.6203 3.486 84.6826 3.486 84.7733 3.486C84.8753 3.486 84.9546 3.48033 85.0113 3.469H85.1303V3.571L85.4703 3.69L85.8783 3.792L86.0653 4.064L86.3543 4.285C86.4563 4.421 86.5356 4.557 86.5923 4.693C86.649 4.81767 86.6603 4.99333 86.6263 5.22L86.5413 5.56V5.594C86.5186 5.65067 86.4676 5.75267 86.3883 5.9C86.2523 6.12667 86.0653 6.27967 85.8273 6.359L85.6913 6.495L85.3173 6.648L84.9943 6.716L84.7733 6.886L84.1783 6.954L83.9403 7.073H83.6513L83.3113 7.192L83.6683 7.311H84.0763L84.2633 7.294H84.7053C84.864 7.294 84.9773 7.33367 85.0453 7.413C85.136 7.43567 85.2266 7.45833 85.3173 7.481C85.4193 7.49233 85.5326 7.498 85.6573 7.498L85.7593 7.583C85.7706 7.583 85.782 7.57733 85.7933 7.566C85.8046 7.566 85.816 7.57167 85.8273 7.583C85.85 7.583 85.8896 7.583 85.9463 7.583L86.2863 7.617L86.5073 7.804H86.6773L87.0343 8.076ZM95.4648 4.115L95.2948 4.336L95.4308 4.744L95.2098 4.999L95.1248 5.356L95.0738 5.441L95.1078 5.526C95.1078 5.68467 95.0682 5.80367 94.9888 5.883L94.9548 5.934V6.002C94.9888 6.08133 95.0058 6.155 95.0058 6.223C95.0058 6.27967 95.0002 6.31933 94.9888 6.342L95.0058 6.41L94.9378 6.597L94.9888 6.801L94.8528 6.937L94.9038 7.175L95.0058 7.294L94.8528 7.43V7.702L94.7338 7.974L94.8188 8.246L94.7168 8.382L94.8868 8.501L94.6488 8.892L94.6318 8.943L94.8018 8.977L94.6828 9.368V9.436C94.6828 9.51533 94.6772 9.57767 94.6658 9.623L94.6828 9.674L94.9548 9.708L95.1758 10.048L95.0568 10.303L95.2438 10.286C95.3118 10.422 95.3515 10.541 95.3628 10.643L95.1078 10.898C95.0285 10.9773 94.9152 11.0567 94.7678 11.136L94.4788 11.289L94.3938 11.204L94.2238 11.306L93.6968 10.694V10.405C93.6288 10.1783 93.5948 9.96867 93.5948 9.776V9.674L93.4928 8.671L93.6288 7.957L93.5268 7.549L93.2378 8.025L93.0848 8.467L92.9488 8.535L92.7108 8.909L92.2858 9.3L92.1668 9.504L91.7928 9.827L91.7078 10.048L91.1638 10.388L90.5858 11.034L90.2628 11.102L90.0418 11.272C89.7585 11.2607 89.5432 11.153 89.3958 10.949C88.8858 10.6997 88.6195 10.3427 88.5968 9.878L88.6818 9.827L88.6648 9.725L88.6478 9.521L88.5458 9.3L88.6478 9.062L88.6818 8.705L88.8008 8.144C88.8008 8.13267 88.8008 8.11 88.8008 8.076C88.7895 8.05333 88.7838 8.03067 88.7838 8.008C88.7838 7.96267 88.7952 7.906 88.8178 7.838C88.8065 7.81533 88.8008 7.77 88.8008 7.702C88.8008 7.62267 88.8348 7.49233 88.9028 7.311L89.0218 7.26C88.9538 7.20333 88.9198 7.141 88.9198 7.073C88.9198 7.02767 88.9255 6.99367 88.9368 6.971C88.9255 6.937 88.9198 6.89733 88.9198 6.852C88.9198 6.716 88.9878 6.614 89.1238 6.546C89.1578 6.43267 89.2202 6.31933 89.3108 6.206L89.2258 6.07L89.4298 5.815V5.747C89.4298 5.53167 89.5035 5.33333 89.6508 5.152L89.6338 4.846L89.7018 4.778C89.7018 4.76667 89.7018 4.74967 89.7018 4.727C89.6905 4.70433 89.6848 4.68733 89.6848 4.676C89.6848 4.608 89.7075 4.55133 89.7528 4.506V4.404C89.7982 4.29067 89.9172 4.12067 90.1098 3.894C90.3025 3.66733 90.4442 3.469 90.5348 3.299L90.6198 3.384L90.8068 3.299L90.8918 3.265L91.4528 3.01L92.7618 3.078V3.197L93.1698 3.282C93.4305 3.282 93.6005 3.367 93.6798 3.537C93.6798 3.503 93.6855 3.46333 93.6968 3.418C93.6968 3.384 93.6968 3.36133 93.6968 3.35L94.0538 3.673L94.3768 3.741L94.9888 3.588L95.2098 4.013L95.4648 4.115ZM93.8498 4.999L93.7818 4.88L93.6458 4.846L93.1188 4.421L92.7788 4.37H92.5068L92.4728 4.336L92.3368 4.387L92.1838 4.302H91.7418L91.7928 4.37L91.4018 4.506L91.3338 4.591L91.2828 4.608C91.0788 4.778 90.9372 4.91967 90.8578 5.033L90.7388 5.441L90.6708 5.594L90.8408 5.832L90.5518 6.053L90.5858 6.121C90.4612 6.33633 90.3988 6.546 90.3988 6.75L90.2628 6.92V7.226L90.1268 7.379L90.0928 7.532L90.0418 7.566V7.804L89.9908 7.889C89.9908 8.025 89.9795 8.13267 89.9568 8.212L89.9908 8.297L89.8378 8.62L89.9058 8.722L89.7868 8.892L89.9058 9.215L89.7188 9.453L89.7528 9.776V9.827L89.8208 9.861L89.9058 9.844C89.9625 9.78733 90.0192 9.73633 90.0758 9.691L90.0418 9.555L90.2798 9.521L90.3308 9.402L91.3338 8.586L91.4358 8.552L91.5548 8.263C91.6228 8.24033 91.7192 8.195 91.8438 8.127L91.9458 7.855H92.0818L92.0308 7.566L92.2688 7.532C92.2915 7.48667 92.3255 7.43 92.3708 7.362C92.4275 7.294 92.4842 7.23167 92.5408 7.175L93.4078 6.019L93.5438 5.764L93.5268 5.696L93.6458 5.509L93.6798 5.322L93.8328 5.186L93.8498 4.999ZM106.345 9.725L106.498 9.64L106.821 9.759L106.94 9.623L107.314 9.776L107.331 9.844L107.28 10.099L107.314 10.133L107.399 10.473L107.246 10.609L107.365 10.762L107.382 10.796C107.393 11.0907 107.342 11.306 107.229 11.442L107.263 11.799V12.054L107.076 12.377L107.093 12.632L107.025 12.887L106.736 13.516L106.481 13.567L106.328 13.04L106.226 12.734C106.18 12.6773 106.163 12.6093 106.175 12.53C106.186 12.462 106.203 12.377 106.226 12.275L106.175 12.207L106.209 12.122L106.107 11.918L106.243 11.714L106.158 11.612L106.243 11.459C106.231 11.255 106.197 11.1077 106.141 11.017C106.095 10.9263 105.959 10.8923 105.733 10.915H105.699L105.75 10.847C105.704 10.8583 105.665 10.8697 105.631 10.881C105.597 10.881 105.557 10.881 105.512 10.881H104.849C104.792 10.881 104.724 10.864 104.645 10.83C104.622 10.83 104.594 10.83 104.56 10.83C104.537 10.8187 104.503 10.8073 104.458 10.796L104.356 10.915L103.795 10.813L103.676 10.881H103.37L102.894 10.83L102.146 10.915L101.755 10.813L100.888 10.915C100.808 10.915 100.672 10.9207 100.48 10.932C100.287 10.932 100.117 10.932 99.9696 10.932C99.9129 10.932 99.8676 10.9433 99.8336 10.966C99.7996 10.9887 99.7712 10.9887 99.7486 10.966L99.5446 10.949L99.0686 11.017L99.1026 11.051C99.0346 11.051 98.9836 11.0453 98.9496 11.034C98.9156 11.034 98.8872 11.034 98.8646 11.034C98.8079 11.034 98.7399 11.0227 98.6606 11C98.5812 10.9887 98.5302 11.0057 98.5076 11.051L98.2186 11.136L98.0826 11.068C98.0826 11.1813 98.0372 11.3287 97.9466 11.51L98.0316 11.663L97.9466 11.748L98.0656 11.969L97.9976 12.156L98.0316 12.275L97.9806 12.326C97.9806 12.428 97.9749 12.513 97.9636 12.581C97.9636 12.6603 97.9409 12.7283 97.8956 12.785L97.7936 13.091L97.5216 13.601L97.2156 13.55L97.0456 12.887L97.0116 12.615L97.0456 12.36L96.8586 12.054L96.9096 11.799L96.9606 11.442C96.8586 11.2947 96.8132 11.0737 96.8246 10.779L96.8416 10.762C96.8302 10.728 96.8189 10.6997 96.8076 10.677C96.8076 10.643 96.8076 10.609 96.8076 10.575C96.8076 10.3937 96.8472 10.2463 96.9266 10.133C97.0172 10.0083 97.1759 9.91767 97.4026 9.861H97.6236L98.1336 9.81L98.2186 9.657C98.2866 9.61167 98.3149 9.54933 98.3036 9.47C98.3036 9.39067 98.3262 9.32833 98.3716 9.283L98.5416 9.215L98.5076 9.028L98.7286 8.943C98.7512 8.875 98.7626 8.83533 98.7626 8.824V8.79L98.8136 8.671L98.9666 8.552L99.0516 8.331V8.161H99.2216L99.2386 7.923L99.3406 7.838L99.3746 7.753C99.5446 7.63967 99.6296 7.566 99.6296 7.532L99.7826 7.243L99.9016 7.005L100.072 6.767L100.191 6.563L100.327 6.41L100.463 6.155L100.684 5.917L100.752 5.866V5.679L100.786 5.662L100.82 5.56C100.899 5.46933 100.961 5.356 101.007 5.22C101.063 5.084 101.103 4.98767 101.126 4.931L101.143 4.71L101.228 4.506L101.296 4.489V4.285H101.33L101.432 4.098L101.364 3.656L101.483 3.401C101.573 3.34433 101.675 3.299 101.789 3.265C101.913 3.231 102.004 3.214 102.061 3.214C102.163 3.214 102.253 3.23667 102.333 3.282C102.367 3.30467 102.418 3.401 102.486 3.571C102.554 3.72967 102.667 3.92233 102.826 4.149L102.945 4.455L103.098 4.642L103.353 4.965L103.591 5.271L103.608 5.373L103.965 5.764V5.9L104.152 5.951L104.254 6.342L104.458 6.546L104.594 6.75C104.605 6.79533 104.622 6.84067 104.645 6.886C104.679 6.92 104.713 6.954 104.747 6.988V7.022H104.798C104.854 7.07867 104.9 7.14667 104.934 7.226C104.968 7.294 105.002 7.36767 105.036 7.447L105.121 7.617L105.206 7.719L105.359 8.11L105.478 8.212V8.382L105.546 8.484L105.699 8.739L105.835 9.011L106.039 9.317L106.124 9.47L106.226 9.623L106.345 9.725ZM100.106 8.943L100.021 8.994C99.9979 9.01667 99.9809 9.05067 99.9696 9.096C99.9696 9.14133 99.9582 9.17533 99.9356 9.198L99.7316 9.47L99.6466 9.776L100.089 9.759L100.378 9.81H100.65L100.922 9.776H101.466C101.556 9.776 101.636 9.76467 101.704 9.742C101.783 9.71933 101.828 9.708 101.84 9.708H101.942C101.964 9.71933 102.027 9.70233 102.129 9.657C102.242 9.60033 102.304 9.572 102.316 9.572L102.741 9.708L102.979 9.589L103.421 9.708L103.999 9.742C104.021 9.73067 104.05 9.725 104.084 9.725C104.129 9.725 104.169 9.725 104.203 9.725C104.305 9.725 104.401 9.742 104.492 9.776L104.662 9.793C104.662 9.73633 104.656 9.66833 104.645 9.589C104.633 9.49833 104.616 9.43033 104.594 9.385C104.526 9.29433 104.492 9.20933 104.492 9.13L104.254 8.79L104.237 8.671L104.084 8.365L104.05 8.195L103.863 7.923L103.608 7.43L103.336 6.954L103.064 6.614C103.03 6.59133 103.001 6.55167 102.979 6.495C102.967 6.43833 102.95 6.37033 102.928 6.291L102.775 6.257L102.741 6.104L102.452 5.9C102.429 5.866 102.406 5.82067 102.384 5.764C102.361 5.70733 102.321 5.65633 102.265 5.611L102.214 5.543L102.112 5.594L102.078 5.764L101.84 6.087L101.534 6.529L101.449 6.699L101.381 6.835L101.194 7.073L101.041 7.396L100.786 7.668L100.582 8.042L100.514 8.178C100.491 8.28 100.457 8.348 100.412 8.382C100.366 8.416 100.321 8.47833 100.276 8.569L100.106 8.943ZM115.362 4.115L115.192 4.336L115.328 4.744L115.107 4.999L115.022 5.356L114.971 5.441L115.005 5.526C115.005 5.68467 114.965 5.80367 114.886 5.883L114.852 5.934V6.002C114.886 6.08133 114.903 6.155 114.903 6.223C114.903 6.27967 114.897 6.31933 114.886 6.342L114.903 6.41L114.835 6.597L114.886 6.801L114.75 6.937L114.801 7.175L114.903 7.294L114.75 7.43V7.702L114.631 7.974L114.716 8.246L114.614 8.382L114.784 8.501L114.546 8.892L114.529 8.943L114.699 8.977L114.58 9.368V9.436C114.58 9.51533 114.574 9.57767 114.563 9.623L114.58 9.674L114.852 9.708L115.073 10.048L114.954 10.303L115.141 10.286C115.209 10.422 115.248 10.541 115.26 10.643L115.005 10.898C114.925 10.9773 114.812 11.0567 114.665 11.136L114.376 11.289L114.291 11.204L114.121 11.306L113.594 10.694V10.405C113.526 10.1783 113.492 9.96867 113.492 9.776V9.674L113.39 8.671L113.526 7.957L113.424 7.549L113.135 8.025L112.982 8.467L112.846 8.535L112.608 8.909L112.183 9.3L112.064 9.504L111.69 9.827L111.605 10.048L111.061 10.388L110.483 11.034L110.16 11.102L109.939 11.272C109.655 11.2607 109.44 11.153 109.293 10.949C108.783 10.6997 108.516 10.3427 108.494 9.878L108.579 9.827L108.562 9.725L108.545 9.521L108.443 9.3L108.545 9.062L108.579 8.705L108.698 8.144C108.698 8.13267 108.698 8.11 108.698 8.076C108.686 8.05333 108.681 8.03067 108.681 8.008C108.681 7.96267 108.692 7.906 108.715 7.838C108.703 7.81533 108.698 7.77 108.698 7.702C108.698 7.62267 108.732 7.49233 108.8 7.311L108.919 7.26C108.851 7.20333 108.817 7.141 108.817 7.073C108.817 7.02767 108.822 6.99367 108.834 6.971C108.822 6.937 108.817 6.89733 108.817 6.852C108.817 6.716 108.885 6.614 109.021 6.546C109.055 6.43267 109.117 6.31933 109.208 6.206L109.123 6.07L109.327 5.815V5.747C109.327 5.53167 109.4 5.33333 109.548 5.152L109.531 4.846L109.599 4.778C109.599 4.76667 109.599 4.74967 109.599 4.727C109.587 4.70433 109.582 4.68733 109.582 4.676C109.582 4.608 109.604 4.55133 109.65 4.506V4.404C109.695 4.29067 109.814 4.12067 110.007 3.894C110.199 3.66733 110.341 3.469 110.432 3.299L110.517 3.384L110.704 3.299L110.789 3.265L111.35 3.01L112.659 3.078V3.197L113.067 3.282C113.327 3.282 113.497 3.367 113.577 3.537C113.577 3.503 113.582 3.46333 113.594 3.418C113.594 3.384 113.594 3.36133 113.594 3.35L113.951 3.673L114.274 3.741L114.886 3.588L115.107 4.013L115.362 4.115ZM113.747 4.999L113.679 4.88L113.543 4.846L113.016 4.421L112.676 4.37H112.404L112.37 4.336L112.234 4.387L112.081 4.302H111.639L111.69 4.37L111.299 4.506L111.231 4.591L111.18 4.608C110.976 4.778 110.834 4.91967 110.755 5.033L110.636 5.441L110.568 5.594L110.738 5.832L110.449 6.053L110.483 6.121C110.358 6.33633 110.296 6.546 110.296 6.75L110.16 6.92V7.226L110.024 7.379L109.99 7.532L109.939 7.566V7.804L109.888 7.889C109.888 8.025 109.876 8.13267 109.854 8.212L109.888 8.297L109.735 8.62L109.803 8.722L109.684 8.892L109.803 9.215L109.616 9.453L109.65 9.776V9.827L109.718 9.861L109.803 9.844C109.859 9.78733 109.916 9.73633 109.973 9.691L109.939 9.555L110.177 9.521L110.228 9.402L111.231 8.586L111.333 8.552L111.452 8.263C111.52 8.24033 111.616 8.195 111.741 8.127L111.843 7.855H111.979L111.928 7.566L112.166 7.532C112.188 7.48667 112.222 7.43 112.268 7.362C112.324 7.294 112.381 7.23167 112.438 7.175L113.305 6.019L113.441 5.764L113.424 5.696L113.543 5.509L113.577 5.322L113.73 5.186L113.747 4.999ZM122.926 5.798H123.045C123.068 5.77533 123.091 5.747 123.113 5.713C123.147 5.679 123.193 5.65067 123.249 5.628V5.458L123.504 5.254L123.64 4.965L123.776 4.727L123.827 4.506L124.014 4.217L124.048 4.013L124.626 3.928L125.119 4.183L125.238 4.319C125.42 4.44367 125.584 4.574 125.731 4.71L125.408 4.982L125.425 5.203C125.391 5.407 125.289 5.55433 125.119 5.645L125 5.866V6.138L125.051 6.41L125.068 6.869L124.915 6.971C124.972 7.02767 125.017 7.07867 125.051 7.124C125.097 7.16933 125.119 7.277 125.119 7.447C125.119 7.53767 125.114 7.59433 125.102 7.617L124.966 7.634L125.017 7.804L124.966 8.144L125.102 9.215L125 9.521L125.136 9.98L125.051 10.405L125.136 10.677L125.272 10.864C125.182 11.0793 125.136 11.238 125.136 11.34V11.51C125.148 11.5553 125.153 11.6177 125.153 11.697V11.799L125.034 11.952C125.046 11.9633 125.051 12.0143 125.051 12.105C125.051 12.2183 125.046 12.292 125.034 12.326L125.136 12.547L125.051 12.802L125.238 13.329C125.227 13.7823 125.046 14.009 124.694 14.009H124.388C124.218 13.7937 124.099 13.5783 124.031 13.363C124.031 13.3063 124.048 13.2497 124.082 13.193L123.861 12.938L123.98 12.734L123.912 12.394V12.054L123.708 11.51L123.861 11.476C123.816 11.3853 123.793 11.272 123.793 11.136C123.793 11.0227 123.816 10.9263 123.861 10.847L123.912 10.609L123.657 9.844L123.81 9.402L123.674 8.722V8.246L123.759 7.804L123.623 7.311L123.759 6.903L123.691 6.512L123.589 6.614L123.334 6.886C123.323 6.97667 123.289 7.07867 123.232 7.192C123.176 7.30533 123.108 7.362 123.028 7.362L122.552 7.634L122.365 7.991L121.583 8.603L121.158 8.79L120.784 9.062L120.546 9.13L119.713 9.47L119.373 9.623L118.812 9.606L118.404 9.351L118.166 9.198V8.892L117.877 8.824L117.758 8.586L117.707 8.45L117.639 8.229L117.741 7.906L117.69 7.702L117.741 7.447L117.673 7.039L117.588 6.903C117.6 6.72167 117.662 6.58567 117.775 6.495L117.724 6.427L117.792 6.07L117.673 5.849V5.492L117.792 5.101L117.843 4.778L117.775 4.455L117.945 4.268C118.013 4.14333 118.121 4.081 118.268 4.081L118.489 3.979L118.897 4.098C119.022 4.15467 119.107 4.251 119.152 4.387C119.198 4.40967 119.226 4.46067 119.237 4.54C119.26 4.608 119.294 4.70433 119.339 4.829L119.203 5.22C119.181 5.34467 119.135 5.441 119.067 5.509C119.011 5.577 118.982 5.679 118.982 5.815V5.934L119.135 6.138L119.067 6.342L119.033 6.682L119.135 6.988L118.88 7.209C119.062 7.617 119.152 7.91167 119.152 8.093L119.628 8.144C119.64 8.12133 119.679 8.08733 119.747 8.042C119.815 7.99667 119.861 7.96267 119.883 7.94L120.138 7.923L120.342 7.855C120.399 7.79833 120.45 7.77 120.495 7.77C120.541 7.75867 120.592 7.74167 120.648 7.719L120.818 7.515L121.26 7.413L121.243 7.243L121.634 7.175L121.94 6.835L122.008 6.903L122.093 6.682L122.229 6.75L122.399 6.614L122.535 6.274L122.892 6.036L122.926 5.798ZM135.697 3.282L135.595 3.571L135.748 3.894L135.561 4.047L135.493 4.404L135.374 4.523L135.289 4.897H135.238C135.204 5.05567 135.108 5.18033 134.949 5.271L134.796 5.815L134.643 6.053C134.655 6.09833 134.66 6.172 134.66 6.274L134.388 6.512L133.997 7.413L133.538 7.94V8.11C133.538 8.26867 133.448 8.40467 133.266 8.518L133.232 8.824L133.113 8.892L132.909 9.164L132.858 9.351L132.705 9.436C132.705 9.45867 132.705 9.487 132.705 9.521C132.717 9.555 132.728 9.60033 132.739 9.657L132.552 9.81L132.246 9.997L132.144 10.167L131.804 10.524C131.544 10.9547 131.289 11.2323 131.039 11.357L130.631 11.952L130.308 12.088L130.189 12.275H130.104L129.985 12.377L129.917 12.598L129.628 12.717L129.543 12.87L129.169 13.04H129.101C128.863 13.3347 128.727 13.4877 128.693 13.499C128.671 13.5103 128.637 13.5217 128.591 13.533C128.546 13.5443 128.478 13.5557 128.387 13.567C128.331 13.6577 128.257 13.7087 128.166 13.72L128.149 13.754L127.826 14.06L127.639 14.043L127.537 14.179L127.248 14.247L126.857 14.434L126.194 14.451L125.616 14.23L125.65 13.975C125.662 13.8277 125.752 13.737 125.922 13.703C125.979 13.6803 126.053 13.6407 126.143 13.584C126.234 13.5387 126.342 13.4763 126.466 13.397L126.704 13.414L126.84 13.21C126.897 13.21 126.942 13.2383 126.976 13.295C127.101 13.1023 127.248 13.006 127.418 13.006H127.469C127.605 12.87 127.741 12.785 127.877 12.751C127.968 12.6377 128.115 12.547 128.319 12.479L128.353 12.462L128.438 12.564L128.472 12.241L128.812 12.02L128.999 11.816C129.079 11.7027 129.141 11.646 129.186 11.646C129.209 11.6687 129.22 11.6857 129.22 11.697L129.322 11.51L129.713 11.119C129.725 11.0963 129.753 11.0623 129.798 11.017L129.135 10.252L129.101 10.048L128.999 9.98L128.982 9.572L128.795 9.385V8.96L128.353 7.974L128.387 7.804L128.251 7.566L128.217 7.379L128.132 7.26L128.013 6.954L127.707 6.716L127.571 6.155L127.333 5.951L127.299 5.696C127.027 5.61667 126.891 5.38433 126.891 4.999C126.891 4.67033 127.135 4.41533 127.622 4.234C128.246 4.65333 128.614 5.07267 128.727 5.492L128.778 5.883C128.801 5.87167 128.829 5.86033 128.863 5.849C128.909 5.83767 128.96 5.82633 129.016 5.815V5.968L129.288 6.172L129.186 6.444L129.22 6.648L129.373 7.056L129.458 7.141L129.475 7.294L129.611 7.362V7.651L129.798 8.314L129.832 8.569L130.104 9.113L130.325 9.776L130.58 10.048H130.614C130.66 10.048 130.699 10.0027 130.733 9.912L130.869 9.861L130.818 9.725C130.852 9.657 130.892 9.623 130.937 9.623C130.96 9.623 130.994 9.60033 131.039 9.555C131.085 9.49833 131.119 9.48133 131.141 9.504L131.158 9.232C131.181 9.232 131.221 9.198 131.277 9.13C131.334 9.062 131.408 8.99967 131.498 8.943L131.719 8.62L131.855 8.28L132.025 8.144L132.127 7.923L132.195 7.872L132.161 7.651L132.348 7.566L132.382 7.481C132.382 7.447 132.411 7.38467 132.467 7.294L132.586 6.988L132.671 7.09L132.739 7.056V7.005C132.739 6.85767 132.802 6.733 132.926 6.631V6.597L133.045 6.376L133.13 6.002L133.249 5.968L133.47 5.441L133.623 5.237C133.657 5.067 133.737 4.93667 133.861 4.846L134.014 4.37L134.133 4.217V3.86H134.218C134.286 3.81467 134.349 3.75233 134.405 3.673C134.462 3.59367 134.513 3.52 134.558 3.452C134.604 3.37267 134.643 3.30467 134.677 3.248C134.711 3.18 134.74 3.13467 134.762 3.112L134.847 3.061L135.323 2.772L135.697 3.282Z" fill="#EFBB45"/>
</svg>
