<svg width="237" height="16" viewBox="0 0 237 16" fill="none" xmlns="http://www.w3.org/2000/svg">
<path d="M8.29322 4.384L8.48522 4.432L8.61322 4.864L8.82122 5.104L8.98122 5.328C8.99189 5.38133 9.01322 5.42933 9.04522 5.472C9.07722 5.504 9.11455 5.54133 9.15722 5.584V5.632H9.20522C9.30122 5.74933 9.38655 5.904 9.46122 6.096L9.57322 6.288L9.65322 6.4L9.90922 6.832L10.1012 6.944V7.136L10.1812 7.248L10.2132 7.424L10.4372 7.824L10.5812 8.16L10.5972 8.336L10.7412 8.544L10.7252 8.8L10.7892 8.96L10.9012 8.864L11.5092 8.992L11.6372 8.848L12.0532 9.008L12.0692 9.088L12.0052 9.376L12.0532 9.408L12.1492 9.44L11.9732 9.6L11.9252 9.776L11.9412 9.808C11.9519 9.97867 11.9359 10.1227 11.8932 10.24C11.8612 10.3573 11.8186 10.4533 11.7652 10.528L11.7972 10.912L11.8132 11.2L11.6052 11.552L11.6212 11.84L11.5412 12.128L11.1572 12.816L11.0612 12.88L10.9012 12.288L10.8852 11.952C10.8106 11.8453 10.7892 11.6747 10.8212 11.44L10.7732 11.376L10.8052 11.264L10.6932 11.04L10.8372 10.816L10.7412 10.704L10.8532 10.544C10.7679 10.352 10.7252 10.192 10.7252 10.064L10.1652 9.984L10.1812 9.936H10.1492L10.1972 9.856C10.1119 9.888 10.0266 9.904 9.94122 9.904H9.26922C9.19455 9.904 9.11455 9.88267 9.02922 9.84C9.00789 9.84 8.94389 9.82933 8.83722 9.808L8.70922 9.936L8.10122 9.824L7.97322 9.904H7.62122L7.09322 9.84L6.27722 9.936L5.82922 9.824L4.86922 9.936C4.78389 9.936 4.63455 9.94133 4.42122 9.952C4.20789 9.952 4.02122 9.952 3.86122 9.952C3.79722 9.952 3.74388 9.968 3.70122 10C3.66922 10.0213 3.64255 10.0213 3.62122 10L3.38122 9.968L2.91722 10.048L2.96522 10.096C2.87988 10.0853 2.81588 10.0747 2.77322 10.064C2.74122 10.064 2.71455 10.064 2.69322 10.064C2.62922 10.064 2.55455 10.0533 2.46922 10.032C2.38388 10.0213 2.32522 10.0427 2.29322 10.096L1.97322 10.176L1.82922 10.112C1.82922 10.1867 1.81322 10.2613 1.78122 10.336C1.75988 10.4213 1.72788 10.5067 1.68522 10.592L1.76522 10.768L1.66922 10.864L1.81322 11.104L1.73322 11.312L1.76522 11.44L1.71722 11.504C1.71722 11.6213 1.71188 11.7173 1.70122 11.792C1.70122 11.8667 1.67455 11.9413 1.62122 12.016L1.50922 12.352L1.15722 12.912L1.06122 12.848L0.869218 12.112L0.821218 11.824L0.869218 11.536L0.661218 11.2L0.709218 10.912L0.773218 10.512C0.655885 10.3733 0.607885 10.1333 0.629218 9.792L0.645218 9.776C0.634552 9.73333 0.623885 9.696 0.613218 9.664C0.613218 9.632 0.613218 9.59467 0.613218 9.552L0.485218 9.2L0.997218 8.944H1.26922L1.78122 9.024L1.92522 8.8C1.99988 8.74667 2.03188 8.67733 2.02122 8.592C2.02122 8.50667 2.04255 8.43733 2.08522 8.384L2.27722 8.32L2.24522 8.112L2.48522 7.744C2.49588 7.72267 2.50655 7.70667 2.51722 7.696C2.52789 7.67467 2.53322 7.65333 2.53322 7.632V7.584L2.58122 7.456L2.74122 7.328L2.83722 7.072V6.896L3.02922 6.88L3.04522 6.624L3.17322 6.528L3.20522 6.432C3.39722 6.31467 3.49322 6.23467 3.49322 6.192L3.65322 5.872L3.78122 5.6L3.97322 5.344L4.10122 5.12L4.26122 4.944L4.40522 4.672L4.64522 4.4L4.72522 4.352V4.144L4.77322 4.128L4.80522 4C4.89055 3.89333 4.95989 3.77067 5.01322 3.632C5.06655 3.48267 5.10922 3.376 5.14122 3.312L5.15722 3.072L5.25322 2.848L5.33322 2.816V2.592H5.36522L5.47722 2.384L5.41322 1.904L5.54122 1.616C5.62655 1.552 5.73322 1.504 5.86122 1.472C5.99989 1.42933 6.10655 1.408 6.18122 1.408C6.30922 1.408 6.40522 1.43467 6.46922 1.488C6.51189 1.50933 6.57055 1.61067 6.64522 1.792C6.73055 1.97333 6.85855 2.192 7.02922 2.448L7.15722 2.784L7.33322 2.992L7.60522 3.344L7.87722 3.68L7.89322 3.792L8.27722 4.224L8.29322 4.384ZM3.81322 7.904L3.71722 7.984C3.67455 8.00533 3.64789 8.04267 3.63722 8.096C3.63722 8.14933 3.62655 8.19733 3.60522 8.24L3.47722 8.544L3.42922 8.832L3.78122 8.816L4.13322 8.88H4.48522L4.78922 8.832H5.47722C5.56255 8.832 5.64789 8.82133 5.73322 8.8C5.82922 8.768 5.88255 8.752 5.89322 8.752H6.02122C6.03189 8.752 6.05855 8.752 6.10122 8.752C6.15455 8.74133 6.20789 8.73067 6.26122 8.72C6.31455 8.70933 6.36255 8.69867 6.40522 8.688C6.44789 8.67733 6.46922 8.672 6.46922 8.672L6.98122 8.752L7.26922 8.688L7.79722 8.752L8.50122 8.784C8.53322 8.77333 8.58655 8.768 8.66122 8.768C8.82122 8.768 8.94389 8.78933 9.02922 8.832L9.22122 8.864C9.21055 8.77867 9.19989 8.704 9.18922 8.64C9.17855 8.56533 9.16255 8.49067 9.14122 8.416C9.11989 8.384 9.09322 8.34667 9.06122 8.304C9.03989 8.25067 9.02922 8.19733 9.02922 8.144L8.80522 7.744L8.78922 7.584L8.59722 7.216L8.56522 7.008L8.32522 6.672L8.02122 6.032L7.70122 5.472L7.36522 5.04C7.32255 5.01867 7.29055 4.97067 7.26922 4.896C7.24789 4.82133 7.22122 4.74133 7.18922 4.656L7.02922 4.608L6.98122 4.432L6.62922 4.144C6.60789 4.112 6.58122 4.05867 6.54922 3.984C6.52789 3.90933 6.48522 3.84533 6.42122 3.792L6.34122 3.712L6.21322 3.776L6.18122 3.968L5.89322 4.4L5.54122 4.944L5.42922 5.152L5.34922 5.328L5.10922 5.6L4.93322 6.016L4.62922 6.368L4.40522 6.816L4.30922 6.96C4.27722 7.09867 4.22922 7.18933 4.16522 7.232C4.11189 7.27467 4.06389 7.35467 4.02122 7.472L3.81322 7.904ZM18.8958 6.256L18.7998 6.544C18.7998 6.82133 18.7838 7.04 18.7518 7.2L18.6558 7.36V7.536L18.5758 7.648L18.5278 7.872L18.3518 8.048L18.2398 8.448L18.1118 8.496L18.0478 8.672L17.8558 8.784L17.7278 9.056L17.5358 9.152L17.5198 9.344L17.2158 9.456C17.0771 9.648 16.9065 9.77067 16.7038 9.824L16.6398 9.84C16.4905 10.064 16.2931 10.176 16.0478 10.176C15.9411 10.24 15.8185 10.272 15.6798 10.272L15.5198 10.384L15.3598 10.432L15.1518 10.592L14.9438 10.576L14.7198 10.64L14.4478 10.528L13.7598 10.48L13.5198 10.112L13.1678 9.744L13.2478 9.488L13.0078 8.944L13.1198 8.736L13.0398 8.352L13.1198 8.112C13.0985 7.96267 13.0878 7.856 13.0878 7.792C13.0878 7.58933 13.1411 7.44 13.2478 7.344C13.2585 7.23733 13.3278 7.06133 13.4558 6.816H13.5358L13.5038 6.704L13.5518 6.48V6.24C13.6371 6.144 13.6851 6.08 13.6958 6.048L13.6478 5.824V5.76C13.7225 5.61067 13.7598 5.456 13.7598 5.296L14.0958 4.832C14.0958 4.832 14.1065 4.82133 14.1278 4.8C14.1598 4.77867 14.1865 4.75733 14.2078 4.736L14.1918 4.672H14.2558L14.4958 4.4L14.5118 4.032L14.9118 3.888C15.0611 3.792 15.1571 3.632 15.1998 3.408H15.4078C15.5251 3.344 15.6318 3.312 15.7278 3.312C15.8238 3.312 15.9145 3.33333 15.9998 3.376L16.1758 3.392L16.5918 3.232L16.8158 3.44L16.9918 3.552H17.1198L17.3598 3.68H17.4878C17.6265 3.808 17.7865 3.984 17.9678 4.208L17.9998 4.288L18.1118 4.352L18.4478 4.784L18.7518 5.536V5.696L18.8958 6.256ZM17.8398 6.64L17.8238 6.56C17.7491 6.48533 17.7065 6.40533 17.6958 6.32L17.7438 6.24L17.5998 5.936L17.6318 5.632L17.5678 5.552C17.4291 5.44533 17.3545 5.36 17.3438 5.296C17.2478 5.25333 17.1998 5.14667 17.1998 4.976L17.1038 4.96L16.9118 4.64L16.7678 4.528L16.4318 4.4L16.3038 4.368C16.2398 4.368 16.1971 4.34667 16.1758 4.304L15.8558 4.656L15.6478 5.104L15.3118 5.28L15.2638 5.456L15.1038 5.536L15.0398 5.952L14.8478 6.048C14.8051 6.19733 14.7838 6.336 14.7838 6.464L14.5278 6.704L14.6078 6.752C14.6078 6.88 14.5598 6.992 14.4638 7.088C14.4318 7.184 14.3891 7.29067 14.3358 7.408V7.536L14.2878 7.6L14.3038 7.792L14.1278 8.224L14.1598 8.304V8.752L14.0958 8.976L14.1118 9.2L14.2558 9.408L14.4798 9.488L14.5598 9.52L14.6878 9.456L15.1038 9.488L15.1678 9.328H15.2318C15.2958 9.328 15.3331 9.344 15.3438 9.376L15.4878 9.328L15.6158 9.376L15.8238 9.232L15.8558 9.184L15.9998 9.152C16.0745 9.03467 16.2505 8.91733 16.5278 8.8L16.5598 8.72L16.8798 8.496L17.0558 8.24L17.3118 8.112L17.3278 8.032L17.4078 7.856V7.648L17.5998 7.488L17.6638 7.376L17.7438 7.28C17.7011 7.152 17.6798 7.06133 17.6798 7.008C17.6798 6.912 17.7118 6.81067 17.7758 6.704L17.8398 6.64ZM21.4056 7.36L21.3736 7.648L21.2456 7.888C21.3523 8.02667 21.3896 8.18667 21.3576 8.368L21.7576 8.768C21.7896 8.90667 21.795 9.01333 21.7736 9.088L21.7416 9.12L22.3976 9.152C22.4616 9.16267 22.5256 9.15733 22.5896 9.136C22.6643 9.11467 22.7283 9.072 22.7816 9.008L23.1336 9.168L23.4376 9.12L23.5816 9.072L24.0456 8.752L24.1896 8.784L24.3656 8.64L24.5736 8.576L24.5896 8.416L24.9576 8.176L25.1656 7.92L25.2776 7.888L25.2296 7.776L25.4536 7.296V7.136L25.5496 6.64L25.5816 6.608L25.5496 6.496C25.4963 6.464 25.4536 6.42133 25.4216 6.368C25.3896 6.304 25.363 6.24 25.3416 6.176C25.331 6.112 25.3203 6.05867 25.3096 6.016C25.3096 5.97333 25.3043 5.952 25.2936 5.952C25.2616 5.96267 25.219 5.94133 25.1656 5.888C25.123 5.83467 25.0696 5.77067 25.0056 5.696C24.9416 5.62133 24.867 5.552 24.7816 5.488C24.707 5.41333 24.6216 5.36 24.5256 5.328C24.4616 5.31733 24.3816 5.30667 24.2856 5.296C24.2003 5.27467 24.1043 5.25333 23.9976 5.232L23.9016 5.264L23.6296 5.248L23.4216 5.408L23.2776 5.376L23.1176 5.488L22.6856 5.776C22.6536 5.79733 22.611 5.85067 22.5576 5.936C22.5043 6.02133 22.435 6.07467 22.3496 6.096C22.2856 6.18133 22.2163 6.27733 22.1416 6.384C22.0776 6.49067 22.0083 6.53333 21.9336 6.512L21.7256 6.864L21.6296 7.104L21.4056 7.36ZM24.7496 1.552L24.5896 1.568L24.3976 1.712L24.1896 1.824C24.1363 1.87733 24.0883 1.90933 24.0456 1.92C24.003 1.93067 23.939 1.984 23.8536 2.08C23.5763 2.21867 23.4003 2.40533 23.3256 2.64L22.9096 2.864L22.8776 3.184L22.5896 3.168L22.2056 3.792C22.1203 3.888 22.0776 3.94133 22.0776 3.952L22.0136 4.08L21.6456 4.752L21.5656 4.848L21.4696 5.296L21.3416 5.424L21.3256 5.664L21.2296 5.952L21.2136 6.16L21.3896 5.968L21.7096 5.68L21.8696 5.408L22.2056 5.232L22.3496 4.944L22.7336 4.704L23.1656 4.4L23.6936 4.304L23.7896 4.224L24.2216 4.288L24.8776 4.192L25.6616 4.64L26.0776 5.168L26.1416 5.184C26.2056 5.216 26.2536 5.26933 26.2856 5.344C26.3176 5.408 26.339 5.48267 26.3496 5.568C26.371 5.65333 26.387 5.73867 26.3976 5.824C26.419 5.90933 26.4456 5.97867 26.4776 6.032L26.4456 6.176L26.6536 6.496C26.675 6.58133 26.6803 6.72533 26.6696 6.928C26.6696 7.12 26.6536 7.25867 26.6216 7.344C26.6003 7.376 26.579 7.41333 26.5576 7.456C26.5363 7.488 26.5096 7.53067 26.4776 7.584L26.4456 7.856L26.1896 8.208L26.1256 8.432L25.9336 8.608L25.7736 8.96L25.5176 9.104L25.3256 9.312L25.1016 9.376L24.9576 9.584H24.7656C24.7123 9.648 24.6483 9.70133 24.5736 9.744C24.499 9.78667 24.4296 9.824 24.3656 9.856C24.355 9.86667 24.3123 9.88267 24.2376 9.904C24.1736 9.91467 24.0936 9.94133 23.9976 9.984L23.6456 10.192L23.4536 10.128C23.2936 10.256 23.107 10.2987 22.8936 10.256L22.8456 10.352L22.3016 10.256L22.2696 10.272C22.2376 10.2933 22.195 10.3147 22.1416 10.336C22.099 10.3573 22.0456 10.3893 21.9816 10.432L21.7256 10.256L21.2456 10.096L21.1976 10.144L20.8936 10.112L20.6216 9.68L20.2696 9.152L20.1576 8.48L19.9976 7.984L20.0296 7.744L19.8856 7.504L20.0296 7.312L19.9816 7.2L20.0136 7.008L19.9496 6.736C19.9603 6.69333 19.987 6.65067 20.0296 6.608C20.0723 6.56533 20.0936 6.53333 20.0936 6.512C20.019 6.37333 20.0136 6.21333 20.0776 6.032L20.1096 5.712L20.1896 5.6L20.2376 5.392V5.216L20.3336 5.072L20.4616 4.464L20.7016 4.08L20.7176 4.016C20.7496 3.93067 20.787 3.86133 20.8296 3.808C20.883 3.75467 20.9416 3.70133 21.0056 3.648L21.0856 3.568L21.1016 3.36C21.2723 3.27467 21.3896 3.14667 21.4536 2.976C21.4536 2.95467 21.4536 2.928 21.4536 2.896C21.4536 2.864 21.4643 2.82133 21.4856 2.768H21.6456L21.9336 2.416L22.0616 2.064L22.1576 2.112L22.3816 2.016L22.5576 1.76L22.7816 1.712L22.8616 1.488L23.0216 1.456L23.0056 1.312L23.2296 1.184L23.2936 1.216L23.3256 1.12L23.5496 1.056C23.635 1.00267 23.7096 0.970667 23.7736 0.96C23.8483 0.938666 23.9176 0.911999 23.9816 0.879999L24.1896 0.768L24.4136 0.559999L24.7176 0.592L24.8616 0.431999L25.6616 0.24L25.9656 0.304C26.083 0.335999 26.163 0.378666 26.2056 0.431999C26.3656 0.623999 26.371 0.8 26.2216 0.96C26.1576 1.01333 26.0883 1.05067 26.0136 1.072C25.9496 1.08267 25.859 1.08267 25.7416 1.072L25.5656 1.2L25.3256 1.232L25.2136 1.28L24.8456 1.424L24.7496 1.552ZM34.1947 3.52L34.0347 3.728L34.1627 4.112L33.9547 4.352L33.8747 4.688L33.8267 4.768L33.8587 4.848C33.8587 4.99733 33.8214 5.10933 33.7467 5.184L33.7147 5.232V5.296C33.7467 5.37067 33.7627 5.44 33.7627 5.504C33.7627 5.55733 33.7574 5.59467 33.7467 5.616L33.7627 5.68L33.6987 5.856L33.7467 6.048L33.6187 6.176L33.6667 6.4L33.7627 6.512L33.6187 6.64V6.896L33.5067 7.152L33.5867 7.408L33.4907 7.536L33.6507 7.648L33.4267 8.016L33.4107 8.064L33.5707 8.096L33.4587 8.464V8.528C33.4587 8.60267 33.4534 8.66133 33.4427 8.704L33.4587 8.752L33.7147 8.784L33.9227 9.104L33.8107 9.344L33.9867 9.328C34.0507 9.456 34.0881 9.568 34.0987 9.664L33.8587 9.904C33.7841 9.97867 33.6774 10.0533 33.5387 10.128L33.2667 10.272L33.1867 10.192L33.0267 10.288L32.5307 9.712V9.44C32.4667 9.22667 32.4347 9.02933 32.4347 8.848V8.752L32.3387 7.808L32.4667 7.136L32.3707 6.752L32.0987 7.2L31.9547 7.616L31.8267 7.68L31.6027 8.032L31.2027 8.4L31.0907 8.592L30.7387 8.896L30.6587 9.104L30.1467 9.424L29.6027 10.032L29.2987 10.096L29.0907 10.256C28.8241 10.2453 28.6214 10.144 28.4827 9.952C28.0027 9.71733 27.7521 9.38133 27.7307 8.944L27.8107 8.896L27.7947 8.8L27.7787 8.608L27.6827 8.4L27.7787 8.176L27.8107 7.84L27.9227 7.312C27.9227 7.30133 27.9227 7.28 27.9227 7.248C27.9121 7.22667 27.9067 7.20533 27.9067 7.184C27.9067 7.14133 27.9174 7.088 27.9387 7.024C27.9281 7.00267 27.9227 6.96 27.9227 6.896C27.9227 6.82133 27.9547 6.69867 28.0187 6.528L28.1307 6.48C28.0667 6.42667 28.0347 6.368 28.0347 6.304C28.0347 6.26133 28.0401 6.22933 28.0507 6.208C28.0401 6.176 28.0347 6.13867 28.0347 6.096C28.0347 5.968 28.0987 5.872 28.2267 5.808C28.2587 5.70133 28.3174 5.59467 28.4027 5.488L28.3227 5.36L28.5147 5.12V5.056C28.5147 4.85333 28.5841 4.66667 28.7227 4.496L28.7067 4.208L28.7707 4.144C28.7707 4.13333 28.7707 4.11733 28.7707 4.096C28.7601 4.07467 28.7547 4.05867 28.7547 4.048C28.7547 3.984 28.7761 3.93067 28.8187 3.888V3.792C28.8614 3.68533 28.9734 3.52533 29.1547 3.312C29.3361 3.09867 29.4694 2.912 29.5547 2.752L29.6347 2.832L29.8107 2.752L29.8907 2.72L30.4187 2.48L31.6507 2.544V2.656L32.0347 2.736C32.2801 2.736 32.4401 2.816 32.5147 2.976C32.5147 2.944 32.5201 2.90667 32.5307 2.864C32.5307 2.832 32.5307 2.81067 32.5307 2.8L32.8667 3.104L33.1707 3.168L33.7467 3.024L33.9547 3.424L34.1947 3.52ZM32.6747 4.352L32.6107 4.24L32.4827 4.208L31.9867 3.808L31.6667 3.76H31.4107L31.3787 3.728L31.2507 3.776L31.1067 3.696H30.6907L30.7387 3.76L30.3707 3.888L30.3067 3.968L30.2587 3.984C30.0667 4.144 29.9334 4.27733 29.8587 4.384L29.7467 4.768L29.6827 4.912L29.8427 5.136L29.5707 5.344L29.6027 5.408C29.4854 5.61067 29.4267 5.808 29.4267 6L29.2987 6.16V6.448L29.1707 6.592L29.1387 6.736L29.0907 6.768V6.992L29.0427 7.072C29.0427 7.2 29.0321 7.30133 29.0107 7.376L29.0427 7.456L28.8987 7.76L28.9627 7.856L28.8507 8.016L28.9627 8.32L28.7867 8.544L28.8187 8.848V8.896L28.8827 8.928L28.9627 8.912C29.0161 8.85867 29.0694 8.81067 29.1227 8.768L29.0907 8.64L29.3147 8.608L29.3627 8.496L30.3067 7.728L30.4027 7.696L30.5147 7.424C30.5787 7.40267 30.6694 7.36 30.7867 7.296L30.8827 7.04H31.0107L30.9627 6.768L31.1867 6.736C31.2081 6.69333 31.2401 6.64 31.2827 6.576C31.3361 6.512 31.3894 6.45333 31.4427 6.4L32.2587 5.312L32.3867 5.072L32.3707 5.008L32.4827 4.832L32.5147 4.656L32.6587 4.528L32.6747 4.352ZM38.4148 8.432L38.4468 8.608L38.3348 8.848L38.3508 8.928L38.3988 8.944L38.4308 9.168L38.7508 9.216L39.0708 9.104L39.3588 9.088C39.4228 9.13067 39.4655 9.15733 39.4868 9.168C39.5188 9.168 39.5562 9.16267 39.5988 9.152L39.8548 9.024L40.2548 9.04L40.6708 8.912L41.0228 8.768L41.2308 8.784L41.4228 8.624L41.5988 8.592C41.6628 8.592 41.7375 8.58667 41.8228 8.576C41.9082 8.55467 41.9935 8.53333 42.0788 8.512C42.1642 8.49067 42.2442 8.464 42.3188 8.432C42.3935 8.38933 42.4522 8.34133 42.4948 8.288L42.6228 8.128L42.9428 8.032L43.0388 7.856L43.1188 7.776L43.0708 7.744L42.8308 7.712L42.7828 7.632H42.7028L42.3668 7.488L42.0948 7.52L41.9668 7.408L41.6628 7.44C41.5988 7.376 41.5348 7.33867 41.4708 7.328C41.3855 7.38133 41.3055 7.408 41.2308 7.408C41.1775 7.39733 41.0975 7.36533 40.9908 7.312C40.9055 7.312 40.8415 7.312 40.7988 7.312C40.7668 7.30133 40.7028 7.29067 40.6068 7.28L40.4308 7.264C40.3455 7.24267 40.2708 7.24267 40.2068 7.264C40.1535 7.28533 40.0948 7.296 40.0308 7.296C39.9988 7.296 39.9562 7.29067 39.9028 7.28C39.8602 7.25867 39.8122 7.25333 39.7588 7.264L39.4388 7.296L39.2148 7.136L39.1988 7.232L38.7188 7.216L38.5588 7.152C38.3882 7.152 38.3028 7.232 38.3028 7.392V7.552V7.68L38.3828 7.728L38.3028 7.952L38.3348 8.048L38.3028 8.256L38.4148 8.432ZM44.4468 8.064L44.1908 8.288L44.1268 8.48L43.9508 8.512L43.7588 8.8L43.4228 8.864L43.1348 9.072L43.0228 9.12L42.7988 9.36L42.4308 9.328L42.2708 9.456L42.0628 9.424C41.9668 9.488 41.8868 9.54667 41.8228 9.6C41.7588 9.65333 41.6628 9.69067 41.5348 9.712L41.4228 9.648L41.0068 9.952L40.8468 9.872L40.7348 9.936L40.4788 9.872L40.3828 9.936L40.1108 9.968L39.9028 9.92L39.6468 10.144L39.3428 10.112V10.128C39.3322 10.1387 39.2735 10.16 39.1668 10.192L39.0868 10.096C38.9482 10.2027 38.7882 10.256 38.6068 10.256H38.5268C38.4948 10.2453 38.4682 10.24 38.4468 10.24L38.2068 10.496L37.9348 10.576L37.6948 10.448L37.5188 10.304L37.3908 10.16L37.2948 10.08C37.2948 10.0587 37.2948 10.0213 37.2948 9.968C37.2948 9.91467 37.2468 9.76533 37.1508 9.52L37.1668 9.248L37.1348 8.928L37.2148 8.688L37.1668 8.368L37.2788 8.144L37.2148 7.952L37.2628 7.632L37.1508 7.28L37.1348 7.232C36.8148 7.06133 36.6335 6.90667 36.5908 6.768C36.6122 6.65067 36.6602 6.576 36.7348 6.544C36.8095 6.50133 36.9055 6.44267 37.0228 6.368L37.1828 6.272L37.0868 6L37.1988 5.952L37.1348 5.728L37.1828 5.52L37.1028 5.296L37.1348 5.184L37.1188 4.992L36.9428 4.64L36.9748 4.496L36.8948 4.432L36.9268 4.24L36.8468 4.128L36.7508 3.92L36.7348 3.904L36.5748 4.032L36.4148 3.936L36.2548 4.032L36.2068 3.968L35.9508 4.128L35.8068 3.904L35.5188 4.08C35.0282 3.80267 34.7828 3.552 34.7828 3.328C34.7828 3.136 34.8842 3.024 35.0868 2.992C35.1935 2.832 35.3375 2.752 35.5188 2.752H35.5668L35.7268 2.816H35.7588C35.9722 2.816 36.1588 2.82133 36.3188 2.832C36.4788 2.832 36.6068 2.84267 36.7028 2.864C36.7882 2.84267 36.8628 2.832 36.9268 2.832C37.0015 2.82133 37.0708 2.816 37.1348 2.816L37.2148 2.864L37.3108 2.832L37.7268 2.992L38.0948 3.088C38.1268 3.07733 38.2015 3.072 38.3188 3.072C38.3828 3.072 38.4362 3.07733 38.4788 3.088C38.5215 3.088 38.5588 3.09333 38.5908 3.104L38.7508 3.072C38.8895 3.08267 39.0228 3.12533 39.1508 3.2L39.2628 3.264C39.4335 3.30667 39.5668 3.328 39.6628 3.328L40.0148 3.264L40.0788 3.344C40.2068 3.344 40.3188 3.39733 40.4148 3.504H40.8468L41.0228 3.68C41.0868 3.70133 41.1455 3.71733 41.1988 3.728C41.2522 3.73867 41.3002 3.744 41.3428 3.744L41.6308 3.84L41.7588 3.952H42.0948L42.1748 4.16L42.4788 4.352L42.5908 4.8L42.3508 5.232C42.2335 5.34933 42.1268 5.44 42.0308 5.504C41.9348 5.568 41.8282 5.616 41.7108 5.648L41.4708 5.792L41.3588 5.76L41.0708 6H40.8948L40.4788 6.176L40.1908 6.208C40.0842 6.25067 39.9988 6.288 39.9348 6.32C39.8815 6.34133 39.8228 6.36267 39.7588 6.384C39.7055 6.40533 39.6415 6.42667 39.5668 6.448C39.5028 6.46933 39.4068 6.50133 39.2788 6.544V6.576C39.3002 6.576 39.3588 6.57067 39.4548 6.56C39.5508 6.54933 39.6522 6.53867 39.7588 6.528C39.8762 6.51733 39.9828 6.50667 40.0788 6.496C40.1748 6.48533 40.2388 6.48 40.2708 6.48C40.3882 6.45867 40.5108 6.43733 40.6388 6.416C40.7668 6.39467 40.8522 6.41067 40.8948 6.464C40.9802 6.42133 41.0548 6.4 41.1188 6.4C41.3002 6.45333 41.4122 6.48 41.4548 6.48C41.4975 6.48 41.5402 6.48 41.5828 6.48C41.6255 6.48 41.6788 6.46933 41.7428 6.448C41.8068 6.48 41.8975 6.50133 42.0148 6.512C42.1322 6.512 42.2815 6.512 42.4628 6.512L42.5908 6.592C42.7188 6.61333 42.8362 6.62933 42.9428 6.64C43.0495 6.64 43.1455 6.66133 43.2308 6.704H43.4708C43.5242 6.75733 43.6042 6.79467 43.7108 6.816C43.8282 6.83733 43.9188 6.87467 43.9828 6.928C44.0148 6.94933 44.0575 6.98133 44.1108 7.024C44.1748 7.056 44.2495 7.11467 44.3348 7.2C44.4842 7.328 44.5588 7.46133 44.5588 7.6L44.5428 7.776L44.4468 8.064ZM41.3588 4.672H41.1988L41.0548 4.592L40.8468 4.544L40.6868 4.656L40.3828 4.432L40.1428 4.368L40.0468 4.416L39.9188 4.272H39.8548C39.7482 4.272 39.5828 4.256 39.3588 4.224L39.0228 4.272L38.8468 4.112L38.6868 4.144L38.6388 4.128L38.5428 4.192L38.2708 4.096L38.2068 4.128V4.48L38.3028 4.752L38.2228 4.976L38.3028 5.152L38.2868 5.456L38.3668 5.696L38.2708 5.936L38.3188 6.096L38.5428 6.08C38.5642 6.06933 38.5962 6.05867 38.6388 6.048C38.6815 6.02667 38.7242 5.98933 38.7668 5.936L38.8308 5.904L38.9268 5.968L38.9748 5.856L39.3748 5.648C39.5242 5.60533 39.6255 5.57867 39.6788 5.568C39.7428 5.55733 39.7962 5.52533 39.8388 5.472L40.0628 5.408L40.1428 5.392C40.2815 5.30667 40.4415 5.25333 40.6228 5.232L40.6868 5.184C40.7082 5.184 40.7508 5.16267 40.8148 5.12L41.0548 4.992H41.0868C41.1402 4.94933 41.1935 4.912 41.2468 4.88C41.3108 4.83733 41.3802 4.80533 41.4548 4.784L41.3588 4.672ZM47.0339 8.4L47.0659 8.592L47.1299 8.992L47.1619 9.184L47.2099 9.232L47.4339 9.296H47.6419L47.9939 9.232H48.4419L48.9379 9.2L49.0979 8.96L49.2419 9.04L49.3699 8.912L49.5139 8.832L49.7379 8.768L49.7859 8.752L49.8499 8.528L50.1059 8.464L50.3139 8.352L50.4899 8.08L50.7459 7.888L50.8419 7.616L51.0019 7.472L51.0659 7.296L50.9859 6.88L50.9379 6.848L50.7619 6.608L50.4739 6.496C50.4846 6.496 50.4686 6.464 50.4259 6.4C50.3939 6.32533 50.3566 6.29867 50.3139 6.32L50.1219 6.272L49.8179 6.096L49.6899 6.144H49.5619C49.4873 6.18667 49.4073 6.208 49.3219 6.208C49.3006 6.208 49.2739 6.192 49.2419 6.16C49.2206 6.128 49.1939 6.10133 49.1619 6.08C49.1299 6.09067 49.0713 6.10667 48.9859 6.128C48.9006 6.14933 48.7939 6.16 48.6659 6.16C48.6233 6.14933 48.5646 6.14933 48.4899 6.16C48.4153 6.16 48.3726 6.16 48.3619 6.16C48.3193 6.192 48.2873 6.208 48.2659 6.208C48.2553 6.208 48.2233 6.208 48.1699 6.208C48.1273 6.208 48.0739 6.24 48.0099 6.304C47.9566 6.35733 47.9139 6.38933 47.8819 6.4L47.5459 6.32L47.2099 6.4L47.1619 6.88L47.1299 7.408L47.1139 7.664L47.2579 8.176L47.0339 8.4ZM46.0579 5.328C46.0686 5.296 46.0739 5.21067 46.0739 5.072C46.0739 4.944 46.0633 4.82667 46.0419 4.72L46.0739 4.608L45.9459 4.464C45.9566 4.4 45.9939 4.34667 46.0579 4.304L45.9779 4.192C46.0099 4.128 46.0259 4.064 46.0259 4C46.0259 3.91467 45.9886 3.81867 45.9139 3.712C45.9139 3.62667 45.9299 3.54133 45.9619 3.456L45.8979 3.296L45.9779 3.12L45.7219 2.576L45.9779 2.528V2.496L46.5379 2.208L46.8259 2.544L46.8579 2.704L47.0979 2.88L47.0819 3.12C47.0819 3.16267 47.0766 3.216 47.0659 3.28C47.0659 3.33333 47.0606 3.39733 47.0499 3.472C47.1246 3.54667 47.1619 3.616 47.1619 3.68C47.1619 3.69067 47.1513 3.728 47.1299 3.792L47.1939 3.856L47.1299 4.112L47.2419 4.4L47.2259 4.512L47.4339 4.608L47.3219 4.816L47.2259 4.912L47.1619 5.2L47.2099 5.44L47.6099 5.296L48.0099 5.328L48.1219 5.072L48.5699 5.168L48.9859 5.184L49.0979 5.136L49.3539 5.264L49.4179 5.232L49.7219 5.056L50.1539 5.136L50.3459 5.152L50.8739 5.28L50.9699 5.264C51.0553 5.31733 51.1406 5.37067 51.2259 5.424C51.3219 5.47733 51.4126 5.54667 51.4979 5.632L51.7859 5.664L51.8979 6L51.9619 6.032L52.1379 6.288L52.2339 6.56L52.3459 6.672L52.3139 7.024L52.3459 7.168C52.3246 7.264 52.2873 7.36533 52.2339 7.472C52.1806 7.57867 52.1593 7.696 52.1699 7.824L52.0259 7.712L52.0419 7.824L51.9619 7.952L51.9939 8.304L51.6579 8.144L51.6099 8.336L51.5299 8.432C51.5086 8.48533 51.4873 8.53867 51.4659 8.592C51.4446 8.63467 51.4179 8.672 51.3859 8.704L51.4339 8.816L51.1299 8.912L51.1139 8.96L50.8739 9.248L50.7139 9.536L50.5859 9.632L50.4579 9.84L50.0579 9.728L49.9939 9.824C49.9619 9.83467 49.9086 9.84 49.8339 9.84C49.7593 9.84 49.7006 9.84 49.6579 9.84L49.4339 10.064L49.3859 10.224C49.3219 10.2453 49.2579 10.288 49.1939 10.352C49.1299 10.4267 49.0606 10.464 48.9859 10.464L48.7139 10.368L48.2819 10.24L47.9779 10.416L47.9139 10.448L47.6579 10.432L47.7059 10.4L47.2739 10.464L46.9699 10.512L46.8419 10.368L46.5539 10.4C46.2873 10.3467 46.1059 10.1973 46.0099 9.952L45.9939 9.84L45.9139 9.712V9.424L45.8179 9.264L45.9459 9.072C45.9139 8.96533 45.8979 8.864 45.8979 8.768C45.8979 8.736 45.9033 8.71467 45.9139 8.704V8.144L45.9779 7.984L45.9939 7.04L46.0419 6.816L45.9619 6.72L46.1059 6.288L46.0579 6.128V5.776L46.1379 5.68L46.1219 5.456L46.0579 5.328ZM62.1214 3.44L61.7854 4.256L61.6254 4.304H61.3694L61.1294 4.336L60.9534 4.304L60.1054 4.368L59.8494 4.304L59.8014 4.32C59.7161 4.36267 59.5614 4.4 59.3374 4.432H59.0174L58.9214 4.4H58.8734C58.7667 4.4 58.6334 4.42133 58.4734 4.464C58.3454 4.496 58.1801 4.512 57.9774 4.512L57.7534 4.464L57.7214 4.624H57.5614L57.5134 5.088L57.5774 5.2L57.5614 5.408V5.76C57.5614 6.12267 57.5241 6.368 57.4494 6.496L57.5614 6.656L57.4654 7.04L57.5614 7.152L57.4014 7.376V7.488L57.3214 7.632L57.3854 7.936L57.3374 8.496L57.2574 8.752C57.2681 8.76267 57.2734 8.78933 57.2734 8.832C57.2734 8.81067 57.2574 8.86933 57.2254 9.008C57.2254 9.01867 57.2307 9.03467 57.2414 9.056V9.12C57.2414 9.216 57.2094 9.312 57.1454 9.408L57.1934 9.6C57.1934 9.67467 57.1881 9.71733 57.1774 9.728L57.1614 9.76C57.1507 9.792 57.1401 9.824 57.1294 9.856C57.1294 9.87733 57.1294 9.904 57.1294 9.936C57.1294 10.1067 57.1507 10.2507 57.1934 10.368C57.0867 10.3893 56.9747 10.4 56.8574 10.4C56.7507 10.4107 56.6867 10.416 56.6654 10.416C56.6014 10.416 56.5374 10.4053 56.4734 10.384H56.4414C56.2067 10.32 56.0894 10.1013 56.0894 9.728C56.1001 9.696 56.1054 9.632 56.1054 9.536C56.1054 9.46133 56.0947 9.36 56.0734 9.232C56.0521 9.09333 56.0414 8.99733 56.0414 8.944C56.0414 8.848 56.0574 8.768 56.0894 8.704L56.1374 8.144C56.0627 8.03733 56.0254 7.95733 56.0254 7.904C56.0254 7.91467 56.0361 7.87733 56.0574 7.792C56.0254 7.728 56.0094 7.67467 56.0094 7.632C56.0094 7.54667 56.0307 7.488 56.0734 7.456C56.0734 7.40267 56.1107 7.29067 56.1854 7.12C56.1641 7.01333 56.1534 6.93333 56.1534 6.88C56.2174 6.88 56.2494 6.848 56.2494 6.784C56.2494 6.76267 56.2387 6.736 56.2174 6.704C56.2067 6.672 56.2014 6.62933 56.2014 6.576L56.2334 6.624L56.1854 6.496C56.1854 6.31467 56.2067 6.16533 56.2494 6.048V5.664L56.1854 5.376L56.2494 4.912L56.1854 4.624L56.2014 4.496H56.0094L55.8494 4.576H55.7534V4.624C55.5507 4.624 55.3641 4.608 55.1934 4.576L55.1454 4.688L54.6174 4.512L53.9134 4.496L53.4654 4.624C53.2841 4.464 53.1454 4.304 53.0494 4.144C52.9641 3.97333 52.9214 3.85067 52.9214 3.776C52.9214 3.69067 52.9321 3.62667 52.9534 3.584L53.2574 3.312L53.5134 3.328L54.4254 3.504L54.6654 3.424L55.3534 3.44L55.8974 3.504L56.2494 3.376L56.3774 3.024L56.9214 3.152L56.9374 3.136L56.9694 3.168L57.1614 3.408H57.2094L57.4014 3.344L57.8014 3.44C58.0041 3.408 58.1587 3.38133 58.2654 3.36C58.3827 3.33867 58.4574 3.328 58.4894 3.328C58.5854 3.328 58.7027 3.35467 58.8414 3.408H59.0014C59.0547 3.408 59.1027 3.408 59.1454 3.408C59.1881 3.39733 59.2201 3.392 59.2414 3.392H59.3374L59.8014 3.328L60.2014 3.408L60.2494 3.424L60.4574 3.36L60.7454 3.424L61.4174 3.408L61.7214 3.44H62.1214ZM67.1489 8.688C67.1489 8.816 67.0529 8.976 66.8609 9.168C66.8075 9.33867 66.7275 9.47733 66.6209 9.584L66.5249 9.6L66.3489 9.904L66.0609 9.952L65.7569 10.144L65.5969 10.432L65.4209 10.4C65.3035 10.4533 65.2075 10.4853 65.1329 10.496L65.0369 10.64C65.0049 10.6293 64.9569 10.624 64.8929 10.624C64.7542 10.624 64.6209 10.72 64.4929 10.912L64.2689 10.72C64.2262 10.7307 64.1622 10.736 64.0769 10.736C63.9382 10.736 63.8209 10.7147 63.7249 10.672H63.4529L63.3249 10.592C62.9195 10.528 62.6635 10.3733 62.5569 10.128V10.08L62.3649 9.984L62.2689 9.712L62.0769 9.584V9.344L61.8849 8.64L61.9169 8.064L61.9809 7.808V7.472L62.0609 7.216L62.0449 7.104L62.1569 6.912L62.1249 6.944C62.1249 6.848 62.1515 6.74667 62.2049 6.64V6.56L62.1569 6.176C62.1569 5.99467 62.2369 5.83467 62.3969 5.696C62.4075 5.67467 62.4129 5.64267 62.4129 5.6C62.4129 5.55733 62.3915 5.472 62.3489 5.344C62.3169 5.20533 62.3009 5.10933 62.3009 5.056C62.3009 4.928 62.3329 4.79467 62.3969 4.656C62.4822 4.784 62.6049 4.848 62.7649 4.848H62.8129C62.8342 4.80533 62.8822 4.75733 62.9569 4.704C63.0422 4.43733 63.1595 4.21333 63.3089 4.032L63.3729 3.968C63.3729 3.92533 63.4049 3.80267 63.4689 3.6H63.5969L63.6289 3.52L63.7569 3.488C63.8102 3.40267 63.8422 3.35467 63.8529 3.344C63.8742 3.32267 63.9915 3.25333 64.2049 3.136C64.2475 3.06133 64.3115 2.992 64.3969 2.928C64.4395 2.90667 64.4929 2.88533 64.5569 2.864L64.6209 2.768C64.9089 2.672 65.0902 2.624 65.1649 2.624C65.2502 2.624 65.3302 2.64533 65.4049 2.688L65.4849 2.672L65.5969 2.736C65.7249 2.832 65.8529 2.912 65.9809 2.976L66.2529 3.184V3.248C66.4982 3.44 66.6209 3.712 66.6209 4.064L66.5729 4.224L66.6209 4.752L66.4769 4.848L66.3169 5.264L66.0129 5.6L65.9969 5.856C65.6555 6.10133 65.3409 6.29867 65.0529 6.448C64.9569 6.59733 64.8075 6.672 64.6049 6.672H64.5569L64.2529 6.864H63.9969L63.6129 7.024L63.3249 6.88H63.2929C63.2715 6.96533 63.2502 7.09333 63.2289 7.264L63.1009 7.36L63.0849 7.552L62.9889 7.824C63.0209 8.08 63.0369 8.24533 63.0369 8.32L62.9729 8.368C62.9729 8.50667 62.9675 8.608 62.9569 8.672C62.9569 8.68267 62.9515 8.69867 62.9409 8.72C62.9409 8.74133 62.9409 8.75733 62.9409 8.768C62.9409 8.85333 62.9835 8.92267 63.0689 8.976C63.1009 9.104 63.1542 9.184 63.2289 9.216L63.3409 9.312L63.6929 9.408V9.456L63.8209 9.488L64.3649 9.52L64.6849 9.472L64.8449 9.36L64.9409 9.328L65.1009 9.088L65.1809 9.072L65.5809 8.944C65.6235 8.86933 65.6929 8.80533 65.7889 8.752L65.8369 8.672C66.0502 8.62933 66.1729 8.51733 66.2049 8.336C66.3542 8.18667 66.5462 8.112 66.7809 8.112H66.8449C67.0475 8.34667 67.1489 8.53867 67.1489 8.688ZM65.5649 4.08C65.5649 4.048 65.5489 3.984 65.5168 3.888L65.4369 3.872L65.4049 3.888C65.3942 3.888 65.3729 3.888 65.3409 3.888C65.3195 3.89867 65.2982 3.904 65.2769 3.904C65.2662 3.904 65.2502 3.89867 65.2289 3.888C65.2075 3.888 65.1915 3.888 65.1809 3.888L65.0209 4L64.8769 4.016L64.7969 4.048L64.5249 4.4L64.3489 4.528L64.0929 4.976L63.9489 5.072C63.9169 5.25333 63.8422 5.408 63.7249 5.536L63.6609 5.648C63.7782 5.57333 63.9115 5.536 64.0609 5.536L64.1729 5.488L64.2209 5.344L64.4449 5.36L64.5729 5.168H64.6689L64.8449 5.232L64.9249 4.992H65.0369V4.816L65.2449 4.768L65.2929 4.72L65.3249 4.576L65.5329 4.272C65.5542 4.21867 65.5649 4.15467 65.5649 4.08ZM82.0457 7.36L81.9817 7.552L81.9177 7.872L81.6297 8.112L81.5657 8.32L81.3737 8.368L81.1657 8.672L80.7977 8.752L80.4777 8.976L80.0137 9.024L79.7737 9.28L79.3577 9.248L79.1817 9.392L78.9577 9.36C78.7443 9.50933 78.4937 9.61067 78.2057 9.664L78.0937 9.6L77.6297 9.936L77.4537 9.84L77.3417 9.92L77.0537 9.856L76.9417 9.92L76.6537 9.952L76.4297 9.904L76.1417 10.144L75.8057 10V10.016C75.7843 10.0373 75.7257 10.064 75.6297 10.096L75.5337 9.984C75.3843 10.1013 75.2083 10.16 75.0057 10.16C74.9843 10.16 74.9577 10.16 74.9257 10.16C74.883 10.1493 74.851 10.144 74.8297 10.144L74.5737 10.416L74.2697 10.512L74.0137 10.368L73.9497 10.08L73.5977 10.192C73.619 10.1707 73.6297 10.1547 73.6297 10.144C73.6297 10.1333 73.6297 10.1173 73.6297 10.096C73.619 10.0747 73.6137 10.0533 73.6137 10.032C73.6137 10 73.635 9.97867 73.6777 9.968L73.4217 9.456L73.4377 9.168L73.4057 8.816L73.4857 8.56L73.4377 8.208L73.5497 7.952L73.4857 7.744L73.5337 7.392C73.5017 7.27467 73.4643 7.14667 73.4217 7.008L73.4057 6.784C73.0537 6.60267 72.8563 6.432 72.8137 6.272C72.867 6.016 73.0217 5.81333 73.2777 5.664C73.2883 5.65333 73.347 5.616 73.4537 5.552L73.3417 5.2L73.4697 5.152L73.4057 4.912L73.4537 4.848L73.3577 4.608L73.4057 4.48L73.3897 4.112L73.1977 3.728L73.2297 3.568L73.1337 3.504L73.1657 3.136L73.0857 3.008L72.9737 2.624L72.9577 2.608L72.7817 2.752L72.6217 2.64L72.4457 2.752L72.3817 2.672L72.1097 2.848L71.9497 2.608L71.6297 2.8C71.0963 2.49067 70.8297 2.21867 70.8297 1.984C70.8297 1.77067 70.9417 1.64267 71.1657 1.6C71.2723 1.42933 71.427 1.344 71.6297 1.344H71.6937L71.8697 1.424L71.9017 1.408C72.371 1.408 72.7123 1.42933 72.9257 1.472C73.107 1.42933 73.267 1.408 73.4057 1.408L73.4857 1.472L73.5977 1.44L74.0457 1.6L74.9737 1.712C75.027 1.70133 75.107 1.696 75.2137 1.696C75.3523 1.696 75.4537 1.70667 75.5177 1.728L75.6937 1.696C75.875 1.71733 76.019 1.76533 76.1257 1.84L76.2537 1.904C76.467 1.94667 76.611 1.968 76.6857 1.968L77.0697 1.904L77.1497 2C77.2883 2 77.411 2.05333 77.5177 2.16L77.9817 2.176L78.1737 2.352C78.3123 2.40533 78.4297 2.432 78.5257 2.432L78.8457 2.528L78.9737 2.656H79.3417L79.4377 2.88L79.7737 3.088L79.8857 3.584L79.6297 4.048C79.395 4.31467 79.1603 4.46933 78.9257 4.512L78.6697 4.656L78.5417 4.624L78.2057 4.848C78.131 4.83733 78.067 4.832 78.0137 4.832L77.6777 4.944L77.6457 4.928L77.4377 5.2L77.1337 5.248C76.8563 5.38667 76.579 5.456 76.3017 5.456L75.9817 5.632H75.6457L75.3737 5.792L75.1657 5.824L75.7257 6L76.0457 5.952L76.5737 6.016L77.1817 5.92L77.2137 5.984C77.2883 5.97333 77.395 5.968 77.5337 5.968C77.7897 5.968 77.955 6.02133 78.0297 6.128C78.1043 6.07467 78.1897 6.048 78.2857 6.048C78.467 6.112 78.5897 6.144 78.6537 6.144C78.7283 6.144 78.8297 6.11733 78.9577 6.064C79.0963 6.13867 79.3577 6.176 79.7417 6.176L79.8857 6.256C80.1737 6.29867 80.4083 6.36267 80.5897 6.448H80.8457C80.9737 6.576 81.1177 6.64 81.2777 6.64C81.3417 6.704 81.5177 6.82667 81.8057 7.008C81.9657 7.11467 82.0457 7.232 82.0457 7.36ZM78.3497 3.712V3.584L78.3017 3.568L78.1897 3.44H78.0137L77.8537 3.36C77.7683 3.33867 77.6937 3.31733 77.6297 3.296L77.4537 3.424L77.1337 3.184L76.8617 3.104L76.7497 3.168L76.4457 3.008H76.3657C76.259 3.008 76.083 2.992 75.8377 2.96L75.4697 3.008L75.2777 2.832L75.1017 2.864L75.0377 2.848L74.9417 2.928L74.6377 2.816L74.5737 2.848V3.232L74.6857 3.536L74.5897 3.776L74.6857 4.144L74.6537 4.48L74.7497 4.736L74.6697 5.008V5.04L74.9257 5.024C74.979 5.00267 75.059 4.98133 75.1657 4.96L75.1497 5.008L75.3417 4.864L75.3737 4.736L75.7737 4.72C76.1043 4.63467 76.3177 4.53333 76.4137 4.416L76.6057 4.432L76.6857 4.368C76.8563 4.19733 77.0377 4.112 77.2297 4.112H77.2937C77.347 4.112 77.395 4.08533 77.4377 4.032L77.8697 3.904H77.9177C78.035 3.808 78.179 3.744 78.3497 3.712ZM80.6377 7.552L80.5897 7.52L80.3337 7.488L80.2697 7.408H80.1897L79.8217 7.248L79.5177 7.28L79.3737 7.152L79.0537 7.184C78.9897 7.13067 78.9203 7.09333 78.8457 7.072C78.7497 7.12533 78.659 7.152 78.5737 7.152C78.499 7.14133 78.4137 7.10933 78.3177 7.056C78.1363 7.056 77.939 7.04 77.7257 7.008L77.1817 6.992C77.0003 6.93867 76.835 6.912 76.6857 6.912C76.6217 6.912 76.5417 6.92267 76.4457 6.944L76.0937 7.024L75.8537 6.864L75.8377 6.96L75.1337 6.896C75.0377 6.832 74.979 6.78933 74.9577 6.768C74.7763 6.768 74.6857 6.85867 74.6857 7.04V7.136L74.6697 7.28L74.7657 7.504L74.6857 7.744L74.7177 7.856L74.6857 8.08L74.7977 8.272L74.8297 8.576L74.7177 8.832L74.7337 8.912L74.7817 8.944L74.8137 9.184L75.2617 9.168L75.5337 9.072L75.9977 9.088L76.1097 9.136C76.1417 9.104 76.195 9.07733 76.2697 9.056L76.5417 8.928L76.9897 8.944L77.4377 8.8L77.8217 8.64L78.0457 8.656L78.4297 8.48L78.9737 8.448C79.2403 8.43733 79.4377 8.34667 79.5657 8.176L79.7897 8.192L79.9657 8.112L80.0937 7.936L80.4457 7.84L80.5577 7.648L80.6377 7.552ZM89.3525 3.52L89.1925 3.728L89.3205 4.112L89.1125 4.352L89.0325 4.688L88.9845 4.768L89.0165 4.848C89.0165 4.99733 88.9792 5.10933 88.9045 5.184L88.8725 5.232V5.296C88.9045 5.37067 88.9205 5.44 88.9205 5.504C88.9205 5.55733 88.9152 5.59467 88.9045 5.616L88.9205 5.68L88.8565 5.856L88.9045 6.048L88.7765 6.176L88.8245 6.4L88.9205 6.512L88.7765 6.64V6.896L88.6645 7.152L88.7445 7.408L88.6485 7.536L88.8085 7.648L88.5845 8.016L88.5685 8.064L88.7285 8.096L88.6165 8.464V8.528C88.6165 8.60267 88.6112 8.66133 88.6005 8.704L88.6165 8.752L88.8725 8.784L89.0805 9.104L88.9685 9.344L89.1445 9.328C89.2085 9.456 89.2458 9.568 89.2565 9.664L89.0165 9.904C88.9418 9.97867 88.8352 10.0533 88.6965 10.128L88.4245 10.272L88.3445 10.192L88.1845 10.288L87.6885 9.712V9.44C87.6245 9.22667 87.5925 9.02933 87.5925 8.848V8.752L87.4965 7.808L87.6245 7.136L87.5285 6.752L87.2565 7.2L87.1125 7.616L86.9845 7.68L86.7605 8.032L86.3605 8.4L86.2485 8.592L85.8965 8.896L85.8165 9.104L85.3045 9.424L84.7605 10.032L84.4565 10.096L84.2485 10.256C83.9818 10.2453 83.7792 10.144 83.6405 9.952C83.1605 9.71733 82.9098 9.38133 82.8885 8.944L82.9685 8.896L82.9525 8.8L82.9365 8.608L82.8405 8.4L82.9365 8.176L82.9685 7.84L83.0805 7.312C83.0805 7.30133 83.0805 7.28 83.0805 7.248C83.0698 7.22667 83.0645 7.20533 83.0645 7.184C83.0645 7.14133 83.0752 7.088 83.0965 7.024C83.0858 7.00267 83.0805 6.96 83.0805 6.896C83.0805 6.82133 83.1125 6.69867 83.1765 6.528L83.2885 6.48C83.2245 6.42667 83.1925 6.368 83.1925 6.304C83.1925 6.26133 83.1978 6.22933 83.2085 6.208C83.1978 6.176 83.1925 6.13867 83.1925 6.096C83.1925 5.968 83.2565 5.872 83.3845 5.808C83.4165 5.70133 83.4752 5.59467 83.5605 5.488L83.4805 5.36L83.6725 5.12V5.056C83.6725 4.85333 83.7418 4.66667 83.8805 4.496L83.8645 4.208L83.9285 4.144C83.9285 4.13333 83.9285 4.11733 83.9285 4.096C83.9178 4.07467 83.9125 4.05867 83.9125 4.048C83.9125 3.984 83.9338 3.93067 83.9765 3.888V3.792C84.0192 3.68533 84.1312 3.52533 84.3125 3.312C84.4938 3.09867 84.6272 2.912 84.7125 2.752L84.7925 2.832L84.9685 2.752L85.0485 2.72L85.5765 2.48L86.8085 2.544V2.656L87.1925 2.736C87.4378 2.736 87.5978 2.816 87.6725 2.976C87.6725 2.944 87.6778 2.90667 87.6885 2.864C87.6885 2.832 87.6885 2.81067 87.6885 2.8L88.0245 3.104L88.3285 3.168L88.9045 3.024L89.1125 3.424L89.3525 3.52ZM87.8325 4.352L87.7685 4.24L87.6405 4.208L87.1445 3.808L86.8245 3.76H86.5685L86.5365 3.728L86.4085 3.776L86.2645 3.696H85.8485L85.8965 3.76L85.5285 3.888L85.4645 3.968L85.4165 3.984C85.2245 4.144 85.0912 4.27733 85.0165 4.384L84.9045 4.768L84.8405 4.912L85.0005 5.136L84.7285 5.344L84.7605 5.408C84.6432 5.61067 84.5845 5.808 84.5845 6L84.4565 6.16V6.448L84.3285 6.592L84.2965 6.736L84.2485 6.768V6.992L84.2005 7.072C84.2005 7.2 84.1898 7.30133 84.1685 7.376L84.2005 7.456L84.0565 7.76L84.1205 7.856L84.0085 8.016L84.1205 8.32L83.9445 8.544L83.9765 8.848V8.896L84.0405 8.928L84.1205 8.912C84.1738 8.85867 84.2272 8.81067 84.2805 8.768L84.2485 8.64L84.4725 8.608L84.5205 8.496L85.4645 7.728L85.5605 7.696L85.6725 7.424C85.7365 7.40267 85.8272 7.36 85.9445 7.296L86.0405 7.04H86.1685L86.1205 6.768L86.3445 6.736C86.3658 6.69333 86.3978 6.64 86.4405 6.576C86.4938 6.512 86.5472 6.45333 86.6005 6.4L87.4165 5.312L87.5445 5.072L87.5285 5.008L87.6405 4.832L87.6725 4.656L87.8165 4.528L87.8325 4.352ZM101.845 9.088L102.117 9.232L102.133 9.312L102.101 9.568L102.117 9.6L102.181 9.616L101.957 9.904L101.845 10.112L101.893 10.096C101.893 10.2027 101.839 10.256 101.733 10.256C101.626 10.2667 101.525 10.2453 101.429 10.192L101.045 10.112V10.048H101.029L101.061 9.984C101.007 10.016 100.949 10.032 100.885 10.032H100.469C100.415 10.032 100.367 10.0107 100.325 9.968C100.303 9.968 100.282 9.968 100.261 9.968C100.239 9.95733 100.218 9.952 100.197 9.952L100.101 10.064L99.7166 9.952L99.6366 10.032H99.4126L99.0606 9.968L98.5326 10.048L98.2446 9.952L97.6206 10.048C97.5673 10.0587 97.4713 10.0907 97.3326 10.144C97.2046 10.1973 97.0873 10.224 96.9806 10.224C96.9059 10.224 96.8419 10.1973 96.7886 10.144C96.7566 10.144 96.7299 10.1387 96.7086 10.128C96.6873 10.128 96.6659 10.128 96.6446 10.128C96.5806 10.128 96.5273 10.16 96.4846 10.224C96.2926 10.224 96.0846 10.256 95.8606 10.32L95.6046 10.288L95.4606 10.32L95.2206 10.272L95.1246 10.32H94.8846L94.7246 10.4L94.4846 10.352L94.0686 10.576L93.9886 10.432L93.8926 10.496L93.6686 10.432L93.5246 10.544L93.2206 10.48L93.2526 10.512C93.1993 10.5013 93.1566 10.496 93.1246 10.496C93.1033 10.496 93.0873 10.496 93.0766 10.496C92.9699 10.496 92.9006 10.5333 92.8686 10.608L92.6126 10.592L92.4206 10.688C92.3886 10.6987 92.3406 10.704 92.2766 10.704C92.0206 10.704 91.8873 10.592 91.8766 10.368C91.8659 10.2827 91.8446 10.2027 91.8126 10.128C91.7806 10.064 91.7753 9.98933 91.7966 9.904L91.6526 9.584L91.9886 9.344L92.0366 9.232V9.056C92.0473 9.024 92.0473 9.00267 92.0366 8.992C92.0366 8.97067 92.0419 8.94933 92.0526 8.928L92.0366 8.64C92.0259 8.53333 92.0366 8.43733 92.0686 8.352C92.0473 8.32 92.0366 8.29333 92.0366 8.272C92.0366 8.25067 92.0313 8.22933 92.0206 8.208C92.0099 8.18667 92.0046 8.16533 92.0046 8.144C92.0046 8.08 92.0259 7.98933 92.0686 7.872L91.9246 7.616L92.0366 7.152L91.9086 6.608L92.0366 6.512L92.0206 6L92.1006 5.728L92.1486 5.328L92.0686 4.88L92.1806 4.672L92.2126 4.56L92.1486 4.064L92.2606 3.968L92.1166 3.872L92.2606 3.376L92.2926 3.36L92.1806 3.152L92.4846 3.024C92.5486 2.96 92.6286 2.912 92.7246 2.88C92.8313 2.848 92.9113 2.82667 92.9646 2.816L93.3166 2.88L93.6846 3.52L93.5086 3.68C93.5299 3.712 93.5459 3.744 93.5566 3.776C93.5779 3.808 93.5886 3.84533 93.5886 3.888L93.4606 4.304L93.5086 4.768L93.3806 5.184L93.3646 5.584L93.2206 5.984L93.2366 6.096C93.2366 6.14933 93.2366 6.19733 93.2366 6.24C93.2366 6.28267 93.2259 6.32 93.2046 6.352L93.1886 6.544L93.1726 6.784L93.2366 7.104L93.2046 7.216L93.2206 7.632L93.0606 7.92L93.0446 8.128L93.0926 8.288L93.1406 8.656V9.024L93.1086 9.312C93.1833 9.23733 93.2899 9.2 93.4286 9.2H93.7326L93.9726 9.248H94.3086L94.5166 9.216H94.8206C94.8846 9.216 94.9486 9.20533 95.0126 9.184C95.0766 9.152 95.1139 9.136 95.1246 9.136H95.2046C95.2259 9.14667 95.2473 9.152 95.2686 9.152C95.3219 9.152 95.4019 9.12533 95.5086 9.072L95.7166 9.12C95.7913 9.12 95.8606 9.11467 95.9246 9.104C95.9886 9.09333 96.0633 9.06133 96.1486 9.008L96.2606 9.024C96.2819 8.93867 96.2979 8.83733 96.3086 8.72C96.3299 8.60267 96.3406 8.512 96.3406 8.448L96.4526 8.304L96.3726 8.208L96.4206 7.92L96.3726 7.824C96.3726 7.77067 96.3673 7.728 96.3566 7.696C96.3459 7.664 96.3459 7.632 96.3566 7.6C96.3566 7.52533 96.3673 7.46667 96.3886 7.424V7.312L96.3566 6.88L96.4046 6.832V6.16L96.5166 5.52L96.4526 5.248L96.5166 5.168L96.4366 5.136L96.5326 4.864V4.768L96.4366 4.752L96.5006 4.448C96.4473 4.39467 96.4526 4.352 96.5166 4.32C96.5806 4.27733 96.6019 4.19733 96.5806 4.08L96.4846 3.92L96.6446 3.52L96.6766 3.536L96.7566 3.328L96.7086 3.408V3.04H96.9166L96.9646 2.912L97.3006 2.816C97.4073 2.82667 97.5139 2.84267 97.6206 2.864C97.7273 2.88533 97.8073 2.90667 97.8606 2.928C97.9886 3.056 98.0526 3.20533 98.0526 3.376V3.44L98.0206 3.456L97.9246 3.856V4.16L97.9726 4.208L97.8606 4.512L97.8766 4.752L97.7646 5.008L97.6526 5.296C97.6739 5.328 97.6846 5.38667 97.6846 5.472C97.6846 5.504 97.6793 5.536 97.6686 5.568C97.6686 5.6 97.6579 5.63733 97.6366 5.68L97.7486 5.856H97.5886V5.888L97.6526 6.08L97.5726 6.304H97.5246L97.4606 6.576H97.5566L97.5086 6.848L97.5886 7.088L97.5086 7.28V7.696L97.4606 7.872C97.5353 7.95733 97.5726 8.04267 97.5726 8.128C97.5726 8.18133 97.5513 8.24 97.5086 8.304C97.4766 8.368 97.4553 8.41067 97.4446 8.432C97.4766 8.464 97.5139 8.496 97.5566 8.528C97.5886 8.56 97.6259 8.592 97.6686 8.624C97.7113 8.656 97.7486 8.69867 97.7806 8.752L97.6206 8.896L97.7326 8.96L97.7806 8.912L98.0366 8.976L98.1966 8.912L98.4686 8.96L98.6286 8.912L99.0126 8.96L99.2206 8.912L99.5886 8.96L99.8926 8.992C99.9139 8.98133 99.9566 8.976 100.021 8.976C100.095 8.976 100.175 8.992 100.261 9.024L100.485 9.072L100.709 9.2H100.805L100.853 9.072C100.831 9.05067 100.815 9.01867 100.805 8.976C100.805 8.93333 100.794 8.88533 100.773 8.832C100.783 8.77867 100.773 8.72533 100.741 8.672C100.719 8.608 100.698 8.53333 100.677 8.448L100.789 8.208L100.805 7.936L100.741 7.616L100.869 7.392L100.805 6.992L100.837 6.672L100.789 6.368L100.869 6.016L100.853 5.936V5.84C100.853 5.81867 100.847 5.80267 100.837 5.792C100.837 5.77067 100.847 5.74933 100.869 5.728V5.632L100.821 5.296L100.917 4.864L100.885 4.448L100.933 4.256L100.805 3.984L100.997 3.872V3.616L101.141 3.232L101.269 2.688C101.546 2.688 101.759 2.76267 101.909 2.912C102.058 3.06133 102.133 3.31733 102.133 3.68V3.776L102.005 3.936L102.133 4.192L102.053 4.56L102.133 4.896V4.976C102.133 5.008 102.127 5.04 102.117 5.072C102.106 5.09333 102.095 5.12 102.085 5.152L102.021 5.248L102.117 5.376L102.005 5.616L102.117 5.792L102.005 6.272L102.053 6.4L102.037 6.736L102.053 6.864C102.042 6.91733 102.037 7.01867 102.037 7.168C102.047 7.31733 102.053 7.424 102.053 7.488C102.053 7.552 102.037 7.632 102.005 7.728C101.973 7.81333 101.973 7.91467 102.005 8.032L101.893 8.416L101.861 8.592L101.957 8.912L101.845 9.088ZM112.016 2.736L111.92 3.008L112.064 3.312L111.888 3.456L111.824 3.792L111.712 3.904L111.632 4.256H111.584C111.552 4.40533 111.461 4.52267 111.312 4.608L111.168 5.12L111.024 5.344C111.034 5.38667 111.04 5.456 111.04 5.552L110.784 5.776L110.416 6.624L109.984 7.12V7.28C109.984 7.42933 109.898 7.55733 109.728 7.664L109.696 7.952L109.584 8.016L109.392 8.272L109.344 8.448L109.2 8.528C109.2 8.54933 109.2 8.576 109.2 8.608C109.21 8.64 109.221 8.68267 109.232 8.736L109.056 8.88L108.768 9.056L108.672 9.216L108.352 9.552C108.106 9.95733 107.866 10.2187 107.632 10.336L107.248 10.896L106.944 11.024L106.832 11.2H106.752L106.64 11.296L106.576 11.504L106.304 11.616L106.224 11.76L105.872 11.92H105.808C105.584 12.1973 105.456 12.3413 105.424 12.352C105.402 12.3627 105.37 12.3733 105.328 12.384C105.285 12.3947 105.221 12.4053 105.136 12.416C105.082 12.5013 105.013 12.5493 104.928 12.56L104.912 12.592L104.608 12.88L104.432 12.864L104.336 12.992L104.064 13.056L103.696 13.232L103.072 13.248L102.528 13.04L102.56 12.8C102.57 12.6613 102.656 12.576 102.816 12.544C102.869 12.5227 102.938 12.4853 103.024 12.432C103.109 12.3893 103.21 12.3307 103.328 12.256L103.552 12.272L103.68 12.08C103.733 12.08 103.776 12.1067 103.808 12.16C103.925 11.9787 104.064 11.888 104.224 11.888H104.272C104.4 11.76 104.528 11.68 104.656 11.648C104.741 11.5413 104.88 11.456 105.072 11.392L105.104 11.376L105.184 11.472L105.216 11.168L105.536 10.96L105.712 10.768C105.786 10.6613 105.845 10.608 105.888 10.608C105.909 10.6293 105.92 10.6453 105.92 10.656L106.016 10.48L106.384 10.112C106.394 10.0907 106.421 10.0587 106.464 10.016L105.84 9.296L105.808 9.104L105.712 9.04L105.696 8.656L105.52 8.48V8.08L105.104 7.152L105.136 6.992L105.008 6.768L104.976 6.592L104.896 6.48L104.784 6.192L104.496 5.968L104.368 5.44L104.144 5.248L104.112 5.008C103.856 4.93333 103.728 4.71467 103.728 4.352C103.728 4.04267 103.957 3.80267 104.416 3.632C105.002 4.02667 105.349 4.42133 105.456 4.816L105.504 5.184C105.525 5.17333 105.552 5.16267 105.584 5.152C105.626 5.14133 105.674 5.13067 105.728 5.12V5.264L105.984 5.456L105.888 5.712L105.92 5.904L106.064 6.288L106.144 6.368L106.16 6.512L106.288 6.576V6.848L106.464 7.472L106.496 7.712L106.752 8.224L106.96 8.848L107.2 9.104H107.232C107.274 9.104 107.312 9.06133 107.344 8.976L107.472 8.928L107.424 8.8C107.456 8.736 107.493 8.704 107.536 8.704C107.557 8.704 107.589 8.68267 107.632 8.64C107.674 8.58667 107.706 8.57067 107.728 8.592L107.744 8.336C107.765 8.336 107.802 8.304 107.856 8.24C107.909 8.176 107.978 8.11733 108.064 8.064L108.272 7.76L108.4 7.44L108.56 7.312L108.656 7.104L108.72 7.056L108.688 6.848L108.864 6.768L108.896 6.688C108.896 6.656 108.922 6.59733 108.976 6.512L109.088 6.224L109.168 6.32L109.232 6.288V6.24C109.232 6.10133 109.29 5.984 109.408 5.888V5.856L109.52 5.648L109.6 5.296L109.712 5.264L109.92 4.768L110.064 4.576C110.096 4.416 110.17 4.29333 110.288 4.208L110.432 3.76L110.544 3.616V3.28H110.624C110.688 3.23733 110.746 3.17867 110.8 3.104C110.853 3.02933 110.901 2.96 110.944 2.896C110.986 2.82133 111.024 2.75733 111.056 2.704C111.088 2.64 111.114 2.59733 111.136 2.576L111.216 2.528L111.664 2.256L112.016 2.736ZM117.235 4.048L117.347 3.488C117.39 3.41333 117.459 3.33867 117.555 3.264C117.651 3.18933 117.79 3.152 117.971 3.152L118.227 3.344L118.659 3.264L118.995 3.376C119.091 3.35467 119.182 3.36 119.267 3.392C119.353 3.424 119.438 3.44 119.523 3.44C119.662 3.44 119.747 3.44533 119.779 3.456L119.827 3.248L120.243 3.328C120.339 3.33867 120.419 3.34933 120.483 3.36C120.547 3.36 120.601 3.36 120.643 3.36C120.803 3.36 120.995 3.32267 121.219 3.248H121.283L121.651 3.088L121.907 3.264L122.307 3.184L122.355 3.216L122.419 3.184L122.739 3.2L122.771 3.072L123.219 3.248L123.571 3.216L123.587 3.168L124.035 3.248L124.227 3.36L124.467 3.296C124.606 3.28533 124.713 3.31733 124.787 3.392C124.873 3.46667 124.915 3.54133 124.915 3.616L124.867 4.192L124.787 4.288L124.915 4.528V4.672L124.995 4.864L124.867 5.072L124.915 5.232L124.835 5.76V5.84L124.755 6.08L124.659 6.224L124.771 6.352C124.761 6.36267 124.755 6.384 124.755 6.416C124.755 6.448 124.75 6.49067 124.739 6.544C124.729 6.59733 124.734 6.62933 124.755 6.64L124.627 7.024C124.67 7.07733 124.691 7.12533 124.691 7.168C124.691 7.22133 124.675 7.28 124.643 7.344L124.595 7.424L124.659 7.456C124.659 7.57333 124.617 7.68533 124.531 7.792C124.606 7.92 124.649 8.01067 124.659 8.064L124.515 8.144L124.531 8.56L124.387 9.152L124.371 9.264C124.382 9.31733 124.387 9.36 124.387 9.392C124.398 9.41333 124.403 9.43467 124.403 9.456V9.52L124.467 9.632L124.483 9.84C124.473 9.86133 124.462 9.888 124.451 9.92C124.441 9.94133 124.425 9.97333 124.403 10.016C124.382 10.2827 124.121 10.416 123.619 10.416L123.587 10.176L123.459 10.032L123.363 9.808V9.424L123.251 9.168L123.299 9.152L123.251 8.976V8.688L123.299 8.24L123.267 7.824L123.363 7.6V7.344C123.363 7.29067 123.374 7.216 123.395 7.12C123.427 7.024 123.443 6.94933 123.443 6.896L123.347 6.688L123.379 6.384L123.347 6.176L123.507 6.048C123.475 5.984 123.459 5.93067 123.459 5.888V5.856L123.379 5.632L123.459 5.472L123.347 4.992L123.459 4.8L123.587 4.32L122.931 4.368L122.659 4.336L122.227 4.384L122.099 4.336C122.067 4.34667 122.009 4.352 121.923 4.352C121.902 4.352 121.838 4.34133 121.731 4.32L121.699 4.304H121.459C121.449 4.304 121.363 4.30933 121.203 4.32C121.054 4.33067 120.899 4.336 120.739 4.336L120.483 4.496L120.243 4.352L120.003 4.336L119.923 4.32C119.817 4.34133 119.747 4.352 119.715 4.352H119.635L118.947 4.432L118.595 4.304L118.611 4.432C118.622 4.496 118.633 4.56 118.643 4.624C118.654 4.688 118.659 4.752 118.659 4.816C118.659 5.05067 118.622 5.264 118.547 5.456L118.691 5.68L118.531 5.84V5.984L118.579 6.08C118.579 6.208 118.537 6.32533 118.451 6.432C118.515 6.53867 118.558 6.624 118.579 6.688L118.419 6.864V7.392L118.371 7.648L118.451 7.872L118.323 8.048L118.435 8.208L118.323 8.704L118.387 8.864L118.355 9.136L118.339 9.312L118.275 9.424L118.307 9.552C118.286 9.712 118.153 9.792 117.907 9.792C117.47 9.792 117.251 9.51467 117.251 8.96L117.187 8.8L117.107 8.672C117.107 8.58667 117.139 8.50133 117.203 8.416L117.235 8.224L117.187 8.096L117.107 7.2V6.96L117.075 6.928L117.139 6.688L117.171 6.368L117.155 6.048C117.209 5.90933 117.235 5.75467 117.235 5.584C117.235 5.41333 117.209 5.264 117.155 5.136L117.251 5.168L117.235 5.008L117.331 4.768L117.235 4.352V4.048ZM131.979 8.688C131.979 8.816 131.883 8.976 131.691 9.168C131.637 9.33867 131.557 9.47733 131.451 9.584L131.355 9.6L131.179 9.904L130.891 9.952L130.587 10.144L130.427 10.432L130.251 10.4C130.133 10.4533 130.037 10.4853 129.963 10.496L129.867 10.64C129.835 10.6293 129.787 10.624 129.723 10.624C129.584 10.624 129.451 10.72 129.323 10.912L129.099 10.72C129.056 10.7307 128.992 10.736 128.907 10.736C128.768 10.736 128.651 10.7147 128.555 10.672H128.283L128.155 10.592C127.749 10.528 127.493 10.3733 127.387 10.128V10.08L127.195 9.984L127.099 9.712L126.907 9.584V9.344L126.715 8.64L126.747 8.064L126.811 7.808V7.472L126.891 7.216L126.875 7.104L126.987 6.912L126.955 6.944C126.955 6.848 126.981 6.74667 127.035 6.64V6.56L126.987 6.176C126.987 5.99467 127.067 5.83467 127.227 5.696C127.237 5.67467 127.243 5.64267 127.243 5.6C127.243 5.55733 127.221 5.472 127.179 5.344C127.147 5.20533 127.131 5.10933 127.131 5.056C127.131 4.928 127.163 4.79467 127.227 4.656C127.312 4.784 127.435 4.848 127.595 4.848H127.643C127.664 4.80533 127.712 4.75733 127.787 4.704C127.872 4.43733 127.989 4.21333 128.139 4.032L128.203 3.968C128.203 3.92533 128.235 3.80267 128.299 3.6H128.427L128.459 3.52L128.587 3.488C128.64 3.40267 128.672 3.35467 128.683 3.344C128.704 3.32267 128.821 3.25333 129.035 3.136C129.077 3.06133 129.141 2.992 129.227 2.928C129.269 2.90667 129.323 2.88533 129.387 2.864L129.451 2.768C129.739 2.672 129.92 2.624 129.995 2.624C130.08 2.624 130.16 2.64533 130.235 2.688L130.315 2.672L130.427 2.736C130.555 2.832 130.683 2.912 130.811 2.976L131.083 3.184V3.248C131.328 3.44 131.451 3.712 131.451 4.064L131.403 4.224L131.451 4.752L131.307 4.848L131.147 5.264L130.843 5.6L130.827 5.856C130.485 6.10133 130.171 6.29867 129.883 6.448C129.787 6.59733 129.637 6.672 129.435 6.672H129.387L129.083 6.864H128.827L128.443 7.024L128.155 6.88H128.123C128.101 6.96533 128.08 7.09333 128.059 7.264L127.931 7.36L127.915 7.552L127.819 7.824C127.851 8.08 127.867 8.24533 127.867 8.32L127.803 8.368C127.803 8.50667 127.797 8.608 127.787 8.672C127.787 8.68267 127.781 8.69867 127.771 8.72C127.771 8.74133 127.771 8.75733 127.771 8.768C127.771 8.85333 127.813 8.92267 127.899 8.976C127.931 9.104 127.984 9.184 128.059 9.216L128.171 9.312L128.523 9.408V9.456L128.651 9.488L129.195 9.52L129.515 9.472L129.675 9.36L129.771 9.328L129.931 9.088L130.011 9.072L130.411 8.944C130.453 8.86933 130.523 8.80533 130.619 8.752L130.667 8.672C130.88 8.62933 131.003 8.51733 131.035 8.336C131.184 8.18667 131.376 8.112 131.611 8.112H131.675C131.877 8.34667 131.979 8.53867 131.979 8.688ZM130.395 4.08C130.395 4.048 130.379 3.984 130.347 3.888L130.267 3.872L130.235 3.888C130.224 3.888 130.203 3.888 130.171 3.888C130.149 3.89867 130.128 3.904 130.107 3.904C130.096 3.904 130.08 3.89867 130.059 3.888C130.037 3.888 130.021 3.888 130.011 3.888L129.851 4L129.707 4.016L129.627 4.048L129.355 4.4L129.179 4.528L128.923 4.976L128.779 5.072C128.747 5.25333 128.672 5.408 128.555 5.536L128.491 5.648C128.608 5.57333 128.741 5.536 128.891 5.536L129.003 5.488L129.051 5.344L129.275 5.36L129.403 5.168H129.499L129.675 5.232L129.755 4.992H129.867V4.816L130.075 4.768L130.123 4.72L130.155 4.576L130.363 4.272C130.384 4.21867 130.395 4.15467 130.395 4.08ZM139.1 7.632L138.908 8.112L139.036 8.432L138.972 8.528L138.908 8.784L138.78 9.008L138.716 9.04L138.684 9.344L138.396 9.376C138.246 9.51467 138.092 9.62667 137.932 9.712L137.836 9.696L137.596 9.776L137.452 9.792L137.148 9.904L136.796 9.744L136.748 9.712L136.476 9.728L136.54 9.76L136.092 9.696L135.692 9.792L135.532 9.648L135.196 9.68L135.068 9.584C135.057 9.584 135.014 9.58933 134.94 9.6V9.696C134.94 9.792 134.924 9.888 134.892 9.984L134.94 10.288L134.812 10.448C134.833 10.6827 134.844 10.8587 134.844 10.976L134.796 11.376L134.86 11.984L134.732 12.144L134.796 12.384L134.748 12.544L134.844 12.592V12.832C134.865 12.896 134.876 12.944 134.876 12.976C134.876 13.072 134.817 13.152 134.7 13.216L134.764 13.44L134.684 13.568L134.652 14.208C134.62 14.9547 134.454 15.328 134.156 15.328C134.092 15.328 133.905 15.2853 133.596 15.2L133.644 14.72L133.548 14.016L133.708 13.728L133.724 13.376L133.66 12.896L133.788 12.688L133.644 12.32L133.756 12.128L133.66 11.808L133.788 11.52C133.766 11.456 133.724 11.3973 133.66 11.344C133.606 11.2907 133.58 11.2533 133.58 11.232C133.58 11.2 133.617 11.168 133.692 11.136C133.681 11.104 133.676 11.0507 133.676 10.976C133.676 10.8373 133.708 10.656 133.772 10.432L133.676 10.272L133.724 10.064L133.612 9.92L133.756 9.744L133.692 9.28L133.788 8.624L133.676 8.416L133.852 8.112L133.66 7.936L133.772 7.632L133.66 7.552L133.676 7.28L133.772 6.944V6.88L133.788 6.816V6.64L133.804 6.576L133.724 6.32L133.804 6.048L133.724 5.84L133.788 5.6L133.724 5.536L133.772 5.216L133.724 5.04L133.756 4.88L133.708 4.768L133.132 5.024V4.928L133.02 4.944L132.844 5.104H132.7L132.508 5.36L132.348 5.296L132.268 5.456C131.745 5.14667 131.484 4.90133 131.484 4.72C131.484 4.592 131.532 4.48533 131.628 4.4L131.612 4.16C131.91 3.98933 132.193 3.89867 132.46 3.888L132.572 3.776L133.084 3.568L133.196 3.456L133.644 3.488L133.724 3.456L133.868 2.896L134.252 2.976L134.508 3.392L134.652 3.248L134.94 3.456C135.078 3.456 135.212 3.48267 135.34 3.536L135.42 3.68L135.532 3.632L135.66 3.728C135.734 3.728 135.793 3.73333 135.836 3.744L135.82 3.84L136.172 3.728L136.348 3.92L136.652 4.016L136.86 4.272L137.244 4.512L137.26 4.544L137.564 4.64V4.736C137.649 4.8 137.713 4.88533 137.756 4.992L137.884 5.072L137.98 5.248H138.172V5.568L138.284 5.68L138.316 5.792L138.476 5.824C138.497 6.06933 138.566 6.27733 138.684 6.448V6.56L138.844 6.72L138.812 6.976L138.94 7.264L138.988 7.6L139.1 7.632ZM137.9 7.872L137.884 7.792L137.9 7.728L137.804 7.44L137.868 7.296L137.804 7.168L137.788 7.008L137.66 6.752L137.596 6.576L137.356 6.16L137.164 6L137.052 5.728L136.908 5.664L136.652 5.328L136.396 5.36L136.204 5.104L136.044 5.136L135.932 4.928L135.868 4.912H135.644L135.484 4.992L135.356 4.864L135.196 4.896L135.132 4.784L134.844 4.736L134.86 4.928L134.828 5.232L134.892 5.408L135.116 5.616L134.94 6L134.956 6.24L134.876 6.72C134.908 6.92267 134.972 7.09333 135.068 7.232L135.004 7.408C135.014 7.41867 135.02 7.42933 135.02 7.44C135.02 7.472 134.977 7.52 134.892 7.584L135.004 7.728L134.924 7.92L134.892 8.128L134.94 8.352L134.924 8.56H135.26C135.302 8.53867 135.361 8.528 135.436 8.528C135.532 8.528 135.617 8.56 135.692 8.624C135.702 8.624 135.724 8.61867 135.756 8.608C135.777 8.608 135.793 8.608 135.804 8.608C135.836 8.608 135.894 8.61867 135.98 8.64C136.044 8.608 136.102 8.592 136.156 8.592C136.241 8.592 136.321 8.61333 136.396 8.656H136.54L136.668 8.688L136.988 8.592L137.244 8.752C137.34 8.784 137.377 8.8 137.356 8.8L137.66 8.496L137.692 8.272L137.772 8.24L137.724 8.112L137.836 7.984L137.9 7.872ZM142.746 8.432L142.778 8.608L142.666 8.848L142.682 8.928L142.73 8.944L142.762 9.168L143.082 9.216L143.402 9.104L143.69 9.088C143.754 9.13067 143.796 9.15733 143.818 9.168C143.85 9.168 143.887 9.16267 143.93 9.152L144.186 9.024L144.586 9.04L145.002 8.912L145.354 8.768L145.562 8.784L145.754 8.624L145.93 8.592C145.994 8.592 146.068 8.58667 146.154 8.576C146.239 8.55467 146.324 8.53333 146.41 8.512C146.495 8.49067 146.575 8.464 146.65 8.432C146.724 8.38933 146.783 8.34133 146.826 8.288L146.954 8.128L147.274 8.032L147.37 7.856L147.45 7.776L147.402 7.744L147.162 7.712L147.114 7.632H147.034L146.698 7.488L146.426 7.52L146.298 7.408L145.994 7.44C145.93 7.376 145.866 7.33867 145.802 7.328C145.716 7.38133 145.636 7.408 145.562 7.408C145.508 7.39733 145.428 7.36533 145.322 7.312C145.236 7.312 145.172 7.312 145.13 7.312C145.098 7.30133 145.034 7.29067 144.938 7.28L144.762 7.264C144.676 7.24267 144.602 7.24267 144.538 7.264C144.484 7.28533 144.426 7.296 144.362 7.296C144.33 7.296 144.287 7.29067 144.234 7.28C144.191 7.25867 144.143 7.25333 144.09 7.264L143.77 7.296L143.546 7.136L143.53 7.232L143.05 7.216L142.89 7.152C142.719 7.152 142.634 7.232 142.634 7.392V7.552V7.68L142.714 7.728L142.634 7.952L142.666 8.048L142.634 8.256L142.746 8.432ZM148.778 8.064L148.522 8.288L148.458 8.48L148.282 8.512L148.09 8.8L147.754 8.864L147.466 9.072L147.354 9.12L147.13 9.36L146.762 9.328L146.602 9.456L146.394 9.424C146.298 9.488 146.218 9.54667 146.154 9.6C146.09 9.65333 145.994 9.69067 145.866 9.712L145.754 9.648L145.338 9.952L145.178 9.872L145.066 9.936L144.81 9.872L144.714 9.936L144.442 9.968L144.234 9.92L143.978 10.144L143.674 10.112V10.128C143.663 10.1387 143.604 10.16 143.498 10.192L143.418 10.096C143.279 10.2027 143.119 10.256 142.938 10.256H142.858C142.826 10.2453 142.799 10.24 142.778 10.24L142.538 10.496L142.266 10.576L142.026 10.448L141.85 10.304L141.722 10.16L141.626 10.08C141.626 10.0587 141.626 10.0213 141.626 9.968C141.626 9.91467 141.578 9.76533 141.482 9.52L141.498 9.248L141.466 8.928L141.546 8.688L141.498 8.368L141.61 8.144L141.546 7.952L141.594 7.632L141.482 7.28L141.466 7.232C141.146 7.06133 140.964 6.90667 140.922 6.768C140.943 6.65067 140.991 6.576 141.066 6.544C141.14 6.50133 141.236 6.44267 141.354 6.368L141.514 6.272L141.418 6L141.53 5.952L141.466 5.728L141.514 5.52L141.434 5.296L141.466 5.184L141.45 4.992L141.274 4.64L141.306 4.496L141.226 4.432L141.258 4.24L141.178 4.128L141.082 3.92L141.066 3.904L140.906 4.032L140.746 3.936L140.586 4.032L140.538 3.968L140.282 4.128L140.138 3.904L139.85 4.08C139.359 3.80267 139.114 3.552 139.114 3.328C139.114 3.136 139.215 3.024 139.418 2.992C139.524 2.832 139.668 2.752 139.85 2.752H139.898L140.058 2.816H140.09C140.303 2.816 140.49 2.82133 140.65 2.832C140.81 2.832 140.938 2.84267 141.034 2.864C141.119 2.84267 141.194 2.832 141.258 2.832C141.332 2.82133 141.402 2.816 141.466 2.816L141.546 2.864L141.642 2.832L142.058 2.992L142.426 3.088C142.458 3.07733 142.532 3.072 142.65 3.072C142.714 3.072 142.767 3.07733 142.81 3.088C142.852 3.088 142.89 3.09333 142.922 3.104L143.082 3.072C143.22 3.08267 143.354 3.12533 143.482 3.2L143.594 3.264C143.764 3.30667 143.898 3.328 143.994 3.328L144.346 3.264L144.41 3.344C144.538 3.344 144.65 3.39733 144.746 3.504H145.178L145.354 3.68C145.418 3.70133 145.476 3.71733 145.53 3.728C145.583 3.73867 145.631 3.744 145.674 3.744L145.962 3.84L146.09 3.952H146.426L146.506 4.16L146.81 4.352L146.922 4.8L146.682 5.232C146.564 5.34933 146.458 5.44 146.362 5.504C146.266 5.568 146.159 5.616 146.042 5.648L145.802 5.792L145.69 5.76L145.402 6H145.226L144.81 6.176L144.522 6.208C144.415 6.25067 144.33 6.288 144.266 6.32C144.212 6.34133 144.154 6.36267 144.09 6.384C144.036 6.40533 143.972 6.42667 143.898 6.448C143.834 6.46933 143.738 6.50133 143.61 6.544V6.576C143.631 6.576 143.69 6.57067 143.786 6.56C143.882 6.54933 143.983 6.53867 144.09 6.528C144.207 6.51733 144.314 6.50667 144.41 6.496C144.506 6.48533 144.57 6.48 144.602 6.48C144.719 6.45867 144.842 6.43733 144.97 6.416C145.098 6.39467 145.183 6.41067 145.226 6.464C145.311 6.42133 145.386 6.4 145.45 6.4C145.631 6.45333 145.743 6.48 145.786 6.48C145.828 6.48 145.871 6.48 145.914 6.48C145.956 6.48 146.01 6.46933 146.074 6.448C146.138 6.48 146.228 6.50133 146.346 6.512C146.463 6.512 146.612 6.512 146.794 6.512L146.922 6.592C147.05 6.61333 147.167 6.62933 147.274 6.64C147.38 6.64 147.476 6.66133 147.562 6.704H147.802C147.855 6.75733 147.935 6.79467 148.042 6.816C148.159 6.83733 148.25 6.87467 148.314 6.928C148.346 6.94933 148.388 6.98133 148.442 7.024C148.506 7.056 148.58 7.11467 148.666 7.2C148.815 7.328 148.89 7.46133 148.89 7.6L148.874 7.776L148.778 8.064ZM145.69 4.672H145.53L145.386 4.592L145.178 4.544L145.018 4.656L144.714 4.432L144.474 4.368L144.378 4.416L144.25 4.272H144.186C144.079 4.272 143.914 4.256 143.69 4.224L143.354 4.272L143.178 4.112L143.018 4.144L142.97 4.128L142.874 4.192L142.602 4.096L142.538 4.128V4.48L142.634 4.752L142.554 4.976L142.634 5.152L142.618 5.456L142.698 5.696L142.602 5.936L142.65 6.096L142.874 6.08C142.895 6.06933 142.927 6.05867 142.97 6.048C143.012 6.02667 143.055 5.98933 143.098 5.936L143.162 5.904L143.258 5.968L143.306 5.856L143.706 5.648C143.855 5.60533 143.956 5.57867 144.01 5.568C144.074 5.55733 144.127 5.52533 144.17 5.472L144.394 5.408L144.474 5.392C144.612 5.30667 144.772 5.25333 144.954 5.232L145.018 5.184C145.039 5.184 145.082 5.16267 145.146 5.12L145.386 4.992H145.418C145.471 4.94933 145.524 4.912 145.578 4.88C145.642 4.83733 145.711 4.80533 145.786 4.784L145.69 4.672ZM157.861 2.736L157.765 3.008L157.909 3.312L157.733 3.456L157.669 3.792L157.557 3.904L157.477 4.256H157.429C157.397 4.40533 157.306 4.52267 157.157 4.608L157.013 5.12L156.869 5.344C156.88 5.38667 156.885 5.456 156.885 5.552L156.629 5.776L156.261 6.624L155.829 7.12V7.28C155.829 7.42933 155.744 7.55733 155.573 7.664L155.541 7.952L155.429 8.016L155.237 8.272L155.189 8.448L155.045 8.528C155.045 8.54933 155.045 8.576 155.045 8.608C155.056 8.64 155.066 8.68267 155.077 8.736L154.901 8.88L154.613 9.056L154.517 9.216L154.197 9.552C153.952 9.95733 153.712 10.2187 153.477 10.336L153.093 10.896L152.789 11.024L152.677 11.2H152.597L152.485 11.296L152.421 11.504L152.149 11.616L152.069 11.76L151.717 11.92H151.653C151.429 12.1973 151.301 12.3413 151.269 12.352C151.248 12.3627 151.216 12.3733 151.173 12.384C151.13 12.3947 151.066 12.4053 150.981 12.416C150.928 12.5013 150.858 12.5493 150.773 12.56L150.757 12.592L150.453 12.88L150.277 12.864L150.181 12.992L149.909 13.056L149.541 13.232L148.917 13.248L148.373 13.04L148.405 12.8C148.416 12.6613 148.501 12.576 148.661 12.544C148.714 12.5227 148.784 12.4853 148.869 12.432C148.954 12.3893 149.056 12.3307 149.173 12.256L149.397 12.272L149.525 12.08C149.578 12.08 149.621 12.1067 149.653 12.16C149.77 11.9787 149.909 11.888 150.069 11.888H150.117C150.245 11.76 150.373 11.68 150.501 11.648C150.586 11.5413 150.725 11.456 150.917 11.392L150.949 11.376L151.029 11.472L151.061 11.168L151.381 10.96L151.557 10.768C151.632 10.6613 151.69 10.608 151.733 10.608C151.754 10.6293 151.765 10.6453 151.765 10.656L151.861 10.48L152.229 10.112C152.24 10.0907 152.266 10.0587 152.309 10.016L151.685 9.296L151.653 9.104L151.557 9.04L151.541 8.656L151.365 8.48V8.08L150.949 7.152L150.981 6.992L150.853 6.768L150.821 6.592L150.741 6.48L150.629 6.192L150.341 5.968L150.213 5.44L149.989 5.248L149.957 5.008C149.701 4.93333 149.573 4.71467 149.573 4.352C149.573 4.04267 149.802 3.80267 150.261 3.632C150.848 4.02667 151.194 4.42133 151.301 4.816L151.349 5.184C151.37 5.17333 151.397 5.16267 151.429 5.152C151.472 5.14133 151.52 5.13067 151.573 5.12V5.264L151.829 5.456L151.733 5.712L151.765 5.904L151.909 6.288L151.989 6.368L152.005 6.512L152.133 6.576V6.848L152.309 7.472L152.341 7.712L152.597 8.224L152.805 8.848L153.045 9.104H153.077C153.12 9.104 153.157 9.06133 153.189 8.976L153.317 8.928L153.269 8.8C153.301 8.736 153.338 8.704 153.381 8.704C153.402 8.704 153.434 8.68267 153.477 8.64C153.52 8.58667 153.552 8.57067 153.573 8.592L153.589 8.336C153.61 8.336 153.648 8.304 153.701 8.24C153.754 8.176 153.824 8.11733 153.909 8.064L154.117 7.76L154.245 7.44L154.405 7.312L154.501 7.104L154.565 7.056L154.533 6.848L154.709 6.768L154.741 6.688C154.741 6.656 154.768 6.59733 154.821 6.512L154.933 6.224L155.013 6.32L155.077 6.288V6.24C155.077 6.10133 155.136 5.984 155.253 5.888V5.856L155.365 5.648L155.445 5.296L155.557 5.264L155.765 4.768L155.909 4.576C155.941 4.416 156.016 4.29333 156.133 4.208L156.277 3.76L156.389 3.616V3.28H156.469C156.533 3.23733 156.592 3.17867 156.645 3.104C156.698 3.02933 156.746 2.96 156.789 2.896C156.832 2.82133 156.869 2.75733 156.901 2.704C156.933 2.64 156.96 2.59733 156.981 2.576L157.061 2.528L157.509 2.256L157.861 2.736ZM162.329 6.576L162.025 6.704L161.769 6.528L161.385 6.608L161.337 6.576L161.273 6.608L160.953 6.592L160.905 6.72L160.473 6.544L160.073 6.592L160.057 6.848L160.009 7.376L160.073 7.6L159.945 7.84L160.057 8.064L159.929 8.592L159.993 8.8L159.945 9.184L160.089 9.504L160.025 9.648L160.041 9.84C160.03 10.0747 159.897 10.192 159.641 10.192C159.193 10.192 158.985 9.79733 159.017 9.008L158.793 8.736L158.713 8.544C158.713 8.46933 158.723 8.40533 158.745 8.352C158.766 8.29867 158.787 8.24533 158.809 8.192L158.857 7.92L158.809 7.76L158.745 7.232V6.736L158.713 6.688L158.393 6.512L158.377 5.888L158.825 5.632C158.846 5.54667 158.862 5.47733 158.873 5.424C158.894 5.37067 158.91 5.28 158.921 5.152C158.921 5.03467 158.91 4.96533 158.889 4.944C158.878 4.92267 158.862 4.86933 158.841 4.784L158.953 4.576L158.937 4.352L159.033 4.176L158.953 3.936V3.568L159.081 3.088L159.705 2.752L160.009 2.976L160.345 3.088L160.377 3.44L160.521 3.648L160.361 4.032C160.382 4.11733 160.393 4.18667 160.393 4.24C160.403 4.28267 160.403 4.34133 160.393 4.416C160.403 4.50133 160.398 4.58133 160.377 4.656C160.355 4.72 160.323 4.82667 160.281 4.976L160.425 5.12L160.265 5.344L160.249 5.536L160.393 5.584L160.777 5.536L161.049 5.568L161.481 5.52L161.609 5.568C161.641 5.55733 161.699 5.552 161.785 5.552C161.806 5.552 161.87 5.56267 161.977 5.584L162.009 5.6H162.249H162.313C162.366 5.6 162.414 5.59467 162.457 5.584L162.681 5.024L163.177 4.224L163.305 4.16L163.417 3.984L163.545 3.872L163.529 3.648L163.721 3.616C163.849 3.52 163.993 3.43467 164.153 3.36L164.233 3.28C164.275 3.25867 164.35 3.23733 164.457 3.216C164.563 3.19467 164.718 3.17333 164.921 3.152L165.289 3.088L165.721 3.008L165.977 2.992H166.345L166.425 3.008L166.473 3.024H166.537L166.617 2.992L166.729 3.008V3.088L166.921 3.008L167.001 2.912C167.043 2.98667 167.145 3.024 167.305 3.024L167.417 3.136L167.881 3.296L168.905 3.76L169.033 4.064L169.129 4.176L169.369 4.272C169.507 4.4 169.625 4.52267 169.721 4.64C169.827 4.75733 169.913 4.89067 169.977 5.04C170.051 5.17867 170.115 5.344 170.169 5.536C170.222 5.71733 170.275 5.94133 170.329 6.208L170.345 6.352L170.217 6.64L170.185 7.248L170.073 7.376C170.041 7.73867 169.918 7.968 169.705 8.064L169.609 8.112L168.825 8.688L168.729 8.816L168.361 9.248L168.105 9.216L167.977 9.328L167.705 9.408L167.369 9.776C167.347 9.76533 167.294 9.776 167.209 9.808C167.134 9.82933 167.07 9.81867 167.017 9.776C166.985 9.82933 166.942 9.84533 166.889 9.824C166.846 9.80267 166.793 9.80267 166.729 9.824H166.681L166.425 10.048L166.361 10.016H166.105L165.977 10.112L165.609 10.096L165.209 10.208H165.129C165.097 10.208 165.059 10.208 165.017 10.208C164.985 10.2187 164.942 10.224 164.889 10.224L164.505 10.176L164.425 10.112L163.881 10.032L163.641 9.92H163.321L163.305 9.776L163.033 9.504L162.681 9.344L162.505 8.928L162.457 8.608L162.377 8.512L162.329 7.904V7.36L162.265 6.88L162.345 6.8L162.329 6.576ZM169.209 6.448L169.113 6.096L169.177 5.984L169.065 5.76V5.616L168.809 5.472L168.729 5.264L168.601 5.232L168.553 5.056L168.233 4.752L168.025 4.608L167.945 4.64C167.838 4.55467 167.731 4.45333 167.625 4.336C167.518 4.208 167.331 4.11733 167.065 4.064C166.99 4.064 166.926 4.07467 166.873 4.096L166.649 4.032L166.521 4.096C166.457 4.07467 166.403 4.05867 166.361 4.048C166.329 4.03733 166.307 4.032 166.297 4.032C166.286 4.032 166.254 4.04267 166.201 4.064C166.147 4.07467 166.094 4.08 166.041 4.08C165.998 4.08 165.966 4.07467 165.945 4.064C165.913 4.11733 165.865 4.14933 165.801 4.16C165.737 4.16 165.651 4.18133 165.545 4.224L165.369 4.208L165.113 4.336L164.969 4.528C164.883 4.58133 164.782 4.61867 164.665 4.64C164.547 4.66133 164.435 4.704 164.329 4.768L164.281 4.848L164.233 5.136L163.945 5.264L163.833 5.344C163.811 5.38667 163.806 5.45067 163.817 5.536C163.838 5.62133 163.827 5.69067 163.785 5.744V5.952L163.609 6.032L163.577 6.064L163.545 6.448L163.465 6.656C163.475 6.88 163.47 7.06133 163.449 7.2C163.427 7.33867 163.443 7.47733 163.497 7.616C163.465 7.66933 163.459 7.728 163.481 7.792C163.513 7.84533 163.529 7.91467 163.529 8L163.481 8.144L163.529 8.224L163.577 8.416L163.753 8.576L163.785 8.752L163.913 8.88C164.041 8.95467 164.158 9.008 164.265 9.04C164.371 9.06133 164.473 9.07733 164.569 9.088L165.097 8.96L165.225 9.072H165.385L165.401 9.04L165.529 8.992L165.801 9.04C165.886 8.976 165.966 8.944 166.041 8.944C166.211 8.82667 166.377 8.768 166.537 8.768L166.793 8.704L167.001 8.688L167.273 8.56L167.353 8.464C167.374 8.45333 167.406 8.448 167.449 8.448C167.491 8.448 167.523 8.448 167.545 8.448L167.561 8.4C167.593 8.34667 167.63 8.31467 167.673 8.304C167.715 8.28267 167.763 8.26133 167.817 8.24L167.961 7.888L168.057 7.952L168.153 7.888L168.313 7.728L168.393 7.76L168.585 7.6L168.809 7.216L169.001 7.168L169.065 6.976L169.161 6.912L169.113 6.624L169.209 6.448ZM182.252 7.248L182.476 7.52L182.524 7.808L182.604 7.968L182.524 8.608L182.3 8.848L182.22 9.104L181.932 9.232V9.344L181.692 9.392L181.532 9.6C181.458 9.632 181.356 9.664 181.228 9.696C181.111 9.728 180.978 9.76533 180.828 9.808C180.764 9.86133 180.7 9.91467 180.636 9.968C180.583 10.0107 180.508 10.0373 180.412 10.048C180.327 10.0907 180.22 10.144 180.092 10.208C179.975 10.272 179.852 10.32 179.724 10.352L179.564 10.304L178.956 10.464L178.652 10.448L178.412 10.4L178.204 10.448L177.852 10.496H177.628L177.5 10.432C177.49 10.4533 177.474 10.4693 177.452 10.48C177.41 10.5013 177.378 10.496 177.356 10.464L177.276 10.368C177.255 10.3787 177.234 10.4 177.212 10.432C177.202 10.4747 177.175 10.5013 177.132 10.512C177.068 10.512 176.988 10.496 176.892 10.464L176.78 10.496C176.716 10.496 176.674 10.4907 176.652 10.48C176.642 10.4907 176.631 10.48 176.62 10.448C176.61 10.4267 176.594 10.416 176.572 10.416C176.498 10.416 176.423 10.3947 176.348 10.352L176.124 10.464L175.964 10.224L175.868 10.304L175.708 10.224C175.666 10.2667 175.628 10.288 175.596 10.288C175.564 10.288 175.527 10.288 175.484 10.288C175.41 10.288 175.34 10.2347 175.276 10.128C175.148 10.064 175.052 9.984 174.988 9.888C174.924 9.792 174.892 9.62133 174.892 9.376C174.892 9.06667 175.031 8.896 175.308 8.864C175.362 8.84267 175.394 8.81067 175.404 8.768C175.415 8.72533 175.452 8.69333 175.516 8.672L175.74 8.624L176.14 8.56C176.45 8.688 176.604 8.82667 176.604 8.976C176.604 9.06133 176.567 9.14133 176.492 9.216C176.524 9.216 176.583 9.232 176.668 9.264L176.924 9.216C177.031 9.216 177.138 9.25333 177.244 9.328C177.319 9.30667 177.394 9.312 177.468 9.344C177.554 9.376 177.639 9.392 177.724 9.392H177.996C178.092 9.328 178.162 9.296 178.204 9.296C178.258 9.296 178.327 9.31733 178.412 9.36C178.466 9.328 178.514 9.30667 178.556 9.296C178.599 9.28533 178.647 9.27467 178.7 9.264L178.956 9.424L178.988 9.36L179.276 9.312H179.452L179.708 9.136C179.794 9.136 179.858 9.14133 179.9 9.152C179.954 9.152 179.986 9.152 179.996 9.152C180.028 9.152 180.082 9.13067 180.156 9.088C180.231 9.03467 180.306 8.98133 180.38 8.928H180.524L180.556 8.848L180.796 8.688L180.844 8.592C180.951 8.54933 181.026 8.496 181.068 8.432C181.111 8.368 181.148 8.31467 181.18 8.272C181.234 8.18667 181.255 8.11733 181.244 8.064C181.244 8 181.234 7.94133 181.212 7.888C181.191 7.86667 181.17 7.856 181.148 7.856C181.127 7.856 181.074 7.84533 180.988 7.824L180.748 7.632L180.46 7.584L180.204 7.664L180.108 7.52L179.98 7.552L179.836 7.392L179.772 7.44C179.623 7.408 179.538 7.392 179.516 7.392C179.463 7.40267 179.415 7.41333 179.372 7.424C179.34 7.43467 179.308 7.44533 179.276 7.456C179.234 7.44533 179.18 7.39733 179.116 7.312L179.052 7.36C178.978 7.38133 178.898 7.39733 178.812 7.408C178.738 7.41867 178.652 7.42933 178.556 7.44L178.476 7.344L178.14 7.296L178.028 7.184L177.852 7.2L177.548 7.056L177.292 6.768L177.212 6.448L177.356 6.128L177.628 5.952C177.724 5.888 177.82 5.85067 177.916 5.84C178.023 5.81867 178.124 5.79733 178.22 5.776L178.412 5.632L179.052 5.44L179.18 5.344L179.436 5.392L179.564 5.232L179.66 5.296C179.831 5.11467 180.028 5.024 180.252 5.024L180.38 4.912L180.412 4.88C180.455 4.83733 180.482 4.81067 180.492 4.8C180.514 4.78933 180.562 4.76267 180.636 4.72C180.7 4.61333 180.716 4.55467 180.684 4.544C180.663 4.52267 180.604 4.464 180.508 4.368C180.466 4.31467 180.407 4.26667 180.332 4.224C180.258 4.17067 180.114 4.11733 179.9 4.064L179.692 4.096C179.511 4.064 179.383 4.048 179.308 4.048C179.255 4.048 179.202 4.05333 179.148 4.064C179.106 4.064 179.058 4.06933 179.004 4.08H178.86L178.604 4.144L178.364 4.08L178.252 4.208L177.708 4.24L177.388 4.352C177.303 4.448 177.218 4.496 177.132 4.496C177.1 4.496 177.068 4.49067 177.036 4.48C177.004 4.46933 176.962 4.45333 176.908 4.432C176.898 4.464 176.887 4.49067 176.876 4.512C176.866 4.52267 176.855 4.53867 176.844 4.56H176.764C176.7 4.56 176.631 4.56533 176.556 4.576C176.492 4.58667 176.423 4.65067 176.348 4.768C176.284 4.768 176.242 4.76267 176.22 4.752L176.14 4.992L175.612 4.592L175.468 4.432L175.516 4.336H175.42C175.378 4.26133 175.356 4.192 175.356 4.128V4.032L175.436 3.744L175.516 3.664C175.559 3.632 175.602 3.60533 175.644 3.584C175.687 3.552 175.735 3.536 175.788 3.536H175.852L175.948 3.392L176.172 3.456C176.226 3.40267 176.284 3.36533 176.348 3.344C176.423 3.32267 176.492 3.312 176.556 3.312H176.62C176.62 3.26933 176.652 3.20533 176.716 3.12H176.988L177.1 3.056L177.324 3.024L177.516 3.2L177.5 3.056H177.708L177.9 3.008L178.364 2.912L178.524 2.928C178.716 2.87467 178.908 2.848 179.1 2.848H179.276L179.228 2.896H179.292C179.367 2.896 179.436 2.912 179.5 2.944L179.644 2.896L179.948 2.928C179.98 2.928 180.039 2.928 180.124 2.928C180.22 2.928 180.295 2.92267 180.348 2.912H180.46V3.008L180.78 3.12L181.164 3.216L181.34 3.472L181.612 3.68C181.708 3.808 181.783 3.936 181.836 4.064C181.89 4.18133 181.9 4.34667 181.868 4.56L181.788 4.88V4.912C181.767 4.96533 181.719 5.06133 181.644 5.2C181.516 5.41333 181.34 5.55733 181.116 5.632L180.988 5.76L180.636 5.904L180.332 5.968L180.124 6.128L179.564 6.192L179.34 6.304H179.068L178.748 6.416L179.084 6.528H179.468L179.644 6.512H180.06C180.21 6.512 180.316 6.54933 180.38 6.624C180.466 6.64533 180.551 6.66667 180.636 6.688C180.732 6.69867 180.839 6.704 180.956 6.704L181.052 6.784C181.063 6.784 181.074 6.77867 181.084 6.768C181.095 6.768 181.106 6.77333 181.116 6.784C181.138 6.784 181.175 6.784 181.228 6.784L181.548 6.816L181.756 6.992H181.916L182.252 7.248ZM190.183 3.52L190.023 3.728L190.151 4.112L189.943 4.352L189.863 4.688L189.815 4.768L189.847 4.848C189.847 4.99733 189.81 5.10933 189.735 5.184L189.703 5.232V5.296C189.735 5.37067 189.751 5.44 189.751 5.504C189.751 5.55733 189.746 5.59467 189.735 5.616L189.751 5.68L189.687 5.856L189.735 6.048L189.607 6.176L189.655 6.4L189.751 6.512L189.607 6.64V6.896L189.495 7.152L189.575 7.408L189.479 7.536L189.639 7.648L189.415 8.016L189.399 8.064L189.559 8.096L189.447 8.464V8.528C189.447 8.60267 189.442 8.66133 189.431 8.704L189.447 8.752L189.703 8.784L189.911 9.104L189.799 9.344L189.975 9.328C190.039 9.456 190.077 9.568 190.087 9.664L189.847 9.904C189.773 9.97867 189.666 10.0533 189.527 10.128L189.255 10.272L189.175 10.192L189.015 10.288L188.519 9.712V9.44C188.455 9.22667 188.423 9.02933 188.423 8.848V8.752L188.327 7.808L188.455 7.136L188.359 6.752L188.087 7.2L187.943 7.616L187.815 7.68L187.591 8.032L187.191 8.4L187.079 8.592L186.727 8.896L186.647 9.104L186.135 9.424L185.591 10.032L185.287 10.096L185.079 10.256C184.813 10.2453 184.61 10.144 184.471 9.952C183.991 9.71733 183.741 9.38133 183.719 8.944L183.799 8.896L183.783 8.8L183.767 8.608L183.671 8.4L183.767 8.176L183.799 7.84L183.911 7.312C183.911 7.30133 183.911 7.28 183.911 7.248C183.901 7.22667 183.895 7.20533 183.895 7.184C183.895 7.14133 183.906 7.088 183.927 7.024C183.917 7.00267 183.911 6.96 183.911 6.896C183.911 6.82133 183.943 6.69867 184.007 6.528L184.119 6.48C184.055 6.42667 184.023 6.368 184.023 6.304C184.023 6.26133 184.029 6.22933 184.039 6.208C184.029 6.176 184.023 6.13867 184.023 6.096C184.023 5.968 184.087 5.872 184.215 5.808C184.247 5.70133 184.306 5.59467 184.391 5.488L184.311 5.36L184.503 5.12V5.056C184.503 4.85333 184.573 4.66667 184.711 4.496L184.695 4.208L184.759 4.144C184.759 4.13333 184.759 4.11733 184.759 4.096C184.749 4.07467 184.743 4.05867 184.743 4.048C184.743 3.984 184.765 3.93067 184.807 3.888V3.792C184.85 3.68533 184.962 3.52533 185.143 3.312C185.325 3.09867 185.458 2.912 185.543 2.752L185.623 2.832L185.799 2.752L185.879 2.72L186.407 2.48L187.639 2.544V2.656L188.023 2.736C188.269 2.736 188.429 2.816 188.503 2.976C188.503 2.944 188.509 2.90667 188.519 2.864C188.519 2.832 188.519 2.81067 188.519 2.8L188.855 3.104L189.159 3.168L189.735 3.024L189.943 3.424L190.183 3.52ZM188.663 4.352L188.599 4.24L188.471 4.208L187.975 3.808L187.655 3.76H187.399L187.367 3.728L187.239 3.776L187.095 3.696H186.679L186.727 3.76L186.359 3.888L186.295 3.968L186.247 3.984C186.055 4.144 185.922 4.27733 185.847 4.384L185.735 4.768L185.671 4.912L185.831 5.136L185.559 5.344L185.591 5.408C185.474 5.61067 185.415 5.808 185.415 6L185.287 6.16V6.448L185.159 6.592L185.127 6.736L185.079 6.768V6.992L185.031 7.072C185.031 7.2 185.021 7.30133 184.999 7.376L185.031 7.456L184.887 7.76L184.951 7.856L184.839 8.016L184.951 8.32L184.775 8.544L184.807 8.848V8.896L184.871 8.928L184.951 8.912C185.005 8.85867 185.058 8.81067 185.111 8.768L185.079 8.64L185.303 8.608L185.351 8.496L186.295 7.728L186.391 7.696L186.503 7.424C186.567 7.40267 186.658 7.36 186.775 7.296L186.871 7.04H186.999L186.951 6.768L187.175 6.736C187.197 6.69333 187.229 6.64 187.271 6.576C187.325 6.512 187.378 6.45333 187.431 6.4L188.247 5.312L188.375 5.072L188.359 5.008L188.471 4.832L188.503 4.656L188.647 4.528L188.663 4.352ZM197.571 6.976C197.785 6.73067 197.891 6.608 197.891 6.608L197.907 6.576C197.929 6.55467 197.945 6.544 197.955 6.544C197.966 6.53333 197.987 6.51733 198.019 6.496C198.03 6.47467 198.051 6.45867 198.083 6.448C198.115 6.42667 198.158 6.4 198.211 6.368C198.297 6.22933 198.409 6.12267 198.547 6.048L198.595 5.968V5.84C198.819 5.56267 199.001 5.40267 199.139 5.36C199.139 5.22133 199.283 5.088 199.571 4.96L199.811 4.624L199.891 4.384H200.051C200.073 4.288 200.105 4.21333 200.147 4.16C200.19 4.096 200.233 4.032 200.275 3.968L200.243 3.872L200.099 3.6L200.307 3.312L200.435 2.96H200.691C200.734 2.96 200.771 2.95467 200.803 2.944C200.889 2.944 201.033 2.98667 201.235 3.072L201.251 3.184L201.443 3.312L201.459 3.424L201.603 3.52L201.523 3.6C201.683 3.65333 201.763 3.728 201.763 3.824C201.763 3.87733 201.747 3.92533 201.715 3.968V4.192L201.907 4.432L201.811 4.512L201.795 4.576L201.827 4.592L201.891 4.8L202.099 4.96L201.923 5.152L201.843 5.456L201.955 5.68L201.923 5.984L202.083 6.4C202.115 6.48533 202.137 6.57067 202.147 6.656C202.158 6.73067 202.163 6.79467 202.163 6.848C202.163 6.912 202.126 6.99733 202.051 7.104C202.115 7.15733 202.147 7.21067 202.147 7.264C202.147 7.33867 202.115 7.424 202.051 7.52L202.115 7.568L202.067 8.336L202.243 8.768V9.232C202.265 9.27467 202.286 9.31733 202.307 9.36C202.339 9.40267 202.366 9.45067 202.387 9.504C202.398 9.51467 202.43 9.54667 202.483 9.6C202.547 9.65333 202.627 9.728 202.723 9.824C202.841 9.94133 202.905 10.0427 202.915 10.128C202.862 10.2667 202.659 10.3947 202.307 10.512L201.811 10.224L201.347 9.744L201.187 9.424L201.139 9.168L201.075 9.024C201.001 8.87467 200.947 8.736 200.915 8.608C200.894 8.48 200.883 8.35733 200.883 8.24C200.883 8.208 200.883 8.176 200.883 8.144C200.894 8.112 200.905 8.07467 200.915 8.032L200.947 8L200.995 7.744L200.803 7.44L200.867 7.264L200.819 7.056L200.851 6.864C200.83 6.81067 200.814 6.76267 200.803 6.72C200.803 6.66667 200.803 6.61867 200.803 6.576V6.496C200.803 6.35733 200.777 6.192 200.723 6V5.616L200.675 5.376L200.723 4.992L200.531 5.184L200.147 5.792L199.763 6.224L199.619 6.496L199.187 6.96L198.723 7.28L198.675 7.552L198.387 7.648L198.339 7.792L198.003 7.952L197.891 8.208L197.651 8.288L197.379 8.736L197.203 8.832L197.155 9.088C197.081 9.12 197.006 9.14667 196.931 9.168C196.867 9.18933 196.793 9.2 196.707 9.2H196.627L196.499 8.928L196.291 8.656L196.307 8.512L196.179 8.32L196.243 8.224L196.227 8.208L196.163 7.984L196.051 7.904C195.859 7.712 195.721 7.552 195.635 7.424L195.555 7.168L195.427 7.008L195.155 6.528L194.883 6.224L194.787 6.064L194.531 5.792L194.275 5.344C194.233 5.42933 194.211 5.504 194.211 5.568C194.211 5.62133 194.206 5.728 194.195 5.888L193.923 6.304L194.003 6.608L193.859 6.912L193.555 7.76L193.427 8.048L193.395 8.224L193.139 8.672L192.931 8.976L192.963 9.248C192.942 9.33333 192.905 9.41333 192.851 9.488C192.798 9.56267 192.745 9.64267 192.691 9.728L192.803 10.064C192.483 10.3307 192.259 10.464 192.131 10.464C191.939 10.464 191.811 10.3947 191.747 10.256C191.715 10.224 191.683 10.1867 191.651 10.144C191.63 10.112 191.614 10.0693 191.603 10.016V9.952C191.795 9.26933 191.923 8.928 191.987 8.928C191.998 8.928 192.003 8.93333 192.003 8.944V8.72C192.003 8.48533 192.105 8.304 192.307 8.176V8.096L192.387 7.824L192.371 7.728C192.371 7.70667 192.382 7.664 192.403 7.6C192.435 7.536 192.473 7.45067 192.515 7.344L192.595 7.28V6.912L192.755 6.672L192.979 5.984L192.915 5.568L193.107 5.408V5.376L193.123 4.832L193.187 4.608C193.219 4.53333 193.235 4.46933 193.235 4.416V4.352L192.963 3.92L193.043 3.648L193.155 3.632L193.267 3.488L193.251 3.376L193.475 3.216L193.587 3.264L193.795 3.136L194.003 3.152L194.387 3.392V3.488L194.531 3.568L194.707 3.888L194.691 4.064L194.707 4.16C194.739 4.18133 194.771 4.20267 194.803 4.224C194.846 4.24533 194.894 4.28267 194.947 4.336L194.963 4.528L195.123 4.656L195.219 4.928L195.891 5.504L196.035 5.84L196.259 5.952L196.515 6.496L196.979 7.216L197.043 7.408H197.123L197.235 7.184L197.571 6.976ZM209.309 8.688C209.309 8.816 209.213 8.976 209.021 9.168C208.967 9.33867 208.887 9.47733 208.781 9.584L208.685 9.6L208.509 9.904L208.221 9.952L207.917 10.144L207.757 10.432L207.581 10.4C207.463 10.4533 207.367 10.4853 207.293 10.496L207.197 10.64C207.165 10.6293 207.117 10.624 207.053 10.624C206.914 10.624 206.781 10.72 206.653 10.912L206.429 10.72C206.386 10.7307 206.322 10.736 206.237 10.736C206.098 10.736 205.981 10.7147 205.885 10.672H205.613L205.485 10.592C205.079 10.528 204.823 10.3733 204.717 10.128V10.08L204.525 9.984L204.429 9.712L204.237 9.584V9.344L204.045 8.64L204.077 8.064L204.141 7.808V7.472L204.221 7.216L204.205 7.104L204.317 6.912L204.285 6.944C204.285 6.848 204.311 6.74667 204.365 6.64V6.56L204.317 6.176C204.317 5.99467 204.397 5.83467 204.557 5.696C204.567 5.67467 204.573 5.64267 204.573 5.6C204.573 5.55733 204.551 5.472 204.509 5.344C204.477 5.20533 204.461 5.10933 204.461 5.056C204.461 4.928 204.493 4.79467 204.557 4.656C204.642 4.784 204.765 4.848 204.925 4.848H204.973C204.994 4.80533 205.042 4.75733 205.117 4.704C205.202 4.43733 205.319 4.21333 205.469 4.032L205.533 3.968C205.533 3.92533 205.565 3.80267 205.629 3.6H205.757L205.789 3.52L205.917 3.488C205.97 3.40267 206.002 3.35467 206.013 3.344C206.034 3.32267 206.151 3.25333 206.365 3.136C206.407 3.06133 206.471 2.992 206.557 2.928C206.599 2.90667 206.653 2.88533 206.717 2.864L206.781 2.768C207.069 2.672 207.25 2.624 207.325 2.624C207.41 2.624 207.49 2.64533 207.565 2.688L207.645 2.672L207.757 2.736C207.885 2.832 208.013 2.912 208.141 2.976L208.413 3.184V3.248C208.658 3.44 208.781 3.712 208.781 4.064L208.733 4.224L208.781 4.752L208.637 4.848L208.477 5.264L208.173 5.6L208.157 5.856C207.815 6.10133 207.501 6.29867 207.213 6.448C207.117 6.59733 206.967 6.672 206.765 6.672H206.717L206.413 6.864H206.157L205.773 7.024L205.485 6.88H205.453C205.431 6.96533 205.41 7.09333 205.389 7.264L205.261 7.36L205.245 7.552L205.149 7.824C205.181 8.08 205.197 8.24533 205.197 8.32L205.133 8.368C205.133 8.50667 205.127 8.608 205.117 8.672C205.117 8.68267 205.111 8.69867 205.101 8.72C205.101 8.74133 205.101 8.75733 205.101 8.768C205.101 8.85333 205.143 8.92267 205.229 8.976C205.261 9.104 205.314 9.184 205.389 9.216L205.501 9.312L205.853 9.408V9.456L205.981 9.488L206.525 9.52L206.845 9.472L207.005 9.36L207.101 9.328L207.261 9.088L207.341 9.072L207.741 8.944C207.783 8.86933 207.853 8.80533 207.949 8.752L207.997 8.672C208.21 8.62933 208.333 8.51733 208.365 8.336C208.514 8.18667 208.706 8.112 208.941 8.112H209.005C209.207 8.34667 209.309 8.53867 209.309 8.688ZM207.725 4.08C207.725 4.048 207.709 3.984 207.677 3.888L207.597 3.872L207.565 3.888C207.554 3.888 207.533 3.888 207.501 3.888C207.479 3.89867 207.458 3.904 207.437 3.904C207.426 3.904 207.41 3.89867 207.389 3.888C207.367 3.888 207.351 3.888 207.341 3.888L207.181 4L207.037 4.016L206.957 4.048L206.685 4.4L206.509 4.528L206.253 4.976L206.109 5.072C206.077 5.25333 206.002 5.408 205.885 5.536L205.821 5.648C205.938 5.57333 206.071 5.536 206.221 5.536L206.333 5.488L206.381 5.344L206.605 5.36L206.733 5.168H206.829L207.005 5.232L207.085 4.992H207.197V4.816L207.405 4.768L207.453 4.72L207.485 4.576L207.693 4.272C207.714 4.21867 207.725 4.15467 207.725 4.08ZM218.782 3.44L218.446 4.256L218.286 4.304H218.03L217.79 4.336L217.614 4.304L216.766 4.368L216.51 4.304L216.462 4.32C216.376 4.36267 216.222 4.4 215.998 4.432H215.678L215.582 4.4H215.534C215.427 4.4 215.294 4.42133 215.134 4.464C215.006 4.496 214.84 4.512 214.638 4.512L214.414 4.464L214.382 4.624H214.222L214.174 5.088L214.238 5.2L214.222 5.408V5.76C214.222 6.12267 214.184 6.368 214.11 6.496L214.222 6.656L214.126 7.04L214.222 7.152L214.062 7.376V7.488L213.982 7.632L214.046 7.936L213.998 8.496L213.918 8.752C213.928 8.76267 213.934 8.78933 213.934 8.832C213.934 8.81067 213.918 8.86933 213.886 9.008C213.886 9.01867 213.891 9.03467 213.902 9.056V9.12C213.902 9.216 213.87 9.312 213.806 9.408L213.854 9.6C213.854 9.67467 213.848 9.71733 213.838 9.728L213.822 9.76C213.811 9.792 213.8 9.824 213.79 9.856C213.79 9.87733 213.79 9.904 213.79 9.936C213.79 10.1067 213.811 10.2507 213.854 10.368C213.747 10.3893 213.635 10.4 213.518 10.4C213.411 10.4107 213.347 10.416 213.326 10.416C213.262 10.416 213.198 10.4053 213.134 10.384H213.102C212.867 10.32 212.75 10.1013 212.75 9.728C212.76 9.696 212.766 9.632 212.766 9.536C212.766 9.46133 212.755 9.36 212.734 9.232C212.712 9.09333 212.702 8.99733 212.702 8.944C212.702 8.848 212.718 8.768 212.75 8.704L212.798 8.144C212.723 8.03733 212.686 7.95733 212.686 7.904C212.686 7.91467 212.696 7.87733 212.718 7.792C212.686 7.728 212.67 7.67467 212.67 7.632C212.67 7.54667 212.691 7.488 212.734 7.456C212.734 7.40267 212.771 7.29067 212.846 7.12C212.824 7.01333 212.814 6.93333 212.814 6.88C212.878 6.88 212.91 6.848 212.91 6.784C212.91 6.76267 212.899 6.736 212.878 6.704C212.867 6.672 212.862 6.62933 212.862 6.576L212.894 6.624L212.846 6.496C212.846 6.31467 212.867 6.16533 212.91 6.048V5.664L212.846 5.376L212.91 4.912L212.846 4.624L212.862 4.496H212.67L212.51 4.576H212.414V4.624C212.211 4.624 212.024 4.608 211.854 4.576L211.806 4.688L211.278 4.512L210.574 4.496L210.126 4.624C209.944 4.464 209.806 4.304 209.71 4.144C209.624 3.97333 209.582 3.85067 209.582 3.776C209.582 3.69067 209.592 3.62667 209.614 3.584L209.918 3.312L210.174 3.328L211.086 3.504L211.326 3.424L212.014 3.44L212.558 3.504L212.91 3.376L213.038 3.024L213.582 3.152L213.598 3.136L213.63 3.168L213.822 3.408H213.87L214.062 3.344L214.462 3.44C214.664 3.408 214.819 3.38133 214.926 3.36C215.043 3.33867 215.118 3.328 215.15 3.328C215.246 3.328 215.363 3.35467 215.502 3.408H215.662C215.715 3.408 215.763 3.408 215.806 3.408C215.848 3.39733 215.88 3.392 215.902 3.392H215.998L216.462 3.328L216.862 3.408L216.91 3.424L217.118 3.36L217.406 3.424L218.078 3.408L218.382 3.44H218.782ZM226.145 3.712L226.209 3.744L226.193 3.824L226.161 3.936L226.097 4L226.017 4.224L225.873 4.288L225.761 4.592L225.585 4.8C225.543 4.88533 225.484 4.94933 225.409 4.992C225.335 5.03467 225.265 5.06667 225.201 5.088C225.191 5.09867 225.18 5.11467 225.169 5.136C225.159 5.15733 225.148 5.184 225.137 5.216C225.127 5.23733 225.116 5.25867 225.105 5.28L224.785 5.344C224.743 5.41867 224.689 5.48267 224.625 5.536V5.616L224.353 5.712L224.065 5.984L223.745 6.224C223.692 6.256 223.623 6.29867 223.537 6.352C223.452 6.39467 223.367 6.43733 223.281 6.48C223.207 6.512 223.137 6.53867 223.073 6.56C223.009 6.58133 222.977 6.58667 222.977 6.576C222.828 6.65067 222.668 6.71467 222.497 6.768C222.327 6.81067 222.151 6.85867 221.969 6.912L221.457 6.976L221.441 7.056L222.049 7.36L222.817 7.696L222.849 7.808L223.137 7.888L223.489 8.096L223.905 8.32L224.145 8.512L224.385 8.576L224.753 8.752L225.217 8.896L225.553 8.928L226.193 8.848H226.449L226.497 8.816C226.572 8.74133 226.663 8.704 226.769 8.704L226.929 8.624V8.592L227.169 8.336L227.265 8.256V8.16C227.329 8.128 227.372 8.112 227.393 8.112C227.425 8.112 227.473 8.112 227.537 8.112C227.559 8.112 227.596 8.096 227.649 8.064C227.703 8.02133 227.74 8.01067 227.761 8.032L227.969 8.144L228.113 8.4L228.161 8.704L228.017 8.944L227.617 9.44L227.297 9.68L226.897 9.888L226.481 10.032L226.097 10.112L225.985 10.08L225.809 10.128L225.553 10.096L225.249 10.144L225.169 10.096L225.121 10.112L224.897 10.08H224.577L224.369 9.888L224.033 9.824L223.969 9.728L223.857 9.76L223.553 9.488L223.265 9.392L223.121 9.216H222.673L222.577 9.04H222.449L222.369 8.912L222.145 8.832L222.113 8.848L221.857 8.576L221.633 8.416L221.377 8.176L221.121 8.016C221.068 7.97333 220.999 7.92533 220.913 7.872C220.839 7.81867 220.743 7.75467 220.625 7.68C220.583 7.59467 220.529 7.536 220.465 7.504L220.529 7.904L220.593 7.92L220.641 8.048L220.513 8.576C220.556 8.62933 220.593 8.736 220.625 8.896L220.529 9.04L220.513 9.216L220.497 9.504L220.385 9.744L220.337 10.032L220.113 10.384L219.761 10.928C219.388 10.928 219.18 10.8 219.137 10.544L219.249 10.208L219.313 9.968L219.329 9.936L219.361 9.856C219.351 9.83467 219.329 9.80267 219.297 9.76C219.276 9.70667 219.265 9.664 219.265 9.632C219.265 9.568 219.287 9.50933 219.329 9.456L219.265 9.392L219.505 9.12L219.377 8.912L219.441 8.768C219.388 8.66133 219.361 8.58667 219.361 8.544C219.361 8.48 219.383 8.4 219.425 8.304L219.457 8.224C219.447 8.11733 219.436 8.032 219.425 7.968C219.425 7.89333 219.425 7.84 219.425 7.808C219.383 7.75467 219.361 7.65867 219.361 7.52L219.409 7.472L219.313 7.232L219.441 7.12L219.409 7.088V6.736L219.329 6.304L219.457 6.224C219.447 6.192 219.441 6.11733 219.441 6V5.776H219.409L219.329 4.944C219.34 4.912 219.393 4.848 219.489 4.752C219.489 4.66667 219.495 4.61333 219.505 4.592L219.537 4.496L219.553 4.416C219.468 4.24533 219.425 4.096 219.425 3.968C219.425 3.776 219.495 3.57867 219.633 3.376C219.751 3.344 219.847 3.32267 219.921 3.312C220.007 3.30133 220.071 3.296 220.113 3.296C220.188 3.296 220.252 3.30667 220.305 3.328C220.369 3.33867 220.449 3.36533 220.545 3.408L220.913 3.776L220.849 4.08L221.009 4.224L220.913 4.4L220.977 4.592L220.769 4.864L220.865 5.232L220.737 5.568L220.625 6.176L220.833 6.16L220.929 6.096L221.265 6L221.441 5.968L221.825 5.856V5.808L222.065 5.744C222.151 5.65867 222.273 5.6 222.433 5.568L222.417 5.552C222.417 5.49867 222.545 5.46133 222.801 5.44L223.137 5.296L223.265 5.104L223.457 5.024L223.489 4.864H223.617V4.816L223.841 4.768L223.985 4.528H224.113C224.135 4.44267 224.172 4.39467 224.225 4.384C224.279 4.36267 224.348 4.336 224.433 4.304L224.513 4.192L224.545 4.032L224.785 3.968C224.849 3.79733 224.935 3.67467 225.041 3.6L225.121 3.68L225.201 3.408H225.393C225.425 3.12 225.601 2.976 225.921 2.976C225.932 2.976 226.039 3.10933 226.241 3.376L226.145 3.712ZM236.785 2.736L236.689 3.008L236.833 3.312L236.657 3.456L236.593 3.792L236.481 3.904L236.401 4.256H236.353C236.321 4.40533 236.23 4.52267 236.081 4.608L235.937 5.12L235.793 5.344C235.803 5.38667 235.809 5.456 235.809 5.552L235.553 5.776L235.185 6.624L234.753 7.12V7.28C234.753 7.42933 234.667 7.55733 234.497 7.664L234.465 7.952L234.353 8.016L234.161 8.272L234.113 8.448L233.969 8.528C233.969 8.54933 233.969 8.576 233.969 8.608C233.979 8.64 233.99 8.68267 234.001 8.736L233.825 8.88L233.537 9.056L233.441 9.216L233.121 9.552C232.875 9.95733 232.635 10.2187 232.401 10.336L232.017 10.896L231.713 11.024L231.601 11.2H231.521L231.409 11.296L231.345 11.504L231.073 11.616L230.993 11.76L230.641 11.92H230.577C230.353 12.1973 230.225 12.3413 230.193 12.352C230.171 12.3627 230.139 12.3733 230.097 12.384C230.054 12.3947 229.99 12.4053 229.905 12.416C229.851 12.5013 229.782 12.5493 229.697 12.56L229.681 12.592L229.377 12.88L229.201 12.864L229.105 12.992L228.833 13.056L228.465 13.232L227.841 13.248L227.297 13.04L227.329 12.8C227.339 12.6613 227.425 12.576 227.585 12.544C227.638 12.5227 227.707 12.4853 227.793 12.432C227.878 12.3893 227.979 12.3307 228.097 12.256L228.321 12.272L228.449 12.08C228.502 12.08 228.545 12.1067 228.577 12.16C228.694 11.9787 228.833 11.888 228.993 11.888H229.041C229.169 11.76 229.297 11.68 229.425 11.648C229.51 11.5413 229.649 11.456 229.841 11.392L229.873 11.376L229.953 11.472L229.985 11.168L230.305 10.96L230.481 10.768C230.555 10.6613 230.614 10.608 230.657 10.608C230.678 10.6293 230.689 10.6453 230.689 10.656L230.785 10.48L231.153 10.112C231.163 10.0907 231.19 10.0587 231.233 10.016L230.609 9.296L230.577 9.104L230.481 9.04L230.465 8.656L230.289 8.48V8.08L229.873 7.152L229.905 6.992L229.777 6.768L229.745 6.592L229.665 6.48L229.553 6.192L229.265 5.968L229.137 5.44L228.913 5.248L228.881 5.008C228.625 4.93333 228.497 4.71467 228.497 4.352C228.497 4.04267 228.726 3.80267 229.185 3.632C229.771 4.02667 230.118 4.42133 230.225 4.816L230.273 5.184C230.294 5.17333 230.321 5.16267 230.353 5.152C230.395 5.14133 230.443 5.13067 230.497 5.12V5.264L230.753 5.456L230.657 5.712L230.689 5.904L230.833 6.288L230.913 6.368L230.929 6.512L231.057 6.576V6.848L231.233 7.472L231.265 7.712L231.521 8.224L231.729 8.848L231.969 9.104H232.001C232.043 9.104 232.081 9.06133 232.113 8.976L232.241 8.928L232.193 8.8C232.225 8.736 232.262 8.704 232.305 8.704C232.326 8.704 232.358 8.68267 232.401 8.64C232.443 8.58667 232.475 8.57067 232.497 8.592L232.513 8.336C232.534 8.336 232.571 8.304 232.625 8.24C232.678 8.176 232.747 8.11733 232.833 8.064L233.041 7.76L233.169 7.44L233.329 7.312L233.425 7.104L233.489 7.056L233.457 6.848L233.633 6.768L233.665 6.688C233.665 6.656 233.691 6.59733 233.745 6.512L233.857 6.224L233.937 6.32L234.001 6.288V6.24C234.001 6.10133 234.059 5.984 234.177 5.888V5.856L234.289 5.648L234.369 5.296L234.481 5.264L234.689 4.768L234.833 4.576C234.865 4.416 234.939 4.29333 235.057 4.208L235.201 3.76L235.313 3.616V3.28H235.393C235.457 3.23733 235.515 3.17867 235.569 3.104C235.622 3.02933 235.67 2.96 235.713 2.896C235.755 2.82133 235.793 2.75733 235.825 2.704C235.857 2.64 235.883 2.59733 235.905 2.576L235.985 2.528L236.433 2.256L236.785 2.736Z" fill="#EFBB45"/>
</svg>
