<svg width="124" height="24" viewBox="0 0 124 24" fill="none" xmlns="http://www.w3.org/2000/svg">
<path d="M12.8129 4.118L12.6089 4.288C12.6429 4.33333 12.7053 4.41267 12.7959 4.526L12.1499 4.934H12.0819C12.0253 4.934 11.9516 4.917 11.8609 4.883L11.6569 5.053L11.3679 5.019L11.0619 5.274L10.7729 5.104L10.4159 5.206L10.0759 5.41C10.0533 5.39867 10.0249 5.393 9.99094 5.393C9.90027 5.393 9.84927 5.42133 9.83794 5.478L9.70194 6.039C9.74727 6.11833 9.76994 6.18633 9.76994 6.243C9.76994 6.32233 9.75294 6.40733 9.71894 6.498L9.66794 6.634L9.73594 6.668C9.73594 6.86067 9.69061 7.03067 9.59994 7.178C9.66794 7.33667 9.71327 7.46133 9.73594 7.552L9.58294 7.671L9.59994 8.283L9.44694 9.167L9.42994 9.337C9.45261 9.473 9.46394 9.56367 9.46394 9.609V9.694L9.53194 9.864L9.54894 10.17C9.53761 10.2267 9.50927 10.3117 9.46394 10.425C9.45261 10.8103 9.17494 11.0143 8.63094 11.037L8.59694 10.663L8.46094 10.442L8.35894 10.136V9.541L8.23994 9.184L8.29094 9.15L8.23994 8.895V8.47L8.29094 7.807L8.25694 7.212L8.35894 6.872V6.481C8.35894 6.40167 8.37027 6.294 8.39294 6.158C8.42694 6.022 8.44394 5.92 8.44394 5.852C8.44394 5.73867 8.40994 5.631 8.34194 5.529L8.30794 5.478L8.25694 5.512L8.03594 5.444C7.83194 5.50067 7.63927 5.529 7.45794 5.529C7.33327 5.529 7.24261 5.52333 7.18594 5.512L6.45494 5.733L5.67294 5.648C5.46894 5.62533 5.32727 5.614 5.24794 5.614C5.10061 5.614 4.89661 5.65367 4.63594 5.733H4.56794L4.17694 5.903L3.90494 5.716L3.47994 5.801L3.42894 5.767L3.36094 5.801L3.02094 5.784L2.98694 5.92L2.51094 5.733C2.31827 5.75567 2.17661 5.77267 2.08594 5.784V6.566L2.03494 6.957L2.11994 7.28L1.98394 7.535L2.10294 7.773L1.98394 8.504L2.05194 8.725L2.01794 9.133L2.17094 9.473L2.10294 9.626L2.13694 9.83C2.12561 10.0793 1.98394 10.204 1.71194 10.204C1.24727 10.204 1.01494 9.78467 1.01494 8.946L0.77694 8.657L0.69194 8.453C0.69194 8.30567 0.72594 8.181 0.79394 8.079L0.82794 7.79L0.77694 7.62L0.69194 6.294V5.937L0.65794 5.886L0.31794 5.699L0.26694 4.866L0.74294 4.594C0.799607 4.41267 0.82794 4.186 0.82794 3.914C0.82794 3.65333 0.799607 3.43233 0.74294 3.251L0.84494 3.302L0.82794 3.064L0.92994 2.707L0.82794 2.112V1.721L0.94694 1.126L1.60994 0.768999L1.93294 1.007L2.28994 1.126L2.34094 1.5L2.49394 1.721C2.43727 1.87967 2.38627 2.044 2.34094 2.214C2.37494 2.39533 2.39194 2.588 2.39194 2.792C2.39194 3.10933 2.35227 3.421 2.27294 3.727L2.42594 4.05L2.25594 4.288V4.492L2.40894 4.543L2.81694 4.492L3.10594 4.526L3.56494 4.475L3.70094 4.526C3.75761 4.51467 3.81994 4.509 3.88794 4.509C3.93327 4.509 4.00127 4.52033 4.09194 4.543L4.12594 4.56H4.38094C4.39227 4.56 4.47727 4.55433 4.63594 4.543C4.80594 4.53167 4.97594 4.526 5.14594 4.526L5.41794 4.356L5.67294 4.509L5.92794 4.526L6.01294 4.543C6.10361 4.52033 6.17727 4.509 6.23394 4.509H6.31894L8.12094 4.322L8.37594 4.339L8.46094 4.288L8.37594 3.999L8.46094 3.744L8.34194 3.047L8.46094 2.826L8.15494 2.01L8.12094 1.891L8.05294 1.806C8.06427 1.78333 8.08694 1.73233 8.12094 1.653C8.14361 1.60767 8.15494 1.585 8.15494 1.585V1.517C8.15494 1.42633 8.24561 1.34133 8.42694 1.262L8.59694 0.785999L9.07294 0.871L9.27694 0.989999L9.75294 0.888V1.126L9.95694 1.075V1.874L9.87194 2.01L10.0079 2.35V2.571L10.0929 2.843L9.95694 3.166L10.0079 3.387L9.92294 4.169V4.288L10.2799 4.271L10.9429 4.118L11.2659 4.152L11.4699 4.118H11.8439C11.9346 4.07267 12.0309 4.05 12.1329 4.05C12.2009 4.05 12.2859 4.07267 12.3879 4.118H12.8129ZM19.3605 3.115L19.1905 3.336L19.3265 3.744L19.1055 3.999L19.0205 4.356L18.9695 4.441L19.0035 4.526C19.0035 4.68467 18.9638 4.80367 18.8845 4.883L18.8505 4.934V5.002C18.8845 5.08133 18.9015 5.155 18.9015 5.223C18.9015 5.27967 18.8958 5.31933 18.8845 5.342L18.9015 5.41L18.8335 5.597L18.8845 5.801L18.7485 5.937L18.7995 6.175L18.9015 6.294L18.7485 6.43V6.702L18.6295 6.974L18.7145 7.246L18.6125 7.382L18.7825 7.501L18.5445 7.892L18.5275 7.943L18.6975 7.977L18.5785 8.368V8.436C18.5785 8.51533 18.5728 8.57767 18.5615 8.623L18.5785 8.674L18.8505 8.708L19.0715 9.048L18.9525 9.303L19.1395 9.286C19.2075 9.422 19.2471 9.541 19.2585 9.643L19.0035 9.898C18.9241 9.97733 18.8108 10.0567 18.6635 10.136L18.3745 10.289L18.2895 10.204L18.1195 10.306L17.5925 9.694V9.405C17.5245 9.17833 17.4905 8.96867 17.4905 8.776V8.674L17.3885 7.671L17.5245 6.957L17.4225 6.549L17.1335 7.025L16.9805 7.467L16.8445 7.535L16.6065 7.909L16.1815 8.3L16.0625 8.504L15.6885 8.827L15.6035 9.048L15.0595 9.388L14.4815 10.034L14.1585 10.102L13.9375 10.272C13.6541 10.2607 13.4388 10.153 13.2915 9.949C12.7815 9.69967 12.5151 9.34267 12.4925 8.878L12.5775 8.827L12.5605 8.725L12.5435 8.521L12.4415 8.3L12.5435 8.062L12.5775 7.705L12.6965 7.144C12.6965 7.13267 12.6965 7.11 12.6965 7.076C12.6851 7.05333 12.6795 7.03067 12.6795 7.008C12.6795 6.96267 12.6908 6.906 12.7135 6.838C12.7021 6.81533 12.6965 6.77 12.6965 6.702C12.6965 6.62267 12.7305 6.49233 12.7985 6.311L12.9175 6.26C12.8495 6.20333 12.8155 6.141 12.8155 6.073C12.8155 6.02767 12.8211 5.99367 12.8325 5.971C12.8211 5.937 12.8155 5.89733 12.8155 5.852C12.8155 5.716 12.8835 5.614 13.0195 5.546C13.0535 5.43267 13.1158 5.31933 13.2065 5.206L13.1215 5.07L13.3255 4.815V4.747C13.3255 4.53167 13.3991 4.33333 13.5465 4.152L13.5295 3.846L13.5975 3.778C13.5975 3.76667 13.5975 3.74967 13.5975 3.727C13.5861 3.70433 13.5805 3.68733 13.5805 3.676C13.5805 3.608 13.6031 3.55133 13.6485 3.506V3.404C13.6938 3.29067 13.8128 3.12067 14.0055 2.894C14.1981 2.66733 14.3398 2.469 14.4305 2.299L14.5155 2.384L14.7025 2.299L14.7875 2.265L15.3485 2.01L16.6575 2.078V2.197L17.0655 2.282C17.3261 2.282 17.4961 2.367 17.5755 2.537C17.5755 2.503 17.5811 2.46333 17.5925 2.418C17.5925 2.384 17.5925 2.36133 17.5925 2.35L17.9495 2.673L18.2725 2.741L18.8845 2.588L19.1055 3.013L19.3605 3.115ZM17.7455 3.999L17.6775 3.88L17.5415 3.846L17.0145 3.421L16.6745 3.37H16.4025L16.3685 3.336L16.2325 3.387L16.0795 3.302H15.6375L15.6885 3.37L15.2975 3.506L15.2295 3.591L15.1785 3.608C14.9745 3.778 14.8328 3.91967 14.7535 4.033L14.6345 4.441L14.5665 4.594L14.7365 4.832L14.4475 5.053L14.4815 5.121C14.3568 5.33633 14.2945 5.546 14.2945 5.75L14.1585 5.92V6.226L14.0225 6.379L13.9885 6.532L13.9375 6.566V6.804L13.8865 6.889C13.8865 7.025 13.8751 7.13267 13.8525 7.212L13.8865 7.297L13.7335 7.62L13.8015 7.722L13.6825 7.892L13.8015 8.215L13.6145 8.453L13.6485 8.776V8.827L13.7165 8.861L13.8015 8.844C13.8581 8.78733 13.9148 8.73633 13.9715 8.691L13.9375 8.555L14.1755 8.521L14.2265 8.402L15.2295 7.586L15.3315 7.552L15.4505 7.263C15.5185 7.24033 15.6148 7.195 15.7395 7.127L15.8415 6.855H15.9775L15.9265 6.566L16.1645 6.532C16.1871 6.48667 16.2211 6.43 16.2665 6.362C16.3231 6.294 16.3798 6.23167 16.4365 6.175L17.3035 5.019L17.4395 4.764L17.4225 4.696L17.5415 4.509L17.5755 4.322L17.7285 4.186L17.7455 3.999ZM21.9952 3.676L22.1142 3.081C22.1595 3.00167 22.2332 2.92233 22.3352 2.843C22.4372 2.76367 22.5845 2.724 22.7772 2.724L23.0492 2.928L23.5082 2.843L23.8652 2.962C23.9672 2.93933 24.0635 2.945 24.1542 2.979C24.2449 3.013 24.3355 3.03 24.4262 3.03C24.5735 3.03 24.6642 3.03567 24.6982 3.047L24.7492 2.826L25.1912 2.911C25.2932 2.92233 25.3782 2.93367 25.4462 2.945C25.5142 2.945 25.5709 2.945 25.6162 2.945C25.7862 2.945 25.9902 2.90533 26.2282 2.826H26.2962L26.6872 2.656L26.9592 2.843L27.3842 2.758L27.4352 2.792L27.5032 2.758L27.8432 2.775L27.8772 2.639L28.3532 2.826L28.7272 2.792L28.7442 2.741L29.2202 2.826L29.4242 2.945L29.6792 2.877C29.8265 2.86567 29.9399 2.89967 30.0192 2.979C30.1099 3.05833 30.1552 3.13767 30.1552 3.217L30.1042 3.829L30.0192 3.931L30.1552 4.186V4.339L30.2402 4.543L30.1042 4.764L30.1552 4.934L30.0702 5.495V5.58L29.9852 5.835L29.8832 5.988L30.0022 6.124C29.9909 6.13533 29.9852 6.158 29.9852 6.192C29.9852 6.226 29.9795 6.27133 29.9682 6.328C29.9569 6.38467 29.9625 6.41867 29.9852 6.43L29.8492 6.838C29.8945 6.89467 29.9172 6.94567 29.9172 6.991C29.9172 7.04767 29.9002 7.11 29.8662 7.178L29.8152 7.263L29.8832 7.297C29.8832 7.42167 29.8379 7.54067 29.7472 7.654C29.8265 7.79 29.8719 7.88633 29.8832 7.943L29.7302 8.028L29.7472 8.47L29.5942 9.099L29.5772 9.218C29.5885 9.27467 29.5942 9.32 29.5942 9.354C29.6055 9.37667 29.6112 9.39933 29.6112 9.422V9.49L29.6792 9.609L29.6962 9.83C29.6849 9.85267 29.6735 9.881 29.6622 9.915C29.6509 9.93767 29.6339 9.97167 29.6112 10.017C29.5885 10.3003 29.3109 10.442 28.7782 10.442L28.7442 10.187L28.6082 10.034L28.5062 9.796V9.388L28.3872 9.116L28.4382 9.099L28.3872 8.912V8.606L28.4382 8.13L28.4042 7.688L28.5062 7.45V7.178C28.5062 7.12133 28.5175 7.042 28.5402 6.94C28.5742 6.838 28.5912 6.75867 28.5912 6.702L28.4892 6.481L28.5232 6.158L28.4892 5.937L28.6592 5.801C28.6252 5.733 28.6082 5.67633 28.6082 5.631V5.597L28.5232 5.359L28.6082 5.189L28.4892 4.679L28.6082 4.475L28.7442 3.965L28.0472 4.016L27.7582 3.982L27.2992 4.033L27.1632 3.982C27.1292 3.99333 27.0669 3.999 26.9762 3.999C26.9535 3.999 26.8855 3.98767 26.7722 3.965L26.7382 3.948H26.4832C26.4719 3.948 26.3812 3.95367 26.2112 3.965C26.0525 3.97633 25.8882 3.982 25.7182 3.982L25.4462 4.152L25.1912 3.999L24.9362 3.982L24.8512 3.965C24.7379 3.98767 24.6642 3.999 24.6302 3.999H24.5452L23.8142 4.084L23.4402 3.948L23.4572 4.084C23.4685 4.152 23.4799 4.22 23.4912 4.288C23.5025 4.356 23.5082 4.424 23.5082 4.492C23.5082 4.74133 23.4685 4.968 23.3892 5.172L23.5422 5.41L23.3722 5.58V5.733L23.4232 5.835C23.4232 5.971 23.3779 6.09567 23.2872 6.209C23.3552 6.32233 23.4005 6.413 23.4232 6.481L23.2532 6.668V7.229L23.2022 7.501L23.2872 7.739L23.1512 7.926L23.2702 8.096L23.1512 8.623L23.2192 8.793L23.1852 9.082L23.1682 9.269L23.1002 9.388L23.1342 9.524C23.1115 9.694 22.9699 9.779 22.7092 9.779C22.2445 9.779 22.0122 9.48433 22.0122 8.895L21.9442 8.725L21.8592 8.589C21.8592 8.49833 21.8932 8.40767 21.9612 8.317L21.9952 8.113L21.9442 7.977L21.8592 7.025V6.77L21.8252 6.736L21.8932 6.481L21.9272 6.141L21.9102 5.801C21.9669 5.65367 21.9952 5.48933 21.9952 5.308C21.9952 5.12667 21.9669 4.968 21.9102 4.832L22.0122 4.866L21.9952 4.696L22.0972 4.441L21.9952 3.999V3.676ZM38.2928 6.022L38.1908 6.328C38.1908 6.62267 38.1738 6.855 38.1398 7.025L38.0378 7.195V7.382L37.9528 7.501L37.9018 7.739L37.7148 7.926L37.5958 8.351L37.4598 8.402L37.3918 8.589L37.1878 8.708L37.0518 8.997L36.8478 9.099L36.8308 9.303L36.5078 9.422C36.3604 9.626 36.1791 9.75633 35.9638 9.813L35.8958 9.83C35.7371 10.068 35.5274 10.187 35.2668 10.187C35.1534 10.255 35.0231 10.289 34.8758 10.289L34.7058 10.408L34.5358 10.459L34.3148 10.629L34.0938 10.612L33.8558 10.68L33.5668 10.561L32.8358 10.51L32.5808 10.119L32.2068 9.728L32.2918 9.456L32.0368 8.878L32.1558 8.657L32.0708 8.249L32.1558 7.994C32.1331 7.83533 32.1218 7.722 32.1218 7.654C32.1218 7.43867 32.1784 7.28 32.2918 7.178C32.3031 7.06467 32.3768 6.87767 32.5128 6.617H32.5978L32.5638 6.498L32.6148 6.26V6.005C32.7054 5.903 32.7564 5.835 32.7678 5.801L32.7168 5.563V5.495C32.7961 5.33633 32.8358 5.172 32.8358 5.002L33.1928 4.509C33.1928 4.509 33.2041 4.49767 33.2268 4.475C33.2608 4.45233 33.2891 4.42967 33.3118 4.407L33.2948 4.339H33.3628L33.6178 4.05L33.6348 3.659L34.0598 3.506C34.2184 3.404 34.3204 3.234 34.3658 2.996H34.5868C34.7114 2.928 34.8248 2.894 34.9268 2.894C35.0288 2.894 35.1251 2.91667 35.2158 2.962L35.4028 2.979L35.8448 2.809L36.0828 3.03L36.2698 3.149H36.4058L36.6608 3.285H36.7968C36.9441 3.421 37.1141 3.608 37.3068 3.846L37.3408 3.931L37.4598 3.999L37.8168 4.458L38.1398 5.257V5.427L38.2928 6.022ZM37.1708 6.43L37.1538 6.345C37.0744 6.26567 37.0291 6.18067 37.0178 6.09L37.0688 6.005L36.9158 5.682L36.9498 5.359L36.8818 5.274C36.7344 5.16067 36.6551 5.07 36.6438 5.002C36.5418 4.95667 36.4908 4.84333 36.4908 4.662L36.3888 4.645L36.1848 4.305L36.0318 4.186L35.6748 4.05L35.5388 4.016C35.4708 4.016 35.4254 3.99333 35.4028 3.948L35.0628 4.322L34.8418 4.798L34.4848 4.985L34.4338 5.172L34.2638 5.257L34.1958 5.699L33.9918 5.801C33.9464 5.95967 33.9238 6.107 33.9238 6.243L33.6518 6.498L33.7368 6.549C33.7368 6.685 33.6858 6.804 33.5838 6.906C33.5498 7.008 33.5044 7.12133 33.4478 7.246V7.382L33.3968 7.45L33.4138 7.654L33.2268 8.113L33.2608 8.198V8.674L33.1928 8.912L33.2098 9.15L33.3628 9.371L33.6008 9.456L33.6858 9.49L33.8218 9.422L34.2638 9.456L34.3318 9.286H34.3998C34.4678 9.286 34.5074 9.303 34.5188 9.337L34.6718 9.286L34.8078 9.337L35.0288 9.184L35.0628 9.133L35.2158 9.099C35.2951 8.97433 35.4821 8.84967 35.7768 8.725L35.8108 8.64L36.1508 8.402L36.3378 8.13L36.6098 7.994L36.6268 7.909L36.7118 7.722V7.501L36.9158 7.331L36.9838 7.212L37.0688 7.11C37.0234 6.974 37.0008 6.87767 37.0008 6.821C37.0008 6.719 37.0348 6.61133 37.1028 6.498L37.1708 6.43ZM45.4344 6.787C45.661 6.52633 45.7744 6.396 45.7744 6.396L45.7914 6.362C45.814 6.33933 45.831 6.328 45.8424 6.328C45.8537 6.31667 45.8764 6.29967 45.9104 6.277C45.9217 6.25433 45.9444 6.23733 45.9784 6.226C46.0124 6.20333 46.0577 6.175 46.1144 6.141C46.205 5.99367 46.324 5.88033 46.4714 5.801L46.5224 5.716V5.58C46.7604 5.28533 46.953 5.11533 47.1004 5.07C47.1004 4.92267 47.2534 4.781 47.5594 4.645L47.8144 4.288L47.8994 4.033H48.0694C48.092 3.931 48.126 3.85167 48.1714 3.795C48.2167 3.727 48.262 3.659 48.3074 3.591L48.2734 3.489L48.1204 3.2L48.3414 2.894L48.4774 2.52H48.7494C48.7947 2.52 48.8344 2.51433 48.8684 2.503C48.959 2.503 49.112 2.54833 49.3274 2.639L49.3444 2.758L49.5484 2.894L49.5654 3.013L49.7184 3.115L49.6334 3.2C49.8034 3.25667 49.8884 3.336 49.8884 3.438C49.8884 3.49467 49.8714 3.54567 49.8374 3.591V3.829L50.0414 4.084L49.9394 4.169L49.9224 4.237L49.9564 4.254L50.0244 4.475L50.2454 4.645L50.0584 4.849L49.9734 5.172L50.0924 5.41L50.0584 5.733L50.2284 6.175C50.2624 6.26567 50.285 6.35633 50.2964 6.447C50.3077 6.52633 50.3134 6.59433 50.3134 6.651C50.3134 6.719 50.2737 6.80967 50.1944 6.923C50.2624 6.97967 50.2964 7.03633 50.2964 7.093C50.2964 7.17233 50.2624 7.263 50.1944 7.365L50.2624 7.416L50.2114 8.232L50.3984 8.691V9.184C50.421 9.22933 50.4437 9.27467 50.4664 9.32C50.5004 9.36533 50.5287 9.41633 50.5514 9.473C50.5627 9.48433 50.5967 9.51833 50.6534 9.575C50.7214 9.63167 50.8064 9.711 50.9084 9.813C51.033 9.93767 51.101 10.0453 51.1124 10.136C51.0557 10.2833 50.8404 10.4193 50.4664 10.544L49.9394 10.238L49.4464 9.728L49.2764 9.388L49.2254 9.116L49.1574 8.963C49.078 8.80433 49.0214 8.657 48.9874 8.521C48.9647 8.385 48.9534 8.25467 48.9534 8.13C48.9534 8.096 48.9534 8.062 48.9534 8.028C48.9647 7.994 48.976 7.95433 48.9874 7.909L49.0214 7.875L49.0724 7.603L48.8684 7.28L48.9364 7.093L48.8854 6.872L48.9194 6.668C48.8967 6.61133 48.8797 6.56033 48.8684 6.515C48.8684 6.45833 48.8684 6.40733 48.8684 6.362V6.277C48.8684 6.12967 48.84 5.954 48.7834 5.75V5.342L48.7324 5.087L48.7834 4.679L48.5794 4.883L48.1714 5.529L47.7634 5.988L47.6104 6.277L47.1514 6.77L46.6584 7.11L46.6074 7.399L46.3014 7.501L46.2504 7.654L45.8934 7.824L45.7744 8.096L45.5194 8.181L45.2304 8.657L45.0434 8.759L44.9924 9.031C44.913 9.065 44.8337 9.09333 44.7544 9.116C44.6864 9.13867 44.607 9.15 44.5164 9.15H44.4314L44.2954 8.861L44.0744 8.572L44.0914 8.419L43.9554 8.215L44.0234 8.113L44.0064 8.096L43.9384 7.858L43.8194 7.773C43.6154 7.569 43.468 7.399 43.3774 7.263L43.2924 6.991L43.1564 6.821L42.8674 6.311L42.5784 5.988L42.4764 5.818L42.2044 5.529L41.9324 5.053C41.887 5.14367 41.8644 5.223 41.8644 5.291C41.8644 5.34767 41.8587 5.461 41.8474 5.631L41.5584 6.073L41.6434 6.396L41.4904 6.719L41.1674 7.62L41.0314 7.926L40.9974 8.113L40.7254 8.589L40.5044 8.912L40.5384 9.201C40.5157 9.29167 40.476 9.37667 40.4194 9.456C40.3627 9.53533 40.306 9.62033 40.2494 9.711L40.3684 10.068C40.0284 10.3513 39.7904 10.493 39.6544 10.493C39.4504 10.493 39.3144 10.4193 39.2464 10.272C39.2124 10.238 39.1784 10.1983 39.1444 10.153C39.1217 10.119 39.1047 10.0737 39.0934 10.017V9.949C39.2974 9.22367 39.4334 8.861 39.5014 8.861C39.5127 8.861 39.5184 8.86667 39.5184 8.878V8.64C39.5184 8.39067 39.626 8.198 39.8414 8.062V7.977L39.9264 7.688L39.9094 7.586C39.9094 7.56333 39.9207 7.518 39.9434 7.45C39.9774 7.382 40.017 7.29133 40.0624 7.178L40.1474 7.11V6.719L40.3174 6.464L40.5554 5.733L40.4874 5.291L40.6914 5.121V5.087L40.7084 4.509L40.7764 4.271C40.8104 4.19167 40.8274 4.12367 40.8274 4.067V3.999L40.5384 3.54L40.6234 3.251L40.7424 3.234L40.8614 3.081L40.8444 2.962L41.0824 2.792L41.2014 2.843L41.4224 2.707L41.6434 2.724L42.0514 2.979V3.081L42.2044 3.166L42.3914 3.506L42.3744 3.693L42.3914 3.795C42.4254 3.81767 42.4594 3.84033 42.4934 3.863C42.5387 3.88567 42.5897 3.92533 42.6464 3.982L42.6634 4.186L42.8334 4.322L42.9354 4.611L43.6494 5.223L43.8024 5.58L44.0404 5.699L44.3124 6.277L44.8054 7.042L44.8734 7.246H44.9584L45.0774 7.008L45.4344 6.787ZM54.3223 8.368L54.4583 8.895L54.5773 8.725L54.9513 8.283L55.4783 8.028C55.535 7.892 55.6256 7.79 55.7503 7.722C55.8863 7.64267 56.0166 7.57467 56.1413 7.518L57.1273 6.617L57.5863 6.073L57.9943 5.784L58.0113 5.699C58.034 5.60833 58.0906 5.563 58.1813 5.563C58.272 5.55167 58.3456 5.53467 58.4023 5.512L58.7423 5.002L58.7933 4.9L59.4223 4.526L60.0853 3.642L60.3573 3.489L60.4423 3.268L60.6803 3.149C60.737 3.047 60.8333 2.93367 60.9693 2.809C61.1166 2.68433 61.2526 2.59367 61.3773 2.537L61.5133 2.69L61.6663 2.656C61.9156 2.67867 62.0346 2.76367 62.0233 2.911C62.0573 2.96767 62.0743 3.03 62.0743 3.098C62.0743 3.15467 62.046 3.22267 61.9893 3.302L61.9213 4.135L61.8533 4.271L61.8703 4.679L61.7853 5.172L61.8193 5.852L61.6663 6.124L61.9043 6.549L61.7683 6.957L61.8533 7.195L61.9383 7.365L61.8873 7.807V7.96C61.8986 7.994 61.9043 8.028 61.9043 8.062C61.9043 8.08467 61.9043 8.10733 61.9043 8.13L61.8533 8.232L61.7343 8.368C61.7456 8.39067 61.7513 8.436 61.7513 8.504C61.7513 8.56067 61.74 8.606 61.7173 8.64C61.706 8.66267 61.6946 8.68533 61.6833 8.708L61.7853 8.929L61.6493 9.167L61.7853 9.66C61.7513 9.864 61.655 10.017 61.4963 10.119C61.349 10.221 61.1846 10.272 61.0033 10.272H60.6973C60.6406 10.1813 60.584 10.0907 60.5273 10C60.482 9.898 60.4536 9.79033 60.4423 9.677C60.4423 9.63167 60.4593 9.58067 60.4933 9.524L60.3233 9.286L60.4423 9.082L60.4253 8.793L60.4763 8.47L60.3233 7.96L60.4763 7.926C60.4536 7.88067 60.4423 7.83533 60.4423 7.79C60.4536 7.73333 60.4593 7.67667 60.4593 7.62C60.4593 7.50667 60.499 7.416 60.5783 7.348L60.6293 7.144L60.4763 6.43L60.5273 6.005L60.4423 5.393L60.5783 5.24L60.6293 4.917L60.6803 4.662L60.5953 4.645L60.1703 5.223L59.8473 5.461L59.6603 5.682C59.5696 5.80667 59.4676 5.92567 59.3543 6.039C59.241 6.15233 59.122 6.25433 58.9973 6.345L58.8103 6.617L58.5383 6.685L58.0623 7.365L57.4163 7.892L57.1443 8.164L56.9403 8.283L56.6683 8.521L56.2603 8.725L56.1923 8.861L54.9683 9.762L54.8833 9.779L54.7643 10C54.7076 10.0113 54.6453 10.034 54.5773 10.068C54.5206 10.1133 54.4583 10.1417 54.3903 10.153L54.3053 10.221H54.2883V10.34L53.3363 10.578L53.1663 10.357L52.9113 10.17L53.2003 9.864L53.0303 9.235L53.0813 9.184L52.9963 8.997L53.3363 8.827L53.0813 8.504L53.3023 8.147L53.2343 7.841L53.2513 7.62L53.1663 7.144L53.3023 6.974L53.1663 6.43L53.2853 6.277L53.0983 6.005L53.2003 5.342L53.1663 5.274C53.0756 5.19467 53.0246 4.92267 53.0133 4.458L52.9963 4.407L53.0473 4.084L52.9963 3.88C53.019 3.78933 53.07 3.693 53.1493 3.591C53.206 3.57967 53.2343 3.54567 53.2343 3.489C53.2343 3.43233 53.2513 3.37567 53.2853 3.319C53.3193 3.251 53.325 3.17167 53.3023 3.081L53.8463 3.013L53.9313 2.86L54.7813 3.183L54.6793 3.336L54.8663 3.506L54.6623 3.625L54.8493 4.169L54.6113 4.356V5.172L54.4923 5.631L54.6453 6.192L54.3903 6.413V6.464L54.5433 6.685L54.5263 7.45L54.4583 7.501L54.5773 7.773L54.3223 8.368ZM74.9291 5.121L74.7421 5.257L74.8951 5.563L74.3171 5.903H74.2491C74.1924 5.903 74.1301 5.886 74.0621 5.852L73.8751 5.988L73.6201 5.971L73.3311 6.175L73.0761 6.039L72.7361 6.124L72.4131 6.294C72.4131 6.28267 72.3904 6.277 72.3451 6.277C72.2771 6.277 72.2318 6.29967 72.2091 6.345L72.0731 6.719C72.1298 6.77567 72.1581 6.83233 72.1581 6.889C72.1581 6.96833 72.1354 7.03633 72.0901 7.093L72.0561 7.212L72.1241 7.229C72.1241 7.30833 72.1071 7.38767 72.0731 7.467C72.0504 7.535 72.0221 7.59733 71.9881 7.654C72.0221 7.722 72.0448 7.78433 72.0561 7.841C72.0788 7.88633 72.1014 7.926 72.1241 7.96L71.9711 8.062L71.9881 8.572L71.8521 9.303L71.8351 9.456C71.8464 9.51267 71.8521 9.558 71.8521 9.592C71.8634 9.626 71.8691 9.65433 71.8691 9.677V9.745L71.9371 9.881L71.9541 10.136C71.9428 10.1587 71.9314 10.187 71.9201 10.221C71.9088 10.255 71.8918 10.3003 71.8691 10.357C71.8578 10.5157 71.7784 10.6347 71.6311 10.714C71.4838 10.8047 71.2798 10.8557 71.0191 10.867L70.9851 10.544L70.8661 10.374L70.7811 10.119V9.626L70.6621 9.32L70.6961 9.303L70.6621 9.082V8.725L70.6961 8.181L70.6791 7.688L70.7811 7.399V7.076C70.7811 7.01933 70.7924 6.95133 70.8151 6.872C70.8378 6.78133 70.8491 6.70767 70.8491 6.651C70.8491 6.57167 70.8208 6.48667 70.7641 6.396L70.7301 6.345L70.6791 6.379L70.4751 6.328C70.3844 6.35067 70.2938 6.36767 70.2031 6.379C70.1238 6.39033 70.0388 6.396 69.9481 6.396C69.8914 6.396 69.8404 6.396 69.7951 6.396C69.7498 6.396 69.7158 6.39033 69.6931 6.379L69.4721 6.566L69.0131 6.498C68.9224 6.48667 68.8431 6.481 68.7751 6.481C68.7071 6.46967 68.6561 6.464 68.6221 6.464C68.4634 6.464 68.2764 6.498 68.0611 6.566H67.9931L67.6191 6.702L67.3811 6.549L66.9901 6.617L66.9561 6.583L66.8881 6.617L66.5821 6.6L66.5481 6.719L66.1061 6.566L65.7151 6.6V7.144L65.6811 7.467L65.7491 7.739L65.6301 7.96L65.7321 8.147L65.6301 8.759L65.6981 8.946L65.6641 9.286L65.8171 9.558L65.7321 9.694L65.7661 9.864C65.7434 10.068 65.6131 10.17 65.3751 10.17C65.1711 10.17 65.0011 10.085 64.8651 9.915C64.7291 9.73367 64.6611 9.473 64.6611 9.133L64.4401 8.878L64.3551 8.708C64.3551 8.65133 64.3664 8.60033 64.3891 8.555C64.4118 8.49833 64.4344 8.44733 64.4571 8.402L64.4911 8.164L64.4401 8.028L64.3551 6.923V6.736L64.3381 6.685L63.9301 6.396L63.9811 5.733L64.4231 5.461C64.4458 5.38167 64.4628 5.29667 64.4741 5.206C64.4854 5.11533 64.4911 5.01333 64.4911 4.9C64.4911 4.78667 64.4854 4.696 64.4741 4.628C64.4628 4.56 64.4458 4.48067 64.4231 4.39L64.5081 4.441L64.4911 4.237L64.5931 3.948L64.4911 3.455V3.132L64.6101 2.639L65.2901 2.333L65.5791 2.537L65.9021 2.639L65.9531 2.945L66.0891 3.132L65.9531 3.54C65.9758 3.61933 65.9871 3.69867 65.9871 3.778C65.9984 3.846 66.0041 3.92533 66.0041 4.016C66.0041 4.152 65.9984 4.288 65.9871 4.424C65.9758 4.54867 65.9474 4.67333 65.9021 4.798L66.0381 5.019L65.8851 5.206V5.376L66.0211 5.427L66.3951 5.376L66.6501 5.41L67.0751 5.359L67.1091 5.41C67.1318 5.39867 67.1714 5.393 67.2281 5.393C67.2961 5.393 67.3414 5.393 67.3641 5.393C67.3981 5.393 67.4604 5.40433 67.5511 5.427H67.5851H67.8061C67.8174 5.427 67.8854 5.427 68.0101 5.427C68.1348 5.41567 68.2764 5.41 68.4351 5.41L68.6731 5.257L68.9281 5.393L69.1491 5.41L69.2171 5.427C69.3304 5.40433 69.3984 5.393 69.4211 5.393H69.5061L70.5601 5.24L70.7811 5.257L70.8661 5.206L70.7811 4.968L70.8661 4.764L70.7641 4.237L70.8661 4.05L70.5941 3.37L70.5601 3.268L70.4921 3.2C70.5034 3.18867 70.5091 3.17733 70.5091 3.166C70.5204 3.14333 70.5374 3.10933 70.5601 3.064C70.5601 3.05267 70.5601 3.047 70.5601 3.047C70.5714 3.047 70.5771 3.04133 70.5771 3.03L70.5941 3.013V2.962C70.5941 2.894 70.6734 2.82033 70.8321 2.741L70.9851 2.35L71.5121 2.418L71.6821 2.52L72.1411 2.435V2.639L72.3281 2.588V3.251L72.2431 3.37L72.3621 3.659V3.829L72.4301 4.067L72.3281 4.322L72.3621 4.509L72.2771 5.104V5.206L72.6001 5.189L73.2121 5.07L73.5181 5.087L73.7051 5.07H74.0451C74.0791 5.04733 74.1188 5.036 74.1641 5.036C74.2094 5.02467 74.2548 5.019 74.3001 5.019C74.3341 5.019 74.3681 5.02467 74.4021 5.036C74.4361 5.036 74.4758 5.04733 74.5211 5.07L74.9291 5.121ZM81.9897 3.115L81.8197 3.336L81.9557 3.744L81.7347 3.999L81.6497 4.356L81.5987 4.441L81.6327 4.526C81.6327 4.68467 81.593 4.80367 81.5137 4.883L81.4797 4.934V5.002C81.5137 5.08133 81.5307 5.155 81.5307 5.223C81.5307 5.27967 81.525 5.31933 81.5137 5.342L81.5307 5.41L81.4627 5.597L81.5137 5.801L81.3777 5.937L81.4287 6.175L81.5307 6.294L81.3777 6.43V6.702L81.2587 6.974L81.3437 7.246L81.2417 7.382L81.4117 7.501L81.1737 7.892L81.1567 7.943L81.3267 7.977L81.2077 8.368V8.436C81.2077 8.51533 81.202 8.57767 81.1907 8.623L81.2077 8.674L81.4797 8.708L81.7007 9.048L81.5817 9.303L81.7687 9.286C81.8367 9.422 81.8764 9.541 81.8877 9.643L81.6327 9.898C81.5534 9.97733 81.44 10.0567 81.2927 10.136L81.0037 10.289L80.9187 10.204L80.7487 10.306L80.2217 9.694V9.405C80.1537 9.17833 80.1197 8.96867 80.1197 8.776V8.674L80.0177 7.671L80.1537 6.957L80.0517 6.549L79.7627 7.025L79.6097 7.467L79.4737 7.535L79.2357 7.909L78.8107 8.3L78.6917 8.504L78.3177 8.827L78.2327 9.048L77.6887 9.388L77.1107 10.034L76.7877 10.102L76.5667 10.272C76.2834 10.2607 76.068 10.153 75.9207 9.949C75.4107 9.69967 75.1444 9.34267 75.1217 8.878L75.2067 8.827L75.1897 8.725L75.1727 8.521L75.0707 8.3L75.1727 8.062L75.2067 7.705L75.3257 7.144C75.3257 7.13267 75.3257 7.11 75.3257 7.076C75.3144 7.05333 75.3087 7.03067 75.3087 7.008C75.3087 6.96267 75.32 6.906 75.3427 6.838C75.3314 6.81533 75.3257 6.77 75.3257 6.702C75.3257 6.62267 75.3597 6.49233 75.4277 6.311L75.5467 6.26C75.4787 6.20333 75.4447 6.141 75.4447 6.073C75.4447 6.02767 75.4504 5.99367 75.4617 5.971C75.4504 5.937 75.4447 5.89733 75.4447 5.852C75.4447 5.716 75.5127 5.614 75.6487 5.546C75.6827 5.43267 75.745 5.31933 75.8357 5.206L75.7507 5.07L75.9547 4.815V4.747C75.9547 4.53167 76.0284 4.33333 76.1757 4.152L76.1587 3.846L76.2267 3.778C76.2267 3.76667 76.2267 3.74967 76.2267 3.727C76.2154 3.70433 76.2097 3.68733 76.2097 3.676C76.2097 3.608 76.2324 3.55133 76.2777 3.506V3.404C76.323 3.29067 76.442 3.12067 76.6347 2.894C76.8274 2.66733 76.969 2.469 77.0597 2.299L77.1447 2.384L77.3317 2.299L77.4167 2.265L77.9777 2.01L79.2867 2.078V2.197L79.6947 2.282C79.9554 2.282 80.1254 2.367 80.2047 2.537C80.2047 2.503 80.2104 2.46333 80.2217 2.418C80.2217 2.384 80.2217 2.36133 80.2217 2.35L80.5787 2.673L80.9017 2.741L81.5137 2.588L81.7347 3.013L81.9897 3.115ZM80.3747 3.999L80.3067 3.88L80.1707 3.846L79.6437 3.421L79.3037 3.37H79.0317L78.9977 3.336L78.8617 3.387L78.7087 3.302H78.2667L78.3177 3.37L77.9267 3.506L77.8587 3.591L77.8077 3.608C77.6037 3.778 77.462 3.91967 77.3827 4.033L77.2637 4.441L77.1957 4.594L77.3657 4.832L77.0767 5.053L77.1107 5.121C76.986 5.33633 76.9237 5.546 76.9237 5.75L76.7877 5.92V6.226L76.6517 6.379L76.6177 6.532L76.5667 6.566V6.804L76.5157 6.889C76.5157 7.025 76.5044 7.13267 76.4817 7.212L76.5157 7.297L76.3627 7.62L76.4307 7.722L76.3117 7.892L76.4307 8.215L76.2437 8.453L76.2777 8.776V8.827L76.3457 8.861L76.4307 8.844C76.4874 8.78733 76.544 8.73633 76.6007 8.691L76.5667 8.555L76.8047 8.521L76.8557 8.402L77.8587 7.586L77.9607 7.552L78.0797 7.263C78.1477 7.24033 78.244 7.195 78.3687 7.127L78.4707 6.855H78.6067L78.5557 6.566L78.7937 6.532C78.8164 6.48667 78.8504 6.43 78.8957 6.362C78.9524 6.294 79.009 6.23167 79.0657 6.175L79.9327 5.019L80.0687 4.764L80.0517 4.696L80.1707 4.509L80.2047 4.322L80.3577 4.186L80.3747 3.999ZM94.8924 5.121L94.7054 5.257L94.8584 5.563L94.2804 5.903H94.2124C94.1558 5.903 94.0934 5.886 94.0254 5.852L93.8384 5.988L93.5834 5.971L93.2944 6.175L93.0394 6.039L92.6994 6.124L92.3764 6.294C92.3764 6.28267 92.3538 6.277 92.3084 6.277C92.2404 6.277 92.1951 6.29967 92.1724 6.345L92.0364 6.719C92.0931 6.77567 92.1214 6.83233 92.1214 6.889C92.1214 6.96833 92.0988 7.03633 92.0534 7.093L92.0194 7.212L92.0874 7.229C92.0874 7.30833 92.0704 7.38767 92.0364 7.467C92.0138 7.535 91.9854 7.59733 91.9514 7.654C91.9854 7.722 92.0081 7.78433 92.0194 7.841C92.0421 7.88633 92.0648 7.926 92.0874 7.96L91.9344 8.062L91.9514 8.572L91.8154 9.303L91.7984 9.456C91.8098 9.51267 91.8154 9.558 91.8154 9.592C91.8268 9.626 91.8324 9.65433 91.8324 9.677V9.745L91.9004 9.881L91.9174 10.136C91.9061 10.1587 91.8948 10.187 91.8834 10.221C91.8721 10.255 91.8551 10.3003 91.8324 10.357C91.8211 10.5157 91.7418 10.6347 91.5944 10.714C91.4471 10.8047 91.2431 10.8557 90.9824 10.867L90.9484 10.544L90.8294 10.374L90.7444 10.119V9.626L90.6254 9.32L90.6594 9.303L90.6254 9.082V8.725L90.6594 8.181L90.6424 7.688L90.7444 7.399V7.076C90.7444 7.01933 90.7558 6.95133 90.7784 6.872C90.8011 6.78133 90.8124 6.70767 90.8124 6.651C90.8124 6.57167 90.7841 6.48667 90.7274 6.396L90.6934 6.345L90.6424 6.379L90.4384 6.328C90.3478 6.35067 90.2571 6.36767 90.1664 6.379C90.0871 6.39033 90.0021 6.396 89.9114 6.396C89.8548 6.396 89.8038 6.396 89.7584 6.396C89.7131 6.396 89.6791 6.39033 89.6564 6.379L89.4354 6.566L88.9764 6.498C88.8858 6.48667 88.8064 6.481 88.7384 6.481C88.6704 6.46967 88.6194 6.464 88.5854 6.464C88.4268 6.464 88.2398 6.498 88.0244 6.566H87.9564L87.5824 6.702L87.3444 6.549L86.9534 6.617L86.9194 6.583L86.8514 6.617L86.5454 6.6L86.5114 6.719L86.0694 6.566L85.6784 6.6V7.144L85.6444 7.467L85.7124 7.739L85.5934 7.96L85.6954 8.147L85.5934 8.759L85.6614 8.946L85.6274 9.286L85.7804 9.558L85.6954 9.694L85.7294 9.864C85.7068 10.068 85.5764 10.17 85.3384 10.17C85.1344 10.17 84.9644 10.085 84.8284 9.915C84.6924 9.73367 84.6244 9.473 84.6244 9.133L84.4034 8.878L84.3184 8.708C84.3184 8.65133 84.3298 8.60033 84.3524 8.555C84.3751 8.49833 84.3978 8.44733 84.4204 8.402L84.4544 8.164L84.4034 8.028L84.3184 6.923V6.736L84.3014 6.685L83.8934 6.396L83.9444 5.733L84.3864 5.461C84.4091 5.38167 84.4261 5.29667 84.4374 5.206C84.4488 5.11533 84.4544 5.01333 84.4544 4.9C84.4544 4.78667 84.4488 4.696 84.4374 4.628C84.4261 4.56 84.4091 4.48067 84.3864 4.39L84.4714 4.441L84.4544 4.237L84.5564 3.948L84.4544 3.455V3.132L84.5734 2.639L85.2534 2.333L85.5424 2.537L85.8654 2.639L85.9164 2.945L86.0524 3.132L85.9164 3.54C85.9391 3.61933 85.9504 3.69867 85.9504 3.778C85.9618 3.846 85.9674 3.92533 85.9674 4.016C85.9674 4.152 85.9618 4.288 85.9504 4.424C85.9391 4.54867 85.9108 4.67333 85.8654 4.798L86.0014 5.019L85.8484 5.206V5.376L85.9844 5.427L86.3584 5.376L86.6134 5.41L87.0384 5.359L87.0724 5.41C87.0951 5.39867 87.1348 5.393 87.1914 5.393C87.2594 5.393 87.3048 5.393 87.3274 5.393C87.3614 5.393 87.4238 5.40433 87.5144 5.427H87.5484H87.7694C87.7808 5.427 87.8488 5.427 87.9734 5.427C88.0981 5.41567 88.2398 5.41 88.3984 5.41L88.6364 5.257L88.8914 5.393L89.1124 5.41L89.1804 5.427C89.2938 5.40433 89.3618 5.393 89.3844 5.393H89.4694L90.5234 5.24L90.7444 5.257L90.8294 5.206L90.7444 4.968L90.8294 4.764L90.7274 4.237L90.8294 4.05L90.5574 3.37L90.5234 3.268L90.4554 3.2C90.4668 3.18867 90.4724 3.17733 90.4724 3.166C90.4838 3.14333 90.5008 3.10933 90.5234 3.064C90.5234 3.05267 90.5234 3.047 90.5234 3.047C90.5348 3.047 90.5404 3.04133 90.5404 3.03L90.5574 3.013V2.962C90.5574 2.894 90.6368 2.82033 90.7954 2.741L90.9484 2.35L91.4754 2.418L91.6454 2.52L92.1044 2.435V2.639L92.2914 2.588V3.251L92.2064 3.37L92.3254 3.659V3.829L92.3934 4.067L92.2914 4.322L92.3254 4.509L92.2404 5.104V5.206L92.5634 5.189L93.1754 5.07L93.4814 5.087L93.6684 5.07H94.0084C94.0424 5.04733 94.0821 5.036 94.1274 5.036C94.1728 5.02467 94.2181 5.019 94.2634 5.019C94.2974 5.019 94.3314 5.02467 94.3654 5.036C94.3994 5.036 94.4391 5.04733 94.4844 5.07L94.8924 5.121ZM96.955 8.368L97.091 8.895L97.21 8.725L97.584 8.283L98.111 8.028C98.1677 7.892 98.2583 7.79 98.383 7.722C98.519 7.64267 98.6493 7.57467 98.774 7.518L99.76 6.617L100.219 6.073L100.627 5.784L100.644 5.699C100.667 5.60833 100.723 5.563 100.814 5.563C100.905 5.55167 100.978 5.53467 101.035 5.512L101.375 5.002L101.426 4.9L102.055 4.526L102.718 3.642L102.99 3.489L103.075 3.268L103.313 3.149C103.37 3.047 103.466 2.93367 103.602 2.809C103.749 2.68433 103.885 2.59367 104.01 2.537L104.146 2.69L104.299 2.656C104.548 2.67867 104.667 2.76367 104.656 2.911C104.69 2.96767 104.707 3.03 104.707 3.098C104.707 3.15467 104.679 3.22267 104.622 3.302L104.554 4.135L104.486 4.271L104.503 4.679L104.418 5.172L104.452 5.852L104.299 6.124L104.537 6.549L104.401 6.957L104.486 7.195L104.571 7.365L104.52 7.807V7.96C104.531 7.994 104.537 8.028 104.537 8.062C104.537 8.08467 104.537 8.10733 104.537 8.13L104.486 8.232L104.367 8.368C104.378 8.39067 104.384 8.436 104.384 8.504C104.384 8.56067 104.373 8.606 104.35 8.64C104.339 8.66267 104.327 8.68533 104.316 8.708L104.418 8.929L104.282 9.167L104.418 9.66C104.384 9.864 104.288 10.017 104.129 10.119C103.982 10.221 103.817 10.272 103.636 10.272H103.33C103.273 10.1813 103.217 10.0907 103.16 10C103.115 9.898 103.086 9.79033 103.075 9.677C103.075 9.63167 103.092 9.58067 103.126 9.524L102.956 9.286L103.075 9.082L103.058 8.793L103.109 8.47L102.956 7.96L103.109 7.926C103.086 7.88067 103.075 7.83533 103.075 7.79C103.086 7.73333 103.092 7.67667 103.092 7.62C103.092 7.50667 103.132 7.416 103.211 7.348L103.262 7.144L103.109 6.43L103.16 6.005L103.075 5.393L103.211 5.24L103.262 4.917L103.313 4.662L103.228 4.645L102.803 5.223L102.48 5.461L102.293 5.682C102.202 5.80667 102.1 5.92567 101.987 6.039C101.874 6.15233 101.755 6.25433 101.63 6.345L101.443 6.617L101.171 6.685L100.695 7.365L100.049 7.892L99.777 8.164L99.573 8.283L99.301 8.521L98.893 8.725L98.825 8.861L97.601 9.762L97.516 9.779L97.397 10C97.3403 10.0113 97.278 10.034 97.21 10.068C97.1533 10.1133 97.091 10.1417 97.023 10.153L96.938 10.221H96.921V10.34L95.969 10.578L95.799 10.357L95.544 10.17L95.833 9.864L95.663 9.235L95.714 9.184L95.629 8.997L95.969 8.827L95.714 8.504L95.935 8.147L95.867 7.841L95.884 7.62L95.799 7.144L95.935 6.974L95.799 6.43L95.918 6.277L95.731 6.005L95.833 5.342L95.799 5.274C95.7083 5.19467 95.6573 4.92267 95.646 4.458L95.629 4.407L95.68 4.084L95.629 3.88C95.6517 3.78933 95.7027 3.693 95.782 3.591C95.8387 3.57967 95.867 3.54567 95.867 3.489C95.867 3.43233 95.884 3.37567 95.918 3.319C95.952 3.251 95.9577 3.17167 95.935 3.081L96.479 3.013L96.564 2.86L97.414 3.183L97.312 3.336L97.499 3.506L97.295 3.625L97.482 4.169L97.244 4.356V5.172L97.125 5.631L97.278 6.192L97.023 6.413V6.464L97.176 6.685L97.159 7.45L97.091 7.501L97.21 7.773L96.955 8.368ZM111.935 8.606C111.935 8.742 111.833 8.912 111.629 9.116C111.572 9.29733 111.487 9.44467 111.374 9.558L111.272 9.575L111.085 9.898L110.779 9.949L110.456 10.153L110.286 10.459L110.099 10.425C109.974 10.4817 109.872 10.5157 109.793 10.527L109.691 10.68C109.657 10.6687 109.606 10.663 109.538 10.663C109.39 10.663 109.249 10.765 109.113 10.969L108.875 10.765C108.829 10.7763 108.761 10.782 108.671 10.782C108.523 10.782 108.399 10.7593 108.297 10.714H108.008L107.872 10.629C107.441 10.561 107.169 10.3967 107.056 10.136V10.085L106.852 9.983L106.75 9.694L106.546 9.558V9.303L106.342 8.555L106.376 7.943L106.444 7.671V7.314L106.529 7.042L106.512 6.923L106.631 6.719L106.597 6.753C106.597 6.651 106.625 6.54333 106.682 6.43V6.345L106.631 5.937C106.631 5.74433 106.716 5.57433 106.886 5.427C106.897 5.40433 106.903 5.37033 106.903 5.325C106.903 5.27967 106.88 5.189 106.835 5.053C106.801 4.90567 106.784 4.80367 106.784 4.747C106.784 4.611 106.818 4.46933 106.886 4.322C106.976 4.458 107.107 4.526 107.277 4.526H107.328C107.35 4.48067 107.401 4.42967 107.481 4.373C107.571 4.08967 107.696 3.85167 107.855 3.659L107.923 3.591C107.923 3.54567 107.957 3.41533 108.025 3.2H108.161L108.195 3.115L108.331 3.081C108.387 2.99033 108.421 2.93933 108.433 2.928C108.455 2.90533 108.58 2.83167 108.807 2.707C108.852 2.62767 108.92 2.554 109.011 2.486C109.056 2.46333 109.113 2.44067 109.181 2.418L109.249 2.316C109.555 2.214 109.747 2.163 109.827 2.163C109.917 2.163 110.002 2.18567 110.082 2.231L110.167 2.214L110.286 2.282C110.422 2.384 110.558 2.469 110.694 2.537L110.983 2.758V2.826C111.243 3.03 111.374 3.319 111.374 3.693L111.323 3.863L111.374 4.424L111.221 4.526L111.051 4.968L110.728 5.325L110.711 5.597C110.348 5.85767 110.014 6.06733 109.708 6.226C109.606 6.38467 109.447 6.464 109.232 6.464H109.181L108.858 6.668H108.586L108.178 6.838L107.872 6.685H107.838C107.815 6.77567 107.792 6.91167 107.77 7.093L107.634 7.195L107.617 7.399L107.515 7.688C107.549 7.96 107.566 8.13567 107.566 8.215L107.498 8.266C107.498 8.41333 107.492 8.521 107.481 8.589C107.481 8.60033 107.475 8.61733 107.464 8.64C107.464 8.66267 107.464 8.67967 107.464 8.691C107.464 8.78167 107.509 8.85533 107.6 8.912C107.634 9.048 107.69 9.133 107.77 9.167L107.889 9.269L108.263 9.371V9.422L108.399 9.456L108.977 9.49L109.317 9.439L109.487 9.32L109.589 9.286L109.759 9.031L109.844 9.014L110.269 8.878C110.314 8.79867 110.388 8.73067 110.49 8.674L110.541 8.589C110.767 8.54367 110.898 8.42467 110.932 8.232C111.09 8.07333 111.294 7.994 111.544 7.994H111.612C111.827 8.24333 111.935 8.44733 111.935 8.606ZM110.252 3.71C110.252 3.676 110.235 3.608 110.201 3.506L110.116 3.489L110.082 3.506C110.07 3.506 110.048 3.506 110.014 3.506C109.991 3.51733 109.968 3.523 109.946 3.523C109.934 3.523 109.917 3.51733 109.895 3.506C109.872 3.506 109.855 3.506 109.844 3.506L109.674 3.625L109.521 3.642L109.436 3.676L109.147 4.05L108.96 4.186L108.688 4.662L108.535 4.764C108.501 4.95667 108.421 5.121 108.297 5.257L108.229 5.376C108.353 5.29667 108.495 5.257 108.654 5.257L108.773 5.206L108.824 5.053L109.062 5.07L109.198 4.866H109.3L109.487 4.934L109.572 4.679H109.691V4.492L109.912 4.441L109.963 4.39L109.997 4.237L110.218 3.914C110.24 3.85733 110.252 3.78933 110.252 3.71ZM123.18 6.022L123.078 6.328C123.078 6.62267 123.061 6.855 123.027 7.025L122.925 7.195V7.382L122.84 7.501L122.789 7.739L122.602 7.926L122.483 8.351L122.347 8.402L122.279 8.589L122.075 8.708L121.939 8.997L121.735 9.099L121.718 9.303L121.395 9.422C121.248 9.626 121.067 9.75633 120.851 9.813L120.783 9.83C120.625 10.068 120.415 10.187 120.154 10.187C120.041 10.255 119.911 10.289 119.763 10.289L119.593 10.408L119.423 10.459L119.202 10.629L118.981 10.612L118.743 10.68L118.454 10.561L117.723 10.51L117.468 10.119L117.094 9.728L117.179 9.456L116.924 8.878L117.043 8.657L116.958 8.249L117.043 7.994C117.021 7.83533 117.009 7.722 117.009 7.654C117.009 7.43867 117.066 7.28 117.179 7.178C117.191 7.06467 117.264 6.87767 117.4 6.617H117.485L117.451 6.498L117.502 6.26V6.005C117.593 5.903 117.644 5.835 117.655 5.801L117.604 5.563V5.495C117.684 5.33633 117.723 5.172 117.723 5.002L118.08 4.509C118.08 4.509 118.092 4.49767 118.114 4.475C118.148 4.45233 118.177 4.42967 118.199 4.407L118.182 4.339H118.25L118.505 4.05L118.522 3.659L118.947 3.506C119.106 3.404 119.208 3.234 119.253 2.996H119.474C119.599 2.928 119.712 2.894 119.814 2.894C119.916 2.894 120.013 2.91667 120.103 2.962L120.29 2.979L120.732 2.809L120.97 3.03L121.157 3.149H121.293L121.548 3.285H121.684C121.832 3.421 122.002 3.608 122.194 3.846L122.228 3.931L122.347 3.999L122.704 4.458L123.027 5.257V5.427L123.18 6.022ZM122.058 6.43L122.041 6.345C121.962 6.26567 121.917 6.18067 121.905 6.09L121.956 6.005L121.803 5.682L121.837 5.359L121.769 5.274C121.622 5.16067 121.543 5.07 121.531 5.002C121.429 4.95667 121.378 4.84333 121.378 4.662L121.276 4.645L121.072 4.305L120.919 4.186L120.562 4.05L120.426 4.016C120.358 4.016 120.313 3.99333 120.29 3.948L119.95 4.322L119.729 4.798L119.372 4.985L119.321 5.172L119.151 5.257L119.083 5.699L118.879 5.801C118.834 5.95967 118.811 6.107 118.811 6.243L118.539 6.498L118.624 6.549C118.624 6.685 118.573 6.804 118.471 6.906C118.437 7.008 118.392 7.12133 118.335 7.246V7.382L118.284 7.45L118.301 7.654L118.114 8.113L118.148 8.198V8.674L118.08 8.912L118.097 9.15L118.25 9.371L118.488 9.456L118.573 9.49L118.709 9.422L119.151 9.456L119.219 9.286H119.287C119.355 9.286 119.395 9.303 119.406 9.337L119.559 9.286L119.695 9.337L119.916 9.184L119.95 9.133L120.103 9.099C120.183 8.97433 120.37 8.84967 120.664 8.725L120.698 8.64L121.038 8.402L121.225 8.13L121.497 7.994L121.514 7.909L121.599 7.722V7.501L121.803 7.331L121.871 7.212L121.956 7.11C121.911 6.974 121.888 6.87767 121.888 6.821C121.888 6.719 121.922 6.61133 121.99 6.498L122.058 6.43ZM44.108 20.076L44.346 20.365L44.397 20.671L44.482 20.841L44.397 21.521L44.159 21.776L44.074 22.048L43.768 22.184V22.303L43.513 22.354L43.343 22.575C43.2637 22.609 43.156 22.643 43.02 22.677C42.8954 22.711 42.7537 22.7507 42.595 22.796C42.527 22.8527 42.459 22.9093 42.391 22.966C42.3344 23.0113 42.255 23.0397 42.153 23.051C42.0624 23.0963 41.949 23.153 41.813 23.221C41.6884 23.289 41.558 23.34 41.422 23.374L41.252 23.323L40.606 23.493L40.283 23.476L40.028 23.425L39.807 23.476L39.433 23.527H39.195L39.059 23.459C39.0477 23.4817 39.0307 23.4987 39.008 23.51C38.9627 23.5327 38.9287 23.527 38.906 23.493L38.821 23.391C38.7984 23.4023 38.7757 23.425 38.753 23.459C38.7417 23.5043 38.7134 23.5327 38.668 23.544C38.6 23.544 38.515 23.527 38.413 23.493L38.294 23.527C38.226 23.527 38.1807 23.5213 38.158 23.51C38.1467 23.5213 38.1354 23.51 38.124 23.476C38.1127 23.4533 38.0957 23.442 38.073 23.442C37.9937 23.442 37.9144 23.4193 37.835 23.374L37.597 23.493L37.427 23.238L37.325 23.323L37.155 23.238C37.1097 23.2833 37.07 23.306 37.036 23.306C37.002 23.306 36.9624 23.306 36.917 23.306C36.8377 23.306 36.764 23.2493 36.696 23.136C36.56 23.068 36.458 22.983 36.39 22.881C36.322 22.779 36.288 22.5977 36.288 22.337C36.288 22.0083 36.4354 21.827 36.73 21.793C36.7867 21.7703 36.8207 21.7363 36.832 21.691C36.8434 21.6457 36.883 21.6117 36.951 21.589L37.189 21.538L37.614 21.47C37.9427 21.606 38.107 21.7533 38.107 21.912C38.107 22.0027 38.0674 22.0877 37.988 22.167C38.022 22.167 38.0844 22.184 38.175 22.218L38.447 22.167C38.5604 22.167 38.6737 22.2067 38.787 22.286C38.8664 22.2633 38.9457 22.269 39.025 22.303C39.1157 22.337 39.2064 22.354 39.297 22.354H39.586C39.688 22.286 39.7617 22.252 39.807 22.252C39.8637 22.252 39.9374 22.2747 40.028 22.32C40.0847 22.286 40.1357 22.2633 40.181 22.252C40.2264 22.2407 40.2774 22.2293 40.334 22.218L40.606 22.388L40.64 22.32L40.946 22.269H41.133L41.405 22.082C41.4957 22.082 41.5637 22.0877 41.609 22.099C41.6657 22.099 41.6997 22.099 41.711 22.099C41.745 22.099 41.8017 22.0763 41.881 22.031C41.9604 21.9743 42.0397 21.9177 42.119 21.861H42.272L42.306 21.776L42.561 21.606L42.612 21.504C42.7254 21.4587 42.8047 21.402 42.85 21.334C42.8954 21.266 42.935 21.2093 42.969 21.164C43.0257 21.0733 43.0484 20.9997 43.037 20.943C43.037 20.875 43.0257 20.8127 43.003 20.756C42.9804 20.7333 42.9577 20.722 42.935 20.722C42.9124 20.722 42.8557 20.7107 42.765 20.688L42.51 20.484L42.204 20.433L41.932 20.518L41.83 20.365L41.694 20.399L41.541 20.229L41.473 20.28C41.3144 20.246 41.2237 20.229 41.201 20.229C41.1444 20.2403 41.0934 20.2517 41.048 20.263C41.014 20.2743 40.98 20.2857 40.946 20.297C40.9007 20.2857 40.844 20.2347 40.776 20.144L40.708 20.195C40.6287 20.2177 40.5437 20.2347 40.453 20.246C40.3737 20.2573 40.283 20.2687 40.181 20.28L40.096 20.178L39.739 20.127L39.62 20.008L39.433 20.025L39.11 19.872L38.838 19.566L38.753 19.226L38.906 18.886L39.195 18.699C39.297 18.631 39.399 18.5913 39.501 18.58C39.6144 18.5573 39.722 18.5347 39.824 18.512L40.028 18.359L40.708 18.155L40.844 18.053L41.116 18.104L41.252 17.934L41.354 18.002C41.5354 17.8093 41.745 17.713 41.983 17.713L42.119 17.594L42.153 17.56C42.1984 17.5147 42.2267 17.4863 42.238 17.475C42.2607 17.4637 42.3117 17.4353 42.391 17.39C42.459 17.2767 42.476 17.2143 42.442 17.203C42.4194 17.1803 42.357 17.118 42.255 17.016C42.2097 16.9593 42.1474 16.9083 42.068 16.863C41.9887 16.8063 41.8357 16.7497 41.609 16.693L41.388 16.727C41.1954 16.693 41.0594 16.676 40.98 16.676C40.9234 16.676 40.8667 16.6817 40.81 16.693C40.7647 16.693 40.7137 16.6987 40.657 16.71H40.504L40.232 16.778L39.977 16.71L39.858 16.846L39.28 16.88L38.94 16.999C38.8494 17.101 38.7587 17.152 38.668 17.152C38.634 17.152 38.6 17.1463 38.566 17.135C38.532 17.1237 38.4867 17.1067 38.43 17.084C38.4187 17.118 38.4074 17.1463 38.396 17.169C38.3847 17.1803 38.3734 17.1973 38.362 17.22H38.277C38.209 17.22 38.1354 17.2257 38.056 17.237C37.988 17.2483 37.9144 17.3163 37.835 17.441C37.767 17.441 37.7217 17.4353 37.699 17.424L37.614 17.679L37.053 17.254L36.9 17.084L36.951 16.982H36.849C36.8037 16.9027 36.781 16.829 36.781 16.761V16.659L36.866 16.353L36.951 16.268C36.9964 16.234 37.0417 16.2057 37.087 16.183C37.1324 16.149 37.1834 16.132 37.24 16.132H37.308L37.41 15.979L37.648 16.047C37.7047 15.9903 37.767 15.9507 37.835 15.928C37.9144 15.9053 37.988 15.894 38.056 15.894H38.124C38.124 15.8487 38.158 15.7807 38.226 15.69H38.515L38.634 15.622L38.872 15.588L39.076 15.775L39.059 15.622H39.28L39.484 15.571L39.977 15.469L40.147 15.486C40.351 15.4293 40.555 15.401 40.759 15.401H40.946L40.895 15.452H40.963C41.0424 15.452 41.116 15.469 41.184 15.503L41.337 15.452L41.66 15.486C41.694 15.486 41.7564 15.486 41.847 15.486C41.949 15.486 42.0284 15.4803 42.085 15.469H42.204V15.571L42.544 15.69L42.952 15.792L43.139 16.064L43.428 16.285C43.53 16.421 43.6094 16.557 43.666 16.693C43.7227 16.8177 43.734 16.9933 43.7 17.22L43.615 17.56V17.594C43.5924 17.6507 43.5414 17.7527 43.462 17.9C43.326 18.1267 43.139 18.2797 42.901 18.359L42.765 18.495L42.391 18.648L42.068 18.716L41.847 18.886L41.252 18.954L41.014 19.073H40.725L40.385 19.192L40.742 19.311H41.15L41.337 19.294H41.779C41.9377 19.294 42.051 19.3337 42.119 19.413C42.2097 19.4357 42.3004 19.4583 42.391 19.481C42.493 19.4923 42.6064 19.498 42.731 19.498L42.833 19.583C42.8444 19.583 42.8557 19.5773 42.867 19.566C42.8784 19.566 42.8897 19.5717 42.901 19.583C42.9237 19.583 42.9634 19.583 43.02 19.583L43.36 19.617L43.581 19.804H43.751L44.108 20.076ZM48.3396 21.334L48.3736 21.521L48.2546 21.776L48.2716 21.861L48.3226 21.878L48.3566 22.116L48.6966 22.167L49.0366 22.048L49.3426 22.031C49.4106 22.0763 49.4559 22.1047 49.4786 22.116C49.5126 22.116 49.5522 22.1103 49.5976 22.099L49.8696 21.963L50.2946 21.98L50.7366 21.844L51.1106 21.691L51.3316 21.708L51.5356 21.538L51.7226 21.504C51.7906 21.504 51.8699 21.4983 51.9606 21.487C52.0512 21.4643 52.1419 21.4417 52.2326 21.419C52.3232 21.3963 52.4082 21.368 52.4876 21.334C52.5669 21.2887 52.6292 21.2377 52.6746 21.181L52.8106 21.011L53.1506 20.909L53.2526 20.722L53.3376 20.637L53.2866 20.603L53.0316 20.569L52.9806 20.484H52.8956L52.5386 20.331L52.2496 20.365L52.1136 20.246L51.7906 20.28C51.7226 20.212 51.6546 20.1723 51.5866 20.161C51.4959 20.2177 51.4109 20.246 51.3316 20.246C51.2749 20.2347 51.1899 20.2007 51.0766 20.144C50.9859 20.144 50.9179 20.144 50.8726 20.144C50.8386 20.1327 50.7706 20.1213 50.6686 20.11L50.4816 20.093C50.3909 20.0703 50.3116 20.0703 50.2436 20.093C50.1869 20.1157 50.1246 20.127 50.0566 20.127C50.0226 20.127 49.9772 20.1213 49.9206 20.11C49.8752 20.0873 49.8242 20.0817 49.7676 20.093L49.4276 20.127L49.1896 19.957L49.1726 20.059L48.6626 20.042L48.4926 19.974C48.3112 19.974 48.2206 20.059 48.2206 20.229V20.399V20.535L48.3056 20.586L48.2206 20.824L48.2546 20.926L48.2206 21.147L48.3396 21.334ZM54.7486 20.943L54.4766 21.181L54.4086 21.385L54.2216 21.419L54.0176 21.725L53.6606 21.793L53.3546 22.014L53.2356 22.065L52.9976 22.32L52.6066 22.286L52.4366 22.422L52.2156 22.388C52.1136 22.456 52.0286 22.5183 51.9606 22.575C51.8926 22.6317 51.7906 22.6713 51.6546 22.694L51.5356 22.626L51.0936 22.949L50.9236 22.864L50.8046 22.932L50.5326 22.864L50.4306 22.932L50.1416 22.966L49.9206 22.915L49.6486 23.153L49.3256 23.119V23.136C49.3142 23.1473 49.2519 23.17 49.1386 23.204L49.0536 23.102C48.9062 23.2153 48.7362 23.272 48.5436 23.272H48.4586C48.4246 23.2607 48.3962 23.255 48.3736 23.255L48.1186 23.527L47.8296 23.612L47.5746 23.476L47.3876 23.323L47.2516 23.17L47.1496 23.085C47.1496 23.0623 47.1496 23.0227 47.1496 22.966C47.1496 22.9093 47.0986 22.7507 46.9966 22.49L47.0136 22.201L46.9796 21.861L47.0646 21.606L47.0136 21.266L47.1326 21.028L47.0646 20.824L47.1156 20.484L46.9966 20.11L46.9796 20.059C46.6396 19.8777 46.4469 19.7133 46.4016 19.566C46.4242 19.4413 46.4752 19.362 46.5546 19.328C46.6339 19.2827 46.7359 19.2203 46.8606 19.141L47.0306 19.039L46.9286 18.75L47.0476 18.699L46.9796 18.461L47.0306 18.24L46.9456 18.002L46.9796 17.883L46.9626 17.679L46.7756 17.305L46.8096 17.152L46.7246 17.084L46.7586 16.88L46.6736 16.761L46.5716 16.54L46.5546 16.523L46.3846 16.659L46.2146 16.557L46.0446 16.659L45.9936 16.591L45.7216 16.761L45.5686 16.523L45.2626 16.71C44.7412 16.4153 44.4806 16.149 44.4806 15.911C44.4806 15.707 44.5882 15.588 44.8036 15.554C44.9169 15.384 45.0699 15.299 45.2626 15.299H45.3136L45.4836 15.367H45.5176C45.7442 15.367 45.9426 15.3727 46.1126 15.384C46.2826 15.384 46.4186 15.3953 46.5206 15.418C46.6112 15.3953 46.6906 15.384 46.7586 15.384C46.8379 15.3727 46.9116 15.367 46.9796 15.367L47.0646 15.418L47.1666 15.384L47.6086 15.554L47.9996 15.656C48.0336 15.6447 48.1129 15.639 48.2376 15.639C48.3056 15.639 48.3622 15.6447 48.4076 15.656C48.4529 15.656 48.4926 15.6617 48.5266 15.673L48.6966 15.639C48.8439 15.6503 48.9856 15.6957 49.1216 15.775L49.2406 15.843C49.4219 15.8883 49.5636 15.911 49.6656 15.911L50.0396 15.843L50.1076 15.928C50.2436 15.928 50.3626 15.9847 50.4646 16.098H50.9236L51.1106 16.285C51.1786 16.3077 51.2409 16.3247 51.2976 16.336C51.3542 16.3473 51.4052 16.353 51.4506 16.353L51.7566 16.455L51.8926 16.574H52.2496L52.3346 16.795L52.6576 16.999L52.7766 17.475L52.5216 17.934C52.3969 18.0587 52.2836 18.155 52.1816 18.223C52.0796 18.291 51.9662 18.342 51.8416 18.376L51.5866 18.529L51.4676 18.495L51.1616 18.75H50.9746L50.5326 18.937L50.2266 18.971C50.1132 19.0163 50.0226 19.056 49.9546 19.09C49.8979 19.1127 49.8356 19.1353 49.7676 19.158C49.7109 19.1807 49.6429 19.2033 49.5636 19.226C49.4956 19.2487 49.3936 19.2827 49.2576 19.328V19.362C49.2802 19.362 49.3426 19.3563 49.4446 19.345C49.5466 19.3337 49.6542 19.3223 49.7676 19.311C49.8922 19.2997 50.0056 19.2883 50.1076 19.277C50.2096 19.2657 50.2776 19.26 50.3116 19.26C50.4362 19.2373 50.5666 19.2147 50.7026 19.192C50.8386 19.1693 50.9292 19.1863 50.9746 19.243C51.0652 19.1977 51.1446 19.175 51.2126 19.175C51.4052 19.2317 51.5242 19.26 51.5696 19.26C51.6149 19.26 51.6602 19.26 51.7056 19.26C51.7509 19.26 51.8076 19.2487 51.8756 19.226C51.9436 19.26 52.0399 19.2827 52.1646 19.294C52.2892 19.294 52.4479 19.294 52.6406 19.294L52.7766 19.379C52.9126 19.4017 53.0372 19.4187 53.1506 19.43C53.2639 19.43 53.3659 19.4527 53.4566 19.498H53.7116C53.7682 19.5547 53.8532 19.5943 53.9666 19.617C54.0912 19.6397 54.1876 19.6793 54.2556 19.736C54.2896 19.7587 54.3349 19.7927 54.3916 19.838C54.4596 19.872 54.5389 19.9343 54.6296 20.025C54.7882 20.161 54.8676 20.3027 54.8676 20.45L54.8506 20.637L54.7486 20.943ZM51.4676 17.339H51.2976L51.1446 17.254L50.9236 17.203L50.7536 17.322L50.4306 17.084L50.1756 17.016L50.0736 17.067L49.9376 16.914H49.8696C49.7562 16.914 49.5806 16.897 49.3426 16.863L48.9856 16.914L48.7986 16.744L48.6286 16.778L48.5776 16.761L48.4756 16.829L48.1866 16.727L48.1186 16.761V17.135L48.2206 17.424L48.1356 17.662L48.2206 17.849L48.2036 18.172L48.2886 18.427L48.1866 18.682L48.2376 18.852L48.4756 18.835C48.4982 18.8237 48.5322 18.8123 48.5776 18.801C48.6229 18.7783 48.6682 18.7387 48.7136 18.682L48.7816 18.648L48.8836 18.716L48.9346 18.597L49.3596 18.376C49.5182 18.3307 49.6259 18.3023 49.6826 18.291C49.7506 18.2797 49.8072 18.2457 49.8526 18.189L50.0906 18.121L50.1756 18.104C50.3229 18.0133 50.4929 17.9567 50.6856 17.934L50.7536 17.883C50.7762 17.883 50.8216 17.8603 50.8896 17.815L51.1446 17.679H51.1786C51.2352 17.6337 51.2919 17.594 51.3486 17.56C51.4166 17.5147 51.4902 17.4807 51.5696 17.458L51.4676 17.339ZM61.9043 19.022L61.8023 19.328C61.8023 19.6227 61.7853 19.855 61.7513 20.025L61.6493 20.195V20.382L61.5643 20.501L61.5133 20.739L61.3263 20.926L61.2073 21.351L61.0713 21.402L61.0033 21.589L60.7993 21.708L60.6633 21.997L60.4593 22.099L60.4423 22.303L60.1193 22.422C59.9719 22.626 59.7906 22.7563 59.5753 22.813L59.5073 22.83C59.3486 23.068 59.1389 23.187 58.8783 23.187C58.7649 23.255 58.6346 23.289 58.4873 23.289L58.3173 23.408L58.1473 23.459L57.9263 23.629L57.7053 23.612L57.4673 23.68L57.1783 23.561L56.4473 23.51L56.1923 23.119L55.8183 22.728L55.9033 22.456L55.6483 21.878L55.7673 21.657L55.6823 21.249L55.7673 20.994C55.7446 20.8353 55.7333 20.722 55.7333 20.654C55.7333 20.4387 55.7899 20.28 55.9033 20.178C55.9146 20.0647 55.9883 19.8777 56.1243 19.617H56.2093L56.1753 19.498L56.2263 19.26V19.005C56.3169 18.903 56.3679 18.835 56.3793 18.801L56.3283 18.563V18.495C56.4076 18.3363 56.4473 18.172 56.4473 18.002L56.8043 17.509C56.8043 17.509 56.8156 17.4977 56.8383 17.475C56.8723 17.4523 56.9006 17.4297 56.9233 17.407L56.9063 17.339H56.9743L57.2293 17.05L57.2463 16.659L57.6713 16.506C57.8299 16.404 57.9319 16.234 57.9773 15.996H58.1983C58.3229 15.928 58.4363 15.894 58.5383 15.894C58.6403 15.894 58.7366 15.9167 58.8273 15.962L59.0143 15.979L59.4563 15.809L59.6943 16.03L59.8813 16.149H60.0173L60.2723 16.285H60.4083C60.5556 16.421 60.7256 16.608 60.9183 16.846L60.9523 16.931L61.0713 16.999L61.4283 17.458L61.7513 18.257V18.427L61.9043 19.022ZM60.7823 19.43L60.7653 19.345C60.6859 19.2657 60.6406 19.1807 60.6293 19.09L60.6803 19.005L60.5273 18.682L60.5613 18.359L60.4933 18.274C60.3459 18.1607 60.2666 18.07 60.2553 18.002C60.1533 17.9567 60.1023 17.8433 60.1023 17.662L60.0003 17.645L59.7963 17.305L59.6433 17.186L59.2863 17.05L59.1503 17.016C59.0823 17.016 59.0369 16.9933 59.0143 16.948L58.6743 17.322L58.4533 17.798L58.0963 17.985L58.0453 18.172L57.8753 18.257L57.8073 18.699L57.6033 18.801C57.5579 18.9597 57.5353 19.107 57.5353 19.243L57.2633 19.498L57.3483 19.549C57.3483 19.685 57.2973 19.804 57.1953 19.906C57.1613 20.008 57.1159 20.1213 57.0593 20.246V20.382L57.0083 20.45L57.0253 20.654L56.8383 21.113L56.8723 21.198V21.674L56.8043 21.912L56.8213 22.15L56.9743 22.371L57.2123 22.456L57.2973 22.49L57.4333 22.422L57.8753 22.456L57.9433 22.286H58.0113C58.0793 22.286 58.1189 22.303 58.1303 22.337L58.2833 22.286L58.4193 22.337L58.6403 22.184L58.6743 22.133L58.8273 22.099C58.9066 21.9743 59.0936 21.8497 59.3883 21.725L59.4223 21.64L59.7623 21.402L59.9493 21.13L60.2213 20.994L60.2383 20.909L60.3233 20.722V20.501L60.5273 20.331L60.5953 20.212L60.6803 20.11C60.6349 19.974 60.6123 19.8777 60.6123 19.821C60.6123 19.719 60.6463 19.6113 60.7143 19.498L60.7823 19.43ZM74.0949 18.121L73.9079 18.257L74.0609 18.563L73.4829 18.903H73.4149C73.3582 18.903 73.2959 18.886 73.2279 18.852L73.0409 18.988L72.7859 18.971L72.4969 19.175L72.2419 19.039L71.9019 19.124L71.5789 19.294C71.5789 19.2827 71.5562 19.277 71.5109 19.277C71.4429 19.277 71.3975 19.2997 71.3749 19.345L71.2389 19.719C71.2955 19.7757 71.3239 19.8323 71.3239 19.889C71.3239 19.9683 71.3012 20.0363 71.2559 20.093L71.2219 20.212L71.2899 20.229C71.2899 20.3083 71.2729 20.3877 71.2389 20.467C71.2162 20.535 71.1879 20.5973 71.1539 20.654C71.1879 20.722 71.2105 20.7843 71.2219 20.841C71.2445 20.8863 71.2672 20.926 71.2899 20.96L71.1369 21.062L71.1539 21.572L71.0179 22.303L71.0009 22.456C71.0122 22.5127 71.0179 22.558 71.0179 22.592C71.0292 22.626 71.0349 22.6543 71.0349 22.677V22.745L71.1029 22.881L71.1199 23.136C71.1085 23.1587 71.0972 23.187 71.0859 23.221C71.0745 23.255 71.0575 23.3003 71.0349 23.357C71.0235 23.5157 70.9442 23.6347 70.7969 23.714C70.6495 23.8047 70.4455 23.8557 70.1849 23.867L70.1509 23.544L70.0319 23.374L69.9469 23.119V22.626L69.8279 22.32L69.8619 22.303L69.8279 22.082V21.725L69.8619 21.181L69.8449 20.688L69.9469 20.399V20.076C69.9469 20.0193 69.9582 19.9513 69.9809 19.872C70.0035 19.7813 70.0149 19.7077 70.0149 19.651C70.0149 19.5717 69.9865 19.4867 69.9299 19.396L69.8959 19.345L69.8449 19.379L69.6409 19.328C69.5502 19.3507 69.4595 19.3677 69.3689 19.379C69.2895 19.3903 69.2045 19.396 69.1139 19.396C69.0572 19.396 69.0062 19.396 68.9609 19.396C68.9155 19.396 68.8815 19.3903 68.8589 19.379L68.6379 19.566L68.1789 19.498C68.0882 19.4867 68.0089 19.481 67.9409 19.481C67.8729 19.4697 67.8219 19.464 67.7879 19.464C67.6292 19.464 67.4422 19.498 67.2269 19.566H67.1589L66.7849 19.702L66.5469 19.549L66.1559 19.617L66.1219 19.583L66.0539 19.617L65.7479 19.6L65.7139 19.719L65.2719 19.566L64.8809 19.6V20.144L64.8469 20.467L64.9149 20.739L64.7959 20.96L64.8979 21.147L64.7959 21.759L64.8639 21.946L64.8299 22.286L64.9829 22.558L64.8979 22.694L64.9319 22.864C64.9092 23.068 64.7789 23.17 64.5409 23.17C64.3369 23.17 64.1669 23.085 64.0309 22.915C63.8949 22.7337 63.8269 22.473 63.8269 22.133L63.6059 21.878L63.5209 21.708C63.5209 21.6513 63.5322 21.6003 63.5549 21.555C63.5775 21.4983 63.6002 21.4473 63.6229 21.402L63.6569 21.164L63.6059 21.028L63.5209 19.923V19.736L63.5039 19.685L63.0959 19.396L63.1469 18.733L63.5889 18.461C63.6115 18.3817 63.6285 18.2967 63.6399 18.206C63.6512 18.1153 63.6569 18.0133 63.6569 17.9C63.6569 17.7867 63.6512 17.696 63.6399 17.628C63.6285 17.56 63.6115 17.4807 63.5889 17.39L63.6739 17.441L63.6569 17.237L63.7589 16.948L63.6569 16.455V16.132L63.7759 15.639L64.4559 15.333L64.7449 15.537L65.0679 15.639L65.1189 15.945L65.2549 16.132L65.1189 16.54C65.1415 16.6193 65.1529 16.6987 65.1529 16.778C65.1642 16.846 65.1699 16.9253 65.1699 17.016C65.1699 17.152 65.1642 17.288 65.1529 17.424C65.1415 17.5487 65.1132 17.6733 65.0679 17.798L65.2039 18.019L65.0509 18.206V18.376L65.1869 18.427L65.5609 18.376L65.8159 18.41L66.2409 18.359L66.2749 18.41C66.2975 18.3987 66.3372 18.393 66.3939 18.393C66.4619 18.393 66.5072 18.393 66.5299 18.393C66.5639 18.393 66.6262 18.4043 66.7169 18.427H66.7509H66.9719C66.9832 18.427 67.0512 18.427 67.1759 18.427C67.3005 18.4157 67.4422 18.41 67.6009 18.41L67.8389 18.257L68.0939 18.393L68.3149 18.41L68.3829 18.427C68.4962 18.4043 68.5642 18.393 68.5869 18.393H68.6719L69.7259 18.24L69.9469 18.257L70.0319 18.206L69.9469 17.968L70.0319 17.764L69.9299 17.237L70.0319 17.05L69.7599 16.37L69.7259 16.268L69.6579 16.2C69.6692 16.1887 69.6749 16.1773 69.6749 16.166C69.6862 16.1433 69.7032 16.1093 69.7259 16.064C69.7259 16.0527 69.7259 16.047 69.7259 16.047C69.7372 16.047 69.7429 16.0413 69.7429 16.03L69.7599 16.013V15.962C69.7599 15.894 69.8392 15.8203 69.9979 15.741L70.1509 15.35L70.6779 15.418L70.8479 15.52L71.3069 15.435V15.639L71.4939 15.588V16.251L71.4089 16.37L71.5279 16.659V16.829L71.5959 17.067L71.4939 17.322L71.5279 17.509L71.4429 18.104V18.206L71.7659 18.189L72.3779 18.07L72.6839 18.087L72.8709 18.07H73.2109C73.2449 18.0473 73.2845 18.036 73.3299 18.036C73.3752 18.0247 73.4205 18.019 73.4659 18.019C73.4999 18.019 73.5339 18.0247 73.5679 18.036C73.6019 18.036 73.6415 18.0473 73.6869 18.07L74.0949 18.121ZM82.2264 16.319L82.2944 16.353L82.2774 16.438L82.2434 16.557L82.1754 16.625L82.0904 16.863L81.9374 16.931L81.8184 17.254L81.6314 17.475C81.5861 17.5657 81.5238 17.6337 81.4444 17.679C81.3651 17.7243 81.2914 17.7583 81.2234 17.781C81.2121 17.7923 81.2008 17.8093 81.1894 17.832C81.1781 17.8547 81.1668 17.883 81.1554 17.917C81.1441 17.9397 81.1328 17.9623 81.1214 17.985L80.7814 18.053C80.7361 18.1323 80.6794 18.2003 80.6114 18.257V18.342L80.3224 18.444L80.0164 18.733L79.6764 18.988C79.6198 19.022 79.5461 19.0673 79.4554 19.124C79.3648 19.1693 79.2741 19.2147 79.1834 19.26C79.1041 19.294 79.0304 19.3223 78.9624 19.345C78.8944 19.3677 78.8604 19.3733 78.8604 19.362C78.7018 19.4413 78.5318 19.5093 78.3504 19.566C78.1691 19.6113 77.9821 19.6623 77.7894 19.719L77.2454 19.787L77.2284 19.872L77.8744 20.195L78.6904 20.552L78.7244 20.671L79.0304 20.756L79.4044 20.977L79.8464 21.215L80.1014 21.419L80.3564 21.487L80.7474 21.674L81.2404 21.827L81.5974 21.861L82.2774 21.776H82.5494L82.6004 21.742C82.6798 21.6627 82.7761 21.623 82.8894 21.623L83.0594 21.538V21.504L83.3144 21.232L83.4164 21.147V21.045C83.4844 21.011 83.5298 20.994 83.5524 20.994C83.5864 20.994 83.6374 20.994 83.7054 20.994C83.7281 20.994 83.7678 20.977 83.8244 20.943C83.8811 20.8977 83.9208 20.8863 83.9434 20.909L84.1644 21.028L84.3174 21.3L84.3684 21.623L84.2154 21.878L83.7904 22.405L83.4504 22.66L83.0254 22.881L82.5834 23.034L82.1754 23.119L82.0564 23.085L81.8694 23.136L81.5974 23.102L81.2744 23.153L81.1894 23.102L81.1384 23.119L80.9004 23.085H80.5604L80.3394 22.881L79.9824 22.813L79.9144 22.711L79.7954 22.745L79.4724 22.456L79.1664 22.354L79.0134 22.167H78.5374L78.4354 21.98H78.2994L78.2144 21.844L77.9764 21.759L77.9424 21.776L77.6704 21.487L77.4324 21.317L77.1604 21.062L76.8884 20.892C76.8318 20.8467 76.7581 20.7957 76.6674 20.739C76.5881 20.6823 76.4861 20.6143 76.3614 20.535C76.3161 20.4443 76.2594 20.382 76.1914 20.348L76.2594 20.773L76.3274 20.79L76.3784 20.926L76.2424 21.487C76.2878 21.5437 76.3274 21.657 76.3614 21.827L76.2594 21.98L76.2424 22.167L76.2254 22.473L76.1064 22.728L76.0554 23.034L75.8174 23.408L75.4434 23.986C75.0468 23.986 74.8258 23.85 74.7804 23.578L74.8994 23.221L74.9674 22.966L74.9844 22.932L75.0184 22.847C75.0071 22.8243 74.9844 22.7903 74.9504 22.745C74.9278 22.6883 74.9164 22.643 74.9164 22.609C74.9164 22.541 74.9391 22.4787 74.9844 22.422L74.9164 22.354L75.1714 22.065L75.0354 21.844L75.1034 21.691C75.0468 21.5777 75.0184 21.4983 75.0184 21.453C75.0184 21.385 75.0411 21.3 75.0864 21.198L75.1204 21.113C75.1091 20.9997 75.0978 20.909 75.0864 20.841C75.0864 20.7617 75.0864 20.705 75.0864 20.671C75.0411 20.6143 75.0184 20.5123 75.0184 20.365L75.0694 20.314L74.9674 20.059L75.1034 19.94L75.0694 19.906V19.532L74.9844 19.073L75.1204 18.988C75.1091 18.954 75.1034 18.8747 75.1034 18.75V18.512H75.0694L74.9844 17.628C74.9958 17.594 75.0524 17.526 75.1544 17.424C75.1544 17.3333 75.1601 17.2767 75.1714 17.254L75.2054 17.152L75.2224 17.067C75.1318 16.8857 75.0864 16.727 75.0864 16.591C75.0864 16.387 75.1601 16.1773 75.3074 15.962C75.4321 15.928 75.5341 15.9053 75.6134 15.894C75.7041 15.8827 75.7721 15.877 75.8174 15.877C75.8968 15.877 75.9648 15.8883 76.0214 15.911C76.0894 15.9223 76.1744 15.9507 76.2764 15.996L76.6674 16.387L76.5994 16.71L76.7694 16.863L76.6674 17.05L76.7354 17.254L76.5144 17.543L76.6164 17.934L76.4804 18.291L76.3614 18.937L76.5824 18.92L76.6844 18.852L77.0414 18.75L77.2284 18.716L77.6364 18.597V18.546L77.8914 18.478C77.9821 18.3873 78.1124 18.325 78.2824 18.291L78.2654 18.274C78.2654 18.2173 78.4014 18.1777 78.6734 18.155L79.0304 18.002L79.1664 17.798L79.3704 17.713L79.4044 17.543H79.5404V17.492L79.7784 17.441L79.9314 17.186H80.0674C80.0901 17.0953 80.1298 17.0443 80.1864 17.033C80.2431 17.0103 80.3168 16.982 80.4074 16.948L80.4924 16.829L80.5264 16.659L80.7814 16.591C80.8494 16.4097 80.9401 16.2793 81.0534 16.2L81.1384 16.285L81.2234 15.996H81.4274C81.4614 15.69 81.6484 15.537 81.9884 15.537C81.9998 15.537 82.1131 15.6787 82.3284 15.962L82.2264 16.319ZM90.4068 21.606C90.4068 21.742 90.3048 21.912 90.1008 22.116C90.0441 22.2973 89.9591 22.4447 89.8458 22.558L89.7438 22.575L89.5568 22.898L89.2508 22.949L88.9278 23.153L88.7578 23.459L88.5708 23.425C88.4461 23.4817 88.3441 23.5157 88.2648 23.527L88.1628 23.68C88.1288 23.6687 88.0778 23.663 88.0098 23.663C87.8624 23.663 87.7208 23.765 87.5848 23.969L87.3468 23.765C87.3014 23.7763 87.2334 23.782 87.1428 23.782C86.9954 23.782 86.8708 23.7593 86.7688 23.714H86.4798L86.3438 23.629C85.9131 23.561 85.6411 23.3967 85.5278 23.136V23.085L85.3238 22.983L85.2218 22.694L85.0178 22.558V22.303L84.8138 21.555L84.8478 20.943L84.9158 20.671V20.314L85.0008 20.042L84.9838 19.923L85.1028 19.719L85.0688 19.753C85.0688 19.651 85.0971 19.5433 85.1538 19.43V19.345L85.1028 18.937C85.1028 18.7443 85.1878 18.5743 85.3578 18.427C85.3691 18.4043 85.3748 18.3703 85.3748 18.325C85.3748 18.2797 85.3521 18.189 85.3068 18.053C85.2728 17.9057 85.2558 17.8037 85.2558 17.747C85.2558 17.611 85.2898 17.4693 85.3578 17.322C85.4484 17.458 85.5788 17.526 85.7488 17.526H85.7998C85.8224 17.4807 85.8734 17.4297 85.9528 17.373C86.0434 17.0897 86.1681 16.8517 86.3268 16.659L86.3948 16.591C86.3948 16.5457 86.4288 16.4153 86.4968 16.2H86.6328L86.6668 16.115L86.8028 16.081C86.8594 15.9903 86.8934 15.9393 86.9048 15.928C86.9274 15.9053 87.0521 15.8317 87.2788 15.707C87.3241 15.6277 87.3921 15.554 87.4828 15.486C87.5281 15.4633 87.5848 15.4407 87.6528 15.418L87.7208 15.316C88.0268 15.214 88.2194 15.163 88.2988 15.163C88.3894 15.163 88.4744 15.1857 88.5538 15.231L88.6388 15.214L88.7578 15.282C88.8938 15.384 89.0298 15.469 89.1658 15.537L89.4548 15.758V15.826C89.7154 16.03 89.8458 16.319 89.8458 16.693L89.7948 16.863L89.8458 17.424L89.6928 17.526L89.5228 17.968L89.1998 18.325L89.1828 18.597C88.8201 18.8577 88.4858 19.0673 88.1798 19.226C88.0778 19.3847 87.9191 19.464 87.7038 19.464H87.6528L87.3298 19.668H87.0578L86.6498 19.838L86.3438 19.685H86.3098C86.2871 19.7757 86.2644 19.9117 86.2418 20.093L86.1058 20.195L86.0888 20.399L85.9868 20.688C86.0208 20.96 86.0378 21.1357 86.0378 21.215L85.9698 21.266C85.9698 21.4133 85.9641 21.521 85.9528 21.589C85.9528 21.6003 85.9471 21.6173 85.9358 21.64C85.9358 21.6627 85.9358 21.6797 85.9358 21.691C85.9358 21.7817 85.9811 21.8553 86.0718 21.912C86.1058 22.048 86.1624 22.133 86.2418 22.167L86.3608 22.269L86.7348 22.371V22.422L86.8708 22.456L87.4488 22.49L87.7888 22.439L87.9588 22.32L88.0608 22.286L88.2308 22.031L88.3158 22.014L88.7408 21.878C88.7861 21.7987 88.8598 21.7307 88.9618 21.674L89.0128 21.589C89.2394 21.5437 89.3698 21.4247 89.4038 21.232C89.5624 21.0733 89.7664 20.994 90.0158 20.994H90.0838C90.2991 21.2433 90.4068 21.4473 90.4068 21.606ZM88.7238 16.71C88.7238 16.676 88.7068 16.608 88.6728 16.506L88.5878 16.489L88.5538 16.506C88.5424 16.506 88.5198 16.506 88.4858 16.506C88.4631 16.5173 88.4404 16.523 88.4178 16.523C88.4064 16.523 88.3894 16.5173 88.3668 16.506C88.3441 16.506 88.3271 16.506 88.3158 16.506L88.1458 16.625L87.9928 16.642L87.9078 16.676L87.6188 17.05L87.4318 17.186L87.1598 17.662L87.0068 17.764C86.9728 17.9567 86.8934 18.121 86.7688 18.257L86.7008 18.376C86.8254 18.2967 86.9671 18.257 87.1258 18.257L87.2448 18.206L87.2958 18.053L87.5338 18.07L87.6698 17.866H87.7718L87.9588 17.934L88.0438 17.679H88.1628V17.492L88.3838 17.441L88.4348 17.39L88.4688 17.237L88.6898 16.914C88.7124 16.8573 88.7238 16.7893 88.7238 16.71Z" fill="#EFBB45"/>
</svg>
