<svg width="124" height="24" viewBox="0 0 124 24" fill="none" xmlns="http://www.w3.org/2000/svg">
<path d="M12.8129 4.118L12.6089 4.288C12.6429 4.33333 12.7053 4.41267 12.7959 4.526L12.1499 4.934H12.0819C12.0253 4.934 11.9516 4.917 11.8609 4.883L11.6569 5.053L11.3679 5.019L11.0619 5.274L10.7729 5.104L10.4159 5.206L10.0759 5.41C10.0533 5.39867 10.0249 5.393 9.99094 5.393C9.90027 5.393 9.84927 5.42133 9.83794 5.478L9.70194 6.039C9.74727 6.11833 9.76994 6.18633 9.76994 6.243C9.76994 6.32233 9.75294 6.40733 9.71894 6.498L9.66794 6.634L9.73594 6.668C9.73594 6.86067 9.69061 7.03067 9.59994 7.178C9.66794 7.33667 9.71327 7.46133 9.73594 7.552L9.58294 7.671L9.59994 8.283L9.44694 9.167L9.42994 9.337C9.45261 9.473 9.46394 9.56367 9.46394 9.609V9.694L9.53194 9.864L9.54894 10.17C9.53761 10.2267 9.50927 10.3117 9.46394 10.425C9.45261 10.8103 9.17494 11.0143 8.63094 11.037L8.59694 10.663L8.46094 10.442L8.35894 10.136V9.541L8.23994 9.184L8.29094 9.15L8.23994 8.895V8.47L8.29094 7.807L8.25694 7.212L8.35894 6.872V6.481C8.35894 6.40167 8.37027 6.294 8.39294 6.158C8.42694 6.022 8.44394 5.92 8.44394 5.852C8.44394 5.73867 8.40994 5.631 8.34194 5.529L8.30794 5.478L8.25694 5.512L8.03594 5.444C7.83194 5.50067 7.63927 5.529 7.45794 5.529C7.33327 5.529 7.24261 5.52333 7.18594 5.512L6.45494 5.733L5.67294 5.648C5.46894 5.62533 5.32727 5.614 5.24794 5.614C5.10061 5.614 4.89661 5.65367 4.63594 5.733H4.56794L4.17694 5.903L3.90494 5.716L3.47994 5.801L3.42894 5.767L3.36094 5.801L3.02094 5.784L2.98694 5.92L2.51094 5.733C2.31827 5.75567 2.17661 5.77267 2.08594 5.784V6.566L2.03494 6.957L2.11994 7.28L1.98394 7.535L2.10294 7.773L1.98394 8.504L2.05194 8.725L2.01794 9.133L2.17094 9.473L2.10294 9.626L2.13694 9.83C2.12561 10.0793 1.98394 10.204 1.71194 10.204C1.24727 10.204 1.01494 9.78467 1.01494 8.946L0.77694 8.657L0.69194 8.453C0.69194 8.30567 0.72594 8.181 0.79394 8.079L0.82794 7.79L0.77694 7.62L0.69194 6.294V5.937L0.65794 5.886L0.31794 5.699L0.26694 4.866L0.74294 4.594C0.799607 4.41267 0.82794 4.186 0.82794 3.914C0.82794 3.65333 0.799607 3.43233 0.74294 3.251L0.84494 3.302L0.82794 3.064L0.92994 2.707L0.82794 2.112V1.721L0.94694 1.126L1.60994 0.768999L1.93294 1.007L2.28994 1.126L2.34094 1.5L2.49394 1.721C2.43727 1.87967 2.38627 2.044 2.34094 2.214C2.37494 2.39533 2.39194 2.588 2.39194 2.792C2.39194 3.10933 2.35227 3.421 2.27294 3.727L2.42594 4.05L2.25594 4.288V4.492L2.40894 4.543L2.81694 4.492L3.10594 4.526L3.56494 4.475L3.70094 4.526C3.75761 4.51467 3.81994 4.509 3.88794 4.509C3.93327 4.509 4.00127 4.52033 4.09194 4.543L4.12594 4.56H4.38094C4.39227 4.56 4.47727 4.55433 4.63594 4.543C4.80594 4.53167 4.97594 4.526 5.14594 4.526L5.41794 4.356L5.67294 4.509L5.92794 4.526L6.01294 4.543C6.10361 4.52033 6.17727 4.509 6.23394 4.509H6.31894L8.12094 4.322L8.37594 4.339L8.46094 4.288L8.37594 3.999L8.46094 3.744L8.34194 3.047L8.46094 2.826L8.15494 2.01L8.12094 1.891L8.05294 1.806C8.06427 1.78333 8.08694 1.73233 8.12094 1.653C8.14361 1.60767 8.15494 1.585 8.15494 1.585V1.517C8.15494 1.42633 8.24561 1.34133 8.42694 1.262L8.59694 0.785999L9.07294 0.871L9.27694 0.989999L9.75294 0.888V1.126L9.95694 1.075V1.874L9.87194 2.01L10.0079 2.35V2.571L10.0929 2.843L9.95694 3.166L10.0079 3.387L9.92294 4.169V4.288L10.2799 4.271L10.9429 4.118L11.2659 4.152L11.4699 4.118H11.8439C11.9346 4.07267 12.0309 4.05 12.1329 4.05C12.2009 4.05 12.2859 4.07267 12.3879 4.118H12.8129ZM19.3605 3.115L19.1905 3.336L19.3265 3.744L19.1055 3.999L19.0205 4.356L18.9695 4.441L19.0035 4.526C19.0035 4.68467 18.9638 4.80367 18.8845 4.883L18.8505 4.934V5.002C18.8845 5.08133 18.9015 5.155 18.9015 5.223C18.9015 5.27967 18.8958 5.31933 18.8845 5.342L18.9015 5.41L18.8335 5.597L18.8845 5.801L18.7485 5.937L18.7995 6.175L18.9015 6.294L18.7485 6.43V6.702L18.6295 6.974L18.7145 7.246L18.6125 7.382L18.7825 7.501L18.5445 7.892L18.5275 7.943L18.6975 7.977L18.5785 8.368V8.436C18.5785 8.51533 18.5728 8.57767 18.5615 8.623L18.5785 8.674L18.8505 8.708L19.0715 9.048L18.9525 9.303L19.1395 9.286C19.2075 9.422 19.2471 9.541 19.2585 9.643L19.0035 9.898C18.9241 9.97733 18.8108 10.0567 18.6635 10.136L18.3745 10.289L18.2895 10.204L18.1195 10.306L17.5925 9.694V9.405C17.5245 9.17833 17.4905 8.96867 17.4905 8.776V8.674L17.3885 7.671L17.5245 6.957L17.4225 6.549L17.1335 7.025L16.9805 7.467L16.8445 7.535L16.6065 7.909L16.1815 8.3L16.0625 8.504L15.6885 8.827L15.6035 9.048L15.0595 9.388L14.4815 10.034L14.1585 10.102L13.9375 10.272C13.6541 10.2607 13.4388 10.153 13.2915 9.949C12.7815 9.69967 12.5151 9.34267 12.4925 8.878L12.5775 8.827L12.5605 8.725L12.5435 8.521L12.4415 8.3L12.5435 8.062L12.5775 7.705L12.6965 7.144C12.6965 7.13267 12.6965 7.11 12.6965 7.076C12.6851 7.05333 12.6795 7.03067 12.6795 7.008C12.6795 6.96267 12.6908 6.906 12.7135 6.838C12.7021 6.81533 12.6965 6.77 12.6965 6.702C12.6965 6.62267 12.7305 6.49233 12.7985 6.311L12.9175 6.26C12.8495 6.20333 12.8155 6.141 12.8155 6.073C12.8155 6.02767 12.8211 5.99367 12.8325 5.971C12.8211 5.937 12.8155 5.89733 12.8155 5.852C12.8155 5.716 12.8835 5.614 13.0195 5.546C13.0535 5.43267 13.1158 5.31933 13.2065 5.206L13.1215 5.07L13.3255 4.815V4.747C13.3255 4.53167 13.3991 4.33333 13.5465 4.152L13.5295 3.846L13.5975 3.778C13.5975 3.76667 13.5975 3.74967 13.5975 3.727C13.5861 3.70433 13.5805 3.68733 13.5805 3.676C13.5805 3.608 13.6031 3.55133 13.6485 3.506V3.404C13.6938 3.29067 13.8128 3.12067 14.0055 2.894C14.1981 2.66733 14.3398 2.469 14.4305 2.299L14.5155 2.384L14.7025 2.299L14.7875 2.265L15.3485 2.01L16.6575 2.078V2.197L17.0655 2.282C17.3261 2.282 17.4961 2.367 17.5755 2.537C17.5755 2.503 17.5811 2.46333 17.5925 2.418C17.5925 2.384 17.5925 2.36133 17.5925 2.35L17.9495 2.673L18.2725 2.741L18.8845 2.588L19.1055 3.013L19.3605 3.115ZM17.7455 3.999L17.6775 3.88L17.5415 3.846L17.0145 3.421L16.6745 3.37H16.4025L16.3685 3.336L16.2325 3.387L16.0795 3.302H15.6375L15.6885 3.37L15.2975 3.506L15.2295 3.591L15.1785 3.608C14.9745 3.778 14.8328 3.91967 14.7535 4.033L14.6345 4.441L14.5665 4.594L14.7365 4.832L14.4475 5.053L14.4815 5.121C14.3568 5.33633 14.2945 5.546 14.2945 5.75L14.1585 5.92V6.226L14.0225 6.379L13.9885 6.532L13.9375 6.566V6.804L13.8865 6.889C13.8865 7.025 13.8751 7.13267 13.8525 7.212L13.8865 7.297L13.7335 7.62L13.8015 7.722L13.6825 7.892L13.8015 8.215L13.6145 8.453L13.6485 8.776V8.827L13.7165 8.861L13.8015 8.844C13.8581 8.78733 13.9148 8.73633 13.9715 8.691L13.9375 8.555L14.1755 8.521L14.2265 8.402L15.2295 7.586L15.3315 7.552L15.4505 7.263C15.5185 7.24033 15.6148 7.195 15.7395 7.127L15.8415 6.855H15.9775L15.9265 6.566L16.1645 6.532C16.1871 6.48667 16.2211 6.43 16.2665 6.362C16.3231 6.294 16.3798 6.23167 16.4365 6.175L17.3035 5.019L17.4395 4.764L17.4225 4.696L17.5415 4.509L17.5755 4.322L17.7285 4.186L17.7455 3.999ZM21.9952 3.676L22.1142 3.081C22.1595 3.00167 22.2332 2.92233 22.3352 2.843C22.4372 2.76367 22.5845 2.724 22.7772 2.724L23.0492 2.928L23.5082 2.843L23.8652 2.962C23.9672 2.93933 24.0635 2.945 24.1542 2.979C24.2449 3.013 24.3355 3.03 24.4262 3.03C24.5735 3.03 24.6642 3.03567 24.6982 3.047L24.7492 2.826L25.1912 2.911C25.2932 2.92233 25.3782 2.93367 25.4462 2.945C25.5142 2.945 25.5709 2.945 25.6162 2.945C25.7862 2.945 25.9902 2.90533 26.2282 2.826H26.2962L26.6872 2.656L26.9592 2.843L27.3842 2.758L27.4352 2.792L27.5032 2.758L27.8432 2.775L27.8772 2.639L28.3532 2.826L28.7272 2.792L28.7442 2.741L29.2202 2.826L29.4242 2.945L29.6792 2.877C29.8265 2.86567 29.9399 2.89967 30.0192 2.979C30.1099 3.05833 30.1552 3.13767 30.1552 3.217L30.1042 3.829L30.0192 3.931L30.1552 4.186V4.339L30.2402 4.543L30.1042 4.764L30.1552 4.934L30.0702 5.495V5.58L29.9852 5.835L29.8832 5.988L30.0022 6.124C29.9909 6.13533 29.9852 6.158 29.9852 6.192C29.9852 6.226 29.9795 6.27133 29.9682 6.328C29.9569 6.38467 29.9625 6.41867 29.9852 6.43L29.8492 6.838C29.8945 6.89467 29.9172 6.94567 29.9172 6.991C29.9172 7.04767 29.9002 7.11 29.8662 7.178L29.8152 7.263L29.8832 7.297C29.8832 7.42167 29.8379 7.54067 29.7472 7.654C29.8265 7.79 29.8719 7.88633 29.8832 7.943L29.7302 8.028L29.7472 8.47L29.5942 9.099L29.5772 9.218C29.5885 9.27467 29.5942 9.32 29.5942 9.354C29.6055 9.37667 29.6112 9.39933 29.6112 9.422V9.49L29.6792 9.609L29.6962 9.83C29.6849 9.85267 29.6735 9.881 29.6622 9.915C29.6509 9.93767 29.6339 9.97167 29.6112 10.017C29.5885 10.3003 29.3109 10.442 28.7782 10.442L28.7442 10.187L28.6082 10.034L28.5062 9.796V9.388L28.3872 9.116L28.4382 9.099L28.3872 8.912V8.606L28.4382 8.13L28.4042 7.688L28.5062 7.45V7.178C28.5062 7.12133 28.5175 7.042 28.5402 6.94C28.5742 6.838 28.5912 6.75867 28.5912 6.702L28.4892 6.481L28.5232 6.158L28.4892 5.937L28.6592 5.801C28.6252 5.733 28.6082 5.67633 28.6082 5.631V5.597L28.5232 5.359L28.6082 5.189L28.4892 4.679L28.6082 4.475L28.7442 3.965L28.0472 4.016L27.7582 3.982L27.2992 4.033L27.1632 3.982C27.1292 3.99333 27.0669 3.999 26.9762 3.999C26.9535 3.999 26.8855 3.98767 26.7722 3.965L26.7382 3.948H26.4832C26.4719 3.948 26.3812 3.95367 26.2112 3.965C26.0525 3.97633 25.8882 3.982 25.7182 3.982L25.4462 4.152L25.1912 3.999L24.9362 3.982L24.8512 3.965C24.7379 3.98767 24.6642 3.999 24.6302 3.999H24.5452L23.8142 4.084L23.4402 3.948L23.4572 4.084C23.4685 4.152 23.4799 4.22 23.4912 4.288C23.5025 4.356 23.5082 4.424 23.5082 4.492C23.5082 4.74133 23.4685 4.968 23.3892 5.172L23.5422 5.41L23.3722 5.58V5.733L23.4232 5.835C23.4232 5.971 23.3779 6.09567 23.2872 6.209C23.3552 6.32233 23.4005 6.413 23.4232 6.481L23.2532 6.668V7.229L23.2022 7.501L23.2872 7.739L23.1512 7.926L23.2702 8.096L23.1512 8.623L23.2192 8.793L23.1852 9.082L23.1682 9.269L23.1002 9.388L23.1342 9.524C23.1115 9.694 22.9699 9.779 22.7092 9.779C22.2445 9.779 22.0122 9.48433 22.0122 8.895L21.9442 8.725L21.8592 8.589C21.8592 8.49833 21.8932 8.40767 21.9612 8.317L21.9952 8.113L21.9442 7.977L21.8592 7.025V6.77L21.8252 6.736L21.8932 6.481L21.9272 6.141L21.9102 5.801C21.9669 5.65367 21.9952 5.48933 21.9952 5.308C21.9952 5.12667 21.9669 4.968 21.9102 4.832L22.0122 4.866L21.9952 4.696L22.0972 4.441L21.9952 3.999V3.676ZM38.2928 6.022L38.1908 6.328C38.1908 6.62267 38.1738 6.855 38.1398 7.025L38.0378 7.195V7.382L37.9528 7.501L37.9018 7.739L37.7148 7.926L37.5958 8.351L37.4598 8.402L37.3918 8.589L37.1878 8.708L37.0518 8.997L36.8478 9.099L36.8308 9.303L36.5078 9.422C36.3604 9.626 36.1791 9.75633 35.9638 9.813L35.8958 9.83C35.7371 10.068 35.5274 10.187 35.2668 10.187C35.1534 10.255 35.0231 10.289 34.8758 10.289L34.7058 10.408L34.5358 10.459L34.3148 10.629L34.0938 10.612L33.8558 10.68L33.5668 10.561L32.8358 10.51L32.5808 10.119L32.2068 9.728L32.2918 9.456L32.0368 8.878L32.1558 8.657L32.0708 8.249L32.1558 7.994C32.1331 7.83533 32.1218 7.722 32.1218 7.654C32.1218 7.43867 32.1784 7.28 32.2918 7.178C32.3031 7.06467 32.3768 6.87767 32.5128 6.617H32.5978L32.5638 6.498L32.6148 6.26V6.005C32.7054 5.903 32.7564 5.835 32.7678 5.801L32.7168 5.563V5.495C32.7961 5.33633 32.8358 5.172 32.8358 5.002L33.1928 4.509C33.1928 4.509 33.2041 4.49767 33.2268 4.475C33.2608 4.45233 33.2891 4.42967 33.3118 4.407L33.2948 4.339H33.3628L33.6178 4.05L33.6348 3.659L34.0598 3.506C34.2184 3.404 34.3204 3.234 34.3658 2.996H34.5868C34.7114 2.928 34.8248 2.894 34.9268 2.894C35.0288 2.894 35.1251 2.91667 35.2158 2.962L35.4028 2.979L35.8448 2.809L36.0828 3.03L36.2698 3.149H36.4058L36.6608 3.285H36.7968C36.9441 3.421 37.1141 3.608 37.3068 3.846L37.3408 3.931L37.4598 3.999L37.8168 4.458L38.1398 5.257V5.427L38.2928 6.022ZM37.1708 6.43L37.1538 6.345C37.0744 6.26567 37.0291 6.18067 37.0178 6.09L37.0688 6.005L36.9158 5.682L36.9498 5.359L36.8818 5.274C36.7344 5.16067 36.6551 5.07 36.6438 5.002C36.5418 4.95667 36.4908 4.84333 36.4908 4.662L36.3888 4.645L36.1848 4.305L36.0318 4.186L35.6748 4.05L35.5388 4.016C35.4708 4.016 35.4254 3.99333 35.4028 3.948L35.0628 4.322L34.8418 4.798L34.4848 4.985L34.4338 5.172L34.2638 5.257L34.1958 5.699L33.9918 5.801C33.9464 5.95967 33.9238 6.107 33.9238 6.243L33.6518 6.498L33.7368 6.549C33.7368 6.685 33.6858 6.804 33.5838 6.906C33.5498 7.008 33.5044 7.12133 33.4478 7.246V7.382L33.3968 7.45L33.4138 7.654L33.2268 8.113L33.2608 8.198V8.674L33.1928 8.912L33.2098 9.15L33.3628 9.371L33.6008 9.456L33.6858 9.49L33.8218 9.422L34.2638 9.456L34.3318 9.286H34.3998C34.4678 9.286 34.5074 9.303 34.5188 9.337L34.6718 9.286L34.8078 9.337L35.0288 9.184L35.0628 9.133L35.2158 9.099C35.2951 8.97433 35.4821 8.84967 35.7768 8.725L35.8108 8.64L36.1508 8.402L36.3378 8.13L36.6098 7.994L36.6268 7.909L36.7118 7.722V7.501L36.9158 7.331L36.9838 7.212L37.0688 7.11C37.0234 6.974 37.0008 6.87767 37.0008 6.821C37.0008 6.719 37.0348 6.61133 37.1028 6.498L37.1708 6.43ZM45.4344 6.787C45.661 6.52633 45.7744 6.396 45.7744 6.396L45.7914 6.362C45.814 6.33933 45.831 6.328 45.8424 6.328C45.8537 6.31667 45.8764 6.29967 45.9104 6.277C45.9217 6.25433 45.9444 6.23733 45.9784 6.226C46.0124 6.20333 46.0577 6.175 46.1144 6.141C46.205 5.99367 46.324 5.88033 46.4714 5.801L46.5224 5.716V5.58C46.7604 5.28533 46.953 5.11533 47.1004 5.07C47.1004 4.92267 47.2534 4.781 47.5594 4.645L47.8144 4.288L47.8994 4.033H48.0694C48.092 3.931 48.126 3.85167 48.1714 3.795C48.2167 3.727 48.262 3.659 48.3074 3.591L48.2734 3.489L48.1204 3.2L48.3414 2.894L48.4774 2.52H48.7494C48.7947 2.52 48.8344 2.51433 48.8684 2.503C48.959 2.503 49.112 2.54833 49.3274 2.639L49.3444 2.758L49.5484 2.894L49.5654 3.013L49.7184 3.115L49.6334 3.2C49.8034 3.25667 49.8884 3.336 49.8884 3.438C49.8884 3.49467 49.8714 3.54567 49.8374 3.591V3.829L50.0414 4.084L49.9394 4.169L49.9224 4.237L49.9564 4.254L50.0244 4.475L50.2454 4.645L50.0584 4.849L49.9734 5.172L50.0924 5.41L50.0584 5.733L50.2284 6.175C50.2624 6.26567 50.285 6.35633 50.2964 6.447C50.3077 6.52633 50.3134 6.59433 50.3134 6.651C50.3134 6.719 50.2737 6.80967 50.1944 6.923C50.2624 6.97967 50.2964 7.03633 50.2964 7.093C50.2964 7.17233 50.2624 7.263 50.1944 7.365L50.2624 7.416L50.2114 8.232L50.3984 8.691V9.184C50.421 9.22933 50.4437 9.27467 50.4664 9.32C50.5004 9.36533 50.5287 9.41633 50.5514 9.473C50.5627 9.48433 50.5967 9.51833 50.6534 9.575C50.7214 9.63167 50.8064 9.711 50.9084 9.813C51.033 9.93767 51.101 10.0453 51.1124 10.136C51.0557 10.2833 50.8404 10.4193 50.4664 10.544L49.9394 10.238L49.4464 9.728L49.2764 9.388L49.2254 9.116L49.1574 8.963C49.078 8.80433 49.0214 8.657 48.9874 8.521C48.9647 8.385 48.9534 8.25467 48.9534 8.13C48.9534 8.096 48.9534 8.062 48.9534 8.028C48.9647 7.994 48.976 7.95433 48.9874 7.909L49.0214 7.875L49.0724 7.603L48.8684 7.28L48.9364 7.093L48.8854 6.872L48.9194 6.668C48.8967 6.61133 48.8797 6.56033 48.8684 6.515C48.8684 6.45833 48.8684 6.40733 48.8684 6.362V6.277C48.8684 6.12967 48.84 5.954 48.7834 5.75V5.342L48.7324 5.087L48.7834 4.679L48.5794 4.883L48.1714 5.529L47.7634 5.988L47.6104 6.277L47.1514 6.77L46.6584 7.11L46.6074 7.399L46.3014 7.501L46.2504 7.654L45.8934 7.824L45.7744 8.096L45.5194 8.181L45.2304 8.657L45.0434 8.759L44.9924 9.031C44.913 9.065 44.8337 9.09333 44.7544 9.116C44.6864 9.13867 44.607 9.15 44.5164 9.15H44.4314L44.2954 8.861L44.0744 8.572L44.0914 8.419L43.9554 8.215L44.0234 8.113L44.0064 8.096L43.9384 7.858L43.8194 7.773C43.6154 7.569 43.468 7.399 43.3774 7.263L43.2924 6.991L43.1564 6.821L42.8674 6.311L42.5784 5.988L42.4764 5.818L42.2044 5.529L41.9324 5.053C41.887 5.14367 41.8644 5.223 41.8644 5.291C41.8644 5.34767 41.8587 5.461 41.8474 5.631L41.5584 6.073L41.6434 6.396L41.4904 6.719L41.1674 7.62L41.0314 7.926L40.9974 8.113L40.7254 8.589L40.5044 8.912L40.5384 9.201C40.5157 9.29167 40.476 9.37667 40.4194 9.456C40.3627 9.53533 40.306 9.62033 40.2494 9.711L40.3684 10.068C40.0284 10.3513 39.7904 10.493 39.6544 10.493C39.4504 10.493 39.3144 10.4193 39.2464 10.272C39.2124 10.238 39.1784 10.1983 39.1444 10.153C39.1217 10.119 39.1047 10.0737 39.0934 10.017V9.949C39.2974 9.22367 39.4334 8.861 39.5014 8.861C39.5127 8.861 39.5184 8.86667 39.5184 8.878V8.64C39.5184 8.39067 39.626 8.198 39.8414 8.062V7.977L39.9264 7.688L39.9094 7.586C39.9094 7.56333 39.9207 7.518 39.9434 7.45C39.9774 7.382 40.017 7.29133 40.0624 7.178L40.1474 7.11V6.719L40.3174 6.464L40.5554 5.733L40.4874 5.291L40.6914 5.121V5.087L40.7084 4.509L40.7764 4.271C40.8104 4.19167 40.8274 4.12367 40.8274 4.067V3.999L40.5384 3.54L40.6234 3.251L40.7424 3.234L40.8614 3.081L40.8444 2.962L41.0824 2.792L41.2014 2.843L41.4224 2.707L41.6434 2.724L42.0514 2.979V3.081L42.2044 3.166L42.3914 3.506L42.3744 3.693L42.3914 3.795C42.4254 3.81767 42.4594 3.84033 42.4934 3.863C42.5387 3.88567 42.5897 3.92533 42.6464 3.982L42.6634 4.186L42.8334 4.322L42.9354 4.611L43.6494 5.223L43.8024 5.58L44.0404 5.699L44.3124 6.277L44.8054 7.042L44.8734 7.246H44.9584L45.0774 7.008L45.4344 6.787ZM54.3223 8.368L54.4583 8.895L54.5773 8.725L54.9513 8.283L55.4783 8.028C55.535 7.892 55.6256 7.79 55.7503 7.722C55.8863 7.64267 56.0166 7.57467 56.1413 7.518L57.1273 6.617L57.5863 6.073L57.9943 5.784L58.0113 5.699C58.034 5.60833 58.0906 5.563 58.1813 5.563C58.272 5.55167 58.3456 5.53467 58.4023 5.512L58.7423 5.002L58.7933 4.9L59.4223 4.526L60.0853 3.642L60.3573 3.489L60.4423 3.268L60.6803 3.149C60.737 3.047 60.8333 2.93367 60.9693 2.809C61.1166 2.68433 61.2526 2.59367 61.3773 2.537L61.5133 2.69L61.6663 2.656C61.9156 2.67867 62.0346 2.76367 62.0233 2.911C62.0573 2.96767 62.0743 3.03 62.0743 3.098C62.0743 3.15467 62.046 3.22267 61.9893 3.302L61.9213 4.135L61.8533 4.271L61.8703 4.679L61.7853 5.172L61.8193 5.852L61.6663 6.124L61.9043 6.549L61.7683 6.957L61.8533 7.195L61.9383 7.365L61.8873 7.807V7.96C61.8986 7.994 61.9043 8.028 61.9043 8.062C61.9043 8.08467 61.9043 8.10733 61.9043 8.13L61.8533 8.232L61.7343 8.368C61.7456 8.39067 61.7513 8.436 61.7513 8.504C61.7513 8.56067 61.74 8.606 61.7173 8.64C61.706 8.66267 61.6946 8.68533 61.6833 8.708L61.7853 8.929L61.6493 9.167L61.7853 9.66C61.7513 9.864 61.655 10.017 61.4963 10.119C61.349 10.221 61.1846 10.272 61.0033 10.272H60.6973C60.6406 10.1813 60.584 10.0907 60.5273 10C60.482 9.898 60.4536 9.79033 60.4423 9.677C60.4423 9.63167 60.4593 9.58067 60.4933 9.524L60.3233 9.286L60.4423 9.082L60.4253 8.793L60.4763 8.47L60.3233 7.96L60.4763 7.926C60.4536 7.88067 60.4423 7.83533 60.4423 7.79C60.4536 7.73333 60.4593 7.67667 60.4593 7.62C60.4593 7.50667 60.499 7.416 60.5783 7.348L60.6293 7.144L60.4763 6.43L60.5273 6.005L60.4423 5.393L60.5783 5.24L60.6293 4.917L60.6803 4.662L60.5953 4.645L60.1703 5.223L59.8473 5.461L59.6603 5.682C59.5696 5.80667 59.4676 5.92567 59.3543 6.039C59.241 6.15233 59.122 6.25433 58.9973 6.345L58.8103 6.617L58.5383 6.685L58.0623 7.365L57.4163 7.892L57.1443 8.164L56.9403 8.283L56.6683 8.521L56.2603 8.725L56.1923 8.861L54.9683 9.762L54.8833 9.779L54.7643 10C54.7076 10.0113 54.6453 10.034 54.5773 10.068C54.5206 10.1133 54.4583 10.1417 54.3903 10.153L54.3053 10.221H54.2883V10.34L53.3363 10.578L53.1663 10.357L52.9113 10.17L53.2003 9.864L53.0303 9.235L53.0813 9.184L52.9963 8.997L53.3363 8.827L53.0813 8.504L53.3023 8.147L53.2343 7.841L53.2513 7.62L53.1663 7.144L53.3023 6.974L53.1663 6.43L53.2853 6.277L53.0983 6.005L53.2003 5.342L53.1663 5.274C53.0756 5.19467 53.0246 4.92267 53.0133 4.458L52.9963 4.407L53.0473 4.084L52.9963 3.88C53.019 3.78933 53.07 3.693 53.1493 3.591C53.206 3.57967 53.2343 3.54567 53.2343 3.489C53.2343 3.43233 53.2513 3.37567 53.2853 3.319C53.3193 3.251 53.325 3.17167 53.3023 3.081L53.8463 3.013L53.9313 2.86L54.7813 3.183L54.6793 3.336L54.8663 3.506L54.6623 3.625L54.8493 4.169L54.6113 4.356V5.172L54.4923 5.631L54.6453 6.192L54.3903 6.413V6.464L54.5433 6.685L54.5263 7.45L54.4583 7.501L54.5773 7.773L54.3223 8.368ZM74.9291 5.121L74.7421 5.257L74.8951 5.563L74.3171 5.903H74.2491C74.1924 5.903 74.1301 5.886 74.0621 5.852L73.8751 5.988L73.6201 5.971L73.3311 6.175L73.0761 6.039L72.7361 6.124L72.4131 6.294C72.4131 6.28267 72.3904 6.277 72.3451 6.277C72.2771 6.277 72.2318 6.29967 72.2091 6.345L72.0731 6.719C72.1298 6.77567 72.1581 6.83233 72.1581 6.889C72.1581 6.96833 72.1354 7.03633 72.0901 7.093L72.0561 7.212L72.1241 7.229C72.1241 7.30833 72.1071 7.38767 72.0731 7.467C72.0504 7.535 72.0221 7.59733 71.9881 7.654C72.0221 7.722 72.0448 7.78433 72.0561 7.841C72.0788 7.88633 72.1014 7.926 72.1241 7.96L71.9711 8.062L71.9881 8.572L71.8521 9.303L71.8351 9.456C71.8464 9.51267 71.8521 9.558 71.8521 9.592C71.8634 9.626 71.8691 9.65433 71.8691 9.677V9.745L71.9371 9.881L71.9541 10.136C71.9428 10.1587 71.9314 10.187 71.9201 10.221C71.9088 10.255 71.8918 10.3003 71.8691 10.357C71.8578 10.5157 71.7784 10.6347 71.6311 10.714C71.4838 10.8047 71.2798 10.8557 71.0191 10.867L70.9851 10.544L70.8661 10.374L70.7811 10.119V9.626L70.6621 9.32L70.6961 9.303L70.6621 9.082V8.725L70.6961 8.181L70.6791 7.688L70.7811 7.399V7.076C70.7811 7.01933 70.7924 6.95133 70.8151 6.872C70.8378 6.78133 70.8491 6.70767 70.8491 6.651C70.8491 6.57167 70.8208 6.48667 70.7641 6.396L70.7301 6.345L70.6791 6.379L70.4751 6.328C70.3844 6.35067 70.2938 6.36767 70.2031 6.379C70.1238 6.39033 70.0388 6.396 69.9481 6.396C69.8914 6.396 69.8404 6.396 69.7951 6.396C69.7498 6.396 69.7158 6.39033 69.6931 6.379L69.4721 6.566L69.0131 6.498C68.9224 6.48667 68.8431 6.481 68.7751 6.481C68.7071 6.46967 68.6561 6.464 68.6221 6.464C68.4634 6.464 68.2764 6.498 68.0611 6.566H67.9931L67.6191 6.702L67.3811 6.549L66.9901 6.617L66.9561 6.583L66.8881 6.617L66.5821 6.6L66.5481 6.719L66.1061 6.566L65.7151 6.6V7.144L65.6811 7.467L65.7491 7.739L65.6301 7.96L65.7321 8.147L65.6301 8.759L65.6981 8.946L65.6641 9.286L65.8171 9.558L65.7321 9.694L65.7661 9.864C65.7434 10.068 65.6131 10.17 65.3751 10.17C65.1711 10.17 65.0011 10.085 64.8651 9.915C64.7291 9.73367 64.6611 9.473 64.6611 9.133L64.4401 8.878L64.3551 8.708C64.3551 8.65133 64.3664 8.60033 64.3891 8.555C64.4118 8.49833 64.4344 8.44733 64.4571 8.402L64.4911 8.164L64.4401 8.028L64.3551 6.923V6.736L64.3381 6.685L63.9301 6.396L63.9811 5.733L64.4231 5.461C64.4458 5.38167 64.4628 5.29667 64.4741 5.206C64.4854 5.11533 64.4911 5.01333 64.4911 4.9C64.4911 4.78667 64.4854 4.696 64.4741 4.628C64.4628 4.56 64.4458 4.48067 64.4231 4.39L64.5081 4.441L64.4911 4.237L64.5931 3.948L64.4911 3.455V3.132L64.6101 2.639L65.2901 2.333L65.5791 2.537L65.9021 2.639L65.9531 2.945L66.0891 3.132L65.9531 3.54C65.9758 3.61933 65.9871 3.69867 65.9871 3.778C65.9984 3.846 66.0041 3.92533 66.0041 4.016C66.0041 4.152 65.9984 4.288 65.9871 4.424C65.9758 4.54867 65.9474 4.67333 65.9021 4.798L66.0381 5.019L65.8851 5.206V5.376L66.0211 5.427L66.3951 5.376L66.6501 5.41L67.0751 5.359L67.1091 5.41C67.1318 5.39867 67.1714 5.393 67.2281 5.393C67.2961 5.393 67.3414 5.393 67.3641 5.393C67.3981 5.393 67.4604 5.40433 67.5511 5.427H67.5851H67.8061C67.8174 5.427 67.8854 5.427 68.0101 5.427C68.1348 5.41567 68.2764 5.41 68.4351 5.41L68.6731 5.257L68.9281 5.393L69.1491 5.41L69.2171 5.427C69.3304 5.40433 69.3984 5.393 69.4211 5.393H69.5061L70.5601 5.24L70.7811 5.257L70.8661 5.206L70.7811 4.968L70.8661 4.764L70.7641 4.237L70.8661 4.05L70.5941 3.37L70.5601 3.268L70.4921 3.2C70.5034 3.18867 70.5091 3.17733 70.5091 3.166C70.5204 3.14333 70.5374 3.10933 70.5601 3.064C70.5601 3.05267 70.5601 3.047 70.5601 3.047C70.5714 3.047 70.5771 3.04133 70.5771 3.03L70.5941 3.013V2.962C70.5941 2.894 70.6734 2.82033 70.8321 2.741L70.9851 2.35L71.5121 2.418L71.6821 2.52L72.1411 2.435V2.639L72.3281 2.588V3.251L72.2431 3.37L72.3621 3.659V3.829L72.4301 4.067L72.3281 4.322L72.3621 4.509L72.2771 5.104V5.206L72.6001 5.189L73.2121 5.07L73.5181 5.087L73.7051 5.07H74.0451C74.0791 5.04733 74.1188 5.036 74.1641 5.036C74.2094 5.02467 74.2548 5.019 74.3001 5.019C74.3341 5.019 74.3681 5.02467 74.4021 5.036C74.4361 5.036 74.4758 5.04733 74.5211 5.07L74.9291 5.121ZM81.9897 3.115L81.8197 3.336L81.9557 3.744L81.7347 3.999L81.6497 4.356L81.5987 4.441L81.6327 4.526C81.6327 4.68467 81.593 4.80367 81.5137 4.883L81.4797 4.934V5.002C81.5137 5.08133 81.5307 5.155 81.5307 5.223C81.5307 5.27967 81.525 5.31933 81.5137 5.342L81.5307 5.41L81.4627 5.597L81.5137 5.801L81.3777 5.937L81.4287 6.175L81.5307 6.294L81.3777 6.43V6.702L81.2587 6.974L81.3437 7.246L81.2417 7.382L81.4117 7.501L81.1737 7.892L81.1567 7.943L81.3267 7.977L81.2077 8.368V8.436C81.2077 8.51533 81.202 8.57767 81.1907 8.623L81.2077 8.674L81.4797 8.708L81.7007 9.048L81.5817 9.303L81.7687 9.286C81.8367 9.422 81.8764 9.541 81.8877 9.643L81.6327 9.898C81.5534 9.97733 81.44 10.0567 81.2927 10.136L81.0037 10.289L80.9187 10.204L80.7487 10.306L80.2217 9.694V9.405C80.1537 9.17833 80.1197 8.96867 80.1197 8.776V8.674L80.0177 7.671L80.1537 6.957L80.0517 6.549L79.7627 7.025L79.6097 7.467L79.4737 7.535L79.2357 7.909L78.8107 8.3L78.6917 8.504L78.3177 8.827L78.2327 9.048L77.6887 9.388L77.1107 10.034L76.7877 10.102L76.5667 10.272C76.2834 10.2607 76.068 10.153 75.9207 9.949C75.4107 9.69967 75.1444 9.34267 75.1217 8.878L75.2067 8.827L75.1897 8.725L75.1727 8.521L75.0707 8.3L75.1727 8.062L75.2067 7.705L75.3257 7.144C75.3257 7.13267 75.3257 7.11 75.3257 7.076C75.3144 7.05333 75.3087 7.03067 75.3087 7.008C75.3087 6.96267 75.32 6.906 75.3427 6.838C75.3314 6.81533 75.3257 6.77 75.3257 6.702C75.3257 6.62267 75.3597 6.49233 75.4277 6.311L75.5467 6.26C75.4787 6.20333 75.4447 6.141 75.4447 6.073C75.4447 6.02767 75.4504 5.99367 75.4617 5.971C75.4504 5.937 75.4447 5.89733 75.4447 5.852C75.4447 5.716 75.5127 5.614 75.6487 5.546C75.6827 5.43267 75.745 5.31933 75.8357 5.206L75.7507 5.07L75.9547 4.815V4.747C75.9547 4.53167 76.0284 4.33333 76.1757 4.152L76.1587 3.846L76.2267 3.778C76.2267 3.76667 76.2267 3.74967 76.2267 3.727C76.2154 3.70433 76.2097 3.68733 76.2097 3.676C76.2097 3.608 76.2324 3.55133 76.2777 3.506V3.404C76.323 3.29067 76.442 3.12067 76.6347 2.894C76.8274 2.66733 76.969 2.469 77.0597 2.299L77.1447 2.384L77.3317 2.299L77.4167 2.265L77.9777 2.01L79.2867 2.078V2.197L79.6947 2.282C79.9554 2.282 80.1254 2.367 80.2047 2.537C80.2047 2.503 80.2104 2.46333 80.2217 2.418C80.2217 2.384 80.2217 2.36133 80.2217 2.35L80.5787 2.673L80.9017 2.741L81.5137 2.588L81.7347 3.013L81.9897 3.115ZM80.3747 3.999L80.3067 3.88L80.1707 3.846L79.6437 3.421L79.3037 3.37H79.0317L78.9977 3.336L78.8617 3.387L78.7087 3.302H78.2667L78.3177 3.37L77.9267 3.506L77.8587 3.591L77.8077 3.608C77.6037 3.778 77.462 3.91967 77.3827 4.033L77.2637 4.441L77.1957 4.594L77.3657 4.832L77.0767 5.053L77.1107 5.121C76.986 5.33633 76.9237 5.546 76.9237 5.75L76.7877 5.92V6.226L76.6517 6.379L76.6177 6.532L76.5667 6.566V6.804L76.5157 6.889C76.5157 7.025 76.5044 7.13267 76.4817 7.212L76.5157 7.297L76.3627 7.62L76.4307 7.722L76.3117 7.892L76.4307 8.215L76.2437 8.453L76.2777 8.776V8.827L76.3457 8.861L76.4307 8.844C76.4874 8.78733 76.544 8.73633 76.6007 8.691L76.5667 8.555L76.8047 8.521L76.8557 8.402L77.8587 7.586L77.9607 7.552L78.0797 7.263C78.1477 7.24033 78.244 7.195 78.3687 7.127L78.4707 6.855H78.6067L78.5557 6.566L78.7937 6.532C78.8164 6.48667 78.8504 6.43 78.8957 6.362C78.9524 6.294 79.009 6.23167 79.0657 6.175L79.9327 5.019L80.0687 4.764L80.0517 4.696L80.1707 4.509L80.2047 4.322L80.3577 4.186L80.3747 3.999ZM94.8924 5.121L94.7054 5.257L94.8584 5.563L94.2804 5.903H94.2124C94.1558 5.903 94.0934 5.886 94.0254 5.852L93.8384 5.988L93.5834 5.971L93.2944 6.175L93.0394 6.039L92.6994 6.124L92.3764 6.294C92.3764 6.28267 92.3538 6.277 92.3084 6.277C92.2404 6.277 92.1951 6.29967 92.1724 6.345L92.0364 6.719C92.0931 6.77567 92.1214 6.83233 92.1214 6.889C92.1214 6.96833 92.0988 7.03633 92.0534 7.093L92.0194 7.212L92.0874 7.229C92.0874 7.30833 92.0704 7.38767 92.0364 7.467C92.0138 7.535 91.9854 7.59733 91.9514 7.654C91.9854 7.722 92.0081 7.78433 92.0194 7.841C92.0421 7.88633 92.0648 7.926 92.0874 7.96L91.9344 8.062L91.9514 8.572L91.8154 9.303L91.7984 9.456C91.8098 9.51267 91.8154 9.558 91.8154 9.592C91.8268 9.626 91.8324 9.65433 91.8324 9.677V9.745L91.9004 9.881L91.9174 10.136C91.9061 10.1587 91.8948 10.187 91.8834 10.221C91.8721 10.255 91.8551 10.3003 91.8324 10.357C91.8211 10.5157 91.7418 10.6347 91.5944 10.714C91.4471 10.8047 91.2431 10.8557 90.9824 10.867L90.9484 10.544L90.8294 10.374L90.7444 10.119V9.626L90.6254 9.32L90.6594 9.303L90.6254 9.082V8.725L90.6594 8.181L90.6424 7.688L90.7444 7.399V7.076C90.7444 7.01933 90.7558 6.95133 90.7784 6.872C90.8011 6.78133 90.8124 6.70767 90.8124 6.651C90.8124 6.57167 90.7841 6.48667 90.7274 6.396L90.6934 6.345L90.6424 6.379L90.4384 6.328C90.3478 6.35067 90.2571 6.36767 90.1664 6.379C90.0871 6.39033 90.0021 6.396 89.9114 6.396C89.8548 6.396 89.8038 6.396 89.7584 6.396C89.7131 6.396 89.6791 6.39033 89.6564 6.379L89.4354 6.566L88.9764 6.498C88.8858 6.48667 88.8064 6.481 88.7384 6.481C88.6704 6.46967 88.6194 6.464 88.5854 6.464C88.4268 6.464 88.2398 6.498 88.0244 6.566H87.9564L87.5824 6.702L87.3444 6.549L86.9534 6.617L86.9194 6.583L86.8514 6.617L86.5454 6.6L86.5114 6.719L86.0694 6.566L85.6784 6.6V7.144L85.6444 7.467L85.7124 7.739L85.5934 7.96L85.6954 8.147L85.5934 8.759L85.6614 8.946L85.6274 9.286L85.7804 9.558L85.6954 9.694L85.7294 9.864C85.7068 10.068 85.5764 10.17 85.3384 10.17C85.1344 10.17 84.9644 10.085 84.8284 9.915C84.6924 9.73367 84.6244 9.473 84.6244 9.133L84.4034 8.878L84.3184 8.708C84.3184 8.65133 84.3298 8.60033 84.3524 8.555C84.3751 8.49833 84.3978 8.44733 84.4204 8.402L84.4544 8.164L84.4034 8.028L84.3184 6.923V6.736L84.3014 6.685L83.8934 6.396L83.9444 5.733L84.3864 5.461C84.4091 5.38167 84.4261 5.29667 84.4374 5.206C84.4488 5.11533 84.4544 5.01333 84.4544 4.9C84.4544 4.78667 84.4488 4.696 84.4374 4.628C84.4261 4.56 84.4091 4.48067 84.3864 4.39L84.4714 4.441L84.4544 4.237L84.5564 3.948L84.4544 3.455V3.132L84.5734 2.639L85.2534 2.333L85.5424 2.537L85.8654 2.639L85.9164 2.945L86.0524 3.132L85.9164 3.54C85.9391 3.61933 85.9504 3.69867 85.9504 3.778C85.9618 3.846 85.9674 3.92533 85.9674 4.016C85.9674 4.152 85.9618 4.288 85.9504 4.424C85.9391 4.54867 85.9108 4.67333 85.8654 4.798L86.0014 5.019L85.8484 5.206V5.376L85.9844 5.427L86.3584 5.376L86.6134 5.41L87.0384 5.359L87.0724 5.41C87.0951 5.39867 87.1348 5.393 87.1914 5.393C87.2594 5.393 87.3048 5.393 87.3274 5.393C87.3614 5.393 87.4238 5.40433 87.5144 5.427H87.5484H87.7694C87.7808 5.427 87.8488 5.427 87.9734 5.427C88.0981 5.41567 88.2398 5.41 88.3984 5.41L88.6364 5.257L88.8914 5.393L89.1124 5.41L89.1804 5.427C89.2938 5.40433 89.3618 5.393 89.3844 5.393H89.4694L90.5234 5.24L90.7444 5.257L90.8294 5.206L90.7444 4.968L90.8294 4.764L90.7274 4.237L90.8294 4.05L90.5574 3.37L90.5234 3.268L90.4554 3.2C90.4668 3.18867 90.4724 3.17733 90.4724 3.166C90.4838 3.14333 90.5008 3.10933 90.5234 3.064C90.5234 3.05267 90.5234 3.047 90.5234 3.047C90.5348 3.047 90.5404 3.04133 90.5404 3.03L90.5574 3.013V2.962C90.5574 2.894 90.6368 2.82033 90.7954 2.741L90.9484 2.35L91.4754 2.418L91.6454 2.52L92.1044 2.435V2.639L92.2914 2.588V3.251L92.2064 3.37L92.3254 3.659V3.829L92.3934 4.067L92.2914 4.322L92.3254 4.509L92.2404 5.104V5.206L92.5634 5.189L93.1754 5.07L93.4814 5.087L93.6684 5.07H94.0084C94.0424 5.04733 94.0821 5.036 94.1274 5.036C94.1728 5.02467 94.2181 5.019 94.2634 5.019C94.2974 5.019 94.3314 5.02467 94.3654 5.036C94.3994 5.036 94.4391 5.04733 94.4844 5.07L94.8924 5.121ZM96.955 8.368L97.091 8.895L97.21 8.725L97.584 8.283L98.111 8.028C98.1677 7.892 98.2583 7.79 98.383 7.722C98.519 7.64267 98.6493 7.57467 98.774 7.518L99.76 6.617L100.219 6.073L100.627 5.784L100.644 5.699C100.667 5.60833 100.723 5.563 100.814 5.563C100.905 5.55167 100.978 5.53467 101.035 5.512L101.375 5.002L101.426 4.9L102.055 4.526L102.718 3.642L102.99 3.489L103.075 3.268L103.313 3.149C103.37 3.047 103.466 2.93367 103.602 2.809C103.749 2.68433 103.885 2.59367 104.01 2.537L104.146 2.69L104.299 2.656C104.548 2.67867 104.667 2.76367 104.656 2.911C104.69 2.96767 104.707 3.03 104.707 3.098C104.707 3.15467 104.679 3.22267 104.622 3.302L104.554 4.135L104.486 4.271L104.503 4.679L104.418 5.172L104.452 5.852L104.299 6.124L104.537 6.549L104.401 6.957L104.486 7.195L104.571 7.365L104.52 7.807V7.96C104.531 7.994 104.537 8.028 104.537 8.062C104.537 8.08467 104.537 8.10733 104.537 8.13L104.486 8.232L104.367 8.368C104.378 8.39067 104.384 8.436 104.384 8.504C104.384 8.56067 104.373 8.606 104.35 8.64C104.339 8.66267 104.327 8.68533 104.316 8.708L104.418 8.929L104.282 9.167L104.418 9.66C104.384 9.864 104.288 10.017 104.129 10.119C103.982 10.221 103.817 10.272 103.636 10.272H103.33C103.273 10.1813 103.217 10.0907 103.16 10C103.115 9.898 103.086 9.79033 103.075 9.677C103.075 9.63167 103.092 9.58067 103.126 9.524L102.956 9.286L103.075 9.082L103.058 8.793L103.109 8.47L102.956 7.96L103.109 7.926C103.086 7.88067 103.075 7.83533 103.075 7.79C103.086 7.73333 103.092 7.67667 103.092 7.62C103.092 7.50667 103.132 7.416 103.211 7.348L103.262 7.144L103.109 6.43L103.16 6.005L103.075 5.393L103.211 5.24L103.262 4.917L103.313 4.662L103.228 4.645L102.803 5.223L102.48 5.461L102.293 5.682C102.202 5.80667 102.1 5.92567 101.987 6.039C101.874 6.15233 101.755 6.25433 101.63 6.345L101.443 6.617L101.171 6.685L100.695 7.365L100.049 7.892L99.777 8.164L99.573 8.283L99.301 8.521L98.893 8.725L98.825 8.861L97.601 9.762L97.516 9.779L97.397 10C97.3403 10.0113 97.278 10.034 97.21 10.068C97.1533 10.1133 97.091 10.1417 97.023 10.153L96.938 10.221H96.921V10.34L95.969 10.578L95.799 10.357L95.544 10.17L95.833 9.864L95.663 9.235L95.714 9.184L95.629 8.997L95.969 8.827L95.714 8.504L95.935 8.147L95.867 7.841L95.884 7.62L95.799 7.144L95.935 6.974L95.799 6.43L95.918 6.277L95.731 6.005L95.833 5.342L95.799 5.274C95.7083 5.19467 95.6573 4.92267 95.646 4.458L95.629 4.407L95.68 4.084L95.629 3.88C95.6517 3.78933 95.7027 3.693 95.782 3.591C95.8387 3.57967 95.867 3.54567 95.867 3.489C95.867 3.43233 95.884 3.37567 95.918 3.319C95.952 3.251 95.9577 3.17167 95.935 3.081L96.479 3.013L96.564 2.86L97.414 3.183L97.312 3.336L97.499 3.506L97.295 3.625L97.482 4.169L97.244 4.356V5.172L97.125 5.631L97.278 6.192L97.023 6.413V6.464L97.176 6.685L97.159 7.45L97.091 7.501L97.21 7.773L96.955 8.368ZM111.935 8.606C111.935 8.742 111.833 8.912 111.629 9.116C111.572 9.29733 111.487 9.44467 111.374 9.558L111.272 9.575L111.085 9.898L110.779 9.949L110.456 10.153L110.286 10.459L110.099 10.425C109.974 10.4817 109.872 10.5157 109.793 10.527L109.691 10.68C109.657 10.6687 109.606 10.663 109.538 10.663C109.39 10.663 109.249 10.765 109.113 10.969L108.875 10.765C108.829 10.7763 108.761 10.782 108.671 10.782C108.523 10.782 108.399 10.7593 108.297 10.714H108.008L107.872 10.629C107.441 10.561 107.169 10.3967 107.056 10.136V10.085L106.852 9.983L106.75 9.694L106.546 9.558V9.303L106.342 8.555L106.376 7.943L106.444 7.671V7.314L106.529 7.042L106.512 6.923L106.631 6.719L106.597 6.753C106.597 6.651 106.625 6.54333 106.682 6.43V6.345L106.631 5.937C106.631 5.74433 106.716 5.57433 106.886 5.427C106.897 5.40433 106.903 5.37033 106.903 5.325C106.903 5.27967 106.88 5.189 106.835 5.053C106.801 4.90567 106.784 4.80367 106.784 4.747C106.784 4.611 106.818 4.46933 106.886 4.322C106.976 4.458 107.107 4.526 107.277 4.526H107.328C107.35 4.48067 107.401 4.42967 107.481 4.373C107.571 4.08967 107.696 3.85167 107.855 3.659L107.923 3.591C107.923 3.54567 107.957 3.41533 108.025 3.2H108.161L108.195 3.115L108.331 3.081C108.387 2.99033 108.421 2.93933 108.433 2.928C108.455 2.90533 108.58 2.83167 108.807 2.707C108.852 2.62767 108.92 2.554 109.011 2.486C109.056 2.46333 109.113 2.44067 109.181 2.418L109.249 2.316C109.555 2.214 109.747 2.163 109.827 2.163C109.917 2.163 110.002 2.18567 110.082 2.231L110.167 2.214L110.286 2.282C110.422 2.384 110.558 2.469 110.694 2.537L110.983 2.758V2.826C111.243 3.03 111.374 3.319 111.374 3.693L111.323 3.863L111.374 4.424L111.221 4.526L111.051 4.968L110.728 5.325L110.711 5.597C110.348 5.85767 110.014 6.06733 109.708 6.226C109.606 6.38467 109.447 6.464 109.232 6.464H109.181L108.858 6.668H108.586L108.178 6.838L107.872 6.685H107.838C107.815 6.77567 107.792 6.91167 107.77 7.093L107.634 7.195L107.617 7.399L107.515 7.688C107.549 7.96 107.566 8.13567 107.566 8.215L107.498 8.266C107.498 8.41333 107.492 8.521 107.481 8.589C107.481 8.60033 107.475 8.61733 107.464 8.64C107.464 8.66267 107.464 8.67967 107.464 8.691C107.464 8.78167 107.509 8.85533 107.6 8.912C107.634 9.048 107.69 9.133 107.77 9.167L107.889 9.269L108.263 9.371V9.422L108.399 9.456L108.977 9.49L109.317 9.439L109.487 9.32L109.589 9.286L109.759 9.031L109.844 9.014L110.269 8.878C110.314 8.79867 110.388 8.73067 110.49 8.674L110.541 8.589C110.767 8.54367 110.898 8.42467 110.932 8.232C111.09 8.07333 111.294 7.994 111.544 7.994H111.612C111.827 8.24333 111.935 8.44733 111.935 8.606ZM110.252 3.71C110.252 3.676 110.235 3.608 110.201 3.506L110.116 3.489L110.082 3.506C110.07 3.506 110.048 3.506 110.014 3.506C109.991 3.51733 109.968 3.523 109.946 3.523C109.934 3.523 109.917 3.51733 109.895 3.506C109.872 3.506 109.855 3.506 109.844 3.506L109.674 3.625L109.521 3.642L109.436 3.676L109.147 4.05L108.96 4.186L108.688 4.662L108.535 4.764C108.501 4.95667 108.421 5.121 108.297 5.257L108.229 5.376C108.353 5.29667 108.495 5.257 108.654 5.257L108.773 5.206L108.824 5.053L109.062 5.07L109.198 4.866H109.3L109.487 4.934L109.572 4.679H109.691V4.492L109.912 4.441L109.963 4.39L109.997 4.237L110.218 3.914C110.24 3.85733 110.252 3.78933 110.252 3.71ZM123.18 6.022L123.078 6.328C123.078 6.62267 123.061 6.855 123.027 7.025L122.925 7.195V7.382L122.84 7.501L122.789 7.739L122.602 7.926L122.483 8.351L122.347 8.402L122.279 8.589L122.075 8.708L121.939 8.997L121.735 9.099L121.718 9.303L121.395 9.422C121.248 9.626 121.067 9.75633 120.851 9.813L120.783 9.83C120.625 10.068 120.415 10.187 120.154 10.187C120.041 10.255 119.911 10.289 119.763 10.289L119.593 10.408L119.423 10.459L119.202 10.629L118.981 10.612L118.743 10.68L118.454 10.561L117.723 10.51L117.468 10.119L117.094 9.728L117.179 9.456L116.924 8.878L117.043 8.657L116.958 8.249L117.043 7.994C117.021 7.83533 117.009 7.722 117.009 7.654C117.009 7.43867 117.066 7.28 117.179 7.178C117.191 7.06467 117.264 6.87767 117.4 6.617H117.485L117.451 6.498L117.502 6.26V6.005C117.593 5.903 117.644 5.835 117.655 5.801L117.604 5.563V5.495C117.684 5.33633 117.723 5.172 117.723 5.002L118.08 4.509C118.08 4.509 118.092 4.49767 118.114 4.475C118.148 4.45233 118.177 4.42967 118.199 4.407L118.182 4.339H118.25L118.505 4.05L118.522 3.659L118.947 3.506C119.106 3.404 119.208 3.234 119.253 2.996H119.474C119.599 2.928 119.712 2.894 119.814 2.894C119.916 2.894 120.013 2.91667 120.103 2.962L120.29 2.979L120.732 2.809L120.97 3.03L121.157 3.149H121.293L121.548 3.285H121.684C121.832 3.421 122.002 3.608 122.194 3.846L122.228 3.931L122.347 3.999L122.704 4.458L123.027 5.257V5.427L123.18 6.022ZM122.058 6.43L122.041 6.345C121.962 6.26567 121.917 6.18067 121.905 6.09L121.956 6.005L121.803 5.682L121.837 5.359L121.769 5.274C121.622 5.16067 121.543 5.07 121.531 5.002C121.429 4.95667 121.378 4.84333 121.378 4.662L121.276 4.645L121.072 4.305L120.919 4.186L120.562 4.05L120.426 4.016C120.358 4.016 120.313 3.99333 120.29 3.948L119.95 4.322L119.729 4.798L119.372 4.985L119.321 5.172L119.151 5.257L119.083 5.699L118.879 5.801C118.834 5.95967 118.811 6.107 118.811 6.243L118.539 6.498L118.624 6.549C118.624 6.685 118.573 6.804 118.471 6.906C118.437 7.008 118.392 7.12133 118.335 7.246V7.382L118.284 7.45L118.301 7.654L118.114 8.113L118.148 8.198V8.674L118.08 8.912L118.097 9.15L118.25 9.371L118.488 9.456L118.573 9.49L118.709 9.422L119.151 9.456L119.219 9.286H119.287C119.355 9.286 119.395 9.303 119.406 9.337L119.559 9.286L119.695 9.337L119.916 9.184L119.95 9.133L120.103 9.099C120.183 8.97433 120.37 8.84967 120.664 8.725L120.698 8.64L121.038 8.402L121.225 8.13L121.497 7.994L121.514 7.909L121.599 7.722V7.501L121.803 7.331L121.871 7.212L121.956 7.11C121.911 6.974 121.888 6.87767 121.888 6.821C121.888 6.719 121.922 6.61133 121.99 6.498L122.058 6.43ZM36.1231 16.676L36.2421 16.081C36.2874 16.0017 36.3611 15.9223 36.4631 15.843C36.5651 15.7637 36.7124 15.724 36.9051 15.724L37.1771 15.928L37.6361 15.843L37.9931 15.962C38.0951 15.9393 38.1914 15.945 38.2821 15.979C38.3728 16.013 38.4634 16.03 38.5541 16.03C38.7014 16.03 38.7921 16.0357 38.8261 16.047L38.8771 15.826L39.3191 15.911C39.4211 15.9223 39.5061 15.9337 39.5741 15.945C39.6421 15.945 39.6988 15.945 39.7441 15.945C39.9141 15.945 40.1181 15.9053 40.3561 15.826H40.4241L40.8151 15.656L41.0871 15.843L41.5121 15.758L41.5631 15.792L41.6311 15.758L41.9711 15.775L42.0051 15.639L42.4811 15.826L42.8551 15.792L42.8721 15.741L43.3481 15.826L43.5521 15.945L43.8071 15.877C43.9544 15.8657 44.0678 15.8997 44.1471 15.979C44.2378 16.0583 44.2831 16.1377 44.2831 16.217L44.2321 16.829L44.1471 16.931L44.2831 17.186V17.339L44.3681 17.543L44.2321 17.764L44.2831 17.934L44.1981 18.495V18.58L44.1131 18.835L44.0111 18.988L44.1301 19.124C44.1188 19.1353 44.1131 19.158 44.1131 19.192C44.1131 19.226 44.1074 19.2713 44.0961 19.328C44.0848 19.3847 44.0904 19.4187 44.1131 19.43L43.9771 19.838C44.0224 19.8947 44.0451 19.9457 44.0451 19.991C44.0451 20.0477 44.0281 20.11 43.9941 20.178L43.9431 20.263L44.0111 20.297C44.0111 20.4217 43.9658 20.5407 43.8751 20.654C43.9544 20.79 43.9998 20.8863 44.0111 20.943L43.8581 21.028L43.8751 21.47L43.7221 22.099L43.7051 22.218C43.7164 22.2747 43.7221 22.32 43.7221 22.354C43.7334 22.3767 43.7391 22.3993 43.7391 22.422V22.49L43.8071 22.609L43.8241 22.83C43.8128 22.8527 43.8014 22.881 43.7901 22.915C43.7788 22.9377 43.7618 22.9717 43.7391 23.017C43.7164 23.3003 43.4388 23.442 42.9061 23.442L42.8721 23.187L42.7361 23.034L42.6341 22.796V22.388L42.5151 22.116L42.5661 22.099L42.5151 21.912V21.606L42.5661 21.13L42.5321 20.688L42.6341 20.45V20.178C42.6341 20.1213 42.6454 20.042 42.6681 19.94C42.7021 19.838 42.7191 19.7587 42.7191 19.702L42.6171 19.481L42.6511 19.158L42.6171 18.937L42.7871 18.801C42.7531 18.733 42.7361 18.6763 42.7361 18.631V18.597L42.6511 18.359L42.7361 18.189L42.6171 17.679L42.7361 17.475L42.8721 16.965L42.1751 17.016L41.8861 16.982L41.4271 17.033L41.2911 16.982C41.2571 16.9933 41.1948 16.999 41.1041 16.999C41.0814 16.999 41.0134 16.9877 40.9001 16.965L40.8661 16.948H40.6111C40.5998 16.948 40.5091 16.9537 40.3391 16.965C40.1804 16.9763 40.0161 16.982 39.8461 16.982L39.5741 17.152L39.3191 16.999L39.0641 16.982L38.9791 16.965C38.8658 16.9877 38.7921 16.999 38.7581 16.999H38.6731L37.9421 17.084L37.5681 16.948L37.5851 17.084C37.5964 17.152 37.6078 17.22 37.6191 17.288C37.6304 17.356 37.6361 17.424 37.6361 17.492C37.6361 17.7413 37.5964 17.968 37.5171 18.172L37.6701 18.41L37.5001 18.58V18.733L37.5511 18.835C37.5511 18.971 37.5057 19.0957 37.4151 19.209C37.4831 19.3223 37.5284 19.413 37.5511 19.481L37.3811 19.668V20.229L37.3301 20.501L37.4151 20.739L37.2791 20.926L37.3981 21.096L37.2791 21.623L37.3471 21.793L37.3131 22.082L37.2961 22.269L37.2281 22.388L37.2621 22.524C37.2394 22.694 37.0978 22.779 36.8371 22.779C36.3724 22.779 36.1401 22.4843 36.1401 21.895L36.0721 21.725L35.9871 21.589C35.9871 21.4983 36.0211 21.4077 36.0891 21.317L36.1231 21.113L36.0721 20.977L35.9871 20.025V19.77L35.9531 19.736L36.0211 19.481L36.0551 19.141L36.0381 18.801C36.0947 18.6537 36.1231 18.4893 36.1231 18.308C36.1231 18.1267 36.0947 17.968 36.0381 17.832L36.1401 17.866L36.1231 17.696L36.2251 17.441L36.1231 16.999V16.676ZM48.2046 21.368L48.3406 21.895L48.4596 21.725L48.8336 21.283L49.3606 21.028C49.4173 20.892 49.508 20.79 49.6326 20.722C49.7686 20.6427 49.899 20.5747 50.0236 20.518L51.0096 19.617L51.4686 19.073L51.8766 18.784L51.8936 18.699C51.9163 18.6083 51.973 18.563 52.0636 18.563C52.1543 18.5517 52.228 18.5347 52.2846 18.512L52.6246 18.002L52.6756 17.9L53.3046 17.526L53.9676 16.642L54.2396 16.489L54.3246 16.268L54.5626 16.149C54.6193 16.047 54.7156 15.9337 54.8516 15.809C54.999 15.6843 55.135 15.5937 55.2596 15.537L55.3956 15.69L55.5486 15.656C55.798 15.6787 55.917 15.7637 55.9056 15.911C55.9396 15.9677 55.9566 16.03 55.9566 16.098C55.9566 16.1547 55.9283 16.2227 55.8716 16.302L55.8036 17.135L55.7356 17.271L55.7526 17.679L55.6676 18.172L55.7016 18.852L55.5486 19.124L55.7866 19.549L55.6506 19.957L55.7356 20.195L55.8206 20.365L55.7696 20.807V20.96C55.781 20.994 55.7866 21.028 55.7866 21.062C55.7866 21.0847 55.7866 21.1073 55.7866 21.13L55.7356 21.232L55.6166 21.368C55.628 21.3907 55.6336 21.436 55.6336 21.504C55.6336 21.5607 55.6223 21.606 55.5996 21.64C55.5883 21.6627 55.577 21.6853 55.5656 21.708L55.6676 21.929L55.5316 22.167L55.6676 22.66C55.6336 22.864 55.5373 23.017 55.3786 23.119C55.2313 23.221 55.067 23.272 54.8856 23.272H54.5796C54.523 23.1813 54.4663 23.0907 54.4096 23C54.3643 22.898 54.336 22.7903 54.3246 22.677C54.3246 22.6317 54.3416 22.5807 54.3756 22.524L54.2056 22.286L54.3246 22.082L54.3076 21.793L54.3586 21.47L54.2056 20.96L54.3586 20.926C54.336 20.8807 54.3246 20.8353 54.3246 20.79C54.336 20.7333 54.3416 20.6767 54.3416 20.62C54.3416 20.5067 54.3813 20.416 54.4606 20.348L54.5116 20.144L54.3586 19.43L54.4096 19.005L54.3246 18.393L54.4606 18.24L54.5116 17.917L54.5626 17.662L54.4776 17.645L54.0526 18.223L53.7296 18.461L53.5426 18.682C53.452 18.8067 53.35 18.9257 53.2366 19.039C53.1233 19.1523 53.0043 19.2543 52.8796 19.345L52.6926 19.617L52.4206 19.685L51.9446 20.365L51.2986 20.892L51.0266 21.164L50.8226 21.283L50.5506 21.521L50.1426 21.725L50.0746 21.861L48.8506 22.762L48.7656 22.779L48.6466 23C48.59 23.0113 48.5276 23.034 48.4596 23.068C48.403 23.1133 48.3406 23.1417 48.2726 23.153L48.1876 23.221H48.1706V23.34L47.2186 23.578L47.0486 23.357L46.7936 23.17L47.0826 22.864L46.9126 22.235L46.9636 22.184L46.8786 21.997L47.2186 21.827L46.9636 21.504L47.1846 21.147L47.1166 20.841L47.1336 20.62L47.0486 20.144L47.1846 19.974L47.0486 19.43L47.1676 19.277L46.9806 19.005L47.0826 18.342L47.0486 18.274C46.958 18.1947 46.907 17.9227 46.8956 17.458L46.8786 17.407L46.9296 17.084L46.8786 16.88C46.9013 16.7893 46.9523 16.693 47.0316 16.591C47.0883 16.5797 47.1166 16.5457 47.1166 16.489C47.1166 16.4323 47.1336 16.3757 47.1676 16.319C47.2016 16.251 47.2073 16.1717 47.1846 16.081L47.7286 16.013L47.8136 15.86L48.6636 16.183L48.5616 16.336L48.7486 16.506L48.5446 16.625L48.7316 17.169L48.4936 17.356V18.172L48.3746 18.631L48.5276 19.192L48.2726 19.413V19.464L48.4256 19.685L48.4086 20.45L48.3406 20.501L48.4596 20.773L48.2046 21.368ZM64.1364 20.348L63.8134 20.654L63.7964 20.756C63.7624 20.96 63.6661 21.1243 63.5074 21.249C63.2354 21.759 62.8558 22.133 62.3684 22.371L62.1134 22.575L61.8924 22.609L61.6204 22.813L61.4334 22.83L61.0084 23.102L60.7364 23.068L60.4304 23.204L60.1924 23.136L60.0734 23.238L59.7504 23.187L59.4274 23.238L59.3084 23.136L58.9684 23.068L58.4754 22.694L58.2034 22.354C58.0334 22.1387 57.9484 21.9573 57.9484 21.81V21.759L57.7784 21.504V21.283C57.7444 21.147 57.7274 21.0223 57.7274 20.909V20.79L57.6424 20.501L57.7274 20.297L57.6594 20.161L57.8634 19.838L57.8124 19.566L57.9484 19.124L58.0164 19.022L58.0844 18.614L58.0504 18.546L58.2544 18.325L58.2884 18.155L58.4244 17.764L58.6454 17.288L58.9514 17.016L59.0194 16.863L59.1214 16.676L59.1554 16.506L59.4274 16.183C59.4954 16.1603 59.5748 16.1377 59.6654 16.115C59.7108 15.8997 59.9941 15.775 60.5154 15.741C60.9574 15.8317 61.2408 15.9507 61.3654 16.098C61.4901 16.1207 61.5864 16.1717 61.6544 16.251L62.0114 16.268L62.2494 16.574C62.3061 16.6873 62.3458 16.8007 62.3684 16.914L62.5044 17.05L62.4534 17.305C62.4648 17.3843 62.4704 17.509 62.4704 17.679L62.5554 17.747V18.002L62.6234 18.529C62.3854 18.767 62.1134 18.903 61.8074 18.937C61.6488 18.6423 61.4504 18.4213 61.2124 18.274L61.1784 17.713L61.0764 17.526V17.39L60.9064 17.186L60.8214 17.118L60.6684 17.169H60.4474C60.3001 17.203 60.1584 17.3107 60.0224 17.492C59.8864 17.6733 59.7504 17.866 59.6144 18.07L59.5974 18.24L59.4954 18.325V18.631L59.2744 18.869L59.0024 19.617L59.0194 19.821L58.8834 20.127L58.9344 20.501L58.8324 20.552L58.7984 21.028L58.8154 21.113L59.0194 21.317L59.1044 21.674L59.3424 21.742L59.3594 21.878L59.6484 21.929L59.8694 21.98C59.9488 21.9347 60.0451 21.912 60.1584 21.912H60.2774C60.4134 21.8553 60.5381 21.827 60.6514 21.827C60.7308 21.793 60.8328 21.759 60.9574 21.725C61.0934 21.5437 61.2861 21.453 61.5354 21.453H61.6374C61.6941 21.453 61.7338 21.4247 61.7564 21.368C61.8811 21.1753 62.0794 21.0507 62.3514 20.994C62.6688 20.7107 62.8501 20.484 62.8954 20.314C63.0541 20.2233 63.1561 20.0817 63.2014 19.889L63.3034 19.821L63.3544 19.43C63.8758 19.5093 64.1364 19.77 64.1364 20.212V20.348ZM66.6694 21.3L66.7034 21.504L66.7714 21.929L66.8054 22.133L66.8564 22.184L67.0944 22.252H67.3154L67.6894 22.184H68.1654L68.6924 22.15L68.8624 21.895L69.0154 21.98L69.1514 21.844L69.3044 21.759L69.5424 21.691L69.5934 21.674L69.6614 21.436L69.9334 21.368L70.1544 21.249L70.3414 20.96L70.6134 20.756L70.7154 20.467L70.8854 20.314L70.9534 20.127L70.8684 19.685L70.8174 19.651L70.6304 19.396L70.3244 19.277C70.3358 19.277 70.3188 19.243 70.2734 19.175C70.2394 19.0957 70.1998 19.0673 70.1544 19.09L69.9504 19.039L69.6274 18.852L69.4914 18.903H69.3554C69.2761 18.9483 69.1911 18.971 69.1004 18.971C69.0778 18.971 69.0494 18.954 69.0154 18.92C68.9928 18.886 68.9644 18.8577 68.9304 18.835C68.8964 18.8463 68.8341 18.8633 68.7434 18.886C68.6528 18.9087 68.5394 18.92 68.4034 18.92C68.3581 18.9087 68.2958 18.9087 68.2164 18.92C68.1371 18.92 68.0918 18.92 68.0804 18.92C68.0351 18.954 68.0011 18.971 67.9784 18.971C67.9671 18.971 67.9331 18.971 67.8764 18.971C67.8311 18.971 67.7744 19.005 67.7064 19.073C67.6498 19.1297 67.6044 19.1637 67.5704 19.175L67.2134 19.09L66.8564 19.175L66.8054 19.685L66.7714 20.246L66.7544 20.518L66.9074 21.062L66.6694 21.3ZM65.6324 18.036C65.6438 18.002 65.6494 17.9113 65.6494 17.764C65.6494 17.628 65.6381 17.5033 65.6154 17.39L65.6494 17.271L65.5134 17.118C65.5248 17.05 65.5644 16.9933 65.6324 16.948L65.5474 16.829C65.5814 16.761 65.5984 16.693 65.5984 16.625C65.5984 16.5343 65.5588 16.4323 65.4794 16.319C65.4794 16.2283 65.4964 16.1377 65.5304 16.047L65.4624 15.877L65.5474 15.69L65.2754 15.112L65.5474 15.061V15.027L66.1424 14.721L66.4484 15.078L66.4824 15.248L66.7374 15.435L66.7204 15.69C66.7204 15.7353 66.7148 15.792 66.7034 15.86C66.7034 15.9167 66.6978 15.9847 66.6864 16.064C66.7658 16.1433 66.8054 16.217 66.8054 16.285C66.8054 16.2963 66.7941 16.336 66.7714 16.404L66.8394 16.472L66.7714 16.744L66.8904 17.05L66.8734 17.169L67.0944 17.271L66.9754 17.492L66.8734 17.594L66.8054 17.9L66.8564 18.155L67.2814 18.002L67.7064 18.036L67.8254 17.764L68.3014 17.866L68.7434 17.883L68.8624 17.832L69.1344 17.968L69.2024 17.934L69.5254 17.747L69.9844 17.832L70.1884 17.849L70.7494 17.985L70.8514 17.968C70.9421 18.0247 71.0328 18.0813 71.1234 18.138C71.2254 18.1947 71.3218 18.2683 71.4124 18.359L71.7184 18.393L71.8374 18.75L71.9054 18.784L72.0924 19.056L72.1944 19.345L72.3134 19.464L72.2794 19.838L72.3134 19.991C72.2908 20.093 72.2511 20.2007 72.1944 20.314C72.1378 20.4273 72.1151 20.552 72.1264 20.688L71.9734 20.569L71.9904 20.688L71.9054 20.824L71.9394 21.198L71.5824 21.028L71.5314 21.232L71.4464 21.334C71.4238 21.3907 71.4011 21.4473 71.3784 21.504C71.3558 21.5493 71.3274 21.589 71.2934 21.623L71.3444 21.742L71.0214 21.844L71.0044 21.895L70.7494 22.201L70.5794 22.507L70.4434 22.609L70.3074 22.83L69.8824 22.711L69.8144 22.813C69.7804 22.8243 69.7238 22.83 69.6444 22.83C69.5651 22.83 69.5028 22.83 69.4574 22.83L69.2194 23.068L69.1684 23.238C69.1004 23.2607 69.0324 23.306 68.9644 23.374C68.8964 23.4533 68.8228 23.493 68.7434 23.493L68.4544 23.391L67.9954 23.255L67.6724 23.442L67.6044 23.476L67.3324 23.459L67.3834 23.425L66.9244 23.493L66.6014 23.544L66.4654 23.391L66.1594 23.425C65.8761 23.3683 65.6834 23.2097 65.5814 22.949L65.5644 22.83L65.4794 22.694V22.388L65.3774 22.218L65.5134 22.014C65.4794 21.9007 65.4624 21.793 65.4624 21.691C65.4624 21.657 65.4681 21.6343 65.4794 21.623V21.028L65.5474 20.858L65.5644 19.855L65.6154 19.617L65.5304 19.515L65.6834 19.056L65.6324 18.886V18.512L65.7174 18.41L65.7004 18.172L65.6324 18.036ZM79.5588 19.787C79.7854 19.5263 79.8988 19.396 79.8988 19.396L79.9158 19.362C79.9384 19.3393 79.9554 19.328 79.9668 19.328C79.9781 19.3167 80.0008 19.2997 80.0348 19.277C80.0461 19.2543 80.0688 19.2373 80.1028 19.226C80.1368 19.2033 80.1821 19.175 80.2388 19.141C80.3294 18.9937 80.4484 18.8803 80.5958 18.801L80.6468 18.716V18.58C80.8848 18.2853 81.0774 18.1153 81.2248 18.07C81.2248 17.9227 81.3778 17.781 81.6838 17.645L81.9388 17.288L82.0238 17.033H82.1938C82.2164 16.931 82.2504 16.8517 82.2958 16.795C82.3411 16.727 82.3864 16.659 82.4318 16.591L82.3978 16.489L82.2448 16.2L82.4658 15.894L82.6018 15.52H82.8738C82.9191 15.52 82.9588 15.5143 82.9928 15.503C83.0834 15.503 83.2364 15.5483 83.4518 15.639L83.4688 15.758L83.6728 15.894L83.6898 16.013L83.8428 16.115L83.7578 16.2C83.9278 16.2567 84.0128 16.336 84.0128 16.438C84.0128 16.4947 83.9958 16.5457 83.9618 16.591V16.829L84.1658 17.084L84.0638 17.169L84.0468 17.237L84.0808 17.254L84.1488 17.475L84.3698 17.645L84.1828 17.849L84.0978 18.172L84.2168 18.41L84.1828 18.733L84.3528 19.175C84.3868 19.2657 84.4094 19.3563 84.4208 19.447C84.4321 19.5263 84.4378 19.5943 84.4378 19.651C84.4378 19.719 84.3981 19.8097 84.3188 19.923C84.3868 19.9797 84.4208 20.0363 84.4208 20.093C84.4208 20.1723 84.3868 20.263 84.3188 20.365L84.3868 20.416L84.3358 21.232L84.5228 21.691V22.184C84.5454 22.2293 84.5681 22.2747 84.5908 22.32C84.6248 22.3653 84.6531 22.4163 84.6758 22.473C84.6871 22.4843 84.7211 22.5183 84.7778 22.575C84.8458 22.6317 84.9308 22.711 85.0328 22.813C85.1574 22.9377 85.2254 23.0453 85.2368 23.136C85.1801 23.2833 84.9648 23.4193 84.5908 23.544L84.0638 23.238L83.5708 22.728L83.4008 22.388L83.3498 22.116L83.2818 21.963C83.2024 21.8043 83.1458 21.657 83.1118 21.521C83.0891 21.385 83.0778 21.2547 83.0778 21.13C83.0778 21.096 83.0778 21.062 83.0778 21.028C83.0891 20.994 83.1004 20.9543 83.1118 20.909L83.1458 20.875L83.1968 20.603L82.9928 20.28L83.0608 20.093L83.0098 19.872L83.0438 19.668C83.0211 19.6113 83.0041 19.5603 82.9928 19.515C82.9928 19.4583 82.9928 19.4073 82.9928 19.362V19.277C82.9928 19.1297 82.9644 18.954 82.9078 18.75V18.342L82.8568 18.087L82.9078 17.679L82.7038 17.883L82.2958 18.529L81.8878 18.988L81.7348 19.277L81.2758 19.77L80.7828 20.11L80.7318 20.399L80.4258 20.501L80.3748 20.654L80.0178 20.824L79.8988 21.096L79.6438 21.181L79.3548 21.657L79.1678 21.759L79.1168 22.031C79.0374 22.065 78.9581 22.0933 78.8788 22.116C78.8108 22.1387 78.7314 22.15 78.6408 22.15H78.5558L78.4198 21.861L78.1988 21.572L78.2158 21.419L78.0798 21.215L78.1478 21.113L78.1308 21.096L78.0628 20.858L77.9438 20.773C77.7398 20.569 77.5924 20.399 77.5018 20.263L77.4168 19.991L77.2808 19.821L76.9918 19.311L76.7028 18.988L76.6008 18.818L76.3288 18.529L76.0568 18.053C76.0114 18.1437 75.9888 18.223 75.9888 18.291C75.9888 18.3477 75.9831 18.461 75.9718 18.631L75.6828 19.073L75.7678 19.396L75.6148 19.719L75.2918 20.62L75.1558 20.926L75.1218 21.113L74.8498 21.589L74.6288 21.912L74.6628 22.201C74.6401 22.2917 74.6004 22.3767 74.5438 22.456C74.4871 22.5353 74.4304 22.6203 74.3738 22.711L74.4928 23.068C74.1528 23.3513 73.9148 23.493 73.7788 23.493C73.5748 23.493 73.4388 23.4193 73.3708 23.272C73.3368 23.238 73.3028 23.1983 73.2688 23.153C73.2461 23.119 73.2291 23.0737 73.2178 23.017V22.949C73.4218 22.2237 73.5578 21.861 73.6258 21.861C73.6371 21.861 73.6428 21.8667 73.6428 21.878V21.64C73.6428 21.3907 73.7504 21.198 73.9658 21.062V20.977L74.0508 20.688L74.0338 20.586C74.0338 20.5633 74.0451 20.518 74.0678 20.45C74.1018 20.382 74.1414 20.2913 74.1868 20.178L74.2718 20.11V19.719L74.4418 19.464L74.6798 18.733L74.6118 18.291L74.8158 18.121V18.087L74.8328 17.509L74.9008 17.271C74.9348 17.1917 74.9518 17.1237 74.9518 17.067V16.999L74.6628 16.54L74.7478 16.251L74.8668 16.234L74.9858 16.081L74.9688 15.962L75.2068 15.792L75.3258 15.843L75.5468 15.707L75.7678 15.724L76.1758 15.979V16.081L76.3288 16.166L76.5158 16.506L76.4988 16.693L76.5158 16.795C76.5498 16.8177 76.5838 16.8403 76.6178 16.863C76.6631 16.8857 76.7141 16.9253 76.7708 16.982L76.7878 17.186L76.9578 17.322L77.0598 17.611L77.7738 18.223L77.9268 18.58L78.1648 18.699L78.4368 19.277L78.9298 20.042L78.9978 20.246H79.0828L79.2018 20.008L79.5588 19.787ZM92.0337 21.606C92.0337 21.742 91.9317 21.912 91.7277 22.116C91.671 22.2973 91.586 22.4447 91.4727 22.558L91.3707 22.575L91.1837 22.898L90.8777 22.949L90.5547 23.153L90.3847 23.459L90.1977 23.425C90.073 23.4817 89.971 23.5157 89.8917 23.527L89.7897 23.68C89.7557 23.6687 89.7047 23.663 89.6367 23.663C89.4894 23.663 89.3477 23.765 89.2117 23.969L88.9737 23.765C88.9284 23.7763 88.8604 23.782 88.7697 23.782C88.6224 23.782 88.4977 23.7593 88.3957 23.714H88.1067L87.9707 23.629C87.54 23.561 87.268 23.3967 87.1547 23.136V23.085L86.9507 22.983L86.8487 22.694L86.6447 22.558V22.303L86.4407 21.555L86.4747 20.943L86.5427 20.671V20.314L86.6277 20.042L86.6107 19.923L86.7297 19.719L86.6957 19.753C86.6957 19.651 86.724 19.5433 86.7807 19.43V19.345L86.7297 18.937C86.7297 18.7443 86.8147 18.5743 86.9847 18.427C86.996 18.4043 87.0017 18.3703 87.0017 18.325C87.0017 18.2797 86.979 18.189 86.9337 18.053C86.8997 17.9057 86.8827 17.8037 86.8827 17.747C86.8827 17.611 86.9167 17.4693 86.9847 17.322C87.0754 17.458 87.2057 17.526 87.3757 17.526H87.4267C87.4494 17.4807 87.5004 17.4297 87.5797 17.373C87.6704 17.0897 87.795 16.8517 87.9537 16.659L88.0217 16.591C88.0217 16.5457 88.0557 16.4153 88.1237 16.2H88.2597L88.2937 16.115L88.4297 16.081C88.4864 15.9903 88.5204 15.9393 88.5317 15.928C88.5544 15.9053 88.679 15.8317 88.9057 15.707C88.951 15.6277 89.019 15.554 89.1097 15.486C89.155 15.4633 89.2117 15.4407 89.2797 15.418L89.3477 15.316C89.6537 15.214 89.8464 15.163 89.9257 15.163C90.0164 15.163 90.1014 15.1857 90.1807 15.231L90.2657 15.214L90.3847 15.282C90.5207 15.384 90.6567 15.469 90.7927 15.537L91.0817 15.758V15.826C91.3424 16.03 91.4727 16.319 91.4727 16.693L91.4217 16.863L91.4727 17.424L91.3197 17.526L91.1497 17.968L90.8267 18.325L90.8097 18.597C90.447 18.8577 90.1127 19.0673 89.8067 19.226C89.7047 19.3847 89.546 19.464 89.3307 19.464H89.2797L88.9567 19.668H88.6847L88.2767 19.838L87.9707 19.685H87.9367C87.914 19.7757 87.8914 19.9117 87.8687 20.093L87.7327 20.195L87.7157 20.399L87.6137 20.688C87.6477 20.96 87.6647 21.1357 87.6647 21.215L87.5967 21.266C87.5967 21.4133 87.591 21.521 87.5797 21.589C87.5797 21.6003 87.574 21.6173 87.5627 21.64C87.5627 21.6627 87.5627 21.6797 87.5627 21.691C87.5627 21.7817 87.608 21.8553 87.6987 21.912C87.7327 22.048 87.7894 22.133 87.8687 22.167L87.9877 22.269L88.3617 22.371V22.422L88.4977 22.456L89.0757 22.49L89.4157 22.439L89.5857 22.32L89.6877 22.286L89.8577 22.031L89.9427 22.014L90.3677 21.878C90.413 21.7987 90.4867 21.7307 90.5887 21.674L90.6397 21.589C90.8664 21.5437 90.9967 21.4247 91.0307 21.232C91.1894 21.0733 91.3934 20.994 91.6427 20.994H91.7107C91.926 21.2433 92.0337 21.4473 92.0337 21.606ZM90.3507 16.71C90.3507 16.676 90.3337 16.608 90.2997 16.506L90.2147 16.489L90.1807 16.506C90.1694 16.506 90.1467 16.506 90.1127 16.506C90.09 16.5173 90.0674 16.523 90.0447 16.523C90.0334 16.523 90.0164 16.5173 89.9937 16.506C89.971 16.506 89.954 16.506 89.9427 16.506L89.7727 16.625L89.6197 16.642L89.5347 16.676L89.2457 17.05L89.0587 17.186L88.7867 17.662L88.6337 17.764C88.5997 17.9567 88.5204 18.121 88.3957 18.257L88.3277 18.376C88.4524 18.2967 88.594 18.257 88.7527 18.257L88.8717 18.206L88.9227 18.053L89.1607 18.07L89.2967 17.866H89.3987L89.5857 17.934L89.6707 17.679H89.7897V17.492L90.0107 17.441L90.0617 17.39L90.0957 17.237L90.3167 16.914C90.3394 16.8573 90.3507 16.7893 90.3507 16.71Z" fill="#EFBB45"/>
</svg>
