<svg width="246" height="17" viewBox="0 0 246 17" fill="none" xmlns="http://www.w3.org/2000/svg">
<path d="M8.80782 5.033L9.01182 5.084L9.14782 5.543L9.36882 5.798L9.53882 6.036C9.55015 6.09267 9.57282 6.14367 9.60682 6.189C9.64082 6.223 9.68049 6.26267 9.72582 6.308V6.359H9.77682C9.87882 6.48367 9.96949 6.648 10.0488 6.852L10.1678 7.056L10.2528 7.175L10.5248 7.634L10.7288 7.753V7.957L10.8138 8.076L10.8478 8.263L11.0858 8.688L11.2388 9.045L11.2558 9.232L11.4088 9.453L11.3918 9.725L11.4598 9.895L11.5788 9.793L12.2248 9.929L12.3608 9.776L12.8028 9.946L12.8198 10.031L12.7518 10.337L12.8028 10.371L12.9048 10.405L12.7178 10.575L12.6668 10.762L12.6838 10.796C12.6952 10.9773 12.6782 11.1303 12.6328 11.255C12.5988 11.3797 12.5535 11.4817 12.4968 11.561L12.5308 11.969L12.5478 12.275L12.3268 12.649L12.3438 12.955L12.2588 13.261L11.8508 13.992L11.7488 14.06L11.5788 13.431L11.5618 13.074C11.4825 12.9607 11.4598 12.7793 11.4938 12.53L11.4428 12.462L11.4768 12.343L11.3578 12.105L11.5108 11.867L11.4088 11.748L11.5278 11.578C11.4372 11.374 11.3918 11.204 11.3918 11.068L10.7968 10.983L10.8138 10.932H10.7798L10.8308 10.847C10.7402 10.881 10.6495 10.898 10.5588 10.898H9.84482C9.76549 10.898 9.68049 10.8753 9.58982 10.83C9.56715 10.83 9.49915 10.8187 9.38582 10.796L9.24982 10.932L8.60382 10.813L8.46782 10.898H8.09382L7.53282 10.83L6.66582 10.932L6.18982 10.813L5.16982 10.932C5.07915 10.932 4.92049 10.9377 4.69382 10.949C4.46715 10.949 4.26882 10.949 4.09882 10.949C4.03082 10.949 3.97415 10.966 3.92882 11C3.89482 11.0227 3.86649 11.0227 3.84382 11L3.58882 10.966L3.09582 11.051L3.14682 11.102C3.05615 11.0907 2.98815 11.0793 2.94282 11.068C2.90882 11.068 2.88049 11.068 2.85782 11.068C2.78982 11.068 2.71049 11.0567 2.61982 11.034C2.52915 11.0227 2.46682 11.0453 2.43282 11.102L2.09282 11.187L1.93982 11.119C1.93982 11.1983 1.92282 11.2777 1.88882 11.357C1.86615 11.4477 1.83215 11.5383 1.78682 11.629L1.87182 11.816L1.76982 11.918L1.92282 12.173L1.83782 12.394L1.87182 12.53L1.82082 12.598C1.82082 12.7227 1.81515 12.8247 1.80382 12.904C1.80382 12.9833 1.77549 13.0627 1.71882 13.142L1.59982 13.499L1.22582 14.094L1.12382 14.026L0.91982 13.244L0.86882 12.938L0.91982 12.632L0.69882 12.275L0.74982 11.969L0.81782 11.544C0.693153 11.3967 0.642153 11.1417 0.66482 10.779L0.68182 10.762C0.670486 10.7167 0.659153 10.677 0.64782 10.643C0.64782 10.609 0.64782 10.5693 0.64782 10.524L0.51182 10.15L1.05582 9.878H1.34482L1.88882 9.963L2.04182 9.725C2.12115 9.66833 2.15515 9.59467 2.14382 9.504C2.14382 9.41333 2.16649 9.33967 2.21182 9.283L2.41582 9.215L2.38182 8.994L2.63682 8.603C2.64815 8.58033 2.65949 8.56333 2.67082 8.552C2.68215 8.52933 2.68782 8.50667 2.68782 8.484V8.433L2.73882 8.297L2.90882 8.161L3.01082 7.889V7.702L3.21482 7.685L3.23182 7.413L3.36782 7.311L3.40182 7.209C3.60582 7.08433 3.70782 6.99933 3.70782 6.954L3.87782 6.614L4.01382 6.325L4.21782 6.053L4.35382 5.815L4.52382 5.628L4.67682 5.339L4.93182 5.05L5.01682 4.999V4.778L5.06782 4.761L5.10182 4.625C5.19249 4.51167 5.26615 4.38133 5.32282 4.234C5.37949 4.07533 5.42482 3.962 5.45882 3.894L5.47582 3.639L5.57782 3.401L5.66282 3.367V3.129H5.69682L5.81582 2.908L5.74782 2.398L5.88382 2.092C5.97449 2.024 6.08782 1.973 6.22382 1.939C6.37115 1.89367 6.48449 1.871 6.56382 1.871C6.69982 1.871 6.80182 1.89933 6.86982 1.956C6.91515 1.97867 6.97749 2.08633 7.05682 2.279C7.14749 2.47167 7.28349 2.704 7.46482 2.976L7.60082 3.333L7.78782 3.554L8.07682 3.928L8.36582 4.285L8.38282 4.404L8.79082 4.863L8.80782 5.033ZM4.04782 8.773L3.94582 8.858C3.90049 8.88067 3.87215 8.92033 3.86082 8.977C3.86082 9.03367 3.84949 9.08467 3.82682 9.13L3.69082 9.453L3.63982 9.759L4.01382 9.742L4.38782 9.81H4.76182L5.08482 9.759H5.81582C5.90649 9.759 5.99715 9.74767 6.08782 9.725C6.18982 9.691 6.24649 9.674 6.25782 9.674H6.39382C6.40515 9.674 6.43349 9.674 6.47882 9.674C6.53549 9.66267 6.59215 9.65133 6.64882 9.64C6.70549 9.62867 6.75649 9.61733 6.80182 9.606C6.84715 9.59467 6.86982 9.589 6.86982 9.589L7.41382 9.674L7.71982 9.606L8.28082 9.674L9.02882 9.708C9.06282 9.69667 9.11949 9.691 9.19882 9.691C9.36882 9.691 9.49915 9.71367 9.58982 9.759L9.79382 9.793C9.78249 9.70233 9.77115 9.623 9.75982 9.555C9.74849 9.47567 9.73149 9.39633 9.70882 9.317C9.68615 9.283 9.65782 9.24333 9.62382 9.198C9.60115 9.14133 9.58982 9.08467 9.58982 9.028L9.35182 8.603L9.33482 8.433L9.13082 8.042L9.09682 7.821L8.84182 7.464L8.51882 6.784L8.17882 6.189L7.82182 5.73C7.77649 5.70733 7.74249 5.65633 7.71982 5.577C7.69715 5.49767 7.66882 5.41267 7.63482 5.322L7.46482 5.271L7.41382 5.084L7.03982 4.778C7.01715 4.744 6.98882 4.68733 6.95482 4.608C6.93215 4.52867 6.88682 4.46067 6.81882 4.404L6.73382 4.319L6.59782 4.387L6.56382 4.591L6.25782 5.05L5.88382 5.628L5.76482 5.849L5.67982 6.036L5.42482 6.325L5.23782 6.767L4.91482 7.141L4.67682 7.617L4.57482 7.77C4.54082 7.91733 4.48982 8.01367 4.42182 8.059C4.36515 8.10433 4.31415 8.18933 4.26882 8.314L4.04782 8.773ZM20.077 7.022L19.975 7.328C19.975 7.62267 19.958 7.855 19.924 8.025L19.822 8.195V8.382L19.737 8.501L19.686 8.739L19.499 8.926L19.38 9.351L19.244 9.402L19.176 9.589L18.972 9.708L18.836 9.997L18.632 10.099L18.615 10.303L18.292 10.422C18.1446 10.626 17.9633 10.7563 17.748 10.813L17.68 10.83C17.5213 11.068 17.3116 11.187 17.051 11.187C16.9376 11.255 16.8073 11.289 16.66 11.289L16.49 11.408L16.32 11.459L16.099 11.629L15.878 11.612L15.64 11.68L15.351 11.561L14.62 11.51L14.365 11.119L13.991 10.728L14.076 10.456L13.821 9.878L13.94 9.657L13.855 9.249L13.94 8.994C13.9173 8.83533 13.906 8.722 13.906 8.654C13.906 8.43867 13.9626 8.28 14.076 8.178C14.0873 8.06467 14.161 7.87767 14.297 7.617H14.382L14.348 7.498L14.399 7.26V7.005C14.4896 6.903 14.5406 6.835 14.552 6.801L14.501 6.563V6.495C14.5803 6.33633 14.62 6.172 14.62 6.002L14.977 5.509C14.977 5.509 14.9883 5.49767 15.011 5.475C15.045 5.45233 15.0733 5.42967 15.096 5.407L15.079 5.339H15.147L15.402 5.05L15.419 4.659L15.844 4.506C16.0026 4.404 16.1046 4.234 16.15 3.996H16.371C16.4956 3.928 16.609 3.894 16.711 3.894C16.813 3.894 16.9093 3.91667 17 3.962L17.187 3.979L17.629 3.809L17.867 4.03L18.054 4.149H18.19L18.445 4.285H18.581C18.7283 4.421 18.8983 4.608 19.091 4.846L19.125 4.931L19.244 4.999L19.601 5.458L19.924 6.257V6.427L20.077 7.022ZM18.955 7.43L18.938 7.345C18.8586 7.26567 18.8133 7.18067 18.802 7.09L18.853 7.005L18.7 6.682L18.734 6.359L18.666 6.274C18.5186 6.16067 18.4393 6.07 18.428 6.002C18.326 5.95667 18.275 5.84333 18.275 5.662L18.173 5.645L17.969 5.305L17.816 5.186L17.459 5.05L17.323 5.016C17.255 5.016 17.2096 4.99333 17.187 4.948L16.847 5.322L16.626 5.798L16.269 5.985L16.218 6.172L16.048 6.257L15.98 6.699L15.776 6.801C15.7306 6.95967 15.708 7.107 15.708 7.243L15.436 7.498L15.521 7.549C15.521 7.685 15.47 7.804 15.368 7.906C15.334 8.008 15.2886 8.12133 15.232 8.246V8.382L15.181 8.45L15.198 8.654L15.011 9.113L15.045 9.198V9.674L14.977 9.912L14.994 10.15L15.147 10.371L15.385 10.456L15.47 10.49L15.606 10.422L16.048 10.456L16.116 10.286H16.184C16.252 10.286 16.2916 10.303 16.303 10.337L16.456 10.286L16.592 10.337L16.813 10.184L16.847 10.133L17 10.099C17.0793 9.97433 17.2663 9.84967 17.561 9.725L17.595 9.64L17.935 9.402L18.122 9.13L18.394 8.994L18.411 8.909L18.496 8.722V8.501L18.7 8.331L18.768 8.212L18.853 8.11C18.8076 7.974 18.785 7.87767 18.785 7.821C18.785 7.719 18.819 7.61133 18.887 7.498L18.955 7.43ZM22.7476 8.195L22.7136 8.501L22.5776 8.756C22.6909 8.90333 22.7306 9.07333 22.6966 9.266L23.1216 9.691C23.1556 9.83833 23.1612 9.95167 23.1386 10.031L23.1046 10.065L23.8016 10.099C23.8696 10.1103 23.9376 10.1047 24.0056 10.082C24.0849 10.0593 24.1529 10.014 24.2096 9.946L24.5836 10.116L24.9066 10.065L25.0596 10.014L25.5526 9.674L25.7056 9.708L25.8926 9.555L26.1136 9.487L26.1306 9.317L26.5216 9.062L26.7426 8.79L26.8616 8.756L26.8106 8.637L27.0486 8.127V7.957L27.1506 7.43L27.1846 7.396L27.1506 7.277C27.0939 7.243 27.0486 7.19767 27.0146 7.141C26.9806 7.073 26.9522 7.005 26.9296 6.937C26.9182 6.869 26.9069 6.81233 26.8956 6.767C26.8956 6.72167 26.8899 6.699 26.8786 6.699C26.8446 6.71033 26.7992 6.68767 26.7426 6.631C26.6972 6.57433 26.6406 6.50633 26.5726 6.427C26.5046 6.34767 26.4252 6.274 26.3346 6.206C26.2552 6.12667 26.1646 6.07 26.0626 6.036C25.9946 6.02467 25.9096 6.01333 25.8076 6.002C25.7169 5.97933 25.6149 5.95667 25.5016 5.934L25.3996 5.968L25.1106 5.951L24.8896 6.121L24.7366 6.087L24.5666 6.206L24.1076 6.512C24.0736 6.53467 24.0282 6.59133 23.9716 6.682C23.9149 6.77267 23.8412 6.82933 23.7506 6.852C23.6826 6.94267 23.6089 7.04467 23.5296 7.158C23.4616 7.27133 23.3879 7.31667 23.3086 7.294L23.0876 7.668L22.9856 7.923L22.7476 8.195ZM26.3006 2.024L26.1306 2.041L25.9266 2.194L25.7056 2.313C25.6489 2.36967 25.5979 2.40367 25.5526 2.415C25.5072 2.42633 25.4392 2.483 25.3486 2.585C25.0539 2.73233 24.8669 2.93067 24.7876 3.18L24.3456 3.418L24.3116 3.758L24.0056 3.741L23.5976 4.404C23.5069 4.506 23.4616 4.56267 23.4616 4.574L23.3936 4.71L23.0026 5.424L22.9176 5.526L22.8156 6.002L22.6796 6.138L22.6626 6.393L22.5606 6.699L22.5436 6.92L22.7306 6.716L23.0706 6.41L23.2406 6.121L23.5976 5.934L23.7506 5.628L24.1586 5.373L24.6176 5.05L25.1786 4.948L25.2806 4.863L25.7396 4.931L26.4366 4.829L27.2696 5.305L27.7116 5.866L27.7796 5.883C27.8476 5.917 27.8986 5.97367 27.9326 6.053C27.9666 6.121 27.9892 6.20033 28.0006 6.291C28.0232 6.38167 28.0402 6.47233 28.0516 6.563C28.0742 6.65367 28.1026 6.72733 28.1366 6.784L28.1026 6.937L28.3236 7.277C28.3462 7.36767 28.3519 7.52067 28.3406 7.736C28.3406 7.94 28.3236 8.08733 28.2896 8.178C28.2669 8.212 28.2442 8.25167 28.2216 8.297C28.1989 8.331 28.1706 8.37633 28.1366 8.433L28.1026 8.722L27.8306 9.096L27.7626 9.334L27.5586 9.521L27.3886 9.895L27.1166 10.048L26.9126 10.269L26.6746 10.337L26.5216 10.558H26.3176C26.2609 10.626 26.1929 10.6827 26.1136 10.728C26.0342 10.7733 25.9606 10.813 25.8926 10.847C25.8812 10.8583 25.8359 10.8753 25.7566 10.898C25.6886 10.9093 25.6036 10.9377 25.5016 10.983L25.1276 11.204L24.9236 11.136C24.7536 11.272 24.5552 11.3173 24.3286 11.272L24.2776 11.374L23.6996 11.272L23.6656 11.289C23.6316 11.3117 23.5862 11.3343 23.5296 11.357C23.4842 11.3797 23.4276 11.4137 23.3596 11.459L23.0876 11.272L22.5776 11.102L22.5266 11.153L22.2036 11.119L21.9146 10.66L21.5406 10.099L21.4216 9.385L21.2516 8.858L21.2856 8.603L21.1326 8.348L21.2856 8.144L21.2346 8.025L21.2686 7.821L21.2006 7.532C21.2119 7.48667 21.2402 7.44133 21.2856 7.396C21.3309 7.35067 21.3536 7.31667 21.3536 7.294C21.2742 7.14667 21.2686 6.97667 21.3366 6.784L21.3706 6.444L21.4556 6.325L21.5066 6.104V5.917L21.6086 5.764L21.7446 5.118L21.9996 4.71L22.0166 4.642C22.0506 4.55133 22.0902 4.47767 22.1356 4.421C22.1922 4.36433 22.2546 4.30767 22.3226 4.251L22.4076 4.166L22.4246 3.945C22.6059 3.85433 22.7306 3.71833 22.7986 3.537C22.7986 3.51433 22.7986 3.486 22.7986 3.452C22.7986 3.418 22.8099 3.37267 22.8326 3.316H23.0026L23.3086 2.942L23.4446 2.568L23.5466 2.619L23.7846 2.517L23.9716 2.245L24.2096 2.194L24.2946 1.956L24.4646 1.922L24.4476 1.769L24.6856 1.633L24.7536 1.667L24.7876 1.565L25.0256 1.497C25.1162 1.44033 25.1956 1.40633 25.2636 1.395C25.3429 1.37233 25.4166 1.344 25.4846 1.31L25.7056 1.191L25.9436 0.969999L26.2666 1.004L26.4196 0.833999L27.2696 0.63L27.5926 0.698C27.7172 0.731999 27.8022 0.777333 27.8476 0.833999C28.0176 1.038 28.0232 1.225 27.8646 1.395C27.7966 1.45167 27.7229 1.49133 27.6436 1.514C27.5756 1.52533 27.4792 1.52533 27.3546 1.514L27.1676 1.65L26.9126 1.684L26.7936 1.735L26.4026 1.888L26.3006 2.024ZM36.3399 4.115L36.1699 4.336L36.3059 4.744L36.0849 4.999L35.9999 5.356L35.9489 5.441L35.9829 5.526C35.9829 5.68467 35.9432 5.80367 35.8639 5.883L35.8299 5.934V6.002C35.8639 6.08133 35.8809 6.155 35.8809 6.223C35.8809 6.27967 35.8752 6.31933 35.8639 6.342L35.8809 6.41L35.8129 6.597L35.8639 6.801L35.7279 6.937L35.7789 7.175L35.8809 7.294L35.7279 7.43V7.702L35.6089 7.974L35.6939 8.246L35.5919 8.382L35.7619 8.501L35.5239 8.892L35.5069 8.943L35.6769 8.977L35.5579 9.368V9.436C35.5579 9.51533 35.5522 9.57767 35.5409 9.623L35.5579 9.674L35.8299 9.708L36.0509 10.048L35.9319 10.303L36.1189 10.286C36.1869 10.422 36.2265 10.541 36.2379 10.643L35.9829 10.898C35.9035 10.9773 35.7902 11.0567 35.6429 11.136L35.3539 11.289L35.2689 11.204L35.0989 11.306L34.5719 10.694V10.405C34.5039 10.1783 34.4699 9.96867 34.4699 9.776V9.674L34.3679 8.671L34.5039 7.957L34.4019 7.549L34.1129 8.025L33.9599 8.467L33.8239 8.535L33.5859 8.909L33.1609 9.3L33.0419 9.504L32.6679 9.827L32.5829 10.048L32.0389 10.388L31.4609 11.034L31.1379 11.102L30.9169 11.272C30.6335 11.2607 30.4182 11.153 30.2709 10.949C29.7609 10.6997 29.4945 10.3427 29.4719 9.878L29.5569 9.827L29.5399 9.725L29.5229 9.521L29.4209 9.3L29.5229 9.062L29.5569 8.705L29.6759 8.144C29.6759 8.13267 29.6759 8.11 29.6759 8.076C29.6645 8.05333 29.6589 8.03067 29.6589 8.008C29.6589 7.96267 29.6702 7.906 29.6929 7.838C29.6815 7.81533 29.6759 7.77 29.6759 7.702C29.6759 7.62267 29.7099 7.49233 29.7779 7.311L29.8969 7.26C29.8289 7.20333 29.7949 7.141 29.7949 7.073C29.7949 7.02767 29.8005 6.99367 29.8119 6.971C29.8005 6.937 29.7949 6.89733 29.7949 6.852C29.7949 6.716 29.8629 6.614 29.9989 6.546C30.0329 6.43267 30.0952 6.31933 30.1859 6.206L30.1009 6.07L30.3049 5.815V5.747C30.3049 5.53167 30.3785 5.33333 30.5259 5.152L30.5089 4.846L30.5769 4.778C30.5769 4.76667 30.5769 4.74967 30.5769 4.727C30.5655 4.70433 30.5599 4.68733 30.5599 4.676C30.5599 4.608 30.5825 4.55133 30.6279 4.506V4.404C30.6732 4.29067 30.7922 4.12067 30.9849 3.894C31.1775 3.66733 31.3192 3.469 31.4099 3.299L31.4949 3.384L31.6819 3.299L31.7669 3.265L32.3279 3.01L33.6369 3.078V3.197L34.0449 3.282C34.3055 3.282 34.4755 3.367 34.5549 3.537C34.5549 3.503 34.5605 3.46333 34.5719 3.418C34.5719 3.384 34.5719 3.36133 34.5719 3.35L34.9289 3.673L35.2519 3.741L35.8639 3.588L36.0849 4.013L36.3399 4.115ZM34.7249 4.999L34.6569 4.88L34.5209 4.846L33.9939 4.421L33.6539 4.37H33.3819L33.3479 4.336L33.2119 4.387L33.0589 4.302H32.6169L32.6679 4.37L32.2769 4.506L32.2089 4.591L32.1579 4.608C31.9539 4.778 31.8122 4.91967 31.7329 5.033L31.6139 5.441L31.5459 5.594L31.7159 5.832L31.4269 6.053L31.4609 6.121C31.3362 6.33633 31.2739 6.546 31.2739 6.75L31.1379 6.92V7.226L31.0019 7.379L30.9679 7.532L30.9169 7.566V7.804L30.8659 7.889C30.8659 8.025 30.8545 8.13267 30.8319 8.212L30.8659 8.297L30.7129 8.62L30.7809 8.722L30.6619 8.892L30.7809 9.215L30.5939 9.453L30.6279 9.776V9.827L30.6959 9.861L30.7809 9.844C30.8375 9.78733 30.8942 9.73633 30.9509 9.691L30.9169 9.555L31.1549 9.521L31.2059 9.402L32.2089 8.586L32.3109 8.552L32.4299 8.263C32.4979 8.24033 32.5942 8.195 32.7189 8.127L32.8209 7.855H32.9569L32.9059 7.566L33.1439 7.532C33.1665 7.48667 33.2005 7.43 33.2459 7.362C33.3025 7.294 33.3592 7.23167 33.4159 7.175L34.2829 6.019L34.4189 5.764L34.4019 5.696L34.5209 5.509L34.5549 5.322L34.7079 5.186L34.7249 4.999ZM40.8276 9.334L40.8616 9.521L40.7426 9.776L40.7596 9.861L40.8106 9.878L40.8446 10.116L41.1846 10.167L41.5246 10.048L41.8306 10.031C41.8986 10.0763 41.9439 10.1047 41.9666 10.116C42.0006 10.116 42.0403 10.1103 42.0856 10.099L42.3576 9.963L42.7826 9.98L43.2246 9.844L43.5986 9.691L43.8196 9.708L44.0236 9.538L44.2106 9.504C44.2786 9.504 44.3579 9.49833 44.4486 9.487C44.5393 9.46433 44.6299 9.44167 44.7206 9.419C44.8113 9.39633 44.8963 9.368 44.9756 9.334C45.0549 9.28867 45.1173 9.23767 45.1626 9.181L45.2986 9.011L45.6386 8.909L45.7406 8.722L45.8256 8.637L45.7746 8.603L45.5196 8.569L45.4686 8.484H45.3836L45.0266 8.331L44.7376 8.365L44.6016 8.246L44.2786 8.28C44.2106 8.212 44.1426 8.17233 44.0746 8.161C43.9839 8.21767 43.8989 8.246 43.8196 8.246C43.7629 8.23467 43.6779 8.20067 43.5646 8.144C43.4739 8.144 43.4059 8.144 43.3606 8.144C43.3266 8.13267 43.2586 8.12133 43.1566 8.11L42.9696 8.093C42.8789 8.07033 42.7996 8.07033 42.7316 8.093C42.6749 8.11567 42.6126 8.127 42.5446 8.127C42.5106 8.127 42.4653 8.12133 42.4086 8.11C42.3633 8.08733 42.3123 8.08167 42.2556 8.093L41.9156 8.127L41.6776 7.957L41.6606 8.059L41.1506 8.042L40.9806 7.974C40.7993 7.974 40.7086 8.059 40.7086 8.229V8.399V8.535L40.7936 8.586L40.7086 8.824L40.7426 8.926L40.7086 9.147L40.8276 9.334ZM47.2366 8.943L46.9646 9.181L46.8966 9.385L46.7096 9.419L46.5056 9.725L46.1486 9.793L45.8426 10.014L45.7236 10.065L45.4856 10.32L45.0946 10.286L44.9246 10.422L44.7036 10.388C44.6016 10.456 44.5166 10.5183 44.4486 10.575C44.3806 10.6317 44.2786 10.6713 44.1426 10.694L44.0236 10.626L43.5816 10.949L43.4116 10.864L43.2926 10.932L43.0206 10.864L42.9186 10.932L42.6296 10.966L42.4086 10.915L42.1366 11.153L41.8136 11.119V11.136C41.8023 11.1473 41.7399 11.17 41.6266 11.204L41.5416 11.102C41.3943 11.2153 41.2243 11.272 41.0316 11.272H40.9466C40.9126 11.2607 40.8843 11.255 40.8616 11.255L40.6066 11.527L40.3176 11.612L40.0626 11.476L39.8756 11.323L39.7396 11.17L39.6376 11.085C39.6376 11.0623 39.6376 11.0227 39.6376 10.966C39.6376 10.9093 39.5866 10.7507 39.4846 10.49L39.5016 10.201L39.4676 9.861L39.5526 9.606L39.5016 9.266L39.6206 9.028L39.5526 8.824L39.6036 8.484L39.4846 8.11L39.4676 8.059C39.1276 7.87767 38.9349 7.71333 38.8896 7.566C38.9123 7.44133 38.9633 7.362 39.0426 7.328C39.1219 7.28267 39.2239 7.22033 39.3486 7.141L39.5186 7.039L39.4166 6.75L39.5356 6.699L39.4676 6.461L39.5186 6.24L39.4336 6.002L39.4676 5.883L39.4506 5.679L39.2636 5.305L39.2976 5.152L39.2126 5.084L39.2466 4.88L39.1616 4.761L39.0596 4.54L39.0426 4.523L38.8726 4.659L38.7026 4.557L38.5326 4.659L38.4816 4.591L38.2096 4.761L38.0566 4.523L37.7506 4.71C37.2293 4.41533 36.9686 4.149 36.9686 3.911C36.9686 3.707 37.0763 3.588 37.2916 3.554C37.4049 3.384 37.5579 3.299 37.7506 3.299H37.8016L37.9716 3.367H38.0056C38.2323 3.367 38.4306 3.37267 38.6006 3.384C38.7706 3.384 38.9066 3.39533 39.0086 3.418C39.0993 3.39533 39.1786 3.384 39.2466 3.384C39.3259 3.37267 39.3996 3.367 39.4676 3.367L39.5526 3.418L39.6546 3.384L40.0966 3.554L40.4876 3.656C40.5216 3.64467 40.6009 3.639 40.7256 3.639C40.7936 3.639 40.8503 3.64467 40.8956 3.656C40.9409 3.656 40.9806 3.66167 41.0146 3.673L41.1846 3.639C41.3319 3.65033 41.4736 3.69567 41.6096 3.775L41.7286 3.843C41.9099 3.88833 42.0516 3.911 42.1536 3.911L42.5276 3.843L42.5956 3.928C42.7316 3.928 42.8506 3.98467 42.9526 4.098H43.4116L43.5986 4.285C43.6666 4.30767 43.7289 4.32467 43.7856 4.336C43.8423 4.34733 43.8933 4.353 43.9386 4.353L44.2446 4.455L44.3806 4.574H44.7376L44.8226 4.795L45.1456 4.999L45.2646 5.475L45.0096 5.934C44.8849 6.05867 44.7716 6.155 44.6696 6.223C44.5676 6.291 44.4543 6.342 44.3296 6.376L44.0746 6.529L43.9556 6.495L43.6496 6.75H43.4626L43.0206 6.937L42.7146 6.971C42.6013 7.01633 42.5106 7.056 42.4426 7.09C42.3859 7.11267 42.3236 7.13533 42.2556 7.158C42.1989 7.18067 42.1309 7.20333 42.0516 7.226C41.9836 7.24867 41.8816 7.28267 41.7456 7.328V7.362C41.7683 7.362 41.8306 7.35633 41.9326 7.345C42.0346 7.33367 42.1423 7.32233 42.2556 7.311C42.3803 7.29967 42.4936 7.28833 42.5956 7.277C42.6976 7.26567 42.7656 7.26 42.7996 7.26C42.9243 7.23733 43.0546 7.21467 43.1906 7.192C43.3266 7.16933 43.4173 7.18633 43.4626 7.243C43.5533 7.19767 43.6326 7.175 43.7006 7.175C43.8933 7.23167 44.0123 7.26 44.0576 7.26C44.1029 7.26 44.1483 7.26 44.1936 7.26C44.2389 7.26 44.2956 7.24867 44.3636 7.226C44.4316 7.26 44.5279 7.28267 44.6526 7.294C44.7773 7.294 44.9359 7.294 45.1286 7.294L45.2646 7.379C45.4006 7.40167 45.5253 7.41867 45.6386 7.43C45.7519 7.43 45.8539 7.45267 45.9446 7.498H46.1996C46.2563 7.55467 46.3413 7.59433 46.4546 7.617C46.5793 7.63967 46.6756 7.67933 46.7436 7.736C46.7776 7.75867 46.8229 7.79267 46.8796 7.838C46.9476 7.872 47.0269 7.93433 47.1176 8.025C47.2763 8.161 47.3556 8.30267 47.3556 8.45L47.3386 8.637L47.2366 8.943ZM43.9556 5.339H43.7856L43.6326 5.254L43.4116 5.203L43.2416 5.322L42.9186 5.084L42.6636 5.016L42.5616 5.067L42.4256 4.914H42.3576C42.2443 4.914 42.0686 4.897 41.8306 4.863L41.4736 4.914L41.2866 4.744L41.1166 4.778L41.0656 4.761L40.9636 4.829L40.6746 4.727L40.6066 4.761V5.135L40.7086 5.424L40.6236 5.662L40.7086 5.849L40.6916 6.172L40.7766 6.427L40.6746 6.682L40.7256 6.852L40.9636 6.835C40.9863 6.82367 41.0203 6.81233 41.0656 6.801C41.1109 6.77833 41.1563 6.73867 41.2016 6.682L41.2696 6.648L41.3716 6.716L41.4226 6.597L41.8476 6.376C42.0063 6.33067 42.1139 6.30233 42.1706 6.291C42.2386 6.27967 42.2953 6.24567 42.3406 6.189L42.5786 6.121L42.6636 6.104C42.8109 6.01333 42.9809 5.95667 43.1736 5.934L43.2416 5.883C43.2643 5.883 43.3096 5.86033 43.3776 5.815L43.6326 5.679H43.6666C43.7233 5.63367 43.7799 5.594 43.8366 5.56C43.9046 5.51467 43.9783 5.48067 44.0576 5.458L43.9556 5.339ZM49.9893 9.3L50.0233 9.504L50.0913 9.929L50.1253 10.133L50.1763 10.184L50.4143 10.252H50.6353L51.0093 10.184H51.4853L52.0123 10.15L52.1823 9.895L52.3353 9.98L52.4713 9.844L52.6243 9.759L52.8623 9.691L52.9133 9.674L52.9813 9.436L53.2533 9.368L53.4743 9.249L53.6613 8.96L53.9333 8.756L54.0353 8.467L54.2053 8.314L54.2733 8.127L54.1883 7.685L54.1373 7.651L53.9503 7.396L53.6443 7.277C53.6556 7.277 53.6386 7.243 53.5933 7.175C53.5593 7.09567 53.5196 7.06733 53.4743 7.09L53.2703 7.039L52.9473 6.852L52.8113 6.903H52.6753C52.5959 6.94833 52.5109 6.971 52.4203 6.971C52.3976 6.971 52.3693 6.954 52.3353 6.92C52.3126 6.886 52.2843 6.85767 52.2503 6.835C52.2163 6.84633 52.1539 6.86333 52.0633 6.886C51.9726 6.90867 51.8593 6.92 51.7233 6.92C51.6779 6.90867 51.6156 6.90867 51.5363 6.92C51.4569 6.92 51.4116 6.92 51.4003 6.92C51.3549 6.954 51.3209 6.971 51.2983 6.971C51.2869 6.971 51.2529 6.971 51.1963 6.971C51.1509 6.971 51.0943 7.005 51.0263 7.073C50.9696 7.12967 50.9243 7.16367 50.8903 7.175L50.5333 7.09L50.1763 7.175L50.1253 7.685L50.0913 8.246L50.0743 8.518L50.2273 9.062L49.9893 9.3ZM48.9523 6.036C48.9636 6.002 48.9693 5.91133 48.9693 5.764C48.9693 5.628 48.9579 5.50333 48.9353 5.39L48.9693 5.271L48.8333 5.118C48.8446 5.05 48.8843 4.99333 48.9523 4.948L48.8673 4.829C48.9013 4.761 48.9183 4.693 48.9183 4.625C48.9183 4.53433 48.8786 4.43233 48.7993 4.319C48.7993 4.22833 48.8163 4.13767 48.8503 4.047L48.7823 3.877L48.8673 3.69L48.5953 3.112L48.8673 3.061V3.027L49.4623 2.721L49.7683 3.078L49.8023 3.248L50.0573 3.435L50.0403 3.69C50.0403 3.73533 50.0346 3.792 50.0233 3.86C50.0233 3.91667 50.0176 3.98467 50.0063 4.064C50.0856 4.14333 50.1253 4.217 50.1253 4.285C50.1253 4.29633 50.1139 4.336 50.0913 4.404L50.1593 4.472L50.0913 4.744L50.2103 5.05L50.1933 5.169L50.4143 5.271L50.2953 5.492L50.1933 5.594L50.1253 5.9L50.1763 6.155L50.6013 6.002L51.0263 6.036L51.1453 5.764L51.6213 5.866L52.0633 5.883L52.1823 5.832L52.4543 5.968L52.5223 5.934L52.8453 5.747L53.3043 5.832L53.5083 5.849L54.0693 5.985L54.1713 5.968C54.2619 6.02467 54.3526 6.08133 54.4433 6.138C54.5453 6.19467 54.6416 6.26833 54.7323 6.359L55.0383 6.393L55.1573 6.75L55.2253 6.784L55.4123 7.056L55.5143 7.345L55.6333 7.464L55.5993 7.838L55.6333 7.991C55.6106 8.093 55.5709 8.20067 55.5143 8.314C55.4576 8.42733 55.4349 8.552 55.4463 8.688L55.2933 8.569L55.3103 8.688L55.2253 8.824L55.2593 9.198L54.9023 9.028L54.8513 9.232L54.7663 9.334C54.7436 9.39067 54.7209 9.44733 54.6983 9.504C54.6756 9.54933 54.6473 9.589 54.6133 9.623L54.6643 9.742L54.3413 9.844L54.3243 9.895L54.0693 10.201L53.8993 10.507L53.7633 10.609L53.6273 10.83L53.2023 10.711L53.1343 10.813C53.1003 10.8243 53.0436 10.83 52.9643 10.83C52.8849 10.83 52.8226 10.83 52.7773 10.83L52.5393 11.068L52.4883 11.238C52.4203 11.2607 52.3523 11.306 52.2843 11.374C52.2163 11.4533 52.1426 11.493 52.0633 11.493L51.7743 11.391L51.3153 11.255L50.9923 11.442L50.9243 11.476L50.6523 11.459L50.7033 11.425L50.2443 11.493L49.9213 11.544L49.7853 11.391L49.4793 11.425C49.1959 11.3683 49.0033 11.2097 48.9013 10.949L48.8843 10.83L48.7993 10.694V10.388L48.6973 10.218L48.8333 10.014C48.7993 9.90067 48.7823 9.793 48.7823 9.691C48.7823 9.657 48.7879 9.63433 48.7993 9.623V9.028L48.8673 8.858L48.8843 7.855L48.9353 7.617L48.8503 7.515L49.0033 7.056L48.9523 6.886V6.512L49.0373 6.41L49.0203 6.172L48.9523 6.036ZM66.0236 4.03L65.6666 4.897L65.4966 4.948H65.2246L64.9696 4.982L64.7826 4.948L63.8816 5.016L63.6096 4.948L63.5586 4.965C63.4679 5.01033 63.3036 5.05 63.0656 5.084H62.7256L62.6236 5.05H62.5726C62.4593 5.05 62.3176 5.07267 62.1476 5.118C62.0116 5.152 61.8359 5.169 61.6206 5.169L61.3826 5.118L61.3486 5.288H61.1786L61.1276 5.781L61.1956 5.9L61.1786 6.121V6.495C61.1786 6.88033 61.1389 7.141 61.0596 7.277L61.1786 7.447L61.0766 7.855L61.1786 7.974L61.0086 8.212V8.331L60.9236 8.484L60.9916 8.807L60.9406 9.402L60.8556 9.674C60.8669 9.68533 60.8726 9.71367 60.8726 9.759C60.8726 9.73633 60.8556 9.79867 60.8216 9.946C60.8216 9.95733 60.8273 9.97433 60.8386 9.997V10.065C60.8386 10.167 60.8046 10.269 60.7366 10.371L60.7876 10.575C60.7876 10.6543 60.7819 10.6997 60.7706 10.711L60.7536 10.745C60.7423 10.779 60.7309 10.813 60.7196 10.847C60.7196 10.8697 60.7196 10.898 60.7196 10.932C60.7196 11.1133 60.7423 11.2663 60.7876 11.391C60.6743 11.4137 60.5553 11.425 60.4306 11.425C60.3173 11.4363 60.2493 11.442 60.2266 11.442C60.1586 11.442 60.0906 11.4307 60.0226 11.408H59.9886C59.7393 11.34 59.6146 11.1077 59.6146 10.711C59.6259 10.677 59.6316 10.609 59.6316 10.507C59.6316 10.4277 59.6203 10.32 59.5976 10.184C59.5749 10.0367 59.5636 9.93467 59.5636 9.878C59.5636 9.776 59.5806 9.691 59.6146 9.623L59.6656 9.028C59.5863 8.91467 59.5466 8.82967 59.5466 8.773C59.5466 8.78433 59.5579 8.74467 59.5806 8.654C59.5466 8.586 59.5296 8.52933 59.5296 8.484C59.5296 8.39333 59.5523 8.331 59.5976 8.297C59.5976 8.24033 59.6373 8.12133 59.7166 7.94C59.6939 7.82667 59.6826 7.74167 59.6826 7.685C59.7506 7.685 59.7846 7.651 59.7846 7.583C59.7846 7.56033 59.7733 7.532 59.7506 7.498C59.7393 7.464 59.7336 7.41867 59.7336 7.362L59.7676 7.413L59.7166 7.277C59.7166 7.08433 59.7393 6.92567 59.7846 6.801V6.393L59.7166 6.087L59.7846 5.594L59.7166 5.288L59.7336 5.152H59.5296L59.3596 5.237H59.2576V5.288C59.0423 5.288 58.8439 5.271 58.6626 5.237L58.6116 5.356L58.0506 5.169L57.3026 5.152L56.8266 5.288C56.6339 5.118 56.4866 4.948 56.3846 4.778C56.2939 4.59667 56.2486 4.46633 56.2486 4.387C56.2486 4.29633 56.2599 4.22833 56.2826 4.183L56.6056 3.894L56.8776 3.911L57.8466 4.098L58.1016 4.013L58.8326 4.03L59.4106 4.098L59.7846 3.962L59.9206 3.588L60.4986 3.724L60.5156 3.707L60.5496 3.741L60.7536 3.996H60.8046L61.0086 3.928L61.4336 4.03C61.6489 3.996 61.8133 3.96767 61.9266 3.945C62.0513 3.92233 62.1306 3.911 62.1646 3.911C62.2666 3.911 62.3913 3.93933 62.5386 3.996H62.7086C62.7653 3.996 62.8163 3.996 62.8616 3.996C62.9069 3.98467 62.9409 3.979 62.9636 3.979H63.0656L63.5586 3.911L63.9836 3.996L64.0346 4.013L64.2556 3.945L64.5616 4.013L65.2756 3.996L65.5986 4.03H66.0236ZM71.3692 9.606C71.3692 9.742 71.2672 9.912 71.0632 10.116C71.0065 10.2973 70.9215 10.4447 70.8082 10.558L70.7062 10.575L70.5192 10.898L70.2132 10.949L69.8902 11.153L69.7202 11.459L69.5332 11.425C69.4085 11.4817 69.3065 11.5157 69.2272 11.527L69.1252 11.68C69.0912 11.6687 69.0402 11.663 68.9722 11.663C68.8248 11.663 68.6832 11.765 68.5472 11.969L68.3092 11.765C68.2638 11.7763 68.1958 11.782 68.1052 11.782C67.9578 11.782 67.8332 11.7593 67.7312 11.714H67.4422L67.3062 11.629C66.8755 11.561 66.6035 11.3967 66.4902 11.136V11.085L66.2862 10.983L66.1842 10.694L65.9802 10.558V10.303L65.7762 9.555L65.8102 8.943L65.8782 8.671V8.314L65.9632 8.042L65.9462 7.923L66.0652 7.719L66.0312 7.753C66.0312 7.651 66.0595 7.54333 66.1162 7.43V7.345L66.0652 6.937C66.0652 6.74433 66.1502 6.57433 66.3202 6.427C66.3315 6.40433 66.3372 6.37033 66.3372 6.325C66.3372 6.27967 66.3145 6.189 66.2692 6.053C66.2352 5.90567 66.2182 5.80367 66.2182 5.747C66.2182 5.611 66.2522 5.46933 66.3202 5.322C66.4108 5.458 66.5412 5.526 66.7112 5.526H66.7622C66.7848 5.48067 66.8358 5.42967 66.9152 5.373C67.0058 5.08967 67.1305 4.85167 67.2892 4.659L67.3572 4.591C67.3572 4.54567 67.3912 4.41533 67.4592 4.2H67.5952L67.6292 4.115L67.7652 4.081C67.8218 3.99033 67.8558 3.93933 67.8672 3.928C67.8898 3.90533 68.0145 3.83167 68.2412 3.707C68.2865 3.62767 68.3545 3.554 68.4452 3.486C68.4905 3.46333 68.5472 3.44067 68.6152 3.418L68.6832 3.316C68.9892 3.214 69.1818 3.163 69.2612 3.163C69.3518 3.163 69.4368 3.18567 69.5162 3.231L69.6012 3.214L69.7202 3.282C69.8562 3.384 69.9922 3.469 70.1282 3.537L70.4172 3.758V3.826C70.6778 4.03 70.8082 4.319 70.8082 4.693L70.7572 4.863L70.8082 5.424L70.6552 5.526L70.4852 5.968L70.1622 6.325L70.1452 6.597C69.7825 6.85767 69.4482 7.06733 69.1422 7.226C69.0402 7.38467 68.8815 7.464 68.6662 7.464H68.6152L68.2922 7.668H68.0202L67.6122 7.838L67.3062 7.685H67.2722C67.2495 7.77567 67.2268 7.91167 67.2042 8.093L67.0682 8.195L67.0512 8.399L66.9492 8.688C66.9832 8.96 67.0002 9.13567 67.0002 9.215L66.9322 9.266C66.9322 9.41333 66.9265 9.521 66.9152 9.589C66.9152 9.60033 66.9095 9.61733 66.8982 9.64C66.8982 9.66267 66.8982 9.67967 66.8982 9.691C66.8982 9.78167 66.9435 9.85533 67.0342 9.912C67.0682 10.048 67.1248 10.133 67.2042 10.167L67.3232 10.269L67.6972 10.371V10.422L67.8332 10.456L68.4112 10.49L68.7512 10.439L68.9212 10.32L69.0232 10.286L69.1932 10.031L69.2782 10.014L69.7032 9.878C69.7485 9.79867 69.8222 9.73067 69.9242 9.674L69.9752 9.589C70.2018 9.54367 70.3322 9.42467 70.3662 9.232C70.5248 9.07333 70.7288 8.994 70.9782 8.994H71.0462C71.2615 9.24333 71.3692 9.44733 71.3692 9.606ZM69.6862 4.71C69.6862 4.676 69.6692 4.608 69.6352 4.506L69.5502 4.489L69.5162 4.506C69.5048 4.506 69.4822 4.506 69.4482 4.506C69.4255 4.51733 69.4028 4.523 69.3802 4.523C69.3688 4.523 69.3518 4.51733 69.3292 4.506C69.3065 4.506 69.2895 4.506 69.2782 4.506L69.1082 4.625L68.9552 4.642L68.8702 4.676L68.5812 5.05L68.3942 5.186L68.1222 5.662L67.9692 5.764C67.9352 5.95667 67.8558 6.121 67.7312 6.257L67.6632 6.376C67.7878 6.29667 67.9295 6.257 68.0882 6.257L68.2072 6.206L68.2582 6.053L68.4962 6.07L68.6322 5.866H68.7342L68.9212 5.934L69.0062 5.679H69.1252V5.492L69.3462 5.441L69.3972 5.39L69.4312 5.237L69.6522 4.914C69.6748 4.85733 69.6862 4.78933 69.6862 4.71ZM87.2048 8.195L87.1368 8.399L87.0688 8.739L86.7628 8.994L86.6948 9.215L86.4908 9.266L86.2698 9.589L85.8788 9.674L85.5388 9.912L85.0458 9.963L84.7908 10.235L84.3488 10.201L84.1618 10.354L83.9238 10.32C83.6972 10.4787 83.4308 10.5863 83.1248 10.643L83.0058 10.575L82.5128 10.932L82.3258 10.83L82.2068 10.915L81.9008 10.847L81.7818 10.915L81.4758 10.949L81.2378 10.898L80.9318 11.153L80.5748 11V11.017C80.5522 11.0397 80.4898 11.068 80.3878 11.102L80.2858 10.983C80.1272 11.1077 79.9402 11.17 79.7248 11.17C79.7022 11.17 79.6738 11.17 79.6398 11.17C79.5945 11.1587 79.5605 11.153 79.5378 11.153L79.2658 11.442L78.9428 11.544L78.6708 11.391L78.6028 11.085L78.2288 11.204C78.2515 11.1813 78.2628 11.1643 78.2628 11.153C78.2628 11.1417 78.2628 11.1247 78.2628 11.102C78.2515 11.0793 78.2458 11.0567 78.2458 11.034C78.2458 11 78.2685 10.9773 78.3138 10.966L78.0418 10.422L78.0588 10.116L78.0248 9.742L78.1098 9.47L78.0588 9.096L78.1778 8.824L78.1098 8.603L78.1608 8.229C78.1268 8.10433 78.0872 7.96833 78.0418 7.821L78.0248 7.583C77.6508 7.39033 77.4412 7.209 77.3958 7.039C77.4525 6.767 77.6168 6.55167 77.8888 6.393C77.9002 6.38167 77.9625 6.342 78.0758 6.274L77.9568 5.9L78.0928 5.849L78.0248 5.594L78.0758 5.526L77.9738 5.271L78.0248 5.135L78.0078 4.744L77.8038 4.336L77.8378 4.166L77.7358 4.098L77.7698 3.707L77.6848 3.571L77.5658 3.163L77.5488 3.146L77.3618 3.299L77.1918 3.18L77.0048 3.299L76.9368 3.214L76.6478 3.401L76.4778 3.146L76.1378 3.35C75.5712 3.02133 75.2878 2.73233 75.2878 2.483C75.2878 2.25633 75.4068 2.12033 75.6448 2.075C75.7582 1.89367 75.9225 1.803 76.1378 1.803H76.2058L76.3928 1.888L76.4268 1.871C76.9255 1.871 77.2882 1.89367 77.5148 1.939C77.7075 1.89367 77.8775 1.871 78.0248 1.871L78.1098 1.939L78.2288 1.905L78.7048 2.075L79.6908 2.194C79.7475 2.18267 79.8325 2.177 79.9458 2.177C80.0932 2.177 80.2008 2.18833 80.2688 2.211L80.4558 2.177C80.6485 2.19967 80.8015 2.25067 80.9148 2.33L81.0508 2.398C81.2775 2.44333 81.4305 2.466 81.5098 2.466L81.9178 2.398L82.0028 2.5C82.1502 2.5 82.2805 2.55667 82.3938 2.67L82.8868 2.687L83.0908 2.874C83.2382 2.93067 83.3628 2.959 83.4648 2.959L83.8048 3.061L83.9408 3.197H84.3318L84.4338 3.435L84.7908 3.656L84.9098 4.183L84.6378 4.676C84.3885 4.95933 84.1392 5.12367 83.8898 5.169L83.6178 5.322L83.4818 5.288L83.1248 5.526C83.0455 5.51467 82.9775 5.509 82.9208 5.509L82.5638 5.628L82.5298 5.611L82.3088 5.9L81.9858 5.951C81.6912 6.09833 81.3965 6.172 81.1018 6.172L80.7618 6.359H80.4048L80.1158 6.529L79.8948 6.563L80.4898 6.75L80.8298 6.699L81.3908 6.767L82.0368 6.665L82.0708 6.733C82.1502 6.72167 82.2635 6.716 82.4108 6.716C82.6828 6.716 82.8585 6.77267 82.9378 6.886C83.0172 6.82933 83.1078 6.801 83.2098 6.801C83.4025 6.869 83.5328 6.903 83.6008 6.903C83.6802 6.903 83.7878 6.87467 83.9238 6.818C84.0712 6.89733 84.3488 6.937 84.7568 6.937L84.9098 7.022C85.2158 7.06733 85.4652 7.13533 85.6578 7.226H85.9298C86.0658 7.362 86.2188 7.43 86.3888 7.43C86.4568 7.498 86.6438 7.62833 86.9498 7.821C87.1198 7.93433 87.2048 8.059 87.2048 8.195ZM83.2778 4.319V4.183L83.2268 4.166L83.1078 4.03H82.9208L82.7508 3.945C82.6602 3.92233 82.5808 3.89967 82.5128 3.877L82.3258 4.013L81.9858 3.758L81.6968 3.673L81.5778 3.741L81.2548 3.571H81.1698C81.0565 3.571 80.8695 3.554 80.6088 3.52L80.2178 3.571L80.0138 3.384L79.8268 3.418L79.7588 3.401L79.6568 3.486L79.3338 3.367L79.2658 3.401V3.809L79.3848 4.132L79.2828 4.387L79.3848 4.778L79.3508 5.135L79.4528 5.407L79.3678 5.696V5.73L79.6398 5.713C79.6965 5.69033 79.7815 5.66767 79.8948 5.645L79.8778 5.696L80.0818 5.543L80.1158 5.407L80.5408 5.39C80.8922 5.29933 81.1188 5.19167 81.2208 5.067L81.4248 5.084L81.5098 5.016C81.6912 4.83467 81.8838 4.744 82.0878 4.744H82.1558C82.2125 4.744 82.2635 4.71567 82.3088 4.659L82.7678 4.523H82.8188C82.9435 4.421 83.0965 4.353 83.2778 4.319ZM85.7088 8.399L85.6578 8.365L85.3858 8.331L85.3178 8.246H85.2328L84.8418 8.076L84.5188 8.11L84.3658 7.974L84.0258 8.008C83.9578 7.95133 83.8842 7.91167 83.8048 7.889C83.7028 7.94567 83.6065 7.974 83.5158 7.974C83.4365 7.96267 83.3458 7.92867 83.2438 7.872C83.0512 7.872 82.8415 7.855 82.6148 7.821L82.0368 7.804C81.8442 7.74733 81.6685 7.719 81.5098 7.719C81.4418 7.719 81.3568 7.73033 81.2548 7.753L80.8808 7.838L80.6258 7.668L80.6088 7.77L79.8608 7.702C79.7588 7.634 79.6965 7.58867 79.6738 7.566C79.4812 7.566 79.3848 7.66233 79.3848 7.855V7.957L79.3678 8.11L79.4698 8.348L79.3848 8.603L79.4188 8.722L79.3848 8.96L79.5038 9.164L79.5378 9.487L79.4188 9.759L79.4358 9.844L79.4868 9.878L79.5208 10.133L79.9968 10.116L80.2858 10.014L80.7788 10.031L80.8978 10.082C80.9318 10.048 80.9885 10.0197 81.0678 9.997L81.3568 9.861L81.8328 9.878L82.3088 9.725L82.7168 9.555L82.9548 9.572L83.3628 9.385L83.9408 9.351C84.2242 9.33967 84.4338 9.24333 84.5698 9.062L84.8078 9.079L84.9948 8.994L85.1308 8.807L85.5048 8.705L85.6238 8.501L85.7088 8.399ZM94.9722 4.115L94.8022 4.336L94.9382 4.744L94.7172 4.999L94.6322 5.356L94.5812 5.441L94.6152 5.526C94.6152 5.68467 94.5756 5.80367 94.4962 5.883L94.4622 5.934V6.002C94.4962 6.08133 94.5132 6.155 94.5132 6.223C94.5132 6.27967 94.5076 6.31933 94.4962 6.342L94.5132 6.41L94.4452 6.597L94.4962 6.801L94.3602 6.937L94.4112 7.175L94.5132 7.294L94.3602 7.43V7.702L94.2412 7.974L94.3262 8.246L94.2242 8.382L94.3942 8.501L94.1562 8.892L94.1392 8.943L94.3092 8.977L94.1902 9.368V9.436C94.1902 9.51533 94.1846 9.57767 94.1732 9.623L94.1902 9.674L94.4622 9.708L94.6832 10.048L94.5642 10.303L94.7512 10.286C94.8192 10.422 94.8589 10.541 94.8702 10.643L94.6152 10.898C94.5359 10.9773 94.4226 11.0567 94.2752 11.136L93.9862 11.289L93.9012 11.204L93.7312 11.306L93.2042 10.694V10.405C93.1362 10.1783 93.1022 9.96867 93.1022 9.776V9.674L93.0002 8.671L93.1362 7.957L93.0342 7.549L92.7452 8.025L92.5922 8.467L92.4562 8.535L92.2182 8.909L91.7932 9.3L91.6742 9.504L91.3002 9.827L91.2152 10.048L90.6712 10.388L90.0932 11.034L89.7702 11.102L89.5492 11.272C89.2659 11.2607 89.0506 11.153 88.9032 10.949C88.3932 10.6997 88.1269 10.3427 88.1042 9.878L88.1892 9.827L88.1722 9.725L88.1552 9.521L88.0532 9.3L88.1552 9.062L88.1892 8.705L88.3082 8.144C88.3082 8.13267 88.3082 8.11 88.3082 8.076C88.2969 8.05333 88.2912 8.03067 88.2912 8.008C88.2912 7.96267 88.3026 7.906 88.3252 7.838C88.3139 7.81533 88.3082 7.77 88.3082 7.702C88.3082 7.62267 88.3422 7.49233 88.4102 7.311L88.5292 7.26C88.4612 7.20333 88.4272 7.141 88.4272 7.073C88.4272 7.02767 88.4329 6.99367 88.4442 6.971C88.4329 6.937 88.4272 6.89733 88.4272 6.852C88.4272 6.716 88.4952 6.614 88.6312 6.546C88.6652 6.43267 88.7276 6.31933 88.8182 6.206L88.7332 6.07L88.9372 5.815V5.747C88.9372 5.53167 89.0109 5.33333 89.1582 5.152L89.1412 4.846L89.2092 4.778C89.2092 4.76667 89.2092 4.74967 89.2092 4.727C89.1979 4.70433 89.1922 4.68733 89.1922 4.676C89.1922 4.608 89.2149 4.55133 89.2602 4.506V4.404C89.3056 4.29067 89.4246 4.12067 89.6172 3.894C89.8099 3.66733 89.9516 3.469 90.0422 3.299L90.1272 3.384L90.3142 3.299L90.3992 3.265L90.9602 3.01L92.2692 3.078V3.197L92.6772 3.282C92.9379 3.282 93.1079 3.367 93.1872 3.537C93.1872 3.503 93.1929 3.46333 93.2042 3.418C93.2042 3.384 93.2042 3.36133 93.2042 3.35L93.5612 3.673L93.8842 3.741L94.4962 3.588L94.7172 4.013L94.9722 4.115ZM93.3572 4.999L93.2892 4.88L93.1532 4.846L92.6262 4.421L92.2862 4.37H92.0142L91.9802 4.336L91.8442 4.387L91.6912 4.302H91.2492L91.3002 4.37L90.9092 4.506L90.8412 4.591L90.7902 4.608C90.5862 4.778 90.4446 4.91967 90.3652 5.033L90.2462 5.441L90.1782 5.594L90.3482 5.832L90.0592 6.053L90.0932 6.121C89.9686 6.33633 89.9062 6.546 89.9062 6.75L89.7702 6.92V7.226L89.6342 7.379L89.6002 7.532L89.5492 7.566V7.804L89.4982 7.889C89.4982 8.025 89.4869 8.13267 89.4642 8.212L89.4982 8.297L89.3452 8.62L89.4132 8.722L89.2942 8.892L89.4132 9.215L89.2262 9.453L89.2602 9.776V9.827L89.3282 9.861L89.4132 9.844C89.4699 9.78733 89.5266 9.73633 89.5832 9.691L89.5492 9.555L89.7872 9.521L89.8382 9.402L90.8412 8.586L90.9432 8.552L91.0622 8.263C91.1302 8.24033 91.2266 8.195 91.3512 8.127L91.4532 7.855H91.5892L91.5382 7.566L91.7762 7.532C91.7989 7.48667 91.8329 7.43 91.8782 7.362C91.9349 7.294 91.9916 7.23167 92.0482 7.175L92.9152 6.019L93.0512 5.764L93.0342 5.696L93.1532 5.509L93.1872 5.322L93.3402 5.186L93.3572 4.999ZM108.249 10.031L108.538 10.184L108.555 10.269L108.521 10.541L108.538 10.575L108.606 10.592L108.368 10.898L108.249 11.119L108.3 11.102C108.3 11.2153 108.243 11.272 108.13 11.272C108.017 11.2833 107.909 11.2607 107.807 11.204L107.399 11.119V11.051H107.382L107.416 10.983C107.359 11.017 107.297 11.034 107.229 11.034H106.787C106.73 11.034 106.679 11.0113 106.634 10.966C106.611 10.966 106.589 10.966 106.566 10.966C106.543 10.9547 106.521 10.949 106.498 10.949L106.396 11.068L105.988 10.949L105.903 11.034H105.665L105.291 10.966L104.73 11.051L104.424 10.949L103.761 11.051C103.704 11.0623 103.602 11.0963 103.455 11.153C103.319 11.2097 103.194 11.238 103.081 11.238C103.002 11.238 102.934 11.2097 102.877 11.153C102.843 11.153 102.815 11.1473 102.792 11.136C102.769 11.136 102.747 11.136 102.724 11.136C102.656 11.136 102.599 11.17 102.554 11.238C102.35 11.238 102.129 11.272 101.891 11.34L101.619 11.306L101.466 11.34L101.211 11.289L101.109 11.34H100.854L100.684 11.425L100.429 11.374L99.987 11.612L99.902 11.459L99.8 11.527L99.562 11.459L99.409 11.578L99.086 11.51L99.12 11.544C99.0633 11.5327 99.018 11.527 98.984 11.527C98.9613 11.527 98.9443 11.527 98.933 11.527C98.8196 11.527 98.746 11.5667 98.712 11.646L98.44 11.629L98.236 11.731C98.202 11.7423 98.151 11.748 98.083 11.748C97.811 11.748 97.6693 11.629 97.658 11.391C97.6466 11.3003 97.624 11.2153 97.59 11.136C97.556 11.068 97.5503 10.9887 97.573 10.898L97.42 10.558L97.777 10.303L97.828 10.184V9.997C97.8393 9.963 97.8393 9.94033 97.828 9.929C97.828 9.90633 97.8336 9.88367 97.845 9.861L97.828 9.555C97.8166 9.44167 97.828 9.33967 97.862 9.249C97.8393 9.215 97.828 9.18667 97.828 9.164C97.828 9.14133 97.8223 9.11867 97.811 9.096C97.7996 9.07333 97.794 9.05067 97.794 9.028C97.794 8.96 97.8166 8.86367 97.862 8.739L97.709 8.467L97.828 7.974L97.692 7.396L97.828 7.294L97.811 6.75L97.896 6.461L97.947 6.036L97.862 5.56L97.981 5.339L98.015 5.22L97.947 4.693L98.066 4.591L97.913 4.489L98.066 3.962L98.1 3.945L97.981 3.724L98.304 3.588C98.372 3.52 98.457 3.469 98.559 3.435C98.6723 3.401 98.7573 3.37833 98.814 3.367L99.188 3.435L99.579 4.115L99.392 4.285C99.4146 4.319 99.4316 4.353 99.443 4.387C99.4656 4.421 99.477 4.46067 99.477 4.506L99.341 4.948L99.392 5.441L99.256 5.883L99.239 6.308L99.086 6.733L99.103 6.852C99.103 6.90867 99.103 6.95967 99.103 7.005C99.103 7.05033 99.0916 7.09 99.069 7.124L99.052 7.328L99.035 7.583L99.103 7.923L99.069 8.042L99.086 8.484L98.916 8.79L98.899 9.011L98.95 9.181L99.001 9.572V9.963L98.967 10.269C99.0463 10.1897 99.1596 10.15 99.307 10.15H99.63L99.885 10.201H100.242L100.463 10.167H100.786C100.854 10.167 100.922 10.1557 100.99 10.133C101.058 10.099 101.098 10.082 101.109 10.082H101.194C101.217 10.0933 101.239 10.099 101.262 10.099C101.319 10.099 101.404 10.0707 101.517 10.014L101.738 10.065C101.817 10.065 101.891 10.0593 101.959 10.048C102.027 10.0367 102.106 10.0027 102.197 9.946L102.316 9.963C102.339 9.87233 102.356 9.76467 102.367 9.64C102.39 9.51533 102.401 9.419 102.401 9.351L102.52 9.198L102.435 9.096L102.486 8.79L102.435 8.688C102.435 8.63133 102.429 8.586 102.418 8.552C102.407 8.518 102.407 8.484 102.418 8.45C102.418 8.37067 102.429 8.30833 102.452 8.263V8.144L102.418 7.685L102.469 7.634V6.92L102.588 6.24L102.52 5.951L102.588 5.866L102.503 5.832L102.605 5.543V5.441L102.503 5.424L102.571 5.101C102.514 5.04433 102.52 4.999 102.588 4.965C102.656 4.91967 102.679 4.83467 102.656 4.71L102.554 4.54L102.724 4.115L102.758 4.132L102.843 3.911L102.792 3.996V3.605H103.013L103.064 3.469L103.421 3.367C103.534 3.37833 103.648 3.39533 103.761 3.418C103.874 3.44067 103.959 3.46333 104.016 3.486C104.152 3.622 104.22 3.78067 104.22 3.962V4.03L104.186 4.047L104.084 4.472V4.795L104.135 4.846L104.016 5.169L104.033 5.424L103.914 5.696L103.795 6.002C103.818 6.036 103.829 6.09833 103.829 6.189C103.829 6.223 103.823 6.257 103.812 6.291C103.812 6.325 103.801 6.36467 103.778 6.41L103.897 6.597H103.727V6.631L103.795 6.835L103.71 7.073H103.659L103.591 7.362H103.693L103.642 7.651L103.727 7.906L103.642 8.11V8.552L103.591 8.739C103.67 8.82967 103.71 8.92033 103.71 9.011C103.71 9.06767 103.687 9.13 103.642 9.198C103.608 9.266 103.585 9.31133 103.574 9.334C103.608 9.368 103.648 9.402 103.693 9.436C103.727 9.47 103.767 9.504 103.812 9.538C103.857 9.572 103.897 9.61733 103.931 9.674L103.761 9.827L103.88 9.895L103.931 9.844L104.203 9.912L104.373 9.844L104.662 9.895L104.832 9.844L105.24 9.895L105.461 9.844L105.852 9.895L106.175 9.929C106.198 9.91767 106.243 9.912 106.311 9.912C106.39 9.912 106.475 9.929 106.566 9.963L106.804 10.014L107.042 10.15H107.144L107.195 10.014C107.172 9.99133 107.155 9.95733 107.144 9.912C107.144 9.86667 107.133 9.81567 107.11 9.759C107.121 9.70233 107.11 9.64567 107.076 9.589C107.053 9.521 107.031 9.44167 107.008 9.351L107.127 9.096L107.144 8.807L107.076 8.467L107.212 8.229L107.144 7.804L107.178 7.464L107.127 7.141L107.212 6.767L107.195 6.682V6.58C107.195 6.55733 107.189 6.54033 107.178 6.529C107.178 6.50633 107.189 6.48367 107.212 6.461V6.359L107.161 6.002L107.263 5.543L107.229 5.101L107.28 4.897L107.144 4.608L107.348 4.489V4.217L107.501 3.809L107.637 3.231C107.932 3.231 108.158 3.31033 108.317 3.469C108.476 3.62767 108.555 3.89967 108.555 4.285V4.387L108.419 4.557L108.555 4.829L108.47 5.22L108.555 5.577V5.662C108.555 5.696 108.549 5.73 108.538 5.764C108.527 5.78667 108.515 5.815 108.504 5.849L108.436 5.951L108.538 6.087L108.419 6.342L108.538 6.529L108.419 7.039L108.47 7.175L108.453 7.532L108.47 7.668C108.459 7.72467 108.453 7.83233 108.453 7.991C108.464 8.14967 108.47 8.263 108.47 8.331C108.47 8.399 108.453 8.484 108.419 8.586C108.385 8.67667 108.385 8.78433 108.419 8.909L108.3 9.317L108.266 9.504L108.368 9.844L108.249 10.031ZM119.06 3.282L118.958 3.571L119.111 3.894L118.924 4.047L118.856 4.404L118.737 4.523L118.652 4.897H118.601C118.567 5.05567 118.47 5.18033 118.312 5.271L118.159 5.815L118.006 6.053C118.017 6.09833 118.023 6.172 118.023 6.274L117.751 6.512L117.36 7.413L116.901 7.94V8.11C116.901 8.26867 116.81 8.40467 116.629 8.518L116.595 8.824L116.476 8.892L116.272 9.164L116.221 9.351L116.068 9.436C116.068 9.45867 116.068 9.487 116.068 9.521C116.079 9.555 116.09 9.60033 116.102 9.657L115.915 9.81L115.609 9.997L115.507 10.167L115.167 10.524C114.906 10.9547 114.651 11.2323 114.402 11.357L113.994 11.952L113.671 12.088L113.552 12.275H113.467L113.348 12.377L113.28 12.598L112.991 12.717L112.906 12.87L112.532 13.04H112.464C112.226 13.3347 112.09 13.4877 112.056 13.499C112.033 13.5103 111.999 13.5217 111.954 13.533C111.908 13.5443 111.84 13.5557 111.75 13.567C111.693 13.6577 111.619 13.7087 111.529 13.72L111.512 13.754L111.189 14.06L111.002 14.043L110.9 14.179L110.611 14.247L110.22 14.434L109.557 14.451L108.979 14.23L109.013 13.975C109.024 13.8277 109.115 13.737 109.285 13.703C109.341 13.6803 109.415 13.6407 109.506 13.584C109.596 13.5387 109.704 13.4763 109.829 13.397L110.067 13.414L110.203 13.21C110.259 13.21 110.305 13.2383 110.339 13.295C110.463 13.1023 110.611 13.006 110.781 13.006H110.832C110.968 12.87 111.104 12.785 111.24 12.751C111.33 12.6377 111.478 12.547 111.682 12.479L111.716 12.462L111.801 12.564L111.835 12.241L112.175 12.02L112.362 11.816C112.441 11.7027 112.503 11.646 112.549 11.646C112.571 11.6687 112.583 11.6857 112.583 11.697L112.685 11.51L113.076 11.119C113.087 11.0963 113.115 11.0623 113.161 11.017L112.498 10.252L112.464 10.048L112.362 9.98L112.345 9.572L112.158 9.385V8.96L111.716 7.974L111.75 7.804L111.614 7.566L111.58 7.379L111.495 7.26L111.376 6.954L111.07 6.716L110.934 6.155L110.696 5.951L110.662 5.696C110.39 5.61667 110.254 5.38433 110.254 4.999C110.254 4.67033 110.497 4.41533 110.985 4.234C111.608 4.65333 111.976 5.07267 112.09 5.492L112.141 5.883C112.163 5.87167 112.192 5.86033 112.226 5.849C112.271 5.83767 112.322 5.82633 112.379 5.815V5.968L112.651 6.172L112.549 6.444L112.583 6.648L112.736 7.056L112.821 7.141L112.838 7.294L112.974 7.362V7.651L113.161 8.314L113.195 8.569L113.467 9.113L113.688 9.776L113.943 10.048H113.977C114.022 10.048 114.062 10.0027 114.096 9.912L114.232 9.861L114.181 9.725C114.215 9.657 114.254 9.623 114.3 9.623C114.322 9.623 114.356 9.60033 114.402 9.555C114.447 9.49833 114.481 9.48133 114.504 9.504L114.521 9.232C114.543 9.232 114.583 9.198 114.64 9.13C114.696 9.062 114.77 8.99967 114.861 8.943L115.082 8.62L115.218 8.28L115.388 8.144L115.49 7.923L115.558 7.872L115.524 7.651L115.711 7.566L115.745 7.481C115.745 7.447 115.773 7.38467 115.83 7.294L115.949 6.988L116.034 7.09L116.102 7.056V7.005C116.102 6.85767 116.164 6.733 116.289 6.631V6.597L116.408 6.376L116.493 6.002L116.612 5.968L116.833 5.441L116.986 5.237C117.02 5.067 117.099 4.93667 117.224 4.846L117.377 4.37L117.496 4.217V3.86H117.581C117.649 3.81467 117.711 3.75233 117.768 3.673C117.824 3.59367 117.875 3.52 117.921 3.452C117.966 3.37267 118.006 3.30467 118.04 3.248C118.074 3.18 118.102 3.13467 118.125 3.112L118.21 3.061L118.686 2.772L119.06 3.282ZM124.613 4.676L124.732 4.081C124.778 4.00167 124.851 3.92233 124.953 3.843C125.055 3.76367 125.203 3.724 125.395 3.724L125.667 3.928L126.126 3.843L126.483 3.962C126.585 3.93933 126.682 3.945 126.772 3.979C126.863 4.013 126.954 4.03 127.044 4.03C127.192 4.03 127.282 4.03567 127.316 4.047L127.367 3.826L127.809 3.911C127.911 3.92233 127.996 3.93367 128.064 3.945C128.132 3.945 128.189 3.945 128.234 3.945C128.404 3.945 128.608 3.90533 128.846 3.826H128.914L129.305 3.656L129.577 3.843L130.002 3.758L130.053 3.792L130.121 3.758L130.461 3.775L130.495 3.639L130.971 3.826L131.345 3.792L131.362 3.741L131.838 3.826L132.042 3.945L132.297 3.877C132.445 3.86567 132.558 3.89967 132.637 3.979C132.728 4.05833 132.773 4.13767 132.773 4.217L132.722 4.829L132.637 4.931L132.773 5.186V5.339L132.858 5.543L132.722 5.764L132.773 5.934L132.688 6.495V6.58L132.603 6.835L132.501 6.988L132.62 7.124C132.609 7.13533 132.603 7.158 132.603 7.192C132.603 7.226 132.598 7.27133 132.586 7.328C132.575 7.38467 132.581 7.41867 132.603 7.43L132.467 7.838C132.513 7.89467 132.535 7.94567 132.535 7.991C132.535 8.04767 132.518 8.11 132.484 8.178L132.433 8.263L132.501 8.297C132.501 8.42167 132.456 8.54067 132.365 8.654C132.445 8.79 132.49 8.88633 132.501 8.943L132.348 9.028L132.365 9.47L132.212 10.099L132.195 10.218C132.207 10.2747 132.212 10.32 132.212 10.354C132.224 10.3767 132.229 10.3993 132.229 10.422V10.49L132.297 10.609L132.314 10.83C132.303 10.8527 132.292 10.881 132.28 10.915C132.269 10.9377 132.252 10.9717 132.229 11.017C132.207 11.3003 131.929 11.442 131.396 11.442L131.362 11.187L131.226 11.034L131.124 10.796V10.388L131.005 10.116L131.056 10.099L131.005 9.912V9.606L131.056 9.13L131.022 8.688L131.124 8.45V8.178C131.124 8.12133 131.136 8.042 131.158 7.94C131.192 7.838 131.209 7.75867 131.209 7.702L131.107 7.481L131.141 7.158L131.107 6.937L131.277 6.801C131.243 6.733 131.226 6.67633 131.226 6.631V6.597L131.141 6.359L131.226 6.189L131.107 5.679L131.226 5.475L131.362 4.965L130.665 5.016L130.376 4.982L129.917 5.033L129.781 4.982C129.747 4.99333 129.685 4.999 129.594 4.999C129.572 4.999 129.504 4.98767 129.39 4.965L129.356 4.948H129.101C129.09 4.948 128.999 4.95367 128.829 4.965C128.671 4.97633 128.506 4.982 128.336 4.982L128.064 5.152L127.809 4.999L127.554 4.982L127.469 4.965C127.356 4.98767 127.282 4.999 127.248 4.999H127.163L126.432 5.084L126.058 4.948L126.075 5.084C126.087 5.152 126.098 5.22 126.109 5.288C126.121 5.356 126.126 5.424 126.126 5.492C126.126 5.74133 126.087 5.968 126.007 6.172L126.16 6.41L125.99 6.58V6.733L126.041 6.835C126.041 6.971 125.996 7.09567 125.905 7.209C125.973 7.32233 126.019 7.413 126.041 7.481L125.871 7.668V8.229L125.82 8.501L125.905 8.739L125.769 8.926L125.888 9.096L125.769 9.623L125.837 9.793L125.803 10.082L125.786 10.269L125.718 10.388L125.752 10.524C125.73 10.694 125.588 10.779 125.327 10.779C124.863 10.779 124.63 10.4843 124.63 9.895L124.562 9.725L124.477 9.589C124.477 9.49833 124.511 9.40767 124.579 9.317L124.613 9.113L124.562 8.977L124.477 8.025V7.77L124.443 7.736L124.511 7.481L124.545 7.141L124.528 6.801C124.585 6.65367 124.613 6.48933 124.613 6.308C124.613 6.12667 124.585 5.968 124.528 5.832L124.63 5.866L124.613 5.696L124.715 5.441L124.613 4.999V4.676ZM140.282 9.606C140.282 9.742 140.18 9.912 139.976 10.116C139.919 10.2973 139.834 10.4447 139.721 10.558L139.619 10.575L139.432 10.898L139.126 10.949L138.803 11.153L138.633 11.459L138.446 11.425C138.321 11.4817 138.219 11.5157 138.14 11.527L138.038 11.68C138.004 11.6687 137.953 11.663 137.885 11.663C137.738 11.663 137.596 11.765 137.46 11.969L137.222 11.765C137.177 11.7763 137.109 11.782 137.018 11.782C136.871 11.782 136.746 11.7593 136.644 11.714H136.355L136.219 11.629C135.788 11.561 135.516 11.3967 135.403 11.136V11.085L135.199 10.983L135.097 10.694L134.893 10.558V10.303L134.689 9.555L134.723 8.943L134.791 8.671V8.314L134.876 8.042L134.859 7.923L134.978 7.719L134.944 7.753C134.944 7.651 134.972 7.54333 135.029 7.43V7.345L134.978 6.937C134.978 6.74433 135.063 6.57433 135.233 6.427C135.244 6.40433 135.25 6.37033 135.25 6.325C135.25 6.27967 135.227 6.189 135.182 6.053C135.148 5.90567 135.131 5.80367 135.131 5.747C135.131 5.611 135.165 5.46933 135.233 5.322C135.324 5.458 135.454 5.526 135.624 5.526H135.675C135.698 5.48067 135.749 5.42967 135.828 5.373C135.919 5.08967 136.043 4.85167 136.202 4.659L136.27 4.591C136.27 4.54567 136.304 4.41533 136.372 4.2H136.508L136.542 4.115L136.678 4.081C136.735 3.99033 136.769 3.93933 136.78 3.928C136.803 3.90533 136.927 3.83167 137.154 3.707C137.199 3.62767 137.267 3.554 137.358 3.486C137.403 3.46333 137.46 3.44067 137.528 3.418L137.596 3.316C137.902 3.214 138.095 3.163 138.174 3.163C138.265 3.163 138.35 3.18567 138.429 3.231L138.514 3.214L138.633 3.282C138.769 3.384 138.905 3.469 139.041 3.537L139.33 3.758V3.826C139.591 4.03 139.721 4.319 139.721 4.693L139.67 4.863L139.721 5.424L139.568 5.526L139.398 5.968L139.075 6.325L139.058 6.597C138.695 6.85767 138.361 7.06733 138.055 7.226C137.953 7.38467 137.794 7.464 137.579 7.464H137.528L137.205 7.668H136.933L136.525 7.838L136.219 7.685H136.185C136.162 7.77567 136.14 7.91167 136.117 8.093L135.981 8.195L135.964 8.399L135.862 8.688C135.896 8.96 135.913 9.13567 135.913 9.215L135.845 9.266C135.845 9.41333 135.839 9.521 135.828 9.589C135.828 9.60033 135.822 9.61733 135.811 9.64C135.811 9.66267 135.811 9.67967 135.811 9.691C135.811 9.78167 135.856 9.85533 135.947 9.912C135.981 10.048 136.038 10.133 136.117 10.167L136.236 10.269L136.61 10.371V10.422L136.746 10.456L137.324 10.49L137.664 10.439L137.834 10.32L137.936 10.286L138.106 10.031L138.191 10.014L138.616 9.878C138.661 9.79867 138.735 9.73067 138.837 9.674L138.888 9.589C139.115 9.54367 139.245 9.42467 139.279 9.232C139.438 9.07333 139.642 8.994 139.891 8.994H139.959C140.174 9.24333 140.282 9.44733 140.282 9.606ZM138.599 4.71C138.599 4.676 138.582 4.608 138.548 4.506L138.463 4.489L138.429 4.506C138.418 4.506 138.395 4.506 138.361 4.506C138.338 4.51733 138.316 4.523 138.293 4.523C138.282 4.523 138.265 4.51733 138.242 4.506C138.219 4.506 138.202 4.506 138.191 4.506L138.021 4.625L137.868 4.642L137.783 4.676L137.494 5.05L137.307 5.186L137.035 5.662L136.882 5.764C136.848 5.95667 136.769 6.121 136.644 6.257L136.576 6.376C136.701 6.29667 136.842 6.257 137.001 6.257L137.12 6.206L137.171 6.053L137.409 6.07L137.545 5.866H137.647L137.834 5.934L137.919 5.679H138.038V5.492L138.259 5.441L138.31 5.39L138.344 5.237L138.565 4.914C138.588 4.85733 138.599 4.78933 138.599 4.71ZM147.852 8.484L147.648 8.994L147.784 9.334L147.716 9.436L147.648 9.708L147.512 9.946L147.444 9.98L147.41 10.303L147.104 10.337C146.945 10.4843 146.781 10.6033 146.611 10.694L146.509 10.677L146.254 10.762L146.101 10.779L145.778 10.898L145.404 10.728L145.353 10.694L145.064 10.711L145.132 10.745L144.656 10.677L144.231 10.779L144.061 10.626L143.704 10.66L143.568 10.558C143.557 10.558 143.511 10.5637 143.432 10.575V10.677C143.432 10.779 143.415 10.881 143.381 10.983L143.432 11.306L143.296 11.476C143.319 11.7253 143.33 11.9123 143.33 12.037L143.279 12.462L143.347 13.108L143.211 13.278L143.279 13.533L143.228 13.703L143.33 13.754V14.009C143.353 14.077 143.364 14.128 143.364 14.162C143.364 14.264 143.302 14.349 143.177 14.417L143.245 14.655L143.16 14.791L143.126 15.471C143.092 16.2643 142.916 16.661 142.599 16.661C142.531 16.661 142.333 16.6157 142.004 16.525L142.055 16.015L141.953 15.267L142.123 14.961L142.14 14.587L142.072 14.077L142.208 13.856L142.055 13.465L142.174 13.261L142.072 12.921L142.208 12.615C142.185 12.547 142.14 12.4847 142.072 12.428C142.015 12.3713 141.987 12.3317 141.987 12.309C141.987 12.275 142.027 12.241 142.106 12.207C142.095 12.173 142.089 12.1163 142.089 12.037C142.089 11.8897 142.123 11.697 142.191 11.459L142.089 11.289L142.14 11.068L142.021 10.915L142.174 10.728L142.106 10.235L142.208 9.538L142.089 9.317L142.276 8.994L142.072 8.807L142.191 8.484L142.072 8.399L142.089 8.11L142.191 7.753V7.685L142.208 7.617V7.43L142.225 7.362L142.14 7.09L142.225 6.801L142.14 6.58L142.208 6.325L142.14 6.257L142.191 5.917L142.14 5.73L142.174 5.56L142.123 5.441L141.511 5.713V5.611L141.392 5.628L141.205 5.798H141.052L140.848 6.07L140.678 6.002L140.593 6.172C140.038 5.84333 139.76 5.58267 139.76 5.39C139.76 5.254 139.811 5.14067 139.913 5.05L139.896 4.795C140.213 4.61367 140.514 4.51733 140.797 4.506L140.916 4.387L141.46 4.166L141.579 4.047L142.055 4.081L142.14 4.047L142.293 3.452L142.701 3.537L142.973 3.979L143.126 3.826L143.432 4.047C143.579 4.047 143.721 4.07533 143.857 4.132L143.942 4.285L144.061 4.234L144.197 4.336C144.276 4.336 144.339 4.34167 144.384 4.353L144.367 4.455L144.741 4.336L144.928 4.54L145.251 4.642L145.472 4.914L145.88 5.169L145.897 5.203L146.22 5.305V5.407C146.311 5.475 146.379 5.56567 146.424 5.679L146.56 5.764L146.662 5.951H146.866V6.291L146.985 6.41L147.019 6.529L147.189 6.563C147.212 6.82367 147.285 7.04467 147.41 7.226V7.345L147.58 7.515L147.546 7.787L147.682 8.093L147.733 8.45L147.852 8.484ZM146.577 8.739L146.56 8.654L146.577 8.586L146.475 8.28L146.543 8.127L146.475 7.991L146.458 7.821L146.322 7.549L146.254 7.362L145.999 6.92L145.795 6.75L145.676 6.461L145.523 6.393L145.251 6.036L144.979 6.07L144.775 5.798L144.605 5.832L144.486 5.611L144.418 5.594H144.18L144.01 5.679L143.874 5.543L143.704 5.577L143.636 5.458L143.33 5.407L143.347 5.611L143.313 5.934L143.381 6.121L143.619 6.342L143.432 6.75L143.449 7.005L143.364 7.515C143.398 7.73033 143.466 7.91167 143.568 8.059L143.5 8.246C143.511 8.25733 143.517 8.26867 143.517 8.28C143.517 8.314 143.472 8.365 143.381 8.433L143.5 8.586L143.415 8.79L143.381 9.011L143.432 9.249L143.415 9.47H143.772C143.817 9.44733 143.88 9.436 143.959 9.436C144.061 9.436 144.152 9.47 144.231 9.538C144.242 9.538 144.265 9.53233 144.299 9.521C144.322 9.521 144.339 9.521 144.35 9.521C144.384 9.521 144.446 9.53233 144.537 9.555C144.605 9.521 144.667 9.504 144.724 9.504C144.815 9.504 144.9 9.52667 144.979 9.572H145.132L145.268 9.606L145.608 9.504L145.88 9.674C145.982 9.708 146.022 9.725 145.999 9.725L146.322 9.402L146.356 9.164L146.441 9.13L146.39 8.994L146.509 8.858L146.577 8.739ZM151.73 9.334L151.764 9.521L151.645 9.776L151.662 9.861L151.713 9.878L151.747 10.116L152.087 10.167L152.427 10.048L152.733 10.031C152.801 10.0763 152.846 10.1047 152.869 10.116C152.903 10.116 152.942 10.1103 152.988 10.099L153.26 9.963L153.685 9.98L154.127 9.844L154.501 9.691L154.722 9.708L154.926 9.538L155.113 9.504C155.181 9.504 155.26 9.49833 155.351 9.487C155.441 9.46433 155.532 9.44167 155.623 9.419C155.713 9.39633 155.798 9.368 155.878 9.334C155.957 9.28867 156.019 9.23767 156.065 9.181L156.201 9.011L156.541 8.909L156.643 8.722L156.728 8.637L156.677 8.603L156.422 8.569L156.371 8.484H156.286L155.929 8.331L155.64 8.365L155.504 8.246L155.181 8.28C155.113 8.212 155.045 8.17233 154.977 8.161C154.886 8.21767 154.801 8.246 154.722 8.246C154.665 8.23467 154.58 8.20067 154.467 8.144C154.376 8.144 154.308 8.144 154.263 8.144C154.229 8.13267 154.161 8.12133 154.059 8.11L153.872 8.093C153.781 8.07033 153.702 8.07033 153.634 8.093C153.577 8.11567 153.515 8.127 153.447 8.127C153.413 8.127 153.367 8.12133 153.311 8.11C153.265 8.08733 153.214 8.08167 153.158 8.093L152.818 8.127L152.58 7.957L152.563 8.059L152.053 8.042L151.883 7.974C151.701 7.974 151.611 8.059 151.611 8.229V8.399V8.535L151.696 8.586L151.611 8.824L151.645 8.926L151.611 9.147L151.73 9.334ZM158.139 8.943L157.867 9.181L157.799 9.385L157.612 9.419L157.408 9.725L157.051 9.793L156.745 10.014L156.626 10.065L156.388 10.32L155.997 10.286L155.827 10.422L155.606 10.388C155.504 10.456 155.419 10.5183 155.351 10.575C155.283 10.6317 155.181 10.6713 155.045 10.694L154.926 10.626L154.484 10.949L154.314 10.864L154.195 10.932L153.923 10.864L153.821 10.932L153.532 10.966L153.311 10.915L153.039 11.153L152.716 11.119V11.136C152.704 11.1473 152.642 11.17 152.529 11.204L152.444 11.102C152.296 11.2153 152.126 11.272 151.934 11.272H151.849C151.815 11.2607 151.786 11.255 151.764 11.255L151.509 11.527L151.22 11.612L150.965 11.476L150.778 11.323L150.642 11.17L150.54 11.085C150.54 11.0623 150.54 11.0227 150.54 10.966C150.54 10.9093 150.489 10.7507 150.387 10.49L150.404 10.201L150.37 9.861L150.455 9.606L150.404 9.266L150.523 9.028L150.455 8.824L150.506 8.484L150.387 8.11L150.37 8.059C150.03 7.87767 149.837 7.71333 149.792 7.566C149.814 7.44133 149.865 7.362 149.945 7.328C150.024 7.28267 150.126 7.22033 150.251 7.141L150.421 7.039L150.319 6.75L150.438 6.699L150.37 6.461L150.421 6.24L150.336 6.002L150.37 5.883L150.353 5.679L150.166 5.305L150.2 5.152L150.115 5.084L150.149 4.88L150.064 4.761L149.962 4.54L149.945 4.523L149.775 4.659L149.605 4.557L149.435 4.659L149.384 4.591L149.112 4.761L148.959 4.523L148.653 4.71C148.131 4.41533 147.871 4.149 147.871 3.911C147.871 3.707 147.978 3.588 148.194 3.554C148.307 3.384 148.46 3.299 148.653 3.299H148.704L148.874 3.367H148.908C149.134 3.367 149.333 3.37267 149.503 3.384C149.673 3.384 149.809 3.39533 149.911 3.418C150.001 3.39533 150.081 3.384 150.149 3.384C150.228 3.37267 150.302 3.367 150.37 3.367L150.455 3.418L150.557 3.384L150.999 3.554L151.39 3.656C151.424 3.64467 151.503 3.639 151.628 3.639C151.696 3.639 151.752 3.64467 151.798 3.656C151.843 3.656 151.883 3.66167 151.917 3.673L152.087 3.639C152.234 3.65033 152.376 3.69567 152.512 3.775L152.631 3.843C152.812 3.88833 152.954 3.911 153.056 3.911L153.43 3.843L153.498 3.928C153.634 3.928 153.753 3.98467 153.855 4.098H154.314L154.501 4.285C154.569 4.30767 154.631 4.32467 154.688 4.336C154.744 4.34733 154.795 4.353 154.841 4.353L155.147 4.455L155.283 4.574H155.64L155.725 4.795L156.048 4.999L156.167 5.475L155.912 5.934C155.787 6.05867 155.674 6.155 155.572 6.223C155.47 6.291 155.356 6.342 155.232 6.376L154.977 6.529L154.858 6.495L154.552 6.75H154.365L153.923 6.937L153.617 6.971C153.503 7.01633 153.413 7.056 153.345 7.09C153.288 7.11267 153.226 7.13533 153.158 7.158C153.101 7.18067 153.033 7.20333 152.954 7.226C152.886 7.24867 152.784 7.28267 152.648 7.328V7.362C152.67 7.362 152.733 7.35633 152.835 7.345C152.937 7.33367 153.044 7.32233 153.158 7.311C153.282 7.29967 153.396 7.28833 153.498 7.277C153.6 7.26567 153.668 7.26 153.702 7.26C153.826 7.23733 153.957 7.21467 154.093 7.192C154.229 7.16933 154.319 7.18633 154.365 7.243C154.455 7.19767 154.535 7.175 154.603 7.175C154.795 7.23167 154.914 7.26 154.96 7.26C155.005 7.26 155.05 7.26 155.096 7.26C155.141 7.26 155.198 7.24867 155.266 7.226C155.334 7.26 155.43 7.28267 155.555 7.294C155.679 7.294 155.838 7.294 156.031 7.294L156.167 7.379C156.303 7.40167 156.427 7.41867 156.541 7.43C156.654 7.43 156.756 7.45267 156.847 7.498H157.102C157.158 7.55467 157.243 7.59433 157.357 7.617C157.481 7.63967 157.578 7.67933 157.646 7.736C157.68 7.75867 157.725 7.79267 157.782 7.838C157.85 7.872 157.929 7.93433 158.02 8.025C158.178 8.161 158.258 8.30267 158.258 8.45L158.241 8.637L158.139 8.943ZM154.858 5.339H154.688L154.535 5.254L154.314 5.203L154.144 5.322L153.821 5.084L153.566 5.016L153.464 5.067L153.328 4.914H153.26C153.146 4.914 152.971 4.897 152.733 4.863L152.376 4.914L152.189 4.744L152.019 4.778L151.968 4.761L151.866 4.829L151.577 4.727L151.509 4.761V5.135L151.611 5.424L151.526 5.662L151.611 5.849L151.594 6.172L151.679 6.427L151.577 6.682L151.628 6.852L151.866 6.835C151.888 6.82367 151.922 6.81233 151.968 6.801C152.013 6.77833 152.058 6.73867 152.104 6.682L152.172 6.648L152.274 6.716L152.325 6.597L152.75 6.376C152.908 6.33067 153.016 6.30233 153.073 6.291C153.141 6.27967 153.197 6.24567 153.243 6.189L153.481 6.121L153.566 6.104C153.713 6.01333 153.883 5.95667 154.076 5.934L154.144 5.883C154.166 5.883 154.212 5.86033 154.28 5.815L154.535 5.679H154.569C154.625 5.63367 154.682 5.594 154.739 5.56C154.807 5.51467 154.88 5.48067 154.96 5.458L154.858 5.339ZM167.794 3.282L167.692 3.571L167.845 3.894L167.658 4.047L167.59 4.404L167.471 4.523L167.386 4.897H167.335C167.301 5.05567 167.204 5.18033 167.046 5.271L166.893 5.815L166.74 6.053C166.751 6.09833 166.757 6.172 166.757 6.274L166.485 6.512L166.094 7.413L165.635 7.94V8.11C165.635 8.26867 165.544 8.40467 165.363 8.518L165.329 8.824L165.21 8.892L165.006 9.164L164.955 9.351L164.802 9.436C164.802 9.45867 164.802 9.487 164.802 9.521C164.813 9.555 164.824 9.60033 164.836 9.657L164.649 9.81L164.343 9.997L164.241 10.167L163.901 10.524C163.64 10.9547 163.385 11.2323 163.136 11.357L162.728 11.952L162.405 12.088L162.286 12.275H162.201L162.082 12.377L162.014 12.598L161.725 12.717L161.64 12.87L161.266 13.04H161.198C160.96 13.3347 160.824 13.4877 160.79 13.499C160.767 13.5103 160.733 13.5217 160.688 13.533C160.642 13.5443 160.574 13.5557 160.484 13.567C160.427 13.6577 160.353 13.7087 160.263 13.72L160.246 13.754L159.923 14.06L159.736 14.043L159.634 14.179L159.345 14.247L158.954 14.434L158.29 14.451L157.712 14.23L157.746 13.975C157.758 13.8277 157.848 13.737 158.018 13.703C158.075 13.6803 158.149 13.6407 158.239 13.584C158.33 13.5387 158.438 13.4763 158.562 13.397L158.801 13.414L158.937 13.21C158.993 13.21 159.039 13.2383 159.073 13.295C159.197 13.1023 159.345 13.006 159.515 13.006H159.566C159.702 12.87 159.838 12.785 159.974 12.751C160.064 12.6377 160.212 12.547 160.416 12.479L160.45 12.462L160.535 12.564L160.569 12.241L160.909 12.02L161.096 11.816C161.175 11.7027 161.237 11.646 161.283 11.646C161.305 11.6687 161.317 11.6857 161.317 11.697L161.419 11.51L161.81 11.119C161.821 11.0963 161.849 11.0623 161.895 11.017L161.232 10.252L161.198 10.048L161.096 9.98L161.079 9.572L160.892 9.385V8.96L160.45 7.974L160.484 7.804L160.348 7.566L160.314 7.379L160.229 7.26L160.11 6.954L159.804 6.716L159.668 6.155L159.43 5.951L159.396 5.696C159.124 5.61667 158.988 5.38433 158.988 4.999C158.988 4.67033 159.231 4.41533 159.719 4.234C160.342 4.65333 160.71 5.07267 160.824 5.492L160.875 5.883C160.897 5.87167 160.926 5.86033 160.96 5.849C161.005 5.83767 161.056 5.82633 161.113 5.815V5.968L161.385 6.172L161.283 6.444L161.317 6.648L161.47 7.056L161.555 7.141L161.572 7.294L161.708 7.362V7.651L161.895 8.314L161.929 8.569L162.201 9.113L162.422 9.776L162.677 10.048H162.711C162.756 10.048 162.796 10.0027 162.83 9.912L162.966 9.861L162.915 9.725C162.949 9.657 162.988 9.623 163.034 9.623C163.056 9.623 163.09 9.60033 163.136 9.555C163.181 9.49833 163.215 9.48133 163.238 9.504L163.255 9.232C163.277 9.232 163.317 9.198 163.374 9.13C163.43 9.062 163.504 8.99967 163.595 8.943L163.816 8.62L163.952 8.28L164.122 8.144L164.224 7.923L164.292 7.872L164.258 7.651L164.445 7.566L164.479 7.481C164.479 7.447 164.507 7.38467 164.564 7.294L164.683 6.988L164.768 7.09L164.836 7.056V7.005C164.836 6.85767 164.898 6.733 165.023 6.631V6.597L165.142 6.376L165.227 6.002L165.346 5.968L165.567 5.441L165.72 5.237C165.754 5.067 165.833 4.93667 165.958 4.846L166.111 4.37L166.23 4.217V3.86H166.315C166.383 3.81467 166.445 3.75233 166.502 3.673C166.558 3.59367 166.609 3.52 166.655 3.452C166.7 3.37267 166.74 3.30467 166.774 3.248C166.808 3.18 166.836 3.13467 166.859 3.112L166.944 3.061L167.42 2.772L167.794 3.282ZM172.544 7.362L172.221 7.498L171.949 7.311L171.541 7.396L171.49 7.362L171.422 7.396L171.082 7.379L171.031 7.515L170.572 7.328L170.147 7.379L170.13 7.651L170.079 8.212L170.147 8.45L170.011 8.705L170.13 8.943L169.994 9.504L170.062 9.725L170.011 10.133L170.164 10.473L170.096 10.626L170.113 10.83C170.102 11.0793 169.96 11.204 169.688 11.204C169.212 11.204 168.991 10.7847 169.025 9.946L168.787 9.657L168.702 9.453C168.702 9.37367 168.714 9.30567 168.736 9.249C168.759 9.19233 168.782 9.13567 168.804 9.079L168.855 8.79L168.804 8.62L168.736 8.059V7.532L168.702 7.481L168.362 7.294L168.345 6.631L168.821 6.359C168.844 6.26833 168.861 6.19467 168.872 6.138C168.895 6.08133 168.912 5.985 168.923 5.849C168.923 5.72433 168.912 5.65067 168.889 5.628C168.878 5.60533 168.861 5.54867 168.838 5.458L168.957 5.237L168.94 4.999L169.042 4.812L168.957 4.557V4.166L169.093 3.656L169.756 3.299L170.079 3.537L170.436 3.656L170.47 4.03L170.623 4.251L170.453 4.659C170.476 4.74967 170.487 4.82333 170.487 4.88C170.499 4.92533 170.499 4.98767 170.487 5.067C170.499 5.15767 170.493 5.24267 170.47 5.322C170.448 5.39 170.414 5.50333 170.368 5.662L170.521 5.815L170.351 6.053L170.334 6.257L170.487 6.308L170.895 6.257L171.184 6.291L171.643 6.24L171.779 6.291C171.813 6.27967 171.876 6.274 171.966 6.274C171.989 6.274 172.057 6.28533 172.17 6.308L172.204 6.325H172.459H172.527C172.584 6.325 172.635 6.31933 172.68 6.308L172.918 5.713L173.445 4.863L173.581 4.795L173.7 4.608L173.836 4.489L173.819 4.251L174.023 4.217C174.159 4.115 174.312 4.02433 174.482 3.945L174.567 3.86C174.613 3.83733 174.692 3.81467 174.805 3.792C174.919 3.76933 175.083 3.74667 175.298 3.724L175.689 3.656L176.148 3.571L176.42 3.554H176.811L176.896 3.571L176.947 3.588H177.015L177.1 3.554L177.219 3.571V3.656L177.423 3.571L177.508 3.469C177.554 3.54833 177.661 3.588 177.831 3.588L177.95 3.707L178.443 3.877L179.531 4.37L179.667 4.693L179.769 4.812L180.024 4.914C180.172 5.05 180.296 5.18033 180.398 5.305C180.512 5.42967 180.602 5.57133 180.67 5.73C180.75 5.87733 180.818 6.053 180.874 6.257C180.931 6.44967 180.988 6.68767 181.044 6.971L181.061 7.124L180.925 7.43L180.891 8.076L180.772 8.212C180.738 8.59733 180.608 8.841 180.381 8.943L180.279 8.994L179.446 9.606L179.344 9.742L178.953 10.201L178.681 10.167L178.545 10.286L178.256 10.371L177.899 10.762C177.877 10.7507 177.82 10.762 177.729 10.796C177.65 10.8187 177.582 10.8073 177.525 10.762C177.491 10.8187 177.446 10.8357 177.389 10.813C177.344 10.7903 177.287 10.7903 177.219 10.813H177.168L176.896 11.051L176.828 11.017H176.556L176.42 11.119L176.029 11.102L175.604 11.221H175.519C175.485 11.221 175.446 11.221 175.4 11.221C175.366 11.2323 175.321 11.238 175.264 11.238L174.856 11.187L174.771 11.119L174.193 11.034L173.938 10.915H173.598L173.581 10.762L173.292 10.473L172.918 10.303L172.731 9.861L172.68 9.521L172.595 9.419L172.544 8.773V8.195L172.476 7.685L172.561 7.6L172.544 7.362ZM179.854 7.226L179.752 6.852L179.82 6.733L179.701 6.495V6.342L179.429 6.189L179.344 5.968L179.208 5.934L179.157 5.747L178.817 5.424L178.596 5.271L178.511 5.305C178.398 5.21433 178.285 5.10667 178.171 4.982C178.058 4.846 177.86 4.74967 177.576 4.693C177.497 4.693 177.429 4.70433 177.372 4.727L177.134 4.659L176.998 4.727C176.93 4.70433 176.874 4.68733 176.828 4.676C176.794 4.66467 176.772 4.659 176.76 4.659C176.749 4.659 176.715 4.67033 176.658 4.693C176.602 4.70433 176.545 4.71 176.488 4.71C176.443 4.71 176.409 4.70433 176.386 4.693C176.352 4.74967 176.301 4.78367 176.233 4.795C176.165 4.795 176.075 4.81767 175.961 4.863L175.774 4.846L175.502 4.982L175.349 5.186C175.259 5.24267 175.151 5.28233 175.026 5.305C174.902 5.32767 174.783 5.373 174.669 5.441L174.618 5.526L174.567 5.832L174.261 5.968L174.142 6.053C174.12 6.09833 174.114 6.16633 174.125 6.257C174.148 6.34767 174.137 6.42133 174.091 6.478V6.699L173.904 6.784L173.87 6.818L173.836 7.226L173.751 7.447C173.763 7.685 173.757 7.87767 173.734 8.025C173.712 8.17233 173.729 8.31967 173.785 8.467C173.751 8.52367 173.746 8.586 173.768 8.654C173.802 8.71067 173.819 8.78433 173.819 8.875L173.768 9.028L173.819 9.113L173.87 9.317L174.057 9.487L174.091 9.674L174.227 9.81C174.363 9.88933 174.488 9.946 174.601 9.98C174.715 10.0027 174.822 10.0197 174.924 10.031L175.485 9.895L175.621 10.014H175.791L175.808 9.98L175.944 9.929L176.233 9.98C176.324 9.912 176.409 9.878 176.488 9.878C176.67 9.75333 176.845 9.691 177.015 9.691L177.287 9.623L177.508 9.606L177.797 9.47L177.882 9.368C177.905 9.35667 177.939 9.351 177.984 9.351C178.03 9.351 178.064 9.351 178.086 9.351L178.103 9.3C178.137 9.24333 178.177 9.20933 178.222 9.198C178.268 9.17533 178.319 9.15267 178.375 9.13L178.528 8.756L178.63 8.824L178.732 8.756L178.902 8.586L178.987 8.62L179.191 8.45L179.429 8.042L179.633 7.991L179.701 7.787L179.803 7.719L179.752 7.413L179.854 7.226ZM189.216 9.334L189.25 9.521L189.131 9.776L189.148 9.861L189.199 9.878L189.233 10.116L189.573 10.167L189.913 10.048L190.219 10.031C190.287 10.0763 190.332 10.1047 190.355 10.116C190.389 10.116 190.429 10.1103 190.474 10.099L190.746 9.963L191.171 9.98L191.613 9.844L191.987 9.691L192.208 9.708L192.412 9.538L192.599 9.504C192.667 9.504 192.746 9.49833 192.837 9.487C192.928 9.46433 193.018 9.44167 193.109 9.419C193.2 9.39633 193.285 9.368 193.364 9.334C193.443 9.28867 193.506 9.23767 193.551 9.181L193.687 9.011L194.027 8.909L194.129 8.722L194.214 8.637L194.163 8.603L193.908 8.569L193.857 8.484H193.772L193.415 8.331L193.126 8.365L192.99 8.246L192.667 8.28C192.599 8.212 192.531 8.17233 192.463 8.161C192.372 8.21767 192.287 8.246 192.208 8.246C192.151 8.23467 192.066 8.20067 191.953 8.144C191.862 8.144 191.794 8.144 191.749 8.144C191.715 8.13267 191.647 8.12133 191.545 8.11L191.358 8.093C191.267 8.07033 191.188 8.07033 191.12 8.093C191.063 8.11567 191.001 8.127 190.933 8.127C190.899 8.127 190.854 8.12133 190.797 8.11C190.752 8.08733 190.701 8.08167 190.644 8.093L190.304 8.127L190.066 7.957L190.049 8.059L189.539 8.042L189.369 7.974C189.188 7.974 189.097 8.059 189.097 8.229V8.399V8.535L189.182 8.586L189.097 8.824L189.131 8.926L189.097 9.147L189.216 9.334ZM195.625 8.943L195.353 9.181L195.285 9.385L195.098 9.419L194.894 9.725L194.537 9.793L194.231 10.014L194.112 10.065L193.874 10.32L193.483 10.286L193.313 10.422L193.092 10.388C192.99 10.456 192.905 10.5183 192.837 10.575C192.769 10.6317 192.667 10.6713 192.531 10.694L192.412 10.626L191.97 10.949L191.8 10.864L191.681 10.932L191.409 10.864L191.307 10.932L191.018 10.966L190.797 10.915L190.525 11.153L190.202 11.119V11.136C190.191 11.1473 190.128 11.17 190.015 11.204L189.93 11.102C189.783 11.2153 189.613 11.272 189.42 11.272H189.335C189.301 11.2607 189.273 11.255 189.25 11.255L188.995 11.527L188.706 11.612L188.451 11.476L188.264 11.323L188.128 11.17L188.026 11.085C188.026 11.0623 188.026 11.0227 188.026 10.966C188.026 10.9093 187.975 10.7507 187.873 10.49L187.89 10.201L187.856 9.861L187.941 9.606L187.89 9.266L188.009 9.028L187.941 8.824L187.992 8.484L187.873 8.11L187.856 8.059C187.516 7.87767 187.323 7.71333 187.278 7.566C187.301 7.44133 187.352 7.362 187.431 7.328C187.51 7.28267 187.612 7.22033 187.737 7.141L187.907 7.039L187.805 6.75L187.924 6.699L187.856 6.461L187.907 6.24L187.822 6.002L187.856 5.883L187.839 5.679L187.652 5.305L187.686 5.152L187.601 5.084L187.635 4.88L187.55 4.761L187.448 4.54L187.431 4.523L187.261 4.659L187.091 4.557L186.921 4.659L186.87 4.591L186.598 4.761L186.445 4.523L186.139 4.71C185.618 4.41533 185.357 4.149 185.357 3.911C185.357 3.707 185.465 3.588 185.68 3.554C185.793 3.384 185.946 3.299 186.139 3.299H186.19L186.36 3.367H186.394C186.621 3.367 186.819 3.37267 186.989 3.384C187.159 3.384 187.295 3.39533 187.397 3.418C187.488 3.39533 187.567 3.384 187.635 3.384C187.714 3.37267 187.788 3.367 187.856 3.367L187.941 3.418L188.043 3.384L188.485 3.554L188.876 3.656C188.91 3.64467 188.989 3.639 189.114 3.639C189.182 3.639 189.239 3.64467 189.284 3.656C189.329 3.656 189.369 3.66167 189.403 3.673L189.573 3.639C189.72 3.65033 189.862 3.69567 189.998 3.775L190.117 3.843C190.298 3.88833 190.44 3.911 190.542 3.911L190.916 3.843L190.984 3.928C191.12 3.928 191.239 3.98467 191.341 4.098H191.8L191.987 4.285C192.055 4.30767 192.117 4.32467 192.174 4.336C192.231 4.34733 192.282 4.353 192.327 4.353L192.633 4.455L192.769 4.574H193.126L193.211 4.795L193.534 4.999L193.653 5.475L193.398 5.934C193.273 6.05867 193.16 6.155 193.058 6.223C192.956 6.291 192.843 6.342 192.718 6.376L192.463 6.529L192.344 6.495L192.038 6.75H191.851L191.409 6.937L191.103 6.971C190.99 7.01633 190.899 7.056 190.831 7.09C190.774 7.11267 190.712 7.13533 190.644 7.158C190.587 7.18067 190.519 7.20333 190.44 7.226C190.372 7.24867 190.27 7.28267 190.134 7.328V7.362C190.157 7.362 190.219 7.35633 190.321 7.345C190.423 7.33367 190.531 7.32233 190.644 7.311C190.769 7.29967 190.882 7.28833 190.984 7.277C191.086 7.26567 191.154 7.26 191.188 7.26C191.313 7.23733 191.443 7.21467 191.579 7.192C191.715 7.16933 191.806 7.18633 191.851 7.243C191.942 7.19767 192.021 7.175 192.089 7.175C192.282 7.23167 192.401 7.26 192.446 7.26C192.491 7.26 192.537 7.26 192.582 7.26C192.627 7.26 192.684 7.24867 192.752 7.226C192.82 7.26 192.916 7.28267 193.041 7.294C193.166 7.294 193.324 7.294 193.517 7.294L193.653 7.379C193.789 7.40167 193.914 7.41867 194.027 7.43C194.14 7.43 194.242 7.45267 194.333 7.498H194.588C194.645 7.55467 194.73 7.59433 194.843 7.617C194.968 7.63967 195.064 7.67933 195.132 7.736C195.166 7.75867 195.211 7.79267 195.268 7.838C195.336 7.872 195.415 7.93433 195.506 8.025C195.665 8.161 195.744 8.30267 195.744 8.45L195.727 8.637L195.625 8.943ZM192.344 5.339H192.174L192.021 5.254L191.8 5.203L191.63 5.322L191.307 5.084L191.052 5.016L190.95 5.067L190.814 4.914H190.746C190.633 4.914 190.457 4.897 190.219 4.863L189.862 4.914L189.675 4.744L189.505 4.778L189.454 4.761L189.352 4.829L189.063 4.727L188.995 4.761V5.135L189.097 5.424L189.012 5.662L189.097 5.849L189.08 6.172L189.165 6.427L189.063 6.682L189.114 6.852L189.352 6.835C189.375 6.82367 189.409 6.81233 189.454 6.801C189.499 6.77833 189.545 6.73867 189.59 6.682L189.658 6.648L189.76 6.716L189.811 6.597L190.236 6.376C190.395 6.33067 190.502 6.30233 190.559 6.291C190.627 6.27967 190.684 6.24567 190.729 6.189L190.967 6.121L191.052 6.104C191.199 6.01333 191.369 5.95667 191.562 5.934L191.63 5.883C191.653 5.883 191.698 5.86033 191.766 5.815L192.021 5.679H192.055C192.112 5.63367 192.168 5.594 192.225 5.56C192.293 5.51467 192.367 5.48067 192.446 5.458L192.344 5.339ZM203.104 8.348L202.781 8.654L202.764 8.756C202.73 8.96 202.633 9.12433 202.475 9.249C202.203 9.759 201.823 10.133 201.336 10.371L201.081 10.575L200.86 10.609L200.588 10.813L200.401 10.83L199.976 11.102L199.704 11.068L199.398 11.204L199.16 11.136L199.041 11.238L198.718 11.187L198.395 11.238L198.276 11.136L197.936 11.068L197.443 10.694L197.171 10.354C197.001 10.1387 196.916 9.95733 196.916 9.81V9.759L196.746 9.504V9.283C196.712 9.147 196.695 9.02233 196.695 8.909V8.79L196.61 8.501L196.695 8.297L196.627 8.161L196.831 7.838L196.78 7.566L196.916 7.124L196.984 7.022L197.052 6.614L197.018 6.546L197.222 6.325L197.256 6.155L197.392 5.764L197.613 5.288L197.919 5.016L197.987 4.863L198.089 4.676L198.123 4.506L198.395 4.183C198.463 4.16033 198.542 4.13767 198.633 4.115C198.678 3.89967 198.961 3.775 199.483 3.741C199.925 3.83167 200.208 3.95067 200.333 4.098C200.457 4.12067 200.554 4.17167 200.622 4.251L200.979 4.268L201.217 4.574C201.273 4.68733 201.313 4.80067 201.336 4.914L201.472 5.05L201.421 5.305C201.432 5.38433 201.438 5.509 201.438 5.679L201.523 5.747V6.002L201.591 6.529C201.353 6.767 201.081 6.903 200.775 6.937C200.616 6.64233 200.418 6.42133 200.18 6.274L200.146 5.713L200.044 5.526V5.39L199.874 5.186L199.789 5.118L199.636 5.169H199.415C199.267 5.203 199.126 5.31067 198.99 5.492C198.854 5.67333 198.718 5.866 198.582 6.07L198.565 6.24L198.463 6.325V6.631L198.242 6.869L197.97 7.617L197.987 7.821L197.851 8.127L197.902 8.501L197.8 8.552L197.766 9.028L197.783 9.113L197.987 9.317L198.072 9.674L198.31 9.742L198.327 9.878L198.616 9.929L198.837 9.98C198.916 9.93467 199.012 9.912 199.126 9.912H199.245C199.381 9.85533 199.505 9.827 199.619 9.827C199.698 9.793 199.8 9.759 199.925 9.725C200.061 9.54367 200.253 9.453 200.503 9.453H200.605C200.661 9.453 200.701 9.42467 200.724 9.368C200.848 9.17533 201.047 9.05067 201.319 8.994C201.636 8.71067 201.817 8.484 201.863 8.314C202.021 8.22333 202.123 8.08167 202.169 7.889L202.271 7.821L202.322 7.43C202.843 7.50933 203.104 7.77 203.104 8.212V8.348ZM213.134 4.03L212.777 4.897L212.607 4.948H212.335L212.08 4.982L211.893 4.948L210.992 5.016L210.72 4.948L210.669 4.965C210.578 5.01033 210.414 5.05 210.176 5.084H209.836L209.734 5.05H209.683C209.569 5.05 209.428 5.07267 209.258 5.118C209.122 5.152 208.946 5.169 208.731 5.169L208.493 5.118L208.459 5.288H208.289L208.238 5.781L208.306 5.9L208.289 6.121V6.495C208.289 6.88033 208.249 7.141 208.17 7.277L208.289 7.447L208.187 7.855L208.289 7.974L208.119 8.212V8.331L208.034 8.484L208.102 8.807L208.051 9.402L207.966 9.674C207.977 9.68533 207.983 9.71367 207.983 9.759C207.983 9.73633 207.966 9.79867 207.932 9.946C207.932 9.95733 207.937 9.97433 207.949 9.997V10.065C207.949 10.167 207.915 10.269 207.847 10.371L207.898 10.575C207.898 10.6543 207.892 10.6997 207.881 10.711L207.864 10.745C207.852 10.779 207.841 10.813 207.83 10.847C207.83 10.8697 207.83 10.898 207.83 10.932C207.83 11.1133 207.852 11.2663 207.898 11.391C207.784 11.4137 207.665 11.425 207.541 11.425C207.427 11.4363 207.359 11.442 207.337 11.442C207.269 11.442 207.201 11.4307 207.133 11.408H207.099C206.849 11.34 206.725 11.1077 206.725 10.711C206.736 10.677 206.742 10.609 206.742 10.507C206.742 10.4277 206.73 10.32 206.708 10.184C206.685 10.0367 206.674 9.93467 206.674 9.878C206.674 9.776 206.691 9.691 206.725 9.623L206.776 9.028C206.696 8.91467 206.657 8.82967 206.657 8.773C206.657 8.78433 206.668 8.74467 206.691 8.654C206.657 8.586 206.64 8.52933 206.64 8.484C206.64 8.39333 206.662 8.331 206.708 8.297C206.708 8.24033 206.747 8.12133 206.827 7.94C206.804 7.82667 206.793 7.74167 206.793 7.685C206.861 7.685 206.895 7.651 206.895 7.583C206.895 7.56033 206.883 7.532 206.861 7.498C206.849 7.464 206.844 7.41867 206.844 7.362L206.878 7.413L206.827 7.277C206.827 7.08433 206.849 6.92567 206.895 6.801V6.393L206.827 6.087L206.895 5.594L206.827 5.288L206.844 5.152H206.64L206.47 5.237H206.368V5.288C206.152 5.288 205.954 5.271 205.773 5.237L205.722 5.356L205.161 5.169L204.413 5.152L203.937 5.288C203.744 5.118 203.597 4.948 203.495 4.778C203.404 4.59667 203.359 4.46633 203.359 4.387C203.359 4.29633 203.37 4.22833 203.393 4.183L203.716 3.894L203.988 3.911L204.957 4.098L205.212 4.013L205.943 4.03L206.521 4.098L206.895 3.962L207.031 3.588L207.609 3.724L207.626 3.707L207.66 3.741L207.864 3.996H207.915L208.119 3.928L208.544 4.03C208.759 3.996 208.923 3.96767 209.037 3.945C209.161 3.92233 209.241 3.911 209.275 3.911C209.377 3.911 209.501 3.93933 209.649 3.996H209.819C209.875 3.996 209.926 3.996 209.972 3.996C210.017 3.98467 210.051 3.979 210.074 3.979H210.176L210.669 3.911L211.094 3.996L211.145 4.013L211.366 3.945L211.672 4.013L212.386 3.996L212.709 4.03H213.134ZM219.703 8.484L219.499 8.994L219.635 9.334L219.567 9.436L219.499 9.708L219.363 9.946L219.295 9.98L219.261 10.303L218.955 10.337C218.797 10.4843 218.632 10.6033 218.462 10.694L218.36 10.677L218.105 10.762L217.952 10.779L217.629 10.898L217.255 10.728L217.204 10.694L216.915 10.711L216.983 10.745L216.507 10.677L216.082 10.779L215.912 10.626L215.555 10.66L215.419 10.558C215.408 10.558 215.363 10.5637 215.283 10.575V10.677C215.283 10.779 215.266 10.881 215.232 10.983L215.283 11.306L215.147 11.476C215.17 11.7253 215.181 11.9123 215.181 12.037L215.13 12.462L215.198 13.108L215.062 13.278L215.13 13.533L215.079 13.703L215.181 13.754V14.009C215.204 14.077 215.215 14.128 215.215 14.162C215.215 14.264 215.153 14.349 215.028 14.417L215.096 14.655L215.011 14.791L214.977 15.471C214.943 16.2643 214.768 16.661 214.45 16.661C214.382 16.661 214.184 16.6157 213.855 16.525L213.906 16.015L213.804 15.267L213.974 14.961L213.991 14.587L213.923 14.077L214.059 13.856L213.906 13.465L214.025 13.261L213.923 12.921L214.059 12.615C214.037 12.547 213.991 12.4847 213.923 12.428C213.867 12.3713 213.838 12.3317 213.838 12.309C213.838 12.275 213.878 12.241 213.957 12.207C213.946 12.173 213.94 12.1163 213.94 12.037C213.94 11.8897 213.974 11.697 214.042 11.459L213.94 11.289L213.991 11.068L213.872 10.915L214.025 10.728L213.957 10.235L214.059 9.538L213.94 9.317L214.127 8.994L213.923 8.807L214.042 8.484L213.923 8.399L213.94 8.11L214.042 7.753V7.685L214.059 7.617V7.43L214.076 7.362L213.991 7.09L214.076 6.801L213.991 6.58L214.059 6.325L213.991 6.257L214.042 5.917L213.991 5.73L214.025 5.56L213.974 5.441L213.362 5.713V5.611L213.243 5.628L213.056 5.798H212.903L212.699 6.07L212.529 6.002L212.444 6.172C211.889 5.84333 211.611 5.58267 211.611 5.39C211.611 5.254 211.662 5.14067 211.764 5.05L211.747 4.795C212.065 4.61367 212.365 4.51733 212.648 4.506L212.767 4.387L213.311 4.166L213.43 4.047L213.906 4.081L213.991 4.047L214.144 3.452L214.552 3.537L214.824 3.979L214.977 3.826L215.283 4.047C215.431 4.047 215.572 4.07533 215.708 4.132L215.793 4.285L215.912 4.234L216.048 4.336C216.128 4.336 216.19 4.34167 216.235 4.353L216.218 4.455L216.592 4.336L216.779 4.54L217.102 4.642L217.323 4.914L217.731 5.169L217.748 5.203L218.071 5.305V5.407C218.162 5.475 218.23 5.56567 218.275 5.679L218.411 5.764L218.513 5.951H218.717V6.291L218.836 6.41L218.87 6.529L219.04 6.563C219.063 6.82367 219.137 7.04467 219.261 7.226V7.345L219.431 7.515L219.397 7.787L219.533 8.093L219.584 8.45L219.703 8.484ZM218.428 8.739L218.411 8.654L218.428 8.586L218.326 8.28L218.394 8.127L218.326 7.991L218.309 7.821L218.173 7.549L218.105 7.362L217.85 6.92L217.646 6.75L217.527 6.461L217.374 6.393L217.102 6.036L216.83 6.07L216.626 5.798L216.456 5.832L216.337 5.611L216.269 5.594H216.031L215.861 5.679L215.725 5.543L215.555 5.577L215.487 5.458L215.181 5.407L215.198 5.611L215.164 5.934L215.232 6.121L215.47 6.342L215.283 6.75L215.3 7.005L215.215 7.515C215.249 7.73033 215.317 7.91167 215.419 8.059L215.351 8.246C215.363 8.25733 215.368 8.26867 215.368 8.28C215.368 8.314 215.323 8.365 215.232 8.433L215.351 8.586L215.266 8.79L215.232 9.011L215.283 9.249L215.266 9.47H215.623C215.669 9.44733 215.731 9.436 215.81 9.436C215.912 9.436 216.003 9.47 216.082 9.538C216.094 9.538 216.116 9.53233 216.15 9.521C216.173 9.521 216.19 9.521 216.201 9.521C216.235 9.521 216.298 9.53233 216.388 9.555C216.456 9.521 216.519 9.504 216.575 9.504C216.666 9.504 216.751 9.52667 216.83 9.572H216.983L217.119 9.606L217.459 9.504L217.731 9.674C217.833 9.708 217.873 9.725 217.85 9.725L218.173 9.402L218.207 9.164L218.292 9.13L218.241 8.994L218.36 8.858L218.428 8.739ZM226.369 9.606C226.369 9.742 226.267 9.912 226.063 10.116C226.006 10.2973 225.921 10.4447 225.808 10.558L225.706 10.575L225.519 10.898L225.213 10.949L224.89 11.153L224.72 11.459L224.533 11.425C224.408 11.4817 224.306 11.5157 224.227 11.527L224.125 11.68C224.091 11.6687 224.04 11.663 223.972 11.663C223.825 11.663 223.683 11.765 223.547 11.969L223.309 11.765C223.264 11.7763 223.196 11.782 223.105 11.782C222.958 11.782 222.833 11.7593 222.731 11.714H222.442L222.306 11.629C221.875 11.561 221.603 11.3967 221.49 11.136V11.085L221.286 10.983L221.184 10.694L220.98 10.558V10.303L220.776 9.555L220.81 8.943L220.878 8.671V8.314L220.963 8.042L220.946 7.923L221.065 7.719L221.031 7.753C221.031 7.651 221.059 7.54333 221.116 7.43V7.345L221.065 6.937C221.065 6.74433 221.15 6.57433 221.32 6.427C221.331 6.40433 221.337 6.37033 221.337 6.325C221.337 6.27967 221.314 6.189 221.269 6.053C221.235 5.90567 221.218 5.80367 221.218 5.747C221.218 5.611 221.252 5.46933 221.32 5.322C221.411 5.458 221.541 5.526 221.711 5.526H221.762C221.785 5.48067 221.836 5.42967 221.915 5.373C222.006 5.08967 222.13 4.85167 222.289 4.659L222.357 4.591C222.357 4.54567 222.391 4.41533 222.459 4.2H222.595L222.629 4.115L222.765 4.081C222.822 3.99033 222.856 3.93933 222.867 3.928C222.89 3.90533 223.014 3.83167 223.241 3.707C223.286 3.62767 223.354 3.554 223.445 3.486C223.49 3.46333 223.547 3.44067 223.615 3.418L223.683 3.316C223.989 3.214 224.182 3.163 224.261 3.163C224.352 3.163 224.437 3.18567 224.516 3.231L224.601 3.214L224.72 3.282C224.856 3.384 224.992 3.469 225.128 3.537L225.417 3.758V3.826C225.678 4.03 225.808 4.319 225.808 4.693L225.757 4.863L225.808 5.424L225.655 5.526L225.485 5.968L225.162 6.325L225.145 6.597C224.782 6.85767 224.448 7.06733 224.142 7.226C224.04 7.38467 223.881 7.464 223.666 7.464H223.615L223.292 7.668H223.02L222.612 7.838L222.306 7.685H222.272C222.249 7.77567 222.227 7.91167 222.204 8.093L222.068 8.195L222.051 8.399L221.949 8.688C221.983 8.96 222 9.13567 222 9.215L221.932 9.266C221.932 9.41333 221.926 9.521 221.915 9.589C221.915 9.60033 221.909 9.61733 221.898 9.64C221.898 9.66267 221.898 9.67967 221.898 9.691C221.898 9.78167 221.943 9.85533 222.034 9.912C222.068 10.048 222.125 10.133 222.204 10.167L222.323 10.269L222.697 10.371V10.422L222.833 10.456L223.411 10.49L223.751 10.439L223.921 10.32L224.023 10.286L224.193 10.031L224.278 10.014L224.703 9.878C224.748 9.79867 224.822 9.73067 224.924 9.674L224.975 9.589C225.202 9.54367 225.332 9.42467 225.366 9.232C225.525 9.07333 225.729 8.994 225.978 8.994H226.046C226.261 9.24333 226.369 9.44733 226.369 9.606ZM224.686 4.71C224.686 4.676 224.669 4.608 224.635 4.506L224.55 4.489L224.516 4.506C224.505 4.506 224.482 4.506 224.448 4.506C224.425 4.51733 224.403 4.523 224.38 4.523C224.369 4.523 224.352 4.51733 224.329 4.506C224.306 4.506 224.289 4.506 224.278 4.506L224.108 4.625L223.955 4.642L223.87 4.676L223.581 5.05L223.394 5.186L223.122 5.662L222.969 5.764C222.935 5.95667 222.856 6.121 222.731 6.257L222.663 6.376C222.788 6.29667 222.929 6.257 223.088 6.257L223.207 6.206L223.258 6.053L223.496 6.07L223.632 5.866H223.734L223.921 5.934L224.006 5.679H224.125V5.492L224.346 5.441L224.397 5.39L224.431 5.237L224.652 4.914C224.675 4.85733 224.686 4.78933 224.686 4.71ZM233.004 5.798H233.123C233.146 5.77533 233.168 5.747 233.191 5.713C233.225 5.679 233.27 5.65067 233.327 5.628V5.458L233.582 5.254L233.718 4.965L233.854 4.727L233.905 4.506L234.092 4.217L234.126 4.013L234.704 3.928L235.197 4.183L235.316 4.319C235.497 4.44367 235.662 4.574 235.809 4.71L235.486 4.982L235.503 5.203C235.469 5.407 235.367 5.55433 235.197 5.645L235.078 5.866V6.138L235.129 6.41L235.146 6.869L234.993 6.971C235.05 7.02767 235.095 7.07867 235.129 7.124C235.174 7.16933 235.197 7.277 235.197 7.447C235.197 7.53767 235.191 7.59433 235.18 7.617L235.044 7.634L235.095 7.804L235.044 8.144L235.18 9.215L235.078 9.521L235.214 9.98L235.129 10.405L235.214 10.677L235.35 10.864C235.259 11.0793 235.214 11.238 235.214 11.34V11.51C235.225 11.5553 235.231 11.6177 235.231 11.697V11.799L235.112 11.952C235.123 11.9633 235.129 12.0143 235.129 12.105C235.129 12.2183 235.123 12.292 235.112 12.326L235.214 12.547L235.129 12.802L235.316 13.329C235.305 13.7823 235.123 14.009 234.772 14.009H234.466C234.296 13.7937 234.177 13.5783 234.109 13.363C234.109 13.3063 234.126 13.2497 234.16 13.193L233.939 12.938L234.058 12.734L233.99 12.394V12.054L233.786 11.51L233.939 11.476C233.894 11.3853 233.871 11.272 233.871 11.136C233.871 11.0227 233.894 10.9263 233.939 10.847L233.99 10.609L233.735 9.844L233.888 9.402L233.752 8.722V8.246L233.837 7.804L233.701 7.311L233.837 6.903L233.769 6.512L233.667 6.614L233.412 6.886C233.401 6.97667 233.367 7.07867 233.31 7.192C233.253 7.30533 233.185 7.362 233.106 7.362L232.63 7.634L232.443 7.991L231.661 8.603L231.236 8.79L230.862 9.062L230.624 9.13L229.791 9.47L229.451 9.623L228.89 9.606L228.482 9.351L228.244 9.198V8.892L227.955 8.824L227.836 8.586L227.785 8.45L227.717 8.229L227.819 7.906L227.768 7.702L227.819 7.447L227.751 7.039L227.666 6.903C227.677 6.72167 227.74 6.58567 227.853 6.495L227.802 6.427L227.87 6.07L227.751 5.849V5.492L227.87 5.101L227.921 4.778L227.853 4.455L228.023 4.268C228.091 4.14333 228.199 4.081 228.346 4.081L228.567 3.979L228.975 4.098C229.1 4.15467 229.185 4.251 229.23 4.387C229.275 4.40967 229.304 4.46067 229.315 4.54C229.338 4.608 229.372 4.70433 229.417 4.829L229.281 5.22C229.258 5.34467 229.213 5.441 229.145 5.509C229.088 5.577 229.06 5.679 229.06 5.815V5.934L229.213 6.138L229.145 6.342L229.111 6.682L229.213 6.988L228.958 7.209C229.139 7.617 229.23 7.91167 229.23 8.093L229.706 8.144C229.717 8.12133 229.757 8.08733 229.825 8.042C229.893 7.99667 229.938 7.96267 229.961 7.94L230.216 7.923L230.42 7.855C230.477 7.79833 230.528 7.77 230.573 7.77C230.618 7.75867 230.669 7.74167 230.726 7.719L230.896 7.515L231.338 7.413L231.321 7.243L231.712 7.175L232.018 6.835L232.086 6.903L232.171 6.682L232.307 6.75L232.477 6.614L232.613 6.274L232.97 6.036L233.004 5.798ZM245.775 3.282L245.673 3.571L245.826 3.894L245.639 4.047L245.571 4.404L245.452 4.523L245.367 4.897H245.316C245.282 5.05567 245.186 5.18033 245.027 5.271L244.874 5.815L244.721 6.053C244.732 6.09833 244.738 6.172 244.738 6.274L244.466 6.512L244.075 7.413L243.616 7.94V8.11C243.616 8.26867 243.525 8.40467 243.344 8.518L243.31 8.824L243.191 8.892L242.987 9.164L242.936 9.351L242.783 9.436C242.783 9.45867 242.783 9.487 242.783 9.521C242.794 9.555 242.806 9.60033 242.817 9.657L242.63 9.81L242.324 9.997L242.222 10.167L241.882 10.524C241.621 10.9547 241.366 11.2323 241.117 11.357L240.709 11.952L240.386 12.088L240.267 12.275H240.182L240.063 12.377L239.995 12.598L239.706 12.717L239.621 12.87L239.247 13.04H239.179C238.941 13.3347 238.805 13.4877 238.771 13.499C238.748 13.5103 238.714 13.5217 238.669 13.533C238.624 13.5443 238.556 13.5557 238.465 13.567C238.408 13.6577 238.335 13.7087 238.244 13.72L238.227 13.754L237.904 14.06L237.717 14.043L237.615 14.179L237.326 14.247L236.935 14.434L236.272 14.451L235.694 14.23L235.728 13.975C235.739 13.8277 235.83 13.737 236 13.703C236.057 13.6803 236.13 13.6407 236.221 13.584C236.312 13.5387 236.419 13.4763 236.544 13.397L236.782 13.414L236.918 13.21C236.975 13.21 237.02 13.2383 237.054 13.295C237.179 13.1023 237.326 13.006 237.496 13.006H237.547C237.683 12.87 237.819 12.785 237.955 12.751C238.046 12.6377 238.193 12.547 238.397 12.479L238.431 12.462L238.516 12.564L238.55 12.241L238.89 12.02L239.077 11.816C239.156 11.7027 239.219 11.646 239.264 11.646C239.287 11.6687 239.298 11.6857 239.298 11.697L239.4 11.51L239.791 11.119C239.802 11.0963 239.831 11.0623 239.876 11.017L239.213 10.252L239.179 10.048L239.077 9.98L239.06 9.572L238.873 9.385V8.96L238.431 7.974L238.465 7.804L238.329 7.566L238.295 7.379L238.21 7.26L238.091 6.954L237.785 6.716L237.649 6.155L237.411 5.951L237.377 5.696C237.105 5.61667 236.969 5.38433 236.969 4.999C236.969 4.67033 237.213 4.41533 237.7 4.234C238.323 4.65333 238.692 5.07267 238.805 5.492L238.856 5.883C238.879 5.87167 238.907 5.86033 238.941 5.849C238.986 5.83767 239.037 5.82633 239.094 5.815V5.968L239.366 6.172L239.264 6.444L239.298 6.648L239.451 7.056L239.536 7.141L239.553 7.294L239.689 7.362V7.651L239.876 8.314L239.91 8.569L240.182 9.113L240.403 9.776L240.658 10.048H240.692C240.737 10.048 240.777 10.0027 240.811 9.912L240.947 9.861L240.896 9.725C240.93 9.657 240.97 9.623 241.015 9.623C241.038 9.623 241.072 9.60033 241.117 9.555C241.162 9.49833 241.196 9.48133 241.219 9.504L241.236 9.232C241.259 9.232 241.298 9.198 241.355 9.13C241.412 9.062 241.485 8.99967 241.576 8.943L241.797 8.62L241.933 8.28L242.103 8.144L242.205 7.923L242.273 7.872L242.239 7.651L242.426 7.566L242.46 7.481C242.46 7.447 242.488 7.38467 242.545 7.294L242.664 6.988L242.749 7.09L242.817 7.056V7.005C242.817 6.85767 242.879 6.733 243.004 6.631V6.597L243.123 6.376L243.208 6.002L243.327 5.968L243.548 5.441L243.701 5.237C243.735 5.067 243.814 4.93667 243.939 4.846L244.092 4.37L244.211 4.217V3.86H244.296C244.364 3.81467 244.426 3.75233 244.483 3.673C244.54 3.59367 244.591 3.52 244.636 3.452C244.681 3.37267 244.721 3.30467 244.755 3.248C244.789 3.18 244.817 3.13467 244.84 3.112L244.925 3.061L245.401 2.772L245.775 3.282Z" fill="#EFBB45"/>
</svg>
