<svg width="20" height="23" viewBox="0 0 20 23" fill="none" xmlns="http://www.w3.org/2000/svg">
<path d="M7.31137 7.86133H3.61216C1.94673 7.86133 0.591797 9.18579 0.591797 10.8138V16.7918C0.591797 17.1178 0.862244 17.3823 1.19587 17.3823H9.72766C10.0613 17.3823 10.3317 17.1179 10.3317 16.7918V10.8138C10.3317 9.18579 8.9768 7.86133 7.31137 7.86133Z" fill="white"/>
<path d="M5.46146 0.0332031C3.45857 0.0332031 1.8291 1.62603 1.8291 3.58393C1.8291 4.91195 2.57894 6.07179 3.68631 6.68074C4.21155 6.96955 4.8171 7.13461 5.46146 7.13461C6.10583 7.13461 6.71137 6.96955 7.23661 6.68074C8.34402 6.07179 9.09382 4.91191 9.09382 3.58393C9.09382 1.62607 7.46436 0.0332031 5.46146 0.0332031Z" fill="white"/>
<path d="M12.0774 8.02051C8.2601 8.02051 5.1543 11.1045 5.1543 14.8955C5.1543 18.6865 8.2601 21.7705 12.0774 21.7705C15.8947 21.7705 19.0005 18.6865 19.0005 14.8955C19.0005 11.1045 15.8947 8.02051 12.0774 8.02051Z" fill="white" stroke="#848383" stroke-width="0.798817"/>
<path d="M15.4052 15.4241H12.6093V18.3328C12.6093 18.6247 12.3707 18.8616 12.0768 18.8616C11.7828 18.8616 11.5442 18.6247 11.5442 18.3328V15.4241H8.74836C8.4544 15.4241 8.21582 15.1872 8.21582 14.8953C8.21582 14.6034 8.4544 14.3664 8.74836 14.3664H11.5442V11.7222C11.5442 11.4303 11.7828 11.1934 12.0768 11.1934C12.3707 11.1934 12.6093 11.4303 12.6093 11.7222V14.3664H15.4052C15.6991 14.3664 15.9377 14.6034 15.9377 14.8953C15.9377 15.1872 15.6991 15.4241 15.4052 15.4241Z" fill="#848383"/>
</svg>
