<svg width="19" height="19" viewBox="0 0 19 19" fill="none" xmlns="http://www.w3.org/2000/svg">
<path d="M0 0.5C0 0.223858 0.223858 0 0.5 0H18.5C18.7761 0 19 0.223858 19 0.5C19 0.776142 18.7761 1 18.5 1H0.5C0.223858 1 0 0.776142 0 0.5Z" fill="black"/>
<rect x="0.5" y="4.5" width="14" height="14" rx="1.5" stroke="black"/>
<path d="M18.5 19C18.2239 19 18 18.7761 18 18.5V0.5C18 0.223858 18.2239 0 18.5 0C18.7761 0 19 0.223858 19 0.5V18.5C19 18.7761 18.7761 19 18.5 19Z" fill="black"/>
<path d="M0 2.5C0 2.22386 0.223858 2 0.5 2H16.5C16.7761 2 17 2.22386 17 2.5C17 2.77614 16.7761 3 16.5 3H0.5C0.223858 3 0 2.77614 0 2.5Z" fill="black"/>
<path d="M16.5 19C16.2239 19 16 18.7761 16 18.5V2.5C16 2.22386 16.2239 2 16.5 2C16.7761 2 17 2.22386 17 2.5V18.5C17 18.7761 16.7761 19 16.5 19Z" fill="black"/>
</svg>
