<svg width="27" height="27" viewBox="0 0 27 27" fill="none" xmlns="http://www.w3.org/2000/svg">
<path d="M4.0354 16.6931L7.78258 16.6931C9.12085 16.6931 9.9907 15.2878 9.38851 14.1503C8.987 13.3473 9.32157 12.3436 10.0576 11.8753C11.7305 10.8716 15.2769 10.8047 17.0167 11.8753C17.8197 12.2768 18.0873 13.3474 17.6858 14.1503C17.0836 15.2879 17.9535 16.6931 19.2917 16.6931L23.0389 16.6931C24.0426 16.6261 24.8456 15.8232 24.8456 14.8864L24.8456 12.3437C24.7787 9.73403 19.8271 7.59279 13.5372 7.59279C7.24727 7.59279 2.22871 9.66709 2.22873 12.3437L2.22873 14.8864C2.29562 15.8901 3.09859 16.6931 4.0354 16.6931Z" fill="white"/>
</svg>
