<svg width="20" height="20" viewBox="0 0 20 20" fill="none" xmlns="http://www.w3.org/2000/svg">
<path d="M9.99999 0.375007C8.29611 0.372882 6.62227 0.823673 5.14991 1.68121C3.67755 2.53875 2.45957 3.77223 1.62071 5.25531C0.781845 6.73839 0.352246 8.41779 0.375907 10.1215C0.399567 11.8252 0.875637 13.492 1.75536 14.9513L0.398263 19.0217C0.375354 19.0906 0.369139 19.164 0.38013 19.2357C0.39112 19.3075 0.419002 19.3757 0.461481 19.4346C0.503959 19.4935 0.55982 19.5415 0.624466 19.5746C0.689112 19.6077 0.760694 19.625 0.833322 19.625C0.882632 19.6251 0.93162 19.6171 0.978339 19.6013L5.04873 18.2446C6.32003 19.0083 7.75064 19.4678 9.22886 19.5871C10.7071 19.7065 12.1929 19.4826 13.5703 18.9328C14.9476 18.383 16.1792 17.5223 17.169 16.4178C18.1587 15.3133 18.8797 13.995 19.2757 12.5658C19.6717 11.1366 19.7319 9.63526 19.4517 8.17894C19.1716 6.72261 18.5585 5.35076 17.6605 4.17053C16.7625 2.99029 15.6038 2.03361 14.275 1.37521C12.9461 0.716802 11.483 0.374491 9.99999 0.375007ZM9.99999 18.7083C8.35371 18.7072 6.74172 18.2377 5.35221 17.3548C5.27884 17.3084 5.19378 17.2837 5.10692 17.2837C5.05761 17.2836 5.00863 17.2916 4.96191 17.3074L1.55749 18.442L2.69258 15.0381C2.7139 14.9736 2.72071 14.9051 2.71251 14.8376C2.7043 14.7702 2.6813 14.7053 2.64513 14.6478C1.61546 13.0149 1.15796 11.086 1.34465 9.16456C1.53134 7.24316 2.35162 5.43838 3.67639 4.03424C5.00115 2.6301 6.75521 1.70632 8.66251 1.40827C10.5698 1.11022 12.5221 1.45482 14.2121 2.38785C15.9021 3.32088 17.2338 4.78937 17.9978 6.5622C18.7618 8.33504 18.9146 10.3116 18.4322 12.1808C17.9498 14.05 16.8595 15.7057 15.333 16.8874C13.8065 18.0691 11.9304 18.7097 9.99999 18.7083ZM6.33332 10C6.33332 10.1813 6.27956 10.3585 6.17884 10.5093C6.07811 10.66 5.93495 10.7775 5.76745 10.8469C5.59995 10.9163 5.41564 10.9344 5.23782 10.8991C5.06001 10.8637 4.89667 10.7764 4.76848 10.6482C4.64028 10.52 4.55297 10.3567 4.5176 10.1788C4.48223 10.001 4.50039 9.81672 4.56977 9.64922C4.63915 9.48172 4.75664 9.33855 4.90738 9.23783C5.05813 9.1371 5.23536 9.08334 5.41666 9.08334C5.65977 9.08334 5.89293 9.17992 6.06484 9.35183C6.23675 9.52374 6.33332 9.75689 6.33332 10ZM10.9167 10C10.9167 10.1813 10.8629 10.3585 10.7622 10.5093C10.6614 10.66 10.5183 10.7775 10.3508 10.8469C10.1833 10.9163 9.99897 10.9344 9.82116 10.8991C9.64334 10.8637 9.48001 10.7764 9.35181 10.6482C9.22361 10.52 9.13631 10.3567 9.10094 10.1788C9.06557 10.001 9.08372 9.81672 9.1531 9.64922C9.22248 9.48172 9.33997 9.33855 9.49072 9.23783C9.64146 9.1371 9.81869 9.08334 9.99999 9.08334C10.2431 9.08334 10.4763 9.17992 10.6482 9.35183C10.8201 9.52374 10.9167 9.75689 10.9167 10ZM15.5 10C15.5 10.1813 15.4462 10.3585 15.3455 10.5093C15.2448 10.66 15.1016 10.7775 14.9341 10.8469C14.7666 10.9163 14.5823 10.9344 14.4045 10.8991C14.2267 10.8637 14.0633 10.7764 13.9351 10.6482C13.8069 10.52 13.7196 10.3567 13.6843 10.1788C13.6489 10.001 13.6671 9.81672 13.7364 9.64922C13.8058 9.48172 13.9233 9.33855 14.0741 9.23783C14.2248 9.1371 14.402 9.08334 14.5833 9.08334C14.8264 9.08334 15.0596 9.17992 15.2315 9.35183C15.4034 9.52374 15.5 9.75689 15.5 10Z" fill="black"/>
</svg>
