<svg width="27" height="18" viewBox="0 0 27 18" fill="none" xmlns="http://www.w3.org/2000/svg">
<path d="M9.14477 8.71745L0.927387 2.84791C0.747774 2.72113 0.513 2.70352 0.318147 2.80445C0.12208 2.90544 0 3.10615 0 3.32568V15.0648C0 15.2855 0.12208 15.4863 0.318147 15.5861C0.40268 15.6307 0.494227 15.6518 0.586986 15.6518C0.706746 15.6518 0.826453 15.6154 0.92744 15.5427L9.14483 9.67311C9.2986 9.56395 9.39136 9.38433 9.39136 9.19533C9.39131 9.00623 9.29855 8.82783 9.14477 8.71745ZM1.17392 13.9238V4.46675L7.79361 9.19528L1.17392 13.9238Z" fill="black"/>
<path d="M26.6819 2.80447C26.4858 2.70354 26.2499 2.7211 26.0714 2.84792L17.8541 8.71747C17.7003 8.82784 17.6087 9.00624 17.6087 9.19524C17.6087 9.38424 17.7003 9.56386 17.8541 9.67302L26.0715 15.5426C26.1724 15.6153 26.2922 15.6517 26.4131 15.6517C26.5046 15.6517 26.5962 15.6306 26.6819 15.586C26.8768 15.4862 27.0001 15.2854 27.0001 15.0647V3.3257C27 3.10616 26.8768 2.90546 26.6819 2.80447ZM25.8261 13.9238L19.2052 9.19524L25.8261 4.46671V13.9238Z" fill="black"/>
<path d="M13.5 0.391113C13.1749 0.391113 12.9131 0.654046 12.9131 0.978046V17.4129C12.9131 17.7369 13.1749 17.9998 13.5 17.9998C13.824 17.9998 14.087 17.7369 14.087 17.4129V0.978046C14.087 0.654046 13.824 0.391113 13.5 0.391113Z" fill="black"/>
</svg>
