<svg width="13" height="21" viewBox="0 0 13 21" fill="none" xmlns="http://www.w3.org/2000/svg">
<path d="M12.1306 9.06063L7.28311 0.4375C7.20639 0.304615 7.09608 0.194241 6.96323 0.117452C6.83038 0.0406625 6.67968 0.000157387 6.52624 0C6.3728 0.000157387 6.22209 0.0406625 6.08925 0.117452C5.9564 0.194241 5.84608 0.304615 5.76936 0.4375L0.869363 9.05625C0.840707 9.10695 0.822464 9.16287 0.815702 9.22072C0.808941 9.27856 0.813798 9.33718 0.829988 9.39313L2.64124 15.75H2.56249C2.21439 15.75 1.88055 15.8883 1.63441 16.1344C1.38827 16.3806 1.24999 16.7144 1.24999 17.0625V19.6875C1.24999 20.0356 1.38827 20.3694 1.63441 20.6156C1.88055 20.8617 2.21439 21 2.56249 21H10.4375C10.7856 21 11.1194 20.8617 11.3656 20.6156C11.6117 20.3694 11.75 20.0356 11.75 19.6875V17.0625C11.75 16.7144 11.6117 16.3806 11.3656 16.1344C11.1194 15.8883 10.7856 15.75 10.4375 15.75H10.3587L12.1875 9.39313C12.2005 9.3367 12.2021 9.27825 12.1924 9.22117C12.1826 9.1641 12.1616 9.10953 12.1306 9.06063ZM6.49999 8.75C6.58652 8.75 6.6711 8.77566 6.74305 8.82373C6.815 8.87181 6.87107 8.94013 6.90419 9.02008C6.9373 9.10002 6.94596 9.18799 6.92908 9.27285C6.9122 9.35772 6.87053 9.43567 6.80935 9.49686C6.74816 9.55805 6.67021 9.59971 6.58534 9.61659C6.50047 9.63348 6.41251 9.62481 6.33256 9.5917C6.25262 9.55858 6.18429 9.50251 6.13622 9.43056C6.08815 9.35862 6.06249 9.27403 6.06249 9.1875C6.06249 9.07147 6.10858 8.96019 6.19063 8.87814C6.27268 8.79609 6.38396 8.75 6.49999 8.75ZM10.875 17.0625V19.6875C10.875 19.8035 10.8289 19.9148 10.7468 19.9969C10.6648 20.0789 10.5535 20.125 10.4375 20.125H2.56249C2.44646 20.125 2.33518 20.0789 2.25313 19.9969C2.17108 19.9148 2.12499 19.8035 2.12499 19.6875V17.0625C2.12499 16.9465 2.17108 16.8352 2.25313 16.7531C2.33518 16.6711 2.44646 16.625 2.56249 16.625H10.4375C10.5535 16.625 10.6648 16.6711 10.7468 16.7531C10.8289 16.8352 10.875 16.9465 10.875 17.0625ZM9.45311 15.75H3.54686L1.72249 9.33188L6.09749 1.64938L6.06249 7.95375C5.77058 8.05696 5.52456 8.26003 5.3679 8.52709C5.21124 8.79414 5.15403 9.10798 5.20639 9.41313C5.25875 9.71829 5.41729 9.99511 5.65401 10.1947C5.89073 10.3942 6.19037 10.5037 6.49999 10.5037C6.8096 10.5037 7.10925 10.3942 7.34596 10.1947C7.58268 9.99511 7.74123 9.71829 7.79359 9.41313C7.84594 9.10798 7.78874 8.79414 7.63208 8.52709C7.47542 8.26003 7.22939 8.05696 6.93749 7.95375L6.95936 1.64938L11.2775 9.33188L9.45311 15.75Z" fill="black"/>
</svg>
