<svg width="11" height="19" viewBox="0 0 11 19" fill="none" xmlns="http://www.w3.org/2000/svg">
<path d="M0.878621 14.6909H10.137C10.5438 14.6909 10.8879 14.4172 10.9964 14.0439V0.963389C10.8879 0.590125 10.5438 0.316406 10.137 0.316406H0.878621C0.473551 0.316406 0.130697 0.588666 0.0214844 0.960583V14.0467C0.130697 14.4186 0.473551 14.6909 0.878621 14.6909Z" fill="white"/>
<path fill-rule="evenodd" clip-rule="evenodd" d="M0.878621 15.7687H10.137C10.4451 15.7687 10.7366 15.6974 10.9964 15.5703V17.4119C10.9964 18.2881 10.2858 19.0008 9.41228 19.0008H1.60573C0.732147 19.0008 0.0214844 18.2881 0.0214844 17.4119V15.5712C0.280863 15.6976 0.571574 15.7687 0.878621 15.7687ZM4.07666 17.9235H6.94124C7.23788 17.9235 7.47835 17.6823 7.47835 17.3848C7.47835 17.0873 7.23788 16.8461 6.94124 16.8461H4.07666C3.78002 16.8461 3.53955 17.0873 3.53955 17.3848C3.53955 17.6823 3.78002 17.9235 4.07666 17.9235Z" fill="white"/>
</svg>
