<svg width="21" height="21" viewBox="0 0 21 25" fill="none" xmlns="http://www.w3.org/2000/svg">
<path fill-rule="evenodd" clip-rule="evenodd" d="M14.8534 1.64639C14.9471 1.74016 14.9998 1.86732 14.9998 1.9999C14.9998 2.13248 14.9471 2.25963 14.8534 2.35339L13.7069 3.4999H16.4999C17.4281 3.4999 18.3184 3.86864 18.9747 4.52502C19.6311 5.18138 19.9999 6.07163 19.9999 6.99988V7.99988C19.9999 8.13248 19.9472 8.25968 19.8534 8.35343C19.7597 8.44723 19.6325 8.49988 19.4999 8.49988C19.3673 8.49988 19.2401 8.44723 19.1463 8.35343C19.0525 8.25968 18.9999 8.13248 18.9999 7.99988V6.99988C18.9999 6.33683 18.7365 5.70098 18.2676 5.23213C17.7988 4.76329 17.1629 4.49989 16.4999 4.49989H13.7069L14.8534 5.64638C14.9011 5.69253 14.9392 5.74768 14.9654 5.80868C14.9916 5.86968 15.0054 5.93533 15.006 6.00168C15.0066 6.06808 14.9939 6.13393 14.9688 6.19538C14.9437 6.25683 14.9065 6.31263 14.8596 6.35958C14.8126 6.40653 14.7568 6.44368 14.6954 6.46883C14.6339 6.49393 14.5681 6.50658 14.5017 6.50603C14.4353 6.50543 14.3697 6.49163 14.3087 6.46543C14.2477 6.43923 14.1925 6.40113 14.1464 6.35338L12.1464 4.3534C12.0527 4.25963 12 4.13247 12 3.99989C12 3.86731 12.0527 3.74016 12.1464 3.64639L14.1464 1.64639C14.2402 1.55266 14.3673 1.5 14.4999 1.5C14.6325 1.5 14.7596 1.55266 14.8534 1.64639Z" fill="black"/>
<rect x="0.5" y="8.5" width="16" height="16" rx="1.5" stroke="black"/>
</svg>
