<svg width="14" height="15" viewBox="0 0 14 15" fill="none" xmlns="http://www.w3.org/2000/svg">
<path d="M0 1C0 0.447715 0.447715 0 1 0H4V10H0V1Z" fill="#C4C4C4"/>
<path d="M5 0H9V3H5V0Z" fill="#C4C4C4"/>
<rect x="6" y="1" width="2" height="1" fill="white"/>
<path d="M5 4H9V10H5V4Z" fill="#C4C4C4"/>
<rect x="6" y="5" width="2" height="1" fill="white"/>
<path d="M0 11H9V15H1C0.447715 15 0 14.5523 0 14V11Z" fill="#C4C4C4"/>
<path d="M10 0H13C13.5523 0 14 0.447715 14 1V14C14 14.5523 13.5523 15 13 15H10V0Z" fill="#C4C4C4"/>
<rect x="11" y="1" width="2" height="1" fill="white"/>
<rect x="1" y="1" width="2" height="1" fill="white"/>
<rect x="1" y="12" width="2" height="1" fill="white"/>
</svg>
