<svg width="16" height="16" viewBox="0 0 16 16" fill="none" xmlns="http://www.w3.org/2000/svg">
<path d="M12.6663 3.33301H11.9997V1.99967C11.9997 1.82286 11.9294 1.65329 11.8044 1.52827C11.6794 1.40325 11.5098 1.33301 11.333 1.33301C11.1562 1.33301 10.9866 1.40325 10.8616 1.52827C10.7366 1.65329 10.6663 1.82286 10.6663 1.99967V3.33301H5.33301V1.99967C5.33301 1.82286 5.26277 1.65329 5.13775 1.52827C5.01272 1.40325 4.84315 1.33301 4.66634 1.33301C4.48953 1.33301 4.31996 1.40325 4.19494 1.52827C4.06991 1.65329 3.99967 1.82286 3.99967 1.99967V3.33301H3.33301C2.80257 3.33301 2.29387 3.54372 1.91879 3.9188C1.54372 4.29387 1.33301 4.80258 1.33301 5.33301V5.99968H14.6663V5.33301C14.6663 4.80258 14.4556 4.29387 14.0806 3.9188C13.7055 3.54372 13.1968 3.33301 12.6663 3.33301Z" fill="#B6B6B6"/>
<path d="M1.33301 12.6663C1.33301 13.1968 1.54372 13.7055 1.91879 14.0806C2.29387 14.4556 2.80257 14.6663 3.33301 14.6663H12.6663C13.1968 14.6663 13.7055 14.4556 14.0806 14.0806C14.4556 13.7055 14.6663 13.1968 14.6663 12.6663V7.33301H1.33301V12.6663Z" fill="#B6B6B6"/>
</svg>
