<svg width="19" height="19" viewBox="0 0 19 19" fill="none" xmlns="http://www.w3.org/2000/svg">
<path d="M9.5 0.791687C7.77766 0.791687 6.09399 1.30242 4.66191 2.25931C3.22983 3.21619 2.11366 4.57624 1.45455 6.16748C0.795437 7.75872 0.622983 9.50968 0.958996 11.1989C1.29501 12.8882 2.1244 14.4399 3.34228 15.6577C4.56016 16.8756 6.11184 17.705 7.80109 18.041C9.49034 18.377 11.2413 18.2046 12.8325 17.5455C14.4238 16.8864 15.7838 15.7702 16.7407 14.3381C17.6976 12.906 18.2083 11.2224 18.2083 9.50002C18.2056 7.19126 17.2873 4.97785 15.6547 3.34531C14.0222 1.71277 11.8088 0.794411 9.5 0.791687ZM12.4347 12.4347C12.2863 12.5831 12.0849 12.6665 11.875 12.6665C11.6651 12.6665 11.4638 12.5831 11.3153 12.4347L8.9403 10.0597C8.79182 9.91129 8.70838 9.70996 8.70834 9.50002V4.75002C8.70834 4.54006 8.79175 4.33869 8.94021 4.19023C9.08868 4.04176 9.29004 3.95835 9.5 3.95835C9.70997 3.95835 9.91133 4.04176 10.0598 4.19023C10.2083 4.33869 10.2917 4.54006 10.2917 4.75002V9.17227L12.4347 11.3153C12.5831 11.4638 12.6665 11.6651 12.6665 11.875C12.6665 12.0849 12.5831 12.2863 12.4347 12.4347Z" fill="#4086F1"/>
</svg>
