<svg width="14" height="14" viewBox="0 0 14 14" fill="none" xmlns="http://www.w3.org/2000/svg">
    <g clip-path="url(#clip0_20_46842)">
        <path d="M7.99928 8.90094C7.86475 9.03539 7.6985 9.13812 7.51833 9.19819L5.77814 9.77824C5.65255 9.82013 5.52158 9.8414 5.38907 9.8414C5.38907 9.8414 5.38907 9.8414 5.38904 9.8414C5.06034 9.8414 4.75136 9.7134 4.51896 9.48098C4.18726 9.14919 4.0734 8.66674 4.22174 8.22177L4.80181 6.48167C4.86183 6.30145 4.96464 6.13509 5.09904 6.0007L8.85757 2.24219H1.50391C0.674652 2.24219 0 2.91684 0 3.74609V12.4961C0 13.3253 0.674652 14 1.50391 14H10.2539C11.0832 14 11.7578 13.3253 11.7578 12.4961V5.14243L7.99928 8.90094Z" fill="#4086F1" />
        <path d="M5.67911 6.58079C5.63408 6.62582 5.60017 6.6807 5.58005 6.7411L4.99998 8.48123C4.95084 8.62861 4.9892 8.79109 5.09904 8.90096C5.20891 9.01082 5.37139 9.04919 5.51877 9.00002L7.25893 8.41998C7.31936 8.39986 7.37421 8.36595 7.41924 8.32092L12.543 3.19716L10.8029 1.45703L5.67911 6.58079Z" fill="#4086F1" />
        <path d="M13.0264 0.200218C12.7594 -0.0667392 12.3266 -0.0667392 12.0596 0.200218L11.3829 0.876948L13.1231 2.6171L13.7998 1.94037C14.0667 1.67342 14.0667 1.24059 13.7998 0.973635L13.0264 0.200218Z" fill="#4086F1" />
    </g>
    <defs>
        <clipPath id="clip0_20_46842">
            <rect width="14" height="14" fill="white" />
        </clipPath>
    </defs>
</svg>