<svg width="14" height="14" viewBox="0 0 14 14" fill="none" xmlns="http://www.w3.org/2000/svg">
<g clip-path="url(#clip0_20_56053)">
<path d="M1.48233 6.82773C1.48233 6.82773 2.03544 7.64031 3.19471 8.32811C3.19471 8.32811 2.35512 1.23236 7.82559 0C6.42403 5.14393 9.6084 6.5946 10.7692 3.87696C12.7077 6.46507 11.2358 8.72307 11.2358 8.72307C12.0307 8.83758 12.6984 7.9692 12.6984 7.9692C12.7043 8.07617 12.7077 8.18388 12.7077 8.29235C12.7077 11.4446 10.1523 14 7 14C3.84773 14 1.29232 11.4446 1.29232 8.29232C1.29232 7.78597 1.3586 7.29515 1.48233 6.82773Z" fill="#FF6536"/>
<path d="M12.6984 7.9692C12.6984 7.9692 12.0307 8.83758 11.2358 8.72307C11.2358 8.72307 12.7077 6.46507 10.7692 3.87696C9.60843 6.5946 6.42406 5.14393 7.82562 0C7.53263 0.0660078 7.25788 0.148941 7 0.246586V14C10.1523 14 12.7077 11.4446 12.7077 8.29232C12.7077 8.18385 12.7043 8.07617 12.6984 7.9692Z" fill="#FF421D"/>
<path d="M4.49684 11.4969C4.49684 12.8793 5.61755 14 7 14C8.38244 14 9.50315 12.8793 9.50315 11.4969C9.50315 10.7569 9.18211 10.092 8.67169 9.63371C7.70388 10.9485 6.32472 8.95405 7.39954 7.49756C7.39954 7.49756 4.49684 7.86131 4.49684 11.4969Z" fill="#FBBF00"/>
<path d="M9.50316 11.4969C9.50316 10.7569 9.18211 10.092 8.67169 9.63371C7.70388 10.9485 6.32472 8.95405 7.39955 7.49756C7.39955 7.49756 7.24183 7.51738 7 7.5937V14C8.38245 14 9.50316 12.8793 9.50316 11.4969Z" fill="#FFA900"/>
</g>
<defs>
<clipPath id="clip0_20_56053">
<rect width="14" height="14" fill="white"/>
</clipPath>
</defs>
</svg>
