<svg width="18" height="18" viewBox="0 0 18 18" fill="none" xmlns="http://www.w3.org/2000/svg">
<path d="M15.5 17.75H11.4375C11.2717 17.75 11.1128 17.6842 10.9956 17.5669C10.8783 17.4497 10.8125 17.2908 10.8125 17.125C10.8125 16.9592 10.8783 16.8003 10.9956 16.6831C11.1128 16.5658 11.2717 16.5 11.4375 16.5H15.5C15.7652 16.5 16.0196 16.3946 16.2071 16.2071C16.3946 16.0196 16.5 15.7652 16.5 15.5V11.4375C16.5 11.2717 16.5658 11.1128 16.6831 10.9956C16.8003 10.8783 16.9592 10.8125 17.125 10.8125C17.2908 10.8125 17.4497 10.8783 17.5669 10.9956C17.6842 11.1128 17.75 11.2717 17.75 11.4375V15.5C17.7484 16.0962 17.5108 16.6676 17.0892 17.0892C16.6676 17.5108 16.0962 17.7484 15.5 17.75ZM7.1875 17.125C7.1875 16.9592 7.12165 16.8003 7.00444 16.6831C6.88723 16.5658 6.72826 16.5 6.5625 16.5H2.5C2.23478 16.5 1.98043 16.3946 1.79289 16.2071C1.60536 16.0196 1.5 15.7652 1.5 15.5V11.4375C1.5 11.2717 1.43415 11.1128 1.31694 10.9956C1.19973 10.8783 1.04076 10.8125 0.875 10.8125C0.70924 10.8125 0.550268 10.8783 0.433058 10.9956C0.315848 11.1128 0.25 11.2717 0.25 11.4375V15.5C0.251649 16.0962 0.489232 16.6676 0.910832 17.0892C1.33243 17.5108 1.90377 17.7484 2.5 17.75H6.5625C6.72826 17.75 6.88723 17.6842 7.00444 17.5669C7.12165 17.4497 7.1875 17.2908 7.1875 17.125ZM1.5 6.5625V2.5C1.5 2.23478 1.60536 1.98043 1.79289 1.79289C1.98043 1.60536 2.23478 1.5 2.5 1.5H6.5625C6.72826 1.5 6.88723 1.43415 7.00444 1.31694C7.12165 1.19973 7.1875 1.04076 7.1875 0.875C7.1875 0.70924 7.12165 0.550268 7.00444 0.433058C6.88723 0.315848 6.72826 0.25 6.5625 0.25H2.5C1.90377 0.251649 1.33243 0.489232 0.910832 0.910832C0.489232 1.33243 0.251649 1.90377 0.25 2.5V6.5625C0.25 6.72826 0.315848 6.88723 0.433058 7.00444C0.550268 7.12165 0.70924 7.1875 0.875 7.1875C1.04076 7.1875 1.19973 7.12165 1.31694 7.00444C1.43415 6.88723 1.5 6.72826 1.5 6.5625ZM17.75 6.5625V2.5C17.7484 1.90377 17.5108 1.33243 17.0892 0.910832C16.6676 0.489232 16.0962 0.251649 15.5 0.25H11.4375C11.2717 0.25 11.1128 0.315848 10.9956 0.433058C10.8783 0.550268 10.8125 0.70924 10.8125 0.875C10.8125 1.04076 10.8783 1.19973 10.9956 1.31694C11.1128 1.43415 11.2717 1.5 11.4375 1.5H15.5C15.7652 1.5 16.0196 1.60536 16.2071 1.79289C16.3946 1.98043 16.5 2.23478 16.5 2.5V6.5625C16.5 6.72826 16.5658 6.88723 16.6831 7.00444C16.8003 7.12165 16.9592 7.1875 17.125 7.1875C17.2908 7.1875 17.4497 7.12165 17.5669 7.00444C17.6842 6.88723 17.75 6.72826 17.75 6.5625Z" fill="#BABABA"/>
</svg>
