<svg width="19" height="19" viewBox="0 0 19 19" fill="none" xmlns="http://www.w3.org/2000/svg">
<g clip-path="url(#clip0_3_95459)">
<path d="M18.798 7.72083L9.79166 1.1266C9.61799 0.999466 9.38205 0.999466 9.20845 1.1266L0.202082 7.72083C-0.0179024 7.88192 -0.0656992 8.19082 0.0953925 8.4108C0.256484 8.63079 0.56542 8.67851 0.785367 8.51749L9.50002 2.13676L18.2147 8.51745C18.3025 8.58184 18.4047 8.61282 18.5059 8.61282C18.6579 8.61282 18.8079 8.54287 18.9046 8.41076C19.0657 8.19082 19.0179 7.88192 18.798 7.72083Z" fill="#DBBB95"/>
<path d="M16.4113 8.62988C16.1387 8.62988 15.9176 8.85091 15.9176 9.12355V16.9814H11.9684V12.6921C11.9684 11.3309 10.861 10.2236 9.49986 10.2236C8.13877 10.2236 7.03135 11.331 7.03135 12.6921V16.9815H3.08206V9.12359C3.08206 8.85094 2.861 8.62992 2.58839 8.62992C2.31579 8.62992 2.09473 8.85094 2.09473 9.12359V17.4752C2.09473 17.7478 2.31579 17.9688 2.58839 17.9688H7.52501C7.78463 17.9688 7.99708 17.7683 8.01675 17.5136C8.01794 17.5021 8.01868 17.4894 8.01868 17.4752V12.6921C8.01868 11.8754 8.68312 11.211 9.49986 11.211C10.3166 11.211 10.981 11.8754 10.981 12.6921V17.4752C10.981 17.4894 10.9818 17.5018 10.983 17.5132C11.0024 17.768 11.2149 17.9688 11.4747 17.9688H16.4113C16.684 17.9688 16.905 17.7478 16.905 17.4752V9.12359C16.905 8.85091 16.6839 8.62988 16.4113 8.62988Z" fill="#DBBB95"/>
</g>
<defs>
<clipPath id="clip0_3_95459">
<rect width="19" height="19" fill="white"/>
</clipPath>
</defs>
</svg>
