<svg width="15" height="15" viewBox="0 0 15 15" fill="none" xmlns="http://www.w3.org/2000/svg">
<path d="M0 0.5C0 0.223858 0.223858 0 0.5 0C0.776142 0 1 0.223858 1 0.5V14.5C1 14.7761 0.776142 15 0.5 15C0.223858 15 0 14.7761 0 14.5V0.5Z" fill="#C4C4C4"/>
<path d="M0.5 15C0.223858 15 0 14.7761 0 14.5C0 14.2239 0.223858 14 0.5 14H14.5C14.7761 14 15 14.2239 15 14.5C15 14.7761 14.7761 15 14.5 15H0.5Z" fill="#C4C4C4"/>
<path d="M2.5 4C2.22386 4 2 3.77614 2 3.5C2 3.22386 2.22386 3 2.5 3H5.5C5.77614 3 6 3.22386 6 3.5C6 3.77614 5.77614 4 5.5 4L2.5 4Z" fill="#C4C4C4"/>
<path d="M2.5 10C2.22386 10 2 9.77614 2 9.5C2 9.22386 2.22386 9 2.5 9H5.5C5.77614 9 6 9.22386 6 9.5C6 9.77614 5.77614 10 5.5 10H2.5Z" fill="#C4C4C4"/>
<path d="M7.5 12C7.22386 12 7 11.7761 7 11.5C7 11.2239 7.22386 11 7.5 11H13.5C13.7761 11 14 11.2239 14 11.5C14 11.7761 13.7761 12 13.5 12H7.5Z" fill="#C4C4C4"/>
<path d="M3.5 6C3.22386 6 3 5.77614 3 5.5C3 5.22386 3.22386 5 3.5 5H8.5C8.77614 5 9 5.22386 9 5.5C9 5.77614 8.77614 6 8.5 6L3.5 6Z" fill="#C4C4C4"/>
<path d="M2.5 8C2.22386 8 2 7.77614 2 7.5C2 7.22386 2.22386 7 2.5 7L11.5 7C11.7761 7 12 7.22386 12 7.5C12 7.77614 11.7761 8 11.5 8H2.5Z" fill="#C4C4C4"/>
</svg>
