<svg width="27" height="31" viewBox="0 0 27 31" fill="none" xmlns="http://www.w3.org/2000/svg">
    <rect x="0.25" y="3.25" width="26.5" height="27.5" rx="1.75" stroke="#DCDCDC" stroke-width="0.5"></rect>
    <path d="M8.75 16.6667C8.75 16.7 8.7461 16.7282 8.741 16.75H5.259C5.2539 16.7282 5.25 16.7 5.25 16.6667V13.3333C5.25 13.3 5.2539 13.2718 5.259 13.25H8.741C8.7461 13.2718 8.75 13.3 8.75 13.3333V16.6667Z" stroke="#DCDCDC" stroke-width="0.5"></path>
    <path d="M15.75 16.6667C15.75 16.7 15.7461 16.7282 15.741 16.75H12.259C12.2539 16.7282 12.25 16.7 12.25 16.6667V13.3333C12.25 13.3 12.2539 13.2718 12.259 13.25H15.741C15.7461 13.2718 15.75 13.3 15.75 13.3333V16.6667Z" stroke="#DCDCDC" stroke-width="0.5"></path>
    <path d="M22.75 16.6667C22.75 16.7 22.7461 16.7282 22.741 16.75H19.259C19.2539 16.7282 19.25 16.7 19.25 16.6667V13.3333C19.25 13.3 19.2539 13.2718 19.259 13.25H22.741C22.7461 13.2718 22.75 13.3 22.75 13.3333V16.6667Z" stroke="#DCDCDC" stroke-width="0.5"></path>
    <path d="M8.75 22.6667C8.75 22.7 8.7461 22.7282 8.741 22.75H5.259C5.2539 22.7282 5.25 22.7 5.25 22.6667V19.3333C5.25 19.3 5.2539 19.2718 5.259 19.25H8.741C8.7461 19.2718 8.75 19.3 8.75 19.3333V22.6667Z" stroke="#DCDCDC" stroke-width="0.5"></path>
    <path d="M15.75 22.6667C15.75 22.7 15.7461 22.7282 15.741 22.75H12.259C12.2539 22.7282 12.25 22.7 12.25 22.6667V19.3333C12.25 19.3 12.2539 19.2718 12.259 19.25H15.741C15.7461 19.2718 15.75 19.3 15.75 19.3333V22.6667Z" stroke="#DCDCDC" stroke-width="0.5"></path>
    <path d="M22.75 22.6667C22.75 22.7 22.7461 22.7282 22.741 22.75H19.259C19.2539 22.7282 19.25 22.7 19.25 22.6667V19.3333C19.25 19.3 19.2539 19.2718 19.259 19.25H22.741C22.7461 19.2718 22.75 19.3 22.75 19.3333V22.6667Z" stroke="#DCDCDC" stroke-width="0.5"></path>
    <path d="M8.75 28.6667C8.75 28.7 8.7461 28.7282 8.741 28.75H5.259C5.2539 28.7282 5.25 28.7 5.25 28.6667V25.3333C5.25 25.3 5.2539 25.2718 5.259 25.25H8.741C8.7461 25.2718 8.75 25.3 8.75 25.3333V28.6667Z" stroke="#DCDCDC" stroke-width="0.5"></path>
    <path d="M15.75 28.6667C15.75 28.7 15.7461 28.7282 15.741 28.75H12.259C12.2539 28.7282 12.25 28.7 12.25 28.6667V25.3333C12.25 25.3 12.2539 25.2718 12.259 25.25H15.741C15.7461 25.2718 15.75 25.3 15.75 25.3333V28.6667Z" stroke="#DCDCDC" stroke-width="0.5"></path>
    <path d="M22.75 28.6667C22.75 28.7 22.7461 28.7282 22.741 28.75H19.259C19.2539 28.7282 19.25 28.7 19.25 28.6667V25.3333C19.25 25.3 19.2539 25.2718 19.259 25.25H22.741C22.7461 25.2718 22.75 25.3 22.75 25.3333V28.6667Z" stroke="#DCDCDC" stroke-width="0.5"></path>
    <path d="M0.5 11.2H26.5" stroke="#DCDCDC" stroke-width="0.5" stroke-linecap="square"></path>
    <rect x="4.25" y="0.25" width="2.5" height="7.5" rx="1.25" fill="white" stroke="#DCDCDC" stroke-width="0.5"></rect>
    <rect x="20.25" y="0.25" width="2.5" height="7.5" rx="1.25" fill="white" stroke="#DCDCDC" stroke-width="0.5"></rect>
</svg>