<?xml version="1.0" encoding="UTF-8"?>
<svg width="12px" height="12px" viewBox="0 0 12 12" version="1.1" xmlns="http://www.w3.org/2000/svg" xmlns:xlink="http://www.w3.org/1999/xlink">
    <title>calendar-6</title>
    <g id="Page-1" stroke="none" stroke-width="1" fill="none" fill-rule="evenodd">
        <g id="1,1-поп-ап-срок-хранения" transform="translate(-484.000000, -361.000000)" fill="#979797" fill-rule="nonzero">
            <g id="Group-19" transform="translate(461.000000, 276.000000)">
                <g id="calendar-6" transform="translate(23.000000, 85.000000)">
                    <path d="M8.8125,2.8125 C8.42416406,2.8125 8.109375,2.49771094 8.109375,2.109375 L8.109375,0.703125 C8.109375,0.314789063 8.42416406,0 8.8125,0 C9.20083594,0 9.515625,0.314789062 9.515625,0.703125 L9.515625,2.109375 C9.515625,2.49771094 9.20083594,2.8125 8.8125,2.8125 Z" id="Path"></path>
                    <path d="M10.7109375,1.40625 L10.21875,1.40625 L10.21875,2.109375 C10.21875,2.88478125 9.58790625,3.515625 8.8125,3.515625 C8.03709375,3.515625 7.40625,2.88478125 7.40625,2.109375 L7.40625,1.40625 L4.59375,1.40625 L4.59375,2.109375 C4.59375,2.88478125 3.96290625,3.515625 3.1875,3.515625 C2.41209375,3.515625 1.78125,2.88478125 1.78125,2.109375 L1.78125,1.40625 L1.2890625,1.40625 C0.578273437,1.40625 0,1.98452344 0,2.6953125 L0,4.265625 L12,4.265625 L12,2.6953125 C12,1.98452344 11.4217266,1.40625 10.7109375,1.40625 Z" id="Path"></path>
                    <path d="M3.1875,2.8125 C2.79916406,2.8125 2.484375,2.49771094 2.484375,2.109375 L2.484375,0.703125 C2.484375,0.314789063 2.79916406,0 3.1875,0 C3.57583594,0 3.890625,0.314789062 3.890625,0.703125 L3.890625,2.109375 C3.890625,2.49771094 3.57583594,2.8125 3.1875,2.8125 Z" id="Path"></path>
                    <path d="M0,4.96875 L0,10.7109375 C0,11.4217266 0.578273437,12 1.2890625,12 L10.7109375,12 C11.4217266,12 12,11.4217266 12,10.7109375 L12,4.96875 L0,4.96875 Z" id="Shape"></path>
                </g>
            </g>
        </g>
    </g>
</svg>