<?xml version="1.0" encoding="UTF-8"?>
<svg width="30px" height="30px" viewBox="0 0 30 30" version="1.1" xmlns="http://www.w3.org/2000/svg" xmlns:xlink="http://www.w3.org/1999/xlink">
    <title>check-2</title>
    <g id="Page-1" stroke="none" stroke-width="1" fill="none" fill-rule="evenodd">
        <g id="3,4-Новый-пароль-Поп-ап" transform="translate(-706.000000, -387.000000)" fill="#39B31E" fill-rule="nonzero">
            <g id="Group-2" transform="translate(511.000000, 292.000000)">
                <g id="check-2" transform="translate(195.000000, 95.000000)">
                    <path d="M15,0 C6.72866824,0 0,6.72866824 0,15 C0,23.2713318 6.72866824,30 15,30 C23.2713318,30 30,23.2713318 30,15 C30,6.72866824 23.2713318,0 15,0 Z M22.6025391,11.8212891 L14.4774628,19.9461364 C14.2337036,20.1898956 13.9137268,20.3125763 13.59375,20.3125763 C13.2737732,20.3125763 12.9537964,20.1898956 12.7100372,19.9461364 L8.64761355,15.8837128 C8.15872195,15.3950501 8.15872195,14.6049499 8.64761355,14.1162872 C9.13627623,13.6273956 9.92614746,13.6273956 10.4150391,14.1162872 L13.59375,17.2949982 L20.8351136,10.0538636 C21.3237762,9.56497195 22.1136475,9.56497195 22.6025391,10.0538636 C23.0912018,10.5425262 23.0912018,11.3323975 22.6025391,11.8212891 Z" id="Shape"></path>
                </g>
            </g>
        </g>
    </g>
</svg>