<?xml version="1.0" encoding="UTF-8"?>
<svg width="12px" height="12px" viewBox="0 0 12 12" version="1.1" xmlns="http://www.w3.org/2000/svg" xmlns:xlink="http://www.w3.org/1999/xlink">
    <title>clock</title>
    <g id="Page-1" stroke="none" stroke-width="1" fill="none" fill-rule="evenodd">
        <g id="1,1-поп-ап-срок-хранения" transform="translate(-484.000000, -461.000000)" fill="#979797" fill-rule="nonzero">
            <g id="Group-19" transform="translate(461.000000, 276.000000)">
                <g id="clock" transform="translate(23.000000, 185.000000)">
                    <path d="M6,0 C2.6914673,0 0,2.6914673 0,6 C0,9.3085327 2.6914673,12 6,12 C9.3085327,12 12,9.3085327 12,6 C12,2.6914673 9.3085327,0 6,0 Z M8.85351562,9.10345458 C8.75601197,9.20095826 8.62802123,9.25003052 8.50003052,9.25003052 C8.37203979,9.25003052 8.24395753,9.20095826 8.14654542,9.10345458 L5.6465149,6.60351562 C5.55249023,6.51004029 5.50003052,6.38296509 5.50003052,6.25003052 L5.50003052,3 C5.50003052,2.72351074 5.7239685,2.50003052 6,2.50003052 C6.2760315,2.50003052 6.49996948,2.72351074 6.49996948,3 L6.49996948,6.0430298 L8.85351562,8.39648438 C9.04898072,8.59204102 9.04898072,8.90798951 8.85351562,9.10345458 L8.85351562,9.10345458 Z" id="Shape"></path>
                </g>
            </g>
        </g>
    </g>
</svg>