<?xml version="1.0" encoding="UTF-8"?>
<svg width="9px" height="16px" viewBox="0 0 9 16" version="1.1" xmlns="http://www.w3.org/2000/svg" xmlns:xlink="http://www.w3.org/1999/xlink">
    <title>facebook-logo</title>
    <g id="Page-1" stroke="none" stroke-width="1" fill="none" fill-rule="evenodd">
        <g id="3-Вход" transform="translate(-574.000000, -593.000000)" fill="#FFFFFF" fill-rule="nonzero">
            <g id="Group-4" transform="translate(492.000000, 244.000000)">
                <g id="facebook" transform="translate(19.488218, 337.366716)">
                    <g id="facebook-logo" transform="translate(63.000000, 12.000000)">
                        <path d="M8.03801303,0.00313150024 L6.03769695,0 C3.79041043,0 2.33811515,1.45379898 2.33811515,3.70393848 L2.33811515,5.41170213 L0.326886792,5.41170213 C0.153092784,5.41170213 0.0123565454,5.54917499 0.0123565454,5.71874573 L0.0123565454,8.19310064 C0.0123565454,8.36267138 0.153253258,8.49998766 0.326886792,8.49998766 L2.33811515,8.49998766 L2.33811515,14.7435728 C2.33811515,14.9131436 2.47885139,15.0504599 2.6526454,15.0504599 L5.27672632,15.0504599 C5.45052033,15.0504599 5.59125656,14.912987 5.59125656,14.7435728 L5.59125656,8.49998766 L7.94285159,8.49998766 C8.11664559,8.49998766 8.25738183,8.36267138 8.25738183,8.19310064 L8.25834468,5.71874573 C8.25834468,5.63732672 8.22512643,5.55935237 8.16623225,5.50173276 C8.10733807,5.44411316 8.02710076,5.41170213 7.94365396,5.41170213 L5.59125656,5.41170213 L5.59125656,3.96400957 C5.59125656,3.26819022 5.76119918,2.91495699 6.69018673,2.91495699 L8.03769208,2.91448727 C8.21132562,2.91448727 8.35206186,2.77701441 8.35206186,2.60760025 L8.35206186,0.310018523 C8.35206186,0.140760936 8.21148609,0.00344465026 8.03801303,0.00313150024 Z" id="Path"></path>
                    </g>
                </g>
            </g>
        </g>
    </g>
</svg>