<svg width="60" height="60" viewBox="0 0 60 60" fill="none" xmlns="http://www.w3.org/2000/svg">
<circle cx="30" cy="30" r="30" fill="#531754"/>
<path d="M24.1488 31.8418C21.9216 31.8418 20.1152 33.6482 20.1152 35.8754V45.965C20.1152 48.1922 21.9216 49.9986 24.1488 49.9986C26.376 49.9986 28.1824 48.1922 28.1824 45.965V35.8754C28.1808 33.6482 26.3744 31.8418 24.1488 31.8418Z" fill="#E91E63"/>
<path d="M10.0303 35.8757C10.0303 38.1045 11.8383 39.9125 14.0671 39.9125C16.2959 39.9125 18.1039 38.1045 18.1039 35.8757V31.8389H14.0703C14.0687 31.8389 14.0687 31.8389 14.0671 31.8389C11.8383 31.8389 10.0303 33.6469 10.0303 35.8757Z" fill="#E91E63"/>
<path d="M24.1539 11.5986C24.1523 11.5986 24.1507 11.5986 24.1491 11.5986C21.9203 11.5986 20.1123 13.4066 20.1123 15.6354C20.1123 17.8642 21.9203 19.6722 24.1491 19.6722H28.1827V15.6354C28.1827 15.6338 28.1827 15.6306 28.1827 15.6274C28.1811 13.4018 26.3779 11.5986 24.1539 11.5986Z" fill="#00BCD4"/>
<path d="M14.0397 29.7923H24.1485C26.3773 29.7923 28.1853 27.9844 28.1853 25.7555C28.1853 23.5267 26.3773 21.7188 24.1485 21.7188H14.0397C11.8109 21.7188 10.0029 23.5267 10.0029 25.7555C10.0029 27.9844 11.8109 29.7923 14.0397 29.7923Z" fill="#00BCD4"/>
<path d="M44.3315 21.7168C42.1059 21.7168 40.3027 23.52 40.3027 25.7456V25.7536V29.7904H44.3363C46.5651 29.7904 48.3731 27.9824 48.3731 25.7536C48.3731 23.5248 46.5651 21.7168 44.3363 21.7168C44.3347 21.7168 44.3331 21.7168 44.3315 21.7168V21.7168Z" fill="#4CAF50"/>
<path d="M30.2256 15.6352V25.7552C30.2256 27.9824 32.032 29.7888 34.2592 29.7888C36.4864 29.7888 38.2928 27.9824 38.2928 25.7552V15.6352C38.2928 13.408 36.4864 11.6016 34.2592 11.6016C32.032 11.6016 30.2256 13.408 30.2256 15.6352H30.2256Z" fill="#4CAF50"/>
<path d="M38.2918 45.9613C38.2918 43.7341 36.4854 41.9277 34.2582 41.9277H30.2246V45.9645C30.2262 48.1901 32.031 49.9949 34.2582 49.9949C36.4854 49.9949 38.2918 48.1885 38.2918 45.9613Z" fill="#FF9800"/>
<path d="M44.3663 31.8379H34.2575C32.0287 31.8379 30.2207 33.6459 30.2207 35.8747C30.2207 38.1035 32.0287 39.9115 34.2575 39.9115H44.3663C46.5951 39.9115 48.4031 38.1035 48.4031 35.8747C48.4031 33.6459 46.5951 31.8379 44.3663 31.8379V31.8379Z" fill="#FF9800"/>
</svg>
