<?xml version="1.0" encoding="UTF-8"?>
<svg width="28px" height="33px" viewBox="0 0 28 33" version="1.1" xmlns="http://www.w3.org/2000/svg" xmlns:xlink="http://www.w3.org/1999/xlink">
    <title>Group 11</title>
    <g id="Page-1" stroke="none" stroke-width="1" fill="none" fill-rule="evenodd">
        <g id="1,1-поп-ап-срок-хранения" transform="translate(-481.000000, -292.000000)" fill-rule="nonzero">
            <g id="Group-11" transform="translate(481.000000, 293.000000)">
                <path d="M5.78571429,0 C4.725,0 3.85714286,0.871875 3.85714286,1.9375 L3.85714286,29.0625 C3.85714286,30.128125 4.725,31 5.78571429,31 L25.0714286,31 C26.1321429,31 27,30.128125 27,29.0625 L27,7.75 L19.2857143,0 L5.78571429,0 Z" id="Path" stroke="#E3E3E3" stroke-width="0.5" fill="#FFFFFF"></path>
                <path d="M21.2142857,7.75 L27,7.75 L19.2857143,0 L19.2857143,5.8125 C19.2857143,6.878125 20.1535714,7.75 21.2142857,7.75 Z" id="Path" fill="#DCDCDC"></path>
                <path d="M23.1428571,25.1229167 C23.1428571,25.6557292 22.7089286,26.0916667 22.1785714,26.0916667 L0.964285714,26.0916667 C0.433928571,26.0916667 -6.39488462e-14,25.6557292 -6.39488462e-14,25.1229167 L-6.39488462e-14,15.4354167 C-6.39488462e-14,14.9026042 0.433928571,14.4666667 0.964285714,14.4666667 L22.1785714,14.4666667 C22.7089286,14.4666667 23.1428571,14.9026042 23.1428571,15.4354167 L23.1428571,25.1229167 Z" id="Path" fill="#DCDCDC"></path>
                <g id="down-arrow-2" transform="translate(6.954545, 15.706667)" fill="#FFFFFF">
                    <path d="M8.98900204,4.54111066 C8.98900204,2.03720299 6.97270876,0 4.49450102,0 C2.01629328,0 0,2.03720299 0,4.54111066 C0,7.04501833 2.01629328,9.08222132 4.49450102,9.08222132 C6.97270876,9.08222132 8.98900204,7.04501833 8.98900204,4.54111066 Z M0.449083503,4.54111066 C0.449083503,2.28722335 2.26374745,0.453740665 4.49450102,0.453740665 C6.72525458,0.453740665 8.53991853,2.28722335 8.53991853,4.54111066 C8.53991853,6.79499796 6.72525458,8.62848065 4.49450102,8.62848065 C2.26374745,8.62848065 0.449083503,6.79499796 0.449083503,4.54111066 Z" id="Shape"></path>
                    <path d="M4.65397149,6.67461779 L5.91690428,5.39858792 C6.00488798,5.30969179 6.00488798,5.16708758 5.91690428,5.07819145 C5.82892057,4.98929532 5.68778004,4.98929532 5.59979633,5.07819145 L4.71995927,5.96715275 L4.71995927,2.56872777 C4.71995927,2.44279158 4.6191446,2.34093143 4.49450102,2.34093143 C4.36985743,2.34093143 4.26904277,2.44279158 4.26904277,2.56872777 L4.26904277,5.96530075 L3.3892057,5.07633944 C3.301222,4.98744331 3.16008147,4.98744331 3.07209776,5.07633944 C2.98411405,5.16523557 2.98411405,5.30783978 3.07209776,5.39673591 L4.33503055,6.67276578 C4.3790224,6.71721385 4.43584521,6.73943788 4.49450102,6.73943788 C4.55315682,6.73943788 4.60997963,6.71906585 4.65397149,6.67461779 Z" id="Path"></path>
                </g>
            </g>
        </g>
    </g>
</svg>