<svg width="60" height="60" viewBox="0 0 60 60" fill="none" xmlns="http://www.w3.org/2000/svg">
<path d="M54.6582 17.8125H5.43945C4.46785 17.8125 3.68164 17.0263 3.68164 16.0547V5.27344C3.68164 2.36555 6.04719 0 8.95508 0H51.1426C54.0505 0 56.416 2.36555 56.416 5.27344V16.0547C56.416 17.0263 55.6298 17.8125 54.6582 17.8125Z" fill="#E3E7EA"/>
<path d="M51.1426 0H30.0488V17.8125H54.6582C55.6298 17.8125 56.416 17.0263 56.416 16.0547V5.27344C56.416 2.36555 54.0505 0 51.1426 0Z" fill="#BABAC0"/>
<path d="M3.61379 37.1482C3.61438 37.1456 3.61461 37.1443 3.61461 37.1443L0.117502 20.4844C-0.128592 18.9023 0.293283 17.3202 1.27778 16.16C2.29719 14.9648 3.77363 14.2969 5.32051 14.2969H54.68C56.2269 14.2969 57.7034 14.9648 58.7229 16.16C59.7073 17.3203 60.1292 18.9023 59.8831 20.4141L56.386 37.1527L59.8831 53.8125C60.1292 55.3945 59.7073 56.9767 58.7229 58.1366C57.7034 59.332 56.227 60 54.6801 60H5.32051C3.77363 60 2.29707 59.332 1.27766 58.1366C0.293283 56.9766 -0.128592 55.3945 0.117502 53.8828C0.117502 53.8828 3.55309 37.4385 3.61379 37.1482Z" fill="#4086F4"/>
<path d="M3.61461 37.1443C3.61461 37.1443 3.61438 37.1456 3.61379 37.1482H56.387L59.8831 20.4141C60.1292 18.9023 59.7073 17.3203 58.7229 16.16C57.7034 14.9648 56.227 14.2969 54.6801 14.2969H5.32051C3.77363 14.2969 2.29707 14.9648 1.27766 16.16C0.293283 17.3203 -0.128592 18.9023 0.117502 20.4844L3.61461 37.1443Z" fill="#4175DF"/>
<circle cx="12.4219" cy="8.78906" r="1.75781" fill="#FFF5F5"/>
<circle cx="47.5781" cy="8.78906" r="1.75781" fill="#E3E7EA"/>
<path d="M22.9684 49.4531C19.9953 49.4531 17.3294 47.57 16.3389 44.765C16.0144 43.85 16.4933 42.8459 17.4101 42.5231C18.3216 42.197 19.3293 42.6793 19.652 43.5943C20.1481 44.9951 21.4818 45.9375 22.9684 45.9375C24.9065 45.9375 26.4841 44.3599 26.4841 42.4219C26.4841 40.4838 24.9065 38.9062 22.9684 38.9062H20.7832C19.8134 38.9062 19.0254 38.12 19.0254 37.1484C19.0254 36.1768 19.8134 35.3906 20.7832 35.3906H22.9684C24.9065 35.3906 26.4841 33.813 26.4841 31.875C26.4841 29.937 24.9065 28.3594 22.9684 28.3594C21.4818 28.3594 20.1481 29.3018 19.6519 30.7025C19.3292 31.6192 18.3198 32.0999 17.41 31.7737C16.4933 31.451 16.0144 30.4468 16.3388 29.5318C17.3294 26.7268 19.9953 24.8438 22.9684 24.8438C26.8463 24.8438 29.9997 27.9971 29.9997 31.875C29.9997 33.9727 29.0761 35.8593 27.6136 37.1484C29.0761 38.4376 29.9997 40.3242 29.9997 42.4219C29.9997 46.2997 26.8463 49.4531 22.9684 49.4531Z" fill="#FFF5F5"/>
<path d="M17.4099 31.7737C18.3198 32.0999 19.3291 31.6193 19.6518 30.7025C20.148 29.3018 21.4818 28.3594 22.9684 28.3594C24.9064 28.3594 26.484 29.937 26.484 31.875C26.484 33.813 24.9064 35.3906 22.9684 35.3906H20.7832C19.8133 35.3906 19.0255 36.1767 19.0254 37.1482H27.6138C29.0762 35.859 29.9996 33.9725 29.9996 31.875C29.9996 27.9971 26.8462 24.8438 22.9684 24.8438C19.9952 24.8438 17.3293 26.7268 16.3388 29.5318C16.0143 30.4468 16.4933 31.451 17.4099 31.7737Z" fill="#E3E7EA"/>
<path d="M40.5466 49.4529C39.5749 49.4529 38.7887 48.6667 38.7887 47.6951V29.8852L36.2481 31.5795C35.4379 32.115 34.3478 31.8988 33.8105 31.092C33.2714 30.2835 33.4895 29.1934 34.298 28.6544L39.5714 25.1387C40.1105 24.7799 40.8057 24.7457 41.3757 25.0512C41.9473 25.3568 42.3044 25.9525 42.3044 26.6014V47.6951C42.3044 48.6667 41.5182 49.4529 40.5466 49.4529Z" fill="#FFF5F5"/>
<path d="M36.2481 31.5794L38.7887 29.8851V37.1478H42.3044V26.6013C42.3044 25.9524 41.9473 25.3568 41.3757 25.0512C40.8058 24.7456 40.1105 24.78 39.5714 25.1387L34.298 28.6543C33.4895 29.1934 33.2714 30.2833 33.8105 31.0919C34.3479 31.8988 35.4379 32.1151 36.2481 31.5794Z" fill="#E3E7EA"/>
</svg>
