<svg width="60" height="53" viewBox="0 0 60 53" fill="none" xmlns="http://www.w3.org/2000/svg">
<path d="M29.929 15.4711L17.4838 37.1177H17.4486L24.6557 45.9314L8.48389 52.7356C8.16737 52.5593 7.92128 52.3125 7.78077 52.0658L0.186901 37.9638C-0.199818 37.188 0.116706 36.5888 0.222057 36.2363L20.5776 0.981288C20.7182 0.769758 20.9291 0.558228 21.2105 0.381836H21.2456L31.6869 3.62541L29.929 15.4711Z" fill="#59C36A"/>
<path d="M59.9648 37.1175L45.8672 45.9312L42.5273 37.1175L29.9297 15.4709L21.2461 0.381532C21.492 0.205257 21.8085 0.0996094 22.0898 0.0996094H37.8866C38.2383 0.205257 38.9414 0.170002 39.3983 0.980984L59.7539 36.236C59.8944 36.4829 59.9648 36.8001 59.9648 37.1175Z" fill="#FFDA2D"/>
<path d="M39.3973 0.980984C38.9405 0.170002 38.2373 0.205257 37.8856 0.0996094H29.9287V15.4708L42.5264 37.1173L45.8662 45.9311L59.9639 37.1173C59.9639 36.7999 59.8934 36.4828 59.7529 36.236L39.3973 0.980984Z" fill="#FDBF00"/>
<path d="M59.9648 37.1172C59.9648 37.4344 59.8944 37.7518 59.7891 37.9633L52.1952 52.0653C51.9138 52.5236 51.2461 52.9819 50.6483 52.9819H9.32812C9.04676 52.9819 8.73035 52.876 8.48438 52.7351L17.4492 37.1172L59.9648 37.1172Z" fill="#4086F4"/>
<path d="M29.9287 52.9819H50.6475C51.2452 52.9819 51.9131 52.5236 52.1943 52.0653L59.7882 37.9633C59.8936 37.7518 59.964 37.4344 59.964 37.1172H29.9288V52.9819H29.9287Z" fill="#4175DF"/>
</svg>
