<?xml version="1.0" encoding="UTF-8"?>
<svg width="25px" height="17px" viewBox="0 0 25 17" version="1.1" xmlns="http://www.w3.org/2000/svg" xmlns:xlink="http://www.w3.org/1999/xlink">
    <title>google-plus</title>
    <g id="Page-1" stroke="none" stroke-width="1" fill="none" fill-rule="evenodd">
        <g id="3-Вход" transform="translate(-851.000000, -593.000000)" fill-rule="nonzero">
            <g id="Group-4" transform="translate(492.000000, 244.000000)">
                <g id="google-plus" transform="translate(304.824006, 337.366716)">
                    <g transform="translate(55.000000, 12.000000)" id="Group">
                        <path d="M0.170012787,7.62878764 C0.106298014,10.7477752 2.23481969,13.7242562 5.16281769,14.6949813 C7.9208029,15.6301605 11.3117736,14.9305534 13.1470152,12.5467188 C14.4869465,10.8763866 14.7914327,8.64960008 14.6463935,6.5691979 C12.2844644,6.54787038 9.92253538,6.55497955 7.56412824,6.55853414 C7.56028614,7.40775703 7.56412824,8.25374847 7.56765016,9.10297136 C8.98186199,9.14239495 10.396394,9.12429888 11.8106058,9.15305871 C11.453611,10.3877926 10.6403671,11.5368933 9.40609352,11.9828322 C7.02303293,13.0427451 3.98233342,11.6580723 3.23248418,9.13496263 C2.32735019,6.71881365 3.80911889,3.80308377 6.25557408,3.1002452 C7.77256199,2.56156386 9.3353349,3.16810547 10.6333233,3.96400957 C11.2909622,3.34292647 11.9063381,2.67918834 12.510828,2.00834104 C11.0361031,0.762943393 9.14098883,-0.000646288346 7.19272554,0.167065538 C3.37015932,0.21295201 0.0249736297,3.77464709 0.170012787,7.62878764 Z" id="Path" fill="#DC4E41"></path>
                        <path d="M19.2431422,4.41673456 C19.2360984,5.12700545 19.2287344,5.84083093 19.2252125,6.55077868 C18.5179465,6.55788785 17.8145225,6.56144244 17.1107785,6.56499702 C17.1107785,7.27526792 17.1107785,7.98166108 17.1107785,8.69193197 C17.8145225,8.69548656 18.5217886,8.69904114 19.2252125,8.70647346 C19.2322563,9.41673456 19.2322563,10.1266921 19.2393001,10.8405176 C19.9395223,10.8405176 20.6432664,10.836963 21.3466903,10.8405176 C21.3505324,10.1266921 21.3537341,9.41673456 21.3610981,8.70291887 C22.0645221,8.69936429 22.7717881,8.6958097 23.4755321,8.69225512 C23.4755321,7.98198422 23.4755321,7.27559106 23.4755321,6.56532017 C22.7721082,6.56176558 22.0648422,6.558211 21.3610981,6.55110182 C21.3572561,5.84083093 21.3505324,5.12700545 21.3466903,4.4170577 C20.6432664,4.41673456 19.9430442,4.41673456 19.2431422,4.41673456 Z" id="Path" fill="#DC4E41"></path>
                        <g fill="#FFFFFF" id="Path">
                            <path d="M0.170012787,7.62878764 C0.0249736297,3.77464709 3.36983914,0.21295201 7.19240537,0.166742393 C9.14066866,-0.00096943252 11.0361031,0.762620249 12.5105078,2.00801789 C11.9056977,2.67918834 11.2903219,3.34260333 10.6330031,3.96368643 C9.33501473,3.16778233 7.77224182,2.56124072 6.2552539,3.09992205 C3.80847854,3.80308377 2.32670984,6.71881365 3.232164,9.13463949 C3.98201324,11.6577492 7.02271275,13.042422 9.40577335,11.9825091 C10.6397268,11.5365701 11.4532908,10.3874694 11.8102856,9.15273556 C10.3960738,9.12429888 8.98154181,9.1420718 7.56732999,9.10264822 C7.56380806,8.25342533 7.56028614,7.40743388 7.56380806,6.558211 C9.9222152,6.55465641 12.2841443,6.54754724 14.6460733,6.56887475 C14.7911125,8.64960008 14.4869465,10.8763866 13.146695,12.5463957 C11.3114534,14.9302302 7.9208029,15.6298374 5.16249751,14.6946581 C2.23513986,13.7242562 0.106298014,10.7477752 0.170012787,7.62878764 Z"></path>
                            <path d="M19.2431422,4.41673456 C19.9433644,4.41673456 20.6432664,4.41673456 21.3466903,4.41673456 C21.3505324,5.12700545 21.3572561,5.84083093 21.3610981,6.55077868 C22.0645221,6.55788785 22.7717881,6.56144244 23.4755321,6.56499702 C23.4755321,7.27526792 23.4755321,7.98166108 23.4755321,8.69193197 C22.7721082,8.69548656 22.0648422,8.69904114 21.3610981,8.70259573 C21.3540543,9.41642121 21.3505324,10.126369 21.3466903,10.8401944 C20.6432664,10.8366398 19.9392021,10.8401944 19.2393001,10.8401944 C19.2325765,10.126369 19.2325765,9.41642121 19.2252125,8.70615031 C18.5217886,8.698718 17.8145225,8.69548656 17.1107785,8.69160883 C17.1107785,7.98133793 17.1107785,7.27494477 17.1107785,6.56467388 C17.8145225,6.56111929 18.5182666,6.55756471 19.2252125,6.55045554 C19.2287344,5.84083093 19.2357782,5.12700545 19.2431422,4.41673456 Z"></path>
                        </g>
                    </g>
                </g>
            </g>
        </g>
    </g>
</svg>