<?xml version="1.0" encoding="UTF-8"?>
<svg width="30px" height="47px" viewBox="0 0 30 47" version="1.1" xmlns="http://www.w3.org/2000/svg" xmlns:xlink="http://www.w3.org/1999/xlink">
    <title>idea</title>
    <g id="Page-1" stroke="none" stroke-width="1" fill="none" fill-rule="evenodd">
        <g id="2-Информация" transform="translate(-705.000000, -287.000000)" fill="#FFFFFF" fill-rule="nonzero">
            <g id="idea" transform="translate(705.000000, 287.000000)">
                <path d="M19.4895614,38.9968243 L10.5071053,38.9968243 C9.68026316,38.9968243 9.01,39.6682092 9.01,40.4964351 C9.01,41.3246611 9.68026316,41.996046 10.5071053,41.996046 L19.4895614,41.996046 C20.3164035,41.996046 20.9866667,41.3246611 20.9866667,40.4964351 C20.9866667,39.6682092 20.3164035,38.9968243 19.4895614,38.9968243 Z" id="Path"></path>
                <path d="M19.4895614,43.9968243 L10.5071053,43.9968243 C9.68026316,43.9968243 9.01,44.6682092 9.01,45.4964351 C9.01,46.3246611 9.68026316,46.996046 10.5071053,46.996046 L19.4895614,46.996046 C20.3164035,46.996046 20.9866667,46.3246611 20.9866667,45.4964351 C20.9866667,44.6682092 20.3164035,43.9968243 19.4895614,43.9968243 Z" id="Path"></path>
                <path d="M25.4359649,4.25447699 C22.5468421,1.41200837 18.6222807,-0.122573222 14.5747368,0.00764435146 C6.54175439,0.297514644 0.145175439,6.84318828 0.0276315789,14.8940084 C0.00175438596,17.8635314 0.860789474,20.7733054 2.49482456,23.2512176 C4.71526316,26.4830209 5.93964912,30.2966736 6.01596491,34.2191925 L6.01596491,34.4980795 C6.01596491,35.3263054 6.68622807,35.9976904 7.51307018,35.9976904 L13.5014035,35.9976904 L13.5014035,18.6249791 L9.44885965,14.5656527 C8.86385965,13.980113 8.86359649,13.0304561 9.44807018,12.444477 C10.0325439,11.8584979 10.9807018,11.8582343 11.5657018,12.4436862 L14.9985088,15.8822385 L18.4313158,12.4436862 C19.0163158,11.8581464 19.964386,11.8584979 20.5489474,12.444477 C21.1335088,13.0304561 21.1331579,13.980113 20.5481579,14.5656527 L16.495614,18.6249791 L16.495614,35.9976904 L22.4839474,35.9976904 C23.3107895,35.9976904 23.9810526,35.3262176 23.9810526,34.4979916 L23.9810526,34.2220921 C24.0670175,30.2869205 25.2980702,26.4624603 27.5231579,23.2181799 C31.4489474,17.2115649 30.5739474,9.26029707 25.4359649,4.25447699 Z" id="Path"></path>
            </g>
        </g>
    </g>
</svg>