<?xml version="1.0" encoding="UTF-8"?>
<svg width="24px" height="24px" viewBox="0 0 24 24" version="1.1" xmlns="http://www.w3.org/2000/svg" xmlns:xlink="http://www.w3.org/1999/xlink">
    <title>info</title>
    <g id="Page-1" stroke="none" stroke-width="1" fill="none" fill-rule="evenodd">
        <g id="1-Стартовая-страница-вар-2-" transform="translate(-1089.000000, -34.000000)" fill="#FFFFFF" fill-rule="nonzero">
            <g id="Кнопки-верхнего-меню" transform="translate(1089.750000, 24.750000)">
                <g id="info" transform="translate(0.000000, 9.750000)">
                    <path d="M11.25,0 C5.04692308,0 0,5.04657692 0,11.25 C0,17.4534231 5.04692308,22.5 11.25,22.5 C17.4530769,22.5 22.5,17.4534231 22.5,11.25 C22.5,5.04657692 17.4530769,0 11.25,0 Z M11.25,21.1153846 C5.81019231,21.1153846 1.38461538,16.6898077 1.38461538,11.25 C1.38461538,5.81019231 5.81019231,1.38461538 11.25,1.38461538 C16.6898077,1.38461538 21.1153846,5.81019231 21.1153846,11.25 C21.1153846,16.6898077 16.6898077,21.1153846 11.25,21.1153846 Z" id="Shape"></path>
                    <circle id="Oval" cx="11.4293077" cy="6.76419231" r="1.15788462"></circle>
                    <path d="M11.1243462,9.81069231 C10.7421923,9.81069231 10.4320385,10.1208462 10.4320385,10.503 L10.4320385,16.3876154 C10.4320385,16.7697692 10.7421923,17.0799231 11.1243462,17.0799231 C11.5065,17.0799231 11.8166538,16.7697692 11.8166538,16.3876154 L11.8166538,10.503 C11.8166538,10.1205 11.5065,9.81069231 11.1243462,9.81069231 Z" id="Path"></path>
                </g>
            </g>
        </g>
    </g>
</svg>