<?xml version="1.0" encoding="UTF-8"?>
<svg width="17px" height="17px" viewBox="0 0 17 17" version="1.1" xmlns="http://www.w3.org/2000/svg" xmlns:xlink="http://www.w3.org/1999/xlink">
    <title>linkedin-logo</title>
    <g id="Page-1" stroke="none" stroke-width="1" fill="none" fill-rule="evenodd">
        <g id="3-Вход" transform="translate(-570.000000, -637.000000)" fill="#FFFFFF" fill-rule="nonzero">
            <g id="Group-4" transform="translate(492.000000, 244.000000)">
                <g id="linkedin-logo" transform="translate(19.488218, 381.715022)">
                    <g transform="translate(59.000000, 12.000000)" id="LinkedIn">
                        <path d="M15.762927,9.30962755 L15.762927,15.1715562 L12.3844214,15.1715562 L12.3844214,9.70222419 C12.3844214,8.3282834 11.8957569,7.39062254 10.6728499,7.39062254 C9.73931544,7.39062254 9.18376844,8.02253725 8.93936294,8.63380837 C8.85023501,8.85233541 8.82729336,9.15649643 8.82729336,9.46239003 L8.82729336,15.1715562 L5.44765162,15.1715562 C5.44765162,15.1715562 5.49316844,5.90830296 5.44765162,4.94856085 L8.82696353,4.94856085 L8.82696353,6.39762952 C8.82011035,6.4084674 8.81120489,6.42015314 8.80475484,6.43065925 L8.82696353,6.43065925 L8.82696353,6.39762952 C9.27593815,5.70205149 10.0777597,4.70839492 11.8724855,4.70839492 C14.0960295,4.70839492 15.762927,6.16951797 15.762927,9.30962755 Z M1.91240249,0.0205698522 C0.756231441,0.0205698522 0,0.783386968 0,1.78651746 C0,2.76778788 0.734352586,3.5537553 1.86754534,3.5537553 L1.8901205,3.5537553 C3.06868347,3.5537553 3.80164344,2.76793534 3.80164344,1.78651746 C3.77943475,0.783386968 3.06868347,0.0205698522 1.91240249,0.0205698522 Z M0.200721086,15.1715562 L3.57908014,15.1715562 L3.57908014,4.94856085 L0.200721086,4.94856085 L0.200721086,15.1715562 Z"></path>
                    </g>
                </g>
            </g>
        </g>
    </g>
</svg>