<?xml version="1.0" encoding="UTF-8"?>
<svg width="26px" height="24px" viewBox="0 0 26 24" version="1.1" xmlns="http://www.w3.org/2000/svg" xmlns:xlink="http://www.w3.org/1999/xlink">
    <title>link-3</title>
    <g id="Page-1" stroke="none" stroke-width="1" fill="none" fill-rule="evenodd">
        <g id="1-Стартовая-страница" transform="translate(-1233.000000, -786.000000)" fill="#4086F1" fill-rule="nonzero">
            <g id="Стартовая-страница">
                <g id="Подя-для-заполнения" transform="translate(646.000000, 771.000000)">
                    <g id="link-3" transform="translate(587.000000, 15.000000)">
                        <path d="M13.7374741,10.2864745 C13.4521739,10.5685144 13.4521739,11.0208426 13.7374741,11.3028825 C14.9163561,12.4682927 14.9163561,14.3627494 13.7374741,15.5281596 L7.54699793,21.6478936 C6.36811594,22.8133038 4.45175983,22.8133038 3.27287785,21.6478936 L2.34161491,20.7272727 C1.16273292,19.5618625 1.16273292,17.6674058 2.34161491,16.5019956 L8.5320911,10.3822616 C8.8173913,10.1002217 8.8173913,9.64789357 8.5320911,9.36585366 C8.24679089,9.08381375 7.78923395,9.08381375 7.50393375,9.36585366 L1.31345756,15.4855876 C0.468322981,16.3210643 0,17.4332594 0,18.6146341 C0,19.7960089 0.462939959,20.908204 1.31345756,21.7436807 L2.2447205,22.6643016 C3.11677019,23.5263858 4.26335404,23.9574279 5.40993789,23.9574279 C6.55652174,23.9574279 7.70310559,23.5263858 8.57515528,22.6643016 L14.7656315,16.5445676 C16.5097308,14.8203991 16.5097308,12.010643 14.7656315,10.2864745 C14.4857143,10.0044346 14.0227743,10.0044346 13.7374741,10.2864745 Z" id="Path"></path>
                        <path d="M24.6811594,2.24567627 L23.7498965,1.32505543 C22.0057971,-0.399113082 19.1635611,-0.399113082 17.4194617,1.32505543 L11.2289855,7.44478936 C9.48488613,9.16895787 9.48488613,11.978714 11.2289855,13.7028825 C11.5142857,13.9849224 11.9718427,13.9849224 12.2571429,13.7028825 C12.5424431,13.4208426 12.5424431,12.9685144 12.2571429,12.6864745 C11.0782609,11.5210643 11.0782609,9.62660754 12.2571429,8.46119734 L18.447619,2.34146341 C19.626501,1.17605322 21.5428571,1.17605322 22.7217391,2.34146341 L23.6530021,3.26208426 C24.8318841,4.42749446 24.8318841,6.32195122 23.6530021,7.48736142 L17.4625259,13.6070953 C17.1772257,13.8891353 17.1772257,14.3414634 17.4625259,14.6235033 C17.6024845,14.7618625 17.7908903,14.8363636 17.973913,14.8363636 C18.1569358,14.8363636 18.3453416,14.767184 18.4853002,14.6235033 L24.6757764,8.5037694 C25.520911,7.66829268 25.989234,6.55609756 25.989234,5.37472284 C25.989234,4.19334812 25.526294,3.08115299 24.6811594,2.24567627 Z" id="Path"></path>
                    </g>
                </g>
            </g>
        </g>
    </g>
</svg>