<svg width="124" height="39" viewBox="0 0 124 39" fill="none" xmlns="http://www.w3.org/2000/svg">
<g clip-path="url(#clip0)">
<path d="M56.6113 24.6896V17.5163L51.2195 24.6896H56.6113ZM61.3143 26.6373H58.8084V30.6753H56.6113V26.6373H47.7397L58.8084 11.8038V24.6896H61.3143V26.6373ZM67.2716 22.1623V30.6753H64.2313V10.6091H67.2716V19.122H77.6088V10.6091H80.6491V30.6753H77.6088V22.1623H67.2716ZM96.9696 25.7621V14.8655H100.01V30.6996H96.9696V30.0672C95.7211 30.878 94.3022 31.2834 92.7131 31.2834C90.5241 31.2834 88.6594 30.5131 87.1189 28.9727C85.5785 27.4323 84.8083 25.5675 84.8083 23.3785V14.8655H87.8486V23.3785C87.8486 24.7243 88.3188 25.8756 89.2593 26.8323C90.216 27.7728 91.3673 28.243 92.7131 28.243C94.059 28.243 95.2022 27.7728 96.1427 26.8323C96.4832 26.4918 96.7588 26.1351 96.9696 25.7621ZM107.813 30.6753H104.772V10.6091H107.813V15.7655C109.224 14.7601 110.845 14.2575 112.677 14.2575C115.029 14.2575 117.031 15.0925 118.685 16.7627C120.355 18.4167 121.19 20.4192 121.19 22.7704C121.19 25.1216 120.355 27.1323 118.685 28.8024C117.031 30.4564 115.029 31.2834 112.677 31.2834C110.845 31.2834 109.224 30.7807 107.813 29.7754V30.6753ZM107.813 25.3C108.072 25.7864 108.405 26.2323 108.81 26.6377C109.88 27.7079 111.169 28.243 112.677 28.243C114.185 28.243 115.474 27.7079 116.545 26.6377C117.615 25.5675 118.15 24.2784 118.15 22.7704C118.15 21.2624 117.615 19.9733 116.545 18.9031C115.474 17.8329 114.185 17.2978 112.677 17.2978C111.169 17.2978 109.88 17.8329 108.81 18.9031C108.405 19.3085 108.072 19.7544 107.813 20.2409V25.3Z" fill="white"/>
<rect x="21.3109" y="21.3109" width="15.2221" height="15.2221" rx="1.52221" fill="#EED328"/>
<rect x="21.3109" y="4.56663" width="15.2221" height="15.2221" rx="1.52221" fill="#EED328"/>
<rect width="15.2221" height="15.2221" rx="1.52221" fill="#34C6A2"/>
<rect x="4.56665" y="21.3109" width="15.2221" height="15.2221" rx="1.52221" fill="#EED328"/>
</g>
<defs>
<clipPath id="clip0">
<rect width="124" height="39" fill="white"/>
</clipPath>
</defs>
</svg>
