<?xml version="1.0" encoding="UTF-8"?>
<svg width="41px" height="41px" viewBox="0 0 41 41" version="1.1" xmlns="http://www.w3.org/2000/svg" xmlns:xlink="http://www.w3.org/1999/xlink">
    <title>pie-chart-5</title>
    <g id="Page-1" stroke="none" stroke-width="1" fill="none" fill-rule="evenodd">
        <g id="2-Информация" transform="translate(-699.000000, -1941.000000)" fill="#FFFFFF" fill-rule="nonzero">
            <g id="pie-chart-5" transform="translate(699.000000, 1941.000000)">
                <path d="M18.8461,0 L18.1519,0.0468 C8.48965,0.7059 0.7059,8.48965 0.04745,18.1519 L0,18.8461 L18.8461,18.8461 L18.8461,0 Z" id="Path"></path>
                <path d="M35.78165,8.2847 C32.3477,4.29695 27.5741,1.9043 22.3403,1.5468 L21.6461,1.5 L21.6461,21.6461 L1.5,21.6461 L1.54745,22.3403 C1.83605,26.57245 3.4591,30.5121 6.24175,33.73415 C6.49135,34.02275 6.77085,34.3107 7.1485,34.66755 L8.13975,35.6042 C8.51805,35.96235 8.82095,36.22495 9.12255,36.45635 C12.5552,39.0986 16.66125,40.4961 20.9961,40.4961 C21.507,40.4961 22.0257,40.47595 22.53855,40.4363 C31.97395,39.70895 39.6654,32.0513 40.4298,22.62305 C40.8575,17.35545 39.2065,12.2627 35.78165,8.2847 Z" id="Path"></path>
            </g>
        </g>
    </g>
</svg>