<?xml version="1.0" encoding="UTF-8"?>
<svg width="20px" height="19px" viewBox="0 0 20 19" version="1.1" xmlns="http://www.w3.org/2000/svg" xmlns:xlink="http://www.w3.org/1999/xlink">
    <title>pinterest-logo</title>
    <g id="Page-1" stroke="none" stroke-width="1" fill="none" fill-rule="evenodd">
        <g id="3-Вход" transform="translate(-854.000000, -635.000000)" fill="#FFFFFF" fill-rule="nonzero">
            <g id="Group-4" transform="translate(492.000000, 244.000000)">
                <g id="pinterest-logo" transform="translate(304.824006, 381.715022)">
                    <g transform="translate(58.000000, 10.000000)" id="Path">
                        <path d="M16.9857182,4.53362383 C16.1716811,3.1390331 15.0674917,2.03484372 13.6728595,1.22084811 C12.2782687,0.406894015 10.7552289,0 9.10357378,0 C7.45204324,0 5.92892033,0.406894015 4.53432959,1.22084811 C3.13953129,2.03471917 2.0353419,3.13890855 1.22138781,4.53362383 C0.40722614,5.92842214 0.00033212449,7.4514205 0.00033212449,9.10299256 C0.00033212449,10.9442077 0.502047682,12.6156657 1.50560334,14.1167023 C2.50911749,15.6184032 3.82478714,16.7285293 5.45261229,17.4475788 C5.42097744,16.6021144 5.4723737,15.9028263 5.60659351,15.3497145 L6.78011388,10.3949153 C6.58249981,10.0076166 6.48373429,9.52599461 6.48373429,8.9488868 C6.48373429,8.27737259 6.65349142,7.7163313 6.9933378,7.26580443 C7.33318418,6.81536059 7.74796616,6.59018019 8.23793281,6.59018019 C8.63291186,6.59018019 8.93709638,6.72053905 9.15052788,6.98125677 C9.36400089,7.24209904 9.47040528,7.56998895 9.47040528,7.96517557 C9.47040528,8.20995132 9.42477967,8.50836518 9.33386059,8.86000198 C9.24302455,9.2116803 9.12458065,9.61861583 8.97840436,10.0809331 C8.83222807,10.5430843 8.72744279,10.9127389 8.66429762,11.1890665 C8.55374168,11.6709791 8.64453622,12.0838514 8.93693031,12.4278078 C9.2292829,12.7714736 9.61662308,12.9435556 10.0986603,12.9435556 C10.9441247,12.9435556 11.6374345,12.4734334 12.1788805,11.533189 C12.7201604,10.5926539 12.9906758,9.45080993 12.9906758,8.10757395 C12.9906758,7.07225888 12.6568076,6.23065543 11.9889468,5.58288812 C11.321169,4.93487173 10.3907638,4.61071823 9.19748198,4.61071823 C7.86230001,4.61071823 6.78160844,5.03944943 5.95586393,5.89678728 C5.1300779,6.75424968 4.71720564,7.77960101 4.71720564,8.97271673 C4.71720564,9.68396132 4.91872218,10.2806645 5.32167221,10.7625356 C5.45597505,10.9205438 5.49948336,11.0904255 5.45203108,11.2723052 C5.43621365,11.3197575 5.40466182,11.4382429 5.35720953,11.6277614 C5.30996482,11.81728 5.27820542,11.9400415 5.26251254,11.9952156 C5.19936737,12.2480869 5.04912255,12.327091 4.8120687,12.2321865 C4.20369967,11.9795643 3.74134086,11.5408693 3.42536592,10.9165999 C3.10926644,10.2923304 2.95117518,9.5691708 2.95117518,8.74757784 C2.95117518,8.21812989 3.03615754,7.68872345 3.20608073,7.15935853 C3.37583786,6.62978603 3.64066562,6.11823129 4.00010735,5.62432065 C4.35975666,5.13028548 4.79039758,4.69366632 5.29219616,4.31454621 C5.79378718,3.93530156 6.4042735,3.63111705 7.12336454,3.40195115 C7.84245557,3.17278525 8.61676231,3.0582023 9.44653383,3.0582023 C10.5687825,3.0582023 11.5760745,3.30708809 12.4688667,3.80490118 C13.3619494,4.30275579 14.0433443,4.94666215 14.5135911,5.73691086 C14.9838379,6.52720108 15.2188159,7.37274851 15.2188159,8.27355316 C15.2188159,9.45878092 15.0133969,10.5254817 14.602642,11.4738217 C14.191804,12.4219956 13.6109598,13.1667433 12.8601093,13.7078986 C12.1093834,14.2493446 11.2560726,14.5199845 10.2996371,14.5199845 C9.81776598,14.5199845 9.36736365,14.4073113 8.94838861,14.1822554 C8.52970417,13.9569505 8.24121254,13.6904206 8.08324583,13.382126 C7.72762353,14.7805777 7.51423355,15.6144177 7.44307588,15.8830234 C7.29295561,16.4438156 6.98482711,17.091915 6.51852433,17.8267405 C7.36407176,18.0796117 8.22531208,18.2057775 9.10245286,18.2057775 C10.7539834,18.2057775 12.2771478,17.7988835 13.6717386,16.9848049 C15.0664538,16.1710169 16.1706432,15.0668275 16.9844312,13.6722367 C17.7983853,12.2773554 18.2052797,10.7542325 18.2052797,9.1028265 C18.2056945,7.4514205 17.7993817,5.92821456 16.9857182,4.53362383 Z"></path>
                    </g>
                </g>
            </g>
        </g>
    </g>
</svg>