<?xml version="1.0" encoding="UTF-8"?>
<svg width="13px" height="13px" viewBox="0 0 13 13" version="1.1" xmlns="http://www.w3.org/2000/svg" xmlns:xlink="http://www.w3.org/1999/xlink">
    <title>play-3</title>
    <g id="Page-1" stroke="none" stroke-width="1" fill="none" fill-rule="evenodd">
        <g id="1,1-Календарь" transform="translate(-496.000000, -351.000000)" fill="#AAAAAA" fill-rule="nonzero">
            <g id="play-3" transform="translate(502.500000, 357.500000) scale(-1, 1) translate(-502.500000, -357.500000) translate(496.000000, 351.000000)">
                <path d="M11.0961855,1.90378906 C9.86849805,0.676101562 8.23621094,0 6.5,0 C4.76376367,0 3.13145117,0.676126953 1.90378906,1.90378906 C0.676101562,3.13147656 0,4.76378906 0,6.5 C0,8.23621094 0.676101562,9.86852344 1.90378906,11.0962109 C3.13145117,12.323873 4.76376367,13 6.5,13 C8.23621094,13 9.86849805,12.3238984 11.0961855,11.0962109 C12.323873,9.86849805 13,8.23621094 13,6.5 C13,4.76378906 12.323873,3.13150195 11.0961855,1.90378906 Z M6.5,12.2382812 C3.33589648,12.2382812 0.76171875,9.66410352 0.76171875,6.5 C0.76171875,3.33589648 3.33589648,0.76171875 6.5,0.76171875 C9.66410352,0.76171875 12.2382812,3.33589648 12.2382812,6.5 C12.2382812,9.66410352 9.66410352,12.2382812 6.5,12.2382812 Z" id="Shape"></path>
                <path d="M10.1787461,6.183125 L5.28343359,2.91954102 C5.16656055,2.84164258 5.01632422,2.83435547 4.89246875,2.90065039 C4.76863867,2.96691992 4.69132422,3.09598047 4.69132422,3.23644141 L4.69132422,9.76350781 C4.69132422,9.90396875 4.76863867,10.0330293 4.89246875,10.0992988 C4.94878516,10.1294375 5.01053516,10.1443672 5.0721582,10.1443672 C5.14604492,10.1443672 5.21972852,10.1228867 5.28343359,10.0804082 L10.1787461,6.81690039 C10.2847012,6.74626367 10.3483555,6.62733398 10.3483555,6.5 C10.3483555,6.37269141 10.2847012,6.25376172 10.1787461,6.183125 Z M5.45301758,9.05191016 L5.45301758,3.94811523 L9.28085742,6.50002539 L5.45301758,9.05191016 Z" id="Shape"></path>
            </g>
        </g>
    </g>
</svg>