<?xml version="1.0" encoding="UTF-8"?>
<svg width="16px" height="11px" viewBox="0 0 16 11" version="1.1" xmlns="http://www.w3.org/2000/svg" xmlns:xlink="http://www.w3.org/1999/xlink">
    <title>play-button</title>
    <g id="Page-1" stroke="none" stroke-width="1" fill="none" fill-rule="evenodd">
        <g id="1,1-Отправить-файл" transform="translate(-682.000000, -680.000000)" fill="#4086F1" fill-rule="nonzero">
            <g id="Подя-для-заполнения" transform="translate(484.500000, 578.250000)">
                <g id="play-button" transform="translate(205.125000, 107.250000) rotate(90.000000) translate(-205.125000, -107.250000) translate(200.250000, 99.750000)">
                    <path d="M9.42234375,7.20571429 L0.72703125,0.0628571429 C0.619101562,-0.0125 0.479179687,-0.0203571429 0.363867187,0.0407142857 C0.248203125,0.1025 0.17578125,0.223928571 0.17578125,0.356785714 L0.17578125,14.6425 C0.17578125,14.7753571 0.248203125,14.8971429 0.363867187,14.9589286 C0.415195312,14.9860714 0.471445312,14.9996429 0.52734375,14.9996429 C0.597304687,14.9996429 0.666914062,14.9782143 0.72703125,14.9364286 L9.42234375,7.79357143 C9.51761719,7.72678571 9.57421875,7.61714286 9.57421875,7.49964286 C9.57421875,7.38214286 9.51726562,7.2725 9.42234375,7.20571429 Z" id="Path"></path>
                </g>
            </g>
        </g>
    </g>
</svg>