<?xml version="1.0" encoding="UTF-8"?>
<svg width="40px" height="40px" viewBox="0 0 40 40" version="1.1" xmlns="http://www.w3.org/2000/svg" xmlns:xlink="http://www.w3.org/1999/xlink">
    <title>safe</title>
    <g id="Page-1" stroke="none" stroke-width="1" fill="none" fill-rule="evenodd">
        <g id="2-Информация" transform="translate(-700.000000, -1123.000000)" fill="#FFFFFF" fill-rule="nonzero">
            <g id="safe" transform="translate(700.000000, 1123.000000)">
                <path d="M7.08333333,15 L1.25,15 C0.56,15 0,14.44 0,13.75 L0,9.58333333 C0,8.89333333 0.56,8.33333333 1.25,8.33333333 L7.08333333,8.33333333 C7.77333333,8.33333333 8.33333333,8.89333333 8.33333333,9.58333333 L8.33333333,13.75 C8.33333333,14.44 7.77333333,15 7.08333333,15 Z" id="Path"></path>
                <path d="M7.08333333,31.6666667 L1.25,31.6666667 C0.56,31.6666667 0,31.1066667 0,30.4166667 L0,26.25 C0,25.56 0.56,25 1.25,25 L7.08333333,25 C7.77333333,25 8.33333333,25.56 8.33333333,26.25 L8.33333333,30.4166667 C8.33333333,31.1066667 7.77333333,31.6666667 7.08333333,31.6666667 Z" id="Path"></path>
                <path d="M35.4166667,0 L7.5,0 C4.97166667,0 2.91666667,2.055 2.91666667,4.58333333 L2.91666667,6.66666667 L7.08333333,6.66666667 C8.69166667,6.66666667 10,7.975 10,9.58333333 L10,13.75 C10,15.3583333 8.69166667,16.6666667 7.08333333,16.6666667 L2.91666667,16.6666667 L2.91666667,23.3333333 L7.08333333,23.3333333 C8.69166667,23.3333333 10,24.6416667 10,26.25 L10,30.4166667 C10,32.025 8.69166667,33.3333333 7.08333333,33.3333333 L2.91666667,33.3333333 L2.91666667,35.4166667 C2.91666667,37.945 4.97166667,40 7.5,40 L35.4166667,40 C37.945,40 40,37.945 40,35.4166667 L40,4.58333333 C40,2.055 37.945,0 35.4166667,0 Z M30.405,27.0733333 C28.5183333,28.96 26.0066667,30 23.3333333,30 C20.66,30 18.1483333,28.96 16.2616667,27.0733333 C14.3733333,25.185 13.3333333,22.6733333 13.3333333,20 C13.3333333,17.3266667 14.3733333,14.815 16.2616667,12.9266667 C18.1483333,11.04 20.66,10 23.3333333,10 C26.0066667,10 28.5183333,11.04 30.405,12.9266667 C32.2933333,14.815 33.3333333,17.3266667 33.3333333,20 C33.3333333,22.6733333 32.2933333,25.185 30.405,27.0733333 Z M30.625,18.9583333 L28.2216667,18.9583333 C28.0966667,18.3566667 27.8633333,17.7883333 27.5333333,17.2733333 L29.2266667,15.58 C29.6333333,15.1733333 29.6333333,14.5133333 29.2266667,14.1066667 C28.82,13.7 28.16,13.7 27.7533333,14.1066667 L26.06,15.8 C25.545,15.4783333 24.9716667,15.26 24.375,15.1433333 L24.375,12.7083333 C24.375,12.1333333 23.9083333,11.6666667 23.3333333,11.6666667 C22.7583333,11.6666667 22.2916667,12.1333333 22.2916667,12.7083333 L22.2916667,15.1433333 C21.695,15.26 21.12,15.4783333 20.6066667,15.8 L18.9133333,14.1066667 C18.5066667,13.7 17.8466667,13.7 17.44,14.1066667 C17.0333333,14.5133333 17.0333333,15.1733333 17.44,15.58 L19.1333333,17.2733333 C18.8033333,17.7883333 18.5683333,18.3566667 18.445,18.9583333 L16.0416667,18.9583333 C15.4666667,18.9583333 15,19.425 15,20 C15,20.575 15.4666667,21.0416667 16.0416667,21.0416667 L18.4433333,21.0416667 C18.5683333,21.6433333 18.8016667,22.2133333 19.1316667,22.7283333 L17.44,24.4216667 C17.0333333,24.8283333 17.0333333,25.4883333 17.44,25.895 C17.6433333,26.0983333 17.91,26.2 18.1766667,26.2 C18.4433333,26.2 18.71,26.0983333 18.9133333,25.895 L20.595,24.2116667 C21.1116667,24.55 21.6883333,24.7883333 22.2916667,24.9183333 L22.2916667,27.2916667 C22.2916667,27.8666667 22.7583333,28.3333333 23.3333333,28.3333333 C23.9083333,28.3333333 24.375,27.8666667 24.375,27.2916667 L24.375,24.9183333 C24.9783333,24.7883333 25.555,24.5483333 26.0716667,24.2116667 L27.7533333,25.895 C27.9566667,26.0983333 28.2233333,26.2 28.49,26.2 C28.7566667,26.2 29.0233333,26.0983333 29.2266667,25.895 C29.6333333,25.4883333 29.6333333,24.8283333 29.2266667,24.4216667 L27.535,22.7283333 C27.865,22.2133333 28.1,21.6433333 28.2233333,21.0416667 L30.625,21.0416667 C31.2,21.0416667 31.6666667,20.575 31.6666667,20 C31.6666667,19.425 31.2,18.9583333 30.625,18.9583333 L30.625,18.9583333 Z" id="Shape"></path>
            </g>
        </g>
    </g>
</svg>