<svg width="50" height="50" viewBox="0 0 50 50" fill="none" xmlns="http://www.w3.org/2000/svg">
<circle cx="25" cy="25" r="25" fill="#65A2D9"/>
<path fill-rule="evenodd" clip-rule="evenodd" d="M37.492 25.0144C37.4913 25.7888 37.7014 26.5552 38.1556 27.1829C38.9403 28.2672 39.377 29.6189 39.3017 31.0767C39.1435 34.1295 36.6884 36.629 33.6386 36.8388C32.9126 36.8886 32.2115 36.8108 31.5556 36.6258C30.813 36.4167 30.0192 36.4676 29.295 36.7332C27.9559 37.2243 26.5097 37.4927 25.0002 37.4927C18.1009 37.4927 12.5086 31.8999 12.5086 25.0011V24.9874C12.5092 24.2125 12.2986 23.4461 11.8449 22.8184C11.0602 21.7343 10.6235 20.3826 10.6988 18.9254C10.857 15.8724 13.3122 13.373 16.3619 13.1631C17.088 13.1129 17.789 13.191 18.4449 13.3757C19.1876 13.5848 19.9813 13.5339 20.7055 13.2683C22.0446 12.7774 23.4908 12.5088 25.0004 12.5088C31.8992 12.5088 37.492 18.1016 37.492 25.0007V25.0144ZM25.4578 22.7609L25.4577 22.7608C22.7607 22.1194 22.3293 21.8306 22.3289 20.9718C22.3289 20.1612 23.8314 19.6122 25.3531 19.7568C27.3645 19.9478 28.7072 21.4417 28.7514 21.4984C29.3684 22.3245 30.5371 22.4994 31.3694 21.8875C32.2056 21.2729 32.385 20.097 31.7706 19.2607C31.6726 19.1275 29.3268 15.9991 25.3531 15.9991C19.0601 15.9991 18.5711 19.9224 18.5711 21.1249C18.5711 24.986 22.1918 25.8473 24.5878 26.4168C27.4142 27.0893 28.1164 27.6686 28.0245 28.4579C27.9492 29.1041 27.3677 29.8611 24.8231 29.7807C22.7098 29.7138 21.2177 28 21.2122 27.9933C20.5654 27.1818 19.3831 27.0486 18.5717 27.6956C17.7602 28.3426 17.627 29.5249 18.274 30.3361C18.3787 30.4669 20.8731 33.5383 24.8233 33.5383C26.1089 33.5383 27.6006 33.4616 28.9184 32.8941C30.7652 32.0987 31.7824 30.5229 31.7824 28.4578C31.7824 24.2653 27.9765 23.36 25.4578 22.7609Z" fill="white"/>
<path d="M28.0242 28.4575C28.1082 27.7371 27.5298 27.1917 25.2803 26.5908V29.7857C27.4385 29.7659 27.9536 29.0631 28.0242 28.4575Z" fill="white"/>
<path d="M22.3291 20.971C22.3291 21.8106 22.7428 22.1057 25.2808 22.7177V19.7512C23.7843 19.6304 22.3291 20.1732 22.3291 20.971Z" fill="white"/>
</svg>
