<svg width="360" height="189" viewBox="0 0 360 189" fill="none" xmlns="http://www.w3.org/2000/svg">
<path fill-rule="evenodd" clip-rule="evenodd" d="M79.7839 162.478C78.1223 162.478 76.7751 161.13 76.7751 159.467V35.4521C76.7751 33.789 78.1223 32.4412 79.7839 32.4412H274.442C276.103 32.4412 277.451 33.789 277.451 35.4521V159.467C277.451 161.13 276.103 162.478 274.442 162.478H79.7839Z" fill="#3879DB"/>
<path fill-rule="evenodd" clip-rule="evenodd" d="M148.416 175.981H205.809V162.478H148.416V175.981Z" fill="#4086F1"/>
<path fill-rule="evenodd" clip-rule="evenodd" d="M217.766 188.968H136.46C136.46 181.796 142.272 175.981 149.442 175.981H204.785C211.954 175.981 217.766 181.796 217.766 188.968" fill="#3879DB"/>
<path fill-rule="evenodd" clip-rule="evenodd" d="M76.7751 133.278V159.467C76.7751 161.13 78.1223 162.478 79.7839 162.478H274.442C276.103 162.478 277.451 161.13 277.451 159.467V133.278H76.7751" fill="#2F72D9"/>
<path fill-rule="evenodd" clip-rule="evenodd" d="M82.2872 128.388H271.938V37.8555H82.2872V128.388Z" fill="#F5F5F5"/>
<path d="M46.932 81.5949C52.6224 82.9307 57.2144 87.6134 59.1864 93.118C61.1584 98.6227 60.708 104.806 58.72 110.305C57.3048 114.219 54.7912 118.139 50.8272 119.403C47.9144 120.331 44.6976 119.642 41.944 118.319C40.0024 117.386 38.0448 115.889 37.756 113.754C37.4776 111.69 38.8904 109.74 40.5816 108.527C43.952 106.107 48.6168 105.784 52.4368 107.401C56.2568 109.018 59.196 112.427 60.5832 116.337C61.9112 120.079 61.8872 124.141 62.028 128.109C62.1688 132.077 62.5336 136.192 64.512 139.635C66.4896 143.078 70.5096 145.647 74.3752 144.747" stroke="#4086F1" stroke-width="1.1992" stroke-linecap="round" stroke-linejoin="round" stroke-dasharray="2.44 3.66"/>
<path fill-rule="evenodd" clip-rule="evenodd" d="M43.24 32.9438C43.24 34.4693 42.004 35.705 40.48 35.705C38.9568 35.705 37.7208 34.4693 37.7208 32.9438C37.7208 31.42 38.9568 30.1835 40.48 30.1835C42.004 30.1835 43.24 31.42 43.24 32.9438Z" stroke="#2175AE" stroke-width="0.725117"/>
<path fill-rule="evenodd" clip-rule="evenodd" d="M25.7496 104.821C25.7496 105.736 25.0088 106.477 24.0944 106.477C23.18 106.477 22.4392 105.736 22.4392 104.821C22.4392 103.906 23.18 103.165 24.0944 103.165C25.0088 103.165 25.7496 103.906 25.7496 104.821" fill="#4086F1"/>
<path fill-rule="evenodd" clip-rule="evenodd" d="M30.3792 25.6321C30.3792 26.546 29.6384 27.2879 28.724 27.2879C27.8096 27.2879 27.068 26.546 27.068 25.6321C27.068 24.7165 27.8096 23.9754 28.724 23.9754C29.6384 23.9754 30.3792 24.7165 30.3792 25.6321" fill="#2175AE"/>
<path d="M55.8623 15.5583V24.3627H56.5874V15.5583H55.8623ZM60.6256 19.5984H51.8248V20.3235H60.6256V19.5984ZM12.8855 88.2432V97.0484H13.6106V88.2432H12.8855ZM17.6488 92.2833H8.84802V93.0084H17.6488V92.2833Z" fill="#4086F1"/>
<path fill-rule="evenodd" clip-rule="evenodd" d="M324.912 79.987C324.912 81.5117 323.676 82.7474 322.153 82.7474C320.629 82.7474 319.394 81.5117 319.394 79.987C319.394 78.4616 320.629 77.2259 322.153 77.2259C323.676 77.2259 324.912 78.4616 324.912 79.987Z" stroke="#4086F1" stroke-width="0.725117"/>
<path fill-rule="evenodd" clip-rule="evenodd" d="M312.052 72.6745C312.052 73.5884 311.31 74.3303 310.396 74.3303C309.482 74.3303 308.74 73.5884 308.74 72.6745C308.74 71.7589 309.482 71.0178 310.396 71.0178C311.31 71.0178 312.052 71.7589 312.052 72.6745" fill="#4086F1"/>
<path d="M337.534 62.6007V71.4051H338.259V62.6007H337.534ZM342.297 66.6408H333.496V67.3659H342.297V66.6408Z" fill="#4086F1"/>
<path fill-rule="evenodd" clip-rule="evenodd" d="M288.363 16.578C288.363 17.4927 287.622 18.2338 286.707 18.2338C285.793 18.2338 285.052 17.4927 285.052 16.578C285.052 15.6632 285.793 14.9221 286.707 14.9221C287.622 14.9221 288.363 15.6632 288.363 16.578" fill="#4086F1"/>
<path d="M275.499 0V8.80439H276.224V0H275.499ZM280.262 4.04004H271.461V4.76516H280.262V4.04004Z" fill="#4086F1"/>
<path d="M283.322 89.7606C283.604 89.4677 283.895 89.1828 284.194 88.9059" stroke="#2175AE" stroke-width="1.1992" stroke-linecap="round" stroke-linejoin="round"/>
<path d="M287.03 86.693C290.121 84.6714 293.727 83.4325 297.413 83.1804C299.826 83.0147 302.408 83.3124 304.322 84.7914C306.652 86.5898 307.487 90.076 306.225 92.7347C304.962 95.3949 301.734 96.9508 298.868 96.2809C294.666 95.2997 292.53 90.5098 292.189 86.2072C291.53 77.8974 295.27 69.6796 300.822 63.4627C302.71 61.3482 304.794 59.4363 307.01 57.6812" stroke="#4086F1" stroke-width="1.1992" stroke-linecap="round" stroke-linejoin="round" stroke-dasharray="2.4 3.6"/>
</svg>
