<?xml version="1.0" encoding="utf-8"?>
<svg width="112px" height="87px" viewBox="0 0 112 87" version="1.1" xmlns:xlink="http://www.w3.org/1999/xlink" xmlns="http://www.w3.org/2000/svg">
  <g id="Group-5">
    <path d="M1.67156 72.2428C0.748444 72.2428 0 71.4936 0 70.5701L0 1.67268C0 0.74875 0.748444 0 1.67156 0L109.815 0C110.738 0 111.487 0.74875 111.487 1.67268L111.487 70.5701C111.487 71.4936 110.738 72.2428 109.815 72.2428L1.67156 72.2428Z" transform="matrix(1 0 0 1 -4.618528E-13 -3.5527137E-14)" id="Fill-5" fill="#3879DB" fill-rule="evenodd" stroke="none" />
    <path d="M0 7.50173L31.8849 7.50173L31.8849 0L0 0L0 7.50173Z" transform="translate(39.800446 72.24282)" id="Fill-6" fill="#4086F1" fill-rule="evenodd" stroke="none" />
    <path d="M45.1698 7.21494L0 7.21494C0 3.23021 3.22889 0 7.212 0L37.9582 0C41.9413 0 45.1698 3.23021 45.1698 7.21494" transform="translate(33.158222 79.744545)" id="Fill-7" fill="#3879DB" fill-rule="evenodd" stroke="none" />
    <path d="M0 0L0 14.5499C0 15.4734 0.748444 16.2226 1.67156 16.2226L109.815 16.2226C110.738 16.2226 111.487 15.4734 111.487 14.5499L111.487 0L0 0" transform="translate(-4.618528E-13 56.0202)" id="Fill-8" fill="#2F72D9" fill-rule="evenodd" stroke="none" />
    <path d="M0 50.2956L105.362 50.2956L105.362 0L0 0L0 50.2956Z" transform="translate(3.3471112 2.9770882)" id="Fill-9" fill="#F5F5F5" fill-rule="evenodd" stroke="none" />
    <g id="check-2" transform="translate(41.34711 12.977088)">
      <path d="M15 0C6.72867 0 0 6.72867 0 15C0 23.2713 6.72867 30 15 30C23.2713 30 30 23.2713 30 15C30 6.72867 23.2713 0 15 0ZM22.6025 11.8213L14.4775 19.9461C14.2337 20.1899 13.9137 20.3126 13.5938 20.3126C13.2738 20.3126 12.9538 20.1899 12.71 19.9461L8.64761 15.8837C8.15872 15.3951 8.15872 14.6049 8.64761 14.1163C9.13628 13.6274 9.92615 13.6274 10.415 14.1163L13.5938 17.295L20.8351 10.0539C21.3238 9.56497 22.1136 9.56497 22.6025 10.0539C23.0912 10.5425 23.0912 11.3324 22.6025 11.8213Z" id="Shape" fill="#39B31E" stroke="none" />
    </g>
  </g>
</svg>