<svg width="60" height="60" viewBox="0 0 60 60" fill="none" xmlns="http://www.w3.org/2000/svg">
<circle cx="30" cy="30" r="30" fill="#7AA5DA"/>
<path fill-rule="evenodd" clip-rule="evenodd" d="M47.1368 17.4828C47.3994 16.2263 46.1631 15.1798 44.9671 15.6465L13.557 27.8848C12.5408 28.2828 12.6014 29.7413 13.6499 30.0504L21.6318 32.408L24.6095 41.8606C24.9206 42.8465 26.1711 43.1476 26.8964 42.4081L31.0236 38.1939L39.1206 44.1373C40.1105 44.8646 41.5226 44.3232 41.7731 43.1212L47.1368 17.4828ZM40.5771 20.7272C40.9731 20.4808 41.3791 21.0262 41.0297 21.3353L26.4397 34.2364C26.2942 34.3656 26.2013 34.5434 26.1811 34.7374L25.6559 42.5999C25.6356 42.7635 25.4094 42.7858 25.3629 42.6282L23.0134 32.311C22.9064 31.9696 23.0457 31.5999 23.3488 31.4121L40.5771 20.7272Z" fill="white"/>
<path d="M40.5769 20.7272C40.9729 20.4807 41.379 21.0261 41.0295 21.3353L26.4397 34.2363C26.2942 34.3656 26.2013 34.5434 26.181 34.7373L25.6558 42.5999C25.6356 42.7635 25.4094 42.7857 25.3628 42.6281L23.0133 32.3109C22.9062 31.9696 23.0457 31.5998 23.3487 31.412L40.5769 20.7272Z" fill="#9EC2E5"/>
<path d="M25.4479 42.7362C25.0681 42.6008 24.7468 42.2978 24.6095 41.8613L21.6318 32.4088L13.6499 30.0512C12.6014 29.742 12.5408 28.2835 13.557 27.8856L44.967 15.6473C45.7386 15.3463 46.5286 15.6756 46.9185 16.2858C46.8457 16.1747 46.7589 16.0717 46.662 15.9807L25.3528 33.3766V34.1382L25.2356 34.0534L25.3528 38.8494V42.6958C25.3832 42.71 25.4154 42.7221 25.4477 42.7322V42.7362H25.4479Z" fill="white"/>
<path d="M26.8696 42.5188C26.8076 42.5706 26.7454 42.6188 26.68 42.6636V42.6602C26.7456 42.6154 26.8076 42.5706 26.8696 42.5188Z" fill="#DADDE0"/>
<path d="M26.7199 42.6305V42.6339C26.7199 42.6339 26.7199 42.6305 26.7165 42.6339C26.7165 42.6339 26.7165 42.6339 26.7199 42.6305Z" fill="#DADDE0"/>
<path d="M26.4375 42.7928C26.5204 42.7388 26.5991 42.6721 26.6759 42.5928C26.5991 42.672 26.5182 42.7386 26.4375 42.7928Z" fill="#DADDE0"/>
<path d="M25.7793 42.8652C25.9571 42.8962 26.1368 42.872 26.3126 42.7824C26.1854 42.8514 26.054 42.8824 25.9227 42.8824C25.8823 42.8824 25.8419 42.879 25.8036 42.872C25.7955 42.8722 25.7874 42.8722 25.7793 42.8652Z" fill="#DADDE0"/>
<path d="M26.0037 42.864C25.9359 42.864 25.868 42.8606 25.8037 42.8536C25.868 42.8606 25.9359 42.864 26.0037 42.864Z" fill="white"/>
<path d="M25.8416 42.855C25.8549 42.8618 25.8683 42.8618 25.8816 42.8618C25.8116 42.8584 25.7482 42.848 25.6816 42.8342C25.7348 42.8448 25.7882 42.8516 25.8416 42.855Z" fill="white"/>
<path d="M25.8416 42.8594C25.7945 42.856 25.7474 42.849 25.7005 42.8388C25.6798 42.8354 25.6593 42.832 25.6416 42.825C25.7063 42.8388 25.7739 42.8526 25.8416 42.8594Z" fill="#DADDE0"/>
<path d="M25.4902 42.7762C25.5568 42.8004 25.6236 42.821 25.6902 42.8418C25.663 42.835 25.6358 42.828 25.6085 42.8212C25.5964 42.8178 25.5843 42.8144 25.5751 42.8074C25.5477 42.8004 25.5175 42.79 25.4902 42.7762Z" fill="#DADDE0"/>
<path d="M25.5906 42.8114C25.6216 42.8182 25.6526 42.8252 25.6836 42.832C25.6526 42.8286 25.6216 42.8218 25.5906 42.8114Z" fill="white"/>
<path d="M25.5234 42.7865C25.5544 42.8003 25.589 42.8107 25.62 42.8175C25.5682 42.8071 25.5166 42.7899 25.4648 42.7693C25.4854 42.7761 25.5026 42.7831 25.5234 42.7865Z" fill="white"/>
<path d="M25.5464 42.7953C25.5258 42.7919 25.5084 42.7849 25.4878 42.7781C25.4844 42.7815 25.4774 42.7781 25.474 42.7747V42.7679C25.498 42.7815 25.5222 42.7883 25.5464 42.7953Z" fill="#DADDE0"/>
<path d="M25.3608 38.8486L25.5228 42.7314C25.4676 42.7213 25.4124 42.7091 25.3608 42.6951V38.8486Z" fill="#D1D1D1"/>
<path d="M25.4354 34.1376V38.8488L25.2354 34.0527L25.4354 34.1376Z" fill="#DADDE0"/>
<path d="M41.0295 21.3362L26.4397 34.2372C26.2942 34.3665 26.2013 34.5443 26.181 34.7382L25.6567 42.6015C25.6366 42.7651 25.4103 42.7873 25.3618 42.6297L23.0133 32.312C22.9062 31.9706 23.0457 31.6009 23.3487 31.413L40.577 20.7282C40.973 20.4816 41.3791 21.0271 41.0295 21.3362Z" fill="#ADBCC9"/>
</svg>
