<?xml version="1.0" encoding="UTF-8"?>
<svg width="113px" height="88px" viewBox="0 0 113 88" version="1.1" xmlns="http://www.w3.org/2000/svg" xmlns:xlink="http://www.w3.org/1999/xlink">
    <title>Group 2</title>
    <g id="Page-1" stroke="none" stroke-width="1" fill="none" fill-rule="evenodd">
        <g id="1" transform="translate(-664.000000, -374.000000)">
            <g id="Group-2" transform="translate(664.652889, 374.022912)">
                <path d="M1.67155556,72.2428202 C0.748444444,72.2428202 -7.10542736e-15,71.4936255 -7.10542736e-15,70.5701375 L-7.10542736e-15,1.67268273 C-7.10542736e-15,0.748750057 0.748444444,2.13162821e-14 1.67155556,2.13162821e-14 L109.814667,2.13162821e-14 C110.737778,2.13162821e-14 111.486667,0.748750057 111.486667,1.67268273 L111.486667,70.5701375 C111.486667,71.4936255 110.737778,72.2428202 109.814667,72.2428202 L1.67155556,72.2428202 Z" id="Fill-5" fill="#3879DB"></path>
                <polygon id="Fill-6" fill="#4086F1" points="39.8004444 79.7445488 71.6853333 79.7445488 71.6853333 72.2428202 39.8004444 72.2428202"></polygon>
                <path d="M78.328,86.9594937 L33.1582222,86.9594937 C33.1582222,82.9747561 36.3871111,79.7445488 40.3702222,79.7445488 L71.1164444,79.7445488 C75.0995556,79.7445488 78.328,82.9747561 78.328,86.9594937" id="Fill-7" fill="#3879DB"></path>
                <path d="M-7.10542736e-15,56.0201987 L-7.10542736e-15,70.5701375 C-7.10542736e-15,71.4936255 0.748444444,72.2428202 1.67155556,72.2428202 L109.814667,72.2428202 C110.737778,72.2428202 111.486667,71.4936255 111.486667,70.5701375 L111.486667,56.0201987 L-7.10542736e-15,56.0201987" id="Fill-8" fill="#2F72D9"></path>
                <polygon id="Fill-9" fill="#F5F5F5" points="3.34711111 53.2727281 108.708889 53.2727281 108.708889 2.97708815 3.34711111 2.97708815"></polygon>
            </g>
        </g>
    </g>
</svg>