<?xml version="1.0" encoding="UTF-8"?>
<svg width="19px" height="16px" viewBox="0 0 19 16" version="1.1" xmlns="http://www.w3.org/2000/svg" xmlns:xlink="http://www.w3.org/1999/xlink">
    <title>twitter-2</title>
    <g id="Page-1" stroke="none" stroke-width="1" fill="none" fill-rule="evenodd">
        <g id="3-Вход" transform="translate(-712.000000, -593.000000)" fill="#FFFFFF" fill-rule="nonzero">
            <g id="Group-4" transform="translate(492.000000, 244.000000)">
                <g id="twitter" transform="translate(162.000000, 337.000000)">
                    <g id="twitter-2" transform="translate(58.000000, 12.000000)">
                        <path d="M17.9354696,1.76680935 C17.5305312,1.94669992 17.1101739,2.08861804 16.678841,2.19136177 C17.1541203,1.7388976 17.5114685,1.17296126 17.7130712,0.541274281 L17.7130712,0.541274281 C17.7706148,0.360938553 17.5750998,0.204997784 17.4125557,0.301553744 L17.4125557,0.301553744 C16.8125022,0.658129695 16.1661472,0.925628433 15.491398,1.09670476 C15.4522506,1.10663191 15.411859,1.11166225 15.371334,1.11166225 C15.2484261,1.11166225 15.1289398,1.06594396 15.0349592,0.98296549 C14.3170635,0.349097204 13.3937436,0 12.4351422,0 C12.0203392,0 11.6015371,0.064771287 11.1903333,0.192533207 C9.91628611,0.588417093 8.93324527,1.64127325 8.62482026,2.9402603 C8.5091109,3.42749173 8.47778405,3.91516833 8.53163956,4.3897126 C8.53781606,4.44424513 8.51208806,4.48230661 8.49622468,4.50015766 C8.46836378,4.53145266 8.42886085,4.54939274 8.38784712,4.54939274 C8.3832703,4.54939274 8.37856016,4.54917016 8.37389446,4.548725 C5.58504987,4.28915017 3.07019298,2.94310934 1.29256117,0.758603094 L1.29256117,0.758603094 C1.20191328,0.647178673 1.02808261,0.660845192 0.955830912,0.785001288 L0.955830912,0.785001288 C0.607725235,1.38330101 0.423763338,2.06760632 0.423763338,2.76393104 C0.423763338,3.83107695 0.851719143,4.83674577 1.59507629,5.56988552 C1.28247437,5.49563225 0.979914812,5.3786878 0.698861914,5.22230187 L0.698861914,5.22230187 C0.562890077,5.14662407 0.395591395,5.2438923 0.39368068,5.39969951 L0.39368068,5.39969951 C0.374218044,6.98501572 1.30069282,8.39564976 2.68858313,9.03085354 C2.66063336,9.03152128 2.6326836,9.0318329 2.6046894,9.0318329 C2.38469052,9.0318329 2.16193666,9.01055408 1.94269318,8.96857517 L1.94269318,8.96857517 C1.78956934,8.93928341 1.66092931,9.08480735 1.70847502,9.23353647 L1.70847502,9.23353647 C2.15895949,10.6425234 3.36990868,11.6810898 4.81903075,11.9168929 C3.61634652,12.7257105 2.21579217,13.1523551 0.75809409,13.1523551 L0.303654882,13.152088 C0.163639438,13.152088 0.0452195206,13.2435246 0.00953802216,13.3793885 C-0.0256102534,13.5132047 0.0391318926,13.654366 0.158529385,13.7239451 C1.8011225,14.6816253 3.67473443,15.1877761 5.57762919,15.1877761 C7.24328419,15.1877761 8.80136148,14.856619 10.2086256,14.2035642 C11.4987139,13.6048638 12.6387444,12.749037 13.5970348,11.6598555 C14.4897388,10.6452389 15.1878165,9.47396927 15.6718051,8.17863257 C16.1331762,6.94388261 16.3770368,5.62637676 16.3770368,4.36852282 L16.3770368,4.30860382 C16.3769924,4.10663314 16.4681735,3.91659285 16.6272517,3.78722834 C17.2309044,3.29621302 17.7565733,2.71821275 18.1895947,2.06929794 L18.1895947,2.06929794 C18.3039266,1.89795452 18.1236084,1.68320765 17.9354696,1.76680935 L17.9354696,1.76680935 Z" id="Path"></path>
                    </g>
                </g>
            </g>
        </g>
    </g>
</svg>