<svg width="70" height="70" viewBox="0 0 70 70" fill="none" xmlns="http://www.w3.org/2000/svg">
<circle cx="35" cy="35" r="35" fill="#6F3FAA"/>
<path fill-rule="evenodd" clip-rule="evenodd" d="M53.5042 24.5532L53.5156 24.5994C54.6716 29.8793 54.6716 35.2335 53.5155 40.5133L53.504 40.5595C52.5689 44.3399 48.3527 48.3969 44.4809 49.2409L44.4372 49.2499C41.3067 49.8471 38.1528 50.1453 35.0005 50.1453C34.0729 50.1453 33.145 50.1163 32.2175 50.0645L27.9416 54.5091C26.8831 55.6114 25.0217 54.8613 25.0217 53.3337V49.1135C21.2943 48.0491 17.3922 44.1786 16.4956 40.5594L16.4852 40.5132C15.3291 35.2335 15.3291 29.8791 16.4852 24.5994L16.4956 24.5532C17.432 20.7728 21.6483 16.7158 25.5188 15.8718L25.5638 15.8628C31.8249 14.6681 38.1748 14.6681 44.4374 15.8628L44.481 15.8718C48.3529 16.7158 52.569 20.7725 53.5042 24.5532ZM43.7627 45.8471C46.3062 45.2806 49.5073 42.2142 50.1317 39.7477C51.1735 34.9754 51.1735 30.1375 50.1319 25.365C49.5075 22.8985 46.3076 19.8321 43.7628 19.2656C37.9486 18.1595 32.0522 18.1595 26.2367 19.2656C23.6932 19.8321 20.4931 22.8985 19.8677 25.365C18.8271 30.1373 18.8271 34.9752 19.8677 39.7475C20.4931 42.2141 23.6932 45.2804 26.2367 45.847C26.2369 45.847 26.2371 45.8471 26.2373 45.8471C26.2377 45.8471 26.2381 45.8472 26.2386 45.8474C26.3521 45.8698 26.4345 45.9678 26.4345 46.0834V53.0746C26.4345 53.4239 26.8611 53.5963 27.1039 53.3431L30.4245 49.935C30.4245 49.935 33.0706 47.2184 33.5465 46.73C33.5929 46.6822 33.657 46.6562 33.7237 46.6581C37.0766 46.751 40.4329 46.4804 43.7627 45.8471Z" fill="white"/>
<path d="M40.5334 42.9741C40.1424 42.8553 39.7698 42.7756 39.4235 42.6321C35.8372 41.1442 32.5369 39.2247 29.9227 36.2824C28.436 34.6092 27.2724 32.7202 26.2888 30.7211C25.8223 29.7731 25.4293 28.788 25.0285 27.8091C24.6632 26.9166 25.2013 25.9946 25.7679 25.3219C26.2996 24.6907 26.9839 24.2078 27.7249 23.8516C28.3032 23.5738 28.8736 23.7341 29.2961 24.2242C30.2091 25.284 31.048 26.398 31.7269 27.6266C32.1446 28.3822 32.03 29.3059 31.273 29.8201C31.089 29.945 30.9214 30.0919 30.7501 30.233C30.5997 30.3567 30.4583 30.4817 30.3552 30.6492C30.167 30.9555 30.1579 31.3172 30.2791 31.6503C31.2125 34.2153 32.7857 36.21 35.3676 37.2845C35.7808 37.4564 36.1956 37.6564 36.6716 37.601C37.4687 37.5079 37.7268 36.6335 38.2855 36.1767C38.8314 35.7303 39.5292 35.7244 40.1172 36.0966C40.7055 36.469 41.2756 36.8685 41.8425 37.2725C42.3989 37.669 42.9528 38.0566 43.4659 38.5087C43.9594 38.9433 44.1294 39.5134 43.8514 40.1031C43.3428 41.1833 42.6025 42.0817 41.5349 42.6554C41.2334 42.817 40.8733 42.8693 40.5334 42.9741C40.8733 42.8693 40.1424 42.8553 40.5334 42.9741Z" fill="white"/>
<path d="M35.0094 22.6171C39.7001 22.7486 43.553 25.8616 44.3786 30.4991C44.5193 31.2893 44.5693 32.097 44.6319 32.8992C44.6583 33.2364 44.4672 33.5569 44.1033 33.5614C43.7273 33.5659 43.5582 33.2512 43.5336 32.9142C43.4853 32.2467 43.4518 31.5761 43.3598 30.9144C42.8743 27.42 40.088 24.5291 36.6098 23.9088C36.0863 23.8154 35.551 23.791 35.0206 23.7353C34.6855 23.7002 34.2467 23.6799 34.1724 23.2632C34.1102 22.9139 34.405 22.6358 34.7376 22.6179C34.8277 22.6126 34.9186 22.6168 35.0094 22.6171C34.9186 22.6168 39.7004 22.7486 35.0094 22.6171Z" fill="white"/>
<path d="M42.1381 31.8577C42.1303 31.9163 42.1263 32.054 42.0918 32.1836C41.9674 32.6545 41.2532 32.7134 41.089 32.2383C41.0402 32.0974 41.033 31.9369 41.0327 31.7851C41.031 30.7917 40.8152 29.7991 40.3141 28.9346C39.7991 28.0461 39.0121 27.2995 38.0894 26.8474C37.5313 26.5742 36.928 26.4043 36.3163 26.3032C36.049 26.2589 35.7789 26.2323 35.5102 26.1948C35.1847 26.1495 35.0108 25.9421 35.0264 25.6214C35.0407 25.3209 35.2604 25.1045 35.588 25.1232C36.6644 25.1842 37.7043 25.4171 38.6614 25.9238C40.6075 26.9545 41.7193 28.5812 42.0439 30.7536C42.0585 30.8521 42.082 30.9495 42.0895 31.0482C42.1078 31.2918 42.1195 31.5359 42.1381 31.8577C42.1195 31.5359 42.1303 31.9161 42.1381 31.8577Z" fill="white"/>
<path d="M39.2207 31.7448C38.8283 31.752 38.6183 31.5346 38.5777 31.175C38.5497 30.9243 38.5273 30.67 38.4674 30.4258C38.3495 29.9449 38.094 29.4995 37.6896 29.2049C37.4987 29.0658 37.2823 28.9645 37.0558 28.8989C36.768 28.8156 36.4688 28.8386 36.1819 28.7683C35.87 28.6919 35.6975 28.4393 35.7465 28.1468C35.7911 27.8805 36.0501 27.6727 36.3411 27.6939C38.1598 27.8251 39.4596 28.7653 39.6451 30.9064C39.6583 31.0574 39.6737 31.217 39.6402 31.3618C39.5825 31.6088 39.3993 31.7328 39.2207 31.7448C39.3993 31.7328 38.8282 31.7518 39.2207 31.7448Z" fill="white"/>
<path d="M40.5448 43.0525C40.9198 42.8738 40.1135 42.8498 40.5448 43.0525V43.0525Z" fill="white"/>
<path d="M35.0751 22.6659C35.0683 22.6659 35.0618 22.6652 35.055 22.6652C35.0485 22.6648 35.0569 22.6652 35.0751 22.6659Z" fill="white"/>
<path d="M35.0098 22.645C35.0137 22.645 35.0176 22.6457 35.0215 22.6457C35.2818 22.6615 39.5157 22.8606 35.0098 22.645Z" fill="white"/>
<path d="M42.1899 31.9503C42.1582 31.4027 42.1766 32.0496 42.1899 31.9503V31.9503Z" fill="white"/>
<path d="M39.2809 31.7941C39.2914 31.7934 39.3015 31.788 39.3115 31.7869C39.2833 31.7869 39.2399 31.7876 39.1953 31.7892C39.2242 31.7899 39.2506 31.7943 39.2809 31.7941Z" fill="white"/>
<path d="M39.3134 31.7936C39.2842 31.794 39.2584 31.7896 39.2303 31.7887C39.0897 31.7926 38.9445 31.8003 39.3134 31.7936Z" fill="white"/>
<path d="M39.2869 31.7869C39.2764 31.788 39.2664 31.7934 39.2563 31.7941C39.3347 31.7887 39.328 31.7869 39.2869 31.7869Z" fill="white"/>
</svg>
