<?xml version="1.0" encoding="UTF-8"?>
<svg width="27px" height="16px" viewBox="0 0 27 16" version="1.1" xmlns="http://www.w3.org/2000/svg" xmlns:xlink="http://www.w3.org/1999/xlink">
    <title>vk-social-network-logo</title>
    <g id="Page-1" stroke="none" stroke-width="1" fill="none" fill-rule="evenodd">
        <g id="3-Вход" transform="translate(-708.000000, -638.000000)" fill="#FFFFFF" fill-rule="nonzero">
            <g id="Group-4" transform="translate(492.000000, 244.000000)">
                <g id="vk-social-network-logo" transform="translate(162.000000, 382.000000)">
                    <g transform="translate(54.000000, 12.000000)" id="Path">
                        <path d="M26.5576873,13.7027599 C26.5253575,13.6335443 26.4952188,13.5761306 26.4672224,13.5301319 C26.0039913,12.701334 25.1187692,11.6840432 23.8120915,10.4779694 L23.7844846,10.4503508 L23.7706568,10.4368076 L23.7566829,10.4229258 L23.7426604,10.4229258 C23.1496234,9.86131664 22.7740819,9.48370209 22.6168151,9.29037234 C22.3290607,8.92209295 22.264596,8.54931527 22.4218628,8.17160399 C22.532972,7.88622858 22.9503376,7.2835544 23.6729858,6.3627592 C24.0531041,5.87476724 24.3541507,5.48365782 24.5764665,5.18899562 C26.1798575,3.07141333 26.8749962,1.71825019 26.6617366,1.12897415 L26.5789159,0.991268421 C26.5232639,0.908364446 26.3796301,0.832522302 26.1482094,0.763355042 C25.916253,0.694332887 25.6197832,0.682917871 25.2582643,0.728916517 L21.2548263,0.756389947 C21.189972,0.733559914 21.0973647,0.735688137 20.9767124,0.763355042 C20.8562061,0.791021946 20.7959286,0.804903767 20.7959286,0.804903767 L20.7262541,0.839487397 L20.6709429,0.881036122 C20.6245906,0.908509552 20.5736128,0.956829897 20.5179608,1.02590042 C20.4626009,1.0947291 20.4162973,1.17550485 20.3792933,1.26755051 C19.9434257,2.38153036 19.4478649,3.41724963 18.8916858,4.37465995 C18.5487663,4.94555588 18.2338432,5.44031946 17.9462348,5.85924089 C17.659016,6.27801721 17.4180521,6.58656124 17.2235866,6.78434091 C17.028829,6.98231405 16.8530602,7.14091507 16.6952091,7.26072437 C16.5376015,7.38058204 16.41729,7.43122409 16.3339824,7.41269887 C16.2504801,7.39417365 16.1718467,7.37579354 16.0974005,7.35741343 C15.9677407,7.27450945 15.8634479,7.16176198 15.7848145,7.01907428 C15.7058403,6.87638657 15.6526715,6.69679354 15.6248698,6.48044028 C15.5972142,6.26394192 15.5808546,6.07772237 15.5761804,5.92115284 C15.5718471,5.76477679 15.5738433,5.54358666 15.5832404,5.25821125 C15.5928809,4.97269073 15.5972142,4.77950609 15.5972142,4.678222 C15.5972142,4.32832273 15.6040794,3.94857995 15.6178586,3.53889695 C15.6318811,3.12921394 15.6432257,2.8046115 15.6527202,2.56547658 C15.6621659,2.32609982 15.666548,2.07284123 15.666548,1.80584593 C15.666548,1.53885063 15.6501883,1.32946247 15.6178586,1.17748797 C15.5859183,1.02570695 15.5368881,0.878375843 15.4722772,0.735543031 C15.4072769,0.592855325 15.3121377,0.48247792 15.1872981,0.404120604 C15.062215,0.325860025 14.906701,0.263754596 14.7216326,0.217610844 C14.2304051,0.10718507 13.6048923,0.0474497083 12.8448019,0.0381629152 C11.1211481,0.019782804 10.0136101,0.130353684 9.52243133,0.369730448 C9.32781976,0.470869429 9.15171017,0.609058844 8.99424861,0.783863376 C8.82739001,0.986479918 8.80411647,1.0970508 8.92457407,1.11523743 C9.48070451,1.1979963 9.87440708,1.39596945 10.10612,1.7089634 L10.1896223,1.87481972 C10.254574,1.99448391 10.3194283,2.20633888 10.3843313,2.5100944 C10.4491369,2.81384993 10.4909611,3.14986738 10.5093657,3.51795329 C10.5556206,4.19013331 10.5556206,4.76552753 10.5093657,5.24418432 C10.4629647,5.72303459 10.4191442,6.09581227 10.37732,6.36280757 C10.3354958,6.62980287 10.2729786,6.84615612 10.1896223,7.01181897 C10.10612,7.17753018 10.0505654,7.27881427 10.022715,7.31557449 C9.99491337,7.35233471 9.97173721,7.37550333 9.95333261,7.38459665 C9.83287501,7.43045019 9.70759716,7.45381228 9.57793726,7.45381228 C9.4480826,7.45381228 9.29062105,7.38928841 9.10530916,7.26033742 C8.92004595,7.13138643 8.72777147,6.9542602 8.52848572,6.72866852 C8.32919996,6.50302847 8.10444965,6.18771282 7.85413739,5.78267321 C7.60401989,5.3776336 7.34450534,4.89892844 7.0757398,4.34655773 L6.85337526,3.94596804 C6.714367,3.68825954 6.5244783,3.31301505 6.28351441,2.82057318 C6.04240445,2.32793783 5.82929091,1.85140926 5.6440277,1.39108421 C5.56997111,1.19775446 5.45871581,1.05056846 5.31045655,0.949284378 L5.24087939,0.907735652 C5.19462445,0.87097543 5.1203731,0.831941878 5.01851485,0.790344784 C4.91651054,0.748796059 4.81007549,0.719000931 4.6987715,0.700669188 L0.889847654,0.728142618 C0.500624512,0.728142618 0.236533153,0.815738359 0.0974761985,0.990687997 L0.0418242031,1.07344687 C0.01402255,1.11954225 0,1.19315943 0,1.29449189 C0,1.39577597 0.027801653,1.52008357 0.0834536485,1.66726957 C0.639486709,2.96548584 1.24416049,4.21751 1.89747499,5.42353551 C2.55078949,6.62956102 3.11850801,7.60104664 3.60028972,8.33712173 C4.08216881,9.07372887 4.57334758,9.76893239 5.07382602,10.4223937 C5.57430447,11.0760969 5.90558721,11.4950183 6.06767426,11.6790613 C6.22995606,11.8634428 6.35742493,12.0012936 6.45008088,12.0933393 L6.79767458,12.4247134 C7.0200878,12.64571 7.34669636,12.9103836 7.77764633,13.2187342 C8.20869368,13.5272782 8.68589858,13.8310337 9.20950449,14.1304844 C9.73320779,14.4294514 10.3424584,14.6734232 11.0375971,14.8621096 C11.7326384,15.0509894 12.4091291,15.1267832 13.0671664,15.0902164 L14.6658345,15.0902164 C14.9900573,15.0624044 15.2356954,14.9611203 15.4026514,14.7863158 L15.4579625,14.7171002 C15.4951612,14.6621533 15.5299742,14.5767825 15.5621092,14.4619069 C15.5946337,14.3468377 15.6107986,14.2200633 15.6107986,14.0821641 C15.6013042,13.6863629 15.6316377,13.3296436 15.7009714,13.0120547 C15.7702564,12.6945624 15.8492306,12.4551857 15.9375532,12.2939727 C16.0258271,12.1329049 16.1254456,11.9969888 16.2363114,11.8868049 C16.3474207,11.7763791 16.4265896,11.7094852 16.4730393,11.6864617 C16.5191969,11.6632931 16.5560548,11.6475732 16.5838564,11.6381413 C16.8062697,11.5645242 17.0680239,11.6358196 17.3695088,11.8523664 C17.6707501,12.0687196 17.9532948,12.33586 18.2175809,12.6533523 C18.4817209,12.9711347 18.7990785,13.3276605 19.1697023,13.7234617 C19.5405695,14.119408 19.864841,14.4137316 20.1427602,14.6073516 L20.4206793,14.7730628 C20.6062833,14.8836337 20.8472472,14.9849178 21.1438631,15.0769634 C21.4399434,15.1689786 21.6993606,15.1919842 21.9221146,15.1459856 L25.4806775,15.0908452 C25.8326533,15.0908452 26.1065312,15.0329479 26.300802,14.9180722 C26.4954622,14.803003 26.6110996,14.6762286 26.6483957,14.5383294 C26.6855944,14.4002851 26.6875906,14.2436672 26.6554556,14.0685725 C26.6224929,13.893913 26.5900171,13.771782 26.5576873,13.7027599 Z"></path>
                    </g>
                </g>
            </g>
        </g>
    </g>
</svg>