<?xml version="1.0" encoding="UTF-8"?>
<svg width="40px" height="34px" viewBox="0 0 40 34" version="1.1" xmlns="http://www.w3.org/2000/svg" xmlns:xlink="http://www.w3.org/1999/xlink">
    <title>warning-2</title>
    <g id="Page-1" stroke="none" stroke-width="1" fill="none" fill-rule="evenodd">
        <g id="1" transform="translate(-700.000000, -385.000000)" fill="#EDB04B" fill-rule="nonzero">
            <g id="warning-2" transform="translate(700.000000, 385.000000)">
                <path d="M38.9689293,31.4364646 L21.5258262,1.2887806 C20.5521472,-0.383736721 20.0494756,-0.383736721 19.0757966,1.2887806 L0.987532159,31.4364646 C0.0138531565,33.1089819 -0.0573916485,33.9224988 1.88996636,33.9224988 L38.0664952,33.9224988 C40.0138532,33.9224988 39.9426084,33.1089819 38.9689293,31.4364646 Z M20.001979,10.1774642 C21.0785672,10.1774642 21.949337,11.0647621 21.9176727,12.1326605 L21.6010291,23.0943233 C21.5772808,23.9580647 20.8648328,24.6412055 19.9940629,24.6412055 C19.1232931,24.6412055 18.410845,23.9502125 18.3870968,23.0943233 L18.0783693,12.1326605 C18.054621,11.0647621 18.9174748,10.1774642 20.001979,10.1774642 Z M19.9782308,30.004254 C18.8778943,30.004254 17.9833762,29.1169561 17.9833762,28.0255012 C17.9833762,26.9340462 18.8778943,26.0467483 19.9782308,26.0467483 C21.0785672,26.0467483 21.9730853,26.9340462 21.9730853,28.0255012 C21.9730853,29.1169561 21.0785672,30.004254 19.9782308,30.004254 Z" id="Shape"></path>
            </g>
        </g>
    </g>
</svg>