<svg width="60" height="60" viewBox="0 0 60 60" fill="none" xmlns="http://www.w3.org/2000/svg">
<circle cx="30" cy="30" r="30" fill="#75B73B"/>
<path fill-rule="evenodd" clip-rule="evenodd" d="M12.8282 29.9129C12.8007 20.7588 20.0165 13.1435 29.1605 12.7085C39.2098 12.2298 47.475 20.3946 47.1631 30.4092C46.8714 39.7519 39.0787 47.1726 29.7326 47.0298C27.0844 46.9894 24.5821 46.3486 22.3543 45.2387L13.683 47.293C13.2074 47.4057 12.7757 46.9866 12.8743 46.5077L14.6973 37.6584C13.5098 35.3327 12.8366 32.701 12.8282 29.9129ZM29.9999 43.3053C33.5914 43.3053 36.968 41.9067 39.5073 39.3674C42.0242 36.8505 43.4454 33.4191 43.4452 29.8594C43.4452 26.2683 42.0466 22.8916 39.5072 20.3523C36.9679 17.813 33.5912 16.4143 30.0002 16.4143C26.4406 16.4143 23.009 17.8353 20.4923 20.3523C17.9529 22.8919 16.5543 26.2682 16.5543 29.8597C16.5543 32.0108 17.046 34.0642 18.0159 35.9633L18.6106 37.1285L17.4916 42.5609L22.8084 41.3014L24.0156 41.9031C25.8836 42.8334 27.8971 43.3053 29.9999 43.3053Z" fill="white"/>
<path d="M38.334 33.5838L35.0078 32.6288C34.5708 32.5035 34.0997 32.6276 33.7811 32.9523L32.9676 33.7808C32.6247 34.1305 32.1044 34.2426 31.6504 34.059C30.0769 33.4222 26.7669 30.4791 25.9221 29.0075C25.6779 28.5828 25.7183 28.0522 26.0179 27.6643L26.7278 26.7457C27.006 26.3859 27.0646 25.9023 26.8807 25.4862L25.4814 22.3212C25.1462 21.5633 24.1776 21.3425 23.5446 21.8778C22.6164 22.6631 21.5149 23.8559 21.3812 25.1778C21.1451 27.5083 22.1447 30.4458 25.9237 33.9733C30.2897 38.0489 33.7862 38.5869 36.0631 38.0355C37.3544 37.723 38.3863 36.4693 39.0372 35.4426C39.4814 34.7422 39.1303 33.8126 38.334 33.5838Z" fill="white"/>
</svg>
