<svg width="50" height="38" viewBox="0 0 50 38" fill="none" xmlns="http://www.w3.org/2000/svg">
<path d="M42.6758 38H7.32422C3.28584 38 0 34.7216 0 30.6923V7.30769C0 3.27843 3.28584 0 7.32422 0H42.6758C46.7142 0 50 3.27843 50 7.30769V30.6923C50 34.7216 46.7142 38 42.6758 38Z" fill="#FF641A"/>
<path d="M25 38H42.6758C46.7142 38 50 34.7216 50 30.6923V7.30769C50 3.27843 46.7142 0 42.6758 0H25V38Z" fill="#F03800"/>
<path d="M20.6055 27.7696C20.3608 27.7696 20.1162 27.7082 19.8959 27.5869C19.4296 27.3286 19.1406 26.839 19.1406 26.3081V11.6927C19.1406 11.1618 19.4296 10.6721 19.8959 10.4138C20.3565 10.1569 20.9302 10.1698 21.3822 10.4538L33.101 17.7615C33.5287 18.0284 33.7891 18.4965 33.7891 19.0004C33.7891 19.5042 33.5287 19.9724 33.101 20.2393L21.3822 27.547C21.1447 27.6954 20.8759 27.7696 20.6055 27.7696Z" fill="#FFF5F5"/>
<path d="M25 25.2901L33.101 20.2384C33.5287 19.9716 33.7891 19.5034 33.7891 18.9995C33.7891 18.4957 33.5287 18.0275 33.101 17.7606L25 12.709V25.2901Z" fill="#E3E7EA"/>
</svg>
