<svg width="14" height="19" viewBox="0 0 14 19" fill="none" xmlns="http://www.w3.org/2000/svg">
<path d="M12.0482 1.37354H10.2985V1.96888C10.2973 3.11137 9.37357 4.03738 8.23387 4.03856H5.17279C4.03309 4.03738 3.10935 3.11137 3.10817 1.96888V1.37354H1.35842C0.608471 1.37452 0.000985216 1.9835 0 2.73528V17.1458C0.000788175 17.8976 0.608471 18.5068 1.35842 18.5076H12.0482C12.7982 18.5068 13.4059 17.8976 13.4067 17.1458V2.73528C13.4059 1.9835 12.7982 1.37452 12.0482 1.37354Z" fill="#AEAEAE"/>
<path d="M5.17299 3.33049H8.23407C8.98402 3.3297 9.5917 2.72053 9.59249 1.96875V1.3734H8.44077C8.27505 1.3734 8.13161 1.25765 8.09594 1.09528C7.95683 0.460632 7.37141 0 6.70363 0C6.03585 0 5.45024 0.460632 5.31132 1.09548C5.27585 1.25785 5.13221 1.3736 4.96649 1.3736H3.81458V1.96894C3.81556 2.72053 4.42324 3.3297 5.17299 3.33049Z" fill="#AEAEAE"/>
<rect x="1.84888" y="6.94043" width="9.7164" height="1.38806" rx="0.694029" fill="white"/>
<rect x="1.84888" y="9.71631" width="9.7164" height="1.38806" rx="0.694029" fill="white"/>
</svg>
