<svg width="20" height="19" viewBox="0 0 20 19" fill="none" xmlns="http://www.w3.org/2000/svg">
<path d="M19.3752 6.98199C19.3115 6.78739 19.1443 6.64838 18.9412 6.61661L12.8883 5.75875L10.1646 0.297867C10.073 0.115175 9.8858 0 9.68271 0C9.47963 0 9.29247 0.115175 9.20088 0.301838L6.51294 5.77861L0.460093 6.67618C0.257004 6.70795 0.0897547 6.84696 0.0260406 7.04156C-0.0376736 7.23617 0.0180763 7.45063 0.165415 7.58964L4.55771 11.8352L3.54226 17.8482C3.50643 18.0507 3.59005 18.2533 3.7573 18.3724C3.84889 18.4399 3.96039 18.4757 4.07189 18.4757C4.15949 18.4757 4.24312 18.4558 4.32276 18.4121L9.72652 15.5566L15.1462 18.3804C15.2258 18.4201 15.3095 18.4399 15.3931 18.4399C15.6878 18.4399 15.9307 18.1977 15.9307 17.9038C15.9307 17.8601 15.9267 17.8204 15.9148 17.7806L14.8675 11.8035L19.2319 7.53404C19.3872 7.39106 19.4389 7.1766 19.3752 6.98199Z" fill="#AEAEAE"/>
</svg>
