<svg width="21" height="16" viewBox="0 0 21 16" fill="none" xmlns="http://www.w3.org/2000/svg">
<rect width="21" height="16" rx="2" fill="#AEAEAE"/>
<path d="M6.7838 8.68271C6.81252 8.61506 6.87956 8.57091 6.95395 8.57091H8.97178V4.04811C8.97178 3.94824 9.05428 3.86719 9.15593 3.86719H12.1022C12.2039 3.86719 12.2864 3.94824 12.2864 4.04811V8.57093H14.3119C14.3863 8.57093 14.4534 8.61508 14.4821 8.68238C14.5105 8.75003 14.495 8.82783 14.4423 8.87958L10.7687 12.5007C10.734 12.5347 10.6873 12.5539 10.6383 12.5539C10.5893 12.5539 10.5425 12.5347 10.5079 12.5011L6.82357 8.87993C6.7709 8.82817 6.75507 8.75039 6.7838 8.68271Z" fill="white"/>
</svg>
