<svg width="21" height="16" viewBox="0 0 21 16" fill="none" xmlns="http://www.w3.org/2000/svg">
<rect x="21" y="16" width="21" height="16" rx="2" transform="rotate(-180 21 16)" fill="#AEAEAE"/>
<path d="M14.4819 7.73818C14.4532 7.80584 14.3862 7.84999 14.3118 7.84999H12.294V12.3728C12.294 12.4727 12.2115 12.5537 12.1098 12.5537H9.16352C9.06187 12.5537 8.97937 12.4727 8.97937 12.3728V7.84997H6.9538C6.87941 7.84997 6.81238 7.80582 6.78365 7.73852C6.75529 7.67087 6.77076 7.59307 6.82343 7.54132L10.4971 3.92018C10.5317 3.88617 10.5785 3.86699 10.6275 3.86699C10.6764 3.86699 10.7232 3.88617 10.7578 3.91982L14.4422 7.54097C14.4948 7.59273 14.5107 7.67051 14.4819 7.73818Z" fill="white"/>
</svg>
