<svg width="18" height="18" viewBox="0 0 18 18" fill="none" xmlns="http://www.w3.org/2000/svg">
<path fill-rule="evenodd" clip-rule="evenodd" d="M12.8199 0.42925C12.543 0.152384 12.1751 0 11.784 0H5.79737C5.40604 0 5.03832 0.152384 4.76145 0.42925L0.429607 4.76109C0.152384 5.0376 0 5.40533 0 5.79773C0.00178854 6.89733 0.00769074 10.684 0.00286166 11.7836C0.00143083 12.1764 0.153814 12.5455 0.43229 12.8235L4.76145 17.1528C5.03832 17.4297 5.40604 17.5821 5.79737 17.5821H11.784C12.1751 17.5821 12.543 17.4297 12.8199 17.1528L17.1525 12.8203C17.4293 12.5437 17.5817 12.1757 17.5817 11.784V5.79809C17.5817 5.40694 17.4293 5.03868 17.1525 4.76181L12.8199 0.42925ZM8.79029 2.93042C8.39467 2.93042 8.01818 3.10033 7.75616 3.39705C7.49432 3.69341 7.3727 4.08868 7.42027 4.46964L8.06218 10.3361C8.10278 10.7075 8.41631 10.9889 8.79029 10.9889C9.16428 10.9889 9.47781 10.7075 9.51841 10.3357L10.1587 4.48091C10.2079 4.08868 10.0863 3.69341 9.82425 3.39705C9.56241 3.10033 9.18592 2.93042 8.79029 2.93042ZM7.69141 13.5527C7.69141 12.947 8.18451 12.4539 8.79029 12.4539C9.39606 12.4539 9.88916 12.947 9.88916 13.5527C9.88916 14.1585 9.39606 14.6516 8.79029 14.6516C8.18451 14.6516 7.69141 14.1585 7.69141 13.5527Z" fill="#AEAEAE"/>
</svg>
