<svg width="18" height="18" viewBox="0 0 18 18" fill="none" xmlns="http://www.w3.org/2000/svg">
<path fill-rule="evenodd" clip-rule="evenodd" d="M0 8.79074C0 3.93592 3.9358 0 8.79074 0C13.6457 0 17.5818 3.93592 17.5818 8.79074C17.5818 13.6456 13.6457 17.5818 8.79074 17.5818C3.9358 17.5818 0 13.6456 0 8.79074ZM8.86438 10.4627H12.5913C12.9271 10.4627 13.1991 10.1905 13.1991 9.85475C13.1991 9.51899 12.9268 9.24676 12.5911 9.24676H9.39876V3.64822C9.39876 3.31246 9.12653 3.04024 8.79077 3.04024C8.45501 3.04024 8.18278 3.31246 8.18278 3.64822V9.85475C8.18278 10.1905 8.45501 10.4627 8.79077 10.4627C8.7978 10.4627 8.80452 10.4618 8.81124 10.4609C8.81663 10.4602 8.82202 10.4595 8.82757 10.4592C8.8333 10.4594 8.83886 10.4602 8.84443 10.461C8.85099 10.4618 8.85756 10.4627 8.86438 10.4627Z" fill="#AEAEAE"/>
</svg>
