<svg width="21" height="21" viewBox="0 0 21 21" fill="none" xmlns="http://www.w3.org/2000/svg">
<path d="M20.3848 0H17.8828C17.5428 0 17.2676 0.275174 17.2676 0.615234V1.23047H12.2324C11.9775 0.515895 11.301 0 10.5 0C9.69897 0 9.02245 0.515895 8.76762 1.23047H3.73242V0.615234C3.73242 0.275174 3.45725 0 3.11719 0H0.615234C0.275174 0 0 0.275174 0 0.615234V3.07617C0 3.41623 0.275174 3.69141 0.615234 3.69141H3.11719C3.45725 3.69141 3.73242 3.41623 3.73242 3.07617V2.45273H6.25915C4.124 3.7866 2.71614 6.12937 2.54785 8.75335C1.80965 8.99497 1.27148 9.68215 1.27148 10.5C1.27148 11.5178 2.09943 12.3457 3.11719 12.3457C4.13495 12.3457 4.96289 11.5178 4.96289 10.5C4.96289 9.71496 4.4682 9.04751 3.7759 8.78116C3.98582 5.85572 6.02708 3.39002 8.86647 2.68652C9.17355 3.28031 9.78662 3.69141 10.5 3.69141C11.2134 3.69141 11.8264 3.28031 12.1335 2.68652C14.9729 3.38998 17.0142 5.85568 17.2241 8.78112C16.5318 9.04751 16.0371 9.71496 16.0371 10.5C16.0371 11.5178 16.8651 12.3457 17.8828 12.3457C18.9006 12.3457 19.7285 11.5178 19.7285 10.5C19.7285 9.68215 19.1903 8.99497 18.4522 8.75335C18.2839 6.12937 16.876 3.79481 14.7409 2.46094H17.2676V3.07617C17.2676 3.41623 17.5428 3.69141 17.8828 3.69141H20.3848C20.7248 3.69141 21 3.41623 21 3.07617V0.615234C21 0.275174 20.7248 0 20.3848 0Z" fill="#EFEEEE"/>
<path d="M14.6856 20.2369C14.3638 19.2522 13.4367 18.498 12.3457 18.498H8.65427C7.56325 18.498 6.63613 19.2522 6.31433 20.2369C6.19025 20.6166 6.51325 21 6.91274 21H14.0872C14.4866 21 14.8097 20.6166 14.6856 20.2369Z" fill="#EFEEEE"/>
<path d="M15.9338 12.6197L11.1152 5.39188V11.2286C11.8298 11.4834 12.3457 12.1599 12.3457 12.9609C12.3457 13.9787 11.5178 14.8066 10.5 14.8066C9.48224 14.8066 8.6543 13.9787 8.6543 12.9609C8.6543 12.1599 9.1702 11.4834 9.88477 11.2286V5.39188L5.06626 12.6197C4.90342 12.8636 4.93587 13.1887 5.14316 13.396C6.27261 14.5254 6.99456 15.9804 7.27318 17.5412C7.70057 17.3678 8.1654 17.2676 8.6543 17.2676H12.3457C12.8346 17.2676 13.2994 17.3678 13.7268 17.5411C14.0054 15.9803 14.7274 14.5254 15.8569 13.396C16.0641 13.1887 16.0966 12.8636 15.9338 12.6197Z" fill="#EFEEEE"/>
<path d="M10.5 12.3457C10.1606 12.3457 9.88477 12.6215 9.88477 12.9609C9.88477 13.3004 10.1606 13.5762 10.5 13.5762C10.8394 13.5762 11.1152 13.3004 11.1152 12.9609C11.1152 12.6215 10.8394 12.3457 10.5 12.3457Z" fill="#EFEEEE"/>
</svg>
