<svg width="21" height="27" viewBox="0 0 21 27" fill="none" xmlns="http://www.w3.org/2000/svg">
<path d="M17.3334 13.2582C17.2791 13.0201 17.1071 12.8277 16.8785 12.7445L12.1443 11.0214L14.8431 3.60646C14.9589 3.28829 14.8358 2.93203 14.5474 2.75224C14.2541 2.56914 13.8836 2.61903 13.6483 2.86163L3.82145 13.0259C3.65255 13.1996 3.58451 13.4496 3.63977 13.685C3.69453 13.9217 3.86605 14.1155 4.09464 14.1987L8.82887 15.9218L6.13005 23.3368C6.01424 23.6549 6.13733 24.0112 6.42574 24.191C6.46965 24.2176 6.51503 24.2403 6.56102 24.257C6.82343 24.3525 7.12371 24.2893 7.32491 24.0816L17.1517 13.9173C17.3198 13.7418 17.3895 13.4954 17.3334 13.2582Z" fill="#EFEEEE"/>
</svg>
