<?xml version="1.0" encoding="UTF-8"?>
<svg width="21px" height="21px" viewBox="0 0 21 21" version="1.1" xmlns="http://www.w3.org/2000/svg" xmlns:xlink="http://www.w3.org/1999/xlink">
    <title>plain-circle</title>
    <g id="Page-1" stroke="none" stroke-width="1" fill="none" fill-rule="evenodd">
        <g id="6,11-Поп-ап-новая-папка" transform="translate(-548.000000, -588.000000)" fill="#000000" fill-rule="nonzero">
            <g id="Новая-папка" transform="translate(456.000000, 104.250000)">
                <g id="Group-7" transform="translate(57.750000, 483.000000)">
                    <g id="plain-circle" transform="translate(34.500000, 1.500000)">
                        <path d="M9.7431898,19.4863796 C12.3456573,19.4863796 14.7924208,18.4729295 16.6326963,16.632654 C18.4729295,14.7924208 19.4863796,12.345615 19.4863796,9.7431898 C19.4863796,7.14072234 18.4729295,4.69395879 16.6326963,2.8536833 C14.7924208,1.01345011 12.3456573,0 9.7431898,0 C7.14072234,0 4.69395879,1.01345011 2.8536833,2.8536833 C1.01345011,4.69395879 0,7.14072234 0,9.7431898 C0,12.345615 1.01345011,14.7924208 2.8536833,16.6326963 C4.69395879,18.4729295 7.14072234,19.4863796 9.7431898,19.4863796 Z M3.60145119,3.60145119 C5.24198915,1.96095553 7.4231551,1.05748373 9.7431898,1.05748373 C12.0632245,1.05748373 14.2443905,1.96095553 15.8849284,3.60149349 C17.5254664,5.24203145 18.4288959,7.4231551 18.4288959,9.7431898 C18.4288959,12.0632668 17.5254664,14.2443905 15.8848861,15.8849284 C14.2443059,17.5254664 12.0631822,18.4288959 9.7431898,18.4288959 C7.4231551,18.4288959 5.24198915,17.5254664 3.60145119,15.8848861 C1.96091323,14.2443482 1.05748373,12.0632668 1.05748373,9.7431898 C1.05748373,7.4231551 1.96095553,5.24198915 3.60145119,3.60145119 Z" id="Shape"></path>
                    </g>
                </g>
            </g>
        </g>
    </g>
</svg>