<?xml version="1.0" encoding="UTF-8"?>
<svg width="22px" height="21px" viewBox="0 0 22 21" version="1.1" xmlns="http://www.w3.org/2000/svg" xmlns:xlink="http://www.w3.org/1999/xlink">
    <title>plain-heart</title>
    <g id="Page-1" stroke="none" stroke-width="1" fill="none" fill-rule="evenodd">
        <g id="6,11-Поп-ап-новая-папка" transform="translate(-581.000000, -588.000000)" fill="#000000" fill-rule="nonzero">
            <g id="Новая-папка" transform="translate(456.000000, 104.250000)">
                <g id="Group-7" transform="translate(57.750000, 483.000000)">
                    <g id="plain-heart" transform="translate(67.500000, 1.500000)">
                        <path d="M14.6827323,0.0306041667 C13.1324647,0.0306041667 11.6328308,0.637225694 10.4852505,1.71243403 C9.33776017,0.637270833 7.83812634,0.0306041667 6.28776874,0.0306041667 C2.82065525,0.0306041667 0,2.98273264 0,6.61140278 C0,7.52176389 0.148034261,8.44539583 0.440190578,9.35733681 C0.450443255,9.38920486 0.691426124,10.1346736 0.919952891,10.5804201 C1.96091435,12.8216111 3.84493362,14.9912569 6.52011777,17.0294132 C8.5013576,18.5388576 10.1615717,19.3886424 10.2313169,19.4239861 C10.3111349,19.464566 10.3981927,19.4849236 10.4852505,19.4849236 C10.5723084,19.4849236 10.6593662,19.4646562 10.7391392,19.4239861 C10.8088844,19.3886424 12.4690985,18.5389479 14.4502934,17.0294132 C17.1297495,14.9879618 19.0156124,12.8145243 20.0554946,10.5694965 C20.056439,10.5674653 20.0574283,10.5653437 20.0583276,10.5632222 C20.0716381,10.5336111 20.3860086,9.83088889 20.5329186,9.34876042 C20.8273233,8.38202083 20.9704111,7.48664583 20.9704111,6.61135764 C20.9704111,2.98273264 18.1498009,0.0306041667 14.6827323,0.0306041667 Z M19.4579165,9.01884028 C19.3363683,9.41791319 19.056848,10.0472847 19.0347238,10.0969375 C17.8390728,12.6757674 15.521788,14.7941806 13.7880514,16.1173368 C12.3247516,17.2340278 11.0181649,17.9885243 10.4852505,18.2812049 C9.95229122,17.9885243 8.64574946,17.2340278 7.18244968,16.1173368 C5.44799358,14.7935937 3.12953961,12.6740069 1.93429336,10.0937778 C1.93078587,10.0861944 1.9270985,10.0787014 1.92323126,10.0712083 C1.76831692,9.77234375 1.57230193,9.20404514 1.51015632,9.01116667 C1.25401927,8.21171181 1.124197,7.40435764 1.124197,6.61144792 C1.124197,3.60501736 3.44058244,1.15912153 6.28776874,1.15912153 C7.71419486,1.15912153 9.09079657,1.7915625 10.064621,2.89426042 C10.1713298,3.01505208 10.3244004,3.08420486 10.4852505,3.08420486 L10.4852505,3.08420486 C10.6460557,3.08420486 10.7991263,3.01505208 10.9058801,2.89426042 C11.8941842,1.7753125 13.2354861,1.15912153 14.6827323,1.15912153 C17.5299186,1.15912153 19.8463041,3.6050625 19.8463041,6.61144792 C19.8463041,7.37316667 19.7192698,8.16065972 19.4579165,9.01884028 Z" id="Shape"></path>
                    </g>
                </g>
            </g>
        </g>
    </g>
</svg>