<?xml version="1.0" encoding="UTF-8"?>
<svg width="22px" height="21px" viewBox="0 0 22 21" version="1.1" xmlns="http://www.w3.org/2000/svg" xmlns:xlink="http://www.w3.org/1999/xlink">
    <title>like</title>
    <g id="Page-1" stroke="none" stroke-width="1" fill="none" fill-rule="evenodd">
        <g id="6,11-Поп-ап-новая-папка" transform="translate(-818.000000, -588.000000)" fill="#000000" fill-rule="nonzero">
            <g id="Новая-папка" transform="translate(456.000000, 104.250000)">
                <g id="Group-7" transform="translate(57.750000, 483.000000)">
                    <g id="like" transform="translate(304.500000, 1.500000)">
                        <path d="M20.25,11.652439 C20.25,11.1442896 20.0483306,10.6707805 19.7007188,10.321564 C20.0947632,9.8895122 20.2955625,9.31029878 20.2407056,8.70746341 C20.1419868,7.63278354 19.1758799,6.7906372 18.0402188,6.7906372 L12.828375,6.7906372 C13.0865625,6.00512805 13.4999868,4.56521951 13.4999868,3.40853659 C13.4999868,1.57458537 11.9449687,0.0264359756 10.9687368,0.0264359756 C10.0929243,0.0264359756 9.46600488,0.521070122 9.43986182,0.541362805 C9.33944238,0.62170122 9.28122363,0.743457317 9.28122363,0.87195122 L9.28122363,3.739125 L6.85039307,9.01439024 L6.74997363,9.06595427 L6.74997363,8.90444512 C6.74997363,8.67107927 6.56096045,8.48166768 6.32808545,8.48166768 L2.10936182,8.48166768 C0.945856934,8.48170732 0,9.42955793 0,10.5955152 L0,17.3597561 C0,18.525753 0.945856934,19.473564 2.10936182,19.473564 L4.64061182,19.473564 C5.55269238,19.473564 6.33231738,18.8901494 6.62594238,18.0759055 C7.32796875,18.4378049 8.27295557,18.6280488 8.859375,18.6280488 L16.6041694,18.6280488 C17.5230132,18.6280488 18.3271201,18.0074177 18.5160937,17.1517561 C18.6131118,16.7103902 18.5565937,16.2664878 18.3642187,15.8809268 C18.9869062,15.5672226 19.4062632,14.9220976 19.4062632,14.1890244 C19.4062632,13.8897073 19.3379194,13.6030732 19.2088257,13.3443415 C19.8315132,13.0298049 20.25,12.3855122 20.25,11.652439 Z M18.4705313,12.6958079 C18.3077007,12.7152683 18.1701431,12.8260061 18.1178569,12.9824421 C18.0664014,13.138878 18.1094326,13.3104939 18.2292319,13.4238079 C18.4435576,13.6259024 18.5625264,13.8981494 18.5625264,14.1890244 C18.5625264,14.7225396 18.1600576,15.1706829 17.6276646,15.2323933 C17.464834,15.2518537 17.3272764,15.3625915 17.2749902,15.5190274 C17.2235347,15.6754634 17.2665659,15.8470793 17.3863652,15.9603933 C17.6639722,16.2224939 17.7753472,16.5902988 17.6918159,16.969122 C17.5880347,17.4409268 17.130709,17.7825335 16.604209,17.7825335 L8.859375,17.7825335 C8.17423682,17.7825335 7.02504932,17.4603872 6.6268125,17.060439 C6.50614307,16.9403872 6.32389307,16.904875 6.16695557,16.969122 C6.0091875,17.0342409 5.90623682,17.1889726 5.90623682,17.3597561 C5.90623682,18.0590213 5.33840625,18.6280488 4.64061182,18.6280488 L2.10936182,18.6280488 C1.41156738,18.6280488 0.843736816,18.0590213 0.843736816,17.3597561 L0.843736816,10.5955152 C0.843736816,9.89625 1.41156738,9.32722256 2.10936182,9.32722256 L5.90623682,9.32722256 L5.90623682,9.75 C5.90623682,9.89628963 5.98217432,10.0323933 6.10703613,10.1101951 C6.23023682,10.1845884 6.38547363,10.1921982 6.51709863,10.1279512 L7.36083545,9.70517378 C7.44606738,9.66288415 7.51441113,9.59185976 7.55491113,9.50478354 L10.0861611,4.00883537 C10.1114736,3.95303049 10.1249604,3.89215244 10.1249604,3.83127439 L10.1249604,1.10107622 C10.3004868,1.00385366 10.6051069,0.87195122 10.9687368,0.87195122 C11.431125,0.87195122 12.65625,2.02356098 12.65625,3.40853659 C12.65625,4.89667988 11.8479507,7.04175915 11.8403569,7.06292378 C11.7914326,7.19228963 11.8082813,7.33857927 11.88675,7.45355793 C11.9660493,7.56770427 12.0960132,7.63619207 12.2343618,7.63619207 L18.0402187,7.63619207 C18.7439062,7.63619207 19.3412812,8.14097256 19.4003306,8.78526524 C19.4450625,9.26721646 19.2138486,9.7255061 18.7995937,9.98170122 C18.6705,10.0611677 18.5937319,10.2049207 18.599625,10.3579482 C18.6055181,10.5109756 18.6932812,10.6479512 18.8282681,10.7181433 C19.1851743,10.8999451 19.4062236,11.258436 19.4062236,11.652439 C19.4062236,12.1859543 19.0037944,12.6340976 18.4705313,12.6958079 Z" id="Shape"></path>
                        <path d="M6.328125,9.32722256 C6.09525,9.32722256 5.90623682,9.51663415 5.90623682,9.75 L5.90623682,17.3597561 C5.90623682,17.593122 6.09525,17.7825335 6.328125,17.7825335 C6.561,17.7825335 6.75001318,17.593122 6.75001318,17.3597561 L6.75001318,9.75 C6.75001318,9.51663415 6.561,9.32722256 6.328125,9.32722256 Z" id="Path"></path>
                    </g>
                </g>
            </g>
        </g>
    </g>
</svg>