<?xml version="1.0" encoding="UTF-8"?>
<svg width="19px" height="21px" viewBox="0 0 19 21" version="1.1" xmlns="http://www.w3.org/2000/svg" xmlns:xlink="http://www.w3.org/1999/xlink">
    <title>notification</title>
    <g id="Page-1" stroke="none" stroke-width="1" fill="none" fill-rule="evenodd">
        <g id="6,11-Поп-ап-новая-папка" transform="translate(-717.000000, -587.000000)" fill="#000000" fill-rule="nonzero">
            <g id="Новая-папка" transform="translate(456.000000, 104.250000)">
                <g id="Group-7" transform="translate(57.750000, 483.000000)">
                    <g id="notification" transform="translate(204.000000, 0.000000)">
                        <path d="M17.1620975,17.0800444 L15.6849252,14.6652319 C15.0039533,13.5506514 14.6436782,12.2749014 14.6436782,10.9746694 L14.6436782,8.859375 C14.6436782,5.60335693 11.9430053,2.95313818 8.625,2.95313818 C5.30699474,2.95313818 2.60632185,5.60335693 2.60632185,8.859375 L2.60632185,10.9746694 C2.60632185,12.2749014 2.24604673,13.5506514 1.56507477,14.6652319 L0.0879024533,17.0800444 C0.00793983645,17.2099688 0.0062067757,17.3728389 0.0818971963,17.5044639 C0.158433995,17.6369194 0.301995911,17.7187896 0.456762266,17.7187896 L16.7931974,17.7187896 C16.9479638,17.7187896 17.091566,17.636959 17.1680625,17.5044639 C17.2437529,17.3727993 17.2420602,17.2099688 17.1620975,17.0800444 Z M1.21600409,16.8750132 L2.30194801,15.0989062 C3.06372897,13.8535312 3.4661215,12.4276069 3.4661215,10.9746694 L3.4661215,8.859375 C3.4661215,6.06740625 5.7798785,3.796875 8.625,3.796875 C11.4701215,3.796875 13.7838785,6.06740625 13.7838785,8.859375 L13.7838785,10.9746694 C13.7838785,12.4276069 14.186271,13.8535312 14.9472056,15.0989062 L16.0339959,16.8750132 L1.21600409,16.8750132 Z" id="Shape"></path>
                        <path d="M8.625,0 C7.67661273,0 6.9053604,0.75684375 6.9053604,1.68751318 L6.9053604,3.37502637 C6.9053604,3.60786182 7.09797196,3.796875 7.33528037,3.796875 C7.57258879,3.796875 7.76520035,3.60786182 7.76520035,3.37498682 L7.76520035,1.68751318 C7.76520035,1.22176318 8.15038318,0.843776367 8.625,0.843776367 C9.09961682,0.843776367 9.48479965,1.22176318 9.48479965,1.68751318 L9.48479965,3.37502637 C9.48479965,3.60786182 9.67741121,3.796875 9.91471963,3.796875 C10.152028,3.796875 10.3446396,3.60786182 10.3446396,3.37498682 L10.3446396,1.68751318 C10.3446396,0.75684375 9.57338727,0 8.625,0 Z" id="Path"></path>
                        <path d="M10.4856221,17.0834063 C10.3643884,16.8826069 10.102132,16.8167944 9.89666355,16.9323618 C9.69115479,17.0505 9.62239661,17.3095181 9.74274357,17.5103174 C9.85450584,17.6967993 9.915566,17.9203799 9.915566,18.1405986 C9.915566,18.8383931 9.33692523,19.4062236 8.62584638,19.4062236 C7.91476752,19.4062236 7.33612675,18.8383931 7.33612675,18.1405986 C7.33612675,17.9203799 7.39718692,17.6967993 7.50894918,17.5103174 C7.62844977,17.3086479 7.55969159,17.0504604 7.35502921,16.9323618 C7.14782769,16.8167549 6.88641764,16.8825674 6.76607068,17.0834063 C6.57603855,17.4023438 6.47544042,17.7676743 6.47544042,18.1406382 C6.47544042,19.3041431 7.43930432,20.25 8.625,20.25 C9.81069568,20.25 10.7745193,19.3041431 10.7762523,18.1406382 C10.7762523,17.7676743 10.6756542,17.4023438 10.4856221,17.0834063 Z" id="Path"></path>
                    </g>
                </g>
            </g>
        </g>
    </g>
</svg>