<?xml version="1.0" encoding="UTF-8"?>
<svg width="22px" height="20px" viewBox="0 0 22 20" version="1.1" xmlns="http://www.w3.org/2000/svg" xmlns:xlink="http://www.w3.org/1999/xlink">
    <title>pentagon</title>
    <g id="Page-1" stroke="none" stroke-width="1" fill="none" fill-rule="evenodd">
        <g id="6,11-Поп-ап-новая-папка" transform="translate(-649.000000, -588.000000)" fill="#000000" fill-rule="nonzero">
            <g id="Новая-папка" transform="translate(456.000000, 104.250000)">
                <g id="Group-7" transform="translate(57.750000, 483.000000)">
                    <g id="pentagon" transform="translate(135.750000, 0.750000)">
                        <path d="M20.0841636,7.54126829 L10.3810518,0.113314024 C10.2300073,-0.00253658537 10.0207837,-0.00253658537 9.86890869,0.113314024 L0.165757324,7.54126829 C0.0223066406,7.65117378 -0.0350419922,7.8388811 0.0214760742,8.01053659 L3.72805664,19.1841951 C3.78544482,19.3566829 3.94744482,19.4733659 4.12882471,19.4733659 L16.1227178,19.4733659 C16.3049678,19.4733659 16.4661372,19.3566829 16.5218247,19.1841951 L20.2284053,8.01053659 C20.2850024,7.83975305 20.2267837,7.65121341 20.0841636,7.54126829 Z M15.920256,18.7764261 L4.32884102,18.7764261 L0.74999148,7.96574528 L10.1249713,0.776426067 L19.4999915,7.96659424 L15.920256,18.7764261 Z" id="Shape"></path>
                    </g>
                </g>
            </g>
        </g>
    </g>
</svg>