<?xml version="1.0" encoding="UTF-8"?>
<svg width="21px" height="21px" viewBox="0 0 21 21" version="1.1" xmlns="http://www.w3.org/2000/svg" xmlns:xlink="http://www.w3.org/1999/xlink">
    <title>price-tag</title>
    <g id="Page-1" stroke="none" stroke-width="1" fill="none" fill-rule="evenodd">
        <g id="6,11-Поп-ап-новая-папка" transform="translate(-851.000000, -589.000000)" fill="#000000" fill-rule="nonzero">
            <g id="Новая-папка" transform="translate(456.000000, 104.250000)">
                <g id="Group-7" transform="translate(57.750000, 483.000000)">
                    <g id="price-tag" transform="translate(337.500000, 2.250000)">
                        <path d="M17.4687627,0 L12.3150498,0 C11.3384121,0 10.4203125,0.38025 9.72966211,1.0708623 L0.693049805,10.1075127 C0.2461875,10.554375 0,11.1483252 0,11.782875 C0,12.4141875 0.2461875,13.0081377 0.693049805,13.455 L6.045,18.8069502 C6.4918623,19.2538125 7.0858125,19.5 7.7203623,19.5 C8.3516748,19.5 8.945625,19.2538125 9.3924873,18.8069502 L18.4290996,9.77033789 C19.11975,9.0796875 19.5,8.1615498 19.5,7.1849502 L19.5,2.0312373 C19.5,0.911625 18.588375,0 17.4687627,0 Z M18.6875127,7.1849502 C18.6875127,7.94465039 18.3917754,8.65883789 17.8555254,9.19508789 L8.8180752,18.2325 C8.233875,18.8167002 7.2093252,18.8207373 6.62025,18.2325 L1.2675,12.87975 C0.974200195,12.58725 0.812487305,12.19725 0.812487305,11.7796377 C0.812487305,11.3652627 0.974162109,10.9752627 1.2675,10.6819629 L10.3041123,1.6453125 C10.842,1.1082627 11.5553496,0.812487305 12.3150498,0.812487305 L17.4687246,0.812487305 C18.1406748,0.812487305 18.6875127,1.35928711 18.6875127,2.0312373 L18.6875127,7.1849502 L18.6875127,7.1849502 Z" id="Shape"></path>
                        <path d="M15.0312627,2.4375 C13.9116504,2.4375 13.0000254,3.349125 13.0000254,4.4687373 C13.0000254,5.58834961 13.9116504,6.49997461 15.0312627,6.49997461 C16.150875,6.49997461 17.0625,5.5883877 17.0625,4.4687373 C17.0625,3.349125 16.150875,2.4375 15.0312627,2.4375 Z M15.0312627,5.6874873 C14.3593125,5.6874873 13.8125127,5.1406875 13.8125127,4.4687373 C13.8125127,3.79678711 14.3593125,3.2499873 15.0312627,3.2499873 C15.7032129,3.2499873 16.2500127,3.79678711 16.2500127,4.4687373 C16.2500127,5.1406875 15.7031748,5.6874873 15.0312627,5.6874873 Z" id="Shape"></path>
                    </g>
                </g>
            </g>
        </g>
    </g>
</svg>