<?xml version="1.0" encoding="UTF-8"?>
<svg width="17px" height="22px" viewBox="0 0 17 22" version="1.1" xmlns="http://www.w3.org/2000/svg" xmlns:xlink="http://www.w3.org/1999/xlink">
    <title>shield-2</title>
    <g id="Page-1" stroke="none" stroke-width="1" fill="none" fill-rule="evenodd">
        <g id="6,11-Поп-ап-новая-папка" transform="translate(-786.000000, -588.000000)" fill="#000000" fill-rule="nonzero">
            <g id="Новая-папка" transform="translate(456.000000, 104.250000)">
                <g id="Group-7" transform="translate(57.750000, 483.000000)">
                    <g id="shield-2" transform="translate(272.250000, 1.500000)">
                        <path d="M16.4588313,1.24707568 C16.3495899,0.970338867 15.9299778,0.909588867 15.7375049,1.1086875 C14.8661749,1.85540625 13.7486047,2.26546875 12.5859643,2.26546875 C10.9837574,2.26546875 9.49774138,1.48920557 8.61251232,0.189013184 C8.53192241,0.070875 8.39667118,0 8.25101601,0 C8.10621429,0 7.97010961,0.070875 7.89033251,0.188143066 C7.0025431,1.488375 5.51648645,2.26459863 3.91427956,2.26459863 C2.73863424,2.26459863 1.60980665,1.8452417 0.735875616,1.08333545 C0.60842734,0.971960449 0.426358374,0.944947266 0.269445813,1.01246045 C0.1133867,1.07997363 0.0128017241,1.23097852 0.0128017241,1.39721045 L0.0128017241,10.5459785 C0.0128017241,15.8143403 7.71171798,20.0204473 8.03944212,20.1968042 C8.10446675,20.2322417 8.17729433,20.2499604 8.24926847,20.2499604 C8.32124261,20.2499604 8.3940702,20.2322417 8.45909483,20.1985049 C8.78681897,20.0221479 16.4857352,15.8152104 16.4857352,10.5476792 L16.4857352,1.4351792 C16.4909372,1.3719375 16.4822401,1.30782568 16.4588313,1.24707568 Z M15.6187537,10.5468882 C15.6187537,14.8643701 9.47258498,18.6334014 8.24926847,19.3404507 C7.02505788,18.6333618 0.879823892,14.8685625 0.879823892,10.5468882 L0.879823892,2.24691943 C1.78061823,2.80715625 2.83056281,3.10924512 3.9143202,3.10924512 C5.60410714,3.10924512 7.18461207,2.37771387 8.24930911,1.12810693 C9.31571305,2.37854443 10.8962586,3.10924512 12.5860049,3.10924512 C13.6688682,3.10924512 14.7188128,2.8071958 15.6187537,2.24778955 L15.6187537,10.5468882 L15.6187537,10.5468882 Z" id="Shape"></path>
                        <path d="M11.1589175,7.71778125 C10.9898534,7.55325 10.7150025,7.55325 10.5459384,7.71778125 L7.38228695,10.7940806 L5.95694704,9.40525488 C5.787883,9.24072363 5.51303202,9.24072363 5.34396798,9.40525488 C5.17490394,9.56895557 5.17490394,9.83726807 5.34396798,10.0017993 L7.0744766,11.6893125 C7.15596059,11.7677812 7.26609606,11.8125132 7.38139286,11.8125132 C7.49668966,11.8125132 7.60682512,11.7677813 7.68745567,11.6893125 L11.1589175,8.31432568 C11.3279815,8.14979443 11.3279815,7.8823125 11.1589175,7.71778125 Z" id="Path"></path>
                    </g>
                </g>
            </g>
        </g>
    </g>
</svg>