<?xml version="1.0" encoding="UTF-8"?>
<svg width="22px" height="22px" viewBox="0 0 22 22" version="1.1" xmlns="http://www.w3.org/2000/svg" xmlns:xlink="http://www.w3.org/1999/xlink">
    <title>plain-star</title>
    <g id="Page-1" stroke="none" stroke-width="1" fill="none" fill-rule="evenodd">
        <g id="6,11-Поп-ап-новая-папка" transform="translate(-614.000000, -587.000000)" fill="#000000" fill-rule="nonzero">
            <g id="Новая-папка" transform="translate(456.000000, 104.250000)">
                <g id="Group-7" transform="translate(57.750000, 483.000000)">
                    <g id="plain-star" transform="translate(100.500000, 0.000000)">
                        <path d="M0.177857143,8.27002195 L5.23157143,12.8605712 L3.80982857,19.5798854 C3.76547143,19.7894968 3.84737143,20.0058726 4.0188,20.1318389 C4.19018571,20.2578485 4.41887143,20.2698164 4.60221429,20.1623223 L10.4789571,16.7179143 L16.3557429,20.1623223 C16.4390571,20.2111911 16.5317571,20.2354304 16.6242429,20.2354304 C16.7351571,20.2354304 16.8456857,20.2006108 16.9392,20.1318389 C17.1106286,20.005916 17.1925286,19.7894968 17.1481714,19.5798854 L15.7265143,12.8605712 L20.7801429,8.27002195 C20.9378143,8.12684101 20.9971714,7.90309368 20.9317714,7.6992061 C20.8662857,7.49531852 20.6881714,7.34966595 20.4774429,7.32755139 L13.7220429,6.61927837 L10.9686857,0.337702355 C10.8828,0.14175 10.6908429,0.0154368308 10.4789571,0.0154368308 C10.2670714,0.0154368308 10.0751143,0.141793362 9.98922857,0.337745717 L7.236,6.61927837 L0.480514286,7.32755139 C0.269785714,7.34966595 0.0917142857,7.49531852 0.0262285714,7.6992061 C-0.0392571429,7.90309368 0.0201857143,8.12684101 0.177857143,8.27002195 Z M7.6551,7.66516702 C7.84602857,7.64513383 8.01175714,7.52328694 8.08958571,7.34576338 L10.4789571,1.89443737 L12.8684143,7.34576338 C12.9462429,7.52328694 13.1119714,7.64513383 13.3029,7.66516702 L19.1654571,8.2798651 L14.7797143,12.2636515 C14.6368714,12.3933903 14.5735714,12.5905134 14.6137286,12.7804384 L15.8475,18.6117013 L10.7474571,15.6225064 C10.6644,15.573811 10.5716571,15.549485 10.4789143,15.549485 C10.3861714,15.549485 10.2934286,15.573811 10.2103714,15.6225064 L5.11037143,18.6117013 L6.34418571,12.7804384 C6.38438571,12.5905567 6.32104286,12.3933903 6.1782,12.2636515 L1.79245714,8.2798651 L7.6551,7.66516702 Z" id="Shape"></path>
                    </g>
                </g>
            </g>
        </g>
    </g>
</svg>