<?xml version="1.0" encoding="UTF-8"?>
<svg width="18px" height="21px" viewBox="0 0 18 21" version="1.1" xmlns="http://www.w3.org/2000/svg" xmlns:xlink="http://www.w3.org/1999/xlink">
    <title>stop</title>
    <g id="Page-1" stroke="none" stroke-width="1" fill="none" fill-rule="evenodd">
        <g id="6,11-Поп-ап-новая-папка" transform="translate(-750.000000, -588.000000)" fill="#000000" fill-rule="nonzero">
            <g id="Новая-папка" transform="translate(456.000000, 104.250000)">
                <g id="Group-7" transform="translate(57.750000, 483.000000)">
                    <g id="stop" transform="translate(237.000000, 0.750000)">
                        <path d="M10.3446396,0 C9.39625234,0 8.625,0.75684375 8.625,1.68751318 L8.625,10.5468882 C8.625,10.7797632 8.81761157,10.9687764 9.05491998,10.9687764 C9.29222839,10.9687764 9.48483995,10.7797632 9.48483995,10.5468882 L9.48483995,1.68751318 C9.48483995,1.22176318 9.87090946,0.843776367 10.3446396,0.843776367 C10.81841,0.843776367 11.2044393,1.22176318 11.2044393,1.68751318 L11.2044393,10.5468882 C11.2044393,10.7797632 11.3970508,10.9687764 11.6343592,10.9687764 C11.8716676,10.9687764 12.0642792,10.7797632 12.0642792,10.5468882 L12.0642792,1.68751318 C12.0642389,0.75684375 11.2929866,0 10.3446396,0 Z" id="Path"></path>
                        <path d="M12.9240789,1.68751318 C11.9756916,1.68751318 11.2044393,2.44435693 11.2044393,3.37498682 C11.2044393,3.60786182 11.3970508,3.796875 11.6343592,3.796875 C11.8716676,3.796875 12.0642792,3.60786182 12.0642792,3.37498682 C12.0642792,2.90923682 12.4503487,2.53125 12.9240789,2.53125 C13.397809,2.53125 13.7838785,2.90923682 13.7838785,3.37498682 L13.7838785,10.5468486 C13.7838785,10.7797236 13.9764901,10.9687368 14.2137985,10.9687368 C14.4511069,10.9687368 14.6437185,10.7797236 14.6437185,10.5468486 L14.6437185,3.37498682 C14.6436782,2.44435693 13.8724258,1.68751318 12.9240789,1.68751318 Z" id="Path"></path>
                        <path d="M15.5035181,4.21876318 C14.5551308,4.21876318 13.7838785,4.97560693 13.7838785,5.90627637 C13.7838785,6.13915137 13.9764901,6.32816455 14.2137985,6.32816455 C14.4511069,6.32816455 14.6437185,6.13915137 14.6437185,5.90627637 C14.6437185,5.44052637 15.029788,5.06253955 15.5035181,5.06253955 C15.9772482,5.06253955 16.3633178,5.44048682 16.3633178,5.90623682 L16.3633178,14.7656118 C16.3633178,17.323875 14.2421723,19.4062236 11.6343592,19.4062236 L9.15725117,19.4062236 C7.19087208,19.4062236 5.36116297,18.3464604 4.26062909,16.5686924 L0.982121495,11.3560181 C0.919368575,11.2353486 0.886682243,11.1054243 0.886682243,10.9687368 C0.886682243,10.2380361 1.89697605,9.790875 2.47388376,10.5046875 L4.65177687,12.5431743 C5.0111653,12.93975 5.57005724,13.0739062 6.07389428,12.8857236 C6.57861799,12.6975806 6.90532009,12.2326611 6.90532009,11.7027993 L6.90532009,3.37498682 C6.90532009,2.90923682 7.2913896,2.53125 7.76511974,2.53125 C8.23893049,2.53125 8.625,2.90923682 8.625,3.37498682 C8.625,3.60786182 8.81761157,3.796875 9.05491998,3.796875 C9.29222839,3.796875 9.48483995,3.60786182 9.48483995,3.37498682 C9.48483995,2.44431738 8.71358762,1.68747363 7.76520035,1.68747363 C6.81681308,1.68747363 6.04556075,2.44435693 6.04556075,3.37498682 L6.04556075,11.7027993 C6.04556075,11.9719424 5.83320035,12.0731924 5.76871437,12.0968438 C5.70249533,12.1221562 5.47897079,12.1862681 5.27003621,11.9584556 L3.11189194,9.94275 C2.78345678,9.5225625 2.285625,9.28126318 1.7465222,9.28126318 C0.79813493,9.28126318 0.0268825935,10.0381069 0.0268825935,10.9687764 C0.0268825935,11.2421514 0.0913685748,11.5037007 0.235817173,11.7720132 L3.52891472,17.0091694 C4.78421495,19.0383618 6.888191,20.25 9.15721086,20.25 L11.6343189,20.25 C14.7159025,20.25 17.2231174,17.789625 17.2231174,14.7656118 L17.2231174,5.90623682 C17.2231174,4.97560693 16.4518651,4.21876318 15.5035181,4.21876318 Z" id="Path"></path>
                    </g>
                </g>
            </g>
        </g>
    </g>
</svg>