<?xml version="1.0" encoding="UTF-8"?>
<svg width="23px" height="20px" viewBox="0 0 23 20" version="1.1" xmlns="http://www.w3.org/2000/svg" xmlns:xlink="http://www.w3.org/1999/xlink">
    <title>plain-triangle</title>
    <g id="Page-1" stroke="none" stroke-width="1" fill="none" fill-rule="evenodd">
        <g id="6,11-Поп-ап-новая-папка" transform="translate(-513.000000, -588.000000)" fill="#000000" fill-rule="nonzero">
            <g id="Новая-папка" transform="translate(456.000000, 104.250000)">
                <g id="Group-7" transform="translate(57.750000, 483.000000)">
                    <g id="plain-triangle" transform="translate(0.000000, 1.500000)">
                        <path d="M11.3539974,0.285501193 C11.2529345,0.112813246 11.0665447,0.00648866348 10.8649163,0.00648866348 C10.6632879,0.00648866348 10.4768529,0.112813246 10.3758352,0.285501193 L0.0761476091,17.8838753 C-0.0251413721,18.0569212 -0.0253674636,18.2703311 0.0755597713,18.4435561 C0.176487006,18.616781 0.363193347,18.7235531 0.565273909,18.7235531 L21.164604,18.7235531 C21.3666845,18.7235531 21.5533909,18.616781 21.6543181,18.4435561 C21.7552001,18.2703311 21.7550192,18.0568765 21.653685,17.8838753 L11.3539974,0.285501193 Z M1.54583264,17.604818 L10.8648711,1.68190632 L20.1839548,17.604818 L1.54583264,17.604818 L1.54583264,17.604818 Z" id="Shape"></path>
                    </g>
                </g>
            </g>
        </g>
    </g>
</svg>