<svg width="17" height="17" viewBox="0 0 17 17" fill="none" xmlns="http://www.w3.org/2000/svg">
<path fill-rule="evenodd" clip-rule="evenodd" d="M8.38663 0.000739108C3.6926 0.0635652 -0.0614442 3.92016 0.00101229 8.61438C0.0638384 13.3066 3.92007 17.0617 8.61391 16.9993C13.307 16.9361 17.0618 13.0795 16.9993 8.38562C16.9365 3.69306 13.0801 -0.0619022 8.38663 0.000739108ZM8.3615 13.6739L8.31457 13.6732C7.5917 13.6517 7.08207 13.1192 7.10258 12.407C7.12272 11.7071 7.64473 11.1989 8.34376 11.1989L8.38571 11.1997C9.12872 11.2217 9.63262 11.7488 9.61174 12.4815C9.59105 13.1835 9.07716 13.6739 8.3615 13.6739ZM10.3873 8.54749C10.8583 8.18051 11.2321 7.88061 11.4021 7.6391C11.7288 7.19155 11.8944 6.69911 11.8944 6.17488C11.8944 5.23766 11.5569 4.51923 10.8917 4.03953C10.2352 3.56612 9.40127 3.32609 8.41343 3.32609C7.65877 3.32609 7.01203 3.49572 6.49224 3.83036C5.66497 4.35588 5.21853 5.25651 5.16587 6.5073L5.16218 6.59545H7.20421V6.511C7.20421 6.17137 7.30491 5.83895 7.50411 5.52241C7.69776 5.21457 8.0215 5.06452 8.49436 5.06452C8.9711 5.06452 9.30075 5.18833 9.47426 5.43279C9.65479 5.68613 9.74608 5.9707 9.74608 6.27836C9.74608 6.5001 9.65406 6.72572 9.44617 7.01232C9.3573 7.14203 9.23793 7.26343 9.09638 7.37005C9.05444 7.39703 8.0664 8.03324 7.61849 8.55913C7.333 8.89396 7.316 9.29918 7.29179 9.98805L7.28607 10.1557H9.26657L9.26731 10.0723C9.2713 9.7767 9.29194 9.71274 9.33313 9.58505C9.33767 9.57098 9.34246 9.55615 9.3475 9.54014C9.41199 9.33522 9.58384 9.12697 9.86859 8.9056L10.3873 8.54749Z" fill="#CFCFCF"/>
</svg>
