<svg width="18" height="18" viewBox="0 0 18 18" fill="none" xmlns="http://www.w3.org/2000/svg">
<path fill-rule="evenodd" clip-rule="evenodd" d="M16.9157 7.36211C17.1642 7.36211 17.4516 7.54734 17.4794 7.79382C17.5536 8.45785 17.5527 9.1284 17.4754 9.78767C17.445 10.0443 17.2137 10.2379 16.9623 10.2175L16.8539 10.2147C16.0789 10.2147 15.3584 10.6921 15.0603 11.4032C14.7433 12.1585 14.9413 13.0377 15.5515 13.5903C15.7429 13.7635 15.7657 14.0558 15.6039 14.2567C15.187 14.776 14.71 15.2477 14.1856 15.659C13.9836 15.815 13.6972 15.7922 13.5239 15.6036C13.0023 15.0306 12.0741 14.8149 11.3526 15.1096C10.6062 15.4152 10.1236 16.1667 10.153 16.9793C10.1616 17.2343 9.97324 17.4533 9.719 17.4814C9.3982 17.517 9.07734 17.5347 8.75655 17.5347C8.4186 17.5347 8.08156 17.5151 7.74654 17.4761C7.49047 17.4466 7.30107 17.222 7.31628 16.9639C7.36286 16.1424 6.88686 15.3776 6.13012 15.061C5.40763 14.7578 4.469 14.9725 3.94446 15.5527C3.77033 15.7446 3.47805 15.7674 3.27717 15.6055C2.76502 15.1933 2.29756 14.7212 1.89019 14.2023C1.73211 14.002 1.75593 13.714 1.9435 13.5417C2.5432 12.9919 2.74023 12.121 2.43372 11.3737C2.12624 10.6254 1.39325 10.1528 0.629791 10.1723C0.378546 10.1723 0.0824139 9.98868 0.0548819 9.74115C-0.0193631 9.07712 -0.0184497 8.40598 0.0586659 7.7473C0.0890685 7.49455 0.287077 7.30796 0.565071 7.3169C1.42176 7.3169 2.17008 6.85245 2.47274 6.13179C2.78975 5.3759 2.59272 4.49683 1.98251 3.94424C1.79214 3.77102 1.76832 3.47919 1.93019 3.27786C2.34519 2.75997 2.82308 2.28788 3.34854 1.87562C3.54935 1.7191 3.83779 1.74233 4.01016 1.93127C4.5317 2.50487 5.4638 2.71815 6.18048 2.42541C6.92783 2.1193 7.40957 1.36778 7.381 0.554802C7.37245 0.300164 7.56093 0.081213 7.81511 0.0531591C8.47197 -0.0197158 9.1326 -0.0173671 9.7875 0.0583785C10.0446 0.0883244 10.2331 0.31256 10.2178 0.57046C10.1712 1.39153 10.6472 2.15642 11.402 2.47395C12.1274 2.77661 13.0661 2.5615 13.5887 1.98275C13.762 1.79087 14.0552 1.76856 14.255 1.92892C14.7653 2.33773 15.2327 2.80942 15.6439 3.33162C15.802 3.53197 15.7791 3.82041 15.5906 3.99271C14.9918 4.54198 14.7949 5.41348 15.1003 6.16075C15.3993 6.89035 16.1123 7.36211 16.9157 7.36211ZM5.85662 8.78588C5.85662 10.3985 7.16837 11.7103 8.78102 11.7103C10.3936 11.7103 11.7053 10.3985 11.7053 8.78588C11.7053 7.17331 10.3936 5.86149 8.78102 5.86149C7.16837 5.86149 5.85662 7.17331 5.85662 8.78588Z" fill="#CFCFCF"/>
</svg>
