<svg width="18" height="14" viewBox="0 0 18 14" fill="none" xmlns="http://www.w3.org/2000/svg">
<path d="M7.02521 12.95C7.00322 12.8917 6.99565 12.8421 7.0031 12.802C7.01052 12.7621 6.98496 12.7291 6.92633 12.7037C6.86769 12.6782 6.83844 12.6581 6.83844 12.6437C6.83844 12.6291 6.79641 12.6181 6.71218 12.6109C6.62798 12.6036 6.58596 12.5999 6.58596 12.5999H6.44332H6.32259H3.16126C2.67829 12.5999 2.26479 12.4287 1.92081 12.0857C1.5769 11.743 1.40497 11.3311 1.40497 10.8499V3.1498C1.40497 2.66856 1.57686 2.2567 1.92081 1.91398C2.26479 1.57122 2.67829 1.39979 3.16126 1.39979H6.67381C6.76896 1.39979 6.84378 1.37627 6.8988 1.32876C6.95359 1.28137 6.99011 1.21023 7.00849 1.11546C7.02679 1.02068 7.03782 0.935096 7.04151 0.858515C7.04513 0.782011 7.04336 0.685318 7.03598 0.568666C7.02871 0.452052 7.02506 0.379149 7.02506 0.349842C7.02506 0.255064 6.99026 0.173197 6.92079 0.10378C6.85124 0.0346701 6.76896 0 6.67385 0H3.16126C2.29051 0 1.54587 0.308085 0.927455 0.924216C0.30919 1.54035 0 2.28221 0 3.14992V10.8499C0 11.7175 0.30919 12.4596 0.927455 13.0755C1.54587 13.6919 2.29051 14 3.16126 14H6.67396C6.76912 14 6.84397 13.9762 6.89895 13.929C6.95374 13.8815 6.99026 13.8104 7.00864 13.7156C7.02694 13.6209 7.03798 13.5349 7.04167 13.4586C7.04528 13.382 7.04351 13.2855 7.03613 13.1689C7.02879 13.0521 7.02521 12.9792 7.02521 12.95Z" fill="#D72419"/>
<path d="M17.7864 6.12177L11.6737 0.206569C11.5314 0.0690086 11.3628 0 11.168 0C10.9733 0 10.8047 0.0690086 10.6623 0.206569C10.5199 0.344319 10.4488 0.507586 10.4488 0.695951V3.82746H5.41477C5.21987 3.82746 5.05139 3.89647 4.90903 4.03403C4.76668 4.17178 4.69556 4.33493 4.69556 4.52341V8.69881C4.69556 8.88725 4.76668 9.0504 4.90903 9.18808C5.05154 9.32556 5.21999 9.39476 5.41477 9.39476H10.4488V12.5262C10.4488 12.7146 10.52 12.8779 10.6623 13.0155C10.8047 13.1533 10.9733 13.2222 11.1681 13.2222C11.3628 13.2222 11.5314 13.1533 11.6737 13.0155L17.7864 7.10057C17.9287 6.9627 17.9999 6.79978 17.9999 6.61126C17.9999 6.42282 17.9287 6.25952 17.7864 6.12177Z" fill="#D72419"/>
</svg>
