<?xml version="1.0" encoding="utf-8"?>
<svg width="20px" height="23px" viewBox="0 0 20 23" version="1.1" xmlns:xlink="http://www.w3.org/1999/xlink" xmlns="http://www.w3.org/2000/svg">
  <g id="birthday-cake">
    <path d="M18.508 3.461L18.032 3.461L18.032 1.198C17.954 1.245 17.864 1.273 17.765 1.273C16.762 1.273 15.963 0.973 15.388 0.382C15.27 0.26 15.167 0.133 15.079 0.002C15.008 0.11 14.927 0.217 14.834 0.319C14.263 0.952 13.416 1.272 12.319 1.272C11.315 1.272 10.516 0.972 9.941 0.381C9.823 0.259 9.721 0.132 9.632 0.001C9.561 0.109 9.48 0.216 9.387 0.318C8.815 0.951 7.969 1.271 6.872 1.271C5.869 1.271 5.069 0.971 4.494 0.38C4.376 0.258 4.274 0.131 4.186 0C4.115 0.108 4.033 0.215 3.941 0.317C3.369 0.95 2.522 1.27 1.425 1.27C1.356 1.27 1.291 1.256 1.231 1.232L1.231 3.459L0.759 3.459C0.34 3.459 0 3.799 0 4.218L0 4.978C0 5.397 0.34 5.737 0.759 5.737L18.508 5.737C18.927 5.737 19.268 5.397 19.268 4.978L19.268 4.218C19.268 3.801 18.927 3.461 18.508 3.461Z" transform="translate(0.675 16.882)" id="Path" fill="#4086F1" stroke="none" />
    <path d="M1.929 5.451C2.334 5.004 2.39 4.4 2.393 4.138C2.386 4.023 2.387 3.95 2.388 3.939C2.396 3.661 2.618 3.437 2.896 3.427C3.175 3.418 3.411 3.624 3.438 3.902C3.439 3.913 3.446 3.985 3.446 4.099C3.467 4.375 3.566 5.027 4.024 5.493C4.393 5.869 4.937 6.058 5.641 6.058C6.428 6.058 7.012 5.855 7.376 5.452C7.782 5.005 7.837 4.401 7.84 4.139C7.833 4.024 7.834 3.951 7.834 3.94C7.842 3.662 8.064 3.438 8.341 3.428C8.618 3.419 8.856 3.625 8.884 3.903C8.885 3.914 8.891 3.986 8.892 4.1C8.913 4.376 9.012 5.028 9.47 5.494C9.839 5.87 10.382 6.059 11.087 6.059C11.874 6.059 12.457 5.856 12.821 5.453C13.226 5.006 13.282 4.402 13.285 4.14C13.278 4.025 13.279 3.952 13.279 3.941C13.288 3.663 13.509 3.439 13.787 3.429C14.06 3.42 14.302 3.626 14.33 3.904C14.331 3.915 14.338 3.987 14.338 4.101C14.359 4.377 14.458 5.029 14.916 5.495C15.285 5.871 15.828 6.06 16.532 6.06C16.631 6.06 16.72 6.089 16.799 6.135L16.799 3.701C16.799 3.282 16.46 2.942 16.04 2.942L15.544 2.942L15.544 1.017C15.478 1.056 15.4 1.08 15.317 1.08C14.463 1.08 13.783 0.825 13.295 0.322C13.194 0.219 13.107 0.111 13.033 0C12.971 0.092 12.903 0.183 12.824 0.27C12.338 0.808 11.618 1.081 10.684 1.081C9.831 1.081 9.151 0.826 8.662 0.323C8.561 0.22 8.475 0.112 8.4 0.001C8.34 0.093 8.27 0.184 8.192 0.271C7.705 0.809 6.985 1.082 6.053 1.082C5.2 1.082 4.519 0.827 4.031 0.324C3.931 0.221 3.844 0.113 3.768 0.002C3.708 0.094 3.639 0.185 3.56 0.272C3.073 0.81 2.353 1.083 1.42 1.083C1.362 1.083 1.306 1.071 1.255 1.051L1.255 2.945L0.759 2.945C0.34 2.945 0 3.285 0 3.704L0 6.101C0.06 6.077 0.125 6.062 0.194 6.062C0.981 6.057 1.565 5.854 1.929 5.451Z" transform="translate(1.908 11.044)" id="Path" fill="#4086F1" stroke="none" />
    <path d="M1.641 8.06878C1.986 7.68678 2.034 7.17378 2.036 6.94978C2.03 6.85278 2.031 6.79178 2.031 6.78178C2.038 6.54578 2.227 6.35578 2.463 6.34678C2.7 6.33978 2.901 6.51478 2.924 6.74978C2.925 6.75978 2.931 6.82078 2.931 6.91778C2.949 7.15278 3.033 7.70678 3.422 8.10378C3.736 8.42378 4.199 8.58478 4.798 8.58478C5.467 8.58478 5.964 8.41078 6.274 8.06878C6.619 7.68678 6.667 7.17378 6.669 6.94978C6.662 6.85278 6.664 6.79178 6.664 6.78178C6.671 6.54578 6.86 6.35578 7.096 6.34678C7.331 6.33978 7.534 6.51478 7.557 6.74978C7.558 6.75978 7.563 6.82078 7.564 6.91778C7.582 7.15278 7.666 7.70678 8.055 8.10378C8.368 8.42378 8.831 8.58478 9.43 8.58478C10.1 8.58478 10.596 8.41078 10.907 8.06878C11.252 7.68678 11.299 7.17378 11.302 6.94978C11.295 6.85278 11.296 6.79178 11.296 6.78178C11.304 6.54578 11.491 6.35578 11.728 6.34678C11.961 6.33978 12.166 6.51478 12.19 6.74978C12.191 6.75978 12.197 6.82078 12.198 6.91778C12.216 7.15278 12.299 7.70678 12.688 8.10378C13.001 8.42378 13.464 8.58478 14.064 8.58478C14.147 8.58478 14.224 8.60878 14.291 8.64778L14.291 6.57878C14.291 6.22178 14.002 5.93278 13.645 5.93278L8.714 5.93278L8.714 1.78478C8.714 1.78478 9.161 1.29078 8.714 1.32178C8.265 1.35278 8.006 1.65778 7.27 1.83978C7.195 1.85878 7.124 1.86978 7.053 1.88378C7.082 1.72878 7.156 1.57478 7.302 1.43878C7.545 1.21278 7.663 0.967779 7.653 0.711779C7.638 0.309779 7.309 0.0427793 7.295 0.0307793C7.235 -0.0172207 7.149 -0.00822075 7.101 0.0517793C7.053 0.111779 7.062 0.197779 7.122 0.246779C7.124 0.248779 7.368 0.449779 7.378 0.723779C7.381 0.895779 7.292 1.06778 7.112 1.23678C6.891 1.44378 6.795 1.68578 6.772 1.92778C6.43 1.96778 5.969 1.93478 5.578 1.87678C5.188 1.81878 5.578 2.40678 5.578 2.40678L5.578 5.93178L0.646 5.93178C0.29 5.93178 0 6.22078 0 6.57778L0 8.61578C0.051 8.59478 0.106 8.58378 0.165 8.58378C0.835 8.58478 1.331 8.41078 1.641 8.06878Z" transform="translate(3.163 2.6422207)" id="Path" fill="#4086F1" stroke="none" />
    <path d="M1.18384 0C-1.02816 2.574 0.459843 3.78 0.876843 4.047C0.944843 3.922 1.03084 3.806 1.14084 3.704C1.22284 3.627 1.31984 3.513 1.31584 3.403C1.31184 3.285 1.19884 3.163 1.15984 3.129C0.984843 2.987 0.957843 2.726 1.09984 2.548C1.16884 2.463 1.26684 2.408 1.37784 2.396C1.48684 2.381 1.59584 2.415 1.68284 2.484C1.72884 2.521 2.12584 2.856 2.14484 3.37C2.15284 3.587 2.08884 3.793 1.96684 3.989C2.08584 4.016 2.25484 3.921 2.56584 3.503C3.44184 1.476 1.18384 0 1.18384 0Z" transform="translate(8.878157 0)" id="Path" fill="#4086F1" stroke="none" />
  </g>
</svg>