<?xml version="1.0" encoding="utf-8"?>
<svg width="25px" height="15px" viewBox="0 0 25 15" version="1.1" xmlns:xlink="http://www.w3.org/1999/xlink" xmlns="http://www.w3.org/2000/svg">
  <g id="hand-shake">
    <path d="M6.04165 1.17335C5.2083 0.32 1.66665 0.1067 0.520801 0C0.41665 0 0.312451 0 0.208301 0.10665C0.10415 0.21335 0 0.4267 0 0.53335L0 10.1334C0 10.4534 0.20835 10.6667 0.52085 10.6667L3.64585 10.6667C3.8542 10.6667 4.0625 10.5601 4.1667 10.3467C4.1667 10.0267 6.0417 4.37335 6.25005 1.60005C6.25 1.49335 6.25 1.28005 6.04165 1.17335Z" transform="translate(0 0.0333)" id="Path" fill="#4086F1" stroke="none" />
    <path d="M8.34662 1.49332C7.30497 1.17332 6.36747 0.74667 5.53412 0.42667C3.65912 -0.42668 2.82577 2.03704e-05 1.15912 1.70667C0.429968 2.45332 -0.090882 3.52002 0.0132684 3.94667C0.0132684 4.05332 0.0132684 4.05332 0.221618 4.16002C0.742468 4.37337 1.47162 4.48002 2.20077 3.30667C2.30492 3.20002 2.40912 3.09332 2.61742 3.09332C2.92992 3.09332 3.03407 2.98667 3.34657 2.87997C3.55492 2.77332 3.76322 2.66662 4.07572 2.55997C4.17987 2.55997 4.17987 2.55997 4.28407 2.55997C4.38822 2.55997 4.59657 2.66662 4.70072 2.66662C5.22162 3.20002 6.15912 3.94667 7.09662 4.80002C8.55497 5.97337 10.0133 7.25337 10.7425 8.21337L10.8466 8.21337C10.1175 6.08002 8.86747 2.45332 8.34662 1.49332Z" transform="translate(8.840882 2.2733297)" id="Path" fill="#4086F1" stroke="none" />
    <path d="M6.77085 0C2.70835 0 0.416699 1.06665 0.3125 1.06665C0.20835 1.1733 0.10415 1.28 0 1.38665C0 1.4933 0 1.70665 0.10415 1.8133C0.72915 2.87995 2.8125 8.74665 3.125 10.24C3.22915 10.4533 3.4375 10.6666 3.64585 10.6666L6.77085 10.6666C7.08335 10.6666 7.2917 10.4532 7.2917 10.1333L7.2917 0.53325C7.2917 0.21335 7.08335 0 6.77085 0Z" transform="translate(17.708302 1.1)" id="Path" fill="#4086F1" stroke="none" />
    <path d="M13.4375 8.32C13.0208 7.36 11.25 5.97335 9.68745 4.69335C8.85415 3.94665 8.0208 3.30665 7.3958 2.7733C7.29165 2.87995 7.0833 2.87995 7.0833 2.98665C6.7708 3.0933 6.66665 3.2 6.24995 3.2C5.41665 4.26665 4.37495 4.6933 3.22915 4.26665C2.7083 4.16 2.3958 3.7333 2.29165 3.30665C2.0833 2.24 3.0208 0.74665 3.75 0L1.66665 0C1.25 2.13335 0.520801 4.90665 0 6.4C0.41665 6.82665 0.83335 7.36 1.14585 7.57335C3.125 9.28 5.4167 10.9867 5.83335 11.3067C6.14585 11.5201 6.77085 11.7333 7.08335 11.7333C7.1875 11.7333 7.2917 11.7333 7.39585 11.7333L5.72915 10.0266C5.5208 9.8133 5.5208 9.4933 5.72915 9.28C5.9375 9.0667 6.25 9.06665 6.4583 9.28L8.54165 11.4134C8.75 11.6267 8.9583 11.52 9.16665 11.52C9.47915 11.4134 9.5833 11.2 9.6875 10.88L7.29165 8.42665C7.0833 8.2133 7.0833 7.8933 7.29165 7.68C7.5 7.4667 7.8125 7.46665 8.0208 7.68L10.625 10.3466C10.7291 10.4533 11.1458 10.4533 11.4583 10.3466C11.5625 10.24 11.7708 10.1333 11.875 9.92L8.9583 6.9333C8.74995 6.71995 8.74995 6.39995 8.9583 6.18665C9.16665 5.97335 9.47915 5.9733 9.68745 6.18665L12.7083 9.28C12.9167 9.38665 13.125 9.28 13.3333 9.17335C13.4375 9.06665 13.6458 8.74665 13.4375 8.32Z" transform="translate(5.4166994 3.23335)" id="Path" fill="#4086F1" stroke="none" />
  </g>
</svg>