<?xml version="1.0" encoding="utf-8"?>
<svg width="22px" height="19px" viewBox="0 0 22 19" version="1.1" xmlns:xlink="http://www.w3.org/1999/xlink" xmlns="http://www.w3.org/2000/svg">
  <g id="lecture">
    <path d="M8.90411 0L2.50176 0C1.43558 0 0.568169 0.85806 0.568169 1.91275L0.568169 7.34492L0.0555944 9.03507C-0.100081 9.54837 0.0775944 10.0901 0.50827 10.4152C0.740259 10.5904 1.0141 10.6789 1.28923 10.6789C1.52487 10.6789 1.7615 10.6139 1.97342 10.4829L3.11626 9.77629L8.90406 9.77629C9.97025 9.77629 10.8377 8.91823 10.8377 7.86353L10.8377 1.91275C10.8377 0.85806 9.97029 1.81212e-15 8.90411 0ZM6.36895 7.05593L4.99395 7.05593C4.638 7.05593 4.34942 6.77046 4.34942 6.41834C4.34942 6.06623 4.638 5.78076 4.99395 5.78076L6.36895 5.78076C6.7249 5.78076 7.01348 6.06623 7.01348 6.41834C7.01348 6.77046 6.7249 7.05593 6.36895 7.05593ZM7.4002 3.99553L3.9627 3.99553C3.60675 3.99553 3.31817 3.71006 3.31817 3.35794C3.31817 3.00583 3.60675 2.72036 3.9627 2.72036L7.4002 2.72036C7.75615 2.72036 8.04473 3.00583 8.04473 3.35794C8.04473 3.71006 7.75615 3.99553 7.4002 3.99553Z" transform="translate(11.159035 0.04089038)" id="Shape" fill="#4086F1" stroke="none" />
    <path d="M0 0C0.0679766 1.69886 1.48564 3.0604 3.21939 3.0604L18.7741 3.0604C20.5078 3.0604 21.9255 1.69886 21.9935 0L0 0Z" transform="translate(0 15.937983)" id="Path" fill="#4086F1" stroke="none" />
    <path d="M12.8865 6.63083L12.0572 7.14358C11.6448 7.39861 11.1719 7.53339 10.6898 7.53339C10.1223 7.53339 9.58186 7.35185 9.12686 7.00836C8.70624 6.69085 8.39837 6.26218 8.23651 5.76869C8.07464 5.2752 8.06945 4.74936 8.22147 4.24809L8.67969 2.73719L8.67969 0L1.93359 0C0.86741 0 0 0.85806 0 1.91275L0 9.56376C0 9.78725 0.0393164 10.0018 0.110859 10.2013L2.75 10.2013L2.75 8.11857C2.75 7.53127 3.05147 7.00241 3.53031 6.63657C3.25733 6.29584 3.09375 5.86569 3.09375 5.39821C3.09375 4.29664 3.9997 3.40045 5.11328 3.40045C6.22686 3.40045 7.13281 4.29664 7.13281 5.39821C7.13281 5.86518 6.96957 6.29491 6.69715 6.63542C6.70798 6.64367 6.71911 6.65162 6.72977 6.66003C7.20436 7.03561 7.47656 7.56723 7.47656 8.11853L7.47656 10.2013L18.3657 10.2013C18.4372 10.0017 18.4766 9.78721 18.4766 9.56372L18.4766 6.63164C18.4116 6.63164 12.8865 6.63083 12.8865 6.63083L12.8865 6.63083Z" transform="translate(1.758496 4.4615145)" id="Path" fill="#4086F1" stroke="none" />
  </g>
</svg>