<?xml version="1.0" encoding="utf-8"?>
<svg width="16px" height="21px" viewBox="0 0 16 21" version="1.1" xmlns:xlink="http://www.w3.org/1999/xlink" xmlns="http://www.w3.org/2000/svg">
  <g id="file">
    <path d="M11.6364 2.625L11.6364 0L1.09091 0C0.488707 0.000723259 0.000701342 0.503979 0 1.125L0 19.875C0.000701342 20.496 0.488707 20.9993 1.09091 21L14.9091 21C15.5113 20.9993 15.9993 20.496 16 19.875L16 4.5L13.4545 4.5C12.4509 4.49884 11.6375 3.66005 11.6364 2.625ZM5.09091 11.625C4.48842 11.625 4 11.1213 4 10.5C4 9.87868 4.48842 9.375 5.09091 9.375C5.6934 9.375 6.18182 9.87868 6.18182 10.5C6.18112 11.121 5.69311 11.6243 5.09091 11.625ZM8 11.625C7.39751 11.625 6.90909 11.1213 6.90909 10.5C6.90909 9.87868 7.39751 9.375 8 9.375C8.60249 9.375 9.09091 9.87868 9.09091 10.5C9.09021 11.121 8.6022 11.6243 8 11.625ZM10.9091 11.625C10.3066 11.625 9.81818 11.1213 9.81818 10.5C9.81818 9.87868 10.3066 9.375 10.9091 9.375C11.5116 9.375 12 9.87868 12 10.5C11.9993 11.121 11.5113 11.6243 10.9091 11.625ZM8.36364 10.5C8.36364 10.7071 8.20083 10.875 8 10.875C7.79917 10.875 7.63636 10.7071 7.63636 10.5C7.63636 10.2929 7.79917 10.125 8 10.125C8.20074 10.1252 8.36341 10.293 8.36364 10.5ZM11.2727 10.5C11.2727 10.7071 11.1099 10.875 10.9091 10.875C10.7083 10.875 10.5455 10.7071 10.5455 10.5C10.5455 10.2929 10.7083 10.125 10.9091 10.125C11.1098 10.1252 11.2725 10.293 11.2727 10.5ZM12.3636 2.625L12.3636 0.530297L15.4858 3.75L13.4545 3.75C12.8523 3.74928 12.3643 3.24602 12.3636 2.625ZM5.45455 10.5C5.45455 10.7071 5.29174 10.875 5.09091 10.875C4.89008 10.875 4.72727 10.7071 4.72727 10.5C4.72727 10.2929 4.89008 10.125 5.09091 10.125C5.29165 10.1252 5.45432 10.293 5.45455 10.5Z" id="Shape" fill="#4086F1" stroke="none" />
  </g>
</svg>