<?xml version="1.0" encoding="utf-8"?>
<svg width="20px" height="16px" viewBox="0 0 20 16" version="1.1" xmlns:xlink="http://www.w3.org/1999/xlink" xmlns="http://www.w3.org/2000/svg">
  <g id="suitcase">
    <path d="M5.83333 3.6C5.37333 3.6 5 3.2416 5 2.8L5 1.6L1.66667 1.6L1.66667 2.8C1.66667 3.2416 1.29333 3.6 0.833333 3.6C0.373333 3.6 0 3.2416 0 2.8L0 1.6C0 0.7176 0.7475 0 1.66667 0L5 0C5.91917 0 6.66667 0.7176 6.66667 1.6L6.66667 2.8C6.66667 3.2416 6.29333 3.6 5.83333 3.6Z" transform="translate(6.6666665 0)" id="Path" fill="#4086F1" stroke="none" />
    <path d="M10.5917 3.008C10.4417 3.064 10.225 3.104 10 3.104C9.775 3.104 9.55833 3.064 9.35833 2.992L0 0L0 6.104C0 7.32 1.025 8.304 2.29167 8.304L17.7083 8.304C18.975 8.304 20 7.32 20 6.104L20 1.42109e-15L10.5917 3.008Z" transform="translate(0 7.696)" id="Path" fill="#4086F1" stroke="none" />
    <path d="M20 2.2L20 4.032L10.2 7.168C10.1333 7.192 10.0667 7.2 10 7.2C9.93333 7.2 9.86667 7.192 9.8 7.168L0 4.032L0 2.2C0 0.984 1.025 0 2.29167 0L17.7083 0C18.975 0 20 0.984 20 2.2Z" transform="translate(0 2.4)" id="Path" fill="#4086F1" stroke="none" />
  </g>
</svg>