<svg width="24" height="24" viewBox="0 0 24 24" fill="none" xmlns="http://www.w3.org/2000/svg">
<path d="M18.3847 6.00902C18.3251 6.00899 18.2666 5.99252 18.2157 5.96142C18.1648 5.93032 18.1235 5.88579 18.0963 5.83272C18.0691 5.77966 18.057 5.72012 18.0614 5.66065C18.0658 5.60117 18.0866 5.54407 18.1214 5.49562C18.3187 5.21991 18.4241 4.88895 18.4223 4.54989C18.4217 4.15739 18.2813 3.77795 18.0262 3.47962C17.7712 3.1813 17.4182 2.98362 17.0305 2.92204C16.6429 2.86046 16.246 2.93901 15.911 3.1436C15.5761 3.34819 15.325 3.66544 15.2028 4.03843C15.1746 4.11842 15.1162 4.1842 15.0402 4.22167C14.9641 4.25915 14.8764 4.26534 14.7958 4.23892C14.7152 4.21249 14.6482 4.15556 14.6091 4.08032C14.57 4.00508 14.5619 3.91751 14.5865 3.83637C14.7567 3.31664 15.1066 2.87457 15.5733 2.58952C16.04 2.30446 16.593 2.19508 17.1331 2.28101C17.6732 2.36693 18.165 2.64254 18.5202 3.05837C18.8754 3.47419 19.0708 4.003 19.0713 4.54989C19.0736 5.02456 18.926 5.48785 18.6497 5.87378C18.6195 5.91583 18.5797 5.95005 18.5336 5.97357C18.4875 5.9971 18.4365 6.00926 18.3847 6.00902Z" fill="#DBBB95"/>
<path d="M20.9131 9.7585C20.8597 9.75849 20.8073 9.74534 20.7602 9.72021C20.7132 9.69509 20.6731 9.65876 20.6435 9.61444C20.6139 9.57012 20.5956 9.51918 20.5904 9.46613C20.5851 9.41308 20.593 9.35955 20.6134 9.31028C20.7268 9.03157 20.7841 8.73323 20.782 8.43234C20.7857 8.11193 20.7258 7.79398 20.6058 7.49689C20.4857 7.1998 20.3079 6.92948 20.0827 6.7016C19.8574 6.47371 19.5892 6.29279 19.2935 6.16932C18.9978 6.04584 18.6806 5.98226 18.3601 5.98226C18.0397 5.98226 17.7225 6.04584 17.4268 6.16932C17.1311 6.29279 16.8629 6.47371 16.6376 6.7016C16.4123 6.92948 16.2345 7.1998 16.1145 7.49689C15.9944 7.79398 15.9345 8.11193 15.9382 8.43234C15.9382 8.51835 15.9041 8.60085 15.8432 8.66167C15.7824 8.72249 15.6999 8.75666 15.6139 8.75666C15.5279 8.75666 15.4454 8.72249 15.3846 8.66167C15.3238 8.60085 15.2896 8.51835 15.2896 8.43234C15.2854 8.02645 15.3618 7.62377 15.5142 7.24758C15.6666 6.87138 15.8921 6.52914 16.1777 6.24065C16.4632 5.95216 16.8031 5.72315 17.1777 5.56685C17.5523 5.41055 17.9542 5.33008 18.3601 5.33008C18.766 5.33008 19.1679 5.41055 19.5425 5.56685C19.9171 5.72315 20.257 5.95216 20.5426 6.24065C20.8281 6.52914 21.0536 6.87138 21.2061 7.24758C21.3585 7.62377 21.4348 8.02645 21.4307 8.43234C21.4329 8.81867 21.359 9.20165 21.213 9.55937C21.1883 9.61848 21.1466 9.66895 21.0932 9.70439C21.0398 9.73983 20.9771 9.75866 20.9131 9.7585Z" fill="#DBBB95"/>
<path d="M19.2523 14.688C19.1468 14.688 19.0424 14.6825 18.9396 14.6724C18.8972 14.6682 18.8561 14.6556 18.8186 14.6355C18.7811 14.6153 18.7479 14.588 18.7209 14.555C18.694 14.522 18.6738 14.484 18.6615 14.4433C18.6492 14.4025 18.6451 14.3597 18.6493 14.3173C18.6536 14.2749 18.6662 14.2338 18.6863 14.1963C18.7065 14.1587 18.7338 14.1256 18.7668 14.0986C18.7998 14.0717 18.8377 14.0515 18.8785 14.0392C18.9193 14.0269 18.9621 14.0228 19.0045 14.027C19.0855 14.035 19.1678 14.0391 19.2513 14.0393C19.758 14.0399 20.2521 13.8813 20.6639 13.586C21.0757 13.2907 21.3843 12.8735 21.5463 12.3934C21.7083 11.9132 21.7155 11.3943 21.5668 10.9099C21.4181 10.4255 21.121 9.99996 20.7175 9.6934C20.6487 9.64179 20.6032 9.56496 20.5911 9.47981C20.5789 9.39466 20.6011 9.30816 20.6527 9.23935C20.7043 9.17054 20.7811 9.12504 20.8663 9.11288C20.9514 9.10072 21.0379 9.12288 21.1067 9.17449C21.618 9.56336 21.9943 10.1028 22.1829 10.7168C22.3714 11.3308 22.3626 11.9885 22.1577 12.5973C21.9528 13.2061 21.5621 13.7352 21.0407 14.1103C20.5192 14.4853 19.8933 14.6874 19.251 14.688H19.2523Z" fill="#DBBB95"/>
<path d="M18.0596 21.4881C17.9781 21.4881 17.8996 21.4575 17.8397 21.4022C17.7798 21.347 17.7429 21.2712 17.7363 21.19C17.7297 21.1088 17.7539 21.028 17.8042 20.9639C17.8544 20.8997 17.927 20.8568 18.0074 20.8437C18.5733 20.7521 19.088 20.4616 19.4587 20.0243C19.8294 19.5871 20.0318 19.0319 20.0296 18.4586C20.0296 18.2211 19.9953 17.9848 19.9278 17.7571C19.9157 17.7163 19.9118 17.6734 19.9162 17.6311C19.9207 17.5887 19.9335 17.5477 19.9538 17.5102C19.9742 17.4728 20.0017 17.4398 20.0348 17.413C20.0679 17.3862 20.106 17.3662 20.1468 17.3541C20.1877 17.3421 20.2305 17.3381 20.2729 17.3426C20.3152 17.3471 20.3563 17.3599 20.3937 17.3802C20.4311 17.4006 20.4642 17.4281 20.4909 17.4612C20.5177 17.4943 20.5377 17.5324 20.5498 17.5732C20.6354 17.8606 20.6791 18.1588 20.6795 18.4586C20.6823 19.1858 20.4254 19.8901 19.955 20.4448C19.4846 20.9994 18.8317 21.3679 18.1138 21.4839C18.0959 21.4867 18.0778 21.4881 18.0596 21.4881Z" fill="#DBBB95"/>
<path d="M20.2378 17.9897C20.1636 17.9898 20.0916 17.9644 20.0338 17.9178C19.9761 17.8711 19.936 17.8061 19.9205 17.7336C19.9049 17.661 19.9146 17.5853 19.9481 17.519C19.9816 17.4528 20.0368 17.4001 20.1045 17.3696C20.5277 17.1782 20.8867 16.8688 21.1387 16.4786C21.3906 16.0884 21.5247 15.6339 21.525 15.1694C21.5272 14.6291 21.3458 14.1042 21.0107 13.6804C20.9596 13.6127 20.9371 13.5276 20.948 13.4435C20.9589 13.3594 21.0024 13.2829 21.069 13.2304C21.1357 13.1779 21.2202 13.1536 21.3046 13.1628C21.3889 13.1719 21.4663 13.2137 21.5202 13.2792C21.807 13.6446 22.007 14.0704 22.1049 14.5244C22.2028 14.9785 22.1962 15.4488 22.0854 15.8999C21.9747 16.351 21.7627 16.771 21.4657 17.128C21.1686 17.4851 20.7942 17.7699 20.3708 17.9609C20.329 17.9798 20.2837 17.9896 20.2378 17.9897Z" fill="#DBBB95"/>
<path d="M15.1722 23.3514C14.2452 23.3504 13.3564 22.9817 12.7009 22.3262C12.0454 21.6707 11.6767 20.7819 11.6757 19.8549V2.70397C11.6612 2.41382 11.7082 2.12388 11.8137 1.85318C11.9192 1.58249 12.0807 1.33715 12.2877 1.13327C12.5158 0.929225 12.7895 0.782698 13.0858 0.705913C13.3821 0.629128 13.6925 0.624312 13.991 0.691867C15.4271 1.03202 16.7742 1.67404 17.9429 2.57522C18.01 2.62919 18.0529 2.70761 18.0622 2.79322C18.0714 2.87883 18.0463 2.96461 17.9924 3.0317C17.9384 3.0988 17.86 3.1417 17.7744 3.15098C17.6887 3.16025 17.603 3.13514 17.5359 3.08116C16.4459 2.24828 15.1947 1.65111 13.8616 1.32754C13.6648 1.28068 13.4596 1.28149 13.2631 1.32989C13.0666 1.37829 12.8845 1.47288 12.732 1.60581C12.5909 1.75011 12.4817 1.92243 12.4115 2.1116C12.3413 2.30077 12.3116 2.50259 12.3243 2.70397V19.8549C12.3246 20.5057 12.5476 21.1368 12.9565 21.6431C13.3653 22.1495 13.9351 22.5006 14.5712 22.6381C15.2073 22.7755 15.8713 22.691 16.4527 22.3986C17.0341 22.1062 17.4979 21.6235 17.7668 21.0309C17.8024 20.9525 17.8676 20.8915 17.9482 20.8613C18.0287 20.831 18.118 20.834 18.1964 20.8695C18.2747 20.9051 18.3357 20.9703 18.366 21.0509C18.3963 21.1315 18.3933 21.2207 18.3577 21.2991C18.0791 21.9104 17.6308 22.4288 17.0661 22.7927C16.5014 23.1565 15.844 23.3505 15.1722 23.3514Z" fill="#DBBB95"/>
<path d="M5.61538 6.00902C5.56384 6.00905 5.51304 5.9968 5.46719 5.97328C5.42134 5.94976 5.38175 5.91565 5.3517 5.87378C5.07534 5.48785 4.9278 5.02456 4.93008 4.54989C4.93056 4.003 5.12594 3.47419 5.48115 3.05837C5.83636 2.64254 6.32815 2.36693 6.86824 2.28101C7.40834 2.19508 7.96137 2.30446 8.4281 2.58952C8.89482 2.87457 9.24466 3.31664 9.41484 3.83637C9.42917 3.87711 9.43524 3.92029 9.43266 3.96339C9.43009 4.0065 9.41893 4.04866 9.39985 4.08739C9.38077 4.12613 9.35414 4.16066 9.32154 4.18897C9.28893 4.21728 9.251 4.23879 9.20996 4.25225C9.16893 4.2657 9.12563 4.27083 9.08259 4.26732C9.03955 4.26382 8.99764 4.25175 8.95933 4.23184C8.92102 4.21192 8.88707 4.18455 8.85947 4.15134C8.83187 4.11813 8.81118 4.07974 8.79862 4.03843C8.67678 3.66495 8.42574 3.34717 8.09062 3.14218C7.75549 2.93719 7.35825 2.85843 6.97027 2.92005C6.58228 2.98167 6.22899 3.17964 5.97387 3.47838C5.71875 3.77711 5.57853 4.15704 5.5784 4.54989C5.57668 4.88895 5.682 5.21991 5.87938 5.49562C5.91415 5.54407 5.93488 5.60117 5.9393 5.66065C5.94373 5.72012 5.93167 5.77966 5.90445 5.83272C5.87723 5.88579 5.83591 5.93032 5.78502 5.96142C5.73414 5.99252 5.67566 6.009 5.61603 6.00902H5.61538Z" fill="#DBBB95"/>
<path d="M3.08688 9.7585C3.02264 9.75855 2.95984 9.73953 2.90643 9.70385C2.85302 9.66817 2.81141 9.61743 2.78688 9.55807C2.6411 9.20076 2.56715 8.81823 2.56925 8.43234C2.56508 8.02645 2.64142 7.62377 2.79386 7.24758C2.9463 6.87138 3.17181 6.52914 3.45735 6.24065C3.74289 5.95216 4.08279 5.72315 4.4574 5.56685C4.83201 5.41055 5.23389 5.33008 5.63979 5.33008C6.0457 5.33008 6.44758 5.41055 6.82219 5.56685C7.19679 5.72315 7.5367 5.95216 7.82224 6.24065C8.10778 6.52914 8.33329 6.87138 8.48573 7.24758C8.63817 7.62377 8.71451 8.02645 8.71034 8.43234C8.71034 8.51835 8.67617 8.60085 8.61534 8.66167C8.55452 8.72249 8.47203 8.75666 8.38601 8.75666C8.29999 8.75666 8.2175 8.72249 8.15668 8.66167C8.09586 8.60085 8.06169 8.51835 8.06169 8.43234C8.06539 8.11193 8.00549 7.79398 7.88544 7.49689C7.76539 7.1998 7.58759 6.92948 7.36233 6.7016C7.13706 6.47371 6.86882 6.29279 6.57314 6.16932C6.27746 6.04584 5.96022 5.98226 5.63979 5.98226C5.31937 5.98226 5.00213 6.04584 4.70644 6.16932C4.41076 6.29279 4.14252 6.47371 3.91726 6.7016C3.692 6.92948 3.5142 7.1998 3.39415 7.49689C3.2741 7.79398 3.21419 8.11193 3.2179 8.43234C3.21569 8.73366 3.273 9.03246 3.38655 9.31158C3.41899 9.39091 3.41871 9.47986 3.38577 9.55898C3.35284 9.6381 3.28992 9.70097 3.21077 9.73385C3.17146 9.75001 3.12938 9.75838 3.08688 9.7585Z" fill="#DBBB95"/>
<path d="M4.74777 14.688C4.10478 14.6888 3.47778 14.4876 2.95537 14.1127C2.43296 13.7378 2.04155 13.2083 1.83643 12.5988C1.63131 11.9894 1.62286 11.331 1.81227 10.7165C2.00168 10.1021 2.37937 9.56265 2.89199 9.17449C2.9608 9.12288 3.0473 9.10072 3.13245 9.11288C3.2176 9.12504 3.29443 9.17054 3.34604 9.23935C3.39765 9.30816 3.41981 9.39466 3.40765 9.47981C3.39548 9.56496 3.34999 9.64179 3.28118 9.6934C2.87888 10.0006 2.58296 10.4261 2.435 10.9101C2.28705 11.3942 2.2945 11.9124 2.45631 12.392C2.61812 12.8716 2.92615 13.2885 3.33711 13.5839C3.74807 13.8794 4.24129 14.0387 4.74745 14.0393C4.83091 14.0393 4.91318 14.0352 4.99426 14.027C5.03664 14.0228 5.07944 14.0269 5.12022 14.0392C5.161 14.0515 5.19897 14.0717 5.23194 14.0986C5.26492 14.1256 5.29227 14.1588 5.31242 14.1963C5.33257 14.2338 5.34513 14.2749 5.34939 14.3173C5.35365 14.3597 5.34952 14.4025 5.33724 14.4433C5.32496 14.484 5.30476 14.522 5.27781 14.555C5.25086 14.588 5.21767 14.6153 5.18015 14.6355C5.14263 14.6556 5.1015 14.6682 5.05912 14.6724C4.95761 14.6825 4.85318 14.688 4.74777 14.688Z" fill="#DBBB95"/>
<path d="M5.94027 21.4881C5.92257 21.488 5.9049 21.4866 5.88741 21.4839C5.1695 21.3679 4.5166 20.9994 4.04623 20.4448C3.57586 19.8901 3.31893 19.1858 3.32168 18.4586C3.32213 18.1588 3.36583 17.8606 3.45141 17.5732C3.46348 17.5324 3.48348 17.4943 3.51027 17.4612C3.53705 17.4281 3.5701 17.4006 3.60752 17.3802C3.64494 17.3599 3.686 17.3471 3.72836 17.3426C3.77071 17.3381 3.81354 17.3421 3.85438 17.3541C3.89522 17.3662 3.93329 17.3862 3.96641 17.413C3.99952 17.4398 4.02704 17.4728 4.04738 17.5102C4.06772 17.5477 4.0805 17.5887 4.08497 17.6311C4.08945 17.6734 4.08554 17.7163 4.07346 17.7571C4.00589 17.9848 3.97159 18.2211 3.97162 18.4586C3.96937 19.0319 4.17182 19.5871 4.54254 20.0243C4.91326 20.4616 5.42789 20.7521 5.99379 20.8437C6.07422 20.8568 6.14678 20.8997 6.19702 20.9639C6.24727 21.028 6.27151 21.1088 6.26492 21.19C6.25834 21.2712 6.22142 21.347 6.1615 21.4022C6.10159 21.4575 6.02307 21.4881 5.94157 21.4881H5.94027Z" fill="#DBBB95"/>
<path d="M3.7622 17.9895C3.71634 17.9894 3.67102 17.9796 3.62923 17.9606C3.20571 17.7698 2.83117 17.4851 2.53396 17.1281C2.23676 16.7711 2.02469 16.3512 1.91381 15.9001C1.80293 15.449 1.79616 14.9785 1.894 14.5244C1.99184 14.0703 2.19173 13.6444 2.47853 13.279C2.50451 13.2445 2.53711 13.2156 2.57443 13.1939C2.61174 13.1722 2.65301 13.1581 2.69582 13.1526C2.73863 13.147 2.78212 13.1501 2.82373 13.1616C2.86535 13.173 2.90425 13.1927 2.93817 13.2194C2.97209 13.2461 3.00033 13.2793 3.02124 13.3171C3.04216 13.3549 3.05533 13.3964 3.05997 13.4393C3.06462 13.4822 3.06065 13.5257 3.04829 13.567C3.03594 13.6084 3.01546 13.6469 2.98804 13.6802C2.65289 14.104 2.47154 14.6289 2.47366 15.1692C2.47396 15.6337 2.6081 16.0882 2.86003 16.4784C3.11197 16.8686 3.47102 17.178 3.8942 17.3694C3.9619 17.3998 4.0171 17.4526 4.05059 17.5188C4.08409 17.5851 4.09385 17.6608 4.07825 17.7333C4.06265 17.8059 4.02264 17.8709 3.96488 17.9175C3.90713 17.9642 3.83513 17.9896 3.76091 17.9895H3.7622Z" fill="#DBBB95"/>
<path d="M8.82781 23.3514C8.15619 23.3502 7.49903 23.1562 6.93448 22.7924C6.36994 22.4286 5.92177 21.9102 5.64327 21.2991C5.6077 21.2207 5.60472 21.1314 5.63498 21.0509C5.66524 20.9703 5.72626 20.9051 5.80462 20.8695C5.88298 20.8339 5.97226 20.831 6.05282 20.8612C6.13338 20.8915 6.19862 20.9525 6.23419 21.0309C6.50345 21.6229 6.96721 22.105 7.54839 22.397C8.12956 22.689 8.79316 22.7733 9.42889 22.6359C10.0646 22.4985 10.6342 22.1477 11.0429 21.6417C11.4517 21.1358 11.675 20.5053 11.6757 19.8549V2.70395C11.6884 2.50256 11.6587 2.30074 11.5885 2.11157C11.5183 1.9224 11.4091 1.75008 11.268 1.60578C11.1155 1.47283 10.9335 1.37822 10.7371 1.32982C10.5407 1.28142 10.3355 1.28063 10.1387 1.32751C8.80547 1.64962 7.554 2.24609 6.46413 3.07886C6.39686 3.12712 6.31367 3.14783 6.23162 3.13673C6.14958 3.12563 6.07488 3.08358 6.02284 3.01918C5.9708 2.95478 5.94536 2.87292 5.95173 2.79037C5.9581 2.70782 5.9958 2.63084 6.05711 2.57519C7.22588 1.67396 8.57316 1.03194 10.0093 0.691837C10.3078 0.62431 10.6181 0.62914 10.9144 0.705925C11.2106 0.78271 11.4842 0.929223 11.7123 1.13324C11.9193 1.33712 12.0808 1.58246 12.1863 1.85315C12.2918 2.12385 12.3388 2.41379 12.3244 2.70395V19.8549C12.3233 20.7819 11.9546 21.6707 11.2991 22.3262C10.6436 22.9817 9.75483 23.3504 8.82781 23.3514Z" fill="#DBBB95"/>
<path d="M12 7.44814C11.9702 7.44817 11.9407 7.44402 11.9121 7.43582C11.8711 7.42426 11.8328 7.40473 11.7993 7.37836C11.7659 7.35199 11.7379 7.31929 11.7171 7.28213C11.6963 7.24497 11.683 7.20407 11.678 7.16177C11.673 7.11947 11.6764 7.0766 11.688 7.0356C11.8586 6.42977 12.5092 5.31668 13.7374 5.43928C13.823 5.44788 13.9016 5.49013 13.9561 5.55673C14.0105 5.62333 14.0362 5.70883 14.0276 5.79441C14.019 5.88 13.9768 5.95866 13.9102 6.0131C13.8436 6.06754 13.7581 6.09329 13.6725 6.08468C12.6723 5.98739 12.3152 7.19939 12.3103 7.21171C12.2913 7.27946 12.2507 7.33917 12.1947 7.38182C12.1387 7.42447 12.0704 7.44775 12 7.44814Z" fill="#DBBB95"/>
<path d="M12 9.05804C11.9295 9.05799 11.861 9.03498 11.8047 8.9925C11.7485 8.95001 11.7076 8.89036 11.6883 8.82258C11.6737 8.77231 11.317 7.59242 10.3262 7.69458C10.2405 7.70318 10.155 7.67742 10.0884 7.62295C10.0217 7.56848 9.97947 7.48978 9.97086 7.40415C9.96226 7.31852 9.98803 7.23298 10.0425 7.16635C10.097 7.09972 10.1757 7.05745 10.2613 7.04885C11.4937 6.92658 12.1401 8.03966 12.3107 8.6455C12.3223 8.68649 12.3256 8.72936 12.3206 8.77166C12.3156 8.81396 12.3024 8.85486 12.2815 8.89203C12.2607 8.92919 12.2328 8.96189 12.1994 8.98826C12.1659 9.01463 12.1276 9.03415 12.0866 9.04572C12.0584 9.0538 12.0293 9.05795 12 9.05804Z" fill="#DBBB95"/>
<path d="M16.4433 11.2508C15.9942 11.2512 15.5506 11.1526 15.1441 10.962C14.7375 10.7714 14.3779 10.4935 14.091 10.1481C14.0625 10.1155 14.0408 10.0776 14.0272 10.0366C14.0136 9.99553 14.0083 9.95218 14.0117 9.90906C14.0151 9.86595 14.0271 9.82395 14.047 9.78554C14.0669 9.74713 14.0942 9.71308 14.1274 9.6854C14.1607 9.65771 14.1991 9.63695 14.2405 9.62433C14.2818 9.61172 14.3253 9.6075 14.3683 9.61193C14.4113 9.61636 14.453 9.62935 14.4909 9.65014C14.5289 9.67092 14.5623 9.69908 14.5891 9.73296C14.9064 10.1141 15.3334 10.3883 15.812 10.518C16.2906 10.6478 16.7976 10.6269 17.2639 10.4582C17.7303 10.2895 18.1333 9.98121 18.4181 9.57525C18.7029 9.16928 18.8557 8.68541 18.8556 8.1895C18.8556 8.12755 18.8533 8.06593 18.8488 8.00496C18.8448 7.96209 18.8494 7.91885 18.8623 7.87778C18.8752 7.8367 18.8962 7.7986 18.924 7.7657C18.9517 7.73281 18.9858 7.70577 19.0241 7.68618C19.0625 7.66658 19.1043 7.65481 19.1473 7.65156C19.1902 7.64831 19.2333 7.65364 19.2742 7.66724C19.315 7.68084 19.3528 7.70244 19.3852 7.73078C19.4176 7.75911 19.4441 7.79362 19.463 7.83229C19.4819 7.87095 19.493 7.913 19.4955 7.95599C19.5013 8.03318 19.5043 8.11101 19.5043 8.1895C19.5035 9.00111 19.1808 9.77927 18.6069 10.3532C18.033 10.9271 17.2549 11.2499 16.4433 11.2508Z" fill="#DBBB95"/>
<path d="M18.3604 13.1351H18.3539C16.7757 13.1042 16.0343 11.7168 15.8627 10.9874C15.844 10.9041 15.8589 10.8168 15.9042 10.7444C15.9494 10.6721 16.0214 10.6205 16.1044 10.6008C16.1875 10.5811 16.2749 10.595 16.3478 10.6393C16.4207 10.6837 16.4732 10.7551 16.4939 10.8379C16.5101 10.9027 16.9015 12.4579 18.3665 12.4864C18.4525 12.4872 18.5347 12.5222 18.5949 12.5836C18.6552 12.645 18.6886 12.7278 18.6878 12.8138C18.6869 12.8998 18.652 12.982 18.5906 13.0422C18.5292 13.1025 18.4464 13.1359 18.3604 13.1351Z" fill="#DBBB95"/>
<path d="M16.3829 17.4875H16.356C16.2702 17.4804 16.1909 17.4395 16.1353 17.3739C16.0797 17.3082 16.0524 17.2232 16.0595 17.1375C16.1064 16.7997 16.0841 16.4559 15.994 16.1269C15.9039 15.798 15.7479 15.4908 15.5354 15.224C15.0228 14.6932 14.3388 14.361 13.6047 14.2861C13.5189 14.2799 13.4391 14.2398 13.3828 14.1748C13.3265 14.1097 13.2984 14.025 13.3046 13.9392C13.3107 13.8534 13.3508 13.7736 13.4158 13.7173C13.4809 13.661 13.5656 13.6328 13.6514 13.639C14.5583 13.7266 15.4027 14.1398 16.0284 14.8021C16.2975 15.1331 16.4964 15.5154 16.6129 15.9258C16.7294 16.3362 16.761 16.766 16.7059 17.1891C16.6994 17.2703 16.6625 17.3461 16.6027 17.4014C16.5428 17.4567 16.4644 17.4874 16.3829 17.4875Z" fill="#DBBB95"/>
<path d="M14.3134 20.2959H14.2982C14.2556 20.294 14.2139 20.2836 14.1753 20.2655C14.1368 20.2475 14.1022 20.2219 14.0735 20.1905C14.0448 20.159 14.0225 20.1222 14.0081 20.0821C13.9936 20.0421 13.9872 19.9995 13.9891 19.957C14.042 18.8147 14.787 16.6839 17.2204 16.7699C17.2629 16.7714 17.3048 16.7814 17.3436 16.7991C17.3823 16.8169 17.4172 16.8421 17.4462 16.8733C17.4752 16.9046 17.4977 16.9412 17.5126 16.9812C17.5274 17.0211 17.5343 17.0636 17.5327 17.1062C17.5311 17.1488 17.5212 17.1906 17.5034 17.2294C17.4856 17.2681 17.4604 17.303 17.4292 17.332C17.398 17.361 17.3613 17.3836 17.3214 17.3984C17.2814 17.4133 17.2389 17.4201 17.1964 17.4185C14.7944 17.3319 14.6423 19.8785 14.6371 19.9872C14.6331 20.0703 14.5973 20.1488 14.537 20.2063C14.4768 20.2637 14.3967 20.2958 14.3134 20.2959Z" fill="#DBBB95"/>
<path d="M8.3478 11.6384C7.53627 11.6376 6.75821 11.3148 6.18431 10.7411C5.61041 10.1673 5.28753 9.38929 5.2865 8.57776C5.2865 8.49895 5.28942 8.42079 5.29526 8.34393C5.29777 8.30094 5.30883 8.25889 5.32777 8.22023C5.34671 8.18156 5.37316 8.14705 5.40558 8.11871C5.43799 8.09038 5.47573 8.06878 5.51658 8.05518C5.55743 8.04158 5.60058 8.03625 5.64352 8.0395C5.68645 8.04275 5.7283 8.05452 5.76664 8.07412C5.80498 8.09371 5.83903 8.12075 5.86681 8.15364C5.89459 8.18654 5.91554 8.22464 5.92845 8.26571C5.94135 8.30679 5.94594 8.35003 5.94196 8.3929C5.93742 8.45387 5.93515 8.51549 5.93515 8.57776C5.93524 9.07357 6.08809 9.5573 6.37291 9.96313C6.65774 10.369 7.06069 10.6772 7.52693 10.8458C7.99317 11.0145 8.50005 11.0354 8.97858 10.9056C9.45712 10.7759 9.88406 10.5019 10.2013 10.1209C10.2286 10.0882 10.262 10.0611 10.2997 10.0413C10.3374 10.0215 10.3787 10.0093 10.4211 10.0055C10.4635 10.0016 10.5063 10.0061 10.5469 10.0188C10.5876 10.0314 10.6254 10.052 10.6581 10.0792C10.6909 10.1065 10.7179 10.1399 10.7377 10.1776C10.7575 10.2153 10.7697 10.2566 10.7736 10.299C10.7774 10.3414 10.7729 10.3842 10.7603 10.4249C10.7476 10.4655 10.7271 10.5033 10.6998 10.536C10.4129 10.8813 10.0533 11.1592 9.64682 11.3497C9.24029 11.5402 8.79676 11.6388 8.3478 11.6384Z" fill="#DBBB95"/>
<path d="M6.4291 13.5242C6.34309 13.525 6.26027 13.4916 6.19887 13.4314C6.13747 13.3712 6.10252 13.289 6.1017 13.203C6.10088 13.117 6.13427 13.0341 6.19451 12.9727C6.25476 12.9113 6.33693 12.8764 6.42294 12.8756C7.88759 12.847 8.27938 11.2932 8.29559 11.227C8.31625 11.1442 8.36872 11.0729 8.44162 11.0285C8.51452 10.9841 8.60198 10.9703 8.68503 10.9899C8.76809 11.0096 8.84003 11.0612 8.88528 11.1336C8.93052 11.206 8.94541 11.2933 8.92673 11.3765C8.75678 12.1043 8.01343 13.4918 6.43559 13.5242H6.4291Z" fill="#DBBB95"/>
<path d="M6.49625 18.31C6.4147 18.3103 6.33604 18.2798 6.27593 18.2247C6.21583 18.1696 6.17869 18.0939 6.17193 18.0126C6.11623 17.5891 6.1476 17.1586 6.2641 16.7476C6.3806 16.3366 6.57978 15.9537 6.84944 15.6223C7.47496 14.96 8.3193 14.5469 9.22609 14.4593C9.31166 14.4543 9.39583 14.4828 9.46065 14.5389C9.52547 14.595 9.56582 14.6742 9.57312 14.7596C9.57621 14.8021 9.5709 14.8448 9.5575 14.8852C9.5441 14.9257 9.52286 14.9631 9.495 14.9953C9.46714 15.0275 9.43321 15.0539 9.39514 15.073C9.35706 15.0922 9.3156 15.1036 9.27311 15.1067C8.53794 15.1834 7.85321 15.5164 7.33884 16.0472C7.12752 16.3141 6.97245 16.6211 6.88299 16.9496C6.79353 17.278 6.77152 17.6212 6.8183 17.9584C6.82539 18.0442 6.79815 18.1292 6.74256 18.1948C6.68696 18.2604 6.60758 18.3013 6.52187 18.3084L6.49625 18.31Z" fill="#DBBB95"/>
<path d="M8.56569 21.118C8.48231 21.1181 8.40209 21.0861 8.3417 21.0286C8.2813 20.9711 8.24537 20.8925 8.24137 20.8092C8.23586 20.7006 8.07921 18.1469 5.68213 18.2399C5.59611 18.2431 5.51235 18.212 5.44928 18.1534C5.38621 18.0949 5.34899 18.0136 5.3458 17.9276C5.34262 17.8416 5.37374 17.7578 5.43231 17.6948C5.49088 17.6317 5.57211 17.5945 5.65813 17.5913C8.08829 17.5028 8.83651 19.6362 8.88937 20.7784C8.89133 20.821 8.88489 20.8635 8.87042 20.9036C8.85595 20.9436 8.83373 20.9804 8.80503 21.0119C8.77633 21.0434 8.74171 21.0689 8.70315 21.087C8.66459 21.1051 8.62284 21.1154 8.58029 21.1173L8.56569 21.118Z" fill="#DBBB95"/>
<path d="M12 20.1793H11.998C11.9554 20.179 11.9133 20.1703 11.874 20.1538C11.8347 20.1372 11.7991 20.1131 11.7692 20.0828C11.7392 20.0524 11.7156 20.0165 11.6995 19.977C11.6835 19.9375 11.6754 19.8953 11.6757 19.8527C11.697 19.2166 11.4927 18.5935 11.0989 18.0936C10.705 17.5937 10.1471 17.2491 9.52377 17.1209C9.4393 17.1046 9.36477 17.0554 9.31657 16.9841C9.26836 16.9129 9.25044 16.8254 9.26674 16.7409C9.28304 16.6565 9.33223 16.5819 9.40348 16.5337C9.47474 16.4855 9.56222 16.4676 9.64669 16.4839C9.67361 16.4891 12.3421 17.0353 12.3243 19.8569C12.3238 19.9426 12.2894 20.0245 12.2286 20.085C12.1679 20.1454 12.0857 20.1793 12 20.1793Z" fill="#DBBB95"/>
</svg>
