<svg width="22" height="22" viewBox="0 0 22 22" fill="none" xmlns="http://www.w3.org/2000/svg">
<path d="M8.64017 13.3413C8.21756 12.9178 7.02908 13.2975 6.47079 13.8567C4.60309 15.728 3.75956 17.0548 3.38081 17.8382C3.27223 18.0626 3.31746 18.3313 3.4935 18.5077C3.66986 18.6846 3.9385 18.7294 4.16267 18.6206C4.92702 18.2488 6.23504 17.4076 8.12497 15.5141C8.73885 14.8987 9.04176 13.7438 8.64062 13.3417L8.64017 13.3413Z" stroke="#DBBB95" stroke-width="0.5"/>
<path d="M2.82532 8.80088L1.1713 10.4581C0.984283 10.6455 0.945906 10.9356 1.0784 11.1654C1.20769 11.3921 1.47847 11.5076 1.73614 11.4385C2.63009 11.1983 3.41667 11.0969 3.94634 11.233C4.69987 9.89066 5.5096 8.655 6.36715 7.53256C5.87114 7.21396 4.23203 7.39142 2.82532 8.80088V8.80088Z" stroke="#DBBB95" stroke-width="0.5"/>
<path d="M10.898 20.9374C11.1232 21.0516 11.396 21.0075 11.5743 20.8286L13.2285 19.1714C14.5091 17.888 14.7345 16.2321 14.4439 15.707C13.1945 16.6505 11.9288 17.4471 10.748 18.1141C10.8295 18.5751 10.7752 19.0223 10.5826 20.3285C10.545 20.5813 10.6753 20.8259 10.898 20.9374V20.9374Z" stroke="#DBBB95" stroke-width="0.5"/>
<path d="M20.9259 1.57154C20.9049 1.28178 20.6746 1.05274 20.3863 1.03108C18.9501 0.92274 17.5195 1.09974 16.1172 1.52943C16.2227 2.4947 16.721 3.53932 17.5717 4.39168C18.4326 5.2541 19.5035 5.75322 20.4841 5.8466C20.8618 4.52046 21.0409 3.10017 20.9259 1.57154V1.57154Z" stroke="#DBBB95" stroke-width="0.5"/>
<path fill-rule="evenodd" clip-rule="evenodd" d="M14.9868 1.9375C15.1774 3.07611 15.7717 4.24555 16.7448 5.22058C17.7338 6.21149 18.9373 6.80796 20.1014 6.9842C18.4185 11.287 14.4608 14.5211 11.0613 16.5739L9.69817 15.2081C10.0641 14.3058 10.1627 13.2095 9.46745 12.5128C8.77316 11.8173 7.67849 11.9142 6.77678 12.281L5.45703 10.9587C8.11344 6.53177 11.4751 3.38053 14.9868 1.9375ZM11.7824 10.1924C12.9225 11.3345 14.7775 11.3345 15.9174 10.1924C17.0575 9.0501 17.0575 7.19143 15.9174 6.04915C14.7775 4.90703 12.9225 4.90703 11.7824 6.04915C10.6424 7.19128 10.6424 9.0501 11.7824 10.1924Z" fill="#ECF3FE"/>
<path d="M16.7448 5.22058L16.5679 5.39719V5.39719L16.7448 5.22058ZM14.9868 1.9375L15.2333 1.89621L15.1816 1.58716L14.8917 1.70626L14.9868 1.9375ZM20.1014 6.9842L20.3343 7.07526L20.4483 6.78385L20.1389 6.73701L20.1014 6.9842ZM11.0613 16.5739L10.8844 16.7505L11.0228 16.8892L11.1906 16.7879L11.0613 16.5739ZM9.69817 15.2081L9.4665 15.1141L9.40428 15.2675L9.52122 15.3847L9.69817 15.2081ZM9.46745 12.5128L9.64442 12.3362L9.64438 12.3361L9.46745 12.5128ZM6.77678 12.281L6.59983 12.4576L6.71715 12.5751L6.87099 12.5126L6.77678 12.281ZM5.45703 10.9587L5.24266 10.83L5.14233 10.9972L5.28008 11.1353L5.45703 10.9587ZM15.9174 10.1924L16.0944 10.369L15.9174 10.1924ZM11.7824 10.1924L11.6055 10.369L11.6055 10.369L11.7824 10.1924ZM15.9174 6.04915L16.0944 5.87255V5.87255L15.9174 6.04915ZM11.7824 6.04915L11.9594 6.22577L11.7824 6.04915ZM16.9218 5.04398C15.9826 4.10298 15.4148 2.97989 15.2333 1.89621L14.7402 1.97879C14.9401 3.17233 15.5608 4.38811 16.5679 5.39719L16.9218 5.04398ZM20.1389 6.73701C19.0308 6.56926 17.8753 5.99938 16.9218 5.04398L16.5679 5.39719C17.5923 6.4236 18.8439 7.04666 20.064 7.23138L20.1389 6.73701ZM11.1906 16.7879C14.6057 14.7257 18.6211 11.4554 20.3343 7.07526L19.8686 6.89313C18.2159 11.1187 14.3158 14.3166 10.9321 16.3599L11.1906 16.7879ZM9.52122 15.3847L10.8844 16.7505L11.2383 16.3973L9.87512 15.0315L9.52122 15.3847ZM9.29048 12.6894C9.8743 13.2744 9.82244 14.2366 9.4665 15.1141L9.92984 15.302C10.3058 14.3751 10.451 13.1445 9.64442 12.3362L9.29048 12.6894ZM6.87099 12.5126C7.74766 12.1559 8.70783 12.1057 9.29052 12.6894L9.64438 12.3361C8.83849 11.5289 7.60933 11.6724 6.68258 12.0494L6.87099 12.5126ZM5.28008 11.1353L6.59983 12.4576L6.95373 12.1044L5.63398 10.7821L5.28008 11.1353ZM14.8917 1.70626C11.3162 3.17553 7.91776 6.372 5.24266 10.83L5.6714 11.0873C8.30912 6.69155 11.634 3.58552 15.0818 2.16874L14.8917 1.70626ZM15.7405 10.0158C14.6983 11.06 13.0018 11.06 11.9594 10.0158L11.6055 10.369C12.8432 11.609 14.8568 11.609 16.0944 10.369L15.7405 10.0158ZM15.7405 6.22576C16.7831 7.27044 16.7831 8.97109 15.7405 10.0158L16.0944 10.369C17.3318 9.12912 17.3318 7.11242 16.0944 5.87255L15.7405 6.22576ZM11.9594 6.22577C13.0018 5.18149 14.6983 5.1815 15.7405 6.22576L16.0944 5.87255C14.8568 4.63256 12.8432 4.63258 11.6055 5.87254L11.9594 6.22577ZM11.9594 10.0158C10.9167 8.97108 10.9167 7.27029 11.9594 6.22577L11.6055 5.87254C10.368 7.11226 10.368 9.12912 11.6055 10.369L11.9594 10.0158Z" fill="#DBBB95"/>
</svg>
