<svg width="17" height="23" viewBox="0 0 17 23" fill="none" xmlns="http://www.w3.org/2000/svg">
<path d="M11.1154 1.34766H9.88814L9.73361 0.898887C9.54845 0.361262 9.05296 0 8.49998 0C7.947 0 7.45152 0.361262 7.26635 0.898887L7.11182 1.34766H5.8846C5.16236 1.34766 4.5769 1.951 4.5769 2.69531V3.36914C4.5769 3.74127 4.86965 4.04297 5.23075 4.04297H11.7692C12.1303 4.04297 12.4231 3.74127 12.4231 3.36914V2.69531C12.4231 1.951 11.8376 1.34766 11.1154 1.34766Z" fill="#5D9915"/>
<path fill-rule="evenodd" clip-rule="evenodd" d="M13.7308 2.69531H15.0385C16.1201 2.69531 17 3.60211 17 4.7168V20.8887C17 22.0034 16.1201 23 15.0385 23H1.96154C0.879902 23 0 22.0034 0 20.8887V4.7168C0 3.60211 0.879902 2.69531 1.96154 2.69531H3.26923V3.36914C3.26923 4.48383 4.14913 5.39062 5.23077 5.39062H11.7692C12.8509 5.39062 13.7308 4.48383 13.7308 3.36914V2.69531ZM6.02991 18.8672H10.8974C11.2588 18.8672 11.5513 18.5658 11.5513 18.1934C11.5513 17.8209 11.2588 17.5195 10.8974 17.5195H6.02991C5.66851 17.5195 5.37607 17.8209 5.37607 18.1934C5.37607 18.5658 5.66851 18.8672 6.02991 18.8672ZM10.8974 14.1504H6.02991C5.66851 14.1504 5.37607 13.849 5.37607 13.4766C5.37607 13.1041 5.66851 12.8027 6.02991 12.8027H10.8974C11.2588 12.8027 11.5513 13.1041 11.5513 13.4766C11.5513 13.849 11.2588 14.1504 10.8974 14.1504ZM6.02991 9.43359H10.8974C11.2588 9.43359 11.5513 9.13221 11.5513 8.75977C11.5513 8.38732 11.2588 8.08594 10.8974 8.08594H6.02991C5.66851 8.08594 5.37607 8.38732 5.37607 8.75977C5.37607 9.13221 5.66851 9.43359 6.02991 9.43359Z" fill="#5D9915"/>
</svg>
