<svg width="20" height="20" viewBox="0 0 20 20" fill="none" xmlns="http://www.w3.org/2000/svg">
<path d="M7.66083 7.07031C7.66083 7.71637 8.18562 8.24219 8.83042 8.24219C9.11886 8.24219 9.39572 8.13629 9.60999 7.94403C9.78299 7.79022 10.0297 7.75299 10.2386 7.84561C10.4494 7.94006 10.5848 8.14941 10.5848 8.38058V10.6667C10.7819 10.6134 10.9862 10.5859 11.1941 10.5859C12.4843 10.5859 13.5333 11.6371 13.5333 12.9297C13.5333 14.2223 12.4843 15.2734 11.1941 15.2734C10.9852 15.2734 10.7825 15.2364 10.5848 15.1828V20H14.7029C15.0262 20 15.3022 19.7379 15.3022 19.4141V16.4453H17.0421C17.3654 16.4453 17.6413 16.1832 17.6413 15.8594V12.9297H19.3957C19.5899 12.9297 19.771 12.8329 19.88 12.6721C19.9884 12.5114 20.0108 12.3065 19.9388 12.1263L18.3842 8.26904V6.48438C18.3842 2.93045 15.4985 0 11.9515 0H10.5848V5.75989C10.5848 5.99106 10.4494 6.20056 10.2386 6.29501C10.0285 6.38824 9.78299 6.35101 9.60999 6.19659C9.39572 6.00433 9.11886 5.89844 8.83042 5.89844C8.18562 5.89844 7.66083 6.42426 7.66083 7.07031Z" fill="#AD34C6"/>
<path d="M0.604273 12.9297H2.39765V15.8594C2.39765 16.1832 2.65913 16.4453 2.98244 16.4453H4.73683V19.4141C4.73683 19.7379 4.99831 20 5.32162 20H9.41519V14.2177C9.41519 13.7323 10.0272 13.4431 10.3981 13.7886C10.6151 13.9906 10.8977 14.1016 11.1941 14.1016C11.8389 14.1016 12.3637 13.5757 12.3637 12.9297C12.3637 12.2838 11.8389 11.7578 11.1941 11.7578C10.8977 11.7578 10.6151 11.8689 10.3981 12.0709C10.2278 12.2293 9.97943 12.2717 9.76637 12.179C9.55286 12.0857 9.41519 11.8745 9.41519 11.6417V9.33975C9.22559 9.38889 9.02974 9.41406 8.83039 9.41406C7.54034 9.41406 6.49121 8.36304 6.49121 7.07031C6.49121 5.77774 7.54034 4.72656 8.83039 4.72656C9.02974 4.72656 9.22559 4.75174 9.41519 4.80103V0H8.07305C4.52606 0 1.64031 2.93045 1.64031 6.48438V8.26904L0.0612053 12.1263C-0.0108281 12.3065 0.0114064 12.5114 0.119989 12.6723C0.229029 12.8329 0.410103 12.9297 0.604273 12.9297Z" fill="#AD34C6"/>
</svg>
