<?xml version="1.0" encoding="utf-8"?>
<svg width="13px" height="20px" viewBox="0 0 13 20" version="1.1" xmlns:xlink="http://www.w3.org/1999/xlink" xmlns="http://www.w3.org/2000/svg">
  <g id="furniture-and-household">
    <path d="M0 0L5.90894 0L5.90894 1.17172L0 1.17172L0 0Z" transform="translate(3.5454545 15.312653)" id="Path" fill="#EFEEEE" stroke="none" />
    <path d="M0 0.585938C0 1.55502 0.795265 2.34375 1.77257 2.34375L4.13621 2.34375C5.11352 2.34375 5.90894 1.55502 5.90894 0.585938L5.90894 0L0 0L0 0.585938Z" transform="translate(3.5454545 17.65625)" id="Path" fill="#EFEEEE" stroke="none" />
    <path d="M10.4979 11.5201C12.0878 10.2893 12.9997 8.43964 12.9997 6.44516C12.9997 2.883 10.0924 0 6.49985 0C2.90777 0 0 2.88284 0 6.44516C0 8.43964 0.911908 10.2893 2.50182 11.5201C3.15536 12.0256 3.54545 12.8583 3.54545 13.7474L3.54545 14.1408L5.90894 14.1408L7.09076 14.1408L9.45439 14.1408L9.45439 13.7474C9.45439 12.8583 9.84433 12.0256 10.4979 11.5201Z" id="Path" fill="#EFEEEE" stroke="none" />
  </g>
</svg>