<svg width="20" height="20" viewBox="0 0 20 20" fill="none" xmlns="http://www.w3.org/2000/svg">
<path d="M2.91392 12.8156C2.80092 13.0414 2.84493 13.3144 3.02296 13.4929L3.16596 13.6362C3.57912 13.1456 4.06066 12.6132 4.6447 12.0282C4.68597 11.9868 4.72846 11.9669 4.76988 11.9287L3.84989 11.0068C3.31505 11.976 3.00316 12.6382 2.91392 12.8156Z" fill="#DBBB95"/>
<path d="M7.95277 15.3427C7.36737 15.9293 6.8374 16.4127 6.35052 16.8269L6.54424 17.021C6.72394 17.2011 6.99898 17.2444 7.22513 17.1278C7.52803 16.9714 8.0044 16.7468 9.01561 16.1826L8.05222 15.2173C8.01415 15.2589 7.9942 15.3014 7.95277 15.3427Z" fill="#DBBB95"/>
<path d="M7.64101 12.3413C7.21841 11.9179 6.02993 12.2975 5.47164 12.8567C3.60395 14.7281 2.76041 16.0548 2.38166 16.8382C2.27308 17.0627 2.31831 17.3314 2.49436 17.5078C2.67071 17.6846 2.93935 17.7295 3.16352 17.6207C3.92787 17.2488 5.23589 16.4076 7.12582 14.5142C7.7397 13.8988 8.0426 12.7438 7.64147 12.3418L7.64101 12.3413Z" fill="#DBBB95"/>
<path d="M1.82538 7.80121L0.171357 9.45847C-0.0156558 9.64585 -0.054033 9.93592 0.0784597 10.1657C0.207754 10.3925 0.478527 10.508 0.736202 10.4388C1.63015 10.1987 2.41673 10.0972 2.94639 10.2333C3.69993 8.89099 4.50965 7.65534 5.3672 6.5329C4.87119 6.2143 3.23209 6.39176 1.82538 7.80121Z" fill="#DBBB95"/>
<path d="M9.89842 19.9371C10.1237 20.0513 10.3964 20.0072 10.5747 19.8283L12.2289 18.1711C13.5095 16.8877 13.7349 15.2318 13.4444 14.7067C12.195 15.6502 10.9293 16.4468 9.74841 17.1138C9.82989 17.5748 9.77567 18.022 9.58303 19.3282C9.54541 19.581 9.67577 19.8256 9.89842 19.9371Z" fill="#DBBB95"/>
<path d="M11.6102 5.87769C10.9262 6.56311 10.9262 7.67807 11.6102 8.36349C12.2943 9.04892 13.4072 9.04892 14.0913 8.36349C14.7754 7.67807 14.7754 6.56311 14.0913 5.87769C13.4072 5.19226 12.2943 5.19226 11.6102 5.87769Z" fill="#DBBB95"/>
<path d="M19.9266 0.571589C19.9056 0.281825 19.6753 0.0527904 19.387 0.031123C17.9508 -0.0772144 16.5201 0.0997875 15.1179 0.529475C15.2234 1.49475 15.7217 2.53936 16.5724 3.39172C17.4333 4.25415 18.5042 4.75326 19.4848 4.84664C19.8625 3.5205 20.0416 2.10021 19.9266 0.571589Z" fill="#DBBB95"/>
<path fill-rule="evenodd" clip-rule="evenodd" d="M13.9874 0.937347C14.1781 2.07596 14.7723 3.24539 15.7455 4.22043C16.7344 5.21133 17.938 5.8078 19.1021 5.98404C17.4191 10.2869 13.4614 13.521 10.062 15.5737L8.69884 14.2079C9.06479 13.3057 9.16332 12.2093 8.46812 11.5126C7.77383 10.8171 6.67916 10.914 5.77745 11.2808L4.4577 9.9585C7.1141 5.53162 10.4758 2.38037 13.9874 0.937347ZM10.7832 9.1922C11.9233 10.3343 13.7783 10.3343 14.9182 9.1922C16.0583 8.04993 16.0583 6.19125 14.9182 5.04898C13.7783 3.90686 11.9233 3.90686 10.7832 5.04898C9.64319 6.1911 9.64319 8.04993 10.7832 9.1922Z" fill="#DBBB95"/>
</svg>
