<svg width="20" height="17" viewBox="0 0 20 17" fill="none" xmlns="http://www.w3.org/2000/svg">
<path d="M12.5 3.825C12.04 3.825 11.6667 3.4442 11.6667 2.975V1.7H8.33335V2.975C8.33335 3.4442 7.96002 3.825 7.50002 3.825C7.04002 3.825 6.66669 3.4442 6.66669 2.975V1.7C6.66669 0.76245 7.41419 0 8.33335 0H11.6667C12.5859 0 13.3334 0.76245 13.3334 1.7V2.975C13.3334 3.4442 12.96 3.825 12.5 3.825Z" fill="#EFEEEE"/>
<path d="M10.5917 11.373C10.4417 11.4325 10.225 11.475 10 11.475C9.775 11.475 9.55833 11.4325 9.35833 11.356L0 8.177V14.6625C0 15.9545 1.025 17 2.29167 17H17.7083C18.975 17 20 15.9545 20 14.6625V8.177L10.5917 11.373Z" fill="#EFEEEE"/>
<path d="M20 4.88749V6.83399L10.2 10.166C10.1333 10.1915 10.0667 10.2 10 10.2C9.93333 10.2 9.86667 10.1915 9.8 10.166L0 6.83399V4.88749C0 3.59549 1.025 2.54999 2.29167 2.54999H17.7083C18.975 2.54999 20 3.59549 20 4.88749Z" fill="#EFEEEE"/>
</svg>
