<svg width="64" height="64" viewBox="0 0 64 64" fill="none" xmlns="http://www.w3.org/2000/svg">
<path d="M57.9685 6.03143C49.9265 -2.01056 36.8418 -2.01044 28.7998 6.03156C23.3067 11.5247 21.3987 19.6198 23.7772 26.9642L0.549376 50.192C0.19775 50.5436 0 51.0196 0 51.5178V62.125C0 63.1614 0.838627 64 1.875 64H12.4823C12.9803 64 13.4564 63.8023 13.8079 63.4506L16.4593 60.7974C16.8639 60.3928 17.0617 59.8251 16.9958 59.2556L16.6662 56.4065L20.6139 56.0348C21.5112 55.9505 22.2198 55.2419 22.304 54.3446L22.6758 50.3969L25.5249 50.7283C26.0541 50.7996 26.5869 50.622 26.9879 50.2669C27.3871 49.9099 27.6159 49.4008 27.6159 48.8661V45.375H31.0437C31.5417 45.375 32.0178 45.1773 32.3693 44.8256L37.1777 40.0809C44.5202 42.4613 52.4754 40.697 57.9685 35.2002C66.0105 27.1583 66.0105 14.0734 57.9685 6.03143ZM52.6641 19.2902C50.4705 21.4838 46.9036 21.4838 44.71 19.2902C42.5163 17.0965 42.5163 13.5297 44.71 11.3361C46.9036 9.14243 50.4705 9.14243 52.6641 11.3361C54.8577 13.5297 54.8576 17.0965 52.6641 19.2902Z" fill="#F3F3F3"/>
</svg>
