<svg width="60" height="60" viewBox="0 0 60 60" fill="none" xmlns="http://www.w3.org/2000/svg">
<g clip-path="url(#clip0)">
<path d="M37.0532 10.0776L4.04036 43.0929C3.87427 43.2594 3.75435 43.4698 3.69724 43.6958L0.0380834 58.3829C-0.0713725 58.825 0.0585469 59.2952 0.381204 59.6179C0.625338 59.862 0.957989 59.9971 1.29825 59.9971C1.40247 59.9971 1.50908 59.9843 1.61282 59.9581L16.2999 56.2985C16.5288 56.2414 16.7368 56.1219 16.9029 55.9558L49.9186 22.943L37.0532 10.0776Z" fill="#F3F3F3"/>
<path d="M58.0973 5.5761L54.4224 1.90124C51.9663 -0.554857 47.6857 -0.552478 45.2324 1.90124L40.7309 6.40273L53.5958 19.2676L58.0973 14.7661C59.3241 13.5397 59.9999 11.9074 59.9999 10.1713C59.9999 8.43528 59.3241 6.80296 58.0973 5.5761Z" fill="#F3F3F3"/>
</g>
<defs>
<clipPath id="clip0">
<rect width="60" height="60" fill="white"/>
</clipPath>
</defs>
</svg>
