<svg width="41" height="41" viewBox="0 0 41 41" fill="none" xmlns="http://www.w3.org/2000/svg">
<path d="M20.3471 0.977051C9.31866 0.977051 0.347107 9.94861 0.347107 20.9771C0.347107 32.0055 9.31866 40.9771 20.3471 40.9771C31.3755 40.9771 40.3471 32.0055 40.3471 20.9771C40.3471 9.94861 31.3755 0.977051 20.3471 0.977051ZM30.4838 16.7388L19.6504 27.5719C19.3254 27.8969 18.8987 28.0605 18.4721 28.0605C18.0455 28.0605 17.6188 27.8969 17.2938 27.5719L11.8773 22.1553C11.2254 21.5038 11.2254 20.4503 11.8773 19.7988C12.5288 19.1469 13.582 19.1469 14.2338 19.7988L18.4721 24.037L28.1273 14.3822C28.7788 13.7303 29.832 13.7303 30.4838 14.3822C31.1354 15.0338 31.1354 16.0869 30.4838 16.7388Z" fill="#39B31E"/>
</svg>
