<svg width="20" height="20" viewBox="0 0 20 20" fill="none" xmlns="http://www.w3.org/2000/svg">
<path d="M15.1284 17.8228C15.1265 17.7109 15.0583 17.6065 14.9563 17.5604C14.511 17.3586 12.9369 16.3286 12.9369 15.3229V14.192L14.4164 12.7125C14.4709 12.658 14.5024 12.5817 14.5024 12.5047C14.5024 11.0014 13.7395 9.39461 12.2349 7.72887C11.7843 7.23 11.3363 6.80438 10.9608 6.47305L14.1474 7.1559C14.2872 7.1859 14.4283 7.1107 14.4814 6.97789L15.1076 5.41234C15.1512 5.30332 15.1257 5.17879 15.0427 5.09574L11.5985 1.65156C11.5435 1.59648 11.4688 1.56559 11.391 1.56559H10.7452V0.293555C10.7452 0.131445 10.6137 0 10.4516 0H9.82541C9.73627 0 9.65189 0.0405469 9.59623 0.110156L8.40603 1.59793C7.29611 1.88406 6.43252 2.53184 5.83818 3.52434C5.03431 4.86676 4.72951 6.80301 4.93216 9.2793C5.08146 11.1035 5.4556 12.5211 5.47146 12.5805C5.48685 12.6385 5.52111 12.692 5.56716 12.7304L7.34021 14.2079V15.3229C7.34021 15.6316 7.02162 16.1178 6.46611 16.6568C5.94361 17.1637 5.43513 17.5086 5.3208 17.5604C5.21724 17.6071 5.14841 17.7142 5.14841 17.8278V19.7064C5.14841 19.8686 5.27986 20 5.44197 20H14.8353C14.9974 20 15.1289 19.8686 15.1289 19.7064V17.8278C15.1287 17.8261 15.1285 17.8245 15.1284 17.8228ZM6.56568 12.7984H10.9474C11.1095 12.7984 11.2409 12.667 11.2409 12.5049C11.2409 12.3428 11.1095 12.2113 10.9474 12.2113H5.98525C5.73623 11.1476 4.76673 6.45492 6.3422 3.82523C6.86959 2.94488 7.64275 2.37953 8.64017 2.1448C8.70408 2.12977 8.76115 2.09371 8.80217 2.04242L9.96642 0.58707H10.158V1.8591C10.158 2.02121 10.2895 2.15266 10.4516 2.15266H11.2694L14.4907 5.37402L14.0283 6.53L9.88689 5.64258C9.75248 5.61379 9.61236 5.68535 9.55681 5.81105C9.50131 5.9368 9.54291 6.08855 9.65474 6.16844C9.69607 6.19793 13.6648 9.06848 13.9041 12.2114H12.3433C12.1811 12.2114 12.0497 12.3428 12.0497 12.5049C12.0497 12.667 12.1811 12.7985 12.3433 12.7985H13.5002L12.5218 13.777H7.73986L6.56568 12.7984ZM12.3498 14.364V15.0293H7.92713V14.364H12.3498ZM6.87482 17.0781C7.4383 16.5314 7.77763 16.0413 7.88767 15.6164H12.3772C12.521 16.3936 13.2059 17.077 13.8137 17.5343H6.36365C6.53361 17.3941 6.70959 17.2384 6.87482 17.0781ZM14.5416 19.4129H5.73537V18.1213H14.5416V19.4129Z" fill="#DBBB95"/>
<path d="M10.7647 3.73782C10.9377 3.73782 11.0778 3.59763 11.0778 3.4247C11.0778 3.25176 10.9377 3.11157 10.7647 3.11157C10.5918 3.11157 10.4516 3.25176 10.4516 3.4247C10.4516 3.59763 10.5918 3.73782 10.7647 3.73782Z" fill="#DBBB95"/>
</svg>
