<svg width="23" height="23" viewBox="0 0 23 23" fill="none" xmlns="http://www.w3.org/2000/svg">
<path d="M18.8662 20.1369H4.13375C3.79707 20.1359 3.47446 20.0017 3.23639 19.7637C2.99832 19.5256 2.86414 19.203 2.86316 18.8663V4.13388C2.86414 3.7972 2.99832 3.47459 3.23639 3.23652C3.47446 2.99845 3.79707 2.86427 4.13375 2.86328H18.8662C19.2029 2.86427 19.5255 2.99845 19.7635 3.23652C20.0016 3.47459 20.1358 3.7972 20.1368 4.13388V18.8663C20.1358 19.203 20.0016 19.5256 19.7635 19.7637C19.5255 20.0017 19.2029 20.1359 18.8662 20.1369ZM4.13375 3.4849C3.96176 3.48531 3.79693 3.55382 3.67531 3.67544C3.5537 3.79705 3.48519 3.96188 3.48478 4.13388V18.8663C3.48519 19.0383 3.5537 19.2031 3.67531 19.3247C3.79693 19.4464 3.96176 19.5149 4.13375 19.5153H18.8662C19.0382 19.5149 19.203 19.4464 19.3246 19.3247C19.4462 19.2031 19.5147 19.0383 19.5152 18.8663V4.13388C19.5147 3.96188 19.4462 3.79705 19.3246 3.67544C19.203 3.55382 19.0382 3.48531 18.8662 3.4849H4.13375Z" fill="#DBBB95"/>
<path d="M16.6237 3.48477C16.5412 3.48477 16.4622 3.45203 16.4039 3.39374C16.3456 3.33545 16.3129 3.25639 16.3129 3.17396V0.932393C16.3129 0.849961 16.3456 0.770905 16.4039 0.712616C16.4622 0.654328 16.5412 0.621582 16.6237 0.621582C16.7061 0.621582 16.7852 0.654328 16.8435 0.712616C16.9017 0.770905 16.9345 0.849961 16.9345 0.932393V3.17396C16.9345 3.25639 16.9017 3.33545 16.8435 3.39374C16.7852 3.45203 16.7061 3.48477 16.6237 3.48477Z" fill="#DBBB95"/>
<path d="M14.0617 3.48477C13.9792 3.48477 13.9002 3.45203 13.8419 3.39374C13.7836 3.33545 13.7509 3.25639 13.7509 3.17396V0.932393C13.7509 0.849961 13.7836 0.770905 13.8419 0.712616C13.9002 0.654328 13.9792 0.621582 14.0617 0.621582C14.1441 0.621582 14.2232 0.654328 14.2814 0.712616C14.3397 0.770905 14.3725 0.849961 14.3725 0.932393V3.17396C14.3725 3.25639 14.3397 3.33545 14.2814 3.39374C14.2232 3.45203 14.1441 3.48477 14.0617 3.48477Z" fill="#DBBB95"/>
<path d="M11.5 3.48477C11.4176 3.48477 11.3385 3.45203 11.2802 3.39374C11.222 3.33545 11.1892 3.25639 11.1892 3.17396V0.932393C11.1892 0.849961 11.222 0.770905 11.2802 0.712616C11.3385 0.654328 11.4176 0.621582 11.5 0.621582C11.5825 0.621582 11.6615 0.654328 11.7198 0.712616C11.7781 0.770905 11.8108 0.849961 11.8108 0.932393V3.17396C11.8108 3.25639 11.7781 3.33545 11.7198 3.39374C11.6615 3.45203 11.5825 3.48477 11.5 3.48477Z" fill="#DBBB95"/>
<path d="M8.93825 3.48477C8.85582 3.48477 8.77676 3.45203 8.71848 3.39374C8.66019 3.33545 8.62744 3.25639 8.62744 3.17396V0.932393C8.62744 0.849961 8.66019 0.770905 8.71848 0.712616C8.77676 0.654328 8.85582 0.621582 8.93825 0.621582C9.02068 0.621582 9.09974 0.654328 9.15803 0.712616C9.21632 0.770905 9.24906 0.849961 9.24906 0.932393V3.17396C9.24906 3.25639 9.21632 3.33545 9.15803 3.39374C9.09974 3.45203 9.02068 3.48477 8.93825 3.48477Z" fill="#DBBB95"/>
<path d="M6.37624 3.48477C6.29381 3.48477 6.21475 3.45203 6.15646 3.39374C6.09818 3.33545 6.06543 3.25639 6.06543 3.17396V0.932393C6.06543 0.849961 6.09818 0.770905 6.15646 0.712616C6.21475 0.654328 6.29381 0.621582 6.37624 0.621582C6.45867 0.621582 6.53773 0.654328 6.59602 0.712616C6.65431 0.770905 6.68705 0.849961 6.68705 0.932393V3.17396C6.68705 3.25639 6.65431 3.33545 6.59602 3.39374C6.53773 3.45203 6.45867 3.48477 6.37624 3.48477Z" fill="#DBBB95"/>
<path d="M16.6237 22.3783C16.5412 22.3783 16.4622 22.3456 16.4039 22.2873C16.3456 22.229 16.3129 22.1499 16.3129 22.0675V19.8259C16.3129 19.7435 16.3456 19.6645 16.4039 19.6062C16.4622 19.5479 16.5412 19.5151 16.6237 19.5151C16.7061 19.5151 16.7852 19.5479 16.8435 19.6062C16.9017 19.6645 16.9345 19.7435 16.9345 19.8259V22.0675C16.9345 22.1499 16.9017 22.229 16.8435 22.2873C16.7852 22.3456 16.7061 22.3783 16.6237 22.3783Z" fill="#DBBB95"/>
<path d="M14.0617 22.3783C13.9792 22.3783 13.9002 22.3456 13.8419 22.2873C13.7836 22.229 13.7509 22.1499 13.7509 22.0675V19.8259C13.7509 19.7435 13.7836 19.6645 13.8419 19.6062C13.9002 19.5479 13.9792 19.5151 14.0617 19.5151C14.1441 19.5151 14.2232 19.5479 14.2814 19.6062C14.3397 19.6645 14.3725 19.7435 14.3725 19.8259V22.0675C14.3725 22.1499 14.3397 22.229 14.2814 22.2873C14.2232 22.3456 14.1441 22.3783 14.0617 22.3783Z" fill="#DBBB95"/>
<path d="M11.5 22.3783C11.4176 22.3783 11.3385 22.3456 11.2802 22.2873C11.222 22.229 11.1892 22.1499 11.1892 22.0675V19.8259C11.1892 19.7435 11.222 19.6645 11.2802 19.6062C11.3385 19.5479 11.4176 19.5151 11.5 19.5151C11.5825 19.5151 11.6615 19.5479 11.7198 19.6062C11.7781 19.6645 11.8108 19.7435 11.8108 19.8259V22.0675C11.8108 22.1499 11.7781 22.229 11.7198 22.2873C11.6615 22.3456 11.5825 22.3783 11.5 22.3783Z" fill="#DBBB95"/>
<path d="M8.93825 22.3783C8.85582 22.3783 8.77676 22.3456 8.71848 22.2873C8.66019 22.229 8.62744 22.1499 8.62744 22.0675V19.8259C8.62744 19.7435 8.66019 19.6645 8.71848 19.6062C8.77676 19.5479 8.85582 19.5151 8.93825 19.5151C9.02068 19.5151 9.09974 19.5479 9.15803 19.6062C9.21632 19.6645 9.24906 19.7435 9.24906 19.8259V22.0675C9.24906 22.1499 9.21632 22.229 9.15803 22.2873C9.09974 22.3456 9.02068 22.3783 8.93825 22.3783Z" fill="#DBBB95"/>
<path d="M6.37624 22.3783C6.29381 22.3783 6.21475 22.3456 6.15646 22.2873C6.09818 22.229 6.06543 22.1499 6.06543 22.0675V19.8259C6.06543 19.7435 6.09818 19.6645 6.15646 19.6062C6.21475 19.5479 6.29381 19.5151 6.37624 19.5151C6.45867 19.5151 6.53773 19.5479 6.59602 19.6062C6.65431 19.6645 6.68705 19.7435 6.68705 19.8259V22.0675C6.68705 22.1499 6.65431 22.229 6.59602 22.2873C6.53773 22.3456 6.45867 22.3783 6.37624 22.3783Z" fill="#DBBB95"/>
<path d="M22.0675 16.9346H19.8259C19.7435 16.9346 19.6645 16.9019 19.6062 16.8436C19.5479 16.7853 19.5151 16.7062 19.5151 16.6238C19.5151 16.5414 19.5479 16.4623 19.6062 16.404C19.6645 16.3457 19.7435 16.313 19.8259 16.313H22.0675C22.1499 16.313 22.229 16.3457 22.2873 16.404C22.3456 16.4623 22.3783 16.5414 22.3783 16.6238C22.3783 16.7062 22.3456 16.7853 22.2873 16.8436C22.229 16.9019 22.1499 16.9346 22.0675 16.9346Z" fill="#DBBB95"/>
<path d="M22.0675 14.3726H19.8259C19.7435 14.3726 19.6645 14.3399 19.6062 14.2816C19.5479 14.2233 19.5151 14.1442 19.5151 14.0618C19.5151 13.9794 19.5479 13.9003 19.6062 13.842C19.6645 13.7837 19.7435 13.751 19.8259 13.751H22.0675C22.1499 13.751 22.229 13.7837 22.2873 13.842C22.3456 13.9003 22.3783 13.9794 22.3783 14.0618C22.3783 14.1442 22.3456 14.2233 22.2873 14.2816C22.229 14.3399 22.1499 14.3726 22.0675 14.3726Z" fill="#DBBB95"/>
<path d="M22.0675 11.8108H19.8259C19.7435 11.8108 19.6645 11.7781 19.6062 11.7198C19.5479 11.6615 19.5151 11.5825 19.5151 11.5C19.5151 11.4176 19.5479 11.3385 19.6062 11.2802C19.6645 11.222 19.7435 11.1892 19.8259 11.1892H22.0675C22.1499 11.1892 22.229 11.222 22.2873 11.2802C22.3456 11.3385 22.3783 11.4176 22.3783 11.5C22.3783 11.5825 22.3456 11.6615 22.2873 11.7198C22.229 11.7781 22.1499 11.8108 22.0675 11.8108Z" fill="#DBBB95"/>
<path d="M22.0675 9.24906H19.8259C19.7435 9.24906 19.6645 9.21632 19.6062 9.15803C19.5479 9.09974 19.5151 9.02068 19.5151 8.93825C19.5151 8.85582 19.5479 8.77676 19.6062 8.71848C19.6645 8.66019 19.7435 8.62744 19.8259 8.62744H22.0675C22.1499 8.62744 22.229 8.66019 22.2873 8.71848C22.3456 8.77676 22.3783 8.85582 22.3783 8.93825C22.3783 9.02068 22.3456 9.09974 22.2873 9.15803C22.229 9.21632 22.1499 9.24906 22.0675 9.24906Z" fill="#DBBB95"/>
<path d="M22.0675 6.68705H19.8259C19.7435 6.68705 19.6645 6.65431 19.6062 6.59602C19.5479 6.53773 19.5151 6.45867 19.5151 6.37624C19.5151 6.29381 19.5479 6.21475 19.6062 6.15646C19.6645 6.09818 19.7435 6.06543 19.8259 6.06543H22.0675C22.1499 6.06543 22.229 6.09818 22.2873 6.15646C22.3456 6.21475 22.3783 6.29381 22.3783 6.37624C22.3783 6.45867 22.3456 6.53773 22.2873 6.59602C22.229 6.65431 22.1499 6.68705 22.0675 6.68705Z" fill="#DBBB95"/>
<path d="M3.17396 16.9346H0.932393C0.849961 16.9346 0.770905 16.9019 0.712616 16.8436C0.654328 16.7853 0.621582 16.7062 0.621582 16.6238C0.621582 16.5414 0.654328 16.4623 0.712616 16.404C0.770905 16.3457 0.849961 16.313 0.932393 16.313H3.17396C3.25639 16.313 3.33545 16.3457 3.39374 16.404C3.45203 16.4623 3.48477 16.5414 3.48477 16.6238C3.48477 16.7062 3.45203 16.7853 3.39374 16.8436C3.33545 16.9019 3.25639 16.9346 3.17396 16.9346Z" fill="#DBBB95"/>
<path d="M3.17396 14.3726H0.932393C0.849961 14.3726 0.770905 14.3399 0.712616 14.2816C0.654328 14.2233 0.621582 14.1442 0.621582 14.0618C0.621582 13.9794 0.654328 13.9003 0.712616 13.842C0.770905 13.7837 0.849961 13.751 0.932393 13.751H3.17396C3.25639 13.751 3.33545 13.7837 3.39374 13.842C3.45203 13.9003 3.48477 13.9794 3.48477 14.0618C3.48477 14.1442 3.45203 14.2233 3.39374 14.2816C3.33545 14.3399 3.25639 14.3726 3.17396 14.3726Z" fill="#DBBB95"/>
<path d="M3.17396 11.8108H0.932393C0.849961 11.8108 0.770905 11.7781 0.712616 11.7198C0.654328 11.6615 0.621582 11.5825 0.621582 11.5C0.621582 11.4176 0.654328 11.3385 0.712616 11.2802C0.770905 11.222 0.849961 11.1892 0.932393 11.1892H3.17396C3.25639 11.1892 3.33545 11.222 3.39374 11.2802C3.45203 11.3385 3.48477 11.4176 3.48477 11.5C3.48477 11.5825 3.45203 11.6615 3.39374 11.7198C3.33545 11.7781 3.25639 11.8108 3.17396 11.8108Z" fill="#DBBB95"/>
<path d="M3.17396 9.24906H0.932393C0.849961 9.24906 0.770905 9.21632 0.712616 9.15803C0.654328 9.09974 0.621582 9.02068 0.621582 8.93825C0.621582 8.85582 0.654328 8.77676 0.712616 8.71848C0.770905 8.66019 0.849961 8.62744 0.932393 8.62744H3.17396C3.25639 8.62744 3.33545 8.66019 3.39374 8.71848C3.45203 8.77676 3.48477 8.85582 3.48477 8.93825C3.48477 9.02068 3.45203 9.09974 3.39374 9.15803C3.33545 9.21632 3.25639 9.24906 3.17396 9.24906Z" fill="#DBBB95"/>
<path d="M3.17396 6.68705H0.932393C0.849961 6.68705 0.770905 6.65431 0.712616 6.59602C0.654328 6.53773 0.621582 6.45867 0.621582 6.37624C0.621582 6.29381 0.654328 6.21475 0.712616 6.15646C0.770905 6.09818 0.849961 6.06543 0.932393 6.06543H3.17396C3.25639 6.06543 3.33545 6.09818 3.39374 6.15646C3.45203 6.21475 3.48477 6.29381 3.48477 6.37624C3.48477 6.45867 3.45203 6.53773 3.39374 6.59602C3.33545 6.65431 3.25639 6.68705 3.17396 6.68705Z" fill="#DBBB95"/>
<path d="M6.2162 8.70268H3.17336C3.09093 8.70268 3.01187 8.66994 2.95358 8.61165C2.89529 8.55336 2.86255 8.47431 2.86255 8.39187C2.86255 8.30944 2.89529 8.23038 2.95358 8.1721C3.01187 8.11381 3.09093 8.08106 3.17336 8.08106H5.90539V6.31255C5.90539 6.23012 5.93813 6.15106 5.99642 6.09277C6.05471 6.03448 6.13377 6.00174 6.2162 6.00174H7.61485V3.17336C7.61485 3.09093 7.64759 3.01187 7.70588 2.95358C7.76417 2.89529 7.84323 2.86255 7.92566 2.86255C8.00809 2.86255 8.08715 2.89529 8.14543 2.95358C8.20372 3.01187 8.23647 3.09093 8.23647 3.17336V6.31255C8.23647 6.39498 8.20372 6.47404 8.14543 6.53233C8.08715 6.59061 8.00809 6.62336 7.92566 6.62336H6.52701V8.39187C6.52701 8.47431 6.49426 8.55336 6.43597 8.61165C6.37769 8.66994 6.29863 8.70268 6.2162 8.70268Z" fill="#DBBB95"/>
<path d="M10.5614 8.50066C10.4999 8.50064 10.4398 8.48241 10.3887 8.44826C10.3376 8.4141 10.2978 8.36557 10.2743 8.30878C10.2507 8.252 10.2446 8.18951 10.2566 8.12923C10.2686 8.06895 10.2982 8.01357 10.3416 7.9701L13.3649 4.94685V3.17336C13.3649 3.09093 13.3976 3.01187 13.4559 2.95358C13.5142 2.89529 13.5932 2.86255 13.6757 2.86255C13.7581 2.86255 13.8372 2.89529 13.8955 2.95358C13.9537 3.01187 13.9865 3.09093 13.9865 3.17336V5.07552C13.9865 5.15795 13.9537 5.23699 13.8954 5.29527L10.7811 8.40959C10.7228 8.46788 10.6438 8.50064 10.5614 8.50066Z" fill="#DBBB95"/>
<path d="M9.84239 10.2878C9.57554 10.2878 9.31468 10.2087 9.0928 10.0604C8.87092 9.91217 8.69799 9.70145 8.59587 9.45491C8.49375 9.20837 8.46703 8.93709 8.51909 8.67536C8.57115 8.41364 8.69965 8.17323 8.88835 7.98454C9.07704 7.79584 9.31745 7.66734 9.57917 7.61528C9.8409 7.56322 10.1122 7.58994 10.3587 7.69206C10.6053 7.79418 10.816 7.96711 10.9642 8.18899C11.1125 8.41087 11.1916 8.67173 11.1916 8.93859C11.1912 9.2963 11.0489 9.63924 10.796 9.89218C10.543 10.1451 10.2001 10.2874 9.84239 10.2878ZM9.84239 8.21098C9.69849 8.21098 9.55781 8.25365 9.43816 8.3336C9.3185 8.41355 9.22524 8.52719 9.17017 8.66014C9.1151 8.7931 9.10069 8.93939 9.12877 9.08053C9.15684 9.22168 9.22614 9.35132 9.3279 9.45308C9.42966 9.55484 9.5593 9.62414 9.70044 9.65221C9.84159 9.68029 9.98789 9.66588 10.1208 9.61081C10.2538 9.55574 10.3674 9.46248 10.4474 9.34282C10.5273 9.22317 10.57 9.08249 10.57 8.93859C10.5699 8.74561 10.4932 8.56055 10.3568 8.42407C10.2204 8.28759 10.0354 8.21083 9.84239 8.21067V8.21098Z" fill="#DBBB95"/>
<path d="M8.53795 12.8987H7.62417C7.54173 12.8987 7.46268 12.866 7.40439 12.8077C7.3461 12.7494 7.31335 12.6703 7.31335 12.5879C7.31335 12.5055 7.3461 12.4264 7.40439 12.3681C7.46268 12.3098 7.54173 12.2771 7.62417 12.2771H8.53795C8.62038 12.2771 8.69944 12.3098 8.75773 12.3681C8.81601 12.4264 8.84876 12.5055 8.84876 12.5879C8.84876 12.6703 8.81601 12.7494 8.75773 12.8077C8.69944 12.866 8.62038 12.8987 8.53795 12.8987Z" fill="#DBBB95"/>
<path d="M5.4485 12.8987H3.17336C3.09093 12.8987 3.01187 12.866 2.95358 12.8077C2.89529 12.7494 2.86255 12.6703 2.86255 12.5879C2.86255 12.5055 2.89529 12.4264 2.95358 12.3681C3.01187 12.3098 3.09093 12.2771 3.17336 12.2771H5.4485C5.53093 12.2771 5.60998 12.3098 5.66827 12.3681C5.72656 12.4264 5.75931 12.5055 5.75931 12.5879C5.75931 12.6703 5.72656 12.7494 5.66827 12.8077C5.60998 12.866 5.53093 12.8987 5.4485 12.8987Z" fill="#DBBB95"/>
<path d="M12.277 12.8986H10.7136C10.6312 12.8986 10.5522 12.8659 10.4939 12.8076C10.4356 12.7493 10.4028 12.6703 10.4028 12.5878C10.4028 12.5054 10.4356 12.4263 10.4939 12.368C10.5522 12.3098 10.6312 12.277 10.7136 12.277H12.1483L13.5203 10.9051V9.1689C13.5203 9.08648 13.553 9.00743 13.6113 8.94916L15.9424 6.61808C16.0007 6.55978 16.0797 6.52703 16.1622 6.52701H17.25V3.17336C17.25 3.09093 17.2827 3.01187 17.341 2.95358C17.3993 2.89529 17.4784 2.86255 17.5608 2.86255C17.6432 2.86255 17.7223 2.89529 17.7806 2.95358C17.8389 3.01187 17.8716 3.09093 17.8716 3.17336V6.83782C17.8716 6.92025 17.8389 6.99931 17.7806 7.0576C17.7223 7.11588 17.6432 7.14863 17.5608 7.14863H16.2908L14.1419 9.29758V11.0338C14.1419 11.1162 14.1091 11.1952 14.0508 11.2535L12.4968 12.8076C12.4385 12.8659 12.3594 12.8986 12.277 12.8986Z" fill="#DBBB95"/>
<path d="M17.5919 20.1374C17.5094 20.1374 17.4304 20.1046 17.3721 20.0464C17.3138 19.9881 17.2811 19.909 17.2811 19.8266V17.2409L16.2616 16.2243C16.2033 16.166 16.1705 16.087 16.1705 16.0045V14.0623C16.1705 13.9798 16.2033 13.9008 16.2616 13.8425C16.3199 13.7842 16.3989 13.7515 16.4813 13.7515C16.5638 13.7515 16.6428 13.7842 16.7011 13.8425C16.7594 13.9008 16.7922 13.9798 16.7922 14.0623V15.8746L17.8094 16.8925C17.8677 16.9508 17.9005 17.0298 17.9005 17.1123V19.8266C17.9005 19.9086 17.8681 19.9874 17.8102 20.0456C17.7524 20.1038 17.6739 20.1368 17.5919 20.1374Z" fill="#DBBB95"/>
<path d="M16.4814 14.3731C16.228 14.3731 15.9803 14.298 15.7696 14.1572C15.5589 14.0164 15.3947 13.8163 15.2977 13.5822C15.2008 13.3481 15.1754 13.0905 15.2248 12.842C15.2742 12.5935 15.3963 12.3652 15.5754 12.186C15.7546 12.0069 15.9829 11.8848 16.2314 11.8354C16.4799 11.786 16.7375 11.8113 16.9716 11.9083C17.2057 12.0053 17.4058 12.1695 17.5466 12.3802C17.6874 12.5909 17.7625 12.8386 17.7625 13.092C17.7621 13.4316 17.627 13.7572 17.3868 13.9974C17.1466 14.2376 16.821 14.3727 16.4814 14.3731ZM16.4814 12.4324C16.3509 12.4324 16.2234 12.4711 16.1149 12.5436C16.0065 12.616 15.9219 12.719 15.872 12.8396C15.8221 12.9601 15.809 13.0927 15.8345 13.2206C15.8599 13.3486 15.9228 13.4661 16.015 13.5583C16.1072 13.6506 16.2247 13.7134 16.3527 13.7388C16.4806 13.7643 16.6132 13.7512 16.7338 13.7013C16.8543 13.6514 16.9573 13.5668 17.0297 13.4584C17.1022 13.3499 17.1409 13.2224 17.1409 13.092C17.1407 12.9171 17.0712 12.7494 16.9475 12.6258C16.8239 12.5021 16.6562 12.4326 16.4814 12.4324Z" fill="#DBBB95"/>
<path d="M8.65606 16.543H6.7166C6.63418 16.543 6.55513 16.5102 6.49686 16.4519L5.47833 15.4334H3.17336C3.09093 15.4334 3.01187 15.4006 2.95358 15.3424C2.89529 15.2841 2.86255 15.205 2.86255 15.1226C2.86255 15.0401 2.89529 14.9611 2.95358 14.9028C3.01187 14.8445 3.09093 14.8118 3.17336 14.8118H5.60701C5.68943 14.8118 5.76848 14.8445 5.82675 14.9028L6.84528 15.9214H8.65606C8.73849 15.9214 8.81755 15.9541 8.87584 16.0124C8.93413 16.0707 8.96687 16.1497 8.96687 16.2322C8.96687 16.3146 8.93413 16.3937 8.87584 16.4519C8.81755 16.5102 8.73849 16.543 8.65606 16.543Z" fill="#DBBB95"/>
<path d="M9.62741 17.5141C9.37397 17.514 9.12626 17.4387 8.9156 17.2978C8.70494 17.1569 8.54078 16.9567 8.4439 16.7225C8.34701 16.4884 8.32174 16.2307 8.37128 15.9821C8.42082 15.7336 8.54295 15.5053 8.72222 15.3262C8.9015 15.147 9.12986 15.0251 9.37845 14.9757C9.62703 14.9264 9.88467 14.9518 10.1188 15.0489C10.3529 15.1459 10.553 15.3102 10.6937 15.521C10.8345 15.7318 10.9096 15.9795 10.9095 16.233C10.9091 16.5728 10.7739 16.8985 10.5335 17.1387C10.2931 17.379 9.96723 17.514 9.62741 17.5141ZM9.62741 15.5731C9.49693 15.5732 9.36942 15.612 9.26099 15.6846C9.15256 15.7572 9.06808 15.8603 9.01823 15.9809C8.96838 16.1015 8.9554 16.2341 8.98093 16.3621C9.00647 16.49 9.06936 16.6075 9.16167 16.6998C9.25397 16.792 9.37155 16.8548 9.49953 16.8802C9.62751 16.9056 9.76015 16.8925 9.88069 16.8425C10.0012 16.7926 10.1042 16.708 10.1767 16.5995C10.2492 16.491 10.2879 16.3634 10.2879 16.233C10.2877 16.0579 10.2181 15.8901 10.0942 15.7663C9.97037 15.6426 9.80247 15.5731 9.62741 15.5731Z" fill="#DBBB95"/>
</svg>
