<svg width="23" height="23" viewBox="0 0 23 23" fill="none" xmlns="http://www.w3.org/2000/svg">
<g clip-path="url(#clip0_39_951)">
<path d="M20.8025 14.7955C20.6347 14.6997 20.4527 14.6312 20.2634 14.5924L20.3047 8.39859C20.5576 8.34185 20.7952 8.23108 21.0012 8.07388C21.2073 7.91669 21.3769 7.71679 21.4984 7.4879C21.6199 7.259 21.6905 7.00653 21.7052 6.7478C21.72 6.48908 21.6787 6.23021 21.584 5.98897C21.4893 5.74773 21.3436 5.52981 21.1568 5.35018C20.97 5.17055 20.7466 5.03344 20.5018 4.94827C20.2571 4.8631 19.9968 4.83187 19.7389 4.85674C19.4809 4.88161 19.2314 4.96198 19.0074 5.09234C18.8441 5.18804 18.6973 5.30938 18.5726 5.45172L13.2053 2.36109C13.2661 2.1792 13.297 1.98866 13.2969 1.79688C13.2969 1.32031 13.1076 0.863272 12.7706 0.526293C12.4337 0.189313 11.9766 0 11.5001 0C11.0235 0 10.5665 0.189313 10.2295 0.526293C9.8925 0.863272 9.70318 1.32031 9.70318 1.79688C9.70308 1.98866 9.73403 2.1792 9.79482 2.36109L4.42935 5.44453C4.20856 5.19788 3.92393 5.01701 3.60685 4.92189C3.28977 4.82677 2.95258 4.82108 2.63248 4.90547C2.24299 5.00769 1.89913 5.23778 1.65605 5.55881C1.41298 5.87985 1.28479 6.27323 1.29204 6.67585C1.29929 7.07846 1.44157 7.46697 1.69605 7.77904C1.95053 8.09112 2.30245 8.30867 2.69537 8.3968V14.5996C2.30408 14.6891 1.95402 14.907 1.70101 15.2186C1.44799 15.5302 1.30659 15.9175 1.29936 16.3189C1.29212 16.7202 1.41946 17.1124 1.66108 17.4329C1.9027 17.7534 2.24467 17.9838 2.63248 18.0873C2.78485 18.1281 2.94193 18.1487 3.09967 18.1484C3.41518 18.1491 3.72521 18.066 3.9981 17.9077C4.16139 17.812 4.30821 17.6906 4.43295 17.5483L9.79842 20.6317C9.73563 20.8157 9.70346 21.0087 9.70318 21.2031C9.70318 21.6797 9.8925 22.1367 10.2295 22.4737C10.5665 22.8107 11.0235 23 11.5001 23C11.9766 23 12.4337 22.8107 12.7706 22.4737C13.1076 22.1367 13.2969 21.6797 13.2969 21.2031C13.297 21.0113 13.2661 20.8208 13.2053 20.6389L18.5708 17.5555C18.6955 17.6978 18.8423 17.8191 19.0056 17.9148C19.2785 18.0732 19.5885 18.1563 19.904 18.1556C20.2201 18.1562 20.5307 18.0735 20.8045 17.9158C21.0783 17.758 21.3057 17.5309 21.4637 17.2572C21.702 16.8445 21.7666 16.354 21.6432 15.8937C21.5199 15.4334 21.2188 15.0409 20.8061 14.8027L20.8025 14.7955ZM19.365 5.71406C19.5289 5.61968 19.7149 5.5701 19.904 5.57031C19.9986 5.57076 20.0927 5.58283 20.1844 5.60625C20.4253 5.6707 20.6365 5.81672 20.7819 6.01943C20.9273 6.22214 20.9979 6.46899 20.9816 6.71792C20.9654 6.96684 20.8634 7.20244 20.6929 7.38455C20.5224 7.56666 20.2941 7.68403 20.0468 7.71664C19.7994 7.74925 19.5485 7.6951 19.3366 7.5634C19.1248 7.4317 18.9651 7.23062 18.8849 6.99441C18.8047 6.7582 18.8089 6.50149 18.8968 6.26802C18.9846 6.03455 19.1507 5.83878 19.3668 5.71406H19.365ZM11.5001 0.71875C11.7133 0.71875 11.9217 0.781981 12.099 0.900447C12.2763 1.01891 12.4145 1.18729 12.4961 1.38429C12.5777 1.5813 12.5991 1.79807 12.5575 2.00721C12.5159 2.21634 12.4132 2.40845 12.2624 2.55922C12.1116 2.71 11.9195 2.81268 11.7104 2.85428C11.5013 2.89588 11.2845 2.87453 11.0875 2.79293C10.8905 2.71133 10.7221 2.57315 10.6036 2.39585C10.4852 2.21855 10.4219 2.01011 10.4219 1.79688C10.4219 1.51094 10.5355 1.23671 10.7377 1.03453C10.9399 0.832338 11.2141 0.71875 11.5001 0.71875ZM10.1542 2.98461C10.3228 3.17581 10.5302 3.32894 10.7626 3.43383C10.9949 3.53872 11.2469 3.59296 11.5019 3.59296C11.7568 3.59296 12.0088 3.53872 12.2412 3.43383C12.4735 3.32894 12.6809 3.17581 12.8495 2.98461L18.2096 6.06445C18.1952 6.10398 18.1826 6.14352 18.1719 6.18305C18.0774 6.52902 18.0899 6.8955 18.2078 7.23422L12.8459 10.3123C12.6773 10.1211 12.4699 9.96794 12.2376 9.86305C12.0052 9.75816 11.7532 9.70391 11.4983 9.70391C11.2433 9.70391 10.9913 9.75816 10.759 9.86305C10.5266 9.96794 10.3192 10.1211 10.1506 10.3123L4.79592 7.23422C4.9138 6.8955 4.92633 6.52902 4.83185 6.18305C4.82107 6.14352 4.80849 6.10398 4.79412 6.06445L10.1542 2.98461ZM11.5001 12.5781C11.2868 12.5781 11.0784 12.5149 10.9011 12.3964C10.7238 12.278 10.5856 12.1096 10.504 11.9126C10.4224 11.7156 10.401 11.4988 10.4426 11.2897C10.4842 11.0805 10.5869 10.8884 10.7377 10.7376C10.8885 10.5869 11.0806 10.4842 11.2897 10.4426C11.4989 10.401 11.7156 10.4223 11.9126 10.5039C12.1096 10.5855 12.278 10.7237 12.3965 10.901C12.515 11.0783 12.5782 11.2868 12.5782 11.5C12.5782 11.7859 12.4646 12.0602 12.2624 12.2623C12.0602 12.4645 11.786 12.5781 11.5001 12.5781ZM2.15631 6.10938C2.22695 5.98667 2.32107 5.87909 2.4333 5.79276C2.54552 5.70643 2.67365 5.64306 2.81037 5.60625C2.90198 5.58283 2.99612 5.57076 3.09068 5.57031C3.27987 5.5701 3.46578 5.61968 3.62974 5.71406C3.81434 5.8207 3.96318 5.97966 4.05745 6.17087C4.15172 6.36208 4.18719 6.57694 4.15937 6.7883C4.13155 6.99966 4.0417 7.19803 3.90117 7.35833C3.76064 7.51863 3.57574 7.63368 3.36984 7.68892C3.16394 7.74416 2.94628 7.73712 2.74438 7.66869C2.54248 7.60026 2.3654 7.4735 2.23552 7.30445C2.10564 7.1354 2.0288 6.93164 2.0147 6.71893C2.0006 6.50621 2.04988 6.29409 2.15631 6.10938ZM3.62795 17.2859C3.38014 17.4289 3.08568 17.4676 2.80936 17.3934C2.53303 17.3193 2.29748 17.1384 2.15451 16.8906C2.01154 16.6428 1.97287 16.3484 2.04701 16.072C2.12114 15.7957 2.30201 15.5602 2.54982 15.4172C2.71379 15.3228 2.8997 15.2732 3.08889 15.2734C3.18404 15.2738 3.27879 15.2858 3.37099 15.3094C3.57729 15.3645 3.76259 15.4796 3.90338 15.6401C4.04418 15.8006 4.13414 15.9993 4.16186 16.2111C4.18957 16.4228 4.1538 16.638 4.05906 16.8293C3.96433 17.0207 3.81491 17.1796 3.62974 17.2859H3.62795ZM4.78693 16.9266C4.80131 16.887 4.81389 16.8475 4.82467 16.808C4.88581 16.58 4.90145 16.3423 4.8707 16.1083C4.83994 15.8743 4.7634 15.6486 4.64543 15.4442C4.52745 15.2398 4.37037 15.0607 4.18315 14.917C3.99593 14.7733 3.78224 14.6679 3.55428 14.6068C3.50576 14.5942 3.45724 14.5834 3.40693 14.5745V8.41297C3.45545 8.41297 3.50576 8.3968 3.55428 8.38422C3.88964 8.29229 4.19112 8.10504 4.42217 7.84516L9.79482 10.9358C9.73403 11.1177 9.70308 11.3082 9.70318 11.5C9.7031 11.9142 9.84614 12.3158 10.1081 12.6367C10.37 12.9576 10.7348 13.1781 11.1407 13.2609V19.4422C10.7583 19.521 10.412 19.7222 10.1542 20.0154L4.78693 16.9266ZM11.5001 22.2812C11.2868 22.2812 11.0784 22.218 10.9011 22.0996C10.7238 21.9811 10.5856 21.8127 10.504 21.6157C10.4224 21.4187 10.401 21.2019 10.4426 20.9928C10.4842 20.7837 10.5869 20.5916 10.7377 20.4408C10.8885 20.29 11.0806 20.1873 11.2897 20.1457C11.4989 20.1041 11.7156 20.1255 11.9126 20.2071C12.1096 20.2887 12.278 20.4269 12.3965 20.6042C12.515 20.7814 12.5782 20.9899 12.5782 21.2031C12.5782 21.4891 12.4646 21.7633 12.2624 21.9655C12.0602 22.1677 11.786 22.2812 11.5001 22.2812ZM12.8459 20.0154C12.5881 19.7222 12.2418 19.521 11.8594 19.4422V13.2609C12.2653 13.1781 12.6301 12.9576 12.892 12.6367C13.154 12.3158 13.297 11.9142 13.2969 11.5C13.297 11.3082 13.2661 11.1177 13.2053 10.9358L18.5708 7.85234C18.8018 8.11222 19.1033 8.29948 19.4387 8.39141C19.4872 8.40398 19.5357 8.41117 19.5842 8.42016L19.5465 14.5996L19.4387 14.623C19.2107 14.6841 18.997 14.7895 18.8098 14.9331C18.6226 15.0768 18.4655 15.256 18.3475 15.4604C18.2295 15.6648 18.153 15.8905 18.1222 16.1244C18.0915 16.3584 18.1071 16.5962 18.1683 16.8241C18.179 16.8637 18.1916 16.9032 18.206 16.9427L12.8459 20.0154ZM20.8438 16.8906C20.755 17.044 20.6298 17.1731 20.4792 17.2666C20.3287 17.36 20.1574 17.4149 19.9805 17.4264C19.8037 17.4379 19.6267 17.4056 19.4654 17.3324C19.304 17.2592 19.1631 17.1473 19.0553 17.0067C18.9474 16.8661 18.8759 16.7011 18.847 16.5262C18.8181 16.3514 18.8328 16.1721 18.8897 16.0043C18.9466 15.8365 19.044 15.6853 19.1733 15.564C19.3026 15.4428 19.4598 15.3554 19.6309 15.3094C19.7213 15.286 19.8143 15.2739 19.9076 15.2734C20.0968 15.2732 20.2827 15.3228 20.4467 15.4172C20.5696 15.4878 20.6774 15.5819 20.7639 15.6942C20.8504 15.8065 20.9139 15.9347 20.9508 16.0716C20.9877 16.2084 20.9972 16.3512 20.9788 16.4917C20.9605 16.6323 20.9146 16.7678 20.8438 16.8906Z" fill="#DBBB95"/>
</g>
<defs>
<clipPath id="clip0_39_951">
<rect width="23" height="23" fill="white"/>
</clipPath>
</defs>
</svg>
