<svg width="20" height="20" viewBox="0 0 20 20" fill="none" xmlns="http://www.w3.org/2000/svg">
<g clip-path="url(#clip0_39_939)">
<path d="M19.8265 14.5515L17.7765 13.5265L16.4718 10.1328C16.4565 10.0926 16.433 10.0561 16.4029 10.0255C16.3728 9.99481 16.3367 9.9707 16.2968 9.95463L8.20151 6.7187C8.14491 6.69616 8.08296 6.69066 8.02327 6.70288C7.96359 6.71509 7.90877 6.74449 7.86558 6.78745L6.78589 7.86713C6.7435 7.91037 6.71458 7.96499 6.70266 8.02435C6.69073 8.08371 6.6963 8.14526 6.7187 8.20151L9.95464 16.2968C9.9707 16.3367 9.99481 16.3728 10.0255 16.4029C10.0561 16.433 10.0926 16.4565 10.1328 16.4718L13.5265 17.7765L14.5515 19.8265C14.5731 19.8717 14.6052 19.9111 14.6452 19.9412C14.6852 19.9714 14.7318 19.9916 14.7812 19.9999C14.7978 20.0015 14.8146 20.0015 14.8312 19.9999C14.9139 19.9996 14.9932 19.9664 15.0515 19.9078L19.9078 15.0515C19.9435 15.017 19.9705 14.9745 19.9865 14.9275C20.0026 14.8805 20.0072 14.8303 20 14.7812C19.9916 14.7318 19.9714 14.6852 19.9412 14.6452C19.9111 14.6052 19.8717 14.5731 19.8265 14.5515ZM7.37339 8.16088L7.54683 7.98901L11.5765 12.0187C11.3109 12.395 11.1962 12.8573 11.2551 13.3141C11.314 13.7709 11.5421 14.189 11.8944 14.4857C12.2467 14.7824 12.6974 14.9361 13.1576 14.9165C13.6178 14.8968 14.0538 14.7052 14.3795 14.3795C14.7052 14.0538 14.8968 13.6178 14.9165 13.1576C14.9361 12.6974 14.7824 12.2466 14.4857 11.8944C14.189 11.5421 13.7709 11.314 13.3141 11.2551C12.8573 11.1962 12.395 11.3109 12.0187 11.5765L7.98901 7.54682L8.16089 7.37338L15.9375 10.4843L17.164 13.6749L13.675 17.164L10.4843 15.9374L7.37339 8.16088ZM13.0781 11.864C13.3589 11.8644 13.631 11.9622 13.8478 12.1407C14.0647 12.3192 14.2129 12.5673 14.2673 12.8429C14.3217 13.1184 14.2789 13.4043 14.1462 13.6518C14.0135 13.8993 13.7991 14.0932 13.5394 14.2003C13.2798 14.3075 12.9911 14.3213 12.7224 14.2394C12.4538 14.1576 12.2218 13.9851 12.066 13.7514C11.9103 13.5177 11.8403 13.2372 11.8682 12.9577C11.896 12.6783 12.0199 12.4171 12.2187 12.2187C12.4468 11.9913 12.7559 11.8637 13.0781 11.864ZM14.9171 19.1593L14.1359 17.5968L17.5937 14.139L19.1562 14.9203L14.9171 19.1593Z" fill="#DBBB95"/>
<path d="M5.9763 16.7185C5.91654 16.662 5.83744 16.6305 5.75521 16.6305C5.67298 16.6305 5.59387 16.662 5.53411 16.7185L5.13724 17.1153C4.07815 15.6779 3.49388 13.9459 3.46587 12.1607C3.43786 10.3754 3.96751 8.62591 4.98099 7.15597C5.28463 7.32305 5.63424 7.38723 5.97742 7.3389C6.32061 7.29056 6.63889 7.13231 6.88457 6.88786C7.13025 6.64342 7.29009 6.32594 7.34015 5.983C7.39021 5.64006 7.32779 5.29014 7.16224 4.98566C8.63218 3.97218 10.3817 3.44253 12.1669 3.47054C13.9522 3.49855 15.6842 4.08281 17.1216 5.14191L16.7185 5.5341C16.6604 5.59269 16.6278 5.67189 16.6279 5.75441C16.6276 5.79554 16.6355 5.83631 16.6511 5.87438C16.6666 5.91245 16.6895 5.94708 16.7185 5.97628L18.0966 7.34347C18.1552 7.40168 18.2344 7.43434 18.3169 7.43434C18.3995 7.43434 18.4787 7.40168 18.5372 7.34347L19.9076 5.97316C19.9366 5.94414 19.9597 5.90967 19.9754 5.87173C19.9911 5.8338 19.9992 5.79313 19.9992 5.75207C19.9992 5.711 19.9911 5.67033 19.9754 5.6324C19.9597 5.59446 19.9366 5.56 19.9076 5.53097L18.5372 4.16066C18.4787 4.10246 18.3995 4.06979 18.3169 4.06979C18.2344 4.06979 18.1552 4.10246 18.0966 4.16066L17.5669 4.68722C16.2615 3.70487 14.7181 3.08769 13.0952 2.89904C11.4724 2.71039 9.82854 2.95709 8.33255 3.61378L10.1341 1.81691C10.3384 1.91452 10.5706 1.93661 10.7896 1.87927C11.0087 1.82193 11.2003 1.68887 11.3305 1.50369C11.4608 1.31851 11.5212 1.09318 11.5011 0.867681C11.481 0.642181 11.3817 0.431088 11.2208 0.27185C11.0598 0.112612 10.8477 0.015524 10.622 -0.00218938C10.3963 -0.0199028 10.1716 0.0429032 9.98783 0.175087C9.80403 0.30727 9.67299 0.500285 9.61797 0.719889C9.56294 0.939494 9.58749 1.17149 9.68724 1.37472L6.64662 4.42003C6.33789 4.21294 5.96684 4.11946 5.59684 4.15557C5.22685 4.19167 4.88087 4.35512 4.618 4.61798C4.35513 4.88085 4.19169 5.22683 4.15559 5.59683C4.11948 5.96682 4.21296 6.33787 4.42005 6.6466L1.37474 9.68722C1.17071 9.5878 0.938047 9.56394 0.718085 9.61987C0.498123 9.67579 0.305112 9.80789 0.17335 9.99269C0.0415868 10.1775 -0.020394 10.403 -0.00157916 10.6292C0.0172357 10.8554 0.115628 11.0676 0.276113 11.228C0.436598 11.3885 0.648783 11.4869 0.874962 11.5057C1.10114 11.5245 1.32667 11.4626 1.51146 11.3308C1.69626 11.199 1.82836 11.006 1.88428 10.7861C1.94021 10.5661 1.91635 10.3334 1.81693 10.1294L3.61849 8.33253C2.96113 9.82812 2.71366 11.4717 2.90148 13.0946C3.08931 14.7174 3.70565 16.261 4.68724 17.5669L4.15912 18.0966C4.10091 18.1551 4.06824 18.2344 4.06824 18.3169C4.06824 18.3995 4.10091 18.4787 4.15912 18.5372L5.52943 19.9075C5.58776 19.9662 5.66699 19.9994 5.74974 19.9997C5.79098 19.9998 5.83181 19.9916 5.86989 19.9758C5.90797 19.96 5.94254 19.9368 5.97162 19.9075L7.34349 18.5372C7.40169 18.4787 7.43436 18.3995 7.43436 18.3169C7.43436 18.2344 7.40169 18.1551 7.34349 18.0966L5.9763 16.7185ZM18.3201 4.82003L19.2482 5.74816L18.3201 6.67628L17.3919 5.74816L18.3201 4.82003ZM10.3122 0.72316C10.3587 0.676344 10.418 0.644378 10.4826 0.631317C10.5472 0.618255 10.6143 0.624688 10.6753 0.649798C10.7362 0.674908 10.7884 0.717563 10.8251 0.772353C10.8618 0.827142 10.8813 0.891595 10.8813 0.957535C10.8813 1.02347 10.8618 1.08793 10.8251 1.14272C10.7884 1.19751 10.7362 1.24016 10.6753 1.26527C10.6143 1.29038 10.5472 1.29681 10.4826 1.28375C10.418 1.27069 10.3587 1.23873 10.3122 1.19191C10.2814 1.16114 10.257 1.12461 10.2403 1.08439C10.2237 1.04418 10.2151 1.00107 10.2151 0.957535C10.2151 0.914 10.2237 0.870891 10.2403 0.830675C10.257 0.790459 10.2814 0.753924 10.3122 0.72316ZM5.06224 5.06222C5.15298 4.97104 5.26085 4.89869 5.37963 4.84932C5.49842 4.79995 5.62579 4.77454 5.75443 4.77454C5.88307 4.77454 6.01044 4.79995 6.12922 4.84932C6.24801 4.89869 6.35587 4.97104 6.44661 5.06222C6.58378 5.19917 6.67725 5.37373 6.71518 5.56382C6.7531 5.7539 6.7338 5.95096 6.65969 6.13007C6.58559 6.30917 6.46002 6.46227 6.29888 6.56999C6.13773 6.67771 5.94826 6.73521 5.75443 6.73521C5.5606 6.73521 5.37112 6.67771 5.20998 6.56999C5.04884 6.46227 4.92327 6.30917 4.84916 6.13007C4.77506 5.95096 4.75575 5.7539 4.79368 5.56382C4.83161 5.37373 4.92507 5.19917 5.06224 5.06222ZM1.19349 10.781C1.12969 10.8342 1.0483 10.8616 0.965316 10.8578C0.88233 10.8541 0.803745 10.8194 0.745005 10.7607C0.686265 10.702 0.651615 10.6234 0.647866 10.5404C0.644116 10.4574 0.671537 10.376 0.72474 10.3122C0.787273 10.2508 0.87144 10.2163 0.959115 10.2163C1.04679 10.2163 1.13096 10.2508 1.19349 10.3122C1.22429 10.343 1.24873 10.3795 1.2654 10.4197C1.28208 10.46 1.29066 10.5031 1.29066 10.5466C1.29066 10.5901 1.28208 10.6332 1.2654 10.6735C1.24873 10.7137 1.22429 10.7502 1.19349 10.781ZM5.75443 19.2388L4.8263 18.3107L5.75443 17.3825L6.68255 18.3107L5.75443 19.2388Z" fill="#DBBB95"/>
</g>
<defs>
<clipPath id="clip0_39_939">
<rect width="20" height="20" fill="white"/>
</clipPath>
</defs>
</svg>
