<svg width="25" height="25" viewBox="0 0 25 25" fill="none" xmlns="http://www.w3.org/2000/svg">
<g clip-path="url(#clip0_39_1043)">
<path d="M24.2685 9.67958C24.0604 9.77719 23.812 9.68792 23.7141 9.47958C23.6163 9.2713 23.7058 9.02313 23.9141 8.92526C24.2515 8.76682 24.2518 8.28859 23.9141 8.12995L13.0994 3.04885C12.7185 2.86984 12.2816 2.8699 11.9006 3.04885L1.0859 8.12995C0.748451 8.28854 0.748242 8.76667 1.0859 8.92531L5.51887 11.008L12.3288 8.14354C12.5409 8.05438 12.7852 8.15396 12.8744 8.36604C12.9637 8.57813 12.864 8.82245 12.6519 8.91167L5.93751 11.736V17.6144C5.93751 17.8526 5.75038 18.0318 5.52783 18.0355C4.92085 18.0456 4.4271 18.5478 4.4271 19.1551V21.6668C5.06262 22.2224 6.02626 22.2267 6.66668 21.6668V19.1897C6.66668 18.9596 6.85324 18.7731 7.08335 18.7731C7.31345 18.7731 7.50001 18.9596 7.50001 19.1897V21.8439C7.50001 21.9509 7.45887 22.0538 7.38507 22.1313C6.39116 23.1751 4.71423 23.1873 3.70866 22.1313C3.63491 22.0538 3.59376 21.9509 3.59376 21.8439V19.1551C3.59376 18.2366 4.24168 17.4562 5.10418 17.2535V11.7339L3.64585 11.0487V16.2429C3.64585 16.473 3.45928 16.6596 3.22918 16.6596C2.99908 16.6596 2.81251 16.473 2.81251 16.2429V10.6572L0.731524 9.67953C-0.244518 9.22104 -0.243164 7.8337 0.731524 7.37578L11.5462 2.29469C12.1525 2.00979 12.8477 2.0099 13.4538 2.29469L24.2685 7.37578C25.2445 7.83422 25.2432 9.22167 24.2685 9.67958ZM22.1859 10.3606C22.1646 10.0825 21.881 9.90547 21.6241 10.0031C21.5949 10.0141 22.1662 9.74656 13.0994 14.0064C12.7185 14.1853 12.2816 14.1853 11.9006 14.0064L8.38819 12.3561C8.17991 12.2583 7.93179 12.3478 7.83387 12.5561C7.736 12.7643 7.82553 13.0126 8.03382 13.1104L11.5462 14.7606C12.1523 15.0454 12.8475 15.0455 13.4537 14.7606L21.3542 11.0487V17.8395C21.3542 18.3442 21.0759 18.8038 20.628 19.0389C17.4294 20.7177 13.8569 21.3672 10.2968 20.9172C10.0686 20.8885 9.86007 21.0501 9.83121 21.2784C9.80236 21.5067 9.96402 21.7152 10.1924 21.744C13.9173 22.2148 17.6603 21.5377 21.0154 19.7767C21.7383 19.3972 22.1875 18.6549 22.1875 17.8395C22.1875 12.7613 22.1884 10.3935 22.1859 10.3606Z" fill="#DBBB95"/>
</g>
<defs>
<clipPath id="clip0_39_1043">
<rect width="25" height="25" fill="white"/>
</clipPath>
</defs>
</svg>
