<?xml version="1.0" encoding="utf-8"?>
<svg width="26px" height="26px" viewBox="0 0 26 26" version="1.1" xmlns:xlink="http://www.w3.org/1999/xlink" xmlns="http://www.w3.org/2000/svg">
  <g id="app-store">
    <path d="M20.668 26L5.33203 26C2.39195 26 0 23.6081 0 20.668L0 5.33203C0 2.39195 2.39195 0 5.33203 0L20.668 0C23.6081 0 26 2.39195 26 5.33203L26 20.668C26 23.6081 23.6081 26 20.668 26Z" id="Path" fill="#00C3FF" stroke="none" />
    <path d="M7.66797 0L0 0L0 26L7.66797 26C10.6081 26 13 23.6081 13 20.668L13 5.33203C13 2.39195 10.6081 0 7.66797 0Z" transform="translate(13 0)" id="Path" fill="#00AAF0" stroke="none" />
    <g id="Group" transform="translate(4.3164062 5.3320312)">
      <path d="M2.36875 1.70193C2.13388 2.10874 1.70625 2.33639 1.26715 2.33645C1.05189 2.33645 0.833935 2.28175 0.634517 2.16663L0.634517 2.16663C0.0282902 1.81665 -0.180167 1.03868 0.169818 0.432453L0.419509 0L3.35136 0L2.36875 1.70193Z" transform="translate(1.3204598 13)" id="Path" fill="#FFFFFF" stroke="none" />
      <path d="M1.26953 11.984C0.569512 11.984 0 11.4145 0 10.7145C0 10.0145 0.569512 9.44495 1.26953 9.44495L3.76685 9.44495L7.19225 3.51197L6.26392 1.90404C5.91393 1.29781 6.12234 0.519842 6.72857 0.169806L6.72862 0.169806C7.33484 -0.180178 8.11281 0.0283299 8.4628 0.634506L8.6582 0.972963L8.85361 0.634556C9.20375 0.0282791 9.98171 -0.180127 10.5878 0.169857C10.8815 0.339416 11.0915 0.613178 11.1793 0.940717C11.2671 1.26826 11.222 1.61042 11.0524 1.90409L6.69871 9.44495L9.44491 9.44495L10.9109 11.984L1.26953 11.984Z" transform="translate(0.025390625 0.0003614779)" id="Path" fill="#FFFFFF" stroke="none" />
    </g>
    <g id="Group" transform="translate(13 5.3320312)">
      <path d="M6.80235 7.45647L5.77093 7.45647L6.60695 8.90449C6.95698 9.51067 6.74852 10.2886 6.14235 10.6387C5.94669 10.7516 5.72955 10.8093 5.50956 10.8093C5.39927 10.8093 5.28836 10.7949 5.17893 10.7655C4.85134 10.6777 4.57757 10.4676 4.40802 10.1739L0 2.53906L1.4659 0L4.30503 4.9174L6.80235 4.9174C7.50237 4.9174 8.07188 5.48691 8.07188 6.18693C8.07188 6.88695 7.50237 7.45647 6.80235 7.45647Z" transform="translate(0.58632034 4.52791)" id="Path" fill="#F2F2F2" stroke="none" />
      <path d="M0 0L0 2.53906L2.25266 2.53906L0.786754 0L0 0Z" transform="translate(0 9.4453125)" id="Path" fill="#F2F2F2" stroke="none" />
      <path d="M2.52109 0.940699C2.43328 0.61316 2.22325 0.339347 1.92959 0.16984C1.32346 -0.180145 0.545492 0.0282108 0.195406 0.634539L0 0.972945L0 0.972945L0 6.05107L2.39423 1.90407C2.56379 1.6104 2.60889 1.26829 2.52109 0.940699Z" transform="translate(0 0.00032829444)" id="Path" fill="#F2F2F2" stroke="none" />
    </g>
  </g>
</svg>