<?xml version="1.0" encoding="utf-8"?>
<svg width="27px" height="27px" viewBox="0 0 27 27" version="1.1" xmlns:xlink="http://www.w3.org/1999/xlink" xmlns="http://www.w3.org/2000/svg">
  <defs>
    <linearGradient x1="0" y1="0" x2="0.99874055" y2="0.99874055" id="gradient_1">
      <stop offset="0" stop-color="#51D6F8" />
      <stop offset="1" stop-color="#9F28EE" />
    </linearGradient>
    <linearGradient x1="1" y1="0" x2="0" y2="1" id="gradient_2">
      <stop offset="0" stop-color="#52D6F8" />
      <stop offset="1" stop-color="#9E29EE" />
    </linearGradient>
  </defs>
  <g id="Group-27" transform="translate(0.25 0.25)">
    <g id="Group-26">
      <path d="M5.999 0L20.001 0Q20.1483 0 20.2954 0.00722606Q20.4424 0.0144521 20.589 0.0288868Q20.7356 0.0433215 20.8812 0.0649301Q21.0269 0.0865387 21.1713 0.115269Q21.3158 0.143999 21.4586 0.179782Q21.6015 0.215565 21.7424 0.258315Q21.8833 0.301064 22.022 0.350677Q22.1607 0.40029 22.2967 0.456647Q22.4328 0.513003 22.5659 0.575968Q22.699 0.638933 22.8289 0.708354Q22.9588 0.777776 23.0851 0.853486Q23.2114 0.929196 23.3339 1.01101Q23.4563 1.09283 23.5746 1.18056Q23.6929 1.26828 23.8067 1.36171Q23.9206 1.45514 24.0297 1.55403Q24.1388 1.65293 24.2429 1.75707Q24.3471 1.8612 24.446 1.97032Q24.5449 2.07944 24.6383 2.19327Q24.7317 2.30711 24.8194 2.4254Q24.9072 2.54369 24.989 2.66613Q25.0708 2.78858 25.1465 2.9149Q25.2222 3.04121 25.2916 3.17109Q25.3611 3.30097 25.424 3.4341Q25.487 3.56722 25.5433 3.70328Q25.5997 3.83934 25.6493 3.978Q25.6989 4.11666 25.7417 4.25758Q25.7844 4.39851 25.8202 4.54136Q25.856 4.68422 25.8847 4.82865Q25.9135 4.97309 25.9351 5.11876Q25.9567 5.26444 25.9711 5.411Q25.9855 5.55755 25.9928 5.70464Q26 5.85173 26 5.999L26 20.001Q26 20.1483 25.9928 20.2954Q25.9855 20.4424 25.9711 20.589Q25.9567 20.7356 25.9351 20.8812Q25.9135 21.0269 25.8847 21.1713Q25.856 21.3158 25.8202 21.4586Q25.7844 21.6015 25.7417 21.7424Q25.6989 21.8833 25.6493 22.022Q25.5997 22.1607 25.5434 22.2967Q25.487 22.4328 25.424 22.5659Q25.3611 22.699 25.2916 22.8289Q25.2222 22.9588 25.1465 23.0851Q25.0708 23.2114 24.989 23.3339Q24.9072 23.4563 24.8194 23.5746Q24.7317 23.6929 24.6383 23.8067Q24.5449 23.9206 24.446 24.0297Q24.3471 24.1388 24.2429 24.2429Q24.1388 24.3471 24.0297 24.446Q23.9206 24.5449 23.8067 24.6383Q23.6929 24.7317 23.5746 24.8194Q23.4563 24.9072 23.3339 24.989Q23.2114 25.0708 23.0851 25.1465Q22.9588 25.2222 22.8289 25.2916Q22.699 25.3611 22.5659 25.424Q22.4328 25.487 22.2967 25.5433Q22.1607 25.5997 22.022 25.6493Q21.8833 25.6989 21.7424 25.7417Q21.6015 25.7844 21.4586 25.8202Q21.3158 25.856 21.1713 25.8847Q21.0269 25.9135 20.8812 25.9351Q20.7356 25.9567 20.589 25.9711Q20.4424 25.9855 20.2954 25.9928Q20.1483 26 20.001 26L5.999 26Q5.85173 26 5.70464 25.9928Q5.55755 25.9855 5.411 25.9711Q5.26444 25.9567 5.11876 25.9351Q4.97309 25.9135 4.82865 25.8847Q4.68422 25.856 4.54136 25.8202Q4.39851 25.7844 4.25758 25.7417Q4.11666 25.6989 3.978 25.6493Q3.83934 25.5997 3.70328 25.5434Q3.56722 25.487 3.4341 25.424Q3.30097 25.3611 3.17109 25.2916Q3.04121 25.2222 2.9149 25.1465Q2.78858 25.0708 2.66613 24.989Q2.54369 24.9072 2.4254 24.8194Q2.30711 24.7317 2.19327 24.6383Q2.07944 24.5449 1.97032 24.446Q1.8612 24.3471 1.75707 24.2429Q1.65293 24.1388 1.55403 24.0297Q1.45514 23.9206 1.36171 23.8067Q1.26829 23.6929 1.18056 23.5746Q1.09283 23.4563 1.01101 23.3339Q0.929196 23.2114 0.853486 23.0851Q0.777776 22.9588 0.708354 22.8289Q0.638933 22.699 0.575968 22.5659Q0.513003 22.4328 0.456647 22.2967Q0.40029 22.1607 0.350677 22.022Q0.301064 21.8833 0.258315 21.7424Q0.215565 21.6015 0.179782 21.4586Q0.143999 21.3158 0.115269 21.1713Q0.0865387 21.0269 0.0649301 20.8812Q0.0433215 20.7356 0.0288868 20.589Q0.0144521 20.4424 0.00722606 20.2954Q0 20.1483 0 20.001L0 5.999Q0 5.85173 0.00722606 5.70464Q0.0144521 5.55755 0.0288868 5.411Q0.0433215 5.26444 0.0649301 5.11876Q0.0865387 4.97309 0.115269 4.82865Q0.143999 4.68422 0.179782 4.54136Q0.215565 4.39851 0.258315 4.25758Q0.301064 4.11666 0.350677 3.978Q0.40029 3.83934 0.456647 3.70328Q0.513003 3.56722 0.575968 3.4341Q0.638933 3.30097 0.708354 3.17109Q0.777776 3.04121 0.853486 2.9149Q0.929196 2.78858 1.01101 2.66613Q1.09283 2.54369 1.18056 2.4254Q1.26828 2.30711 1.36171 2.19327Q1.45514 2.07944 1.55403 1.97032Q1.65293 1.8612 1.75707 1.75707Q1.8612 1.65293 1.97032 1.55403Q2.07944 1.45514 2.19327 1.36171Q2.30711 1.26829 2.4254 1.18056Q2.54369 1.09283 2.66613 1.01101Q2.78858 0.929196 2.9149 0.853486Q3.04121 0.777776 3.17109 0.708354Q3.30097 0.638933 3.4341 0.575968Q3.56722 0.513003 3.70328 0.456647Q3.83934 0.40029 3.978 0.350677Q4.11666 0.301064 4.25758 0.258315Q4.39851 0.215565 4.54136 0.179782Q4.68422 0.143999 4.82865 0.115269Q4.97309 0.0865387 5.11876 0.0649301Q5.26444 0.0433215 5.411 0.0288868Q5.55755 0.0144521 5.70464 0.00722606Q5.85173 0 5.999 0Z" id="Rectangle" fill="#2E2E2E" fill-rule="evenodd" stroke="none" />
      <path d="M5.999 9.56636e-16L13 0L13 26L5.999 26Q5.85173 26 5.70464 25.9928Q5.55755 25.9855 5.411 25.9711Q5.26444 25.9567 5.11876 25.9351Q4.97309 25.9135 4.82865 25.8847Q4.68422 25.856 4.54136 25.8202Q4.39851 25.7844 4.25758 25.7417Q4.11666 25.6989 3.978 25.6493Q3.83934 25.5997 3.70328 25.5434Q3.56722 25.487 3.4341 25.424Q3.30097 25.3611 3.17109 25.2916Q3.04121 25.2222 2.9149 25.1465Q2.78858 25.0708 2.66613 24.989Q2.54369 24.9072 2.4254 24.8194Q2.30711 24.7317 2.19327 24.6383Q2.07944 24.5449 1.97032 24.446Q1.8612 24.3471 1.75707 24.2429Q1.65293 24.1388 1.55403 24.0297Q1.45514 23.9206 1.36171 23.8067Q1.26829 23.6929 1.18056 23.5746Q1.09283 23.4563 1.01101 23.3339Q0.929196 23.2114 0.853486 23.0851Q0.777776 22.9588 0.708354 22.8289Q0.638933 22.699 0.575968 22.5659Q0.513003 22.4328 0.456647 22.2967Q0.40029 22.1607 0.350677 22.022Q0.301064 21.8833 0.258315 21.7424Q0.215565 21.6015 0.179782 21.4586Q0.143999 21.3158 0.115269 21.1713Q0.0865387 21.0269 0.0649301 20.8812Q0.0433215 20.7356 0.0288868 20.589Q0.0144521 20.4424 0.00722606 20.2954Q-8.88178e-16 20.1483 -8.88178e-16 20.001L-8.88178e-16 5.999Q-8.88178e-16 5.85173 0.00722606 5.70464Q0.0144521 5.55755 0.0288868 5.411Q0.0433215 5.26444 0.0649301 5.11876Q0.0865387 4.97309 0.115269 4.82865Q0.143999 4.68422 0.179782 4.54136Q0.215565 4.39851 0.258315 4.25758Q0.301064 4.11666 0.350677 3.978Q0.40029 3.83934 0.456647 3.70328Q0.513003 3.56722 0.575968 3.4341Q0.638933 3.30097 0.708354 3.17109Q0.777776 3.04121 0.853486 2.9149Q0.929196 2.78858 1.01101 2.66613Q1.09283 2.54369 1.18056 2.4254Q1.26828 2.30711 1.36171 2.19327Q1.45514 2.07944 1.55403 1.97032Q1.65293 1.8612 1.75707 1.75707Q1.8612 1.65293 1.97032 1.55403Q2.07944 1.45514 2.19327 1.36171Q2.30711 1.26829 2.4254 1.18056Q2.54369 1.09283 2.66613 1.01101Q2.78858 0.929196 2.9149 0.853486Q3.04121 0.777776 3.17109 0.708354Q3.30097 0.638933 3.4341 0.575968Q3.56722 0.513003 3.70328 0.456647Q3.83934 0.40029 3.978 0.350677Q4.11666 0.301064 4.25758 0.258315Q4.39851 0.215565 4.54136 0.179782Q4.68422 0.143999 4.82865 0.115269Q4.97309 0.0865387 5.11876 0.0649301Q5.26444 0.0433215 5.411 0.0288868Q5.55755 0.0144521 5.70464 0.00722606Q5.85173 9.76759e-16 5.999 9.56636e-16Z" id="Rectangle" fill="#404040" fill-rule="evenodd" stroke="none" />
    </g>
    <g id="Group-12" transform="translate(3 5)">
      <path d="M10.0435 8.77179L10.0435 5.55696L-2.2301e-15 0L0 7.09392L6.97688 11.2493L6.97688 12.0088L0 8.07463L0 11.2493L10.0435 17L10.0435 9.84701L2.7521 5.85051L2.7521 4.83873L10.0435 8.77179Z" id="Path-13" fill="url(#gradient_1)" fill-rule="evenodd" stroke="none" />
      <path d="M0 17L2.62174 15.4286L2.62174 7.23364L3.3955 6.74996L3.3955 14.9587L6.08788 13.3196L6.08788 5.15753L6.88958 4.62912L6.88958 12.8546L9.51869 11.2493L9.51869 0L0 5.59073L0 17Z" transform="translate(10.481323 0)" id="Path-14" fill="url(#gradient_2)" fill-rule="evenodd" stroke="none" />
    </g>
  </g>
</svg>