<?xml version="1.0" encoding="UTF-8"?>
<svg width="16px" height="16px" viewBox="0 0 16 16" version="1.1" xmlns="http://www.w3.org/2000/svg" xmlns:xlink="http://www.w3.org/1999/xlink">
    <title>add</title>
    <g id="Page-1" stroke="none" stroke-width="1" fill="none" fill-rule="evenodd">
        <g id="7.1-Мои-файлы-(вид-блоки)" transform="translate(-693.000000, -358.000000)" fill="#4086F1" fill-rule="nonzero">
            <g id="add" transform="translate(693.000000, 358.000000)">
                <path d="M5.80994043,0 L1.45249362,0 C0.651404255,0 0,0.651404255 0,1.45249362 L0,5.80994043 C0,6.61099574 0.651404255,7.26243404 1.45249362,7.26243404 L5.80994043,7.26243404 C6.61099574,7.26243404 7.26243404,6.61102979 7.26243404,5.80994043 L7.26243404,1.45249362 C7.26243404,0.651404255 6.61099574,0 5.80994043,0 Z" id="Path"></path>
                <path d="M14.524834,0 L10.1673872,0 C9.36629787,0 8.71489362,0.651404255 8.71489362,1.45249362 L8.71489362,5.80994043 C8.71489362,6.61099574 9.36629787,7.26243404 10.1673872,7.26243404 L14.524834,7.26243404 C15.3258894,7.26243404 15.9773277,6.61102979 15.9773277,5.80994043 L15.9773277,1.45249362 C15.9773277,0.651404255 15.3258894,0 14.524834,0 Z" id="Path"></path>
                <path d="M5.80994043,8.71489362 L1.45249362,8.71489362 C0.651404255,8.71489362 0,9.36629787 0,10.1673872 L0,14.524834 C0,15.3258894 0.651404255,15.9773277 1.45249362,15.9773277 L5.80994043,15.9773277 C6.61099574,15.9773277 7.26243404,15.3259234 7.26243404,14.524834 L7.26243404,10.1673872 C7.26243404,9.36629787 6.61099574,8.71489362 5.80994043,8.71489362 Z" id="Path"></path>
                <path d="M14.1617021,11.6198468 L13.0723404,11.6198468 L13.0723404,10.5304851 C13.0723404,10.3297702 12.9099234,10.1673532 12.7092085,10.1673532 L11.9829787,10.1673532 C11.7822638,10.1673532 11.6198468,10.3297702 11.6198468,10.5304851 L11.6198468,11.6198468 L10.5304851,11.6198468 C10.3297702,11.6198468 10.1673532,11.7822638 10.1673532,11.9829787 L10.1673532,12.7092085 C10.1673532,12.9099234 10.3297702,13.0723404 10.5304851,13.0723404 L11.6198468,13.0723404 L11.6198468,14.1617021 C11.6198468,14.362417 11.7822638,14.524834 11.9829787,14.524834 L12.7092085,14.524834 C12.9099234,14.524834 13.0723404,14.362417 13.0723404,14.1617021 L13.0723404,13.0723404 L14.1617021,13.0723404 C14.362417,13.0723404 14.524834,12.9099234 14.524834,12.7092085 L14.524834,11.9829787 C14.524834,11.7822638 14.362417,11.6198468 14.1617021,11.6198468 Z" id="Path"></path>
            </g>
        </g>
    </g>
</svg>