<?xml version="1.0" encoding="UTF-8"?>
<svg width="16px" height="17px" viewBox="0 0 16 17" version="1.1" xmlns="http://www.w3.org/2000/svg" xmlns:xlink="http://www.w3.org/1999/xlink">
    <title>archive (1)</title>
    <g id="Page-1" stroke="none" stroke-width="1" fill="none" fill-rule="evenodd">
        <g id="7.1-Мои-файлы-(вид-блоки)" transform="translate(-692.000000, -478.000000)" fill="#4086F1" fill-rule="nonzero">
            <g id="Group-18" transform="translate(675.000000, 279.000000)">
                <g id="archive-(1)" transform="translate(17.250000, 199.500000)">
                    <path d="M13.5026667,0 L0.747333333,0 C0.335402778,0 0,0.3336375 0,0.7434 L0,7.6125 L14.25,7.6125 L14.25,0.7434 C14.25,0.3336375 13.9145972,0 13.5026667,0 Z M9.5,3.8049375 C9.5,4.31235 9.08516667,4.725 8.57506944,4.725 L5.67493056,4.725 C5.16483333,4.725 4.75,4.31235 4.75,3.8049375 L4.75,3.4125 C4.75,3.2673375 4.86795833,3.15 5.01388889,3.15 C5.15981944,3.15 5.27777778,3.2673375 5.27777778,3.4125 L5.27777778,3.8049375 C5.27777778,4.0228125 5.45590278,4.2 5.67493056,4.2 L8.57506944,4.2 C8.79409722,4.2 8.97222222,4.0228125 8.97222222,3.8049375 L8.97222222,3.4125 C8.97222222,3.2673375 9.09018056,3.15 9.23611111,3.15 C9.38204167,3.15 9.5,3.2673375 9.5,3.4125 L9.5,3.8049375 Z" id="Shape"></path>
                    <path d="M0,15.0066 C0,15.4163625 0.335402778,15.75 0.747333333,15.75 L13.5026667,15.75 C13.9145972,15.75 14.25,15.4163625 14.25,15.0066 L14.25,8.1375 L0,8.1375 L0,15.0066 Z M4.75,11.025 C4.75,10.8798375 4.86795833,10.7625 5.01388889,10.7625 C5.15981944,10.7625 5.27777778,10.8798375 5.27777778,11.025 L5.27777778,11.4174375 C5.27777778,11.6353125 5.45590278,11.8125 5.67493056,11.8125 L8.57506944,11.8125 C8.79409722,11.8125 8.97222222,11.6353125 8.97222222,11.4174375 L8.97222222,11.025 C8.97222222,10.8798375 9.09018056,10.7625 9.23611111,10.7625 C9.38204167,10.7625 9.5,10.8798375 9.5,11.025 L9.5,11.4174375 C9.5,11.92485 9.08516667,12.3375 8.57506944,12.3375 L5.67493056,12.3375 C5.16483333,12.3375 4.75,11.92485 4.75,11.4174375 L4.75,11.025 Z" id="Shape"></path>
                </g>
            </g>
        </g>
    </g>
</svg>