<?xml version="1.0" encoding="UTF-8"?>
<svg width="16px" height="19px" viewBox="0 0 16 19" version="1.1" xmlns="http://www.w3.org/2000/svg" xmlns:xlink="http://www.w3.org/1999/xlink">
    <title>Group 11</title>
    <g id="Page-1" stroke="none" stroke-width="1" fill="none" fill-rule="evenodd">
        <g id="7.1-Мои-файлы-(вид-блоки)" transform="translate(-685.000000, -477.000000)" fill-rule="nonzero">
            <g id="Group-18" transform="translate(667.000000, 279.000000)">
                <g id="Group-11" transform="translate(18.000000, 198.000000)">
                    <g id="file-4" fill="#4086F1">
                        <path d="M7.65095541,15.4161568 L11.4249115,15.4161568 C11.9622081,15.4161568 12.3983015,14.9859308 12.3983015,14.4558591 L12.3983015,1.96786784 L12.3983015,0.960334029 C12.3983015,0.430244168 11.9622081,0 11.4249115,0 L6.20651097,0 L5.1935598,0 L5.1935598,0.317690841 C5.19722151,0.350367614 5.19907997,0.384859762 5.19907997,0.419351911 L5.19907997,2.51248071 L5.19907997,3.74548425 C5.19907997,4.49160388 4.58450106,5.09793955 3.82823779,5.09793955 L2.56135881,5.09793955 L0.439773531,5.09793955 C0.412172682,5.09793955 0.382731776,5.09612417 0.355130927,5.0943088 L0.0165605096,5.0943088 L0.0165605096,14.4558591 C0.0165605096,14.9859308 0.452653928,15.4161568 0.98995046,15.4161568 L2.0571833,15.4161568 L6.20651097,15.4161568 L7.65095541,15.4161568 Z" id="Shape"></path>
                        <path d="M0.439773531,3.8576745 L3.10601557,3.8576745 C3.10785563,3.8576745 3.11153574,3.8576745 3.1133758,3.8576745 C3.5586695,3.85404375 3.91932059,3.49823001 3.92300071,3.05890896 C3.92300071,3.05709358 3.92300071,3.05346283 3.92300071,3.05164745 L3.92300071,0.419351911 C3.92300071,0.176091495 3.72059448,0.0145230099 3.51084643,0.0145230099 C3.40964331,0.0145230099 3.3084402,0.0508305346 3.22379759,0.134337842 L0.149044586,3.16783153 C-0.10856334,3.42198421 0.0736022647,3.8576745 0.439773531,3.8576745 Z" id="Path"></path>
                    </g>
                    <g id="file-4" transform="translate(3.000000, 3.000000)" fill="#4086F1">
                        <path d="M7.65095541,15.4161568 L11.4249115,15.4161568 C11.9622081,15.4161568 12.3983015,14.9859308 12.3983015,14.4558591 L12.3983015,1.96786784 L12.3983015,0.960334029 C12.3983015,0.430244168 11.9622081,0 11.4249115,0 L10.8493681,0 L9.83641694,0 L9.83641694,0.317690841 C9.84007866,0.350367614 9.84193711,0.384859762 9.84193711,0.419351911 L9.84193711,2.51248071 L9.84193711,3.74548425 C9.84193711,4.0966536 9.83641694,9.55171636 9.83641694,11.7227551 C9.83641694,11.8483092 9.83678329,12.0088647 9.83751599,12.2044214 L9.83746054,12.2044216 C9.83929975,12.6953073 9.44284924,13.0947398 8.95196353,13.096579 C8.95161182,13.0965803 8.95126011,13.0965814 8.95090839,13.0965823 C8.78464688,13.0970079 8.60811766,13.0974603 8.42132075,13.0979395 C7.01519549,13.1015473 5.00685383,13.0979395 4.75680922,13.0979395 L2.56135881,13.0979395 L0.439773531,13.0979395 C0.412172682,13.0979395 0.382731776,13.0961242 0.355130927,13.0943088 L0.0165605096,13.0943088 L0.0165605096,14.4558591 C0.0165605096,14.9859308 0.452653928,15.4161568 0.98995046,15.4161568 L2.0571833,15.4161568 L6.20651097,15.4161568 L7.65095541,15.4161568 Z" id="Shape"></path>
                    </g>
                    <g id="edit" transform="translate(2.000000, 5.000000)" fill="#FFFFFF">
                        <polygon id="Path" points="0.772744475 5.72189746 5.43857785 1.03720044 6.94334315 2.54800897 2.27750974 7.23270599"></polygon>
                        <polygon id="Path" points="0.0114368366 7.99707105 1.67435537 7.53461703 0.472041044 6.32747413"></polygon>
                        <path d="M7.35938484,0.243133018 C7.04719754,-0.0695561034 6.54178116,-0.0695561034 6.22959383,0.243133018 L5.89069399,0.583393925 L7.39545929,2.09420245 L7.73435912,1.75394155 C8.0459223,1.44050048 8.0459223,0.93305428 7.73435912,0.619613217 L7.35938484,0.243133018 Z" id="Path"></path>
                    </g>
                </g>
            </g>
        </g>
    </g>
</svg>