<?xml version="1.0" encoding="UTF-8"?>
<svg width="16px" height="19px" viewBox="0 0 16 19" version="1.1" xmlns="http://www.w3.org/2000/svg" xmlns:xlink="http://www.w3.org/1999/xlink">
    <title>garbage</title>
    <g id="Page-1" stroke="none" stroke-width="1" fill="none" fill-rule="evenodd">
        <g id="7.1-Мои-файлы-(вид-блоки)" transform="translate(-691.000000, -648.000000)" fill="#4086F1" fill-rule="nonzero">
            <g id="Group-18" transform="translate(675.000000, 279.000000)">
                <g id="garbage" transform="translate(16.500000, 369.750000)">
                    <path d="M14.5408163,1.83050847 L10.2416327,1.83050847 C10.2079592,1.44915254 10.090102,0.806033898 9.68663265,0.393254237 C9.43132653,0.13240678 9.10744898,0 8.72418367,0 L5.66326531,0 C5.28,0 4.95612245,0.13240678 4.70081633,0.393254237 C4.29734694,0.806033898 4.1794898,1.44915254 4.14581633,1.83050847 L0.459183673,1.83050847 C0.290204082,1.83050847 0.153061224,1.96688136 0.153061224,2.13559322 C0.153061224,2.30430508 0.290204082,2.44067797 0.459183673,2.44067797 L1.08397959,2.44067797 L1.67020408,16.4809831 C1.68153061,17.006339 2.00969388,18 3.17265306,18 L11.8273469,18 C12.9903061,18 13.3184694,17.006339 13.3294898,16.4873898 L13.9160204,2.44067797 L14.5408163,2.44067797 C14.7097959,2.44067797 14.8469388,2.30430508 14.8469388,2.13559322 C14.8469388,1.96688136 14.7097959,1.83050847 14.5408163,1.83050847 Z M4.84693878,15.2542373 C4.84693878,15.4229492 4.68693878,15.559322 4.48979592,15.559322 C4.29265306,15.559322 4.13265306,15.4229492 4.13265306,15.2542373 L4.13265306,5.18644068 C4.13265306,5.01772881 4.29265306,4.88135593 4.48979592,4.88135593 C4.68693878,4.88135593 4.84693878,5.01772881 4.84693878,5.18644068 L4.84693878,15.2542373 Z M7.90816327,15.2542373 C7.90816327,15.4229492 7.74816327,15.559322 7.55102041,15.559322 C7.35387755,15.559322 7.19387755,15.4229492 7.19387755,15.2542373 L7.19387755,5.18644068 C7.19387755,5.01772881 7.35387755,4.88135593 7.55102041,4.88135593 C7.74816327,4.88135593 7.90816327,5.01772881 7.90816327,5.18644068 L7.90816327,15.2542373 Z M10.9693878,15.2542373 C10.9693878,15.4229492 10.8093878,15.559322 10.6122449,15.559322 C10.415102,15.559322 10.255102,15.4229492 10.255102,15.2542373 L10.255102,5.18644068 C10.255102,5.01772881 10.415102,4.88135593 10.6122449,4.88135593 C10.8093878,4.88135593 10.9693878,5.01772881 10.9693878,5.18644068 L10.9693878,15.2542373 Z M5.75381511,1.23308847 C5.85448203,1.15064847 5.98009097,1.11050847 6.13760774,1.11050847 L8.38441246,1.11050847 C8.54192922,1.11050847 8.66753817,1.15064847 8.76820509,1.23308847 C8.94909095,1.38122847 9.02167001,1.64186847 9.04683673,1.83050847 L5.47540816,1.83050847 C5.50057489,1.64186847 5.57315394,1.38122847 5.75381511,1.23308847 Z" id="Shape"></path>
                </g>
            </g>
        </g>
    </g>
</svg>