<?xml version="1.0" encoding="UTF-8"?>
<svg width="18px" height="18px" viewBox="0 0 18 18" version="1.1" xmlns="http://www.w3.org/2000/svg" xmlns:xlink="http://www.w3.org/1999/xlink">
    <title>info</title>
    <g id="Page-1" stroke="none" stroke-width="1" fill="none" fill-rule="evenodd">
        <g id="7.1-Мои-файлы-(вид-блоки)" transform="translate(-690.000000, -537.000000)" fill-rule="nonzero">
            <g id="Group-18" transform="translate(675.000000, 279.000000)">
                <g id="info" transform="translate(15.000000, 258.750000)">
                    <path d="M8.625,16.7287088 C4.15658654,16.7287088 0.521291209,13.0934135 0.521291209,8.625 C0.521291209,4.15658654 4.15658654,0.521291209 8.625,0.521291209 C13.0934135,0.521291209 16.7287088,4.15658654 16.7287088,8.625 C16.7287088,13.0934135 13.0934135,16.7287088 8.625,16.7287088 Z" id="Shape" fill="#4086F1"></path>
                    <circle id="Oval" fill="#FFFFFF" cx="8.77228846" cy="4.9402294" r="1"></circle>
                    <path d="M8.52178434,7.44271154 C8.20787225,7.44271154 7.95310302,7.69748077 7.95310302,8.01139286 L7.95310302,12.8451841 C7.95310302,13.1590962 8.20787225,13.4138654 8.52178434,13.4138654 C8.83569643,13.4138654 9.09046566,13.1590962 9.09046566,12.8451841 L9.09046566,8.01139286 C9.09046566,7.69719643 8.83569643,7.44271154 8.52178434,7.44271154 Z" id="Path" fill="#FFFFFF"></path>
                </g>
            </g>
        </g>
    </g>
</svg>