<?xml version="1.0" encoding="UTF-8"?>
<svg width="19px" height="19px" viewBox="0 0 19 19" version="1.1" xmlns="http://www.w3.org/2000/svg" xmlns:xlink="http://www.w3.org/1999/xlink">
    <title>link-4</title>
    <g id="Page-1" stroke="none" stroke-width="1" fill="none" fill-rule="evenodd">
        <g id="7.1-Мои-файлы-(вид-блоки)" transform="translate(-691.000000, -387.000000)" fill="#4086F1" fill-rule="nonzero">
            <g id="Group-18" transform="translate(675.000000, 279.000000)">
                <g id="link-4" transform="translate(16.500000, 108.750000)">
                    <path d="M8.62477,0 C3.8615275,0 5.75e-05,3.8617575 5.75e-05,8.6248275 C5.75e-05,13.3878975 3.8615275,17.25 8.62477,17.25 C13.3880125,17.25 17.2499425,13.3881275 17.2499425,8.6248275 C17.2499425,3.8615275 13.3880125,0 8.62477,0 Z M12.9583725,7.089865 L10.8489275,9.19931 C10.620135,9.4281025 10.31596,9.554085 9.992465,9.554085 C9.6690275,9.554085 9.364795,9.428045 9.1360025,9.199425 L9.053375,9.1167975 L8.82878,9.3413925 L8.911235,9.4238475 C9.38354,9.8961525 9.38354,10.66464 8.911235,11.136945 L6.8020775,13.24639 C6.573285,13.4751825 6.26911,13.601165 5.9454425,13.601165 C5.6218325,13.601165 5.3176,13.475125 5.0886925,13.2462175 L4.291455,12.44875 C3.81915,11.9767325 3.81915,11.2083025 4.2912825,10.735825 L6.4009,8.626495 C6.6296925,8.3977025 6.9338675,8.27172 7.257535,8.27172 C7.5812025,8.27172 7.885205,8.39776 8.11417,8.626495 L8.19651,8.708835 L8.421105,8.48424 L8.338765,8.4019 C7.86646,7.9297675 7.86646,7.16128 8.3384775,6.688975 L10.448095,4.57953 C10.6770025,4.3506225 10.981235,4.2245825 11.30473,4.2245825 C11.628225,4.2245825 11.9324,4.3506225 12.161365,4.5793575 L12.958775,5.377055 C13.4306775,5.8490725 13.4306775,6.617675 12.9583725,7.089865 Z" id="Shape"></path>
                    <path d="M8.1959925,9.9738925 L7.788145,10.38174 L7.15553,9.7492975 L7.5633775,9.34145 L7.4810375,9.25911 C7.4212375,9.1994825 7.3417725,9.1664775 7.2573625,9.1664775 C7.17278,9.1664775 7.093315,9.199425 7.033515,9.25911 L4.92407,11.3682675 C4.8007325,11.49172 4.8007325,11.6924525 4.92407,11.81579 L5.721595,12.6134875 C5.8413675,12.73326 6.049805,12.7330875 6.16929,12.61366 L8.2784475,10.504215 C8.4019575,10.3807625 8.4019575,10.1798575 8.2784475,10.0563475 L8.1959925,9.9738925 Z" id="Path"></path>
                    <path d="M11.5283475,5.2119725 C11.4685475,5.1521725 11.38891,5.119225 11.3043275,5.119225 C11.219745,5.119225 11.1401075,5.1521725 11.0803075,5.212145 L8.9708625,7.321475 C8.8476975,7.4449275 8.8476975,7.64566 8.971035,7.76917 L9.05349,7.85151 L9.67909,7.2257375 L10.311705,7.8583525 L9.686105,8.484125 L9.76856,8.56658 C9.8883325,8.6860075 10.0964825,8.68618 10.216255,8.5664075 L12.325585,6.45725 C12.4489225,6.3337975 12.4489225,6.133065 12.325585,6.009555 L11.5283475,5.2119725 Z" id="Path"></path>
                </g>
            </g>
        </g>
    </g>
</svg>