<?xml version="1.0" encoding="utf-8"?>
<svg width="18px" height="14px" viewBox="0 0 18 14" version="1.1" xmlns:xlink="http://www.w3.org/1999/xlink" xmlns="http://www.w3.org/2000/svg">
  <g id="open-file-button">
    <path d="M17.7802 3.3744C17.5906 3.138 17.3034 3 17.0002 3L16.0002 3C16.0002 2.4476 15.5526 2 15.0002 2L14.0002 2L14.0002 1C14.0002 0.4476 13.5526 0 13.0002 0L1.00001 0C0.447605 0 0 0.4476 0 1L0 13C0 13.5524 0.447605 14 1.00001 14L3.00004 14L13.0002 14L15.0002 14C15.469 14 15.8754 13.6744 15.9758 13.2168L17.9758 4.2168C18.0422 3.9208 17.9702 3.6108 17.7802 3.3744ZM1.00001 1L13.0002 1L13.0002 2L12.0001 2C11.4477 2 11.0001 2.4476 11.0001 3L5.00006 3C4.53126 3 4.12565 3.3256 4.02405 3.7832C4.02405 3.7832 2.00082 12.928 2.00082 13L1.00001 13L1.00001 1L1.00001 1Z" id="Shape" fill="#4086F1" stroke="none" />
  </g>
</svg>