<?xml version="1.0" encoding="UTF-8"?>
<svg width="17px" height="17px" viewBox="0 0 17 17" version="1.1" xmlns="http://www.w3.org/2000/svg" xmlns:xlink="http://www.w3.org/1999/xlink">
    <title>Group 20</title>
    <g id="Page-1" stroke="none" stroke-width="1" fill="none" fill-rule="evenodd">
        <g id="7.1-Мои-файлы-(вид-блоки)" transform="translate(-691.000000, -599.000000)">
            <g id="Group-18" transform="translate(675.000000, 279.000000)">
                <g id="Group-20" transform="translate(16.000000, 320.000000)">
                    <rect id="Rectangle" fill="#4086F1" x="0" y="0" width="16.5" height="16.5" rx="3.75"></rect>
                    <g id="printer-(1)" transform="translate(2.750000, 3.250000)" fill="#FFFFFF" fill-rule="nonzero">
                        <path d="M10.4966772,7.34785714 L10.4966772,3.47571429 C10.4966772,2.98928571 10.0868671,2.59285714 9.58401899,2.59285714 L8.48528481,2.59285714 L8.48528481,0.567857143 C8.48528481,0.255 8.22167722,0 7.89825949,0 L2.60174051,0 C2.27832278,0 2.01471519,0.255 2.01471519,0.567857143 L2.01471519,2.59285714 L0.915981013,2.59285714 C0.413132911,2.59285714 0.00332278481,2.98928571 0.00332278481,3.47571429 L0.00332278481,7.34785714 C0.00332278481,7.83428571 0.413132911,8.23071429 0.915981013,8.23071429 L2.01471519,8.23071429 L2.01471519,9.18214286 C2.01471519,9.495 2.27832278,9.75 2.60174051,9.75 L7.89825949,9.75 C8.22167722,9.75 8.48528481,9.495 8.48528481,9.18214286 L8.48528481,8.22857143 L9.58401899,8.22857143 C10.0890823,8.22857143 10.4966772,7.83428571 10.4966772,7.34785714 Z M2.45332278,0.567857143 C2.45332278,0.488571429 2.51977848,0.424285714 2.60174051,0.424285714 L7.89825949,0.424285714 C7.98022152,0.424285714 8.04667722,0.488571429 8.04667722,0.567857143 L8.04667722,2.59285714 L2.45332278,2.59285714 L2.45332278,0.567857143 Z M8.04889241,9.18214286 C8.04889241,9.26142857 7.98243671,9.32571429 7.90047468,9.32571429 L2.60174051,9.32571429 C2.51977848,9.32571429 2.45332278,9.26142857 2.45332278,9.18214286 L2.45332278,5.625 L8.04667722,5.625 L8.04667722,9.18214286 L8.04889241,9.18214286 Z M10.0580696,7.34785714 C10.0580696,7.60071429 9.84541139,7.80642857 9.58401899,7.80642857 L8.48528481,7.80642857 L8.48528481,5.41285714 C8.48528481,5.295 8.38781646,5.20071429 8.26598101,5.20071429 L2.23401899,5.20071429 C2.11218354,5.20071429 2.01471519,5.295 2.01471519,5.41285714 L2.01471519,7.80642857 L0.915981013,7.80642857 C0.654588608,7.80642857 0.44193038,7.60071429 0.44193038,7.34785714 L0.44193038,3.47571429 C0.44193038,3.22285714 0.654588608,3.01714286 0.915981013,3.01714286 L9.58401899,3.01714286 C9.84541139,3.01714286 10.0580696,3.22285714 10.0580696,3.47571429 L10.0580696,7.34785714 L10.0580696,7.34785714 Z" id="Shape"></path>
                        <path d="M1.56281646,3.89142857 C1.50522152,3.89142857 1.44984177,3.915 1.40775316,3.95357143 C1.36787975,3.99428571 1.34351266,4.04785714 1.34351266,4.10357143 C1.34351266,4.15928571 1.36787975,4.21285714 1.40775316,4.25357143 C1.44984177,4.29214286 1.50522152,4.31571429 1.56281646,4.31571429 C1.62041139,4.31571429 1.67579114,4.29214286 1.71787975,4.25357143 C1.75775316,4.215 1.78212025,4.15928571 1.78212025,4.10357143 C1.78212025,4.04785714 1.75775316,3.99428571 1.71787975,3.95357143 C1.67800633,3.915 1.62041139,3.89142857 1.56281646,3.89142857 Z" id="Path"></path>
                    </g>
                </g>
            </g>
        </g>
    </g>
</svg>