<?xml version="1.0" standalone="no"?>
<svg version="1.0" xmlns="http://www.w3.org/2000/svg"
 width="14" height="14" viewBox="0 0 512.000000 512.000000"
 preserveAspectRatio="xMidYMid meet">

<g transform="translate(0.000000,512.000000) scale(0.100000,-0.100000)"
fill="#4086F1" stroke="none">
<path d="M2150 5113 c-8 -3 -96 -61 -195 -128 -301 -204 -588 -399 -838 -567
-159 -107 -242 -169 -252 -188 -33 -64 -12 -115 68 -170 59 -40 398 -270 881
-597 306 -207 333 -223 374 -223 37 0 50 6 78 34 l34 34 0 230 0 230 28 6 c15
3 88 9 163 13 443 20 850 -148 1155 -477 373 -403 485 -993 288 -1517 -142
-376 -471 -705 -847 -847 -396 -149 -839 -123 -1207 70 -312 164 -565 447
-691 772 -55 142 -85 284 -99 466 -14 190 -10 188 -445 184 -286 -3 -323 -5
-346 -21 -47 -31 -54 -60 -51 -191 15 -645 346 -1301 867 -1716 325 -258 699
-419 1130 -486 151 -23 479 -23 630 0 587 91 1091 369 1457 806 280 333 455
727 524 1175 23 151 23 479 0 630 -121 785 -584 1423 -1281 1765 -221 108
-438 175 -700 216 -116 17 -480 24 -542 10 l-33 -8 0 211 0 211 -32 35 c-33
34 -85 51 -118 38z"/>
</g>
</svg>
