<?xml version="1.0" encoding="UTF-8"?>
<svg width="19px" height="18px" viewBox="0 0 19 18" version="1.1" xmlns="http://www.w3.org/2000/svg" xmlns:xlink="http://www.w3.org/1999/xlink">
    <title>settings-work-tool</title>
    <g id="Page-1" stroke="none" stroke-width="1" fill="none" fill-rule="evenodd">
        <g id="7.1-Мои-файлы-(вид-блоки)" transform="translate(-690.000000, -417.000000)" fill="#4086F1" fill-rule="nonzero">
            <g id="Group-18" transform="translate(675.000000, 279.000000)">
                <g id="settings-work-tool" transform="translate(15.750000, 138.000000)">
                    <path d="M17.1807435,7.66059057 C17.1534898,7.41832106 16.871013,7.23626622 16.6267556,7.23626622 C15.837039,7.23626622 15.1362658,6.77256827 14.8423745,6.0554428 C14.5421348,5.32093909 14.7357323,4.46433871 15.3242844,3.9244586 C15.5095455,3.7551008 15.5320539,3.47159801 15.3766757,3.27466585 C14.972487,2.76139819 14.5130855,2.29776436 14.0114888,1.89594838 C13.8150697,1.7383257 13.5268857,1.76025693 13.356566,1.94885265 C12.8429136,2.5177179 11.920263,2.72914262 11.2073058,2.43166028 C10.4653634,2.11955712 9.99749721,1.36773927 10.0432835,0.560708603 C10.0583532,0.307216967 9.87309201,0.0868145507 9.62036989,0.0573805358 C8.97666914,-0.0170702077 8.32732528,-0.0193787579 7.68170074,0.0522504243 C7.43186431,0.0798247737 7.24660316,0.295032952 7.25500372,0.545318268 C7.28309108,1.34439726 6.80958178,2.0830692 6.07501394,2.38395024 C5.3705855,2.67168537 4.45441171,2.46205619 3.94178532,1.89825693 C3.77236338,1.71254689 3.48886059,1.6897179 3.29147955,1.84355712 C2.77500558,2.2487718 2.30527974,2.71279039 1.89737175,3.2218257 C1.73827416,3.41971976 1.7616803,3.70655712 1.94880112,3.87681269 C2.54857528,4.41996325 2.74223699,5.28400228 2.43064684,6.02697068 C2.1331645,6.73531083 1.39763476,7.19182663 0.555591078,7.19182663 C0.282348513,7.18304132 0.0877249071,7.3664428 0.0578420074,7.61486845 C-0.0179553903,8.26228853 -0.0188531599,8.92195674 0.0541226766,9.57463518 C0.0811840149,9.81793072 0.372253717,9.99838239 0.619204461,9.99838239 C1.36961152,9.9792086 2.09007156,10.4438043 2.39229926,11.1792699 C2.69356506,11.9137737 2.49990335,12.769861 1.91045353,13.31019 C1.72609015,13.4795478 1.70268401,13.7626017 1.85806227,13.9595339 C2.25846747,14.4695311 2.71793309,14.9336138 3.22132528,15.3387644 C3.41877045,15.4978619 3.70605669,15.4754177 3.87721004,15.286822 C4.39278625,14.716546 5.31537268,14.505506 6.02550836,14.8035655 C6.76931041,15.1147067 7.23717658,15.8664605 7.19139033,16.67394 C7.17644888,16.9275599 7.36260781,17.1483471 7.6143039,17.1773322 C7.94359294,17.2157439 8.27486989,17.2349177 8.60704461,17.2349177 C8.92235409,17.2349177 9.2377277,17.2176036 9.55303717,17.1825264 C9.80293773,17.1549521 9.98807063,16.9397439 9.97967007,16.6890097 C9.95074907,15.8903796 10.425092,15.1517077 11.158698,14.8513396 C11.8678717,14.5616807 12.780198,14.7736826 13.2928885,15.3369047 C13.4632723,15.52223 13.7447872,15.5446101 13.9432584,15.3912839 C14.4587704,14.9870311 14.9275344,14.5233973 15.3373662,14.0129512 C15.4963996,13.815506 15.4739554,13.5282198 15.2858727,13.3580283 C14.6860985,12.8148777 14.4914749,11.9507105 14.8030651,11.2082551 C15.0959944,10.5093415 15.8042063,10.0400646 16.5659638,10.0400646 L16.6725418,10.042822 C16.9196208,10.0628935 17.1469489,9.87256641 17.1768959,9.6203573 C17.2528216,8.97236009 17.2537193,8.31326901 17.1807435,7.66059057 Z M8.63109201,11.510098 C7.0460158,11.510098 5.75669052,10.2207727 5.75669052,8.63569652 C5.75669052,7.05068444 7.0460158,5.76129503 8.63109201,5.76129503 C10.2161041,5.76129503 11.5054294,7.05068444 11.5054294,8.63569652 C11.5054294,10.2207727 10.2161041,11.510098 8.63109201,11.510098 Z" id="Shape"></path>
                </g>
            </g>
        </g>
    </g>
</svg>