<?xml version="1.0" encoding="UTF-8"?>
<svg width="17px" height="17px" viewBox="0 0 17 17" version="1.1" xmlns="http://www.w3.org/2000/svg" xmlns:xlink="http://www.w3.org/1999/xlink">
    <!-- Generator: Sketch 53.1 (72631) - https://sketchapp.com -->
    <title>Group 11</title>
    <desc>Created with Sketch.</desc>
    <g id="Page-1" stroke="none" stroke-width="1" fill="none" fill-rule="evenodd">
        <g id="7.1-Мои-файлы-(вид-блоки)" transform="translate(-683.000000, -297.000000)">
            <g id="Group-18" transform="translate(667.000000, 279.000000)">
                <g id="Group-11" transform="translate(16.000000, 18.000000)">
                    <rect id="Rectangle" fill="#4086F1" x="0" y="0" width="16.5" height="16.5" rx="3.75"></rect>
                    <g id="upload" transform="translate(3.000000, 3.000000)" fill="#000000" fill-rule="nonzero" stroke="#FFFFFF" stroke-width="0.64453125">
                        <path d="M10.6667373,5.02999857 C10.4919492,5.02999857 10.3521186,5.17158896 10.3521186,5.34857695 L10.3521186,8.24646024 C10.3521186,9.03464674 9.71822034,9.67416333 8.94216102,9.67416333 L2.03919492,9.67416333 C1.26080508,9.67416333 0.629237288,9.0322869 0.629237288,8.24646024 L0.629237288,5.30138015 C0.629237288,5.12439216 0.48940678,4.98280177 0.314618644,4.98280177 C0.139830508,4.98280177 0,5.12439216 0,5.30138015 L0,8.24646024 C0,9.38626287 0.915889831,10.3113201 2.03919492,10.3113201 L8.94216102,10.3113201 C10.0677966,10.3113201 10.9813559,9.38390303 10.9813559,8.24646024 L10.9813559,5.34857695 C10.9813559,5.1739488 10.8415254,5.02999857 10.6667373,5.02999857 Z" id="Path"></path>
                        <path d="M3.7125,2.57576516 L5.17605932,1.09378576 L5.17605932,7.55738701 C5.17605932,7.734375 5.31588983,7.87596539 5.49067797,7.87596539 C5.6654661,7.87596539 5.80529661,7.734375 5.80529661,7.55738701 L5.80529661,1.09378576 L7.26885593,2.57576516 C7.32944915,2.637121 7.41101695,2.67015875 7.49025424,2.67015875 C7.57182203,2.67015875 7.65105932,2.63948084 7.71165254,2.57576516 C7.83516949,2.45069365 7.83516949,2.25010727 7.71165254,2.12503576 L5.71207627,0.100293192 C5.65381356,0.0412971968 5.57224576,0.00589959954 5.49067797,0.00589959954 C5.40677966,0.00589959954 5.32754237,0.038937357 5.26927966,0.100293192 L3.26970339,2.12503576 C3.14618644,2.25010727 3.14618644,2.45069365 3.26970339,2.57576516 C3.39088983,2.69847683 3.59131356,2.69847683 3.7125,2.57576516 Z" id="Path"></path>
                    </g>
                </g>
            </g>
        </g>
    </g>
</svg>