<?xml version="1.0" encoding="UTF-8"?>
<svg width="13px" height="17px" viewBox="0 0 13 17" version="1.1" xmlns="http://www.w3.org/2000/svg" xmlns:xlink="http://www.w3.org/1999/xlink">
    <title>Group 17</title>
    <g id="Page-1" stroke="none" stroke-width="1" fill="none" fill-rule="evenodd">
        <g id="7.1-Мои-файлы-(вид-блоки)" transform="translate(-693.000000, -327.000000)">
            <g id="Group-18" transform="translate(675.000000, 279.000000)">
                <g id="Group-17" transform="translate(18.000000, 48.000000)">
                    <path d="M1.0625,0 C0.478125,0 0,0.4640625 0,1.03125 L0,15.46875 C0,16.0359375 0.478125,16.5 1.0625,16.5 L11.6875,16.5 C12.271875,16.5 12.75,16.0359375 12.75,15.46875 L12.75,4.125 L8.5,0 L1.0625,0 Z" id="Path" fill="#4086F1" fill-rule="nonzero"></path>
                    <path d="M2.625,6 L10.125,6 C10.3321068,6 10.5,6.16789322 10.5,6.375 C10.5,6.58210678 10.3321068,6.75 10.125,6.75 L2.625,6.75 C2.41789322,6.75 2.25,6.58210678 2.25,6.375 C2.25,6.16789322 2.41789322,6 2.625,6 Z" id="Rectangle" fill="#FFFFFF"></path>
                    <path d="M2.625,8.25 L10.125,8.25 C10.3321068,8.25 10.5,8.41789322 10.5,8.625 C10.5,8.83210678 10.3321068,9 10.125,9 L2.625,9 C2.41789322,9 2.25,8.83210678 2.25,8.625 C2.25,8.41789322 2.41789322,8.25 2.625,8.25 Z" id="Rectangle" fill="#FFFFFF"></path>
                    <path d="M2.625,10.5 L10.125,10.5 C10.3321068,10.5 10.5,10.6678932 10.5,10.875 C10.5,11.0821068 10.3321068,11.25 10.125,11.25 L2.625,11.25 C2.41789322,11.25 2.25,11.0821068 2.25,10.875 C2.25,10.6678932 2.41789322,10.5 2.625,10.5 Z" id="Rectangle" fill="#FFFFFF"></path>
                </g>
            </g>
        </g>
    </g>
</svg>