<?xml version="1.0" encoding="UTF-8"?>
<svg width="15px" height="17px" viewBox="0 0 15 17" version="1.1" xmlns="http://www.w3.org/2000/svg" xmlns:xlink="http://www.w3.org/1999/xlink">
    <title>zip</title>
    <g id="Page-1" stroke="none" stroke-width="1" fill="none" fill-rule="evenodd">
        <g id="7.1-Мои-файлы-(вид-блоки)" transform="translate(-693.000000, -507.000000)" fill="#4086F1" fill-rule="nonzero">
            <g id="zip" transform="translate(693.000000, 507.000000)">
                <path d="M14.9902134,5.85149444 L12.8146646,5.85149444 L12.8146646,3.67549444 L9.0178811,0 L0.00978658537,0 L0.00978658537,17 L12.8146646,17 L12.8146646,14.4802694 L14.9902134,14.4802694 L14.9902134,5.85149444 Z M13.6182622,13.0636028 L4.01460366,13.0636028 L4.01460366,7.26816111 L13.6182622,7.26816111 L13.6182622,13.0636028 Z" id="XMLID_1032_"></path>
                <polygon id="XMLID_1035_" points="8.09647866 11.0362583 6.37989329 11.0362583 8.08330793 8.83759167 8.08330793 8.366125 5.67306402 8.366125 5.67306402 8.91465833 7.38521341 8.91465833 5.62472561 11.113325 5.62472561 11.5847917 8.09647866 11.5847917"></polygon>
                <rect id="XMLID_1036_" x="8.57057927" y="8.366125" width="1" height="3.21866667"></rect>
                <path d="M10.4320427,10.5058583 L11.1696037,10.5058583 C11.3129726,10.5058583 11.4446799,10.4756833 11.5647256,10.4151917 C11.6847256,10.3547944 11.7871189,10.2747056 11.8720427,10.174925 C11.956875,10.0752389 12.0227744,9.96119722 12.0696037,9.83265833 C12.1163872,9.70421389 12.1398476,9.57199167 12.1398476,9.43603889 C12.1398476,9.30613056 12.1149238,9.17693056 12.0652134,9.04843889 C12.0154116,8.91999444 11.9466768,8.80519722 11.8588262,8.70390556 C11.7710213,8.60266111 11.6663415,8.52106111 11.5449695,8.45905833 C11.4235061,8.39715 11.2909756,8.366125 11.1476067,8.366125 L9.82618902,8.366125 L9.82618902,11.5847917 L10.4320427,11.5847917 L10.4320427,10.5058583 Z M10.4320427,8.91465833 L11.1081402,8.91465833 C11.1607774,8.91465833 11.2127287,8.92594444 11.2639482,8.94865833 C11.315122,8.97127778 11.3598018,9.005325 11.3978963,9.05065833 C11.4358994,9.09599167 11.4666311,9.15114722 11.4900915,9.216125 C11.5135061,9.28115 11.5252134,9.35439167 11.5252134,9.43599167 C11.5252134,9.59621667 11.4878963,9.72315 11.4133079,9.81674444 C11.338628,9.91043333 11.2457012,9.957325 11.1344817,9.957325 L10.4320884,9.957325 L10.4320884,8.91465833 L10.4320427,8.91465833 Z" id="XMLID_1037_"></path>
            </g>
        </g>
    </g>
</svg>