<svg width="17" height="17" viewBox="0 0 17 17" fill="none" xmlns="http://www.w3.org/2000/svg">
    <circle cx="8.5" cy="8.5" r="8.5" fill="#4086F1"/>
    <path d="M12.3017 9.24615H9.46214V12.1654C9.46214 12.4584 9.21983 12.6962 8.92127 12.6962C8.62272 12.6962 8.38041 12.4584 8.38041 12.1654V9.24615H5.54087C5.24231 9.24615 5 9.00837 5 8.71538C5 8.4224 5.24231 8.18462 5.54087 8.18462H8.38041V5.53077C8.38041 5.23778 8.62272 5 8.92127 5C9.21983 5 9.46214 5.23778 9.46214 5.53077V8.18462H12.3017C12.6002 8.18462 12.8425 8.4224 12.8425 8.71538C12.8425 9.00837 12.6002 9.24615 12.3017 9.24615Z" fill="white" stroke="white" stroke-width="0.811298"/>
</svg>
