<svg width="18" height="18" viewBox="0 0 18 18" fill="none" xmlns="http://www.w3.org/2000/svg">
<g clip-path="url(#clip0_2:10618)">
<path d="M17.8635 0.774986C18.2059 0.331421 17.6369 -0.237652 17.1933 0.104769L10.9685 5.2356C8.32074 7.20586 5.98602 9.56495 4.04347 12.2331L3.58496 12.8628L4.34525 13.6231L5.10554 14.3834L5.73529 13.9249C8.40333 11.9823 10.7625 9.64756 12.7327 6.99988L17.8635 0.774986Z" fill="url(#paint0_linear_2:10618)"/>
<path d="M3.60028 14.3355C3.07139 13.8067 1.89527 14.0556 1.22629 14.7246C0.617802 15.333 0.596849 15.7523 0.548193 16.495C0.498482 17.253 0.730126 17.3212 0.146182 17.5662C-0.437762 17.8112 1.32184 18.6648 3.00705 16.9796C4.1523 15.8343 4.12913 14.8644 3.60028 14.3355Z" fill="url(#paint1_linear_2:10618)"/>
<path d="M3.00692 16.9794C4.15213 15.8341 4.129 14.8642 3.60015 14.3354C3.28279 14.018 2.73242 13.981 2.19836 14.1464V17.6081C2.46313 17.4554 2.73597 17.2503 3.00692 16.9794Z" fill="url(#paint2_linear_2:10618)"/>
<path d="M5.70259 10.1414C5.1223 10.8153 4.5681 11.5125 4.04347 12.233L3.58496 12.8628L4.34525 13.6231L5.10553 14.3834L5.73529 13.9249C6.45588 13.4002 7.1531 12.846 7.82697 12.2657L5.70259 10.1414Z" fill="url(#paint3_linear_2:10618)"/>
<path d="M4.08963 15.5506L2.41809 13.8791L4.08963 12.2075L5.76117 13.8791L4.08963 15.5506Z" fill="url(#paint4_linear_2:10618)"/>
<path d="M3.85681 12.4401V13.2887L5.10405 14.5359L5.76094 13.8791L4.0894 12.2075L3.85681 12.4401Z" fill="url(#paint5_linear_2:10618)"/>
<path d="M3.021 13.2755V14.1241L4.26826 15.3714L4.92512 14.7145L3.25359 13.043L3.021 13.2755Z" fill="url(#paint6_linear_2:10618)"/>
<path d="M5.44458 14.041L3.92728 12.5237C3.78905 12.3855 3.78905 12.1614 3.92728 12.0231C4.06552 11.8849 4.28964 11.8849 4.42791 12.0231L5.9452 13.5404C6.08344 13.6786 6.08344 13.9028 5.9452 14.041C5.80697 14.1793 5.58281 14.1793 5.44458 14.041Z" fill="url(#paint7_linear_2:10618)"/>
<path d="M4.60339 14.8823L3.0861 13.365C2.94786 13.2268 2.94786 13.0027 3.0861 12.8644C3.22433 12.7262 3.44845 12.7262 3.58672 12.8644L5.10402 14.3817C5.24225 14.52 5.24225 14.7441 5.10402 14.8823C4.96575 15.0206 4.74159 15.0206 4.60339 14.8823Z" fill="url(#paint8_linear_2:10618)"/>
<path d="M3.7621 15.7237L2.24479 14.2064C2.10655 14.0681 2.10655 13.844 2.24479 13.7057C2.38302 13.5675 2.60714 13.5675 2.74541 13.7057L4.26272 15.223C4.40096 15.3613 4.40096 15.5854 4.26272 15.7237C4.12449 15.8619 3.90037 15.8619 3.7621 15.7237Z" fill="url(#paint9_linear_2:10618)"/>
<path d="M2.44742 17.4503L2.32599 17.4161C2.13298 17.3618 1.98209 17.2109 1.92774 17.0179L1.9276 17.0174C1.87322 16.8243 1.72229 16.6734 1.52918 16.6191C1.33606 16.5648 1.1851 16.4138 1.13075 16.2207L1.13072 16.2206C1.07636 16.0275 0.925404 15.8766 0.732291 15.8222L0.619545 15.7905C0.579889 15.9992 0.565721 16.2258 0.548073 16.4951C0.498362 17.2531 0.730006 17.3213 0.146062 17.5662C-0.373195 17.7841 0.960595 18.483 2.44742 17.4503Z" fill="url(#paint10_linear_2:10618)"/>
</g>
<defs>
<linearGradient id="paint0_linear_2:10618" x1="11.0653" y1="6.8658" x2="11.9928" y2="7.79366" gradientUnits="userSpaceOnUse">
<stop stop-color="#FCC344"/>
<stop offset="1" stop-color="#D48000"/>
</linearGradient>
<linearGradient id="paint1_linear_2:10618" x1="1.99094" y1="18.2901" x2="1.99094" y2="12.7918" gradientUnits="userSpaceOnUse">
<stop stop-color="#4D4D4D"/>
<stop offset="1" stop-color="#333333"/>
</linearGradient>
<linearGradient id="paint2_linear_2:10618" x1="3.07411" y1="17.9628" x2="3.07411" y2="13.4812" gradientUnits="userSpaceOnUse">
<stop stop-color="#4D4D4D" stop-opacity="0"/>
<stop offset="1"/>
</linearGradient>
<linearGradient id="paint3_linear_2:10618" x1="6.31762" y1="11.6506" x2="5.03259" y2="12.9353" gradientUnits="userSpaceOnUse">
<stop stop-color="#FCC344" stop-opacity="0"/>
<stop offset="1" stop-color="#D48000"/>
</linearGradient>
<linearGradient id="paint4_linear_2:10618" x1="3.55564" y1="13.3452" x2="5.42584" y2="15.2154" gradientUnits="userSpaceOnUse">
<stop stop-color="#E6E6E6"/>
<stop offset="1" stop-color="#999999"/>
</linearGradient>
<linearGradient id="paint5_linear_2:10618" x1="4.80878" y1="14.7069" x2="4.80878" y2="11.4663" gradientUnits="userSpaceOnUse">
<stop stop-color="#E6E6E6" stop-opacity="0"/>
<stop offset="0.143" stop-color="#DCDCDC" stop-opacity="0.143"/>
<stop offset="0.384" stop-color="#C2C2C2" stop-opacity="0.384"/>
<stop offset="0.692" stop-color="#979797" stop-opacity="0.692"/>
<stop offset="1" stop-color="#666666"/>
</linearGradient>
<linearGradient id="paint6_linear_2:10618" x1="3.97297" y1="15.5423" x2="3.97297" y2="12.3017" gradientUnits="userSpaceOnUse">
<stop stop-color="#E6E6E6" stop-opacity="0"/>
<stop offset="0.143" stop-color="#DCDCDC" stop-opacity="0.143"/>
<stop offset="0.384" stop-color="#C2C2C2" stop-opacity="0.384"/>
<stop offset="0.692" stop-color="#979797" stop-opacity="0.692"/>
<stop offset="1" stop-color="#666666"/>
</linearGradient>
<linearGradient id="paint7_linear_2:10618" x1="5.02101" y1="12.9474" x2="4.51667" y2="13.4514" gradientUnits="userSpaceOnUse">
<stop stop-color="#E6E6E6"/>
<stop offset="1" stop-color="#999999"/>
</linearGradient>
<linearGradient id="paint8_linear_2:10618" x1="4.17987" y1="13.7885" x2="3.67588" y2="14.2929" gradientUnits="userSpaceOnUse">
<stop stop-color="#E6E6E6"/>
<stop offset="1" stop-color="#999999"/>
</linearGradient>
<linearGradient id="paint9_linear_2:10618" x1="3.33853" y1="14.6299" x2="2.83455" y2="15.1342" gradientUnits="userSpaceOnUse">
<stop stop-color="#E6E6E6"/>
<stop offset="1" stop-color="#999999"/>
</linearGradient>
<linearGradient id="paint10_linear_2:10618" x1="0.748655" y1="17.0956" x2="1.79161" y2="18.1385" gradientUnits="userSpaceOnUse">
<stop stop-color="#B8DE6F"/>
<stop offset="1" stop-color="#8AA753"/>
</linearGradient>
<clipPath id="clip0_2:10618">
<rect width="18" height="18" fill="white"/>
</clipPath>
</defs>
</svg>
