<svg width="16" height="13" viewBox="0 0 16 13" fill="none" xmlns="http://www.w3.org/2000/svg">
<path fill-rule="evenodd" clip-rule="evenodd" d="M13.696 2.06953H11.5274V1.84195C11.5274 0.825194 10.7196 0 9.72423 0H6.27536C5.27961 0 4.47219 0.825194 4.47219 1.84195V2.06953H2.30317C1.30742 2.06953 0.5 2.89432 0.5 3.91149V10.5974C0.5 11.6141 1.30742 12.4393 2.30317 12.4393H13.6968C14.6926 12.4393 15.5 11.6141 15.5 10.5974V3.91149C15.4992 2.89391 14.6918 2.06953 13.696 2.06953ZM7.99935 10.5285C6.12085 10.5285 4.59336 8.96817 4.59336 7.04926C4.59336 5.13077 6.12085 3.57002 7.99935 3.57002C9.87786 3.57002 11.4053 5.13036 11.4053 7.04926C11.4053 8.96817 9.87746 10.5285 7.99935 10.5285ZM7.99918 8.89127C8.99293 8.89127 9.80235 8.06403 9.80235 7.04931C9.80235 6.03419 8.99293 5.20736 7.99918 5.20736C7.00543 5.20736 6.19601 6.03419 6.19601 7.04931C6.19601 8.06403 7.00543 8.89127 7.99918 8.89127Z" fill="#4086F1"/>
</svg>
