<svg width="18" height="18" viewBox="0 0 18 18" fill="none" xmlns="http://www.w3.org/2000/svg">
<g clip-path="url(#clip0_2:10631)">
<path d="M0.57858 12.8513L5.14879 17.4215C5.51913 17.7919 6.02161 18 6.5455 18C7.06925 18 7.57173 17.7919 7.94222 17.4215L17.4215 7.94222C17.7919 7.57173 18 7.06925 18 6.5455C18 6.02161 17.7919 5.51913 17.4215 5.14879L12.8513 0.57858C12.4808 0.208091 11.9783 0 11.4546 0C10.9307 0 10.4282 0.208091 10.0579 0.57858L0.57858 10.0579C0.208091 10.4282 0 10.9307 0 11.4546C0 11.9783 0.208091 12.4808 0.57858 12.8513Z" fill="#F56054"/>
<path d="M6.5455 17.9998C6.02191 17.9985 5.52003 17.7905 5.14879 17.4214L0.57843 12.851C0.20929 12.4798 0.00149814 11.9779 0 11.4545H0.818132C0.819031 11.7612 0.940679 12.0551 1.15701 12.2726L5.72722 16.843C6.15794 17.2735 6.93292 17.2735 7.36364 16.843L16.8431 7.36353L17.4215 7.94196L7.94207 17.4214C7.57083 17.7905 7.06895 17.9985 6.5455 17.9998Z" fill="#F44F42"/>
<path d="M2.2149 11.2149L6.78512 15.7851C7.15561 16.1556 7.65793 16.3637 8.18183 16.3637C8.70573 16.3637 9.2082 16.1556 9.57854 15.7851L17.4216 7.94222C17.7919 7.57173 18 7.06925 18 6.5455C18 6.02161 17.7919 5.51913 17.4216 5.14879L12.8514 0.57858C12.4809 0.208091 11.9784 0 11.4547 0C10.9308 0 10.4283 0.208091 10.0579 0.57858L2.2149 8.42147C1.84457 8.79196 1.63647 9.29428 1.63647 9.81818C1.63647 10.3421 1.84457 10.8444 2.2149 11.2149Z" fill="#F78980"/>
<path d="M8.18183 16.3636C7.65838 16.3621 7.15651 16.1542 6.78527 15.785L2.2149 11.2148C1.44366 10.4434 1.44366 9.19277 2.2149 8.42138L2.79333 8.99996C2.34165 9.4518 2.34165 10.1844 2.79333 10.6362L7.3637 15.2066C7.79441 15.6373 8.5694 15.6373 9.00011 15.2066L16.8432 7.36354C17.2948 6.91156 17.2948 6.17912 16.8432 5.72713L12.2728 1.15692C11.8421 0.726205 11.0671 0.726205 10.6364 1.15692L10.0579 0.578339C10.7931 -0.156647 12.1162 -0.156647 12.8512 0.578339L17.4216 5.1487C18.1928 5.92009 18.1928 7.17058 17.4216 7.94197L9.57854 15.785C9.2073 16.1542 8.70543 16.3621 8.18183 16.3636Z" fill="#F6766B"/>
<path d="M17.4215 5.14973L12.8513 0.579519C12.0799 -0.191871 10.8292 -0.191871 10.0578 0.579519L5.72717 4.91003L13.0908 12.2737L17.4215 7.94316C18.1929 7.17177 18.1929 5.92112 17.4215 5.14973Z" fill="#4186D6"/>
<path d="M13.0062 12.3573L12.4278 11.7788L16.8431 7.36354C17.2948 6.91156 17.2948 6.17912 16.8431 5.72713L12.2727 1.15692C11.842 0.726205 11.067 0.726205 10.6363 1.15692L10.0579 0.578339C10.793 -0.156647 12.1162 -0.156647 12.8511 0.578339L17.4215 5.1487C18.1927 5.92009 18.1927 7.17058 17.4215 7.94197L13.0062 12.3573Z" fill="#1E70CE"/>
<path d="M11.4546 2.04547C11.4546 2.27138 11.2714 2.45461 11.0455 2.45461C10.8196 2.45461 10.6364 2.27138 10.6364 2.04547C10.6364 1.81955 10.8196 1.63647 11.0455 1.63647C11.2714 1.63647 11.4546 1.81955 11.4546 2.04547Z" fill="#1E70CE"/>
<path d="M13.0908 3.68185C13.0908 3.90776 12.9078 4.09099 12.6818 4.09099C12.4559 4.09099 12.2727 3.90776 12.2727 3.68185C12.2727 3.45593 12.4559 3.27271 12.6818 3.27271C12.9078 3.27271 13.0908 3.45593 13.0908 3.68185Z" fill="#1E70CE"/>
<path d="M14.7273 5.31832C14.7273 5.54424 14.5441 5.72731 14.3182 5.72731C14.0923 5.72731 13.9092 5.54424 13.9092 5.31832C13.9092 5.0924 14.0923 4.90918 14.3182 4.90918C14.5441 4.90918 14.7273 5.0924 14.7273 5.31832Z" fill="#1E70CE"/>
<path d="M16.3637 6.9544C16.3637 7.18032 16.1805 7.36354 15.9546 7.36354C15.7286 7.36354 15.5454 7.18032 15.5454 6.9544C15.5454 6.72848 15.7286 6.54541 15.9546 6.54541C16.1805 6.54541 16.3637 6.72848 16.3637 6.9544Z" fill="#1E70CE"/>
<path d="M14.7273 8.59103C14.7273 8.81696 14.5441 9.00018 14.3182 9.00018C14.0923 9.00018 13.9092 8.81696 13.9092 8.59103C13.9092 8.36511 14.0923 8.18188 14.3182 8.18188C14.5441 8.18188 14.7273 8.36511 14.7273 8.59103Z" fill="#1E70CE"/>
<path d="M13.0908 6.9544C13.0908 7.18032 12.9078 7.36354 12.6818 7.36354C12.4559 7.36354 12.2727 7.18032 12.2727 6.9544C12.2727 6.72848 12.4559 6.54541 12.6818 6.54541C12.9078 6.54541 13.0908 6.72848 13.0908 6.9544Z" fill="#1E70CE"/>
<path d="M11.4546 5.31832C11.4546 5.54424 11.2714 5.72731 11.0455 5.72731C10.8196 5.72731 10.6364 5.54424 10.6364 5.31832C10.6364 5.0924 10.8196 4.90918 11.0455 4.90918C11.2714 4.90918 11.4546 5.0924 11.4546 5.31832Z" fill="#1E70CE"/>
<path d="M6.54545 10.2275C6.54545 10.4534 6.36223 10.6365 6.13631 10.6365C5.91039 10.6365 5.72717 10.4534 5.72717 10.2275C5.72717 10.0016 5.91039 9.81836 6.13631 9.81836C6.36223 9.81836 6.54545 10.0016 6.54545 10.2275Z" fill="#F6766B"/>
<path d="M4.90907 8.59103C4.90907 8.81696 4.72585 9.00018 4.49993 9.00018C4.27401 9.00018 4.09094 8.81696 4.09094 8.59103C4.09094 8.36511 4.27401 8.18188 4.49993 8.18188C4.72585 8.18188 4.90907 8.36511 4.90907 8.59103Z" fill="#F6766B"/>
<path d="M8.18178 10.2275C8.18178 10.4534 7.99871 10.6365 7.77279 10.6365C7.54687 10.6365 7.36365 10.4534 7.36365 10.2275C7.36365 10.0016 7.54687 9.81836 7.77279 9.81836C7.99871 9.81836 8.18178 10.0016 8.18178 10.2275Z" fill="#F6766B"/>
<path d="M4.90907 10.2275C4.90907 10.4534 4.72585 10.6365 4.49993 10.6365C4.27401 10.6365 4.09094 10.4534 4.09094 10.2275C4.09094 10.0016 4.27401 9.81836 4.49993 9.81836C4.72585 9.81836 4.90907 10.0016 4.90907 10.2275Z" fill="#F6766B"/>
<path d="M9.81812 11.8636C9.81812 12.0895 9.6349 12.2727 9.40898 12.2727C9.18307 12.2727 9 12.0895 9 11.8636C9 11.6377 9.18307 11.4546 9.40898 11.4546C9.6349 11.4546 9.81812 11.6377 9.81812 11.8636Z" fill="#F6766B"/>
<path d="M8.18178 13.5002C8.18178 13.7261 7.99871 13.9093 7.77279 13.9093C7.54687 13.9093 7.36365 13.7261 7.36365 13.5002C7.36365 13.2743 7.54687 13.0911 7.77279 13.0911C7.99871 13.0911 8.18178 13.2743 8.18178 13.5002Z" fill="#F6766B"/>
<path d="M8.18178 11.8636C8.18178 12.0895 7.99871 12.2727 7.77279 12.2727C7.54687 12.2727 7.36365 12.0895 7.36365 11.8636C7.36365 11.6377 7.54687 11.4546 7.77279 11.4546C7.99871 11.4546 8.18178 11.6377 8.18178 11.8636Z" fill="#F6766B"/>
<path d="M6.54545 13.5002C6.54545 13.7261 6.36223 13.9093 6.13631 13.9093C5.91039 13.9093 5.72717 13.7261 5.72717 13.5002C5.72717 13.2743 5.91039 13.0911 6.13631 13.0911C6.36223 13.0911 6.54545 13.2743 6.54545 13.5002Z" fill="#F6766B"/>
<path d="M6.54545 11.8636C6.54545 12.0895 6.36223 12.2727 6.13631 12.2727C5.91039 12.2727 5.72717 12.0895 5.72717 11.8636C5.72717 11.6377 5.91039 11.4546 6.13631 11.4546C6.36223 11.4546 6.54545 11.6377 6.54545 11.8636Z" fill="#F6766B"/>
<path d="M9.81812 13.5002C9.81812 13.7261 9.6349 13.9093 9.40898 13.9093C9.18307 13.9093 9 13.7261 9 13.5002C9 13.2743 9.18307 13.0911 9.40898 13.0911C9.6349 13.0911 9.81812 13.2743 9.81812 13.5002Z" fill="#F6766B"/>
<path d="M9.81824 3.68185C9.81824 3.90776 9.63502 4.09099 9.40911 4.09099C9.18319 4.09099 9.00012 3.90776 9.00012 3.68185C9.00012 3.45593 9.18319 3.27271 9.40911 3.27271C9.63502 3.27271 9.81824 3.45593 9.81824 3.68185Z" fill="#1E70CE"/>
<path d="M14.7273 6.9544C14.7273 7.18032 14.5441 7.36354 14.3182 7.36354C14.0923 7.36354 13.9092 7.18032 13.9092 6.9544C13.9092 6.72848 14.0923 6.54541 14.3182 6.54541C14.5441 6.54541 14.7273 6.72848 14.7273 6.9544Z" fill="#1E70CE"/>
<path d="M16.3637 8.59103C16.3637 8.81696 16.1805 9.00018 15.9546 9.00018C15.7286 9.00018 15.5454 8.81696 15.5454 8.59103C15.5454 8.36511 15.7286 8.18188 15.9546 8.18188C16.1805 8.18188 16.3637 8.36511 16.3637 8.59103Z" fill="#1E70CE"/>
<path d="M13.0908 5.31832C13.0908 5.54424 12.9078 5.72731 12.6818 5.72731C12.4559 5.72731 12.2727 5.54424 12.2727 5.31832C12.2727 5.0924 12.4559 4.90918 12.6818 4.90918C12.9078 4.90918 13.0908 5.0924 13.0908 5.31832Z" fill="#1E70CE"/>
<path d="M11.4546 3.68185C11.4546 3.90776 11.2714 4.09099 11.0455 4.09099C10.8196 4.09099 10.6364 3.90776 10.6364 3.68185C10.6364 3.45593 10.8196 3.27271 11.0455 3.27271C11.2714 3.27271 11.4546 3.45593 11.4546 3.68185Z" fill="#1E70CE"/>
<path d="M9.81824 2.04547C9.81824 2.27138 9.63502 2.45461 9.40911 2.45461C9.18319 2.45461 9.00012 2.27138 9.00012 2.04547C9.00012 1.81955 9.18319 1.63647 9.40911 1.63647C9.63502 1.63647 9.81824 1.81955 9.81824 2.04547Z" fill="#1E70CE"/>
<path d="M14.7273 3.68185C14.7273 3.90776 14.5441 4.09099 14.3182 4.09099C14.0923 4.09099 13.9092 3.90776 13.9092 3.68185C13.9092 3.45593 14.0923 3.27271 14.3182 3.27271C14.5441 3.27271 14.7273 3.45593 14.7273 3.68185Z" fill="#1E70CE"/>
<path d="M16.3637 5.31832C16.3637 5.54424 16.1805 5.72731 15.9546 5.72731C15.7286 5.72731 15.5454 5.54424 15.5454 5.31832C15.5454 5.0924 15.7286 4.90918 15.9546 4.90918C16.1805 4.90918 16.3637 5.0924 16.3637 5.31832Z" fill="#1E70CE"/>
<path d="M13.0908 2.04547C13.0908 2.27138 12.9078 2.45461 12.6818 2.45461C12.4559 2.45461 12.2727 2.27138 12.2727 2.04547C12.2727 1.81955 12.4559 1.63647 12.6818 1.63647C12.9078 1.63647 13.0908 1.81955 13.0908 2.04547Z" fill="#1E70CE"/>
<path d="M3.39258 9.11984L5.84712 6.66528L6.4257 7.24372L3.97116 9.69827L3.39258 9.11984Z" fill="#FAB4AE"/>
<path d="M7.48352 5.02903L10.7562 1.75635L11.3348 2.33478L8.06195 5.60746L7.48352 5.02903Z" fill="#669EDE"/>
</g>
<defs>
<clipPath id="clip0_2:10631">
<rect width="18" height="18" fill="white"/>
</clipPath>
</defs>
</svg>
