<svg width="18" height="18" viewBox="0 0 18 18" fill="none" xmlns="http://www.w3.org/2000/svg">
<g clip-path="url(#clip0_2:10562)">
<path d="M13.0908 2.03264L14.7272 0.39624C16.5347 0.39624 17.9999 1.86156 17.9999 3.6689L16.3636 5.3053L13.0908 2.03264Z" fill="#1F1E3C"/>
<path d="M2.45453 14.3054L0 16.7599L2.45453 17.5781L4.09093 15.9417L2.45453 14.3054Z" fill="#4186D6"/>
<path d="M2.05493 16.8207L3.22317 15.6526L3.8016 16.231L2.63351 17.3991L2.05493 16.8207Z" fill="#0053B1"/>
<path d="M1.63635 14.3055L4.09088 16.7601L4.90901 15.9418H6.68579C7.11979 15.9418 7.53597 15.7695 7.84279 15.4625L8.99994 14.3055L4.09088 9.39648L2.93373 10.5535C2.62691 10.8605 2.45448 11.2766 2.45448 11.7106V13.4873L1.63635 14.3055Z" fill="#383751"/>
<path d="M4.66945 16.1813L3.51245 15.0245L4.23155 14.3054H6.68608L7.26466 13.7268L8.42151 14.8838L7.84308 15.4622C7.53537 15.7679 7.11979 15.9401 6.68608 15.9416H4.90915L4.66945 16.1813Z" fill="#1F1E3C"/>
<path d="M3.51248 10.4143L7.98214 14.8839C8.14393 15.0457 8.36611 15.1325 8.59472 15.1229C8.82333 15.1135 9.03757 15.0086 9.18528 14.8339L17.8064 4.76935C18.0813 4.44455 18.0612 3.9632 17.7604 3.66238L14.7342 0.636165C14.4332 0.335191 13.952 0.315266 13.6271 0.590022L3.56251 9.21114C3.38783 9.359 3.28311 9.57309 3.27353 9.8017C3.26409 10.0303 3.35068 10.2525 3.51248 10.4143Z" fill="#4186D6"/>
<path d="M4.42603 9.54779L7.85539 6.61206L8.38752 7.23363L4.95816 10.1694L4.42603 9.54779Z" fill="#A5C7EC"/>
<path d="M12.2724 7.75994C12.2724 8.66361 11.5398 9.39634 10.636 9.39634C9.73234 9.39634 8.99976 8.66361 8.99976 7.75994C8.99976 6.85627 9.73234 6.12354 10.636 6.12354C11.5398 6.12354 12.2724 6.85627 12.2724 7.75994Z" fill="#2C2B46"/>
<path d="M3.68178 13.487H2.86365V12.1895C2.86275 11.8638 2.99234 11.5514 3.2232 11.3218L3.80163 11.9002C3.72537 11.9772 3.68223 12.0812 3.68178 12.1895V13.487Z" fill="#605F74"/>
</g>
<defs>
<clipPath id="clip0_2:10562">
<rect width="18" height="18" fill="white"/>
</clipPath>
</defs>
</svg>
