<svg width="18" height="18" viewBox="0 0 18 18" fill="none" xmlns="http://www.w3.org/2000/svg">
<g clip-path="url(#clip0_2:10590)">
<path d="M4.24451 13.7553L2.47559 11.9863L1.88272 12.5792C1.70328 12.7586 1.56838 12.9777 1.48897 13.2187L0.0117389 17.6998C-0.0469367 17.8778 0.122024 18.0468 0.299984 17.988L4.78106 16.5109C5.02206 16.4314 5.24112 16.2965 5.42055 16.1171L6.01343 15.5242L4.24451 13.7553Z" fill="url(#paint0_linear_2:10590)"/>
<path d="M5.42059 15.3184C5.24115 15.4979 5.02213 15.6328 4.7811 15.7122L0.30002 17.1894C0.257867 17.2033 0.216348 17.204 0.178133 17.1954L0.0117389 17.7C-0.0469367 17.878 0.122024 18.047 0.299984 17.9883L4.78106 16.5111C5.02206 16.4316 5.24112 16.2968 5.42055 16.1173L6.01343 15.5244L5.61398 15.125L5.42059 15.3184Z" fill="url(#paint1_linear_2:10590)"/>
<path d="M5.30718 16.2305C5.46756 16.0701 5.54779 15.8596 5.54779 15.6491C5.54779 15.4394 5.46756 15.2289 5.30718 15.0685L5.28985 15.0512C5.09666 14.858 4.83144 14.7814 4.58078 14.8206C4.5156 14.8311 4.45499 14.8079 4.41309 14.766C4.37114 14.724 4.34836 14.6639 4.35842 14.5992C4.35796 14.5988 4.35842 14.5983 4.35842 14.5983C4.36116 14.5819 4.36295 14.5655 4.36478 14.5491C4.36524 14.5404 4.36612 14.5322 4.36661 14.5236C4.36795 14.5058 4.36844 14.488 4.36844 14.4698C4.36844 14.2602 4.28821 14.0496 4.12783 13.8893L4.1105 13.8719C4.10048 13.8619 4.09 13.8524 4.07952 13.8428C4.07088 13.835 4.06173 13.8268 4.05263 13.8195C4.0385 13.8072 4.02391 13.7963 4.00886 13.7858C4.00109 13.7799 3.99248 13.774 3.98425 13.7685C3.9724 13.7602 3.95964 13.7521 3.94691 13.7448C3.93461 13.738 3.92276 13.7316 3.91091 13.7252C3.89499 13.7165 3.87899 13.7088 3.86307 13.702C3.84988 13.696 3.83617 13.6906 3.82299 13.6855C3.81068 13.6805 3.79792 13.676 3.7847 13.6719C3.75233 13.6614 3.71907 13.6528 3.68535 13.6464C3.66943 13.6432 3.65392 13.6405 3.63842 13.6386C3.62249 13.6364 3.6065 13.635 3.59103 13.6341C3.5751 13.6328 3.5596 13.6318 3.54318 13.6318C3.52726 13.6314 3.51175 13.6314 3.49625 13.6323C3.46387 13.6336 3.4329 13.6364 3.40143 13.6414C3.33625 13.6519 3.27564 13.6286 3.23374 13.5867C3.1918 13.5448 3.16856 13.4842 3.17907 13.419C3.18589 13.3767 3.18909 13.3334 3.18909 13.2905C3.18909 13.0809 3.10886 12.8704 2.94848 12.71L2.93115 12.6927C2.61035 12.3719 2.08997 12.3719 1.76917 12.6927L11.764 2.69775L15.3019 6.23566L5.30718 16.2305Z" fill="url(#paint2_linear_2:10590)"/>
<path d="M14.1228 5.05641L4.41324 14.766C4.37129 14.7241 4.34851 14.664 4.35857 14.5993C4.35811 14.5988 4.35857 14.5984 4.35857 14.5984C4.36131 14.582 4.3631 14.5656 4.36493 14.5492C4.36539 14.5405 4.36627 14.5323 4.36676 14.5237C4.3681 14.5059 4.36859 14.4881 4.36859 14.4699C4.36859 14.2603 4.28836 14.0497 4.12798 13.8894L4.11065 13.872C4.10063 13.862 4.09015 13.8524 4.07967 13.8429C4.07103 13.8351 4.06189 13.8269 4.05278 13.8196C4.03865 13.8073 4.02406 13.7964 4.00901 13.7859C4.00078 13.7795 3.99263 13.774 3.9844 13.7686C3.97255 13.7603 3.95979 13.7522 3.94707 13.7449C3.93522 13.7385 3.92337 13.7312 3.91107 13.7253C3.89514 13.7166 3.87914 13.7089 3.86322 13.7021C3.85003 13.6961 3.83632 13.6907 3.82314 13.6856C3.81083 13.6806 3.79807 13.6761 3.78485 13.672C3.75248 13.6615 3.71922 13.6529 3.6855 13.6465C3.67046 13.6433 3.65453 13.641 3.63857 13.6387C3.62307 13.6369 3.6076 13.6351 3.59118 13.6342C3.57568 13.6324 3.55975 13.6319 3.54333 13.6319C3.52741 13.6315 3.51141 13.6319 3.4964 13.6324C3.46402 13.6337 3.43305 13.6364 3.40158 13.6415C3.3364 13.652 3.27579 13.6287 3.23389 13.5868L12.9435 3.8772L14.1228 5.05641Z" fill="url(#paint3_linear_2:10590)"/>
<path d="M11.7643 2.698L1.76941 12.6929C2.09021 12.3721 2.61059 12.3721 2.93139 12.6929L2.94872 12.7102C3.10911 12.8706 3.18933 13.0811 3.18933 13.2907C3.18933 13.3336 3.18613 13.3769 3.17931 13.4192C3.16884 13.4844 3.19207 13.545 3.23398 13.5869L12.9436 3.87731L11.7643 2.698Z" fill="url(#paint4_linear_2:10590)"/>
<path d="M16.512 5.02609L12.974 1.48815L14.0822 0.379924C14.5888 -0.126641 15.41 -0.126641 15.9166 0.379924L17.6202 2.08356C18.1268 2.59012 18.1268 3.41137 17.6202 3.9179L16.512 5.02609Z" fill="url(#paint5_linear_2:10590)"/>
<path d="M15.339 3.85309L16.5119 5.02597L17.6201 3.91771C18.1266 3.41121 18.1266 2.58996 17.6201 2.0834L17.3644 1.82764L15.339 3.85309Z" fill="url(#paint6_linear_2:10590)"/>
<path d="M16.6701 4.86802L13.1321 1.33008L11.764 2.69811L15.302 6.23605L16.6701 4.86802Z" fill="url(#paint7_linear_2:10590)"/>
<path d="M15.758 5.77992L12.22 2.24194L11.764 2.69795L15.302 6.2359L15.758 5.77992Z" fill="url(#paint8_linear_2:10590)"/>
<path d="M14.7174 6.82041L11.1794 3.28247L11.764 2.698L15.3019 6.23594L14.7174 6.82041Z" fill="url(#paint9_linear_2:10590)"/>
<path d="M16.2141 5.32387L12.6761 1.78589L12.2201 2.24193L15.7581 5.77991L16.2141 5.32387Z" fill="url(#paint10_linear_2:10590)"/>
<path d="M0.386237 16.5649L0.0121051 17.7C-0.0465705 17.8779 0.12239 18.0469 0.300351 17.9882L1.43537 17.6141L0.386237 16.5649Z" fill="url(#paint11_linear_2:10590)"/>
<path d="M16.6699 4.86795L15.4971 3.69507L14.129 5.0631L15.3019 6.23598L16.6699 4.86795Z" fill="url(#paint12_linear_2:10590)"/>
<path d="M14.8761 3.07428L13.7032 1.90137L12.3352 3.2694L13.5081 4.44232L14.8761 3.07428Z" fill="url(#paint13_linear_2:10590)"/>
</g>
<defs>
<linearGradient id="paint0_linear_2:10590" x1="4.72509" y1="18.4131" x2="-1.05345" y2="12.6345" gradientUnits="userSpaceOnUse">
<stop stop-color="#FFCF95"/>
<stop offset="0.054" stop-color="#FED19A"/>
<stop offset="1" stop-color="#E8EFEE"/>
</linearGradient>
<linearGradient id="paint1_linear_2:10590" x1="2.9525" y1="16.5157" x2="3.25251" y2="17.3558" gradientUnits="userSpaceOnUse">
<stop stop-color="#C69C6D" stop-opacity="0"/>
<stop offset="1" stop-color="#754C24"/>
</linearGradient>
<linearGradient id="paint2_linear_2:10590" x1="10.8617" y1="11.7897" x2="7.73074" y2="8.65873" gradientUnits="userSpaceOnUse">
<stop stop-color="#FF9102"/>
<stop offset="1" stop-color="#FFC200"/>
</linearGradient>
<linearGradient id="paint3_linear_2:10590" x1="8.06643" y1="8.70906" x2="9.25859" y2="9.90122" gradientUnits="userSpaceOnUse">
<stop stop-color="#FFCF95"/>
<stop offset="0.427" stop-color="#FFC954"/>
<stop offset="1" stop-color="#FFC200"/>
</linearGradient>
<linearGradient id="paint4_linear_2:10590" x1="7.16125" y1="8.08928" x2="7.93453" y2="8.86255" gradientUnits="userSpaceOnUse">
<stop stop-color="#FFCF95"/>
<stop offset="0.427" stop-color="#FFC954"/>
<stop offset="1" stop-color="#FFC200"/>
</linearGradient>
<linearGradient id="paint5_linear_2:10590" x1="16.3283" y1="1.67148" x2="15.0181" y2="2.98206" gradientUnits="userSpaceOnUse">
<stop stop-color="#D63305"/>
<stop offset="0.366" stop-color="#CF3004"/>
<stop offset="0.899" stop-color="#BC2602"/>
<stop offset="1" stop-color="#B72401"/>
</linearGradient>
<linearGradient id="paint6_linear_2:10590" x1="17.464" y1="3.9514" x2="16.7751" y2="3.26288" gradientUnits="userSpaceOnUse">
<stop stop-color="#960000"/>
<stop offset="0.331" stop-color="#9C0700" stop-opacity="0.669"/>
<stop offset="0.812" stop-color="#AE1A01" stop-opacity="0.188"/>
<stop offset="1" stop-color="#B72401" stop-opacity="0"/>
</linearGradient>
<linearGradient id="paint7_linear_2:10590" x1="14.8851" y1="3.11552" x2="14.4065" y2="3.59366" gradientUnits="userSpaceOnUse">
<stop stop-color="white"/>
<stop offset="1" stop-color="#E8EFEE"/>
</linearGradient>
<linearGradient id="paint8_linear_2:10590" x1="13.8976" y1="4.10232" x2="13.5859" y2="4.41395" gradientUnits="userSpaceOnUse">
<stop stop-color="white"/>
<stop offset="1" stop-color="#E8EFEE"/>
</linearGradient>
<linearGradient id="paint9_linear_2:10590" x1="12.8377" y1="5.16213" x2="13.6432" y2="4.35661" gradientUnits="userSpaceOnUse">
<stop stop-color="#FFC200" stop-opacity="0"/>
<stop offset="0.203" stop-color="#FFBB00" stop-opacity="0.203"/>
<stop offset="0.499" stop-color="#FFA700" stop-opacity="0.499"/>
<stop offset="0.852" stop-color="#FF8800" stop-opacity="0.852"/>
<stop offset="1" stop-color="#FF7800"/>
</linearGradient>
<linearGradient id="paint10_linear_2:10590" x1="14.4139" y1="3.58583" x2="14.0037" y2="3.99646" gradientUnits="userSpaceOnUse">
<stop stop-color="white"/>
<stop offset="1" stop-color="#E8EFEE"/>
</linearGradient>
<linearGradient id="paint11_linear_2:10590" x1="0.862148" y1="17.1381" x2="0.110663" y2="17.8892" gradientUnits="userSpaceOnUse">
<stop stop-color="#363F3E"/>
<stop offset="1" stop-color="#303033"/>
</linearGradient>
<linearGradient id="paint12_linear_2:10590" x1="15.2646" y1="4.82969" x2="16.1898" y2="5.75522" gradientUnits="userSpaceOnUse">
<stop stop-color="#C2CECE" stop-opacity="0"/>
<stop offset="0.179" stop-color="#AFBCBC" stop-opacity="0.179"/>
<stop offset="1" stop-color="#5B6A6A"/>
</linearGradient>
<linearGradient id="paint13_linear_2:10590" x1="13.1109" y1="2.67618" x2="14.0361" y2="3.60134" gradientUnits="userSpaceOnUse">
<stop stop-color="#C2CECE" stop-opacity="0"/>
<stop offset="0.55" stop-color="#C2CECE"/>
<stop offset="1" stop-color="#C2CECE" stop-opacity="0"/>
</linearGradient>
<clipPath id="clip0_2:10590">
<rect width="18" height="18" fill="white"/>
</clipPath>
</defs>
</svg>
