<svg width="18" height="18" viewBox="0 0 18 18" fill="none" xmlns="http://www.w3.org/2000/svg">
<g clip-path="url(#clip0_2:10606)">
<path d="M0.0135498 17.1818L0.831652 18.0001C2.46801 16.3637 5.74056 16.3637 5.74056 16.3637L7.37692 11.4548L6.55881 10.6367L1.6499 12.2729C1.6499 12.2729 1.6499 15.5456 0.0135498 17.1818Z" fill="#C7C7CE"/>
<path d="M1.10587 17.753L0.588135 17.1194C2.01191 15.9561 4.07956 15.6512 5.1423 15.5721L6.44054 11.6756L6.15935 11.394L6.73776 10.8154L7.37699 11.4551L5.74228 16.3583L5.46259 16.372C4.79789 16.4039 2.51916 16.5989 1.10587 17.753Z" fill="#A7A7B2"/>
<path d="M16.8151 0.000732422C16.5318 0.000732422 16.2576 0.101254 16.0415 0.284169L5.74034 9.00045V9.81855L4.92224 10.6368L7.3767 13.0913L8.1948 12.273H9.01305L17.7293 1.97206C17.9123 1.75573 18.0126 1.48174 18.0126 1.19845C18.0126 0.537045 17.4765 0.000732422 16.8151 0.000732422Z" fill="#2C2B46"/>
<path d="M7.95516 12.5124L6.79834 11.3555L7.51742 10.6365H8.25402L16.0992 1.36468L15.5414 0.706273L16.0409 0.283664C16.5164 -0.119319 17.2215 -0.0901068 17.6623 0.350928C18.1029 0.791814 18.1316 1.49696 17.7283 1.9723L9.0131 12.2727H8.19485L7.95516 12.5124ZM16.4795 0.914506C16.4795 0.914806 16.4795 0.915255 16.4786 0.915705L16.4795 0.914506Z" fill="#1F1E3C"/>
<path d="M4.92224 10.6366L5.74034 9.81836L8.1948 12.2728L7.3767 13.0911L4.92224 10.6366Z" fill="#9A9AA7"/>
<path d="M6.55884 12.2729L7.37694 11.4548L8.19504 12.2729L7.37694 13.0912L6.55884 12.2729Z" fill="#605F74"/>
<path d="M4.10425 14.7273C4.10425 15.1793 3.73782 15.5455 3.286 15.5455C2.83418 15.5455 2.4679 15.1793 2.4679 14.7273C2.4679 14.2755 2.83418 13.9092 3.286 13.9092C3.73782 13.9092 4.10425 14.2755 4.10425 14.7273Z" fill="#2C2B46"/>
<path d="M0.133301 17.3017L2.99688 14.4382L3.57529 15.0166L0.71171 17.8802L0.133301 17.3017Z" fill="#2C2B46"/>
<path d="M2.74756 13.1127L5.20186 12.2937L5.46073 13.0696L3.00643 13.8884L2.74756 13.1127Z" fill="#F6F8FD"/>
<path d="M7.51416 8.28559L14.8775 1.74048L15.4209 2.3517L8.05751 8.89681L7.51416 8.28559Z" fill="#605F74"/>
</g>
<defs>
<clipPath id="clip0_2:10606">
<rect width="18" height="18" fill="white"/>
</clipPath>
</defs>
</svg>
