<svg width="18" height="18" viewBox="0 0 18 18" fill="none" xmlns="http://www.w3.org/2000/svg">
<path d="M0.170616 17.0134L1.46587 15.718C1.69142 15.4924 2.05711 15.4924 2.28266 15.718C2.50836 15.9437 2.50836 16.3094 2.28266 16.5349L0.987405 17.8302C0.761857 18.0557 0.396164 18.0557 0.170616 17.8302C-0.0550816 17.6046 -0.0550816 17.2389 0.170616 17.0134Z" fill="#9A9AA7"/>
<path d="M7.76046 6.97217L1.90668 13.5147C1.20521 14.2987 0.817383 15.3139 0.817383 16.3659L1.63417 17.1827C2.68623 17.1827 3.70134 16.7949 4.48538 16.0934L11.0279 10.2396L7.76046 6.97217Z" fill="#2C2B46"/>
<path d="M2.03385 17.1638L1.88159 15.5373C2.44441 15.486 2.97568 15.254 3.39596 14.876L9.29491 9.59766L10.3845 10.815L4.48556 16.0932C3.80518 16.7051 2.94517 17.0805 2.03385 17.1638Z" fill="#1F1E3C"/>
<path d="M13.0699 0.845805L5.95754 7.95819C5.63866 8.27722 5.63866 8.79443 5.95754 9.1133L8.88667 12.0423C9.20555 12.3613 9.72275 12.3613 10.0418 12.0423L17.1542 4.93005C18.2819 3.80231 18.2819 1.97369 17.1542 0.845805H17.154C16.0263 -0.281935 14.1977 -0.281935 13.0699 0.845805Z" fill="#383751"/>
<path d="M7.59155 8.43674L10.8589 5.16943L12.014 6.32454L8.74651 9.59185L7.59155 8.43674Z" fill="#4E4D64"/>
<path d="M11.6755 4.35262L14.1261 1.9021L15.2812 3.05706L12.8306 5.50758L11.6755 4.35262Z" fill="#4E4D64"/>
<path d="M10.042 12.0422L8.88684 10.8871L15.9991 3.77483C16.488 3.28455 16.488 2.4911 15.9991 2.00081L17.1542 0.845703C18.2801 1.97434 18.2801 3.80131 17.1542 4.92995L10.042 12.0422Z" fill="#1F1E3C"/>
<path d="M7.35205 6.56376L8.16884 5.74683L12.2531 9.83107L11.4361 10.6479L7.35205 6.56376Z" fill="#787889"/>
<path d="M11.8446 2.07094L12.6614 1.25415L16.7456 5.33839L15.9289 6.15518L11.8446 2.07094Z" fill="#787889"/>
<path d="M14.7037 4.92983L15.5205 4.11304L16.7458 5.33829L15.929 6.15508L14.7037 4.92983Z" fill="#605F74"/>
<path d="M11.8446 2.07094L12.6614 1.25415L13.8867 2.47941L13.0699 3.2962L11.8446 2.07094Z" fill="#605F74"/>
<path d="M6.9436 6.15517L7.76039 5.33838L8.98565 6.56364L8.16886 7.38042L6.9436 6.15517Z" fill="#605F74"/>
<path d="M10.2109 9.4225L11.0279 8.60571L12.2531 9.83097L11.4362 10.6478L10.2109 9.4225Z" fill="#605F74"/>
<path d="M11.0977 2.00096L7.35915 5.73955L7.36648 5.74673H7.35197C6.90985 6.18886 6.61072 6.76634 6.53503 7.38046H7.35197L8.98555 6.56367V5.74673L11.4361 3.29622H12.253L13.8866 1.66264V0.845703C12.8407 0.845703 11.8374 1.2612 11.0977 2.00096Z" fill="#C7C7CE"/>
<path d="M2.16211 14.4433L5.42941 11.176L6.00704 11.7535L2.73959 15.021L2.16211 14.4433Z" fill="#4E4D64"/>
</svg>
