<svg width="16" height="13" viewBox="0 0 16 13" fill="none" xmlns="http://www.w3.org/2000/svg">
<path d="M4.5 7.5L1 10.5L0.5 11.5L1.5 12H14.5L15 11.5V9.5L10.5 4.5L6.5 9L4.5 7.5Z" fill="#4086F1"/>
<path d="M14.0249 12.4666H1.55832C0.698908 12.4666 0 11.7677 0 10.9083V1.55832C0 0.698908 0.698908 0 1.55832 0H14.0249C14.8843 0 15.5832 0.698908 15.5832 1.55832V10.9083C15.5832 11.7677 14.8843 12.4666 14.0249 12.4666ZM1.55832 0.779162C1.12901 0.779162 0.779162 1.12901 0.779162 1.55832V10.9083C0.779162 11.3376 1.12901 11.6874 1.55832 11.6874H14.0249C14.4542 11.6874 14.8041 11.3376 14.8041 10.9083V1.55832C14.8041 1.12901 14.4542 0.779162 14.0249 0.779162H1.55832Z" fill="#4086F1"/>
<path d="M3.89585 5.45405C3.03643 5.45405 2.33752 4.75514 2.33752 3.89573C2.33752 3.03631 3.03643 2.3374 3.89585 2.3374C4.75526 2.3374 5.45417 3.03631 5.45417 3.89573C5.45417 4.75514 4.75526 5.45405 3.89585 5.45405ZM3.89585 3.11656C3.46653 3.11656 3.11669 3.46641 3.11669 3.89573C3.11669 4.32504 3.46653 4.67489 3.89585 4.67489C4.32517 4.67489 4.67501 4.32504 4.67501 3.89573C4.67501 3.46641 4.32517 3.11656 3.89585 3.11656Z" fill="#4086F1"/>
<path d="M0.445074 11.633C0.345341 11.633 0.245608 11.5948 0.16925 11.5192C0.0173137 11.3673 0.0173137 11.1203 0.16925 10.9684L3.84923 7.28839C4.29024 6.84739 5.06083 6.84739 5.50183 7.28839L6.59733 8.38389L9.62983 4.74521C9.85034 4.48107 10.1745 4.32758 10.5196 4.32446H10.5282C10.8695 4.32446 11.1928 4.4725 11.4157 4.73196L15.4907 9.48641C15.6309 9.64925 15.6122 9.89547 15.4486 10.0357C15.2858 10.176 15.0403 10.158 14.8993 9.99364L10.8243 5.2392C10.7487 5.15193 10.6443 5.10362 10.5282 5.10362C10.4472 5.09661 10.3046 5.15271 10.229 5.24387L6.92302 9.21058C6.8529 9.29473 6.75083 9.34538 6.64097 9.35005C6.53033 9.35784 6.42514 9.31421 6.348 9.2363L4.95097 7.83926C4.8037 7.69278 4.54736 7.69278 4.4001 7.83926L0.720117 11.5192C0.644539 11.5948 0.544806 11.633 0.445074 11.633Z" fill="#4086F1"/>
</svg>
