<svg width="21" height="20" viewBox="0 0 21 20" fill="none" xmlns="http://www.w3.org/2000/svg">
<g clip-path="url(#clip0_2_11007)">
<path d="M9.31927 0.0241089C4.45637 0.0241089 0.5 3.96966 0.5 8.81932C0.5 13.669 4.45641 17.6145 9.31927 17.6145C14.1821 17.6145 18.1386 13.669 18.1386 8.81932C18.1386 3.96966 14.1822 0.0241089 9.31927 0.0241089ZM9.31927 16.1687C5.25349 16.1687 1.94578 12.8716 1.94578 8.81928C1.94578 4.76674 5.25349 1.46985 9.31927 1.46985C13.3851 1.46985 16.6928 4.76674 16.6928 8.81928C16.6928 12.8716 13.3851 16.1687 9.31927 16.1687Z" fill="#8C8C8C"/>
<path d="M20.2871 18.7405L15.5401 14.0176C15.257 13.7362 14.7994 13.7374 14.5177 14.0203C14.2362 14.3034 14.2374 14.761 14.5203 15.0427L19.2673 19.7656C19.4085 19.9058 19.5926 19.9759 19.7772 19.9759C19.963 19.9759 20.1485 19.9049 20.2898 19.7629C20.5712 19.4798 20.57 19.0222 20.2871 18.7405Z" fill="#8C8C8C"/>
</g>
<defs>
<clipPath id="clip0_2_11007">
<rect width="20" height="20" fill="white" transform="translate(0.5)"/>
</clipPath>
</defs>
</svg>
