<svg width="21" height="20" viewBox="0 0 21 20" fill="none" xmlns="http://www.w3.org/2000/svg">
<g clip-path="url(#clip0_2_10995)">
<path d="M5.77515 7.70031H6.94702V6.71875H9.91382V13.3925H8.89835V14.5644H12.1012V13.3925H11.0857V6.71875H14.0525V7.70031H15.2244V5.54688H5.77515V7.70031Z" fill="#8C8C8C"/>
<path d="M19.1035 15.6643V4.33574C19.9221 3.99805 20.5 3.19172 20.5 2.25262C20.5 1.01051 19.4895 0 18.2474 0C17.3083 0 16.502 0.577852 16.1643 1.39648H4.83574C4.49805 0.577852 3.69172 0 2.75262 0C1.51051 0 0.5 1.01051 0.5 2.25262C0.5 3.19172 1.07785 3.99809 1.89648 4.33578V15.6643C1.07785 16.002 0.5 16.8083 0.5 17.7474C0.5 18.9895 1.51051 20 2.75262 20C3.69172 20 4.49805 19.4221 4.83574 18.6035H16.1643C16.502 19.4221 17.3083 20 18.2474 20C19.4895 20 20.5 18.9895 20.5 17.7474C20.5 16.8083 19.9221 16.002 19.1035 15.6643ZM16.0174 17.4316H4.98262C4.84309 16.4418 4.05816 15.6569 3.06836 15.5174V4.48262C4.05816 4.34312 4.84309 3.55816 4.98262 2.56836H16.0174C16.1569 3.5582 16.9418 4.34312 17.9316 4.48262V15.5173C16.9418 15.6569 16.1569 16.4418 16.0174 17.4316ZM18.2474 1.17188C18.8433 1.17188 19.3281 1.65668 19.3281 2.25262C19.3281 2.84855 18.8433 3.33336 18.2474 3.33336C17.6515 3.33336 17.1667 2.84855 17.1667 2.25262C17.1667 1.65668 17.6515 1.17188 18.2474 1.17188ZM2.75262 1.17188C3.34852 1.17188 3.83332 1.65668 3.83332 2.25262C3.83332 2.84855 3.34852 3.33336 2.75262 3.33336C2.15668 3.33332 1.67188 2.84852 1.67188 2.25262C1.67188 1.65668 2.15668 1.17188 2.75262 1.17188ZM2.75262 18.8281C2.15668 18.8281 1.67188 18.3433 1.67188 17.7474C1.67188 17.1514 2.15668 16.6666 2.75262 16.6666C3.34852 16.6666 3.83332 17.1514 3.83332 17.7474C3.83332 18.3433 3.34852 18.8281 2.75262 18.8281ZM18.2474 18.8281C17.6515 18.8281 17.1667 18.3433 17.1667 17.7474C17.1667 17.1514 17.6515 16.6666 18.2474 16.6666C18.8433 16.6666 19.3281 17.1514 19.3281 17.7474C19.3281 18.3433 18.8433 18.8281 18.2474 18.8281Z" fill="#8C8C8C"/>
</g>
<defs>
<clipPath id="clip0_2_10995">
<rect width="20" height="20" fill="white" transform="translate(0.5)"/>
</clipPath>
</defs>
</svg>
