<?xml version="1.0" encoding="utf-8"?>
<svg width="19px" height="17px" viewBox="0 0 19 17" version="1.1" xmlns:xlink="http://www.w3.org/1999/xlink" xmlns="http://www.w3.org/2000/svg">
  <g id="folder-2">
    <path d="M8.28906 2.13889L6.84594 0.16775L6.72344 0L0 0L0 16.1944L18.75 16.1944L18.75 2.13889L8.28906 2.13889Z" transform="translate(0 0.15277778)" id="Path" fill="#FFFFFF" stroke="none" />
    <path d="M0 14.9722L0 0L5.77656 0L7.33906 2.13889L7.34281 2.13889L8.80844 4.14058C8.86938 4.22369 8.965 4.268 9.0625 4.26831L9.0625 4.27778L17.5 4.27778L17.5 14.9722L0 14.9722Z" transform="translate(0.625 0.7638889)" id="Path" fill="#FFFFFF" stroke="none" />
    <path d="M9.38844 0L9.38844 1.52778L1.11844 1.52778L0 0L9.38844 0Z" transform="translate(8.736563 2.9027777)" id="Path" fill="#4086F1" stroke="none" />
  </g>
</svg>