<?xml version="1.0" encoding="utf-8"?>
<svg width="16px" height="16px" viewBox="0 0 16 16" version="1.1" xmlns:xlink="http://www.w3.org/1999/xlink" xmlns="http://www.w3.org/2000/svg">
  <g id="Group-26" transform="translate(0.4326172 0.4326172)">
    <path d="M7.5 0C3.36462 0 0 3.36433 0 7.5C0 11.6357 3.36462 15 7.5 15C11.6354 15 15 11.6357 15 7.5C15 3.36433 11.6354 0 7.5 0Z" id="Shape" fill="#4086F1" fill-rule="evenodd" stroke="#FFFFFF" stroke-width="0.86538464" />
    <path d="M7.78846 4.61539L4.75962 4.61539L4.75962 7.78846C4.75962 8.10692 4.50115 8.36539 4.18269 8.36539C3.86423 8.36539 3.60577 8.10692 3.60577 7.78846L3.60577 4.61539L0.576923 4.61539C0.258462 4.61539 0 4.35692 0 4.03846C0 3.72 0.258462 3.46154 0.576923 3.46154L3.60577 3.46154L3.60577 0.576923C3.60577 0.258462 3.86423 0 4.18269 0C4.50115 0 4.75962 0.258462 4.75962 0.576923L4.75962 3.46154L7.78846 3.46154C8.10692 3.46154 8.36539 3.72 8.36539 4.03846C8.36539 4.35692 8.10692 4.61539 7.78846 4.61539Z" transform="translate(3.3173828 3.4614258)" id="Path" fill="#FFFFFF" stroke="#FFFFFF" stroke-width="0.86538464" />
  </g>
</svg>