<svg width="20" height="20" viewBox="0 0 20 20" fill="none" xmlns="http://www.w3.org/2000/svg">
<path d="M10 0C4.48615 0 0 4.48577 0 10C0 15.5142 4.48615 20 10 20C15.5138 20 20 15.5142 20 10C20 4.48577 15.5138 0 10 0Z" fill="white"/>
<path d="M14.808 10.7693H10.7695V15.0001C10.7695 15.4247 10.4249 15.7693 10.0003 15.7693C9.57565 15.7693 9.23103 15.4247 9.23103 15.0001V10.7693H5.19257C4.76796 10.7693 4.42334 10.4247 4.42334 10.0001C4.42334 9.57548 4.76796 9.23086 5.19257 9.23086H9.23103V5.38471C9.23103 4.96009 9.57565 4.61548 10.0003 4.61548C10.4249 4.61548 10.7695 4.96009 10.7695 5.38471V9.23086H14.808C15.2326 9.23086 15.5772 9.57548 15.5772 10.0001C15.5772 10.4247 15.2326 10.7693 14.808 10.7693Z" fill="#4086F1" stroke="white" stroke-width="0.1"/>
</svg>
