<?xml version="1.0" encoding="UTF-8"?>
<svg width="76px" height="76px" viewBox="0 0 76 76" version="1.1" xmlns="http://www.w3.org/2000/svg" xmlns:xlink="http://www.w3.org/1999/xlink">
    <title>down-arrow-2</title>
    <g id="Page-1" stroke="none" stroke-width="1" fill="none" fill-rule="evenodd">
        <g id="1,1-Отправить-файл" transform="translate(-682.000000, -311.000000)" fill="#FFFFFF" fill-rule="nonzero">
            <g id="Место-для-загрузки" transform="translate(588.750000, 240.000000)">
                <g id="down-arrow-2" transform="translate(93.750000, 71.250000)">
                    <path d="M74.9083503,37.4541752 C74.9083503,16.802444 58.1059063,0 37.4541752,0 C16.802444,0 0,16.802444 0,37.4541752 C0,58.1059063 16.802444,74.9083503 37.4541752,74.9083503 C58.1059063,74.9083503 74.9083503,58.1059063 74.9083503,37.4541752 Z M3.74236253,37.4541752 C3.74236253,18.8645621 18.8645621,3.74236253 37.4541752,3.74236253 C56.0437882,3.74236253 71.1659878,18.8645621 71.1659878,37.4541752 C71.1659878,56.0437882 56.0437882,71.1659878 37.4541752,71.1659878 C18.8645621,71.1659878 3.74236253,56.0437882 3.74236253,37.4541752 Z" id="Shape"></path>
                    <path d="M38.7830957,55.0509165 L49.3075356,44.5264766 C50.0407332,43.793279 50.0407332,42.6171079 49.3075356,41.8839104 C48.5743381,41.1507128 47.398167,41.1507128 46.6649695,41.8839104 L39.3329939,49.2158859 L39.3329939,21.1863544 C39.3329939,20.1476578 38.4928717,19.3075356 37.4541752,19.3075356 C36.4154786,19.3075356 35.5753564,20.1476578 35.5753564,21.1863544 L35.5753564,49.200611 L28.2433809,41.8686354 C27.5101833,41.1354379 26.3340122,41.1354379 25.6008147,41.8686354 C24.8676171,42.601833 24.8676171,43.7780041 25.6008147,44.5112016 L36.1252546,55.0356415 C36.4918534,55.4022403 36.9653768,55.5855397 37.4541752,55.5855397 C37.9429735,55.5855397 38.4164969,55.4175153 38.7830957,55.0509165 Z" id="Path"></path>
                </g>
            </g>
        </g>
    </g>
</svg>