<?xml version="1.0" encoding="UTF-8"?>
<svg width="25px" height="25px" viewBox="0 0 25 25" version="1.1" xmlns="http://www.w3.org/2000/svg" xmlns:xlink="http://www.w3.org/1999/xlink">
    <title>download-4</title>
    <g id="Page-1" stroke="none" stroke-width="1" fill="none" fill-rule="evenodd">
        <g id="1-Стартовая-страница-вар-2-" transform="translate(-647.000000, -758.000000)" fill="#4086F1" fill-rule="nonzero">
            <g id="Group-2" transform="translate(581.000000, 747.000000)">
                <g id="download-4" transform="translate(66.000000, 11.000000)">
                    <path d="M23.6366211,1.36342773 C22.7574219,0.484228516 21.5884277,0 20.3450195,0 L4.65498047,0 C2.08818359,0 0,2.08833008 0,4.65493164 L0,20.3450195 C0,22.9117676 2.08828125,25 4.65498047,25 L20.3450195,25 C22.9117676,25 25,22.9117676 25,20.3450195 L25,4.6550293 C25,3.41162109 24.5158203,2.24262695 23.6366211,1.36342773 Z M19.5605957,18.828125 C19.9650391,18.828125 20.2930176,19.1560547 20.2930176,19.5605469 C20.2930176,19.9650391 19.9650879,20.2929688 19.5606445,20.2929688 L5.43945312,20.2929688 C5.03500977,20.2929688 4.70703125,19.9650391 4.70703125,19.5605469 C4.70703125,19.1560547 5.03500977,18.828125 5.43945312,18.828125 L19.5605957,18.828125 Z M12.4999512,4.70698242 C12.6941895,4.70698242 12.8804687,4.78413086 13.0178711,4.9215332 L13.0178711,4.9215332 L16.9009766,8.80473633 C17.1869629,9.09077148 17.1869629,9.55454102 16.9009277,9.84052734 C16.6148926,10.1265137 16.151123,10.1265137 15.8651367,9.84052734 L15.8651367,9.84052734 L13.2324219,7.20771484 L13.2323242,15.0208496 C13.2323242,15.4253418 12.9044434,15.7532715 12.4999023,15.7532715 C12.0954102,15.7532715 11.7674805,15.4253418 11.7674805,15.0208496 L11.7674805,15.0208496 L11.7675781,7.20751953 L9.13466797,9.84042969 C8.84858398,10.126416 8.38486328,10.126416 8.09887695,9.84042969 C7.8128418,9.55439453 7.8128418,9.090625 8.09897461,8.80463867 L8.09897461,8.80463867 L11.9821289,4.9215332 C12.1194336,4.78413086 12.3057617,4.70698242 12.4999512,4.70698242 Z" id="Shape"></path>
                </g>
            </g>
        </g>
    </g>
</svg>