<?xml version="1.0" encoding="UTF-8"?>
<svg width="22px" height="14px" viewBox="0 0 22 14" version="1.1" xmlns="http://www.w3.org/2000/svg" xmlns:xlink="http://www.w3.org/1999/xlink">
    <title>eye</title>
    <g id="Page-1" stroke="none" stroke-width="1" fill="none" fill-rule="evenodd">
        <g id="3-Ğ’Ñ…Ğ¾Ğ´" transform="translate(-894.000000, -442.000000)" fill="#B4B4B4" fill-rule="nonzero">
            <g id="Group-4" transform="translate(492.000000, 244.000000)">
                <g id="eye" transform="translate(402.111193, 198.656112)">
                    <path d="M10.0208574,0.0300645398 C6.19167431,0.0300645398 2.71917099,2.14909624 0.156816118,5.59096769 C-0.0522720394,5.87295234 -0.0522720394,6.26690149 0.156816118,6.54888614 C2.71917099,9.99490442 6.19167431,12.1139361 10.0208574,12.1139361 C13.8500405,12.1139361 17.3225439,9.99490442 19.8848987,6.55303297 C20.0939869,6.27104832 20.0939869,5.87709918 19.8848987,5.59511453 C17.3225439,2.14909624 13.8500405,0.0300645398 10.0208574,0.0300645398 Z M10.2955419,10.3266511 C7.75368584,10.4883776 5.65460473,8.36934586 5.81449567,5.79416252 C5.94568824,3.67098398 7.64709188,1.95004825 9.74617299,1.8173496 C12.288029,1.65562311 14.3871101,3.77465481 14.2272192,6.34983815 C14.0919268,8.46886985 12.3905232,10.1898056 10.2955419,10.3266511 Z M10.1684491,8.36105219 C8.79912663,8.44813568 7.66759071,7.30775659 7.75778561,5.92271434 C7.82748166,4.77818841 8.74582964,3.85344464 9.87736555,3.77880164 C11.246688,3.69171815 12.3782239,4.83209724 12.288029,6.21713949 C12.2142332,7.36581225 11.2958852,8.29055603 10.1684491,8.36105219 Z" id="Shape"></path>
                </g>
            </g>
        </g>
    </g>
</svg>