<svg width="20" height="20" viewBox="0 0 20 20" fill="none" xmlns="http://www.w3.org/2000/svg">
<path d="M8.97433 0L8.64376 0.0222857C4.04269 0.336143 0.336143 4.04269 0.0225952 8.64376L0 8.97433H8.97433V0Z" fill="#4086F1"/>
<path d="M17.0388 3.94516C15.4036 2.04624 13.1305 0.906879 10.6382 0.736641L10.3076 0.714355V10.3077H0.714233L0.736829 10.6383C0.874257 12.6536 1.64714 14.5296 2.97221 16.064C3.09107 16.2014 3.22416 16.3385 3.404 16.5084L3.87602 16.9545C4.05616 17.125 4.2004 17.25 4.34402 17.3602C5.97861 18.6185 7.93388 19.2839 9.99809 19.2839C10.2414 19.2839 10.4884 19.2743 10.7326 19.2555C15.2256 18.9091 18.8882 15.2626 19.2522 10.773C19.4559 8.26457 18.6697 5.83945 17.0388 3.94516Z" fill="#4086F1"/>
</svg>
