<svg width="38" height="38" viewBox="0 0 38 38" fill="none" xmlns="http://www.w3.org/2000/svg">
<g clip-path="url(#clip0)">
<path d="M34.8333 7.91668H26.9167V6.3333C26.9167 4.58686 25.4965 3.16661 23.75 3.16661H14.25C12.5036 3.16661 11.0833 4.58679 11.0833 6.3333V7.91661H3.16669C1.42018 7.91668 0 9.33686 0 11.0833V15.8333C0 17.5798 1.42018 19 3.16669 19H15.8334V18.2083C15.8334 17.7707 16.1875 17.4166 16.6251 17.4166H21.3751C21.8127 17.4166 22.1668 17.7707 22.1668 18.2083V19H34.8335C36.5798 19 38 17.5798 38 15.8333V11.0833C38 9.33686 36.5798 7.91668 34.8333 7.91668ZM23.75 7.91668H14.25V6.3333H23.75V7.91668Z" fill="#4086F1"/>
<path d="M37.5608 19.8543C37.2911 19.7205 36.9687 19.7515 36.7305 19.9323C36.1677 20.3583 35.512 20.5833 34.8332 20.5833H22.1667V22.9583C22.1667 23.3959 21.8126 23.75 21.375 23.75H16.625C16.1874 23.75 15.8333 23.3959 15.8333 22.9583V20.5833H3.16669C2.48789 20.5833 1.83231 20.3583 1.26944 19.9323C1.03053 19.7499 0.708937 19.719 0.439078 19.8543C0.170109 19.9881 0 20.2625 0 20.5633V31.6667C0 33.4131 1.42018 34.8334 3.16669 34.8334H34.8334C36.5798 34.8334 38.0001 33.4132 38.0001 31.6667V20.5633C38 20.2625 37.8299 19.9881 37.5608 19.8543Z" fill="#4086F1"/>
</g>
<defs>
<clipPath id="clip0">
<rect width="38" height="38" fill="white"/>
</clipPath>
</defs>
</svg>
