<svg width="67" height="77" viewBox="0 0 67 77" fill="none" xmlns="http://www.w3.org/2000/svg">
<path d="M14.143 1C11.5501 1 9.42871 3.10938 9.42871 5.6875V71.3125C9.42871 73.8906 11.5501 76 14.143 76H61.2859C63.8787 76 66.0001 73.8906 66.0001 71.3125V19.75L47.143 1H14.143Z" fill="white" stroke="#E3E3E3"/>
<path d="M51.8574 19.75H66.0002L47.1431 1V15.0625C47.1431 17.6406 49.2645 19.75 51.8574 19.75Z" fill="#DCDCDC"/>
<path d="M56.5714 61.7812C56.5714 63.0703 55.5107 64.125 54.2143 64.125H2.35714C1.06071 64.125 0 63.0703 0 61.7812V38.3438C0 37.0547 1.06071 36 2.35714 36H54.2143C55.5107 36 56.5714 37.0547 56.5714 38.3438V61.7812Z" fill="#DCDCDC"/>
<path fill-rule="evenodd" clip-rule="evenodd" d="M27.9866 39C34.0444 39 38.9731 43.9287 38.9731 49.9866C38.9731 56.0444 34.0444 60.9731 27.9866 60.9731C21.9287 60.9731 17 56.0444 17 49.9866C17 43.9287 21.9287 39 27.9866 39ZM27.9866 40.0978C22.5336 40.0978 18.0978 44.5336 18.0978 49.9866C18.0978 55.4395 22.5336 59.8754 27.9866 59.8754C33.4395 59.8754 37.8754 55.4395 37.8754 49.9866C37.8754 44.5336 33.4395 40.0978 27.9866 40.0978Z" fill="white"/>
<path d="M28.3763 55.1483L31.4634 52.0611C31.6785 51.8461 31.6785 51.501 31.4634 51.286C31.2483 51.0709 30.9033 51.0709 30.6883 51.286L28.5376 53.4367V45.2147C28.5376 44.91 28.2911 44.6636 27.9864 44.6636C27.6817 44.6636 27.4353 44.91 27.4353 45.2147V53.4322L25.2846 51.2815C25.0695 51.0664 24.7245 51.0664 24.5094 51.2815C24.2944 51.4966 24.2944 51.8416 24.5094 52.0566L27.5966 55.1438C27.7042 55.2514 27.8431 55.3051 27.9864 55.3051C28.1298 55.3051 28.2687 55.2558 28.3763 55.1483Z" fill="white"/>
</svg>
