<svg width="41" height="41" viewBox="0 0 41 41" fill="none" xmlns="http://www.w3.org/2000/svg">
<g clip-path="url(#clip0_104_224)">
<path d="M40.8462 39.1037L31.8775 22.8745C31.6383 22.4474 31.2625 22.2424 30.7329 22.2083C30.2546 22.2083 29.8275 22.4816 29.6054 22.9087L28.1533 25.7445L34.9525 37.8395C35.4992 38.7962 35.5846 39.9578 35.2087 40.9999H39.7187C40.18 40.9999 40.59 40.7607 40.8292 40.3678C41.0512 39.9749 41.0512 39.4966 40.8462 39.1037Z" fill="#4086F1"/>
<path d="M32.7147 39.0867L24.5318 24.5146L21.2689 27.2821C20.5855 27.863 19.6972 28.1876 18.7918 28.1876C17.8351 28.1876 16.9297 27.8459 16.2293 27.2138C15.5289 27.8459 14.6235 28.1876 13.6668 28.1876C12.7614 28.1876 11.873 27.863 11.1726 27.2651L8.06345 24.6342L0.153872 39.1038C-0.0682109 39.4967 -0.0511275 39.9751 0.170956 40.368C0.410122 40.7609 0.837206 41.0001 1.28137 41.0001H31.6043C32.0655 41.0001 32.4755 40.7609 32.7147 40.368C32.9368 39.9751 32.9368 39.4797 32.7147 39.0867Z" fill="#4086F1"/>
<path d="M26.0522 8.54167H16.2292C15.522 8.54167 14.948 7.96767 14.948 7.26042V1.28125C14.948 0.574 15.522 0 16.2292 0H26.0522C26.5527 0 27.0071 0.290417 27.2155 0.746542C27.4257 1.20096 27.3505 1.73567 27.0242 2.11662L25.1775 4.27083L27.0259 6.42675C27.3522 6.80771 27.4257 7.34242 27.2172 7.79683C27.0071 8.25125 26.5527 8.54167 26.0522 8.54167Z" fill="#4086F1"/>
<path d="M16.2292 13.6667C15.522 13.6667 14.948 13.0927 14.948 12.3854V1.28125C14.948 0.574 15.522 0 16.2292 0C16.9365 0 17.5105 0.574 17.5105 1.28125V12.3854C17.5105 13.0927 16.9365 13.6667 16.2292 13.6667Z" fill="#4086F1"/>
<path d="M23.2506 22.2426L19.6118 25.3176C19.3726 25.5226 19.0822 25.6251 18.7918 25.6251C18.4672 25.6251 18.1426 25.5055 17.8864 25.2493L16.2293 23.5922L14.5722 25.2493C14.0939 25.7276 13.3422 25.7447 12.8468 25.3176L9.31055 22.3451L10.5747 20.0559L15.1018 11.7705C15.3239 11.3605 15.751 11.1043 16.2293 11.1043C16.6564 11.053 17.1176 11.3434 17.3397 11.7534L21.9693 19.9705L23.2506 22.2426Z" fill="#4086F1"/>
</g>
<defs>
<clipPath id="clip0_104_224">
<rect width="41" height="41" fill="white"/>
</clipPath>
</defs>
</svg>
