<svg width="16" height="15" viewBox="0 0 16 15" fill="none" xmlns="http://www.w3.org/2000/svg">
<path d="M12.9375 2.58621H3.0625C2.88991 2.58621 2.75 2.44148 2.75 2.26293V1.42241C2.75 0.636821 3.36559 0 4.125 0H11.875C12.6344 0 13.25 0.636821 13.25 1.42241V2.26293C13.25 2.44148 13.1101 2.58621 12.9375 2.58621Z" fill="#B0B0B0"/>
<path fill-rule="evenodd" clip-rule="evenodd" d="M1.6875 3.62067H14.3125C15.243 3.62067 16 4.40377 16 5.36636V11.4439C16 12.4065 15.243 13.1896 14.3125 13.1896H13.25V10.6034C13.25 9.31999 12.2407 8.27584 11 8.27584H5C3.75934 8.27584 2.75 9.31999 2.75 10.6034V13.1896H1.6875C0.757 13.1896 0 12.4065 0 11.4439V5.36636C0 4.40377 0.757 3.62067 1.6875 3.62067ZM2.25047 6.72411C2.25047 7.15262 2.58641 7.49998 3.00062 7.49998C3.41484 7.49998 3.75063 7.15262 3.75063 6.72411C3.75063 6.29561 3.41484 5.94825 3.00062 5.94825H3.00031C2.58609 5.94825 2.25047 6.29561 2.25047 6.72411Z" fill="#B0B0B0"/>
<path d="M11 9.82758H5C4.58578 9.82758 4.25 10.1749 4.25 10.6034V13.1896V14.2241C4.25 14.6526 4.58578 15 5 15H11C11.4142 15 11.75 14.6526 11.75 14.2241V13.1896V10.6034C11.75 10.1749 11.4142 9.82758 11 9.82758Z" fill="#B0B0B0"/>
</svg>
