<svg width="13" height="13" viewBox="0 0 13 13" fill="none" xmlns="http://www.w3.org/2000/svg">
<path d="M7.14534 6.07156L11.9204 1.29652C12.217 1.00011 12.217 0.51916 11.9204 0.222745C11.6237 -0.0739228 11.1433 -0.0739228 10.8466 0.222745L6.07157 4.99778L1.29628 0.222745C0.999609 -0.0739228 0.519169 -0.0739228 0.222501 0.222745C-0.074167 0.51916 -0.074167 1.00011 0.222501 1.29652L4.99779 6.07156L0.222501 10.8466C-0.074167 11.143 -0.074167 11.624 0.222501 11.9204C0.370835 12.0685 0.565238 12.1426 0.759389 12.1426C0.953539 12.1426 1.14794 12.0685 1.29628 11.9201L6.07157 7.14508L10.8466 11.9201C10.9949 12.0685 11.1893 12.1426 11.3835 12.1426C11.5776 12.1426 11.772 12.0685 11.9204 11.9201C12.217 11.6237 12.217 11.1428 11.9204 10.8463L7.14534 6.07156Z" fill="#C7C7C7"/>
</svg>
