<svg width="38" height="38" viewBox="0 0 38 38" fill="none" xmlns="http://www.w3.org/2000/svg">
<path d="M0 2.22656H2.22656V24.5664H7.32739C10.0417 21.3894 14.1325 17.8867 19 17.8867C23.868 17.8867 27.9592 21.3901 30.6725 24.5664H35.7734V2.22656H38V0H0L0 2.22656ZM31.2461 8.98047H29.0195V7.21488L21.2266 15.0078L16.7734 10.5547L8.65428 18.6738L7.08002 17.0996L16.7734 7.40621L21.2266 11.8593L27.4453 5.64062H25.6797V3.41406H31.2461V8.98047Z" fill="#4086F1"/>
<path d="M19 38C24.4359 38 29.0738 32.1441 30.8155 29.6588L31.2624 29.0195L30.8155 28.3803C29.0738 25.8949 24.4359 20.1133 19 20.1133C13.564 20.1133 8.92611 25.8949 7.18442 28.3803L6.73755 29.0195L7.18442 29.6588C8.92611 32.1441 13.564 38 19 38ZM19 23.4531C22.0691 23.4531 24.5664 25.9504 24.5664 29.0195C24.5664 32.0887 22.0691 34.5859 19 34.5859C15.9308 34.5859 13.4336 32.0887 13.4336 29.0195C13.4336 25.9504 15.9308 23.4531 19 23.4531Z" fill="#4086F1"/>
<path d="M19 32.3594C20.8417 32.3594 22.3398 30.8612 22.3398 29.0195C22.3398 27.1779 20.8417 25.6797 19 25.6797C17.1583 25.6797 15.6602 27.1779 15.6602 29.0195C15.6602 30.8612 17.1583 32.3594 19 32.3594ZM17.8867 27.9062H20.1133V30.1328H17.8867V27.9062Z" fill="#4086F1"/>
</svg>
