<?xml version="1.0" encoding="UTF-8"?>
<svg width="20px" height="21px" viewBox="0 0 20 21" version="1.1" xmlns="http://www.w3.org/2000/svg" xmlns:xlink="http://www.w3.org/1999/xlink">
    <title>angry</title>
    <g id="Page-1" stroke="none" stroke-width="1" fill="none" fill-rule="evenodd">
        <g id="6,11-Поп-ап-новая-папка" transform="translate(-717.000000, -663.000000)" fill-rule="nonzero">
            <g id="Новая-папка" transform="translate(456.000000, 104.250000)">
                <g id="Group-8" transform="translate(58.500000, 559.500000)">
                    <g id="angry" transform="translate(202.500000, 0.000000)">
                        <circle id="Oval" fill="#FFC10E" cx="9.74860127" cy="9.74860127" r="9.74860127"></circle>
                        <g id="Group" transform="translate(4.196203, 2.797468)" fill="#333333">
                            <path d="M0.200882911,0.740053797 C1.23516456,1.51417089 2.2694462,2.28845253 3.30372785,3.06261076 C3.70150316,3.36033544 4.08446835,2.69161709 3.69208228,2.39808861 C2.65780063,1.62397152 1.62351899,0.849689873 0.589237342,0.0755316456 C0.191667722,-0.222316456 -0.191462025,0.446360759 0.200882911,0.740053797 L0.200882911,0.740053797 Z" id="Path"></path>
                            <path d="M10.4616266,0.0753670886 C9.42734494,0.849484177 8.39306329,1.62376582 7.35878165,2.39792405 C6.96639557,2.69161709 7.3494019,3.36017089 7.74713608,3.0624462 C8.78141772,2.28832911 9.81569937,1.51404747 10.849981,0.739889241 C11.2423671,0.446360759 10.8594019,-0.222316456 10.4616266,0.0753670886 L10.4616266,0.0753670886 Z" id="Path"></path>
                            <circle id="Oval" cx="2.58918038" cy="3.58861709" r="1.53103797"></circle>
                            <circle id="Oval" cx="8.37858228" cy="3.58861709" r="1.53103797"></circle>
                        </g>
                        <path d="M16.1477278,15.5390728 C16.1477278,12.0047595 13.2825854,9.13945253 9.74810759,9.13945253 C6.21362975,9.13945253 3.34848734,12.0047595 3.34848734,15.5390728 L16.1477278,15.5390728 Z" id="Path" fill="#FFFFFF"></path>
                        <g id="Group" transform="translate(7.034810, 9.420886)" fill="#CCCBCB">
                            <path d="M5.56107911,6.11818671 C5.56107911,4.20788608 5.56107911,2.29758544 5.56107911,0.387243671 C5.31342089,0.26378481 5.05634177,0.156493671 4.79140506,0.0655348101 C4.79140506,2.08312658 4.79140506,4.10075949 4.79140506,6.11818671 L5.56107911,6.11818671 L5.56107911,6.11818671 Z" id="Path"></path>
                            <path d="M0.805917722,6.11818671 C0.805917722,4.08150633 0.805917722,2.04466139 0.805917722,0.0078164557 C0.541310127,0.0903417722 0.284848101,0.191009494 0.0362436709,0.305829114 C0.0362436709,2.24340506 0.0362436709,4.18077532 0.0362436709,6.11835127 L0.805917722,6.11835127 L0.805917722,6.11818671 Z" id="Path"></path>
                        </g>
                    </g>
                </g>
            </g>
        </g>
    </g>
</svg>