<?xml version="1.0" encoding="UTF-8"?>
<svg width="21px" height="20px" viewBox="0 0 21 20" version="1.1" xmlns="http://www.w3.org/2000/svg" xmlns:xlink="http://www.w3.org/1999/xlink">
    <title>angry-2</title>
    <g id="Page-1" stroke="none" stroke-width="1" fill="none" fill-rule="evenodd">
        <g id="6,11-Поп-ап-новая-папка" transform="translate(-615.000000, -697.000000)" fill-rule="nonzero">
            <g id="Новая-папка" transform="translate(456.000000, 104.250000)">
                <g id="Group-8" transform="translate(58.500000, 559.500000)">
                    <g id="angry-2" transform="translate(101.250000, 33.750000)">
                        <circle id="Oval" fill="#FFC10E" cx="9.74864241" cy="9.74864241" r="9.74864241"></circle>
                        <g id="Group" transform="translate(3.949367, 4.113924)" fill="#333333">
                            <circle id="Oval" cx="2.83605696" cy="3.81216772" r="1.53103797"></circle>
                            <circle id="Oval" cx="8.62554114" cy="3.81216772" r="1.53103797"></circle>
                            <path d="M9.14352532,0.0538512658 C7.96393987,0.576607595 6.78418987,1.09952848 5.60456329,1.62228481 C5.73402848,1.62228481 5.86361709,1.62228481 5.99295886,1.62228481 C4.81337342,1.09952848 3.63391139,0.576607595 2.45432595,0.0538512658 C2.00483861,-0.145344937 1.61290506,0.517655063 2.06593038,0.718373418 C2.70231329,1.00038291 3.33849051,1.28255696 3.97470886,1.56456646 C4.3830981,1.74557911 4.7916519,1.92663291 5.20004114,2.10764557 C5.36599684,2.18124367 5.60982911,2.33946519 5.79886392,2.33946519 C5.98789873,2.33946519 6.23173101,2.18120253 6.39768671,2.10764557 C6.80607595,1.92663291 7.21462975,1.74557911 7.62314241,1.56456646 C8.25952532,1.28255696 8.89586709,1.00038291 9.53208544,0.718373418 C9.98478165,0.517655063 9.5928481,-0.145344937 9.14352532,0.0538512658 L9.14352532,0.0538512658 Z" id="Path"></path>
                            <path d="M0.380332278,9.33268354 C3.93422785,9.33268354 7.48824684,9.33268354 11.0421424,9.33268354 C11.5385696,9.33268354 11.5385696,8.56300949 11.0421424,8.56300949 C7.48824684,8.56300949 3.93422785,8.56300949 0.380332278,8.56300949 C-0.116094937,8.56300949 -0.116094937,9.33268354 0.380332278,9.33268354 L0.380332278,9.33268354 Z" id="Path"></path>
                        </g>
                    </g>
                </g>
            </g>
        </g>
    </g>
</svg>