<?xml version="1.0" encoding="UTF-8"?>
<svg width="20px" height="20px" viewBox="0 0 20 20" version="1.1" xmlns="http://www.w3.org/2000/svg" xmlns:xlink="http://www.w3.org/1999/xlink">
    <title>bored</title>
    <g id="Page-1" stroke="none" stroke-width="1" fill="none" fill-rule="evenodd">
        <g id="6,11-Поп-ап-новая-папка" transform="translate(-582.000000, -697.000000)" fill-rule="nonzero">
            <g id="Новая-папка" transform="translate(456.000000, 104.250000)">
                <g id="Group-8" transform="translate(58.500000, 559.500000)">
                    <g id="bored" transform="translate(67.500000, 33.750000)">
                        <circle id="Oval" fill="#FFC10E" cx="9.74860127" cy="9.74860127" r="9.74860127"></circle>
                        <g id="Group" transform="translate(4.319620, 5.348101)" fill="#333333">
                            <path d="M11.0741487,1.76791772 C10.3829684,0.304018987 8.71559494,-0.365892405 7.20471519,0.221493671 C6.74737025,0.399420886 6.94611392,1.14387658 7.40930063,0.963768987 C8.62381329,0.491490506 9.85177848,0.975164557 10.409462,2.15627215 C10.621288,2.60501899 11.2847405,2.21415506 11.0741487,1.76791772 L11.0741487,1.76791772 Z" id="Path"></path>
                            <path d="M0.709363924,2.15273418 C1.26704747,0.971585443 2.49497152,0.487787975 3.70952532,0.960231013 C4.17271203,1.14033861 4.3714557,0.395924051 3.91411076,0.217955696 C2.40327215,-0.369594937 0.736022152,0.300481013 0.0446772152,1.76437975 C-0.165873418,2.21049367 0.497579114,2.60131646 0.709363924,2.15273418 L0.709363924,2.15273418 Z" id="Path"></path>
                            <path d="M7.32928481,6.49243038 C7.32928481,8.13721835 6.47836076,9.47025316 5.42852848,9.47025316 C4.37902532,9.47025316 3.52777215,8.13717722 3.52777215,6.49243038 C3.52777215,4.84842405 4.37902532,3.51460759 5.42852848,3.51460759 C6.47831962,3.51460759 7.32928481,4.84842405 7.32928481,6.49243038 Z" id="Path"></path>
                        </g>
                    </g>
                </g>
            </g>
        </g>
    </g>
</svg>