<?xml version="1.0" encoding="UTF-8"?>
<svg width="21px" height="22px" viewBox="0 0 21 22" version="1.1" xmlns="http://www.w3.org/2000/svg" xmlns:xlink="http://www.w3.org/1999/xlink">
    <title>cool</title>
    <g id="Page-1" stroke="none" stroke-width="1" fill="none" fill-rule="evenodd">
        <g id="6,11-Поп-ап-новая-папка" transform="translate(-784.000000, -696.000000)" fill-rule="nonzero">
            <g id="Новая-папка" transform="translate(456.000000, 104.250000)">
                <g id="Group-8" transform="translate(58.500000, 559.500000)">
                    <g id="cool" transform="translate(270.000000, 33.750000)">
                        <g id="Path" transform="translate(9.740497, 9.740497) scale(-1, 1) rotate(-180.000000) translate(-9.740497, -9.740497) ">
                            <path d="M19.4619883,9.75 C19.4619883,4.3758114 15.1051827,0.019005848 9.73099415,0.019005848 C4.35680556,0.019005848 0,4.3758114 0,9.75 C0,15.1241886 4.35680556,19.4809942 9.73099415,19.4809942 C15.1051827,19.4809942 19.4619883,15.1241886 19.4619883,9.75" fill="#FFCC4D"></path>
                            <path d="M0.670336257,13.5245614 C0.800098684,13.3953692 1.44720029,13.006652 1.57696272,12.6190278 C1.70672515,12.2314035 1.96620249,10.0327595 2.74358918,9.38565789 C3.54587354,8.71907529 6.56951389,8.96724415 7.14904971,9.25589547 C8.44491594,9.90190424 8.60385234,11.7054167 8.83306287,12.6190278 C8.96225512,13.1364145 9.73968933,13.1364145 9.73968933,13.1364145 C9.73968933,13.1364145 10.5176462,13.1364145 10.6468385,12.619598 C10.876049,11.7054167 11.0360782,9.90195175 12.3308516,9.25646564 C12.9109101,8.96724415 15.9345504,8.71907529 16.7379276,9.38565789 C17.5136988,10.0327595 17.7731762,12.231451 17.9029386,12.619598 C18.0316082,13.0072222 18.6798026,13.3953692 18.8095651,13.5245614 C18.9398501,13.6537537 18.9398501,14.1711404 18.8095651,14.3008553 C18.5506104,14.5592873 15.4934722,14.7895906 12.2016594,14.4300475 C11.5448173,14.3581579 11.2950329,14.1710928 9.73973684,14.1710928 C8.18548611,14.1710928 7.93465643,14.3581579 7.27833699,14.4295249 C3.98761696,14.7895906 0.929385965,14.5592873 0.670431287,14.3008553 C0.541144006,14.1710928 0.541144006,13.6537537 0.670336257,13.5245614" fill="#292F33"></path>
                            <path d="M14.777617,6.70687865 C14.6813999,6.79392544 14.5375731,6.79934211 14.4343238,6.72255848 C14.4132273,6.70687865 12.3140314,5.15476608 9.73099415,5.15476608 C7.15446637,5.15476608 5.0482383,6.70687865 5.02766447,6.72255848 C4.9244152,6.79934211 4.78058845,6.7928326 4.68437135,6.70687865 C4.5886769,6.62040205 4.56705775,6.47766813 4.6335307,6.3673867 C4.70328216,6.25116594 6.37266082,3.53294956 9.73094664,3.53294956 C13.0892325,3.53294956 14.7591813,6.25111842 14.8283626,6.3673867 C14.8949306,6.4782383 14.8738341,6.62040205 14.777617,6.70687865" fill="#664500"></path>
                        </g>
                    </g>
                </g>
            </g>
        </g>
    </g>
</svg>