<?xml version="1.0" encoding="UTF-8"?>
<svg width="21px" height="22px" viewBox="0 0 21 22" version="1.1" xmlns="http://www.w3.org/2000/svg" xmlns:xlink="http://www.w3.org/1999/xlink">
    <title>favorite</title>
    <g id="Page-1" stroke="none" stroke-width="1" fill="none" fill-rule="evenodd">
        <g id="6,11-Поп-ап-новая-папка" transform="translate(-750.000000, -696.000000)" fill-rule="nonzero">
            <g id="Новая-папка" transform="translate(456.000000, 104.250000)">
                <g id="Group-8" transform="translate(58.500000, 559.500000)">
                    <g id="favorite" transform="translate(236.250000, 33.750000)">
                        <g id="Path" transform="translate(9.740497, 9.740497) scale(-1, 1) rotate(-180.000000) translate(-9.740497, -9.740497) ">
                            <path d="M19.4619883,9.75 C19.4619883,4.3758114 15.1051827,0.019005848 9.73099415,0.019005848 C4.35680556,0.019005848 0,4.3758114 0,9.75 C0,15.1241886 4.35680556,19.4809942 9.73099415,19.4809942 C15.1051827,19.4809942 19.4619883,15.1241886 19.4619883,9.75" fill="#FFCC4D"></path>
                            <g transform="translate(0.047515, 9.978070)" fill="#E95F28">
                                <path d="M18.7754496,5.73487208 L16.319989,6.16792032 L15.9172551,8.76122076 C15.872924,9.04664108 15.6518385,9.27262061 15.3663706,9.3229386 C15.0809503,9.37377924 14.7965753,9.23646199 14.6576425,8.98344664 L13.3920906,6.68421418 L10.9366301,7.11726243 C10.6457931,7.16862573 10.3570943,7.02589181 10.2213925,6.7658443 C10.084598,6.50579678 10.1316374,6.18630848 10.3387061,5.97710161 L12.0486623,4.24334064 L10.7793092,1.9360307 C10.6376681,1.6792617 10.6776754,1.36081871 10.8793275,1.14728801 C11.0809795,0.933187135 11.3956213,0.874839181 11.661038,0.999707602 L14.103527,2.1593019 L16.0026864,0.234199561 C16.1324488,0.102821637 16.3070651,0.0330701754 16.4838194,0.0330701754 C16.5870687,0.0330701754 16.6914108,0.056875 16.7871053,0.104959795 C17.0498611,0.237430556 17.1963487,0.522850877 17.1514949,0.812642544 L16.7476681,3.41459064 L18.9479751,4.45905702 C19.213962,4.58501827 19.3674817,4.86830044 19.3274744,5.16023026 C19.2885124,5.45158991 19.0652412,5.68403143 18.7754496,5.73487208"></path>
                                <path d="M8.43032895,7.11721491 L5.97486842,6.68416667 L4.70931652,8.98339912 C4.56986111,9.23693713 4.28387061,9.37211623 4.00001827,9.32289108 C3.71512061,9.27262061 3.49398757,9.04664108 3.44965643,8.76117325 L3.04692251,6.16787281 L0.591461988,5.73482456 C0.301717836,5.68403143 0.0784466374,5.45106725 0.0395321637,5.15966009 C4.75146199e-05,4.86825292 0.153614766,4.58497076 0.419031433,4.4590095 L2.61933845,3.41402047 L2.2155117,0.812595029 C2.17065789,0.522850877 2.31766813,0.23686038 2.57933114,0.104912281 C2.67611842,0.0562573099 2.77989035,0.0330226608 2.88313962,0.0330226608 C3.05994152,0.0330226608 3.23455775,0.102203947 3.36427266,0.234152047 L5.26343202,2.15925439 L7.70592105,0.999660088 C7.9702924,0.874221491 8.28597953,0.933187135 8.48763158,1.1472405 C8.68876096,1.36024854 8.72872076,1.67921418 8.58764985,1.93598319 L7.31829678,4.24277047 L9.02877558,5.97705409 C9.23527412,6.18626096 9.28288377,6.50522661 9.14608918,6.76579678 C9.00934211,7.02636696 8.71793494,7.16748538 8.43032895,7.11721491"></path>
                            </g>
                            <path d="M9.73099415,8.12818348 C7.77234649,8.12818348 6.47272661,8.35630117 4.86549708,8.66880482 C4.49839912,8.73960161 3.78425439,8.66880482 3.78425439,7.58756213 C3.78425439,5.42512427 6.26836623,2.72206506 9.73099415,2.72206506 C13.1930519,2.72206506 15.6777339,5.42512427 15.6777339,7.58756213 C15.6777339,8.66880482 14.9635892,8.74012427 14.5964912,8.66880482 C12.9892617,8.35630117 11.6896418,8.12818348 9.73099415,8.12818348" fill="#664500"></path>
                            <path d="M4.86549708,7.58756213 C4.86549708,7.58756213 6.4873136,7.04694079 9.73099415,7.04694079 C12.9746747,7.04694079 14.5964912,7.58756213 14.5964912,7.58756213 C14.5964912,7.58756213 13.5152485,5.42512427 9.73099415,5.42512427 C5.94673977,5.42512427 4.86549708,7.58756213 4.86549708,7.58756213" fill="#FFFFFF"></path>
                        </g>
                    </g>
                </g>
            </g>
        </g>
    </g>
</svg>