<?xml version="1.0" encoding="UTF-8"?>
<svg width="20px" height="20px" viewBox="0 0 20 20" version="1.1" xmlns="http://www.w3.org/2000/svg" xmlns:xlink="http://www.w3.org/1999/xlink">
    <title>grinning</title>
    <g id="Page-1" stroke="none" stroke-width="1" fill="none" fill-rule="evenodd">
        <g id="6,11-Поп-ап-новая-папка" transform="translate(-649.000000, -697.000000)" fill-rule="nonzero">
            <g id="Новая-папка" transform="translate(456.000000, 104.250000)">
                <g id="Group-8" transform="translate(58.500000, 559.500000)">
                    <g id="grinning" transform="translate(135.000000, 33.750000)">
                        <path d="M0.2071875,3.39625 C0.2071875,3.39625 0.4915625,6.695 1.9703125,7.986875 C2.0434375,8.051875 2.1165625,8.10875 2.1978125,8.165625 L2.3034375,8.230625 L7.0240625,8.230625 L0.2071875,3.39625 Z" id="Path" fill="#5D4037"></path>
                        <path d="M19.2928125,3.39625 C19.2928125,3.39625 19.0084375,6.695 17.5296875,7.986875 C17.4565625,8.051875 17.3834375,8.10875 17.3021875,8.165625 L17.1965625,8.230625 L12.4759375,8.230625 L19.2928125,3.39625 Z" id="Path" fill="#5D4037"></path>
                        <circle id="Oval" fill="#FFD54F" cx="9.75" cy="10.96875" r="8.53125"></circle>
                        <path d="M4.379375,3.75375 L4.59875,3.355625 L5.760625,1.04 C6.11,0.398125 6.784375,0 7.5075,0 L11.9925,0 C12.715625,0 13.39,0.398125 13.739375,1.04 L14.90125,3.355625 L15.120625,3.75375 C15.120625,3.75375 12.137125,4.993625 9.75,4.993625 C7.362875,4.993625 4.379375,3.75375 4.379375,3.75375 Z" id="Path" fill="#5D4037"></path>
                        <path d="M14.828125,11.578125 C14.49175,11.578125 14.21875,11.305125 14.21875,10.96875 C14.21875,10.5210625 13.85475,10.15625 13.40625,10.15625 C12.95775,10.15625 12.59375,10.5210625 12.59375,10.96875 C12.59375,11.305125 12.32075,11.578125 11.984375,11.578125 C11.648,11.578125 11.375,11.305125 11.375,10.96875 C11.375,9.849125 12.2858125,8.9375 13.40625,8.9375 C14.5266875,8.9375 15.4375,9.849125 15.4375,10.96875 C15.4375,11.305125 15.1645,11.578125 14.828125,11.578125 Z" id="Path" fill="#6D4C41"></path>
                        <path d="M7.515625,11.578125 C7.17925,11.578125 6.90625,11.305125 6.90625,10.96875 C6.90625,10.5210625 6.54225,10.15625 6.09375,10.15625 C5.64525,10.15625 5.28125,10.5210625 5.28125,10.96875 C5.28125,11.305125 5.00825,11.578125 4.671875,11.578125 C4.3355,11.578125 4.0625,11.305125 4.0625,10.96875 C4.0625,9.849125 4.9733125,8.9375 6.09375,8.9375 C7.2141875,8.9375 8.125,9.849125 8.125,10.96875 C8.125,11.305125 7.852,11.578125 7.515625,11.578125 Z" id="Path" fill="#6D4C41"></path>
                        <path d="M9.7508125,17.418375 C7.5148125,17.418375 5.56725,15.98025 4.902625,13.8409375 C4.84575,13.6556875 4.879875,13.455 4.9944375,13.299 C5.109,13.143 5.291,13.0511875 5.4851875,13.0511875 L14.0164375,13.0511875 C14.2098125,13.0511875 14.392625,13.143 14.5071875,13.299 C14.6225625,13.455 14.6566875,13.6556875 14.599,13.8409375 C13.934375,15.98025 11.9868125,17.418375 9.7508125,17.418375 Z" id="Path" fill="#E53935"></path>
                        <path d="M18.880875,2.952625 C19.101875,2.952625 19.2928125,3.1265 19.2928125,3.355625 C19.2928125,3.42225 19.2765625,3.49375 19.24,3.566875 C16.8146875,7.1979375 13.5224375,8.4361875 10.356125,8.4361875 C5.0886875,8.4361875 0.1698125,5.009875 0.1698125,3.475875 C0.1698125,3.33775 0.209625,3.215875 0.2916875,3.1126875 C0.3680625,3.0103125 0.4899375,2.9534375 0.6175,2.9534375 C0.6524375,2.9534375 0.687375,2.9575 0.7223125,2.9664375 C0.8125,3.055 5.416125,4.20875 9.75,4.20875 C13.8019375,4.20875 18.6688125,3.0736875 18.776875,2.965625 C18.8118125,2.9566875 18.84675,2.952625 18.880875,2.952625 L18.880875,2.952625 Z" id="Path" fill="#6D4C41"></path>
                    </g>
                </g>
            </g>
        </g>
    </g>
</svg>