<?xml version="1.0" encoding="UTF-8"?>
<svg width="21px" height="21px" viewBox="0 0 21 21" version="1.1" xmlns="http://www.w3.org/2000/svg" xmlns:xlink="http://www.w3.org/1999/xlink">
    <title>happy-2</title>
    <g id="Page-1" stroke="none" stroke-width="1" fill="none" fill-rule="evenodd">
        <g id="6,11-Поп-ап-новая-папка" transform="translate(-615.000000, -663.000000)" fill-rule="nonzero">
            <g id="Новая-папка" transform="translate(456.000000, 104.250000)">
                <g id="Group-8" transform="translate(58.500000, 559.500000)">
                    <g id="happy-2" transform="translate(101.250000, 0.000000)">
                        <circle id="Oval" fill="#FFC10E" cx="9.74860127" cy="9.74860127" r="9.74860127"></circle>
                        <path d="M3.34836392,9.75506013 C3.34836392,13.2893734 6.21367089,16.1546804 9.74798418,16.1546804 C13.282462,16.1546804 16.147769,13.2893734 16.147769,9.75506013 L3.34836392,9.75506013 L3.34836392,9.75506013 Z" id="Path" fill="#FFFFFF"></path>
                        <g id="Group" transform="translate(6.870253, 9.750000)" fill="#CCCBCB">
                            <path d="M0.0299493671,0.00506012658 C0.0299493671,1.91536076 0.0299493671,3.82566139 0.0299493671,5.73600316 C0.277772152,5.85946203 0.534851266,5.96675316 0.799623418,6.05771203 C0.799623418,4.04012025 0.799623418,2.0226519 0.799623418,0.00506012658 L0.0299493671,0.00506012658 Z" id="Path"></path>
                            <path d="M4.78527532,0.00506012658 C4.78527532,2.04190506 4.78527532,4.07858544 4.78527532,6.11543038 C5.04988291,6.03290506 5.30634494,5.93223734 5.55494937,5.81758228 C5.55494937,3.88000633 5.55494937,1.94263608 5.55494937,0.00506012658 L4.78527532,0.00506012658 L4.78527532,0.00506012658 Z" id="Path"></path>
                        </g>
                        <g id="Group" transform="translate(4.443038, 4.237342)" fill="#333333">
                            <path d="M4.5739019,2.29528165 C4.50462342,1.00947468 3.58688924,0.0918639241 2.30124684,0.0226265823 C1.01836076,-0.0464873418 0.0921518987,1.11372152 0.0285917722,2.29528165 C0.00181012658,2.7915443 0.771607595,2.78895253 0.798265823,2.29528165 C0.902636076,0.35803481 3.70006329,0.35803481 3.80426899,2.29528165 C3.83088608,2.78895253 4.60068354,2.7915443 4.5739019,2.29528165 L4.5739019,2.29528165 Z" id="Path"></path>
                            <path d="M10.1196361,2.29528165 C10.0503576,1.00947468 9.13262342,0.0918639241 7.84698101,0.0226265823 C6.56409494,-0.0464873418 5.63805063,1.11372152 5.57432595,2.29528165 C5.5475443,2.7915443 6.31734177,2.78895253 6.344,2.29528165 C6.44837025,0.35803481 9.24563291,0.35803481 9.35000316,2.29528165 C9.37662025,2.78895253 10.1464589,2.7915443 10.1196361,2.29528165 L10.1196361,2.29528165 Z" id="Path"></path>
                        </g>
                    </g>
                </g>
            </g>
        </g>
    </g>
</svg>