<?xml version="1.0" encoding="UTF-8"?>
<svg width="20px" height="21px" viewBox="0 0 20 21" version="1.1" xmlns="http://www.w3.org/2000/svg" xmlns:xlink="http://www.w3.org/1999/xlink">
    <title>in-love</title>
    <g id="Page-1" stroke="none" stroke-width="1" fill="none" fill-rule="evenodd">
        <g id="6,11-Поп-ап-новая-папка" transform="translate(-784.000000, -663.000000)" fill-rule="nonzero">
            <g id="Новая-папка" transform="translate(456.000000, 104.250000)">
                <g id="Group-8" transform="translate(58.500000, 559.500000)">
                    <g id="in-love" transform="translate(270.000000, 0.000000)">
                        <circle id="Oval" fill="#FFC10E" cx="9.74860127" cy="9.74860127" r="9.74860127"></circle>
                        <g id="Group" transform="translate(2.715190, 4.484177)" fill="#ED3533">
                            <path d="M4.7775,0.0399050633 C4.19607911,0.0399050633 3.65596203,0.323436709 3.33129114,0.798183544 L3.26431646,0.883300633 L3.21951582,0.826199367 C2.89854747,0.334091772 2.35748418,0.0400696203 1.7700981,0.0400696203 C0.767822785,0.0400696203 0.0405221519,0.767575949 0.0405221519,1.76952215 C0.0405221519,3.24897152 2.71897468,5.4295981 2.9143038,5.58658544 C3.00649684,5.67478797 3.12719937,5.72329114 3.25526582,5.72329114 C3.38333228,5.72329114 3.50403481,5.67495253 3.59622785,5.58646203 C3.79217405,5.42819937 6.50695253,3.21342722 6.50695253,1.76952215 C6.50695253,0.767411392 5.77961076,0.0399050633 4.7775,0.0399050633 Z" id="Path"></path>
                            <path d="M12.3704051,0.0399050633 C11.7889842,0.0399050633 11.2488671,0.323436709 10.9241962,0.798183544 L10.8572215,0.883300633 L10.8124209,0.826199367 C10.4914525,0.334091772 9.95038924,0.0400696203 9.36300316,0.0400696203 C8.36072785,0.0400696203 7.63342722,0.767575949 7.63342722,1.76952215 C7.63342722,3.24897152 10.3118797,5.4295981 10.5072089,5.58658544 C10.5994019,5.67478797 10.7201044,5.72329114 10.8481709,5.72329114 C10.9760728,5.72329114 11.0967753,5.67495253 11.1891329,5.58646203 C11.3849557,5.42836392 14.0996931,3.21342722 14.0996931,1.76952215 C14.0998576,0.767411392 13.3725158,0.0399050633 12.3704051,0.0399050633 Z" id="Path"></path>
                        </g>
                        <path d="M14.1212089,13.0353797 C11.6824335,15.5171044 7.75853165,15.4976867 5.34007911,12.9984367 C4.99450949,12.641307 4.45081329,13.1860728 4.79593038,13.5425854 C7.50161709,16.3387785 11.9395127,16.353712 14.6653576,13.5795285 C15.0133956,13.2254842 14.4694114,12.6810063 14.1212089,13.0353797 L14.1212089,13.0353797 Z" id="Path" fill="#333333"></path>
                    </g>
                </g>
            </g>
        </g>
    </g>
</svg>