<?xml version="1.0" encoding="UTF-8"?>
<svg width="21px" height="21px" viewBox="0 0 21 21" version="1.1" xmlns="http://www.w3.org/2000/svg" xmlns:xlink="http://www.w3.org/1999/xlink">
    <title>kissing</title>
    <g id="Page-1" stroke="none" stroke-width="1" fill="none" fill-rule="evenodd">
        <g id="6,11-Поп-ап-новая-папка" transform="translate(-750.000000, -663.000000)" fill-rule="nonzero">
            <g id="Новая-папка" transform="translate(456.000000, 104.250000)">
                <g id="Group-8" transform="translate(58.500000, 559.500000)">
                    <g id="kissing" transform="translate(236.250000, 0.000000)">
                        <circle id="Oval" fill="#FFC10E" cx="9.74860127" cy="9.74860127" r="9.74860127"></circle>
                        <path d="M5.42383861,11.600731 L14.0439494,11.600731 C14.0439494,11.600731 12.7766139,16.4593165 9.7024019,16.4593165 C6.62818987,16.4593165 5.42383861,11.600731 5.42383861,11.600731 Z" id="Path" fill="#D22327"></path>
                        <path d="M10.6634146,12.2872627 C10.6634146,12.6608481 10.1141646,12.9633449 9.73383228,12.9633449 C9.35362342,12.9633449 8.80425,12.6608481 8.80425,12.2872627 C8.80425,11.9138006 9.35362342,11.6110158 9.73383228,11.6110158 C10.1140411,11.6111804 10.6634146,11.9138006 10.6634146,12.2872627 Z" id="Path" fill="#9B1C1F"></path>
                        <g id="Group" transform="translate(4.319620, 5.348101)" fill="#333333">
                            <path d="M11.0741487,1.76791772 C10.3829684,0.304018987 8.71559494,-0.365892405 7.20471519,0.221493671 C6.74737025,0.399420886 6.94611392,1.14387658 7.40930063,0.963768987 C8.62381329,0.491490506 9.85177848,0.975164557 10.409462,2.15627215 C10.621288,2.60501899 11.2847405,2.21415506 11.0741487,1.76791772 L11.0741487,1.76791772 Z" id="Path"></path>
                            <path d="M0.709363924,2.15273418 C1.26704747,0.971585443 2.49497152,0.487787975 3.70952532,0.960231013 C4.17271203,1.14033861 4.3714557,0.395924051 3.91411076,0.217955696 C2.40327215,-0.369594937 0.736022152,0.300481013 0.0446772152,1.76437975 C-0.165873418,2.21049367 0.497579114,2.60131646 0.709363924,2.15273418 L0.709363924,2.15273418 Z" id="Path"></path>
                        </g>
                        <path d="M13.7526835,11.1456899 C12.6451329,10.5625823 11.542519,8.09180063 9.7458038,9.87975316 L9.73025316,9.87975316 C7.93370253,8.09180063 6.83092405,10.5625823 5.72337342,11.1456899 C5.4363038,11.2968354 5.42951582,11.5988797 5.42951582,11.5988797 C5.42951582,11.5988797 6.67023418,12.612057 7.74775316,12.612057 C8.82527215,12.612057 9.00138924,12.0155791 9.73362658,12.0155791 L9.74226582,12.0155791 C10.4746677,12.0155791 10.6507848,12.612057 11.7283038,12.612057 C12.8058228,12.612057 14.0465411,11.5988797 14.0465411,11.5988797 C14.0465411,11.5988797 14.0397943,11.297 13.7526835,11.1456899 Z" id="Path" fill="#E22928"></path>
                    </g>
                </g>
            </g>
        </g>
    </g>
</svg>