<?xml version="1.0" encoding="UTF-8"?>
<svg width="21px" height="20px" viewBox="0 0 21 20" version="1.1" xmlns="http://www.w3.org/2000/svg" xmlns:xlink="http://www.w3.org/1999/xlink">
    <title>nerd</title>
    <g id="Page-1" stroke="none" stroke-width="1" fill="none" fill-rule="evenodd">
        <g id="6,11-Поп-ап-новая-папка" transform="translate(-548.000000, -697.000000)" fill-rule="nonzero">
            <g id="Новая-папка" transform="translate(456.000000, 104.250000)">
                <g id="Group-8" transform="translate(58.500000, 559.500000)">
                    <g id="nerd" transform="translate(33.750000, 33.750000)">
                        <circle id="Oval" fill="#FFC10E" cx="9.74860127" cy="9.74860127" r="9.74860127"></circle>
                        <g id="Group" transform="translate(0.246835, 3.620253)" fill="#333333">
                            <path d="M8.53199051,2.76583228 C8.42256013,5.33666456 4.65564557,5.33666456 4.54621519,2.76583228 C4.49849367,1.6456519 5.48920886,0.817642405 6.53871203,0.773006329 C7.65918038,0.72528481 8.48731329,1.716 8.53199051,2.76583228 C8.55309494,3.26028481 9.32272785,3.26225949 9.30166456,2.76583228 C9.23563608,1.21496519 8.08957911,0.0692373418 6.53887658,0.00333227848 C4.98998418,-0.0625316456 3.83841456,1.31439873 3.7767057,2.76583228 C3.71084177,4.31439557 5.08744304,5.46658228 6.53887658,5.52833228 C8.08789241,5.5941962 9.2399557,4.21743038 9.30166456,2.76583228 C9.32272785,2.26936392 8.5530538,2.27137975 8.53199051,2.76583228 Z" id="Path"></path>
                            <path d="M14.3044842,2.76583228 C14.1950538,5.33666456 10.4281392,5.33666456 10.3187089,2.76583228 C10.2709873,1.6456519 11.2617025,0.817642405 12.3112057,0.773006329 C13.4316741,0.72528481 14.259807,1.716 14.3044842,2.76583228 C14.3255886,3.26028481 15.0952215,3.26225949 15.0741582,2.76583228 C15.0081297,1.21496519 13.8620728,0.0692373418 12.3113703,0.00333227848 C10.7624778,-0.0625316456 9.61090823,1.31439873 9.54919937,2.76583228 C9.48333544,4.31439557 10.8599367,5.46658228 12.3113703,5.52833228 C13.8603861,5.5941962 15.0124494,4.21743038 15.0741582,2.76583228 C15.0952215,2.26936392 14.3255475,2.27137975 14.3044842,2.76583228 Z" id="Path"></path>
                            <path d="M13.8742089,9.41512658 C11.4354335,11.8973038 7.5116962,11.877269 5.09307911,9.37818354 C4.74750949,9.02088924 4.20381329,9.56581962 4.54893038,9.92233228 C7.25461709,12.7183608 11.6923481,12.7339114 14.4183576,9.95927532 C14.7664367,9.60506646 14.2225759,9.06058861 13.8742089,9.41512658 L13.8742089,9.41512658 Z" id="Path"></path>
                            <path d="M4.05912658,2.39467405 C2.98452848,2.59987658 1.49537025,2.80491456 0.264525316,3.00995253 C0.174183544,3.27781013 0.0947436709,3.55039873 0.0276044304,3.82808861 C1.32711076,3.59766772 3.05639873,3.3672057 4.264,3.13678481 C4.75104747,3.04381013 4.54403481,2.3021519 4.05912658,2.39467405 Z" id="Path"></path>
                            <path d="M14.7995127,2.39467405 C14.3146044,2.3021519 14.1075918,3.04381013 14.5947627,3.13678481 C15.839307,3.37432278 17.6652722,3.61165506 18.979712,3.84919304 C18.9130665,3.57150316 18.8346962,3.29870886 18.7449715,3.03072785 C17.4844241,2.81877848 15.9107658,2.60666456 14.7995127,2.39467405 Z" id="Path"></path>
                            <path d="M10.3740823,1.57715506 C10.8705095,1.57715506 10.8705095,0.807481013 10.3740823,0.807481013 C8.32168671,0.807481013 10.5023133,0.807481013 8.44991772,0.807481013 C7.95349051,0.807481013 7.95349051,1.57715506 8.44991772,1.57715506 C8.44991772,1.57715506 8.32168671,1.57715506 10.3740823,1.57715506 Z" id="Path"></path>
                            <circle id="Oval" cx="6.53854747" cy="2.76583228" r="1.06920886"></circle>
                            <circle id="Oval" cx="12.3279494" cy="2.76583228" r="1"></circle>
                        </g>
                    </g>
                </g>
            </g>
        </g>
    </g>
</svg>