<?xml version="1.0" encoding="UTF-8"?>
<svg width="20px" height="20px" viewBox="0 0 20 20" version="1.1" xmlns="http://www.w3.org/2000/svg" xmlns:xlink="http://www.w3.org/1999/xlink">
    <title>quiet</title>
    <g id="Page-1" stroke="none" stroke-width="1" fill="none" fill-rule="evenodd">
        <g id="6,11-Поп-ап-новая-папка" transform="translate(-514.000000, -697.000000)" fill-rule="nonzero">
            <g id="Новая-папка" transform="translate(456.000000, 104.250000)">
                <g id="Group-8" transform="translate(58.500000, 559.500000)">
                    <g id="quiet" transform="translate(0.000000, 33.750000)">
                        <circle id="Oval" fill="#FFC10E" cx="9.74860127" cy="9.74860127" r="9.74860127"></circle>
                        <g id="Group" transform="translate(5.224684, 4.854430)" fill="#333333">
                            <circle id="Oval" cx="1.56069937" cy="1.53149051" r="1.53103797"></circle>
                            <circle id="Oval" cx="7.35010127" cy="1.53149051" r="1.53103797"></circle>
                        </g>
                        <path d="M14.8543924,13.0219684 C15.1487025,13.1363354 15.2943354,13.4677532 15.1798038,13.7620633 L14.7654082,14.8277342 C14.6510411,15.1220443 14.3196234,15.2678418 14.0253133,15.1533101 L4.64153481,11.502943 C4.34722468,11.3885759 4.20142722,11.0571582 4.31595886,10.7626835 L4.73051899,9.69717722 C4.84488608,9.40286709 5.1763038,9.25723418 5.47061392,9.37160127 L14.8543924,13.0219684 Z" id="Path" fill="#EFEFEF"></path>
                        <path d="M13.8956835,9.18857278 C14.184769,9.06141139 14.5220285,9.19256329 14.6493544,9.48164873 L15.1096203,10.5283956 C15.2367816,10.8173165 15.1057532,11.1547405 14.8166677,11.2819019 L5.60024367,15.3361741 C5.31115823,15.4633354 4.97373418,15.332019 4.84657278,15.0429335 L4.38614241,13.9963513 C4.25898101,13.7074304 4.39029747,13.3700063 4.67921835,13.2426804 L13.8956835,9.18857278 Z" id="Path" fill="#FFFFFF"></path>
                    </g>
                </g>
            </g>
        </g>
    </g>
</svg>