<?xml version="1.0" encoding="UTF-8"?>
<svg width="20px" height="22px" viewBox="0 0 20 22" version="1.1" xmlns="http://www.w3.org/2000/svg" xmlns:xlink="http://www.w3.org/1999/xlink">
    <title>sad</title>
    <g id="Page-1" stroke="none" stroke-width="1" fill="none" fill-rule="evenodd">
        <g id="6,11-Поп-ап-новая-папка" transform="translate(-717.000000, -696.000000)" fill-rule="nonzero">
            <g id="Новая-папка" transform="translate(456.000000, 104.250000)">
                <g id="Group-8" transform="translate(58.500000, 559.500000)">
                    <g id="sad" transform="translate(202.500000, 33.750000)">
                        <g id="Group" transform="translate(9.740497, 9.740497) scale(-1, 1) rotate(-180.000000) translate(-9.740497, -9.740497) ">
                            <path d="M19.4619883,9.75 C19.4619883,4.3758114 15.1051827,0.019005848 9.73099415,0.019005848 C4.35732822,0.019005848 0,4.3758114 0,9.75 C0,15.1236659 4.35732822,19.4809942 9.73099415,19.4809942 C15.1051827,19.4809942 19.4619883,15.1236659 19.4619883,9.75" id="Path" fill="#FFCC4D"></path>
                            <path d="M7.56855629,10.560932 C7.56855629,9.51537281 6.96360015,8.66880482 6.21705044,8.66880482 C5.47050073,8.66880482 4.86549708,9.51537281 4.86549708,10.560932 C4.86549708,11.6059211 5.47045322,12.4530592 6.21700292,12.4530592 C6.96355263,12.4530592 7.56855629,11.6059211 7.56855629,10.560932" id="SVGCleanerId_0" fill="#664500"></path>
                            <g transform="translate(12.496345, 8.647661)" fill="#664500" id="SVGCleanerId_0_1_">
                                <path d="M2.71783626,1.9132712 C2.71783626,0.867711988 2.11288012,0.0211440058 1.36633041,0.0211440058 C0.619780702,0.0211440058 0.0148245614,0.867759503 0.0148245614,1.9132712 C0.0148245614,2.95826023 0.619780702,3.80539839 1.36633041,3.80539839 C2.11288012,3.80539839 2.71783626,2.95826023 2.71783626,1.9132712"></path>
                            </g>
                            <path d="M12.696239,4.40930921 C12.6897295,4.43311404 12.0766959,6.77663012 9.73099415,6.77663012 C7.38419956,6.77663012 6.77116594,4.43306652 6.76574927,4.40930921 C6.73709795,4.29418129 6.78898392,4.17629751 6.89061769,4.11519371 C6.99225146,4.05466009 7.12472222,4.06872442 7.21281433,4.1476462 C7.21823099,4.15144737 7.7609905,4.61419225 9.73099415,4.61419225 C11.6712537,4.61419225 12.2269846,4.16546418 12.2480811,4.1476462 C12.2994444,4.09899123 12.3664876,4.07357091 12.4340534,4.07357091 C12.4794773,4.07357091 12.525424,4.0849269 12.5670468,4.10816155 C12.6730044,4.16874269 12.7259832,4.29147295 12.696239,4.40930921" id="Path" fill="#664500"></path>
                            <path d="M5.40611842,3.2626864 C5.40611842,1.76953947 4.19625365,0.559627193 2.70305921,0.559627193 C1.20986477,0.559627193 0,1.76949196 0,3.2626864 C0,4.75588085 2.16243787,8.66880482 2.70305921,8.66880482 C3.24368056,8.66880482 5.40611842,4.75583333 5.40611842,3.2626864" id="Path" fill="#5DADEC"></path>
                            <g transform="translate(2.660819, 12.448830)" fill="#664500" id="Path">
                                <path d="M13.557489,0.00422880117 C10.5549452,0.00422880117 9.33966374,2.36508772 9.28934576,2.46562865 C9.15582968,2.73270833 9.26449561,3.05704313 9.53152778,3.19112939 C9.79751462,3.32412281 10.1218969,3.21654971 10.2559357,2.95108553 C10.295943,2.8726864 11.2398684,1.08542398 13.5574415,1.08542398 C13.8564035,1.08542398 14.0980629,0.843241959 14.0980629,0.544802632 C14.0980629,0.246410819 13.856451,0.00422880117 13.557489,0.00422880117"></path>
                                <path d="M0.582861842,0.00422880117 C0.284422515,0.00422880117 0.0422404971,0.246410819 0.0422404971,0.544850146 C0.0422404971,0.843289474 0.284422515,1.08547149 0.582861842,1.08547149 C3.33077485,1.08547149 3.82435673,2.77219298 3.84436038,2.8440826 C3.9227595,3.12950292 4.21739766,3.30250365 4.50338816,3.22738304 C4.78990132,3.15221491 4.96342471,2.8635636 4.89153509,2.5759576 C4.86502193,2.47104532 4.20708699,0.00422880117 0.582861842,0.00422880117"></path>
                            </g>
                        </g>
                    </g>
                </g>
            </g>
        </g>
    </g>
</svg>