<?xml version="1.0" encoding="UTF-8"?>
<svg width="21px" height="22px" viewBox="0 0 21 22" version="1.1" xmlns="http://www.w3.org/2000/svg" xmlns:xlink="http://www.w3.org/1999/xlink">
    <title>shocked</title>
    <g id="Page-1" stroke="none" stroke-width="1" fill="none" fill-rule="evenodd">
        <g id="6,11-Поп-ап-новая-папка" transform="translate(-818.000000, -696.000000)" fill-rule="nonzero">
            <g id="Новая-папка" transform="translate(456.000000, 104.250000)">
                <g id="Group-8" transform="translate(58.500000, 559.500000)">
                    <g id="shocked" transform="translate(303.750000, 33.750000)">
                        <g id="Path" transform="translate(9.740497, 9.740497) scale(-1, 1) rotate(-180.000000) translate(-9.740497, -9.740497) ">
                            <path d="M9.73099415,19.4809942 C4.35732822,19.4809942 0,15.1236659 0,9.75 C0,6.47876096 1.61967836,3.59134503 4.09457237,1.82736477 C4.15078216,5.30781067 2.88523026,9.20942617 0.758998538,9.20942617 C0.50816886,9.20942617 0.304901316,9.17374269 0.13565424,9.11050073 C0.299437135,9.51974415 0.654656433,9.74952485 1.31905336,9.74952485 C3.62745614,9.74952485 4.92275219,5.15110746 4.61300439,1.48521199 C6.10135234,0.56124269 7.85074561,0.019005848 9.73099415,0.019005848 C11.6117654,0.019005848 13.3617288,0.561765351 14.8505994,1.48568713 C14.5386659,5.16559942 15.8333918,9.75 18.1434576,9.75 C18.8100402,9.75 19.1657346,9.51969664 19.3284722,9.11045322 C19.1587025,9.17369518 18.9549123,9.20937865 18.7029898,9.20937865 C16.5740497,9.20937865 15.3084978,5.31750365 15.3674159,1.82731725 C17.8428801,3.59134503 19.4619883,6.47876096 19.4619883,9.75 C19.4619883,15.1236659 15.1051827,19.4809942 9.73099415,19.4809942" fill="#FFCC4D"></path>
                            <path d="M9.73099415,19.4809942 C4.35732822,19.4809942 0,15.1236659 0,9.75 C0,9.10560673 0.0664729532,8.4763231 0.185972222,7.86647295 C0.31245614,8.33306652 0.510354532,8.78070175 0.757953216,9.20937865 C0.507646199,9.20937865 0.304901316,9.17369518 0.135701754,9.11045322 C0.278435673,9.4672405 0.580628655,9.67701754 1.09202851,9.72781067 C2.7095212,11.9870358 5.96674342,13.5342544 9.73099415,13.5342544 C13.4958151,13.5342544 16.7524671,11.9875585 18.3699598,9.72833333 C18.884068,9.67749269 19.186261,9.46776316 19.3284722,9.1104057 C19.1592727,9.17364766 18.9560051,9.20933114 18.7046053,9.20933114 C18.9522039,8.78060673 19.1495322,8.33301901 19.2760161,7.86647295 C19.396038,8.47627558 19.4619883,9.10555921 19.4619883,9.74995249 C19.4619883,15.1236659 15.1051827,19.4809942 9.73099415,19.4809942" fill="#BDDDF4"></path>
                            <g transform="translate(3.753655, 9.170322)" fill="#F5F8FA">
                                <path d="M0.218234649,3.87201389 C-0.293165205,2.15502558 0.276059942,0.469967105 1.49029605,0.108285819 C2.70448465,-0.253918129 4.10360015,0.844619883 4.61447734,2.56156067 C5.12587719,4.2779788 4.55665205,5.96360746 3.34350877,6.32528874 C2.12927266,6.68697003 0.730157164,5.58843202 0.218234649,3.87201389"></path>
                                <path d="M11.7359211,3.87201389 C12.2473209,2.15502558 11.6780958,0.469967105 10.4643823,0.108285819 C9.24962354,-0.253918129 7.85107822,0.844619883 7.33963085,2.56156067 C6.82823099,4.2779788 7.39745614,5.96360746 8.61059942,6.32528874 C9.82488304,6.68697003 11.223951,5.58843202 11.7359211,3.87201389"></path>
                            </g>
                            <path d="M9.73099415,9.75 C8.24050804,9.75 7.02793494,8.5374269 7.02793494,7.04694079 L7.02793494,3.80326023 C7.02793494,2.31277412 8.24050804,1.10020102 9.73099415,1.10020102 C11.2214803,1.10020102 12.4340534,2.31277412 12.4340534,3.80326023 L12.4340534,7.04694079 C12.4340534,8.5374269 11.2214803,9.75 9.73099415,9.75" fill="#664500"></path>
                            <g fill="#FCAB40">
                                <path d="M0.758998538,9.20937865 C0.50816886,9.20937865 0.304901316,9.17369518 0.13565424,9.11045322 C0.174568713,9.2072405 0.225932018,9.29210161 0.28755848,9.36831506 C-0.718991228,8.1292288 1.53966374,4.05195175 0.442218567,0.019005848 L3.9351133,0.019005848 C4.57736842,3.78164108 3.2669152,9.20937865 0.758998538,9.20937865"></path>
                                <path d="M19.3284722,9.11045322 C19.1592727,9.17317251 18.9554349,9.20937865 18.7029898,9.20937865 C16.1940278,9.20937865 14.8830519,3.8021674 15.5279678,0.019005848 L19.0202924,0.019005848 C17.9898904,3.82758772 19.9155629,7.63512427 19.3284722,9.11045322"></path>
                            </g>
                        </g>
                    </g>
                </g>
            </g>
        </g>
    </g>
</svg>