<?xml version="1.0" encoding="UTF-8"?>
<svg width="20px" height="20px" viewBox="0 0 20 20" version="1.1" xmlns="http://www.w3.org/2000/svg" xmlns:xlink="http://www.w3.org/1999/xlink">
    <title>smart</title>
    <g id="Page-1" stroke="none" stroke-width="1" fill="none" fill-rule="evenodd">
        <g id="6,11-Поп-ап-новая-папка" transform="translate(-852.000000, -697.000000)" fill-rule="nonzero">
            <g id="Новая-папка" transform="translate(456.000000, 104.250000)">
                <g id="Group-8" transform="translate(58.500000, 559.500000)">
                    <g id="smart" transform="translate(337.500000, 33.750000)">
                        <circle id="Oval" fill="#FFC10E" cx="9.74860127" cy="9.74860127" r="9.74860127"></circle>
                        <g id="Group" transform="translate(4.648734, 3.990506)" fill="#333333">
                            <circle id="Oval" cx="2.13664873" cy="3.79990823" r="1.53103797"></circle>
                            <circle id="Oval" cx="7.92605063" cy="3.79990823" r="1.53103797"></circle>
                            <path d="M5.09925,9.69845253 C3.39781329,9.66566456 1.87434494,8.99929114 0.691386076,7.77675633 C0.345816456,7.41946203 -0.197879747,7.96439241 0.147237342,8.32090506 C1.46858861,9.68660443 3.20050949,10.4316361 5.09925,10.4681266 C5.59596519,10.4776709 5.59489557,9.70783228 5.09925,9.69845253 L5.09925,9.69845253 Z" id="Path"></path>
                            <path d="M1.24121203,0.772183544 C2.26269937,1.09837658 3.146,1.65235759 3.88749367,2.42602215 C4.23137658,2.78500316 4.77507278,2.23990823 4.43164241,1.88187342 C3.59964241,1.01367089 2.59029114,0.395636076 1.44596203,0.0299082278 C0.971667722,-0.121401899 0.770332278,0.621778481 1.24121203,0.772183544 L1.24121203,0.772183544 Z" id="Path"></path>
                            <path d="M6.09350316,2.36818038 C7.04098101,1.86002848 8.03967722,1.60788608 9.11460443,1.6052943 C9.61086709,1.60406013 9.61103165,0.834386076 9.11460443,0.83561877 C7.90683861,0.838541139 6.7688038,1.13318038 5.70514873,1.70382278 C5.26763291,1.93823418 5.6561519,2.60275633 6.09350316,2.36818038 L6.09350316,2.36818038 Z" id="Path"></path>
                        </g>
                    </g>
                </g>
            </g>
        </g>
    </g>
</svg>