<?xml version="1.0" encoding="UTF-8"?>
<svg width="20px" height="21px" viewBox="0 0 20 21" version="1.1" xmlns="http://www.w3.org/2000/svg" xmlns:xlink="http://www.w3.org/1999/xlink">
    <title>suspicious</title>
    <g id="Page-1" stroke="none" stroke-width="1" fill="none" fill-rule="evenodd">
        <g id="6,11-Поп-ап-новая-папка" transform="translate(-683.000000, -663.000000)" fill-rule="nonzero">
            <g id="Новая-папка" transform="translate(456.000000, 104.250000)">
                <g id="Group-8" transform="translate(58.500000, 559.500000)">
                    <g id="suspicious" transform="translate(168.750000, 0.000000)">
                        <circle id="Oval" fill="#FFC10E" cx="9.74864241" cy="9.74864241" r="9.74864241"></circle>
                        <g id="Group" transform="translate(3.250000, 2.674051)" fill="#333333">
                            <circle id="Oval" cx="3.53542405" cy="5.86777215" r="1.53103797"></circle>
                            <ellipse id="Oval" cx="9.65278797" cy="5.0734557" rx="1.53103797" ry="2.32440823"></ellipse>
                            <path d="M4.78646835,1.55177215 C4.27403797,2.15121203 3.76173101,2.7504462 3.24930063,3.34988608 C3.43080696,3.34988608 3.61198418,3.34988608 3.79344937,3.34988608 C2.75916772,2.51986076 1.72488608,1.68987658 0.69060443,0.859851266 C0.307598101,0.552458861 -0.240870253,1.09335759 0.146455696,1.404 C1.18073734,2.23402532 2.21501899,3.06400949 3.24930063,3.89403481 C3.40229747,4.01687658 3.64662342,4.06583228 3.79344937,3.89403481 C4.30587975,3.29459494 4.81818671,2.69536076 5.33061709,2.09592089 C5.65125633,1.72093671 5.10957595,1.17382595 4.78646835,1.55177215 L4.78646835,1.55177215 Z" id="Path"></path>
                            <path d="M8.28675949,2.4579462 C8.79918987,1.85850633 9.31166139,1.25927215 9.82396835,0.659832278 C9.64246203,0.659832278 9.46128481,0.659832278 9.27981962,0.659832278 C10.3141013,1.48985759 11.3483829,2.31984177 12.3826646,3.14986709 C12.7656709,3.45725949 13.3141392,2.91636076 12.9268133,2.60571835 C11.8925316,1.77569304 10.85825,0.945708861 9.82396835,0.115683544 C9.67097152,-0.00715822785 9.42664557,-0.0561139241 9.27981962,0.115683544 C8.76738924,0.715123418 8.25491772,1.31435759 7.74261076,1.91379747 C7.42197152,2.28878165 7.96381646,2.83589241 8.28675949,2.4579462 L8.28675949,2.4579462 Z" id="Path"></path>
                            <path d="M4.09158544,13.2355222 C5.63755696,13.2355222 7.18352848,13.2355222 8.72945886,13.2355222 C9.22588608,13.2355222 9.22588608,12.4658481 8.72945886,12.4658481 C7.18348734,12.4658481 5.63751582,12.4658481 4.09158544,12.4658481 C3.59532278,12.4658481 3.59532278,13.2355222 4.09158544,13.2355222 L4.09158544,13.2355222 Z" id="Path"></path>
                        </g>
                    </g>
                </g>
            </g>
        </g>
    </g>
</svg>