<?xml version="1.0" encoding="UTF-8"?>
<svg width="20px" height="22px" viewBox="0 0 20 22" version="1.1" xmlns="http://www.w3.org/2000/svg" xmlns:xlink="http://www.w3.org/1999/xlink">
    <title>thinking</title>
    <g id="Page-1" stroke="none" stroke-width="1" fill="none" fill-rule="evenodd">
        <g id="6,11-Поп-ап-новая-папка" transform="translate(-684.000000, -696.000000)" fill-rule="nonzero">
            <g id="Новая-папка" transform="translate(456.000000, 104.250000)">
                <g id="Group-8" transform="translate(58.500000, 559.500000)">
                    <g id="thinking" transform="translate(170.250000, 33.750000)">
                        <g id="Path" transform="translate(8.629718, 9.740497) scale(-1, 1) rotate(-180.000000) translate(-8.629718, -9.740497) translate(0.018873, 0.000000)">
                            <path d="M0.0310462254,10.8312427 C0.0310462254,6.05388523 3.87690919,2.18149123 8.62037609,2.18149123 C13.364362,2.18149123 17.209706,6.05388523 17.209706,10.8312427 C17.209706,15.6080775 13.3644092,19.4809942 8.62042328,19.4809942 C3.87695637,19.4809942 0.0310462254,15.6080775 0.0310462254,10.8312427" fill="#FFCC4D"></path>
                            <g transform="translate(3.868982, 7.792398)" fill="#664500">
                                <path d="M3.35889018,6.0121674 C3.35889018,5.26557018 2.8779096,4.66066155 2.28520036,4.66066155 C1.69249111,4.66066155 1.21151053,5.26561769 1.21151053,6.0121674 C1.21151053,6.75819444 1.69249111,7.36367325 2.28520036,7.36367325 C2.8779096,7.36367325 3.35889018,6.75824196 3.35889018,6.0121674"></path>
                                <path d="M9.04610572,5.47159357 C9.04610572,4.72499635 8.56564415,4.12008772 7.97241589,4.12008772 C7.37975383,4.12008772 6.89872607,4.72504386 6.89872607,5.47159357 C6.89872607,6.21762061 7.37970665,6.82309942 7.97241589,6.82309942 C8.56564415,6.82309942 9.04610572,6.21762061 9.04610572,5.47159357"></path>
                                <path d="M0.280123769,8.26493056 C0.192080826,8.31197003 0.117484956,8.38547515 0.0702078775,8.48007675 C-0.0457672319,8.71199561 0.0487397429,8.98121345 0.281161789,9.08175439 C2.57131633,10.0710563 4.41427311,9.10498904 4.4915584,9.06336623 C4.72402763,8.93849781 4.81796841,8.6589693 4.70147429,8.43949927 C4.58549918,8.2205519 4.30419584,8.14433845 4.0717738,8.26759137 C4.00576518,8.30218202 2.55145241,9.04174708 0.701512582,8.24217105 C0.563597511,8.18325292 0.407894557,8.19627193 0.280123769,8.26493056"></path>
                                <path d="M3.00294379,1.10775585 C2.92995213,1.17641447 2.87625821,1.26616959 2.85479007,1.3705117 C2.80166234,1.62404971 2.96109272,1.8602924 3.21177448,1.89706871 C5.6769297,2.26359649 7.2122552,0.854217836 7.27722579,0.794206871 C7.47048619,0.613651316 7.48926491,0.320105994 7.32124726,0.137364766 C7.15374863,-0.0442836257 6.86225383,-0.045376462 6.66951245,0.134133772 C6.6136953,0.183881579 5.39614538,1.27372442 3.40446868,0.978040936 C3.25579595,0.955851608 3.10872743,1.00830775 3.00294379,1.10775585"></path>
                                <path d="M6.05646745,6.23762427 C5.97271813,6.29060307 5.9029349,6.36900219 5.86212185,6.4668348 C5.76171704,6.70578582 5.87448373,6.96854167 6.11280361,7.05288012 C8.46467314,7.88324561 10.2383657,6.79340278 10.3130088,6.7463633 C10.5358055,6.60581506 10.6104014,6.3209174 10.4799412,6.10952485 C10.3500472,5.89870249 10.063365,5.84192251 9.84056824,5.98085526 C9.77616384,6.02033991 8.376064,6.8571674 6.47620487,6.18630848 C6.33456236,6.13651316 6.17994461,6.16031798 6.05646745,6.23762427"></path>
                            </g>
                            <path d="M8.23173208,0.488260234 C8.23173208,0.488260234 8.91083288,0.710438596 8.99887582,1.21917763 C9.0917314,1.74411915 8.66387856,1.85007675 8.66387856,1.85007675 C8.66387856,1.85007675 9.22271061,1.96254386 9.29306004,2.59396564 C9.35906865,3.18865863 8.83029199,3.33082237 8.83029199,3.33082237 C8.83029199,3.33082237 9.35100041,3.5470614 9.37572415,4.16280336 C9.39610708,4.68123538 8.84156865,4.93477339 8.84156865,4.93477339 C8.84156865,4.93477339 11.546129,5.59432383 11.8237049,5.65918129 C12.1007146,5.72460892 12.5328611,5.99221126 12.3981072,6.57550073 C12.2644386,7.15936038 11.7517512,7.1798867 11.4865844,7.11773757 C11.2213704,7.05501827 7.86616042,6.27059942 6.70876846,5.99919591 C6.5852913,5.97054459 6.00659532,5.83593567 5.9362459,5.81864035 C5.64635531,5.74998173 5.5148099,5.87865132 5.71882795,6.09541301 C5.99206305,6.38515716 6.16602571,6.70578582 6.22722169,7.23771199 C6.29110708,7.79776681 6.10265933,8.4886769 5.99475246,8.75627924 C5.79399002,9.25418494 5.45521813,9.64774854 5.06388471,9.78288012 C4.45296294,9.99370249 4.01921225,9.60935673 4.236064,8.93897295 C4.56030361,7.93612939 4.3482645,7.11441155 3.78886625,6.61812135 C2.47416712,5.45201754 1.86216015,4.62055921 2.26963006,2.84845395 C2.71357221,0.915749269 4.61937637,-0.32818348 6.53853323,0.119451754 C6.64002325,0.142258772 8.23173208,0.488260234 8.23173208,0.488260234" fill="#F4900C"></path>
                        </g>
                    </g>
                </g>
            </g>
        </g>
    </g>
</svg>