<?xml version="1.0" encoding="UTF-8"?>
<svg width="20px" height="21px" viewBox="0 0 20 21" version="1.1" xmlns="http://www.w3.org/2000/svg" xmlns:xlink="http://www.w3.org/1999/xlink">
    <title>unhappy</title>
    <g id="Page-1" stroke="none" stroke-width="1" fill="none" fill-rule="evenodd">
        <g id="6,11-Поп-ап-новая-папка" transform="translate(-649.000000, -663.000000)" fill-rule="nonzero">
            <g id="Новая-папка" transform="translate(456.000000, 104.250000)">
                <g id="Group-8" transform="translate(58.500000, 559.500000)">
                    <g id="unhappy" transform="translate(135.000000, 0.000000)">
                        <circle id="Oval" fill="#FFC10E" cx="9.74864241" cy="9.74864241" r="9.74864241"></circle>
                        <g id="Group" transform="translate(4.648734, 4.854430)" fill="#333333">
                            <path d="M10.0244399,9.71297468 C7.29978797,6.93122152 2.85588608,6.94278165 0.147072785,9.74189557 C-0.198044304,10.0984082 0.345651899,10.6431741 0.691221519,10.2860443 C3.11308861,7.78337975 7.04225633,7.76815823 9.48025,10.2571234 C9.828,10.6122785 10.3718608,10.0676361 10.0244399,9.71297468 L10.0244399,9.71297468 Z" id="Path"></path>
                            <circle id="Oval" cx="2.13668987" cy="1.5316962" r="1.53103797"></circle>
                            <circle id="Oval" cx="7.92617405" cy="1.5316962" r="1.53103797"></circle>
                        </g>
                        <path d="M14.1176297,7.75935443 C14.1176297,7.75935443 12.9856013,9.15290506 12.9856013,10.5905158 C12.9856013,11.2159557 13.4920253,11.7227089 14.1174652,11.7228734 C14.7435222,11.7225854 15.2501108,11.2158323 15.2501108,10.5903924 C15.2501108,9.89427532 14.1176297,7.75935443 14.1176297,7.75935443 Z" id="Path" fill="#A2D4DE"></path>
                    </g>
                </g>
            </g>
        </g>
    </g>
</svg>