<?xml version="1.0" encoding="utf-8"?>
<svg width="22px" height="18px" viewBox="0 0 22 18" version="1.1" xmlns:xlink="http://www.w3.org/1999/xlink" xmlns="http://www.w3.org/2000/svg">
  <defs>
    <linearGradient x1="0.22898652" y1="0.1878408" x2="0.22898652" y2="0.99999994" id="gradient_1">
      <stop offset="0" stop-color="#19181D" />
      <stop offset="0.3413752" stop-color="#242328" />
      <stop offset="0.67257553" stop-color="#1E1D22" />
      <stop offset="0.77451015" stop-color="#2C2B30" />
      <stop offset="0.9125" stop-color="#2E2D32" />
      <stop offset="1" stop-color="#2E2D32" />
    </linearGradient>
    <linearGradient x1="0.091175705" y1="0.5000003" x2="0.9432021" y2="0.5000003" id="gradient_2">
      <stop offset="0" stop-color="#201F24" />
      <stop offset="1" stop-color="#353439" />
    </linearGradient>
    <linearGradient x1="0" y1="0.5" x2="1" y2="0.5" id="gradient_3">
      <stop offset="0" stop-color="#040404" />
      <stop offset="1" stop-color="#0A0A0A" />
    </linearGradient>
    <path d="M3.34413 0L1.13923 0.0682327C1.15663 0.712225 1.09391 1.43693 1.00448 2.09416C0.985448 2.23372 0.967036 2.3856 0.934549 2.53332C0.89187 2.70268 0.82337 2.80986 0.726224 2.889C0.644836 2.95456 0.53979 2.99793 0.442508 3.05196C0.298602 3.13071 0.180581 3.20962 0.102342 3.27226C0.0694465 3.29868 0.0329701 3.32901 0.00546306 3.36627C0.00152615 3.37241 -3.439e-05 3.37796 5.73617e-07 3.38296C0.000140428 3.40322 0.0287826 3.41512 0.0539029 3.42434C0.134941 3.45062 0.286562 3.45952 0.468731 3.46099C0.566961 3.46174 0.685832 3.45955 0.794331 3.46027L5.89392 3.46027C6.00242 3.45955 6.12129 3.46174 6.21952 3.46099C6.40169 3.45952 6.55331 3.45062 6.63435 3.42434C6.65947 3.41512 6.68812 3.40322 6.68825 3.38296C6.68825 3.37796 6.68673 3.37241 6.68279 3.36627C6.65528 3.32901 6.61881 3.29868 6.58591 3.27226C6.50767 3.20962 6.38965 3.13071 6.24575 3.05196C6.14846 2.99793 6.04342 2.95456 5.96203 2.889C5.86488 2.80986 5.79638 2.70268 5.7537 2.53332C5.72122 2.3856 5.70281 2.23372 5.68378 2.09416C5.59434 1.43693 5.53163 0.712225 5.54902 0.0682327L3.34413 0Z" transform="translate(0.0007199105 0.0032554243)" id="path_1" />
    <clipPath id="mask_1">
      <use xlink:href="#path_1" />
    </clipPath>
  </defs>
  <g id="IMac_Pro">
    <g id="Group" transform="translate(7.6479936 14.49435)">
      <path d="M3.34413 0L1.13923 0.0682327C1.15663 0.712225 1.09391 1.43693 1.00448 2.09416C0.985448 2.23372 0.967036 2.3856 0.934549 2.53332C0.89187 2.70268 0.82337 2.80986 0.726224 2.889C0.644836 2.95456 0.53979 2.99793 0.442508 3.05196C0.298602 3.13071 0.180581 3.20962 0.102342 3.27226C0.0694465 3.29868 0.0329701 3.32901 0.00546306 3.36627C0.00152615 3.37241 -3.439e-05 3.37796 5.73617e-07 3.38296C0.000140428 3.40322 0.0287826 3.41512 0.0539029 3.42434C0.134941 3.45062 0.286562 3.45952 0.468731 3.46099C0.566961 3.46174 0.685832 3.45955 0.794331 3.46027L5.89392 3.46027C6.00242 3.45955 6.12129 3.46174 6.21952 3.46099C6.40169 3.45952 6.55331 3.45062 6.63435 3.42434C6.65947 3.41512 6.68812 3.40322 6.68825 3.38296C6.68825 3.37796 6.68673 3.37241 6.68279 3.36627C6.65528 3.32901 6.61881 3.29868 6.58591 3.27226C6.50767 3.20962 6.38965 3.13071 6.24574 3.05196C6.14846 2.99793 6.04342 2.95456 5.96203 2.889C5.86488 2.80986 5.79638 2.70268 5.7537 2.53332C5.72122 2.3856 5.70281 2.23372 5.68378 2.09416C5.59434 1.43693 5.53163 0.712225 5.54902 0.0682327L3.34413 0Z" transform="translate(0.0007284183 0.0032658768)" id="Path" fill="url(#gradient_1)" stroke="none" />
    </g>
    <g id="Clipped" transform="translate(7.648002 14.494361)">
      <path d="M3.34413 0L1.13923 0.0682327C1.15663 0.712225 1.09391 1.43693 1.00448 2.09416C0.985448 2.23372 0.967036 2.3856 0.934549 2.53332C0.89187 2.70268 0.82337 2.80986 0.726224 2.889C0.644836 2.95456 0.53979 2.99793 0.442508 3.05196C0.298602 3.13071 0.180581 3.20962 0.102342 3.27226C0.0694465 3.29868 0.0329701 3.32901 0.00546306 3.36627C0.00152615 3.37241 -3.439e-05 3.37796 5.73617e-07 3.38296C0.000140428 3.40322 0.0287826 3.41512 0.0539029 3.42434C0.134941 3.45062 0.286562 3.45952 0.468731 3.46099C0.566961 3.46174 0.685832 3.45955 0.794331 3.46027L5.89392 3.46027C6.00242 3.45955 6.12129 3.46174 6.21952 3.46099C6.40169 3.45952 6.55331 3.45062 6.63435 3.42434C6.65947 3.41512 6.68812 3.40322 6.68825 3.38296C6.68825 3.37796 6.68673 3.37241 6.68279 3.36627C6.65528 3.32901 6.61881 3.29868 6.58591 3.27226C6.50767 3.20962 6.38965 3.13071 6.24575 3.05196C6.14846 2.99793 6.04342 2.95456 5.96203 2.889C5.86488 2.80986 5.79638 2.70268 5.7537 2.53332C5.72122 2.3856 5.70281 2.23372 5.68378 2.09416C5.59434 1.43693 5.53163 0.712225 5.54902 0.0682327L3.34413 0Z" transform="translate(0.0007199105 0.0032554243)" id="Path" fill="none" fill-rule="evenodd" stroke="none" />
      <g clip-path="url(#mask_1)">
        <path d="M0.240483 0L10.7327 0Q10.7806 0 10.8248 0.0183057Q10.869 0.0366113 10.9028 0.0704358Q10.9366 0.10426 10.9549 0.148454Q10.9732 0.192648 10.9732 0.240483L10.9732 0.242483Q10.9732 0.290318 10.9549 0.334512Q10.9366 0.378706 10.9028 0.41253Q10.869 0.446354 10.8248 0.46466Q10.7806 0.482966 10.7327 0.482966L0.240483 0.482966Q0.192648 0.482966 0.148454 0.46466Q0.10426 0.446354 0.0704358 0.41253Q0.0366113 0.378706 0.0183057 0.334512Q0 0.290318 0 0.242483L0 0.240483Q0 0.192648 0.0183057 0.148454Q0.0366113 0.10426 0.0704358 0.0704358Q0.10426 0.0366113 0.148454 0.0183057Q0.192648 0 0.240483 0Z" transform="translate(-2.1384368 2.1463988)" id="Rectangle" fill="#6C6B71" fill-opacity="0.54901963" stroke="none" />
      </g>
    </g>
    <g id="Group" transform="translate(0.025928235 0)">
      <g id="Group" transform="translate(0.011646039 12.984521)">
        <path d="M0 0L0 0.52481L0 1.27646C0 1.84611 0.220807 2.00016 0.726224 2.00016L2.28174 2.00016L2.39938 2.00016L19.6762 2.00016L21.1843 2.00016C21.6897 2.00016 21.9105 1.84611 21.9105 1.27646L21.9105 2.64073e-15L0 0Z" transform="translate(0 0.009799954)" id="Path" fill="#000000" stroke="none" />
      </g>
      <path d="M0 0L0 0.52481L0 1.27646C0 1.84611 0.220874 2.00016 0.726445 2.00016L2.28244 2.00016L2.40011 2.00016L19.6821 2.00016L21.1908 2.00016C21.6963 2.00016 21.9172 1.84611 21.9172 1.27646L21.9172 2.64073e-15L0 0Z" transform="translate(0.011646039 12.967087)" id="Path" fill="url(#gradient_2)" stroke="none" />
      <g id="Group" transform="translate(0.014975743 0.01160305)">
        <path d="M0.726224 0C0.220806 0 0 0.154048 0 0.723702L0 1.47535L0 12.9827L21.9105 12.9827L21.9105 1.47535L21.9105 0.723702C21.9105 0.154048 21.6897 1.32037e-15 21.1843 1.32037e-15L19.6288 1.32037e-15L19.5112 1.32037e-15L2.2344 1.32037e-15L0.726224 0Z" id="Path" fill="url(#gradient_3)" stroke="none" />
      </g>
    </g>
    <g id="Group" transform="translate(0.9582835 0.87104434)">
      <path d="M0 0L20.066 0L20.066 11.255L0 11.255L0 0Z" transform="translate(0.0015478404 0.004424659)" id="Rectangle" fill="#000000" stroke="none" />
    </g>
  </g>
</svg>