<?xml version="1.0" encoding="utf-8"?>
<svg width="17px" height="23px" viewBox="0 0 17 23" version="1.1" xmlns:xlink="http://www.w3.org/1999/xlink" xmlns="http://www.w3.org/2000/svg">
  <g id="ipad11" transform="translate(0.26660156 0.26660156)">
    <path d="M0 0L0.703626 0L0.703626 0.477305L0 0.477305L0 0Z" transform="translate(7.598129 0.30572882)" id="Rectangle" fill="#000000" stroke="#000000" stroke-width="0.53333336" />
    <path d="M15.106 0.0356949L14.7448 0.0356949L1.13871 0L0.930994 0C0.207719 0 0 0.649831 0 1.05666L0 20.8586C0 21.3982 0.370526 21.8489 0.888889 21.8091L15.0685 21.8489C15.6019 21.8489 15.9995 21.4371 15.9995 20.8985L15.9995 1.09647C15.9963 0.685525 15.8381 0.0709322 15.106 0.0356949ZM8 0.552814C7.91267 0.552814 7.84187 0.483562 7.84187 0.398136C7.84187 0.312709 7.91267 0.243458 8 0.243458C8.08733 0.243458 8.15813 0.312709 8.15813 0.398136C8.15687 0.483048 8.08681 0.551585 8 0.552814L8 0.552814Z" transform="translate(0 0.15105085)" id="Shape" fill="#000000" stroke="none" />
    <path d="M14.6091 19.9205L14.6091 0.485085C14.6091 0.439322 14.6138 0.224237 14.4781 0.118983C14.3696 0.030661 14.1974 0.0439322 14.1572 0.0393559C14.1572 0.0393559 11.6042 0.030661 8.70316 0.0219661C4.90292 0.00869492 0.49731 0 0.411228 0C0.257778 0 0 0.158797 0 0.446186L0 19.9205C0 20.2033 0.0678363 20.4157 0.397661 20.4422C0.444444 20.4463 0.491228 20.4422 0.538012 20.4422C2.06082 20.4463 3.33053 20.4422 3.33053 20.4422L5.31883 20.4509C8.26012 20.4509 11.288 20.4463 14.0173 20.4463L14.1347 20.4463C14.6634 20.4463 14.6091 19.9205 14.6091 19.9205Z" transform="translate(0.6732164 0.8507627)" id="Path" fill="#3F3F3F" stroke="none" />
    <path d="M14.6091 19.9205L14.6091 0.485085C14.6091 0.439322 14.6138 0.224237 14.4781 0.118983C14.3696 0.030661 14.1974 0.0439322 14.1572 0.0393559C14.1572 0.0393559 11.6042 0.030661 8.70316 0.0219661C4.90292 0.00869492 0.49731 0 0.411228 0C0.257778 0 0 0.158797 0 0.446186L0 19.9205C0 20.2033 0.0678363 20.4157 0.397661 20.4422C0.444444 20.4463 0.491228 20.4422 0.538012 20.4422C2.06082 20.4463 3.33053 20.4422 3.33053 20.4422L5.31883 20.4509C8.26012 20.4509 11.288 20.4463 14.0173 20.4463L14.1347 20.4463C14.6634 20.4463 14.6091 19.9205 14.6091 19.9205Z" transform="translate(0.6732164 0.8507627)" id="Path" fill="none" fill-rule="evenodd" stroke="#000000" stroke-width="0.53333336" />
  </g>
</svg>