<?xml version="1.0" encoding="utf-8"?>
<svg width="17px" height="23px" viewBox="0 0 17 23" version="1.1" xmlns:xlink="http://www.w3.org/1999/xlink" xmlns="http://www.w3.org/2000/svg">
  <g id="Group-26" transform="translate(0.26660156 0.26660156)">
    <g id="ipad11">
      <path d="M0 0L0.703625 0L0.703625 0.477309L0 0.477309L0 0Z" transform="translate(7.598135 0.15478638)" id="Rectangle" fill="#000000" stroke="#000000" stroke-width="0.53333336" />
      <path d="M15.1059 0.0356952L14.7448 0.0356952L1.13871 0L0.930993 0C0.207719 0 0 0.649836 0 1.05667L0 20.8588C0 21.3984 0.370526 21.8491 0.888888 21.8093L15.0685 21.8491C15.6019 21.8491 15.9995 21.4373 15.9995 20.8986L15.9995 1.09648C15.9962 0.685531 15.8381 0.0709328 15.1059 0.0356952ZM7.99999 0.552818C7.91266 0.552818 7.84186 0.483566 7.84186 0.398139C7.84186 0.312712 7.91266 0.24346 7.99999 0.24346C8.08732 0.24346 8.15812 0.312712 8.15812 0.398139C8.15686 0.483051 8.0868 0.551589 7.99999 0.552818L7.99999 0.552818Z" id="Shape" fill="#000000" stroke="none" />
      <path d="M14.6091 19.9207L14.6091 0.485089C14.6091 0.439326 14.6138 0.224239 14.4781 0.118984C14.3696 0.0306613 14.1974 0.0439325 14.1572 0.0393562C14.1572 0.0393562 11.6042 0.0306613 8.70315 0.0219663C4.90292 0.00869498 0.497309 0 0.411228 0C0.257777 0 0 0.158798 0 0.44619L0 19.9207C0 20.2035 0.0678362 20.4158 0.39766 20.4424C0.444444 20.4465 0.491227 20.4424 0.538011 20.4424C2.06082 20.4465 3.33052 20.4424 3.33052 20.4424L5.31882 20.4511C8.26011 20.4511 11.2879 20.4465 14.0173 20.4465L14.1347 20.4465C14.6634 20.4465 14.6091 19.9207 14.6091 19.9207Z" transform="translate(0.673339 0.6997125)" id="Path" fill="#3F3F3F" stroke="none" />
      <path d="M14.6091 19.9207L14.6091 0.485089C14.6091 0.439326 14.6138 0.224239 14.4781 0.118984C14.3696 0.0306613 14.1974 0.0439325 14.1572 0.0393562C14.1572 0.0393562 11.6042 0.0306613 8.70315 0.0219663C4.90292 0.00869498 0.497309 0 0.411228 0C0.257777 0 0 0.158798 0 0.44619L0 19.9207C0 20.2035 0.0678362 20.4158 0.39766 20.4424C0.444444 20.4465 0.491227 20.4424 0.538011 20.4424C2.06082 20.4465 3.33052 20.4424 3.33052 20.4424L5.31882 20.4511C8.26011 20.4511 11.2879 20.4465 14.0173 20.4465L14.1347 20.4465C14.6634 20.4465 14.6091 19.9207 14.6091 19.9207Z" transform="translate(0.673339 0.6997125)" id="Path" fill="none" fill-rule="evenodd" stroke="#000000" stroke-width="0.53333336" />
    </g>
    <g id="question-2" transform="translate(6 6.849121)">
      <path d="M0.781249 1.44929C1.21272 1.44929 1.5625 1.12485 1.5625 0.724643C1.5625 0.324434 1.21272 0 0.781249 0C0.349777 0 0 0.324434 0 0.724643C0 1.12485 0.349777 1.44929 0.781249 1.44929Z" transform="translate(1.7187481 6.5362835)" id="Oval" fill="#FFFFFF" stroke="none" />
      <path d="M2.5 0C1.1215 0 0 1.04024 0 2.31886C0 2.63904 0.279812 2.89857 0.624999 2.89857C0.970186 2.89857 1.25 2.63904 1.25 2.31886C1.25 1.67955 1.81075 1.15943 2.5 1.15943C3.18925 1.15943 3.75 1.67955 3.75 2.31886C3.75 2.95817 3.18925 3.47829 2.5 3.47829C2.15481 3.47829 1.875 3.73783 1.875 4.058L1.875 5.50729C1.875 5.82747 2.15481 6.087 2.5 6.087C2.84518 6.087 3.125 5.82747 3.125 5.50729L3.125 4.56435C4.20206 4.30629 4.99999 3.39739 4.99999 2.31886C4.99999 1.04024 3.8785 0 2.5 0Z" transform="translate(0 0.0144928675)" id="Path" fill="#FFFFFF" stroke="none" />
    </g>
  </g>
</svg>