<svg width="14" height="7" viewBox="0 0 14 7" fill="none" xmlns="http://www.w3.org/2000/svg">
<path d="M12.25 6.125L3.5 6.125C2.05013 6.125 0.875 4.94987 0.875 3.5C0.875 2.05013 2.05013 0.875 3.5 0.875L11.375 0.875C12.3414 0.875 13.125 1.65856 13.125 2.625C13.125 3.59144 12.3414 4.375 11.375 4.375L3.5 4.375C3.01656 4.375 2.625 3.983 2.625 3.5C2.625 3.01656 3.01656 2.625 3.5 2.625L10.5 2.625V1.75L3.5 1.75C2.53356 1.75 1.75 2.53356 1.75 3.5C1.75 4.46644 2.53356 5.25 3.5 5.25L11.375 5.25C12.8249 5.25 14 4.07487 14 2.625C14 1.17513 12.8249 0 11.375 0L3.0625 0C1.33656 0.215692 0 1.71544 0 3.5C0 5.28456 1.33656 6.78431 3.0625 7L12.25 7V6.125Z" fill="#4086F1"/>
</svg>
