<svg width="12" height="23" viewBox="0 0 12 23" fill="none" xmlns="http://www.w3.org/2000/svg">
<path d="M9.96562 3.49346V16.8372C9.96562 19.0483 8.17355 20.8403 5.9625 20.8403C3.75145 20.8403 1.95938 19.0483 1.95938 16.8372V4.82783C1.95938 3.35401 3.1543 2.15908 4.62812 2.15908C6.10195 2.15908 7.29688 3.35401 7.29688 4.82783V16.8372C7.29688 17.5745 6.69907 18.1716 5.9625 18.1716C5.22525 18.1716 4.62812 17.5745 4.62812 16.8372V6.16221H3.29375V16.8372C3.29375 18.311 4.48868 19.506 5.9625 19.506C7.43632 19.506 8.63125 18.311 8.63125 16.8372V4.82783C8.63125 2.61679 6.83917 0.824707 4.62812 0.824707C2.41708 0.824707 0.625 2.61679 0.625 4.82783V17.5044C0.95393 20.1365 3.24105 22.1747 5.9625 22.1747C8.68395 22.1747 10.9711 20.1365 11.3 17.5044V3.49346H9.96562Z"/>
</svg>
