<svg width="19" height="19" viewBox="0 0 19 19" fill="none" xmlns="http://www.w3.org/2000/svg">
<path fill-rule="evenodd" clip-rule="evenodd" d="M16.3109 3.02718C12.7413 -0.542769 6.93351 -0.542769 3.36456 3.02631C-0.205083 6.5954 -0.204738 12.4032 3.3649 15.973C6.93351 19.5419 12.7413 19.5419 16.3105 15.9723C19.8798 12.4032 19.8797 6.59574 16.3109 3.02718ZM15.3143 14.9743C12.2957 17.9928 7.38402 17.9931 4.36532 14.9746C1.3461 11.9556 1.34644 7.04344 4.36532 4.02495C7.38385 1.00663 12.2954 1.00628 15.3146 4.02529C18.3331 7.04379 18.3328 11.956 15.3143 14.9743ZM7.49237 5.95225C6.90157 5.95225 6.4224 6.4314 6.4224 7.0222C6.4224 7.61333 6.90157 8.09232 7.49237 8.09232C8.08299 8.09232 8.56215 7.61333 8.56215 7.0222C8.56215 6.43123 8.08299 5.95225 7.49237 5.95225ZM11.2769 7.0222C11.2769 6.4314 11.7564 5.95225 12.3472 5.95225C12.9378 5.95225 13.417 6.43123 13.417 7.0222C13.417 7.61333 12.938 8.09232 12.3472 8.09232C11.7564 8.09232 11.2769 7.61333 11.2769 7.0222ZM9.84811 13.9284C11.5881 13.9284 13.141 12.9377 13.8041 11.4043C13.9176 11.142 13.7967 10.8375 13.5344 10.7238C13.2721 10.6101 12.9674 10.731 12.8539 10.9935C12.3549 12.1478 11.175 12.8934 9.84811 12.8934C8.49052 12.8934 7.30374 12.1483 6.82458 10.9947C6.74193 10.7954 6.54937 10.6755 6.34645 10.6755C6.2802 10.6755 6.2129 10.6882 6.14803 10.715C5.88386 10.8247 5.75876 11.1277 5.8685 11.3915C6.50865 12.9327 8.07071 13.9284 9.84811 13.9284Z" />
</svg>
