<svg width="18" height="18" viewBox="0 0 18 18" fill="none" xmlns="http://www.w3.org/2000/svg">
<path fill-rule="evenodd" clip-rule="evenodd" d="M16.8801 6.41101C17.0611 6.43939 17.2102 6.56355 17.2669 6.73737C17.3237 6.9112 17.2776 7.10276 17.1392 7.23047L13.2497 11.044L14.183 16.3829C14.1937 16.4183 14.1972 16.4538 14.1972 16.4928C14.1972 16.7553 13.9807 16.9717 13.7181 16.9717C13.6436 16.9717 13.5691 16.954 13.4981 16.9185L8.66814 14.3963L3.85239 16.9469C3.78141 16.9859 3.70688 17.0037 3.62881 17.0037C3.52944 17.0037 3.43008 16.9717 3.34845 16.9114C3.1994 16.805 3.12488 16.6241 3.15682 16.4432L4.06177 11.0723L0.147416 7.28013C0.0161094 7.15597 -0.0335742 6.96441 0.023207 6.79058C0.0799882 6.61676 0.229039 6.4926 0.410029 6.46422L5.80424 5.6625L8.19969 0.770582C8.28132 0.603852 8.44811 0.500977 8.6291 0.500977C8.81009 0.500977 8.97689 0.603852 9.05851 0.767034L11.4859 5.64476L16.8801 6.41101ZM12.2708 10.9623C12.2424 10.8062 12.2921 10.6466 12.4057 10.5366L15.7877 7.22687L11.1032 6.55996C10.9471 6.53512 10.8122 6.43934 10.7413 6.29745L8.63325 2.06181L6.55364 6.30809C6.48622 6.44999 6.35136 6.54577 6.19521 6.5706L1.51432 7.2659L4.90699 10.5579C5.02055 10.6679 5.07024 10.824 5.04539 10.9801L4.2611 15.6449L8.44162 13.4313C8.58357 13.3604 8.75036 13.3568 8.88877 13.4313L13.0835 15.6201L12.2708 10.9623Z" fill="#D0CDCD"/>
</svg>
