<svg width="16" height="13" viewBox="0 0 16 13" fill="none" xmlns="http://www.w3.org/2000/svg">
<path d="M6.28579 0H1.57145C0.707151 0 0 0.707151 0 1.57145V11.0001C0 11.8644 0.707151 12.5716 1.57145 12.5716H14.143C15.0073 12.5716 15.7145 11.8644 15.7145 11.0001V3.14289C15.7145 2.2786 15.0073 1.57145 14.143 1.57145H7.85724L6.28579 0Z" />
<path d="M8.36751 9.76601C8.31864 9.74526 8.28674 9.69683 8.28674 9.64309V8.18533H5.01928C4.94714 8.18533 4.88858 8.12572 4.88858 8.05229V5.92376C4.88858 5.85033 4.94714 5.79073 5.01928 5.79073H8.28675V4.32737C8.28675 4.27363 8.31865 4.2252 8.36727 4.20445C8.41615 4.18396 8.47235 4.19513 8.50973 4.23318L11.1258 6.88718C11.1504 6.91219 11.1642 6.94599 11.1642 6.98137C11.1642 7.01675 11.1504 7.05055 11.1261 7.07556L8.50999 9.73728C8.4726 9.77533 8.4164 9.78677 8.36751 9.76601Z" fill="white"/>
</svg>
