<svg width="17" height="17" viewBox="0 0 17 17" fill="none" xmlns="http://www.w3.org/2000/svg">
<path d="M0.531261 5.66634C0.238004 5.66634 0 5.42834 0 5.13508V1.94751C0 0.872928 0.873416 -0.000488281 1.948 -0.000488281H5.13557C5.42882 -0.000488281 5.66683 0.237516 5.66683 0.530773C5.66683 0.82403 5.42882 1.06203 5.13557 1.06203H1.948C1.45993 1.06203 1.06252 1.45944 1.06252 1.94751V5.13508C1.06252 5.42834 0.824518 5.66634 0.531261 5.66634Z"/>
<path d="M15.0524 16.9998H11.8648C11.5716 16.9998 11.3336 16.7618 11.3336 16.4686C11.3336 16.1753 11.5716 15.9373 11.8648 15.9373H15.0524C15.5405 15.9373 15.9379 15.5399 15.9379 15.0518V11.8643C15.9379 11.571 16.1759 11.333 16.4691 11.333C16.7624 11.333 17.0004 11.571 17.0004 11.8643V15.0518C17.0004 16.1264 16.127 16.9998 15.0524 16.9998Z"/>
<path d="M5.13557 16.9998H1.948C0.873416 16.9998 0 16.1264 0 15.0518V11.8643C0 11.571 0.238004 11.333 0.531261 11.333C0.824518 11.333 1.06252 11.571 1.06252 11.8643V15.0518C1.06252 15.5399 1.45993 15.9373 1.948 15.9373H5.13557C5.42882 15.9373 5.66683 16.1753 5.66683 16.4686C5.66683 16.7618 5.42882 16.9998 5.13557 16.9998Z" />
<path d="M16.4691 5.66634C16.1759 5.66634 15.9379 5.42834 15.9379 5.13508V1.94751C15.9379 1.45944 15.5405 1.06203 15.0524 1.06203H11.8648C11.5716 1.06203 11.3336 0.82403 11.3336 0.530773C11.3336 0.237516 11.5716 -0.000488281 11.8648 -0.000488281H15.0524C16.127 -0.000488281 17.0004 0.872928 17.0004 1.94751V5.13508C17.0004 5.42834 16.7624 5.66634 16.4691 5.66634Z"/>
</svg>
