<svg width="21" height="19" viewBox="0 0 21 19" fill="none" xmlns="http://www.w3.org/2000/svg">
<path fill-rule="evenodd" clip-rule="evenodd" d="M11.6115 6.60963C11.6115 7.73375 10.6887 8.6483 9.55463 8.6483C8.42059 8.6483 7.49796 7.73375 7.49796 6.60963C7.49796 5.48535 8.42059 4.5708 9.55463 4.5708C10.6887 4.5708 11.6115 5.48535 11.6115 6.60963ZM10.4064 6.60984C10.4064 6.14493 10.0249 5.76675 9.55589 5.76675C9.08704 5.76675 8.70552 6.14493 8.70552 6.60984C8.70552 7.07459 9.08704 7.45277 9.55589 7.45277C10.0249 7.45277 10.4064 7.07459 10.4064 6.60984Z" />
<path fill-rule="evenodd" clip-rule="evenodd" d="M20.0599 0.751465H0.975859C0.561351 0.751465 0.224121 1.08574 0.224121 1.49662V17.5086C0.224121 17.9195 0.561351 18.2538 0.975859 18.2538H20.0599C20.4744 18.2538 20.8116 17.9195 20.8116 17.5086V1.49662C20.8116 1.08574 20.4744 0.751465 20.0599 0.751465ZM19.6066 1.94741V11.4099L15.8127 7.64913C15.5653 7.40437 15.1631 7.40453 14.9158 7.64959L9.55017 12.9683L6.12274 9.57103C6.00289 9.45208 5.84347 9.38653 5.67383 9.38653C5.50435 9.38653 5.34509 9.45192 5.22524 9.57071L1.43168 13.3311V1.94741H19.6066ZM1.43168 15.0222V17.0584H19.6067V13.1011L15.3644 8.89594L9.9986 14.2148C9.87892 14.3336 9.71949 14.3991 9.55017 14.3991C9.38053 14.3991 9.22111 14.3334 9.1011 14.2145L5.67383 10.8172L1.43168 15.0222Z" />
</svg>
