<svg width="11" height="15" viewBox="0 0 11 15" fill="none" xmlns="http://www.w3.org/2000/svg">
<path d="M9.36791 1.08398H8.00743V1.55383C8.00651 2.45548 7.28827 3.18628 6.40211 3.18722H4.02202C3.13587 3.18628 2.41763 2.45548 2.41671 1.55383V1.08398H1.05622C0.473107 1.08476 0.000766039 1.56536 0 2.15867V13.5314C0.000612833 14.1247 0.473107 14.6055 1.05622 14.6061H9.36791C9.95103 14.6055 10.4235 14.1247 10.4241 13.5314V2.15867C10.4235 1.56536 9.95103 1.08476 9.36791 1.08398Z"/>
<path d="M4.02094 2.62842H6.40103C6.98414 2.62779 7.45663 2.14704 7.45725 1.55373V1.08388H6.56174C6.4329 1.08388 6.32136 0.992534 6.29363 0.864395C6.18546 0.363529 5.73028 0 5.21106 0C4.69184 0 4.2365 0.363529 4.12849 0.864551C4.10091 0.99269 3.98922 1.08404 3.86038 1.08404H2.96472V1.55388C2.96549 2.14704 3.43798 2.62779 4.02094 2.62842Z"/>
<rect x="1.43921" y="5.47705" width="7.55483" height="1.09545" rx="0.547725" fill="white"/>
<rect x="1.43921" y="7.66797" width="7.55483" height="1.09545" rx="0.547725" fill="white"/>
</svg>
