<svg width="7" height="23" viewBox="0 0 7 23" fill="none" xmlns="http://www.w3.org/2000/svg">
<path fill-rule="evenodd" clip-rule="evenodd" d="M0.447937 18.075V18.0663H0.456637V6.23665C0.456637 6.01879 0.63498 5.84015 0.852471 5.84015C1.06996 5.84015 1.24831 6.01879 1.24831 6.23665V17.6698H3.26663V6.23665C3.26663 6.01879 3.44497 5.84015 3.66246 5.84015C3.87995 5.84015 4.0583 6.01879 4.0583 6.23665V17.6698H6.07662V6.21486C6.07662 5.997 6.25496 5.81836 6.47245 5.81836C6.68995 5.81836 6.86829 5.997 6.86829 6.21486V18.0663V18.075C6.86829 18.0924 6.86829 18.1142 6.86394 18.1316C6.85959 18.1404 6.85959 18.1447 6.85959 18.1491C6.85524 18.16 6.85198 18.1709 6.84871 18.1818C6.84545 18.1926 6.84219 18.2035 6.83784 18.2144C6.83618 18.2178 6.83515 18.2205 6.83427 18.2228C6.83286 18.2265 6.83183 18.2292 6.82914 18.2319C6.82479 18.2384 6.82044 18.246 6.81609 18.2536C6.81174 18.2613 6.80739 18.2689 6.80304 18.2754C6.80087 18.2776 6.79869 18.2809 6.79652 18.2841C6.79434 18.2874 6.79217 18.2907 6.78999 18.2929C6.78782 18.295 6.78673 18.2972 6.78564 18.2994C6.78455 18.3016 6.78347 18.3038 6.78129 18.3059L3.9713 21.9964C3.89735 22.0966 3.77991 22.1533 3.65811 22.1533C3.53632 22.1533 3.41887 22.0923 3.34493 21.9964L0.534934 18.3059C0.532759 18.3038 0.531671 18.3016 0.530584 18.2994C0.529496 18.2972 0.528409 18.295 0.526234 18.2929C0.524059 18.2907 0.521884 18.2874 0.519709 18.2841C0.517534 18.2809 0.515359 18.2776 0.513184 18.2754C0.504485 18.2624 0.495785 18.2493 0.487086 18.2319C0.485424 18.2285 0.484397 18.2258 0.48352 18.2235C0.482101 18.2198 0.481074 18.2171 0.478386 18.2144C0.469686 18.1926 0.460987 18.1709 0.456637 18.1491C0.452287 18.1404 0.452287 18.136 0.452287 18.1316C0.452287 18.1229 0.451199 18.1131 0.450112 18.1033C0.449024 18.0935 0.447937 18.0837 0.447937 18.075ZM3.64928 21.1032L5.66325 18.4627V18.4584H1.6353L3.64928 21.1032Z" />
<path fill-rule="evenodd" clip-rule="evenodd" d="M1.87033 0.824707H5.43719C6.22016 0.824707 6.85524 1.46085 6.85524 2.24514V4.42371C6.85524 4.64156 6.6769 4.82021 6.4594 4.82021H0.843772C0.62628 4.82021 0.447937 4.64156 0.447937 4.42371V2.24949C0.447937 1.46085 1.08736 0.824707 1.87033 0.824707ZM1.23952 4.02711H6.06783V2.24504C6.06783 1.89647 5.78509 1.61326 5.4371 1.61326H1.87024C1.52225 1.61326 1.23952 1.89647 1.23952 2.24504V4.02711Z"/>
</svg>
