<svg width="14" height="13" viewBox="0 0 14 13" fill="none" xmlns="http://www.w3.org/2000/svg">
<path fill-rule="evenodd" clip-rule="evenodd" d="M0.957031 6.49989C0.957031 2.91023 3.86717 0 7.45692 0C11.0467 0 13.957 2.91023 13.957 6.49989C13.957 10.0896 11.0467 13 7.45692 13C3.86717 13 0.957031 10.0896 0.957031 6.49989ZM7.51119 7.73604H10.2669C10.5152 7.73604 10.7163 7.53475 10.7163 7.28649C10.7163 7.03823 10.515 6.83695 10.2667 6.83695H7.90631V2.69737C7.90631 2.44911 7.70503 2.24783 7.45677 2.24783C7.20851 2.24783 7.00722 2.44911 7.00722 2.69737V7.28649C7.00722 7.53475 7.20851 7.73604 7.45677 7.73604C7.46196 7.73604 7.46693 7.73537 7.47191 7.7347C7.47589 7.73417 7.47988 7.73363 7.48398 7.73344C7.48821 7.7336 7.49233 7.73416 7.49644 7.73472C7.5013 7.73538 7.50615 7.73604 7.51119 7.73604Z"/>
</svg>
