<svg width="16" height="16" viewBox="0 0 16 16" fill="none" xmlns="http://www.w3.org/2000/svg">
<path d="M3.503 3.10263C5.8348 1.01315 9.32444 0.981199 11.6885 2.88857L9.81466 2.95886C9.57277 2.96845 9.38571 3.16653 9.39539 3.40615C9.40507 3.63938 9.59858 3.82149 9.83079 3.82149C9.83724 3.82149 9.84046 3.82149 9.84691 3.82149L12.7238 3.71606C12.9592 3.70647 13.143 3.51797 13.143 3.28474V3.25279C13.143 3.2464 13.143 3.24321 13.143 3.23682V3.23362L13.0366 0.415696C13.0269 0.176077 12.8237 -0.00922913 12.5851 0.000355656C12.3432 0.00994044 12.1561 0.208026 12.1658 0.447646L12.2335 2.21444C11.0628 1.26555 9.62115 0.71602 8.07952 0.639342C6.17022 0.543494 4.3351 1.19206 2.91925 2.46365C0.971243 4.21127 0.145599 6.86945 0.764832 9.39984C0.81321 9.59792 0.990594 9.72892 1.18733 9.72892C1.22281 9.72892 1.25506 9.72572 1.29054 9.71614C1.52275 9.65863 1.66788 9.4254 1.60983 9.19536C1.068 6.97169 1.79044 4.6362 3.503 3.10263Z"/>
<path d="M14.8014 6.24646C14.7433 6.01642 14.5079 5.87265 14.2757 5.93016C14.0435 5.98767 13.8983 6.2209 13.9564 6.45094C14.5014 8.67461 13.7758 11.0101 12.0632 12.5437C10.8602 13.6204 9.35083 14.1507 7.84791 14.1507C6.4127 14.1507 4.98073 13.6683 3.82612 12.7162L5.72252 12.5469C5.96118 12.5245 6.13856 12.3168 6.11599 12.0772C6.09341 11.8376 5.88378 11.6651 5.64189 11.6874L2.77471 11.943C2.53605 11.9654 2.35866 12.1731 2.38124 12.4127L2.63925 15.253C2.65861 15.4766 2.84889 15.6459 3.07143 15.6459C3.08433 15.6459 3.09723 15.6459 3.11013 15.6427C3.34879 15.6204 3.52618 15.4127 3.5036 15.1731L3.34879 13.4446C4.51953 14.3839 5.95473 14.9303 7.48669 15.007C7.60924 15.0133 7.7318 15.0165 7.85113 15.0165C9.6282 15.0165 11.3182 14.3712 12.647 13.1827C14.595 11.435 15.4206 8.78004 14.8014 6.24646Z"/>
</svg>
