<svg width="13" height="14" viewBox="0 0 13 14" fill="none" xmlns="http://www.w3.org/2000/svg">
<path fill-rule="evenodd" clip-rule="evenodd" d="M9.18729 0.794924C8.98888 0.596509 8.72522 0.487305 8.44491 0.487305H4.15465C3.8742 0.487305 3.61068 0.596509 3.41226 0.794924L0.307875 3.89931C0.109205 4.09747 0 4.361 0 4.64221C0.00128175 5.43023 0.00551151 8.14394 0.00205079 8.93196C0.0010254 9.21343 0.11023 9.47798 0.309798 9.67716L3.41226 12.7798C3.61068 12.9782 3.8742 13.0874 4.15465 13.0874H8.44491C8.72522 13.0874 8.98888 12.9782 9.18729 12.7798L12.2922 9.67485C12.4906 9.4767 12.5998 9.21291 12.5998 8.93221V4.64247C12.5998 4.36215 12.4906 4.09824 12.2922 3.89982L9.18729 0.794924ZM6.30008 2.58722C6.01656 2.58722 5.74675 2.70899 5.55897 2.92163C5.37133 3.13401 5.28417 3.41728 5.31826 3.69029L5.77828 7.89441C5.80737 8.16063 6.03206 8.36225 6.30008 8.36225C6.56809 8.36225 6.79278 8.16063 6.82188 7.89416L7.28074 3.69836C7.31599 3.41728 7.22883 3.13401 7.04106 2.92163C6.85341 2.70899 6.5836 2.58722 6.30008 2.58722ZM5.51239 10.1997C5.51239 9.7656 5.86577 9.41222 6.2999 9.41222C6.73403 9.41222 7.0874 9.7656 7.0874 10.1997C7.0874 10.6339 6.73403 10.9872 6.2999 10.9872C5.86577 10.9872 5.51239 10.6339 5.51239 10.1997Z" />
</svg>
