<?xml version="1.0" encoding="utf-8"?>
<svg width="65px" height="65px" viewBox="0 0 65 65" version="1.1" xmlns:xlink="http://www.w3.org/1999/xlink" xmlns="http://www.w3.org/2000/svg">
  <g id="acrobat">
    <path d="M65 65L0 65L0 0L65 0L65 65Z" id="Path" fill="#FD4B2D" stroke="none" />
    <path d="M32.5 65L0 65L0 0L32.5 0L32.5 65Z" transform="translate(32.5 0)" id="Path" fill="#E8130F" stroke="none" />
    <path d="M57.3828 57.3828L0 57.3828L0 0L57.3828 0L57.3828 57.3828Z" transform="translate(3.8085938 3.8085938)" id="Path" fill="#FF6849" stroke="none" />
    <path d="M28.6914 57.3828L0 57.3828L0 0L28.6914 0L28.6914 57.3828Z" transform="translate(32.5 3.8085938)" id="Path" fill="#FD4B2D" stroke="none" />
    <path d="M4.0585 42.2858C3.40787 42.2858 2.83455 42.1644 2.3421 41.9852L2.25844 41.9525C1.15179 41.496 0.340555 40.5242 0.0890605 39.3532L0.0756034 39.2839C-0.27885 37.2736 0.44491 34.2003 5.90656 30.9759C7.99964 29.7403 10.5335 28.6459 13.34 27.7504C14.0514 26.2722 14.7133 24.6992 15.3092 23.0622C15.905 21.4251 16.409 19.7947 16.8142 18.2051C15.2399 15.715 14.0024 13.2479 13.1933 10.956C11.0972 5.01845 12.4827 2.19654 14.0331 0.872161C14.995 0.00545187 16.3782 -0.239314 17.5799 0.246282C19.4899 0.960139 21.7578 3.13764 21.819 9.43515C21.8426 11.8657 21.5233 14.6072 20.8957 17.4855C21.8201 18.8406 22.8514 20.2004 23.9712 21.5349C25.0911 22.8695 26.2511 24.1212 27.4251 25.267C30.3688 25.1485 33.124 25.3103 35.5136 25.7556C41.7227 26.9127 43.4654 29.536 43.8299 31.5431C44.0797 32.8086 43.6138 34.0889 42.609 34.8979C41.0396 36.2013 38.0183 37.0909 32.518 33.986C30.4013 32.7912 28.1867 31.144 26.0078 29.1611C24.3716 29.2841 22.6791 29.4974 20.9631 29.8C19.2474 30.1025 17.5835 30.4812 16.004 30.925C14.6347 33.5335 13.117 35.8387 11.5367 37.6854C8.47127 41.2671 5.94236 42.2858 4.0585 42.2858ZM3.81196 38.4502C4.67435 38.6007 6.38327 37.8493 8.64265 35.209C9.22626 34.5272 9.80161 33.7718 10.3635 32.9528C9.45934 33.3639 8.61549 33.7994 7.84272 34.2556C4.85044 36.0222 3.81361 37.5744 3.81196 38.4502ZM32.0011 29.1375C32.8092 29.715 33.6082 30.228 34.3898 30.6692C37.4157 32.3774 39.2783 32.4991 40.0378 32.0626C39.7365 31.2402 38.2314 30.1361 34.8154 29.4996C33.9332 29.3352 32.9914 29.2146 32.0011 29.1375ZM19.6241 22.2085C19.3955 22.9254 19.1498 23.6453 18.8879 24.3648C18.626 25.0843 18.3515 25.7937 18.0659 26.4899C18.8013 26.3294 19.547 26.1823 20.3014 26.0494C21.0554 25.9165 21.8071 25.7995 22.5527 25.6989C22.0459 25.1422 21.5457 24.57 21.0533 23.9831C20.5613 23.3963 20.0842 22.8039 19.6241 22.2085ZM16.393 3.88387C15.8314 4.55583 15.6279 6.41138 16.7845 9.68804C17.0833 10.5343 17.4498 11.4103 17.8781 12.3064C17.9742 11.3179 18.0189 10.3694 18.0103 9.47196C17.9765 5.99739 17.1507 4.32325 16.393 3.88387Z" transform="translate(10.805422 10.726276)" id="Shape" fill="#FFFFFF" stroke="none" />
    <g id="Group" transform="translate(32.373047 17.90039)">
      <path d="M0.000787544 5.13678C0.091686 4.11722 0.134088 3.13358 0.124948 2.19654C0.117204 1.40004 0.0739125 0.670059 0.000787544 0L0.000787544 5.13678Z" transform="translate(0.12616558 0.06436524)" id="Path" fill="#E5E5E5" stroke="none" />
      <path d="M22.135 12.9231C21.7706 10.9158 20.0279 8.29258 13.8187 7.13553C11.4292 6.69018 8.67395 6.52844 5.73028 6.64688C4.55622 5.50101 3.39625 4.24938 2.2764 2.91484C1.46897 1.95267 0.708525 0.977285 0 0L0 6.11165C0.283994 6.43843 0.569639 6.76178 0.858203 7.07865C0.573193 7.11712 0.28666 7.16016 3.60822e-15 7.20345L3.60822e-15 11.0566C1.46517 10.8191 2.90989 10.6467 4.31285 10.5412C6.49175 12.5241 8.70632 14.1711 10.823 15.366C16.3235 18.4709 19.3447 17.5815 20.914 16.2779C21.919 15.469 22.385 14.1885 22.135 12.9231ZM12.6954 12.0492C11.9138 11.6081 11.1149 11.0951 10.3068 10.5176C11.2971 10.5946 12.2389 10.7152 13.1211 10.8796C16.537 11.5162 18.0422 12.6203 18.3435 13.4427C17.584 13.8792 15.7212 13.7574 12.6954 12.0492Z" transform="translate(0.12682617 11.44584)" id="Shape" fill="#E5E5E5" stroke="none" />
    </g>
  </g>
</svg>