<?xml version="1.0" encoding="utf-8"?>
<svg width="22px" height="21px" viewBox="0 0 22 21" version="1.1" xmlns:xlink="http://www.w3.org/1999/xlink" xmlns="http://www.w3.org/2000/svg">
  <g id="Group-4" transform="translate(0.35302734 0.35302734)">
    <g id="men">
      <path d="M3.8765 1.25946C3.8765 0.817274 3.95619 0.393091 4.10205 0L2.67107 0C1.19824 0 0 1.17949 0 2.62926L0 5.53142C0 6.40127 0.718922 7.10897 1.60264 7.10897L3.9684 7.10897C3.9091 6.94434 3.8765 6.76743 3.8765 6.58309L3.8765 1.25946Z" transform="translate(0 8.371277)" id="Path" fill="#4086F1" stroke="none" />
      <path d="M5.94248 0L2.67107 0C1.19824 0 0 1.17949 0 2.62926L0 7.95289C0 8.24328 0.239171 8.47875 0.534213 8.47875L8.07934 8.47875C8.37438 8.47875 8.61355 8.24332 8.61355 7.95289L8.61355 2.62926C8.61355 1.17949 7.41531 0 5.94248 0Z" transform="translate(4.944926 7.0014696)" id="Path" fill="#4086F1" stroke="none" />
      <path d="M3.21229 0C1.44102 0 0 1.41847 0 3.16205C0 4.34471 0.663123 5.37759 1.64243 5.91988C2.10693 6.17708 2.64244 6.32407 3.21229 6.32407C3.78214 6.32407 4.31765 6.17708 4.78215 5.91988C5.7615 5.37759 6.42458 4.34467 6.42458 3.16205C6.42458 1.41851 4.98356 0 3.21229 0Z" transform="translate(6.039409 0.029882045)" id="Path" fill="#4086F1" stroke="none" />
      <path d="M2.40237 0C1.07768 0 0 1.06081 0 2.36477C0 3.66873 1.07768 4.72955 2.40237 4.72955C2.73839 4.72955 3.05837 4.66103 3.34904 4.53787C3.8516 4.32489 4.26597 3.94788 4.52238 3.47564C4.70236 3.1442 4.80474 2.76608 4.80474 2.36477C4.80474 1.06085 3.72706 0 2.40237 0Z" transform="translate(1.2086118 2.977141)" id="Path" fill="#4086F1" stroke="none" />
    </g>
    <path d="M6.12245 0C2.74662 0 0 2.74639 0 6.12245C0 9.49851 2.74662 12.2449 6.12245 12.2449C9.49827 12.2449 12.2449 9.49851 12.2449 6.12245C12.2449 2.74639 9.49827 0 6.12245 0Z" transform="translate(8.979591 7.142857)" id="Shape" fill="#4086F1" fill-rule="evenodd" stroke="#FFFFFF" stroke-width="0.7064364" />
    <path d="M6.35793 3.76766L3.8854 3.76766L3.8854 6.35793C3.8854 6.6179 3.67441 6.82889 3.41444 6.82889C3.15447 6.82889 2.94349 6.6179 2.94349 6.35793L2.94349 3.76766L0.470958 3.76766C0.210989 3.76766 0 3.55667 0 3.2967C0 3.03673 0.210989 2.82575 0.470958 2.82575L2.94349 2.82575L2.94349 0.470958C2.94349 0.210989 3.15447 0 3.41444 0C3.67441 0 3.8854 0.210989 3.8854 0.470958L3.8854 2.82575L6.35793 2.82575C6.6179 2.82575 6.82889 3.03673 6.82889 3.2967C6.82889 3.55667 6.6179 3.76766 6.35793 3.76766Z" transform="translate(11.687598 9.968603)" id="Path" fill="#FFFFFF" stroke="#FFFFFF" stroke-width="0.7064364" />
  </g>
</svg>