<?xml version="1.0" encoding="UTF-8"?>
<svg width="28px" height="25px" viewBox="0 0 28 25" version="1.1" xmlns="http://www.w3.org/2000/svg" xmlns:xlink="http://www.w3.org/1999/xlink">
    <title>Group 12</title>
    <g id="Page-1" stroke="none" stroke-width="1" fill="none" fill-rule="evenodd">
        <g id="5-Файлообменник-стартовый-экран" transform="translate(-522.000000, -22.000000)" fill-rule="nonzero">
            <g id="Group-12" transform="translate(522.000000, 22.500000)">
                <g id="folder-2">
                    <polygon id="Shape" fill="#4086F1" points="9.28375 2.60416667 7.66745 0.364236111 7.53025 0.173611111 0 0.173611111 0 18.5763889 21 18.5763889 21 2.60416667"></polygon>
                    <path d="M0.7,17.8819444 L0.7,0.868055556 L7.16975,0.868055556 L8.91975,3.29861111 L8.92395,3.29861111 L10.56545,5.57326389 C10.6337,5.66770833 10.7408,5.71805556 10.85,5.71840278 L10.85,5.72916667 L20.3,5.72916667 L20.3,17.8819444 L0.7,17.8819444 Z" id="Path" fill="#4086F1"></path>
                    <polygon id="Path" fill="#FFFFFF" points="20.3 3.29861111 20.3 5.03472222 11.0376 5.03472222 9.78495 3.29861111"></polygon>
                </g>
                <path d="M19.5,8.25 C15.3646154,8.25 12,11.6143269 12,15.75 C12,19.8856731 15.3646154,23.25 19.5,23.25 C23.6353846,23.25 27,19.8856731 27,15.75 C27,11.6143269 23.6353846,8.25 19.5,8.25 Z" id="Shape" stroke="#FFFFFF" stroke-width="0.865384615" fill="#4086F1"></path>
                <path d="M23.1057692,16.3269231 L20.0769231,16.3269231 L20.0769231,19.5 C20.0769231,19.8184615 19.8184615,20.0769231 19.5,20.0769231 C19.1815385,20.0769231 18.9230769,19.8184615 18.9230769,19.5 L18.9230769,16.3269231 L15.8942308,16.3269231 C15.5757692,16.3269231 15.3173077,16.0684615 15.3173077,15.75 C15.3173077,15.4315385 15.5757692,15.1730769 15.8942308,15.1730769 L18.9230769,15.1730769 L18.9230769,12.2884615 C18.9230769,11.97 19.1815385,11.7115385 19.5,11.7115385 C19.8184615,11.7115385 20.0769231,11.97 20.0769231,12.2884615 L20.0769231,15.1730769 L23.1057692,15.1730769 C23.4242308,15.1730769 23.6826923,15.4315385 23.6826923,15.75 C23.6826923,16.0684615 23.4242308,16.3269231 23.1057692,16.3269231 Z" id="Path" stroke="#FFFFFF" stroke-width="0.865384615" fill="#FFFFFF"></path>
            </g>
        </g>
    </g>
</svg>