<svg width="29" height="25" viewBox="0 0 29 25" fill="none" xmlns="http://www.w3.org/2000/svg">
<path d="M11.1911 18.3067H6.83652C6.21656 18.3067 5.71338 17.7958 5.71338 17.1663V2.33684V1.1404C5.71338 0.510915 6.21656 0 6.83652 0H12.8577H14.0265V0.377258C14.0223 0.416062 14.0202 0.457021 14.0202 0.49798V2.98357V4.44776C14.0202 5.33378 14.7293 6.0538 15.6019 6.0538H17.0637H19.5117C19.5435 6.0538 19.5775 6.05165 19.6093 6.04949H20V17.1663C20 17.7958 19.4968 18.3067 18.8769 18.3067H17.6454H12.8577H11.1911Z" fill="#4086F1"/>
<path d="M1 12.8438C1 13.1359 1.24108 13.375 1.53572 13.375H11.3214C11.6161 13.375 11.8571 13.1359 11.8571 12.8438V7.53125C11.8571 7.23906 11.6161 7 11.3214 7H1.53572C1.24108 7 1 7.23906 1 7.53125V12.8438Z" fill="#4086F1" stroke="white"/>
<path d="M19.5117 4.58083H16.4353C16.4331 4.58083 16.4289 4.58083 16.4268 4.58083C15.913 4.57652 15.4968 4.15399 15.4926 3.6323C15.4926 3.63014 15.4926 3.62583 15.4926 3.62368V0.497824C15.4926 0.208952 15.7261 0.0170898 15.9681 0.0170898C16.0849 0.0170898 16.2017 0.060205 16.2994 0.15937L19.8471 3.76164C20.1444 4.06345 19.9342 4.58083 19.5117 4.58083Z" fill="#4086F1"/>
<path d="M20.5 8.75C16.3646 8.75 13 12.1143 13 16.25C13 20.3857 16.3646 23.75 20.5 23.75C24.6354 23.75 28 20.3857 28 16.25C28 12.1143 24.6354 8.75 20.5 8.75Z" fill="#4086F1" stroke="white" stroke-width="0.865385"/>
<path d="M20.7679 18.8968L22.8892 16.8661C23.0369 16.7246 23.0369 16.4977 22.8892 16.3562C22.7414 16.2147 22.5043 16.2147 22.3565 16.3562L20.8787 17.7709V12.3625C20.8787 12.1621 20.7094 12 20.5 12C20.2906 12 20.1213 12.1621 20.1213 12.3625V17.768L18.6435 16.3533C18.4957 16.2118 18.2586 16.2118 18.1108 16.3533C17.9631 16.4947 17.9631 16.7217 18.1108 16.8632L20.2321 18.8939C20.306 18.9646 20.4015 19 20.5 19C20.5985 19 20.694 18.9676 20.7679 18.8968Z" fill="white"/>
</svg>
