<?xml version="1.0" encoding="utf-8"?>
<svg width="28px" height="24px" viewBox="0 0 28 24" version="1.1" xmlns:xlink="http://www.w3.org/1999/xlink" xmlns="http://www.w3.org/2000/svg">
  <g id="Group-13" transform="translate(0.4326172 0.4326172)">
    <g id="safe">
      <path d="M3.1875 3L0.5625 3C0.252 3 0 2.748 0 2.4375L0 0.5625C0 0.252 0.252 0 0.5625 0L3.1875 0C3.498 0 3.75 0.252 3.75 0.5625L3.75 2.4375C3.75 2.748 3.498 3 3.1875 3Z" transform="translate(0 3.75)" id="Path" fill="#4086F1" stroke="none" />
      <path d="M3.1875 3L0.5625 3C0.252 3 0 2.748 0 2.4375L0 0.5625C0 0.252 0.252 0 0.5625 0L3.1875 0C3.498 0 3.75 0.252 3.75 0.5625L3.75 2.4375C3.75 2.748 3.498 3 3.1875 3Z" transform="translate(0 11.25)" id="Path" fill="#4086F1" stroke="none" />
      <path d="M14.625 0L2.0625 0C0.92475 0 0 0.92475 0 2.0625L0 3L1.875 3C2.59875 3 3.1875 3.58875 3.1875 4.3125L3.1875 6.1875C3.1875 6.91125 2.59875 7.5 1.875 7.5L0 7.5L0 10.5L1.875 10.5C2.59875 10.5 3.1875 11.0887 3.1875 11.8125L3.1875 13.6875C3.1875 14.4113 2.59875 15 1.875 15L0 15L0 15.9375C0 17.0753 0.92475 18 2.0625 18L14.625 18C15.7627 18 16.6875 17.0753 16.6875 15.9375L16.6875 2.0625C16.6875 0.92475 15.7627 0 14.625 0ZM12.3698 12.183C11.5208 13.032 10.3905 13.5 9.1875 13.5C7.9845 13.5 6.85425 13.032 6.00525 12.183C5.1555 11.3333 4.6875 10.203 4.6875 9C4.6875 7.797 5.1555 6.66675 6.00525 5.817C6.85425 4.968 7.9845 4.5 9.1875 4.5C10.3905 4.5 11.5208 4.968 12.3698 5.817C13.2195 6.66675 13.6875 7.797 13.6875 9C13.6875 10.203 13.2195 11.3333 12.3698 12.183ZM12.4688 8.53125L11.3872 8.53125C11.331 8.2605 11.226 8.00475 11.0775 7.773L11.8395 7.011C12.0225 6.828 12.0225 6.531 11.8395 6.348C11.6565 6.165 11.3595 6.165 11.1765 6.348L10.4145 7.11C10.1828 6.96525 9.92475 6.867 9.65625 6.8145L9.65625 5.71875C9.65625 5.46 9.44625 5.25 9.1875 5.25C8.92875 5.25 8.71875 5.46 8.71875 5.71875L8.71875 6.8145C8.45025 6.867 8.1915 6.96525 7.9605 7.11L7.1985 6.348C7.0155 6.165 6.7185 6.165 6.5355 6.348C6.3525 6.531 6.3525 6.828 6.5355 7.011L7.2975 7.773C7.149 8.00475 7.04325 8.2605 6.98775 8.53125L5.90625 8.53125C5.6475 8.53125 5.4375 8.74125 5.4375 9C5.4375 9.25875 5.6475 9.46875 5.90625 9.46875L6.987 9.46875C7.04325 9.7395 7.14825 9.996 7.29675 10.2277L6.5355 10.9897C6.3525 11.1728 6.3525 11.4697 6.5355 11.6528C6.627 11.7442 6.747 11.79 6.867 11.79C6.987 11.79 7.107 11.7442 7.1985 11.6528L7.95525 10.8953C8.18775 11.0475 8.44725 11.1547 8.71875 11.2132L8.71875 12.2813C8.71875 12.54 8.92875 12.75 9.1875 12.75C9.44625 12.75 9.65625 12.54 9.65625 12.2813L9.65625 11.2132C9.92775 11.1547 10.1873 11.0468 10.4198 10.8953L11.1765 11.6528C11.268 11.7442 11.388 11.79 11.508 11.79C11.628 11.79 11.748 11.7442 11.8395 11.6528C12.0225 11.4697 12.0225 11.1728 11.8395 10.9897L11.0782 10.2277C11.2267 9.996 11.3325 9.7395 11.388 9.46875L12.4688 9.46875C12.7275 9.46875 12.9375 9.25875 12.9375 9C12.9375 8.74125 12.7275 8.53125 12.4688 8.53125L12.4688 8.53125Z" transform="translate(1.3125 0)" id="Shape" fill="#4086F1" stroke="none" />
    </g>
    <path d="M7.5 0C3.36462 0 0 3.36433 0 7.5C0 11.6357 3.36462 15 7.5 15C11.6354 15 15 11.6357 15 7.5C15 3.36433 11.6354 0 7.5 0Z" transform="translate(12 7.75)" id="Shape" fill="#4086F1" fill-rule="evenodd" stroke="#FFFFFF" stroke-width="0.86538464" />
    <path d="M7.78846 4.61539L4.75962 4.61539L4.75962 7.78846C4.75962 8.10692 4.50115 8.36539 4.18269 8.36539C3.86423 8.36539 3.60577 8.10692 3.60577 7.78846L3.60577 4.61539L0.576923 4.61539C0.258462 4.61539 0 4.35692 0 4.03846C0 3.72 0.258462 3.46154 0.576923 3.46154L3.60577 3.46154L3.60577 0.576923C3.60577 0.258462 3.86423 0 4.18269 0C4.50115 0 4.75962 0.258462 4.75962 0.576923L4.75962 3.46154L7.78846 3.46154C8.10692 3.46154 8.36539 3.72 8.36539 4.03846C8.36539 4.35692 8.10692 4.61539 7.78846 4.61539Z" transform="translate(15.317307 11.211538)" id="Path" fill="#FFFFFF" stroke="#FFFFFF" stroke-width="0.86538464" />
  </g>
</svg>