<?xml version="1.0" encoding="utf-8"?>
<svg width="16px" height="24px" viewBox="0 0 16 24" version="1.1" xmlns:xlink="http://www.w3.org/1999/xlink" xmlns="http://www.w3.org/2000/svg">
  <g id="furniture-and-household" transform="translate(0.40576172 0.40576172)">
    <path d="M0 0L6.818 0L6.818 1.34748L0 1.34748L0 0Z" transform="translate(4.090909 17.60955)" id="Path" fill="#4086F1" stroke="none" />
    <path d="M0 0.673828C0 1.78828 0.917614 2.69531 2.04528 2.69531L4.77255 2.69531C5.90021 2.69531 6.818 1.78828 6.818 0.673828L6.818 0L0 0L0 0.673828Z" transform="translate(4.090909 20.304688)" id="Path" fill="#4086F1" stroke="none" />
    <path d="M12.1129 13.2481C13.9474 11.8327 14.9996 9.70558 14.9996 7.41193C14.9996 3.31544 11.6451 0 7.49982 0C3.35511 0 0 3.31527 0 7.41193C0 9.70558 1.0522 11.8327 2.88672 13.2481C3.6408 13.8294 4.09091 14.787 4.09091 15.8095L4.09091 16.2619L6.818 16.2619L8.18164 16.2619L10.9089 16.2619L10.9089 15.8095C10.9089 14.787 11.3588 13.8294 12.1129 13.2481Z" id="Path" fill="#4086F1" stroke="none" />
    <path d="M7.30168 4.24615L4.46214 4.24615L4.46214 7.16538C4.46214 7.45837 4.21983 7.69615 3.92127 7.69615C3.62272 7.69615 3.38041 7.45837 3.38041 7.16538L3.38041 4.24615L0.540865 4.24615C0.242308 4.24615 0 4.00837 0 3.71538C0 3.4224 0.242308 3.18462 0.540865 3.18462L3.38041 3.18462L3.38041 0.530769C3.38041 0.237785 3.62272 0 3.92127 0C4.21983 0 4.46214 0.237785 4.46214 0.530769L4.46214 3.18462L7.30168 3.18462C7.60024 3.18462 7.84255 3.4224 7.84255 3.71538C7.84255 4.00837 7.60024 4.24615 7.30168 4.24615Z" transform="translate(3.75 4.6)" id="Path" fill="#FFFFFF" stroke="#FFFFFF" stroke-width="0.8112981" />
    <path d="M0 0L1.36364 0L1.36364 1.34766L0 1.34766L0 0Z" transform="translate(2.7272727 18.957031)" id="Path" fill="#4086F1" stroke="none" />
    <path d="M1.2919e-15 0L1.36364 0L1.36364 1.34766L0 1.34766L1.2919e-15 0Z" transform="translate(10.908914 18.957031)" id="Path" fill="#4086F1" stroke="none" />
    <path d="M0 0L1.36364 0L1.36364 1.34766L0 1.34766L0 0Z" transform="translate(2.7272727 16.261894)" id="Path" fill="#4086F1" stroke="none" />
    <path d="M1.2919e-15 0L1.36364 0L1.36364 1.34766L0 1.34766L1.2919e-15 0Z" transform="translate(10.908914 16.261894)" id="Path" fill="#4086F1" stroke="none" />
  </g>
</svg>