<?xml version="1.0" encoding="utf-8"?>
<svg width="40px" height="40px" viewBox="0 0 40 40" version="1.1" xmlns:xlink="http://www.w3.org/1999/xlink" xmlns="http://www.w3.org/2000/svg">
  <g id="adobe-2">
    <path d="M40 40L0 40L0 0L40 0L40 40Z" id="Path" fill="#00C3FF" stroke="none" />
    <path d="M20 40L0 40L0 0L20 0L20 40Z" transform="translate(20 0)" id="Path" fill="#00AAF0" stroke="none" />
    <path d="M35.3125 35.3125L0 35.3125L0 0L35.3125 0L35.3125 35.3125Z" transform="translate(2.34375 2.34375)" id="Path" fill="#063E8B" stroke="none" />
    <path d="M17.6563 35.3125L0 35.3125L0 0L17.6563 0L17.6563 35.3125Z" transform="translate(20 2.34375)" id="Path" fill="#032E68" stroke="none" />
    <path d="M3.69555 0.377429C3.06562 0.747194 2.61742 1.34008 2.43359 2.04688C2.38562 2.23118 2.20695 2.35501 2.01672 2.33555L0 2.12501L2.63562 8.04766L4.31422 8.04766L7.63906 0.5761L5.76844 0.0893036C5.06148 -0.0946808 4.32539 0.00766298 3.69555 0.377429Z" transform="translate(16.52539 24.061768)" id="Path" fill="#00C3FF" stroke="none" />
    <path d="M12.0164 2.35977C12.4609 2.35977 12.9024 2.42984 13.3396 2.49813L1.86078 10.4392L2.83625 11.9066L2.83633 11.9066C2.83703 11.9062 2.83781 11.9057 2.83852 11.9052C2.83852 11.9052 7.17016 8.63344 11.6292 8.87867C12.1348 8.90648 12.8 9.04117 13.2627 9.15766L4.01055 15.5602L4.54187 16.368L16.2372 9.06649C16.2372 9.06649 14.6278 7.47453 11.738 7.2682C11.1727 7.22781 10.6102 7.23406 10.0537 7.28109L18.4934 1.87242C18.4934 1.87242 15.6955 0 11.1642 0C5.51969 0 1.12094 3.39539 0 4.29586L1.46914 6.12203C2.48078 5.30953 5.92992 2.35977 12.0164 2.35977Z" transform="translate(11.453125 7.8117676)" id="Path" fill="#CCEFFF" stroke="none" />
    <path d="M1.50664 7.28109L9.94633 1.87242C9.94633 1.87242 7.14844 0 2.61719 0C1.70969 0 0.834609 0.088125 4.44089e-15 0.239219L4.44089e-15 2.7007C1.04313 2.48961 2.19789 2.35969 3.4693 2.35969C3.91383 2.35969 4.35531 2.42977 4.7925 2.49805L0 5.81352L0 9.20391C0.983359 8.95898 2.02922 8.82063 3.08219 8.87852C3.58766 8.90633 4.25297 9.04102 4.7157 9.1575L0 12.4209L0 13.8676L7.69008 9.06649C7.69008 9.06649 6.0807 7.47453 3.19086 7.2682C2.6257 7.22781 2.06312 7.23406 1.50664 7.28109Z" transform="translate(20 7.8120117)" id="Path" fill="#ACE3FC" stroke="none" />
    <path d="M2.29344 0.0892522C1.58648 -0.094654 0.850391 0.00768971 0.220625 0.377377C0.144297 0.422143 0.0707813 0.470346 0 0.521518L0 8.04761L0.839297 8.04761L4.16414 0.576049L2.29344 0.0892522Z" transform="translate(20 24.061768)" id="Path" fill="#00AAF0" stroke="none" />
  </g>
</svg>