<?xml version="1.0" encoding="utf-8"?>
<svg width="40px" height="40px" viewBox="0 0 40 40" version="1.1" xmlns:xlink="http://www.w3.org/1999/xlink" xmlns="http://www.w3.org/2000/svg">
  <g id="adobe">
    <path d="M40 40L0 40L0 0L40 0L40 40Z" id="Path" fill="#00C3FF" stroke="none" />
    <path d="M20 40L0 40L0 0L20 0L20 40Z" transform="translate(20 0)" id="Path" fill="#00AAF0" stroke="none" />
    <path d="M35.3125 35.3125L0 35.3125L0 0L35.3125 0L35.3125 35.3125Z" transform="translate(2.34375 2.34375)" id="Path" fill="#063E8B" stroke="none" />
    <path d="M17.6563 35.3125L0 35.3125L0 0L17.6563 0L17.6563 35.3125Z" transform="translate(20 2.34375)" id="Path" fill="#032E68" stroke="none" />
    <path d="M2.9625 6.8C1.45055 6.8 0.375 6.1125 0 5.7875L0.625 4.7375C1.025 5.02086 1.94539 5.6 2.925 5.6C3.55992 5.6 4 5.33383 4 4.875C4 4.31172 3.0707 4.1293 2.5625 3.9875C2.1375 3.87086 0.225 3.60211 0.225 2.1625C0.225 0.776563 1.43102 0 2.8 0C4.23703 0 5.00414 0.583438 5.3625 0.9L4.6875 1.9125C4.35414 1.6625 3.61203 1.1875 2.7875 1.1875C2.17977 1.1875 1.7875 1.44711 1.7875 1.925C1.7875 2.52133 2.8332 2.6918 3.075 2.75C3.525 2.8668 5.6125 3.18539 5.6125 4.725C5.6125 6.54477 3.77914 6.8 2.9625 6.8Z" transform="translate(21.17961 17.54375)" id="Path" fill="#00AAF0" stroke="none" />
    <path d="M0 8.875L0 0L3.7625 0C5.48461 0 6.5875 1.58336 6.5875 2.95C6.5875 4.56078 5.36305 5.9 3.825 5.9L1.725 5.9L1.725 8.875L0 8.875ZM1.725 4.3875L3.725 4.3875C4.33008 4.3875 4.8375 3.82289 4.8375 2.95C4.8375 2.2 4.38219 1.5125 3.65 1.5125L1.725 1.5125L1.725 4.3875L1.725 4.3875Z" transform="translate(14.042266 15.34375)" id="Shape" fill="#00C3FF" stroke="none" />
    <path d="M0 0L0 3.68898C0.394219 3.17703 0.629844 2.52289 0.629844 1.81648C0.629844 1.19984 0.404609 0.539531 0 0Z" transform="translate(20 16.477266)" id="Path" fill="#00AAF0" stroke="none" />
  </g>
</svg>