<?xml version="1.0" encoding="UTF-8"?>
<svg width="16px" height="18px" viewBox="0 0 16 18" version="1.1" xmlns="http://www.w3.org/2000/svg" xmlns:xlink="http://www.w3.org/1999/xlink">
    <title>file-2</title>
    <g id="Page-1" stroke="none" stroke-width="1" fill="none" fill-rule="evenodd">
        <g id="5-Файлообменник-стартовый-экран" transform="translate(-16.000000, -561.000000)" fill="#FFFFFF" fill-rule="nonzero">
            <g id="file-2" transform="translate(16.000000, 561.000000)">
                <path d="M0,13 L0,16.453125 C0,17.238 0.696888889,17.875 1.55555556,17.875 L14.4444444,17.875 C15.3031111,17.875 16,17.238 16,16.453125 L16,13 L0,13 Z M10.6666667,15.640625 C10.6666667,15.977 10.368,16.25 10,16.25 L6,16.25 C5.632,16.25 5.33333333,15.977 5.33333333,15.640625 L5.33333333,14.828125 C5.33333333,14.49175 5.632,14.21875 6,14.21875 C6.368,14.21875 6.66666667,14.49175 6.66666667,14.828125 L6.66666667,15.03125 L9.33333333,15.03125 L9.33333333,14.828125 C9.33333333,14.49175 9.632,14.21875 10,14.21875 C10.368,14.21875 10.6666667,14.49175 10.6666667,14.828125 L10.6666667,15.640625 Z" id="Shape"></path>
                <path d="M0,7.3125 L0,12.1875 L16,12.1875 L16,7.3125 L0,7.3125 Z M10.6666667,9.953125 C10.6666667,10.2895 10.368,10.5625 10,10.5625 L6,10.5625 C5.632,10.5625 5.33333333,10.2895 5.33333333,9.953125 L5.33333333,9.140625 C5.33333333,8.80425 5.632,8.53125 6,8.53125 C6.368,8.53125 6.66666667,8.80425 6.66666667,9.140625 L6.66666667,9.34375 L9.33333333,9.34375 L9.33333333,9.140625 C9.33333333,8.80425 9.632,8.53125 10,8.53125 C10.368,8.53125 10.6666667,8.80425 10.6666667,9.140625 L10.6666667,9.953125 Z" id="Shape"></path>
                <path d="M14.4444444,0 L1.55555556,0 C0.696888889,0 0,0.637 0,1.421875 L0,6.5 L16,6.5 L16,1.421875 C16,0.637 15.3031111,0 14.4444444,0 Z M10.6666667,3.859375 C10.6666667,4.19575 10.368,4.46875 10,4.46875 L6,4.46875 C5.632,4.46875 5.33333333,4.19575 5.33333333,3.859375 L5.33333333,3.046875 C5.33333333,2.7105 5.632,2.4375 6,2.4375 C6.368,2.4375 6.66666667,2.7105 6.66666667,3.046875 L6.66666667,3.25 L9.33333333,3.25 L9.33333333,3.046875 C9.33333333,2.7105 9.632,2.4375 10,2.4375 C10.368,2.4375 10.6666667,2.7105 10.6666667,3.046875 L10.6666667,3.859375 Z" id="Shape"></path>
            </g>
        </g>
    </g>
</svg>