<?xml version="1.0" encoding="utf-8"?>
<svg width="11px" height="14px" viewBox="0 0 11 14" version="1.1" xmlns:xlink="http://www.w3.org/1999/xlink" xmlns="http://www.w3.org/2000/svg">
  <g id="upload" transform="translate(0.100097656 0.100097656)">
    <path d="M9.89927 5.75285L5.21062 0.100679C5.09956 -0.0335598 4.86395 -0.0335598 4.75289 0.100679L0.0642477 5.75285C-0.00608197 5.83764 -0.0198549 5.95379 0.0287898 6.05185C0.0780206 6.14992 0.180878 6.21209 0.293405 6.21209L2.93077 6.21209L2.93077 12.4295C2.93077 12.7412 3.19362 12.9947 3.51685 12.9947L6.44725 12.9947C6.77047 12.9947 7.03333 12.7412 7.03333 12.4295L7.03333 6.21209L9.67069 6.21209C9.78322 6.21209 9.88608 6.14992 9.93472 6.05185C9.98366 5.95407 9.96989 5.83764 9.89927 5.75285ZM6.74029 5.64687C6.57853 5.64687 6.44725 5.77348 6.44725 5.92948L6.44725 12.4295L3.51685 12.4295L3.51685 5.92948C3.51685 5.77348 3.38557 5.64687 3.22381 5.64687L0.903222 5.64687L4.98205 0.729766L9.06088 5.64687L6.74029 5.64687Z" transform="translate(0.03370102 0)" id="Shape" fill="#444444" stroke="#444444" stroke-width="0.2" />
  </g>
</svg>