<?xml version="1.0" encoding="UTF-8"?>
<svg width="18px" height="15px" viewBox="0 0 18 15" version="1.1" xmlns="http://www.w3.org/2000/svg" xmlns:xlink="http://www.w3.org/1999/xlink">
    <title>arrow</title>
    <g id="Page-1" stroke="none" stroke-width="1" fill="none" fill-rule="evenodd">
        <g id="7,19-пользователь-добавлен" transform="translate(-426.000000, -283.000000)" fill="#FFFFFF" fill-rule="nonzero">
            <g id="Group-37" transform="translate(390.000000, 251.000000)">
                <g id="arrow" transform="translate(36.000000, 32.000000)">
                    <path d="M16.8895045,6.28164935 C16.8159777,6.27007792 16.741567,6.26474026 16.6671161,6.26567532 L3.98993304,6.26567532 L4.26636161,6.141 C4.5365625,6.01698701 4.782375,5.84820779 4.99279018,5.6422987 L8.54779018,2.19502597 C9.01599107,1.76162338 9.09466071,1.06441558 8.73421875,0.543077922 C8.31471429,-0.0124675325 7.51021875,-0.133090909 6.93727232,0.273701299 C6.89098661,0.306584416 6.84699107,0.342428571 6.80564732,0.381 L0.377075893,6.61476623 C-0.125316964,7.10138961 -0.125758929,7.89077922 0.376071429,8.37794805 C0.376392857,8.37825974 0.376754464,8.37861039 0.377075893,8.37892208 L6.80564732,14.6126883 C7.30844196,15.0988831 8.1225,15.0977922 8.62392857,14.6102338 C8.66338393,14.5718571 8.70022768,14.531026 8.73421875,14.488013 C9.09466071,13.9666753 9.01599107,13.2694675 8.54779018,12.8360649 L4.99921875,9.38255844 C4.81058036,9.19944156 4.59369643,9.0458961 4.35636161,8.92749351 L3.97064732,8.75918182 L16.5963616,8.75918182 C17.2531607,8.78283117 17.8294018,8.33793506 17.9527902,7.71190909 C18.0664554,7.03223377 17.5904196,6.39190909 16.8895045,6.28164935 Z" id="Path"></path>
                </g>
            </g>
        </g>
    </g>
</svg>