<svg width="21" height="21" viewBox="0 0 21 21" fill="none" xmlns="http://www.w3.org/2000/svg">
<g clip-path="url(#clip0_11_19731)">
<path d="M5.59989 4.55026V3.15029C5.59989 2.957 5.44318 2.80029 5.2499 2.80029H0.349993C0.156711 2.80029 0 2.957 0 3.15029V4.55026H5.59989Z" fill="#4086F1"/>
<path d="M0 5.25024V16.8H5.59989V5.25024H0ZM4.19992 9.80015H1.39997C1.20669 9.80015 1.04998 9.64344 1.04998 9.45016V6.65022C1.04998 6.45693 1.20669 6.30022 1.39997 6.30022H4.19992C4.3932 6.30022 4.54991 6.45693 4.54991 6.65022V9.45016C4.54991 9.64344 4.3932 9.80015 4.19992 9.80015Z" fill="#4086F1"/>
<path d="M0 18.9V20.65C0 20.8433 0.156711 21 0.349993 21H5.2499C5.44318 21 5.59989 20.8433 5.59989 20.65V18.9H0Z" fill="#4086F1"/>
<path d="M0 17.5H5.59989V18.2H0V17.5Z" fill="#4086F1"/>
<path d="M6.2998 17.5H10.8497V18.2H6.2998V17.5Z" fill="#4086F1"/>
<path d="M10.8497 1.40034V0.350359C10.8497 0.157077 10.693 0.000366211 10.4997 0.000366211H6.6498C6.45652 0.000366211 6.2998 0.157077 6.2998 0.350359V1.40034H10.8497Z" fill="#4086F1"/>
<path d="M6.2998 3.85034H10.8497V16.8001H6.2998V3.85034Z" fill="#4086F1"/>
<path d="M6.2998 18.9V20.65C6.2998 20.8433 6.45652 21 6.6498 21H10.4997C10.693 21 10.8497 20.8433 10.8497 20.65V18.9H6.2998Z" fill="#4086F1"/>
<path d="M6.2998 2.10034H10.8497V3.15032H6.2998V2.10034Z" fill="#4086F1"/>
<path d="M11.5413 7.24797L11.7286 7.96692L17.6559 6.38631L17.4684 5.66736L11.5413 7.24797Z" fill="#4086F1"/>
<path d="M14.4662 18.4602L20.3934 16.8796L20.0181 15.4408L14.0906 17.0214L14.4662 18.4602Z" fill="#4086F1"/>
<path d="M19.8415 14.7634L17.833 7.0636L11.9055 8.64421L13.914 16.3441L19.8415 14.7634Z" fill="#4086F1"/>
<path d="M11.3648 6.57074L17.2918 4.9903L16.7893 3.06278C16.7376 2.87616 16.5468 2.76457 16.3588 2.81088L11.109 4.21085C10.9235 4.26161 10.813 4.45147 10.8603 4.63775L11.3648 6.57074Z" fill="#4086F1"/>
<path d="M20.5701 17.5568L14.6426 19.1374L15.0601 20.7375C15.0843 20.8277 15.1435 20.9046 15.2246 20.9511C15.2775 20.983 15.3379 21 15.3996 21C15.4302 21 15.4608 20.9964 15.4906 20.9895L20.7405 19.5896C20.9259 19.5388 21.0364 19.3488 20.9891 19.1625L20.5701 17.5568Z" fill="#4086F1"/>
</g>
<defs>
<clipPath id="clip0_11_19731">
<rect width="21" height="21" fill="white"/>
</clipPath>
</defs>
</svg>
