<svg width="21" height="21" viewBox="0 0 21 21" fill="none" xmlns="http://www.w3.org/2000/svg">
<g clip-path="url(#clip0_0:397)">
<path d="M5.59989 4.55075V3.15077C5.59989 2.95749 5.44318 2.80078 5.2499 2.80078H0.349993C0.156711 2.80078 0 2.95749 0 3.15077V4.55075H5.59989Z" fill="white"/>
<path d="M0 5.25V16.7998H5.59989V5.25H0ZM4.19992 9.79991H1.39997C1.20669 9.79991 1.04998 9.6432 1.04998 9.44991V6.64997C1.04998 6.45669 1.20669 6.29998 1.39997 6.29998H4.19992C4.3932 6.29998 4.54991 6.45669 4.54991 6.64997V9.44991C4.54991 9.6432 4.3932 9.79991 4.19992 9.79991Z" fill="white"/>
<path d="M0 18.9004V20.6504C0 20.8436 0.156711 21.0003 0.349993 21.0003H5.2499C5.44318 21.0003 5.59989 20.8436 5.59989 20.6504V18.9004H0Z" fill="white"/>
<path d="M0 17.5H5.59989V18.2H0V17.5Z" fill="white"/>
<path d="M6.2998 17.5H10.8497V18.2H6.2998V17.5Z" fill="white"/>
<path d="M10.8497 1.39997V0.349993C10.8497 0.156711 10.693 0 10.4997 0H6.6498C6.45652 0 6.2998 0.156711 6.2998 0.349993V1.39997H10.8497Z" fill="white"/>
<path d="M6.2998 3.85059H10.8497V16.8003H6.2998V3.85059Z" fill="white"/>
<path d="M6.2998 18.9004V20.6504C6.2998 20.8436 6.45652 21.0003 6.6498 21.0003H10.4997C10.693 21.0003 10.8497 20.8436 10.8497 20.6504V18.9004H6.2998Z" fill="white"/>
<path d="M6.2998 2.10059H10.8497V3.15057H6.2998V2.10059Z" fill="white"/>
<path d="M11.5413 7.2476L11.7286 7.96656L17.6559 6.38595L17.4685 5.66699L11.5413 7.2476Z" fill="white"/>
<path d="M14.4663 18.4598L20.3934 16.8792L20.0181 15.4404L14.0906 17.021L14.4663 18.4598Z" fill="white"/>
<path d="M19.8414 14.7633L17.8329 7.06348L11.9054 8.64408L13.9139 16.3439L19.8414 14.7633Z" fill="white"/>
<path d="M11.3648 6.57111L17.2918 4.99067L16.7893 3.06315C16.7376 2.87653 16.5468 2.76493 16.3588 2.81125L11.109 4.21122C10.9235 4.26197 10.813 4.45184 10.8603 4.63811L11.3648 6.57111Z" fill="white"/>
<path d="M20.5701 17.5566L14.6426 19.1372L15.0601 20.7373C15.0843 20.8276 15.1435 20.9045 15.2246 20.951C15.2775 20.9829 15.3379 20.9998 15.3996 20.9998C15.4302 20.9998 15.4608 20.9962 15.4906 20.9894L20.7405 19.5894C20.9259 19.5387 21.0364 19.3486 20.9891 19.1624L20.5701 17.5566Z" fill="white"/>
</g>
<defs>
<clipPath id="clip0_0:397">
<rect width="21" height="21" fill="white"/>
</clipPath>
</defs>
</svg>
