<?xml version="1.0" encoding="utf-8"?>
<svg width="13px" height="15px" viewBox="0 0 13 15" version="1.1" xmlns:xlink="http://www.w3.org/1999/xlink" xmlns="http://www.w3.org/2000/svg">
  <g id="watercolor" transform="matrix(0.76604444 0.6427876 -0.6427876 0.76604444 10.284668 0)">
    <path d="M2.86617 11.564C2.86711 11.4943 2.89736 12.2546 2.42715 0.948344C2.40437 0.416562 1.96789 0 1.43342 0C0.898939 0 0.462464 0.416562 0.43965 0.948906C-0.0306535 12.2571 -0.000308277 11.4938 0.000727288 11.5646C0.852213 10.9376 2.01274 10.9358 2.86617 11.564Z" transform="translate(0.09168903 0)" id="Path" fill="#444444" stroke="none" />
    <path d="M2.58276 0.50114C1.99356 -0.16661 0.963546 -0.164454 0.375251 0.492078C0.131987 0.763578 0 1.10861 0 1.46873C0 1.67023 0.058431 2.04023 0.563818 2.92352C0.820826 3.37273 1.07432 3.74683 1.08496 3.76255C1.2713 4.03705 1.67827 4.03736 1.86483 3.76255C1.8755 3.74686 2.12896 3.37277 2.38597 2.92352C2.89136 2.04023 2.94979 1.67023 2.94979 1.46873C2.94979 1.11023 2.81937 0.769484 2.58276 0.50114L2.58276 0.50114Z" transform="translate(0.050209206 12.031266)" id="Path" fill="#444444" stroke="none" />
  </g>
</svg>