<?xml version="1.0" encoding="utf-8"?>
<svg width="20px" height="20px" viewBox="0 0 20 20" version="1.1" xmlns:xlink="http://www.w3.org/1999/xlink" xmlns="http://www.w3.org/2000/svg">
  <g id="brush">
    <path d="M9.11504 10.0762L7.45777 11.7335L5.80047 11.7335L0 5.93301L0 4.27574L4.1432 0.132539L5.66793 0L9.11504 3.44711L9.62879 7.07656L9.11504 10.0762Z" transform="translate(6.9792967 1.2844532)" id="Path" fill="#FEDBAB" stroke="none" />
    <path d="M6.2148 7.04344L4.55754 8.70074L2.90023 8.70074L0 5.80051L5.80047 0L6.2148 0.414336L6.72855 4.04379L6.2148 7.04344Z" transform="translate(9.879531 4.3172264)" id="Path" fill="#FEC478" stroke="none" />
    <path d="M5.65545 3.31457L3.99818 4.97184C3.0867 5.88332 1.5951 5.88332 0.683613 4.97184C-0.227871 4.06035 -0.227871 2.56875 0.683613 1.65727L2.34088 0L3.99814 0L5.65541 1.65727L5.65545 3.31457L5.65545 3.31457Z" transform="translate(0.0027539062 14.344531)" id="Path" fill="#6E77E5" stroke="none" />
    <path d="M0.828633 0.171768C0.599609 -0.0572559 0.228984 -0.0572559 0 0.171768C0.228828 -0.0570996 0.599805 -0.0570215 0.828633 0.171768Z" transform="translate(12.365469 0.0022558593)" id="Path" fill="#000000" stroke="none" />
    <path d="M8.7007 7.6318L4.97184 11.3607C4.51609 11.8164 3.77031 11.8164 3.31457 11.3607C2.85883 10.9049 2.85883 10.1591 3.31457 9.7034L4.97184 8.04613C4.51609 8.50187 3.77031 8.50187 3.31457 8.04613C2.85883 7.59039 2.85883 6.84461 3.31457 6.38887L4.1432 5.56023L0 1.41699L1.24297 0.174023C1.475 -0.0580078 1.83957 -0.0580078 2.0716 0.174023L8.70074 6.80316C8.93277 7.0352 8.93277 7.39977 8.7007 7.6318Z" transform="translate(11.1225 0)" id="Path" fill="#FEA832" stroke="none" />
    <path d="M5.72794 4.14316L1.99907 7.87203C1.54333 8.32777 0.797549 8.32777 0.341807 7.87203C-0.113936 7.41629 -0.113936 6.67051 0.341807 6.21477L1.99907 4.5575C1.54333 5.01324 0.797549 5.01324 0.341807 4.5575C-0.113936 4.10176 -0.113936 3.35598 0.341807 2.90023L1.17044 2.0716L0.756104 1.65727L2.41337 0L5.72794 3.31457C5.96001 3.54656 5.96001 3.91113 5.72794 4.14316Z" transform="translate(14.0952635 3.488633)" id="Path" fill="#FE9923" stroke="none" />
    <path d="M4.97184 2.48594L3.31457 4.1432C2.40309 5.05469 0.911484 5.05469 0 4.1432L4.1432 0L4.97184 0.828633L4.97184 2.48594L4.97184 2.48594Z" transform="translate(0.6863672 15.173164)" id="Path" fill="#4C5CE1" stroke="none" />
    <path d="M12.0934 7.45777L11.2648 8.28641C10.3533 9.19789 8.86172 9.19789 7.95023 8.28641C7.7182 8.05437 7.35363 8.05437 7.1216 8.28641L3.31461 12.0989L0 8.78434L3.80699 4.97184C4.03902 4.7398 4.03902 4.37523 3.80699 4.1432C2.89551 3.23172 2.89551 1.74012 3.80699 0.828633L4.63562 0L12.0934 7.45777Z" transform="translate(2.3436327 5.5601954)" id="Path" fill="#7986E8" stroke="none" />
    <path d="M6.70723 0L10.4361 3.72887L9.60746 4.5575C8.69598 5.46898 7.20437 5.46898 6.29289 4.5575C6.06086 4.32547 5.69629 4.32547 5.46426 4.5575L1.65727 8.37L0 6.71273L6.70723 0Z" transform="translate(4.0009375 9.2890625)" id="Path" fill="#6E77E5" stroke="none" />
  </g>
</svg>