<?xml version="1.0" encoding="UTF-8"?>
<svg width="23px" height="20px" viewBox="0 0 23 20" version="1.1" xmlns="http://www.w3.org/2000/svg" xmlns:xlink="http://www.w3.org/1999/xlink">
    <title>calendar-5</title>
    <g id="Page-1" stroke="none" stroke-width="1" fill="none" fill-rule="evenodd">
        <g id="5-Файлообменник-стартовый-экран" transform="translate(-623.000000, -897.000000)" fill="#FFFFFF" fill-rule="nonzero">
            <g id="Group-4" transform="translate(443.000000, 881.000000)">
                <g id="Group-2" transform="translate(71.000000, 15.000000)">
                    <g id="calendar-5" transform="translate(109.000000, 1.000000)">
                        <path d="M0.672794922,16.008337 L18.2821699,16.008337 C18.4401152,16.008337 18.5927598,15.9537916 18.7138242,15.8543681 C18.8829551,15.7145455 22.7411602,12.4380488 22.976416,5.36532151 L4.06430664,5.36532151 C3.82994922,11.7854545 0.27671875,14.8031042 0.239792969,14.8332151 C0.0233144531,15.0137916 -0.0563320313,15.3087361 0.0410585937,15.5711752 C0.137775391,15.832949 0.389832031,16.008337 0.672794922,16.008337 L0.672794922,16.008337 Z" id="Path"></path>
                        <path d="M22.3250938,1.37419069 L18.9559531,1.37419069 L18.9559531,0.709002217 C18.9559531,0.336496674 18.6594687,0.0438137472 18.282125,0.0438137472 C17.9047813,0.0438137472 17.6082969,0.336496674 17.6082969,0.709002217 L17.6082969,1.37419069 L14.1942344,1.37419069 L14.1942344,0.709002217 C14.1942344,0.336496674 13.89775,0.0438137472 13.5204063,0.0438137472 C13.1430625,0.0438137472 12.8465781,0.336496674 12.8465781,0.709002217 L12.8465781,1.37419069 L9.4774375,1.37419069 L9.4774375,0.709002217 C9.4774375,0.336496674 9.18095313,0.0438137472 8.80360938,0.0438137472 C8.42626562,0.0438137472 8.12978125,0.336496674 8.12978125,0.709002217 L8.12978125,1.37419069 L4.76064062,1.37419069 C4.38329687,1.37419069 4.0868125,1.66687361 4.0868125,2.03937916 L4.0868125,4.03494457 L22.9989219,4.03494457 L22.9989219,2.03937916 C22.9989219,1.66687361 22.7024375,1.37419069 22.3250938,1.37419069 Z" id="Path"></path>
                        <path d="M19.5791543,16.8742794 C19.2132656,17.1750333 18.7539844,17.3387583 18.2821699,17.3387583 L4.08685742,17.3387583 L4.08685742,19.3343237 C4.08685742,19.7019956 4.38823828,19.9995122 4.76068555,19.9995122 L22.3251387,19.9995122 C22.6975859,19.9995122 22.9989668,19.7019956 22.9989668,19.3343237 L22.9989668,11.8777384 C21.6998262,15.0241242 19.886959,16.6199557 19.5791543,16.8742794 Z" id="Path"></path>
                    </g>
                </g>
            </g>
        </g>
    </g>
</svg>