<?xml version="1.0" encoding="utf-8"?>
<svg width="20px" height="20px" viewBox="0 0 20 20" version="1.1" xmlns:xlink="http://www.w3.org/1999/xlink" xmlns="http://www.w3.org/2000/svg">
  <g id="calendar-9">
    <path d="M17.4219 1.5625L15.625 1.5625L15.625 0.625C15.625 0.279844 15.3452 0 15 0C14.6548 0 14.375 0.279844 14.375 0.625L14.375 1.5625L5.625 1.5625L5.625 0.625C5.625 0.279844 5.3452 0 5 0C4.6548 0 4.375 0.279844 4.375 0.625L4.375 1.5625L2.57813 1.5625C1.15652 1.5625 0 2.71902 0 4.14063L0 17.4219C0 18.8435 1.15652 20 2.57813 20L17.4219 20C18.8435 20 20 18.8435 20 17.4219L20 4.14063C20 2.71902 18.8435 1.5625 17.4219 1.5625ZM18.75 17.4219C18.75 18.1554 18.1554 18.75 17.4219 18.75L2.57813 18.75C1.84461 18.75 1.25 18.1554 1.25 17.4219L1.25 7.07031C1.25 6.96246 1.33746 6.875 1.44531 6.875L18.5547 6.875C18.6625 6.875 18.75 6.96246 18.75 7.07031L18.75 17.4219Z" id="Shape" fill="#4086F1" stroke="none" />
  </g>
</svg>