<?xml version="1.0" encoding="UTF-8"?>
<svg width="16px" height="21px" viewBox="0 0 16 21" version="1.1" xmlns="http://www.w3.org/2000/svg" xmlns:xlink="http://www.w3.org/1999/xlink">
    <title>calendar-4</title>
    <g id="Page-1" stroke="none" stroke-width="1" fill="none" fill-rule="evenodd">
        <g id="5-Файлообменник-стартовый-экран" transform="translate(-950.000000, -896.000000)" fill="#FFFFFF" fill-rule="nonzero">
            <g id="Group-4" transform="translate(443.000000, 881.000000)">
                <g id="Group-2" transform="translate(71.000000, 15.000000)">
                    <g id="calendar-4" transform="translate(436.000000, 0.000000)">
                        <path d="M4,4.8125 C3.53515789,4.8125 3.15789474,4.4205 3.15789474,3.9375 L3.15789474,0.875 C3.15789474,0.392 3.53515789,0 4,0 C4.46484211,0 4.84210526,0.392 4.84210526,0.875 L4.84210526,3.9375 C4.84210526,4.4205 4.46484211,4.8125 4,4.8125 Z" id="Path"></path>
                        <path d="M8,4.8125 C7.53515789,4.8125 7.15789474,4.4205 7.15789474,3.9375 L7.15789474,0.875 C7.15789474,0.392 7.53515789,0 8,0 C8.46484211,0 8.84210526,0.392 8.84210526,0.875 L8.84210526,3.9375 C8.84210526,4.4205 8.46484211,4.8125 8,4.8125 Z" id="Path"></path>
                        <path d="M12,4.8125 C11.5351579,4.8125 11.1578947,4.4205 11.1578947,3.9375 L11.1578947,0.875 C11.1578947,0.392 11.5351579,0 12,0 C12.4648421,0 12.8421053,0.392 12.8421053,0.875 L12.8421053,3.9375 C12.8421053,4.4205 12.4648421,4.8125 12,4.8125 Z" id="Path"></path>
                        <path d="M13.6842105,1.96875 L2.31578947,1.96875 C1.03831579,1.96875 0,3.047625 0,4.375 L0,18.59375 C0,19.921125 1.03831579,21 2.31578947,21 L13.6842105,21 C14.9616842,21 16,19.921125 16,18.59375 L16,4.375 C16,3.047625 14.9616842,1.96875 13.6842105,1.96875 Z M4.21052632,7 L8.42105263,7 C8.88589474,7 9.26315789,7.392 9.26315789,7.875 C9.26315789,8.358 8.88589474,8.75 8.42105263,8.75 L4.21052632,8.75 C3.74568421,8.75 3.36842105,8.358 3.36842105,7.875 C3.36842105,7.392 3.74568421,7 4.21052632,7 Z M12.6315789,15.75 L4.21052632,15.75 C3.74568421,15.75 3.36842105,15.358 3.36842105,14.875 C3.36842105,14.392 3.74568421,14 4.21052632,14 L12.6315789,14 C13.0964211,14 13.4736842,14.392 13.4736842,14.875 C13.4736842,15.358 13.0964211,15.75 12.6315789,15.75 Z M12.6315789,12.25 L4.21052632,12.25 C3.74568421,12.25 3.36842105,11.858 3.36842105,11.375 C3.36842105,10.892 3.74568421,10.5 4.21052632,10.5 L12.6315789,10.5 C13.0964211,10.5 13.4736842,10.892 13.4736842,11.375 C13.4736842,11.858 13.0964211,12.25 12.6315789,12.25 Z" id="Shape"></path>
                    </g>
                </g>
            </g>
        </g>
    </g>
</svg>