<?xml version="1.0" encoding="utf-8"?>
<svg width="18px" height="18px" viewBox="0 0 18 18" version="1.1" xmlns:xlink="http://www.w3.org/1999/xlink" xmlns="http://www.w3.org/2000/svg">
  <g id="calendar-9">
    <path d="M15.6797 1.40625L14.0625 1.40625L14.0625 0.5625C14.0625 0.251859 13.8107 0 13.5 0C13.1893 0 12.9375 0.251859 12.9375 0.5625L12.9375 1.40625L5.0625 1.40625L5.0625 0.5625C5.0625 0.251859 4.81068 0 4.5 0C4.18932 0 3.9375 0.251859 3.9375 0.5625L3.9375 1.40625L2.32031 1.40625C1.04087 1.40625 0 2.44712 0 3.72656L0 15.6797C0 16.9591 1.04087 18 2.32031 18L15.6797 18C16.9591 18 18 16.9591 18 15.6797L18 3.72656C18 2.44712 16.9591 1.40625 15.6797 1.40625ZM16.875 15.6797C16.875 16.3399 16.3399 16.875 15.6797 16.875L2.32031 16.875C1.66015 16.875 1.125 16.3399 1.125 15.6797L1.125 6.36328C1.125 6.26621 1.20371 6.1875 1.30078 6.1875L16.6992 6.1875C16.7963 6.1875 16.875 6.26621 16.875 6.36328L16.875 15.6797Z" id="Shape" fill="#4086F1" stroke="none" />
  </g>
</svg>