<?xml version="1.0" encoding="utf-8"?>
<svg width="23px" height="23px" viewBox="0 0 23 23" version="1.1" xmlns:xlink="http://www.w3.org/1999/xlink" xmlns="http://www.w3.org/2000/svg">
  <g id="google-chrome">
    <path d="M19.7127 7.17443L9.07684 7.17443C6.69977 7.1721 4.77086 9.0972 4.76849 11.4743C4.76777 12.2126 4.95697 12.9387 5.31793 13.5827L0 4.45806C3.87337 -0.55509 11.0773 -1.47904 16.0905 2.39433C17.7005 3.63826 18.9506 5.28803 19.7127 7.17443Z" transform="translate(2.4016843 -3.4149825E-06)" id="Path" fill="#F44336" stroke="none" />
    <path d="M12.9123 4.3041C12.907 10.6408 7.7714 15.7764 1.4347 15.7817C0.954791 15.7835 0.475378 15.7515 0 15.686L5.16491 6.45614C6.34867 4.39538 5.64303 1.76536 3.58674 0.573884C2.93571 0.196961 2.19652 -0.00107166 1.44425 4.36167e-06L12.0706 4.36167e-06C12.6291 1.36611 12.9151 2.82824 12.9123 4.3041Z" transform="translate(10.043826 7.1744266)" id="Path" fill="#FFC107" stroke="none" />
    <path d="M15.2087 9.17252L10.0438 18.4024L10.0342 18.4024C3.74901 17.6083 -0.702405 11.8693 0.0917001 5.58411C0.348735 3.54976 1.14638 1.62148 2.40165 0L7.71958 9.12468L7.74828 9.17252C8.93419 11.2327 11.5656 11.9413 13.6257 10.7555C14.2838 10.3767 14.8299 9.83055 15.2087 9.17252Z" transform="translate(3.085688E-05 4.4580545)" id="Path" fill="#4CAF50" stroke="none" />
    <path d="M8.03933 6.45619C6.85342 8.51632 4.222 9.22502 2.16187 8.03915C1.50384 7.66035 0.957708 7.11422 0.578903 6.45619L0.550209 6.40835C-0.611941 4.33472 0.127018 1.7116 2.20065 0.549449C2.84474 0.188488 3.57083 -0.000712987 4.30912 4.36167e-06L4.31867 4.36167e-06C5.07094 -0.00107166 5.81013 0.196961 6.46116 0.573883C8.51749 1.7654 9.22309 4.39542 8.03933 6.45619Z" transform="translate(7.1694064 7.1743817)" id="Path" fill="#F44336" stroke="none" />
    <path d="M8.03933 6.45619C6.85342 8.51632 4.222 9.22502 2.16187 8.03915C1.50384 7.66035 0.957708 7.11422 0.578903 6.45619L0.550209 6.40835C-0.611941 4.33472 0.127018 1.7116 2.20065 0.549449C2.84474 0.188488 3.57083 -0.000712987 4.30912 4.36167e-06L4.31867 4.36167e-06C5.07094 -0.00107166 5.81013 0.196961 6.46116 0.573883C8.51749 1.7654 9.22309 4.39542 8.03933 6.45619Z" transform="translate(7.1694064 7.1743817)" id="Path" fill="#2196F3" stroke="none" />
    <path d="M4.76962 9.56464C3.93579 9.56455 3.11667 9.34482 2.3947 8.92763C1.66673 8.50659 1.06214 7.90169 0.641503 7.17349C-0.679092 4.88613 0.104612 1.96132 2.39197 0.640729C3.11976 0.220541 3.94548 -0.000446853 4.7859 1.48978e-06C7.42709 -0.00206089 9.5699 2.13743 9.57191 4.77862C9.57259 5.61935 9.35155 6.44538 8.93119 7.17349L8.93119 7.17349C8.06929 8.65526 6.48382 9.56625 4.76962 9.56464ZM4.79446 0.956452C3.42195 0.949144 2.15125 1.67963 1.4669 2.8694C0.410427 4.70133 1.03905 7.04289 2.87098 8.09936C4.70291 9.15584 7.04447 8.52722 8.10095 6.69529L8.10095 6.69529C9.15742 4.86542 8.53046 2.52556 6.70059 1.46904C6.12124 1.13458 5.46433 0.957842 4.7954 0.956497L4.79446 0.956497L4.79446 0.956452Z" transform="translate(6.6926727 6.6962266)" id="Shape" fill="#FAFAFA" stroke="none" />
  </g>
</svg>