<?xml version="1.0" encoding="UTF-8"?>
<svg width="20px" height="20px" viewBox="0 0 20 20" version="1.1" xmlns="http://www.w3.org/2000/svg" xmlns:xlink="http://www.w3.org/1999/xlink">
    <title>clock</title>
    <g id="Page-1" stroke="none" stroke-width="1" fill="none" fill-rule="evenodd">
        <g id="5-Файлообменник-стартовый-экран" transform="translate(-15.000000, -610.000000)" fill="#FFFFFF" fill-rule="nonzero">
            <g id="clock" transform="translate(15.750000, 610.250000)">
                <path d="M9.3746875,0 C4.19725,0 0,4.197375 0,9.3746875 C0,14.552 4.19725,18.7496875 9.3746875,18.7496875 C14.552125,18.7496875 18.7496875,14.552 18.7496875,9.3746875 C18.7496875,4.197375 14.552125,0 9.3746875,0 Z M13.427625,11.15775 L9.453125,11.15775 C9.4396875,11.15775 9.4271875,11.1545 9.413875,11.154 C9.4005625,11.154625 9.388125,11.15775 9.374625,11.15775 C9.0165625,11.15775 8.72625,10.8674375 8.72625,10.509375 L8.72625,3.8905625 C8.72625,3.5325 9.0165625,3.2421875 9.374625,3.2421875 C9.7326875,3.2421875 10.023,3.5325 10.023,3.8905625 L10.023,9.861 L13.427375,9.861 C13.7854375,9.861 14.07575,10.1513125 14.07575,10.509375 C14.07575,10.8674375 13.7856875,11.15775 13.427625,11.15775 Z" id="Shape"></path>
            </g>
        </g>
    </g>
</svg>