<?xml version="1.0" encoding="utf-8"?>
<svg width="25px" height="20px" viewBox="0 0 25 20" version="1.1" xmlns:xlink="http://www.w3.org/1999/xlink" xmlns="http://www.w3.org/2000/svg">
  <g id="computer">
    <path d="M0 13.0842L0 0.669598C0 0.299786 0.298028 0 0.665672 0L18.7724 0C19.14 0 19.4381 0.299786 19.4381 0.669598L19.4381 13.0842L0 13.0842Z" transform="translate(2.7621002 0.012010724)" id="Path" fill="#3A556A" stroke="none" />
    <path d="M0 5.1407L2.7621 0L22.2002 0L24.9623 5.1407L0 5.1407Z" transform="translate(0 13.096247)" id="Path" fill="#64798A" stroke="none" />
    <path d="M0 0L17.8584 0L17.8584 11.4968L0 11.4968L0 0Z" transform="translate(3.5519724 0.8063271)" id="Rectangle" fill="#EBF0F3" stroke="none" />
    <path d="M0 0L24.9623 0L24.9623 1.04354C24.9623 1.41335 24.6643 1.71314 24.2966 1.71314L0.665672 1.71314C0.298028 1.71308 0 1.4133 0 1.04354L0 0Z" transform="translate(0 18.236944)" id="Path" fill="#3A556A" stroke="none" />
    <path d="M5.32532 1.64134L0 1.64134L0.889232 0L4.43609 0L5.32532 1.64134Z" transform="translate(9.818497 15.4008045)" id="Path" fill="#E1E6E9" stroke="none" />
    <g id="Group" transform="translate(4.957356 1.9302949)">
      <path d="M1.73402 0.0980764L0.097508 1.74424C-0.0325027 1.87502 -0.0325027 2.08687 0.097508 2.21765C0.16254 2.28306 0.247668 2.31572 0.332849 2.31572C0.41803 2.31572 0.503158 2.28301 0.56819 2.21765L2.2047 0.571535C2.33471 0.440757 2.33471 0.228908 2.2047 0.09813C2.07469 -0.0327011 1.86409 -0.0327011 1.73402 0.0980764Z" transform="translate(0.033035714 0.004872653)" id="Path" fill="#D5D6DB" stroke="none" />
      <path d="M1.13109 0.0980831L0.097508 1.13776C-0.0325027 1.26854 -0.0325027 1.48039 0.097508 1.61117C0.16254 1.67658 0.247668 1.70924 0.332849 1.70924C0.41803 1.70924 0.503158 1.67653 0.56819 1.61117L1.60177 0.571488C1.73178 0.44071 1.73178 0.228861 1.60177 0.0980831C1.47171 -0.0326944 1.2611 -0.0326944 1.13109 0.0980831Z" transform="translate(0.17674574 3.0085657)" id="Path" fill="#D5D6DB" stroke="none" />
      <path d="M2.30934 0.0980831C2.17933 -0.0326944 1.96872 -0.0326944 1.83871 0.0980831L0.097508 1.84956C-0.0325027 1.98034 -0.0325027 2.19218 0.097508 2.32296C0.16254 2.38838 0.247668 2.42103 0.332849 2.42103C0.41803 2.42103 0.503158 2.38832 0.56819 2.32296L2.3094 0.571488C2.43935 0.44071 2.43935 0.228861 2.30934 0.0980831Z" transform="translate(2.340445 0.12046917)" id="Path" fill="#D5D6DB" stroke="none" />
    </g>
  </g>
</svg>