<?xml version="1.0" encoding="utf-8"?>
<svg width="16px" height="18px" viewBox="0 0 16 18" version="1.1" xmlns:xlink="http://www.w3.org/1999/xlink" xmlns="http://www.w3.org/2000/svg">
  <g id="contact-book">
    <path d="M13.7845 0L3.59914 0C2.40908 0.000535714 1.44437 0.959598 1.44397 2.14286L1.44397 3.06857L0.431034 3.06857C0.192888 3.06857 0 3.26049 0 3.49714C0 3.73379 0.192888 3.92571 0.431034 3.92571L1.43952 3.92571L1.43952 6.73714L0.431034 6.73714C0.192888 6.73714 1.22507e-16 6.92893 1.22507e-16 7.16571C1.22507e-16 7.40237 0.192888 7.59429 0.431034 7.59429L1.43952 7.59429L1.43952 10.4057L0.431034 10.4057C0.192888 10.4057 1.22507e-16 10.5976 1.22507e-16 10.8343C1.22507e-16 11.0711 0.192888 11.2629 0.431034 11.2629L1.43952 11.2629L1.43952 14.0743L0.431034 14.0743C0.192888 14.0743 1.22507e-16 14.2662 1.22507e-16 14.5029C1.22507e-16 14.7395 0.192888 14.9314 0.431034 14.9314L1.43952 14.9314L1.43952 15.8571C1.44006 17.0404 2.40463 17.9995 3.59469 18L13.78 18C14.9701 17.9995 15.9349 17.0404 15.9352 15.8571L15.9352 2.14286C15.937 0.960402 14.9737 0.000803571 13.7845 0ZM15.0776 15.8571C15.0754 16.5663 14.4977 17.1409 13.7845 17.1429L3.59914 17.1429C2.88591 17.1409 2.30805 16.5663 2.30603 15.8571L2.30603 14.9314L3.31452 14.9314C3.55267 14.9314 3.74555 14.7395 3.74555 14.5029C3.74555 14.2662 3.55267 14.0743 3.31452 14.0743L2.30603 14.0743L2.30603 11.2629L3.31452 11.2629C3.55267 11.2629 3.74555 11.0711 3.74555 10.8343C3.74555 10.5976 3.55267 10.4057 3.31452 10.4057L2.30603 10.4057L2.30603 7.59429L3.31452 7.59429C3.55267 7.59429 3.74555 7.40237 3.74555 7.16571C3.74555 6.92893 3.55267 6.73714 3.31452 6.73714L2.30603 6.73714L2.30603 3.92571L3.31452 3.92571C3.55267 3.92571 3.74555 3.73379 3.74555 3.49714C3.74555 3.26049 3.55267 3.06857 3.31452 3.06857L2.30603 3.06857L2.30603 2.14286C2.30805 1.43371 2.88591 0.859152 3.59914 0.857143L13.7845 0.857143C14.4977 0.859152 15.0754 1.43371 15.0776 2.14286L15.0776 15.8571Z" transform="translate(0.031654105 0)" id="Shape" fill="#DBBB95" stroke="none" />
    <path d="M2.09052 4.15714C3.24502 4.15714 4.18103 3.22661 4.18103 2.07857C4.18103 0.930536 3.24502 0 2.09052 0C0.935884 0 0 0.930536 0 2.07857C0.00107759 3.22607 0.936288 4.15607 2.09052 4.15714L2.09052 4.15714ZM2.09052 0.852857C2.76886 0.852857 3.31897 1.39982 3.31897 2.07429C3.31897 2.74875 2.76886 3.29571 2.09052 3.29571C1.41204 3.29571 0.862069 2.74875 0.862069 2.07429C0.863281 1.40036 1.41245 0.854062 2.09052 0.852857L2.09052 0.852857Z" transform="translate(6.630792 4.7185717)" id="Shape" fill="#DBBB95" stroke="none" />
    <path d="M3.19841 0C1.40531 0 0 1.44429 0 3.29143C0.000673517 3.52781 0.193292 3.71933 0.431035 3.72L5.96565 3.72C6.20339 3.71933 6.39601 3.52781 6.39669 3.29143C6.39669 1.44429 4.99138 0 3.19841 0ZM0.896552 2.86286C1.08203 1.69286 2.00876 0.857143 3.19841 0.857143C4.38793 0.857143 5.3191 1.69286 5.50013 2.86286L0.896552 2.86286Z" transform="translate(5.5228987 9.565714)" id="Shape" fill="#DBBB95" stroke="none" />
  </g>
</svg>