<?xml version="1.0" encoding="utf-8"?>
<svg width="140px" height="123px" viewBox="0 0 140 123" version="1.1" xmlns:xlink="http://www.w3.org/1999/xlink" xmlns="http://www.w3.org/2000/svg">
  <g id="Group" transform="matrix(0.819152 -0.57357645 -0.57357645 -0.819152 33.26758 122.07568)">
    <path d="M18.2296 4.9813C31.7926 1.29891 55.7205 4.47105 69.2463 15.7855C75.5879 21.0849 80.3774 28.4629 81.353 36.7562C81.9802 42.1168 80.9349 49.0314 75.5246 51.6433C68.2073 55.1769 64.2858 46.6288 66.7058 40.7608C71.1279 30.049 87.8784 33.5272 96.0445 36.3956C106.834 40.1883 116.216 46.9258 124.87 54.2382C127.195 56.2033 129.919 52.3103 127.588 50.3629C117.642 42.0481 106.58 34.4678 93.9159 30.9827C84.9641 28.5196 73.586 27.4359 66.142 34.1639C60.5099 39.2553 59.3759 49.9197 65.8696 54.9065C73.5479 60.808 83.1079 53.7225 85.3569 45.9392C91.0903 26.1113 71.7867 7.56144 54.162 2.91765C32.4111 -2.81363 21.5418 0.0977169 0.593921 9.90345C-2.13339 11.1801 4.66652 8.66369 18.2296 4.9813Z" transform="translate(0.26677316 0.2630442)" id="Fill-21" fill="#EFBB45" fill-rule="evenodd" stroke="none" />
    <path d="M2.83321 26.8567C3.46674 24.6382 10.67 25.2251 12.2031 25.3323C15.225 25.5441 18.1012 26.3044 20.9711 27.2211C23.2455 27.9486 26.4068 28.9428 28.0223 26.365C29.5301 23.9529 27.4204 20.4818 26.5652 18.2645C24.3858 12.6038 22.3776 6.83095 19.9195 1.28438C18.7411 -1.36912 15.0223 0.507687 15.9029 3.12651C17.4044 7.60638 19.2543 11.9772 20.9775 16.3783C21.4273 17.5433 23.7713 21.5522 23.2138 22.728C22.6943 23.8319 20.8951 22.6631 19.381 22.3214C14.2114 21.1544 4.6261 19.9156 0.565181 24.1755C0.0393524 24.7265 -0.150706 25.3474 0.128046 26.0699C0.248417 26.3675 0.362452 26.6657 0.482822 26.9639C0.87561 27.9669 2.53545 27.9013 2.83321 26.8567" transform="translate(100.865036 28.313425)" id="Fill-22" fill="#EFBB45" fill-rule="evenodd" stroke="none" />
  </g>
</svg>