<svg width="136" height="126" viewBox="0 0 136 126" fill="none" xmlns="http://www.w3.org/2000/svg">
<path fill-rule="evenodd" clip-rule="evenodd" d="M134.03 85.7779C112.178 99.3595 82.9328 95.3984 60.9811 83.982C50.4614 78.5107 40.9396 69.9217 38.8041 57.7476C37.8005 52.0427 38.5677 45.9164 41.7921 41.012C43.8781 37.8435 47.5625 34.5901 51.6417 35.6163C57.1592 37.0036 55.3982 43.3697 51.45 45.4414C44.2406 49.2211 36.8365 39.8168 33.7568 34.6005C29.6893 27.7072 27.7059 19.8607 26.3727 12.0321C26.0147 9.92853 22.796 10.7999 23.1654 12.8968C24.7382 21.8462 27.2403 30.9015 32.4517 38.4723C36.1355 43.8235 41.7428 49.523 48.7715 49.2471C54.0899 49.0379 59.516 43.8053 58.2896 38.2003C56.8417 31.5702 48.5177 31.0871 43.7958 34.267C31.7647 42.3658 33.727 61.0338 41.0729 71.4589C50.1384 84.3248 66.4207 90.9905 81.2607 94.3934C99.3088 98.5323 118.978 97.4425 134.787 87.0639C135.584 86.5403 134.851 85.2672 134.03 85.7779Z" fill="#EFBB45"/>
<path fill-rule="evenodd" clip-rule="evenodd" d="M38.1634 21.3114C36.8216 22.2212 33.227 18.6664 32.4539 17.9193C30.9303 16.4465 29.7326 14.7439 28.609 12.9599C27.719 11.5456 26.4743 9.58881 24.4439 10.2505C22.5461 10.8714 22.1081 13.6891 21.5646 15.2676C20.1747 19.2956 18.6425 23.3071 17.4535 27.399C16.886 29.3576 19.7267 30.0191 20.4381 28.213C21.6577 25.1256 22.6413 21.9403 23.7065 18.7956C23.9918 17.9661 24.5472 14.7534 25.3771 14.371C26.1543 14.0101 26.5903 15.4485 27.2472 16.3133C29.49 19.266 34.0665 24.2429 38.1673 23.7749C38.698 23.7147 39.0804 23.4657 39.2575 22.9514C39.3274 22.737 39.4011 22.5252 39.4713 22.3105C39.714 21.5938 38.795 20.8828 38.1634 21.3114Z" fill="#EFBB45"/>
</svg>
