<?xml version="1.0" encoding="utf-8"?>
<svg width="22px" height="15px" viewBox="0 0 22 15" version="1.1" xmlns:xlink="http://www.w3.org/1999/xlink" xmlns="http://www.w3.org/2000/svg">
  <g id="credit-card-payment">
    <path d="M19.822 0L1.48738 0C0.6659 0 0 0.655811 0 1.46484L0 12.8825C0 13.6915 0.6659 14.3473 1.48738 14.3473L19.822 14.3473C20.6434 14.3473 21.3094 13.6915 21.3094 12.8825L21.3094 1.46484C21.3094 0.655811 20.6434 0 19.822 0ZM2.4162 3.17856L7.65683 3.17856L7.65683 7.75542L2.4162 7.75542L2.4162 3.17856ZM5.3097 11.1687L2.36994 11.1687L2.36994 9.70386L5.3097 9.70386L5.3097 11.1687ZM9.8529 11.1687L6.91314 11.1687L6.91314 9.70386L9.8529 9.70386L9.8529 11.1687ZM14.3962 11.1687L11.4564 11.1687L11.4564 9.70386L14.3962 9.70386L14.3962 11.1687ZM18.9395 11.1687L15.9997 11.1687L15.9997 9.70386L18.9395 9.70386L18.9395 11.1687Z" transform="translate(0 0.6526855)" id="Shape" fill="#4086F1" stroke="none" />
  </g>
</svg>