<?xml version="1.0" encoding="UTF-8"?>
<svg width="22px" height="18px" viewBox="0 0 22 18" version="1.1" xmlns="http://www.w3.org/2000/svg" xmlns:xlink="http://www.w3.org/1999/xlink">
    <title>technology</title>
    <g id="Page-1" stroke="none" stroke-width="1" fill="none" fill-rule="evenodd">
        <g id="5-Файлообменник-стартовый-экран" transform="translate(-14.000000, -363.000000)" fill="#FFFFFF" fill-rule="nonzero">
            <g id="technology" transform="translate(14.000000, 363.000000)">
                <path d="M-5.68434189e-14,14.0869565 C0.000514133036,14.5189671 0.351989407,14.8690531 0.785714286,14.8695652 L21.2142857,14.8695652 C21.6480106,14.8690531 21.9994859,14.5189671 22,14.0869565 L22,12.5217391 L-5.68434189e-14,12.5217391 L-5.68434189e-14,14.0869565 Z M10.6071429,13.3043478 L11.3928571,13.3043478 L11.3928571,14.0869565 L10.6071429,14.0869565 L10.6071429,13.3043478 Z" id="Shape"></path>
                <path d="M21.2142857,-1.42108547e-14 L0.785714286,-1.42108547e-14 C0.351989407,0.00051210089 0.000514133036,0.350598145 0,0.782608696 L0,11.7391304 L22,11.7391304 L22,0.782608696 C21.9994859,0.350598145 21.6480106,0.00051210089 21.2142857,-1.42108547e-14 Z M10.7222009,3.63634239 L11.2777991,4.18974457 L9.05535714,6.40330435 L8.49985714,5.85 L10.7222009,3.63634239 Z M8.77755804,7.78676087 L12.6668437,3.91284783 L13.222442,4.46620109 L9.33315625,8.34011413 L8.77755804,7.78676087 Z M11.2777009,8.61686413 L10.7221027,8.06346196 L12.9446429,5.85 L13.5002411,6.40340217 L11.2777009,8.61686413 Z" id="Shape"></path>
                <polygon id="Path" points="8.89448214 15.6521739 8.68017857 18 13.3198214 18 13.1055179 15.6521739"></polygon>
            </g>
        </g>
    </g>
</svg>