<?xml version="1.0" encoding="UTF-8"?>
<svg width="15px" height="19px" viewBox="0 0 15 19" version="1.1" xmlns="http://www.w3.org/2000/svg" xmlns:xlink="http://www.w3.org/1999/xlink">
    <title>file</title>
    <g id="Page-1" stroke="none" stroke-width="1" fill="none" fill-rule="evenodd">
        <g id="5-Файлообменник-стартовый-экран" transform="translate(-287.000000, -311.000000)" fill="#DBBB95" fill-rule="nonzero">
            <g id="file" transform="translate(287.000000, 311.000000)">
                <path d="M11.40625,6.875 L3.59375,6.875 C3.42125,6.875 3.28125,7.0146875 3.28125,7.1875 C3.28125,7.3603125 3.42125,7.5 3.59375,7.5 L11.40625,7.5 C11.57875,7.5 11.71875,7.3603125 11.71875,7.1875 C11.71875,7.0146875 11.57875,6.875 11.40625,6.875 Z" id="Path"></path>
                <path d="M3.59375,5 L6.71875,5 C6.89125,5 7.03125,4.8603125 7.03125,4.6875 C7.03125,4.5146875 6.89125,4.375 6.71875,4.375 L3.59375,4.375 C3.42125,4.375 3.28125,4.5146875 3.28125,4.6875 C3.28125,4.8603125 3.42125,5 3.59375,5 Z" id="Path"></path>
                <path d="M11.40625,9.375 L3.59375,9.375 C3.42125,9.375 3.28125,9.5146875 3.28125,9.6875 C3.28125,9.8603125 3.42125,10 3.59375,10 L11.40625,10 C11.57875,10 11.71875,9.8603125 11.71875,9.6875 C11.71875,9.5146875 11.57875,9.375 11.40625,9.375 Z" id="Path"></path>
                <path d="M11.40625,11.875 L3.59375,11.875 C3.42125,11.875 3.28125,12.0146875 3.28125,12.1875 C3.28125,12.3603125 3.42125,12.5 3.59375,12.5 L11.40625,12.5 C11.57875,12.5 11.71875,12.3603125 11.71875,12.1875 C11.71875,12.0146875 11.57875,11.875 11.40625,11.875 Z" id="Path"></path>
                <path d="M11.40625,14.375 L3.59375,14.375 C3.42125,14.375 3.28125,14.5146875 3.28125,14.6875 C3.28125,14.8603125 3.42125,15 3.59375,15 L11.40625,15 C11.57875,15 11.71875,14.8603125 11.71875,14.6875 C11.71875,14.5146875 11.57875,14.375 11.40625,14.375 Z" id="Path"></path>
                <path d="M10.285625,0 L0.15625,0 L0.15625,18.75 L14.84375,18.75 L14.84375,4.558125 L10.285625,0 Z M10.46875,1.066875 L13.776875,4.375 L10.46875,4.375 L10.46875,1.066875 Z M0.78125,18.125 L0.78125,0.625 L9.84375,0.625 L9.84375,5 L14.21875,5 L14.21875,18.125 L0.78125,18.125 Z" id="Shape"></path>
            </g>
        </g>
    </g>
</svg>