<svg width="20" height="20" viewBox="0 0 20 20" fill="none" xmlns="http://www.w3.org/2000/svg">
<path d="M17.3304 3.66667C17.3312 3.57871 17.2972 3.494 17.2358 3.431L13.9024 0.0976667C13.8397 0.0358333 13.7548 0.00175 13.6667 0.003V0H3.66675C3.11446 0 2.66675 0.447708 2.66675 1V19C2.66675 19.5523 3.11446 20 3.66675 20H16.3334C16.8857 20 17.3334 19.5523 17.3334 19V3.66667H17.3304ZM14.0001 1.138L16.1954 3.33333H14.3334C14.1493 3.33333 14.0001 3.18408 14.0001 3V1.138ZM16.6667 19C16.6667 19.1841 16.5175 19.3333 16.3334 19.3333H3.66675C3.48266 19.3333 3.33341 19.1841 3.33341 19V1C3.33341 0.815917 3.48266 0.666667 3.66675 0.666667H13.3334V3C13.3334 3.55229 13.7811 4 14.3334 4H16.6667V19Z" fill="#BABABA"/>
<path d="M6 8.99994C5.44771 8.99994 5 9.44765 5 9.99994C5 10.5522 5.44771 10.9999 6 10.9999C6.55229 10.9999 7 10.5522 7 9.99994C7 9.44765 6.55229 8.99994 6 8.99994ZM6 10.3333C5.81592 10.3333 5.66667 10.184 5.66667 9.99994C5.66667 9.81586 5.81592 9.66661 6 9.66661C6.18408 9.66661 6.33333 9.81586 6.33333 9.99994C6.33333 10.184 6.18408 10.3333 6 10.3333Z" fill="#BABABA"/>
<path d="M14.9999 9.66675H8.33325V10.3334H14.9999V9.66675Z" fill="#BABABA"/>
<path d="M6 5.66669C5.44771 5.66669 5 6.1144 5 6.66669C5 7.21898 5.44771 7.66669 6 7.66669C6.55229 7.66669 7 7.21898 7 6.66669C7 6.1144 6.55229 5.66669 6 5.66669ZM6 7.00002C5.81592 7.00002 5.66667 6.85077 5.66667 6.66669C5.66667 6.4826 5.81592 6.33335 6 6.33335C6.18408 6.33335 6.33333 6.4826 6.33333 6.66669C6.33333 6.85077 6.18408 7.00002 6 7.00002Z" fill="#BABABA"/>
<path d="M14.9999 6.33331H8.33325V6.99998H14.9999V6.33331Z" fill="#BABABA"/>
<path d="M6 12.3334C5.44771 12.3334 5 12.7811 5 13.3334C5 13.8857 5.44771 14.3334 6 14.3334C6.55229 14.3334 7 13.8857 7 13.3334C7 12.7811 6.55229 12.3334 6 12.3334ZM6 13.6667C5.81592 13.6667 5.66667 13.5175 5.66667 13.3334C5.66667 13.1493 5.81592 13 6 13C6.18408 13 6.33333 13.1493 6.33333 13.3334C6.33333 13.5175 6.18408 13.6667 6 13.6667Z" fill="#BABABA"/>
<path d="M14.9999 13H8.33325V13.6667H14.9999V13Z" fill="#BABABA"/>
<path d="M6 15.6667C5.44771 15.6667 5 16.1144 5 16.6667C5 17.219 5.44771 17.6667 6 17.6667C6.55229 17.6667 7 17.219 7 16.6667C7 16.1144 6.55229 15.6667 6 15.6667ZM6 17C5.81592 17 5.66667 16.8508 5.66667 16.6667C5.66667 16.4826 5.81592 16.3334 6 16.3334C6.18408 16.3334 6.33333 16.4826 6.33333 16.6667C6.33333 16.8508 6.18408 17 6 17Z" fill="#BABABA"/>
<path d="M14.9999 16.3333H8.33325V17H14.9999V16.3333Z" fill="#BABABA"/>
</svg>
