<?xml version="1.0" encoding="utf-8"?>
<svg width="15px" height="19px" viewBox="0 0 15 19" version="1.1" xmlns:xlink="http://www.w3.org/1999/xlink" xmlns="http://www.w3.org/2000/svg">
  <g id="file">
    <path d="M8.125 0L0.3125 0C0.14 0 0 0.139687 0 0.3125C0 0.485312 0.14 0.625 0.3125 0.625L8.125 0.625C8.2975 0.625 8.4375 0.485312 8.4375 0.3125C8.4375 0.139687 8.2975 0 8.125 0Z" transform="translate(3.28125 6.875)" id="Path" fill="#DBBB95" stroke="none" />
    <path d="M0.3125 0.625L3.4375 0.625C3.61 0.625 3.75 0.485312 3.75 0.3125C3.75 0.139687 3.61 0 3.4375 0L0.3125 0C0.14 0 0 0.139687 0 0.3125C0 0.485312 0.14 0.625 0.3125 0.625Z" transform="translate(3.28125 4.375)" id="Path" fill="#DBBB95" stroke="none" />
    <path d="M8.125 0L0.3125 0C0.14 0 0 0.139687 0 0.3125C0 0.485312 0.14 0.625 0.3125 0.625L8.125 0.625C8.2975 0.625 8.4375 0.485312 8.4375 0.3125C8.4375 0.139687 8.2975 0 8.125 0Z" transform="translate(3.28125 9.375)" id="Path" fill="#DBBB95" stroke="none" />
    <path d="M8.125 0L0.3125 0C0.14 0 0 0.139687 0 0.3125C0 0.485312 0.14 0.625 0.3125 0.625L8.125 0.625C8.2975 0.625 8.4375 0.485312 8.4375 0.3125C8.4375 0.139687 8.2975 0 8.125 0Z" transform="translate(3.28125 11.875)" id="Path" fill="#DBBB95" stroke="none" />
    <path d="M8.125 0L0.3125 0C0.14 0 0 0.139687 0 0.3125C0 0.485312 0.14 0.625 0.3125 0.625L8.125 0.625C8.2975 0.625 8.4375 0.485312 8.4375 0.3125C8.4375 0.139687 8.2975 0 8.125 0Z" transform="translate(3.28125 14.375)" id="Path" fill="#DBBB95" stroke="none" />
    <path d="M10.1294 0L0 0L0 18.75L14.6875 18.75L14.6875 4.55813L10.1294 0ZM10.3125 1.06687L13.6206 4.375L10.3125 4.375L10.3125 1.06687ZM0.625 18.125L0.625 0.625L9.6875 0.625L9.6875 5L14.0625 5L14.0625 18.125L0.625 18.125Z" transform="translate(0.15625 0)" id="Shape" fill="#DBBB95" stroke="none" />
  </g>
</svg>