<?xml version="1.0" encoding="UTF-8"?>
<svg width="22px" height="22px" viewBox="0 0 22 22" version="1.1" xmlns="http://www.w3.org/2000/svg" xmlns:xlink="http://www.w3.org/1999/xlink">
    <title>down-arrow-2</title>
    <g id="Page-1" stroke="none" stroke-width="1" fill="none" fill-rule="evenodd">
        <g id="5,1-Добавление-файла" transform="translate(-530.000000, -238.000000)" fill="#FFFFFF" fill-rule="nonzero">
            <g id="Group-12" transform="translate(476.000000, 104.000000)">
                <g id="Group-11" transform="translate(37.000000, 96.000000)">
                    <g id="down-arrow-2" transform="translate(17.000000, 38.000000)">
                        <path d="M21.9731161,10.986558 C21.9731161,4.9287169 17.0443992,0 10.986558,0 C4.9287169,0 0,4.9287169 0,10.986558 C0,17.0443992 4.9287169,21.9731161 10.986558,21.9731161 C17.0443992,21.9731161 21.9731161,17.0443992 21.9731161,10.986558 Z M1.09775967,10.986558 C1.09775967,5.53360489 5.53360489,1.09775967 10.986558,1.09775967 C16.4395112,1.09775967 20.8753564,5.53360489 20.8753564,10.986558 C20.8753564,16.4395112 16.4395112,20.8753564 10.986558,20.8753564 C5.53360489,20.8753564 1.09775967,16.4395112 1.09775967,10.986558 Z" id="Shape"></path>
                        <path d="M11.3763747,16.1482688 L14.4635438,13.0610998 C14.6786151,12.8460285 14.6786151,12.5010183 14.4635438,12.285947 C14.2484725,12.0708758 13.9034623,12.0708758 13.688391,12.285947 L11.5376782,14.4366599 L11.5376782,6.21466395 C11.5376782,5.90997963 11.2912424,5.66354379 10.986558,5.66354379 C10.6818737,5.66354379 10.4354379,5.90997963 10.4354379,6.21466395 L10.4354379,14.4321792 L8.28472505,12.2814664 C8.06965377,12.0663951 7.72464358,12.0663951 7.5095723,12.2814664 C7.29450102,12.4965377 7.29450102,12.8415479 7.5095723,13.0566191 L10.5967413,16.1437882 C10.704277,16.2513238 10.8431772,16.3050916 10.986558,16.3050916 C11.1299389,16.3050916 11.2688391,16.2558045 11.3763747,16.1482688 Z" id="Path"></path>
                    </g>
                </g>
            </g>
        </g>
    </g>
</svg>