<?xml version="1.0" encoding="utf-8"?>
<svg width="36px" height="36px" viewBox="0 0 36 36" version="1.1" xmlns:xlink="http://www.w3.org/1999/xlink" xmlns="http://www.w3.org/2000/svg">
  <path d="M17.5 35C27.165 35 35 27.165 35 17.5C35 7.83502 27.165 0 17.5 0C7.83502 0 0 7.83502 0 17.5C0 27.165 7.83502 35 17.5 35Z" transform="translate(0.5 0.5)" id="Oval" fill="#4086F1" fill-rule="evenodd" stroke="none" />
  <g id="mail-3" transform="translate(10.5 12.5)">
    <path d="M0.117961 0.973641C2.31415 2.83339 6.16777 6.10526 7.3004 7.12543C7.45245 7.26312 7.61553 7.33312 7.78483 7.33312C7.95379 7.33312 8.11659 7.26377 8.26829 7.12674C9.40189 6.10557 13.2555 2.83339 15.4517 0.973641C15.5885 0.858076 15.6093 0.654948 15.4986 0.513665C15.2427 0.187191 14.8612 0 14.4522 0L1.11742 0C0.708528 0 0.326953 0.187191 0.0710806 0.513696C-0.0396194 0.654948 -0.0187733 0.858076 0.117961 0.973641Z" transform="translate(0.21484375 0)" id="Path" fill="#FFFFFF" stroke="none" />
    <path d="M5.23401 0.0310769C5.11584 -0.023924 4.97683 -0.00473617 4.8785 0.0792652C3.44019 1.29835 1.54513 2.90906 0.115933 4.13824C0.0407373 4.20271 -0.00158003 4.29743 4.515e-05 4.39671C0.00167033 4.49568 0.0475818 4.58909 0.125059 4.65093C1.45302 5.71442 3.45422 7.17735 4.89935 8.21708C4.95698 8.25874 5.02533 8.2799 5.09403 8.2799C5.14613 8.2799 5.1982 8.26787 5.24608 8.24312C5.35743 8.18615 5.42741 8.07155 5.42741 7.94655L5.42741 0.333488C5.42738 0.203611 5.35184 0.0854528 5.23401 0.0310769Z" transform="translate(10.574219 1.9501953)" id="Path" fill="#FFFFFF" stroke="none" />
    <path d="M0.52806 8.2168C1.97354 7.17706 3.97508 5.71416 5.3027 4.65065C5.38017 4.5888 5.42608 4.49536 5.42771 4.39642C5.42934 4.29714 5.38702 4.20242 5.31182 4.13795C3.8826 2.90877 1.98719 1.29806 0.548906 0.0789776C0.449926 -0.00502375 0.310598 -0.0235553 0.193397 0.0307893C0.0755398 0.0851652 0 0.203323 0 0.333201L0 7.94629C0 8.07129 0.070008 8.18589 0.181333 8.24286C0.229182 8.26761 0.281282 8.27964 0.333382 8.27964C0.402077 8.27964 0.470428 8.25849 0.52806 8.2168Z" transform="translate(0 1.9506836)" id="Path" fill="#FFFFFF" stroke="none" />
    <path d="M15.3237 4.18005C13.9281 3.18166 11.3571 1.32032 9.82244 0.0748264C9.69743 -0.0270502 9.51641 -0.0238002 9.39336 0.0823265C9.09224 0.345018 8.84024 0.566397 8.6615 0.727181C8.11259 1.22263 7.35079 1.22263 6.8006 0.726524C6.62252 0.566053 6.37055 0.344018 6.06939 0.0822953C5.94732 -0.0244877 5.76598 -0.0277378 5.64062 0.0747952C4.11114 1.31603 1.53728 3.17966 0.139344 4.18002C0.0615223 4.23602 0.0113916 4.32227 0.00164048 4.41765C-0.00779809 4.51302 0.023768 4.60774 0.0892129 4.67806C0.341554 4.94991 0.697063 5.10585 1.06398 5.10585L14.3988 5.10585C14.7658 5.10585 15.1209 4.94991 15.3739 4.67809C15.439 4.60809 15.4709 4.51337 15.4615 4.41799C15.4517 4.32265 15.4015 4.23605 15.3237 4.18005Z" transform="translate(0.26953125 6.894043)" id="Path" fill="#FFFFFF" stroke="none" />
  </g>
</svg>