<?xml version="1.0" encoding="utf-8"?>
<svg width="21px" height="13px" viewBox="0 0 21 13" version="1.1" xmlns:xlink="http://www.w3.org/1999/xlink" xmlns="http://www.w3.org/2000/svg">
  <g id="eye">
    <path d="M10.0209 0C6.19167 0 2.71917 2.11903 0.156816 5.5609C-0.052272 5.84289 -0.052272 6.23684 0.156816 6.51882C2.71917 9.96484 6.19167 12.0839 10.0209 12.0839C13.85 12.0839 17.3225 9.96484 19.8849 6.52297C20.094 6.24098 20.094 5.84703 19.8849 5.56505C17.3225 2.11903 13.85 0 10.0209 0ZM10.2955 10.2966C7.75369 10.4583 5.6546 8.33928 5.8145 5.7641C5.94569 3.64092 7.64709 1.91998 9.74617 1.78729C12.288 1.62556 14.3871 3.74459 14.2272 6.31977C14.0919 8.43881 12.3905 10.1597 10.2955 10.2966ZM10.1684 8.33099C8.79913 8.41807 7.66759 7.27769 7.75779 5.89265C7.82748 4.74812 8.74583 3.82338 9.87737 3.74874C11.2467 3.66165 12.3782 4.80203 12.288 6.18707C12.2142 7.33575 11.2959 8.26049 10.1684 8.33099Z" transform="translate(2.842171E-14 0.03006454)" id="Shape" fill="#B4B4B4" stroke="none" />
  </g>
</svg>