<?xml version="1.0" encoding="UTF-8"?>
<svg width="15px" height="19px" viewBox="0 0 15 19" version="1.1" xmlns="http://www.w3.org/2000/svg" xmlns:xlink="http://www.w3.org/1999/xlink">
    <title>file-4</title>
    <g id="Page-1" stroke="none" stroke-width="1" fill="none" fill-rule="evenodd">
        <g id="5-Файлообменник-стартовый-экран" transform="translate(-17.000000, -211.000000)" fill="#FFFFFF" fill-rule="nonzero">
            <g id="file-4" transform="translate(17.000000, 211.000000)">
                <path d="M8.82802548,18.3066863 L13.1825902,18.3066863 C13.8025478,18.3066863 14.3057325,17.7957929 14.3057325,17.1663327 L14.3057325,2.33684306 L14.3057325,1.14039666 C14.3057325,0.51091495 13.8025478,0 13.1825902,0 L7.16135881,0 L5.992569,0 L5.992569,0.377257874 C5.99679406,0.416061541 5.99893843,0.457020968 5.99893843,0.497980394 L5.99893843,2.98357085 L5.99893843,4.44776255 C5.99893843,5.33377961 5.28980892,6.05380321 4.41719745,6.05380321 L2.95541401,6.05380321 L0.507430998,6.05380321 C0.475583864,6.05380321 0.441613588,6.05164745 0.409766454,6.04949169 L0.0191082803,6.04949169 L0.0191082803,17.1663327 C0.0191082803,17.7957929 0.522292994,18.3066863 1.14225053,18.3066863 L2.37367304,18.3066863 L7.16135881,18.3066863 L8.82802548,18.3066863 Z" id="Shape"></path>
                <path d="M0.507430998,4.58098847 L3.58386412,4.58098847 C3.58598726,4.58098847 3.59023355,4.58098847 3.59235669,4.58098847 C4.10615711,4.57667695 4.52229299,4.15414813 4.52653928,3.63245439 C4.52653928,3.63029863 4.52653928,3.62598711 4.52653928,3.62383135 L4.52653928,0.497980394 C4.52653928,0.20910865 4.29299363,0.0172460742 4.05097665,0.0172460742 C3.93420382,0.0172460742 3.817431,0.0603612599 3.71976645,0.159526187 L0.171974522,3.76179995 C-0.125265393,4.06360624 0.08492569,4.58098847 0.507430998,4.58098847 Z" id="Path"></path>
            </g>
        </g>
    </g>
</svg>