<?xml version="1.0" encoding="utf-8"?>
<svg width="12px" height="16px" viewBox="0 0 12 16" version="1.1" xmlns:xlink="http://www.w3.org/1999/xlink" xmlns="http://www.w3.org/2000/svg">
  <g id="Group">
    <path d="M1 0C0.45 0 0 0.45 0 1L0 15C0 15.55 0.45 16 1 16L11 16C11.55 16 12 15.55 12 15L12 4L8 0L1 0Z" id="Path" fill="#B6B6B6" stroke="none" />
    <path d="M6.17423 3.8688L3.77314 3.8688L3.77314 6.52861C3.77314 6.79556 3.56825 7.01221 3.31579 7.01221C3.06333 7.01221 2.85844 6.79556 2.85844 6.52861L2.85844 3.8688L0.45735 3.8688C0.204893 3.8688 0 3.65215 0 3.3852C0 3.11826 0.204893 2.9016 0.45735 2.9016L2.85844 2.9016L2.85844 0.483601C2.85844 0.216653 3.06333 0 3.31579 0C3.56825 0 3.77314 0.216653 3.77314 0.483601L3.77314 2.9016L6.17423 2.9016C6.42669 2.9016 6.63158 3.11826 6.63158 3.3852C6.63158 3.65215 6.42669 3.8688 6.17423 3.8688Z" transform="translate(3 5.95282)" id="Path" fill="#FFFFFF" stroke="none" />
  </g>
</svg>