<?xml version="1.0" encoding="UTF-8"?>
<svg width="280px" height="280px" viewBox="0 0 280 280" version="1.1" xmlns="http://www.w3.org/2000/svg" xmlns:xlink="http://www.w3.org/1999/xlink">
    <!-- Generator: Sketch 53.1 (72631) - https://sketchapp.com -->
    <title>Group 29</title>
    <desc>Created with Sketch.</desc>
    <defs>
        <rect id="path-1" x="0" y="0" width="266" height="266" rx="8"></rect>
        <filter x="-4.5%" y="-3.4%" width="109.0%" height="109.0%" filterUnits="objectBoundingBox" id="filter-2">
            <feOffset dx="0" dy="3" in="SourceAlpha" result="shadowOffsetOuter1"></feOffset>
            <feGaussianBlur stdDeviation="3.5" in="shadowOffsetOuter1" result="shadowBlurOuter1"></feGaussianBlur>
            <feColorMatrix values="0 0 0 0 0.872452446   0 0 0 0 0.872452446   0 0 0 0 0.872452446  0 0 0 1 0" type="matrix" in="shadowBlurOuter1"></feColorMatrix>
        </filter>
    </defs>
    <g id="Page-1" stroke="none" stroke-width="1" fill="none" fill-rule="evenodd">
        <g id="Group-29" transform="translate(7.000000, 4.000000)">
            <g id="Rectangle">
                <use fill="black" fill-opacity="1" filter="url(#filter-2)" xlink:href="#path-1"></use>
                <use fill="#FFFFFF" fill-rule="evenodd" xlink:href="#path-1"></use>
            </g>
            <g id="music-note-2" transform="translate(93.000000, 88.000000)" fill="#D5D5D5" fill-rule="nonzero">
                <polygon id="Path" points="26.6666667 11.8513281 26.6666667 38.3383711 80 26.487043 80 0"></polygon>
                <path d="M74.6666667,52.5041562 C71.8295111,49.9462031 68.1127111,48.34375 64,48.34375 C55.1770667,48.34375 48,55.5190645 48,64.3398437 C48,73.160623 55.1770667,80.3359375 64,80.3359375 C72.8229333,80.3359375 80,73.160623 80,64.3398437 L80,31.949709 L74.6666667,33.1350195 L74.6666667,52.5041562 Z" id="Path"></path>
                <path d="M26.6666667,63.1682188 C23.8295111,60.6102656 20.1127111,59.0078125 16,59.0078125 C7.17706667,59.0078125 0,66.183127 0,75.0039062 C0,83.8246855 7.17706667,91 16,91 C24.8229333,91 32,83.8246855 32,75.0039062 L32,42.6150156 L26.6666667,43.8003262 L26.6666667,63.1682188 Z" id="Path"></path>
            </g>
        </g>
    </g>
</svg>