<?xml version="1.0" encoding="utf-8"?>
<svg width="14px" height="13px" viewBox="0 0 14 13" version="1.1" xmlns:xlink="http://www.w3.org/1999/xlink" xmlns="http://www.w3.org/2000/svg">
  <g id="Group">
    <path d="M6.18917 1.71698L5.11163 0.13466L5.02017 0L0 0L0 13L14 13L14 1.71698L6.18917 1.71698Z" id="Shape" fill="#B6B6B6" stroke="none" />
    <path d="M6.17423 3.8688L3.77314 3.8688L3.77314 6.52861C3.77314 6.79556 3.56825 7.01221 3.31579 7.01221C3.06333 7.01221 2.85844 6.79556 2.85844 6.52861L2.85844 3.8688L0.45735 3.8688C0.204893 3.8688 0 3.65215 0 3.3852C0 3.11826 0.204893 2.9016 0.45735 2.9016L2.85844 2.9016L2.85844 0.483601C2.85844 0.216653 3.06333 0 3.31579 0C3.56825 0 3.77314 0.216653 3.77314 0.483601L3.77314 2.9016L6.17423 2.9016C6.42669 2.9016 6.63158 3.11826 6.63158 3.3852C6.63158 3.65215 6.42669 3.8688 6.17423 3.8688Z" transform="translate(3.684204 4.1625977)" id="Path" fill="#FFFFFF" stroke="none" />
  </g>
</svg>