<?xml version="1.0" encoding="utf-8"?>
<svg width="24px" height="18px" viewBox="0 0 24 18" version="1.1" xmlns:xlink="http://www.w3.org/1999/xlink" xmlns="http://www.w3.org/2000/svg">
  <g id="folder-2">
    <path d="M22.6857 17.9754L1.27809 17.9754C0.572213 17.9754 0 17.4163 0 16.7266L0 1.2488C0 0.5591 0.572213 0 1.27809 0L7.32138 0C7.78311 0 8.20897 0.24335 8.43536 0.6366L9.14016 1.86095C9.3665 2.2542 9.79236 2.49755 10.2541 2.49755L22.6858 2.49755C23.3917 2.49755 23.9639 3.05665 23.9639 3.74635L23.9639 16.7266C23.9638 17.4163 23.3916 17.9754 22.6857 17.9754Z" transform="translate(0 0.0196)" id="Path" fill="#FCD462" stroke="none" />
    <path d="M1.27809 15.4778L22.6857 15.4778C23.3916 15.4778 23.9638 14.9187 23.9638 14.229L23.9638 1.2488C23.9638 0.5591 23.3916 0 22.6857 0L13.4473 0C12.9855 0 12.5597 0.24335 12.3333 0.6366L11.6285 1.86095C11.4021 2.2542 10.9763 2.49755 10.5145 2.49755L1.27809 2.49755C0.572213 2.49755 0 3.05665 0 3.74635L0 14.229C0 14.9187 0.572213 15.4778 1.27809 15.4778Z" transform="translate(0 2.5172)" id="Path" fill="#F6C358" stroke="none" />
    <path d="M23.0949 0C23.1673 0.1566 23.2098 0.3291 23.2098 0.5121L23.2098 13.4923C23.2098 14.182 22.6376 14.7411 21.9317 14.7411L0.524111 14.7411C0.336819 14.7411 0.160273 14.6995 0 14.6289C0.200392 15.0624 0.644623 15.3655 1.16316 15.3655L22.5708 15.3655C23.2767 15.3655 23.8489 14.8064 23.8489 14.1167L23.8489 1.1365C23.8489 0.6298 23.5387 0.1958 23.0949 0Z" transform="translate(0.1149339 2.6295)" id="Path" fill="#FCD462" stroke="none" />
  </g>
</svg>