<?xml version="1.0" encoding="utf-8"?>
<svg width="24px" height="17px" viewBox="0 0 24 17" version="1.1" xmlns:xlink="http://www.w3.org/1999/xlink" xmlns="http://www.w3.org/2000/svg">
  <g id="games">
    <path d="M23.6529 10.4975L21.0526 2.99755C20.4293 1.19995 18.7766 0 16.9239 0L7.07605 0C5.22331 0 3.57059 1.1999 2.94734 2.99755L0.347093 10.4975C-0.305501 12.3797 -0.0272975 14.4715 1.09264 16.1035C1.90442 17.2864 3.60566 17.2925 4.42545 16.1155L7.00798 12.4076C7.32823 11.9478 7.84391 11.6751 8.39319 11.6751L15.6067 11.6751C16.1561 11.6751 16.6717 11.9478 16.9919 12.4076L19.5745 16.1155C20.3943 17.2925 22.0955 17.2864 22.9073 16.1035C24.0273 14.4715 24.3055 12.3797 23.6529 10.4975Z" transform="translate(1.6234426E-05 0.002752841)" id="Path" fill="#407093" stroke="none" />
    <path d="M10.7632 10.4975L8.16286 2.99755C7.53961 1.19995 5.88689 0 4.03416 0L0 0C1.85273 0 3.50545 1.1999 4.1287 2.99755L6.729 10.4975C7.31302 12.182 7.15097 14.034 6.30788 15.5744L6.6848 16.1155C7.50459 17.2925 9.20583 17.2864 10.0176 16.1035C11.1375 14.4715 11.4157 12.3797 10.7632 10.4975Z" transform="translate(12.889781 0.002752841)" id="Path" fill="#2B4D66" stroke="none" />
    <path d="M3.92752 1.35744L2.99967 1.35744C2.94586 1.35744 2.90227 1.31248 2.90227 1.25708L2.90227 0.301122C2.90227 0.134793 2.77139 0 2.61 0L1.60983 0C1.44839 0 1.31756 0.134841 1.31756 0.301122L1.31756 1.25708C1.31756 1.31253 1.27392 1.35744 1.22016 1.35744L0.292266 1.35744C0.130828 1.35744 0 1.49228 0 1.65856L0 2.68904C0 2.85537 0.130875 2.99016 0.292266 2.99016L1.22011 2.99016C1.27392 2.99016 1.31752 3.03513 1.31752 3.09052L1.31752 4.04648C1.31752 4.21281 1.44839 4.34761 1.60978 4.34761L2.60995 4.34761C2.77139 4.34761 2.90222 4.21276 2.90222 4.04648L2.90222 3.09052C2.90222 3.03508 2.94586 2.99016 2.99962 2.99016L3.92747 2.99016C4.08891 2.99016 4.21973 2.85532 4.21973 2.68904L4.21973 1.65856C4.21978 1.49228 4.08891 1.35744 3.92752 1.35744Z" transform="translate(4.389328 1.7707528)" id="Path" fill="#DAE7EF" stroke="none" />
    <path d="M2.60991 0L2.26697 0L2.26697 0.677151C2.26697 0.84348 2.13609 0.978273 1.9747 0.978273L1.29047 0.978273C1.10212 0.978273 0.9495 1.13557 0.9495 1.32957L0.9495 2.03459C0.9495 2.20092 0.818625 2.33571 0.657234 2.33571L0 2.33571L0 2.68904C0 2.85537 0.130875 2.99016 0.292266 2.99016L1.29244 2.99016C1.45388 2.99016 1.5847 2.85532 1.5847 2.68904L1.5847 1.73308C1.5847 1.67764 1.62834 1.63272 1.68211 1.63272L2.60995 1.63272C2.77139 1.63272 2.90222 1.49788 2.90222 1.3316L2.90222 0.301122C2.90217 0.134841 2.7713 1.37264e-15 2.60991 1.37264e-15L2.60991 0Z" transform="translate(5.7069373 3.1281931)" id="Path" fill="#C1D5E4" stroke="none" />
    <path d="M1.773 3.65345C2.7522 3.65345 3.546 2.8356 3.546 1.82673C3.546 0.817854 2.7522 0 1.773 0C0.793799 0 0 0.817854 0 1.82673C0 2.8356 0.793799 3.65345 1.773 3.65345Z" transform="translate(12.942187 6.5329742)" id="Oval" fill="#DAE7EF" stroke="none" />
    <path d="M1.773 3.65345C2.7522 3.65345 3.546 2.8356 3.546 1.82673C3.546 0.817854 2.7522 0 1.773 0C0.793799 0 0 0.817854 0 1.82673C0 2.8356 0.793799 3.65345 1.773 3.65345Z" transform="translate(7.5175314 6.5329742)" id="Oval" fill="#DAE7EF" stroke="none" />
    <path d="M2.1563 1.37264e-15C2.19187 0.144307 2.21091 0.295472 2.21091 0.451176C2.21091 1.46007 1.41712 2.2779 0.437906 2.2779C0.286781 2.2779 0.140063 2.2583 0 2.22164C0.195 3.01228 0.890344 3.59719 1.71839 3.59719C2.69761 3.59719 3.49139 2.77936 3.49139 1.77046C3.49139 0.917324 2.92369 0.200861 2.1563 0L2.1563 1.37264e-15Z" transform="translate(12.996797 6.5892386)" id="Path" fill="#C1D5E4" stroke="none" />
    <path d="M2.1563 1.37264e-15C2.19187 0.144307 2.21091 0.295472 2.21091 0.451176C2.21091 1.46007 1.41712 2.2779 0.437906 2.2779C0.286781 2.2779 0.140063 2.2583 0 2.22164C0.194953 3.01228 0.890344 3.59719 1.71839 3.59719C2.69761 3.59719 3.49139 2.77936 3.49139 1.77046C3.49139 0.917324 2.92369 0.200909 2.1563 0L2.1563 1.37264e-15Z" transform="translate(7.5721407 6.5892386)" id="Path" fill="#C1D5E4" stroke="none" />
    <path d="M1.05431 2.17252C1.63659 2.17252 2.10862 1.68619 2.10862 1.08626C2.10862 0.486336 1.63659 0 1.05431 0C0.472032 0 0 0.486336 0 1.08626C0 1.68619 0.472032 2.17252 1.05431 2.17252Z" transform="translate(10.953422 2.4134204)" id="Oval" fill="#DAE7EF" stroke="none" />
    <path d="M1.38389 0C1.43827 0.130977 1.46841 0.275188 1.46841 0.426642C1.46841 1.02657 0.996375 1.5129 0.414094 1.5129C0.267094 1.5129 0.127125 1.4818 0 1.42583C0.160922 1.81364 0.534516 2.08545 0.969797 2.08545C1.55208 2.08545 2.02411 1.59911 2.02411 0.999185C2.02411 0.550713 1.7603 0.165798 1.38389 0Z" transform="translate(11.037937 2.500497)" id="Path" fill="#C1D5E4" stroke="none" />
    <g id="Group" transform="translate(15.5625 1.9801136)">
      <path d="M0.591844 0C0.264984 0 0 0.273014 0 0.609778C0 0.946543 0.264984 1.21956 0.591844 1.21956C0.91875 1.21956 1.18369 0.946543 1.18369 0.609778C1.18369 0.273014 0.91875 0 0.591844 0Z" transform="translate(1.3261875 0.0046363636)" id="Path" fill="#F6E266" stroke="none" />
      <path d="M0.591844 1.21956C0.91875 1.21956 1.18369 0.946543 1.18369 0.609778C1.18369 0.273014 0.918703 0 0.591844 0C0.264984 0 0 0.273014 0 0.609778C0 0.946543 0.264984 1.21956 0.591844 1.21956Z" transform="translate(1.3261875 2.7148807)" id="Path" fill="#86F1A7" stroke="none" />
      <path d="M0.591844 1.21956C0.91871 1.21956 1.18369 0.94655 1.18369 0.609778C1.18369 0.273007 0.91871 0 0.591844 0C0.264977 0 0 0.273007 0 0.609778C0 0.94655 0.264977 1.21956 0.591844 1.21956Z" transform="translate(2.641453 1.3597585)" id="Oval" fill="#DD5790" stroke="none" />
      <path d="M1.18373 0.609778C1.18373 0.273014 0.91875 0 0.591844 0C0.264984 0 0 0.273014 0 0.609778C0 0.946543 0.264984 1.21956 0.591844 1.21956C0.91875 1.21961 1.18373 0.946543 1.18373 0.609778Z" transform="translate(0.010921875 1.3597585)" id="Path" fill="#61A2F9" stroke="none" />
    </g>
    <path d="M2.12456 4.37789C0.953063 4.37789 0 3.39594 0 2.18894C0 0.981943 0.953063 0 2.12456 0C3.29606 0 4.24913 0.981991 4.24913 2.18894C4.24913 3.39589 3.29611 4.37789 2.12456 4.37789ZM2.12456 0.724432C1.34077 0.724432 0.703125 1.38144 0.703125 2.18894C0.703125 2.99644 1.34081 3.65345 2.12456 3.65345C2.90831 3.65345 3.546 2.99649 3.546 2.18894C3.546 1.38139 2.90836 0.724432 2.12456 0.724432L2.12456 0.724432Z" transform="translate(12.590578 6.1707587)" id="Shape" fill="#DD5790" stroke="none" />
    <path d="M2.12456 4.37789C0.953063 4.37789 0 3.39589 0 2.18894C0 0.981991 0.953063 0 2.12456 0C3.29606 0 4.24913 0.981991 4.24913 2.18894C4.24913 3.39589 3.29606 4.37789 2.12456 4.37789L2.12456 4.37789ZM2.12456 0.724432C1.34077 0.724432 0.703125 1.38144 0.703125 2.18894C0.703125 2.99644 1.34081 3.65345 2.12456 3.65345C2.90831 3.65345 3.546 2.99644 3.546 2.18894C3.546 1.38144 2.90831 0.724432 2.12456 0.724432L2.12456 0.724432Z" transform="translate(7.165969 6.1707587)" id="Shape" fill="#DD5790" stroke="none" />
  </g>
</svg>