<?xml version="1.0" encoding="utf-8"?>
<svg width="23px" height="23px" viewBox="0 0 23 23" version="1.1" xmlns:xlink="http://www.w3.org/1999/xlink" xmlns="http://www.w3.org/2000/svg">
  <g id="google-chrome">
    <path d="M19.7504 7.18816L9.09419 7.18816C6.71258 7.18583 4.77998 9.11461 4.7776 11.4962C4.77688 12.236 4.96645 12.9635 5.3281 13.6087L0 4.46659C3.88077 -0.556152 11.0985 -1.48187 16.1212 2.39892C17.7343 3.64523 18.9868 5.29815 19.7504 7.18816Z" transform="translate(2.406372 0)" id="Path" fill="#F44336" stroke="none" />
    <path d="M12.937 4.31234C12.9317 10.6612 7.78625 15.8066 1.43744 15.8119C0.956616 15.8137 0.476287 15.7817 0 15.7161L5.17478 6.4685C6.36081 4.40379 5.65381 1.76873 3.5936 0.574982C2.94132 0.197338 2.20072 -0.00107371 1.44701 4.37002e-06L12.0936 4.37002e-06C12.6532 1.36872 12.9397 2.83365 12.937 4.31234Z" transform="translate(10.062988 7.1879883)" id="Path" fill="#FFC107" stroke="none" />
    <path d="M15.2378 9.19007L10.063 18.4376L10.0534 18.4376C3.75618 17.642 -0.703748 11.8921 0.0918754 5.5948C0.349402 3.55655 1.14857 1.62458 2.40624 0L7.73434 9.14214L7.76309 9.19007C8.95127 11.2541 11.5877 11.9642 13.6518 10.7761C14.3111 10.3965 14.8583 9.84936 15.2378 9.19007Z" transform="translate(0 4.4663086)" id="Path" fill="#4CAF50" stroke="none" />
    <path d="M8.0547 6.46854C6.86652 8.53262 4.23007 9.24268 2.166 8.05454C1.50671 7.67501 0.959539 7.12784 0.58001 6.46854L0.551261 6.42061C-0.61311 4.34301 0.127261 1.71487 2.20486 0.5505C2.85018 0.188848 3.57766 -0.000714352 4.31735 4.37002e-06L4.32692 4.37002e-06C5.08063 -0.00107371 5.82123 0.197338 6.47351 0.574982C8.53377 1.76878 9.24072 4.40384 8.0547 6.46854Z" transform="translate(7.1831055 7.1879883)" id="Path" fill="#F44336" stroke="none" />
    <path d="M8.0547 6.46854C6.86652 8.53262 4.23007 9.24268 2.166 8.05454C1.50671 7.67501 0.959539 7.12784 0.58001 6.46854L0.551261 6.42061C-0.61311 4.34301 0.127261 1.71487 2.20486 0.5505C2.85018 0.188848 3.57766 -0.000714352 4.31735 4.37002e-06L4.32692 4.37002e-06C5.08063 -0.00107371 5.82123 0.197338 6.47351 0.574982C8.53377 1.76878 9.24072 4.40384 8.0547 6.46854Z" transform="translate(7.1831055 7.1879883)" id="Path" fill="#2196F3" stroke="none" />
    <path d="M4.77874 9.58294C3.94332 9.58285 3.12263 9.3627 2.39928 8.94472C1.66991 8.52287 1.06417 7.91681 0.642729 7.18722C-0.680389 4.89548 0.104812 1.96508 2.39654 0.641955C3.12573 0.220964 3.95302 -0.000447708 4.79504 1.49263e-06C7.44128 -0.00206483 9.58819 2.14152 9.59021 4.78777C9.59088 5.63011 9.36943 6.45772 8.94826 7.18722L8.94826 7.18722C8.08471 8.67183 6.49621 9.58456 4.77874 9.58294ZM4.80362 0.958282C3.42849 0.95096 2.15536 1.68284 1.46971 2.87489C0.411211 4.71032 1.04103 7.05637 2.87647 8.11486C4.7119 9.17336 7.05793 8.54354 8.11643 6.7081L8.11643 6.7081C9.17492 4.87473 8.54676 2.5304 6.7134 1.47185C6.13294 1.13675 5.47477 0.959675 4.80457 0.958327L4.80362 0.958327L4.80362 0.958282Z" transform="translate(6.7054443 6.7089844)" id="Shape" fill="#FAFAFA" stroke="none" />
  </g>
</svg>