<?xml version="1.0" encoding="utf-8"?>
<svg width="60px" height="47px" viewBox="0 0 60 47" version="1.1" xmlns:xlink="http://www.w3.org/1999/xlink" xmlns="http://www.w3.org/2000/svg">
  <g id="icZeplin">
    <path d="M3.25312 0L0.165767 1.12276L0 10.2659L10.6874 6.37934C7.02174 5.15356 4.34486 2.99693 3.25312 6.9574e-15" transform="translate(6.8042574 32.39483)" id="Path" fill="#FDBD39" stroke="none" />
    <path d="M10.7121 0L0 3.89562L6.00905 10.7932L9.0964 9.67048C8.00786 6.68229 8.67916 3.30443 10.7121 3.4787e-15" transform="translate(0.96097475 22.724344)" id="Path" fill="#F69833" stroke="none" />
    <path d="M20.1596 2.65453C6.51872 7.61519 -2.27545 17.8516 0.517312 25.5181L49.9152 7.55391C47.1225 -0.11268 33.8004 -2.30618 20.1596 2.65453" transform="translate(9.540068 6.876691)" id="Path" fill="#FECF33" stroke="none" />
    <path d="M29.7556 22.8636C43.3965 17.9029 52.2072 7.71192 49.3979 0L0 17.9642C2.80925 25.6762 16.1148 27.8243 29.7556 22.8636" transform="translate(10.05738 14.430595)" id="Path" fill="#EE6723" stroke="none" />
    <path d="M49.3979 6.9574e-15L0 17.9642C0.967279 20.6196 4.65591 21.9278 9.83147 21.9278C14.8772 21.9278 21.3363 20.6853 28.0701 18.2364C41.711 13.2757 51.3082 5.24409 49.3979 0" transform="translate(10.05738 14.430595)" id="Path" fill="#F69833" stroke="none" />
    <path d="M39.8088 0C34.763 0 28.304 1.2425 21.5701 3.69136C7.92925 8.65206 -1.66803 16.6837 0.242294 21.9278L49.6402 3.96357C48.673 1.3082 44.9843 1.73935e-15 39.8088 1.73935e-15" transform="translate(9.815085 10.467021)" id="Path" fill="#FDBD39" stroke="none" />
    <path d="M26.831 39.238L26.8307 39.238C25.3773 39.238 23.2331 37.9312 20.4577 35.3537C17.1741 32.3044 13.4128 27.8382 9.86651 22.7778C6.32032 17.7176 3.40637 12.6586 1.66146 8.53263C-0.239666 4.03635 -0.510725 1.27174 0.855782 0.315542C1.15541 0.106106 1.51659 0 1.92922 0C3.04078 0 5.20661 0.823835 9.2116 4.7488L9.29919 4.83458L9.28735 4.95657C9.25996 5.23854 9.23472 5.52304 9.21223 5.80226L9.16758 6.35672L8.77467 5.96265C4.45943 1.63487 2.55986 1.16765 1.94338 1.16765C1.76759 1.16765 1.62758 1.20323 1.52722 1.27347C0.934482 1.68808 0.89633 3.71876 2.73948 8.07741C4.45325 12.1299 7.32481 17.1123 10.8252 22.107C14.3258 27.1021 18.0295 31.5024 21.2543 34.4972C24.7318 37.7265 26.2989 38.0752 26.8112 38.0752C26.9881 38.0752 27.1319 38.0373 27.2385 37.9627C27.8638 37.5253 27.8645 35.3499 25.8091 30.6586L25.7147 30.4432L25.9213 30.3306C26.1279 30.2181 26.3277 30.1072 26.515 30.0012L26.7625 29.8612L26.8766 30.1213C28.334 33.4455 29.6963 37.6705 27.9099 38.9206C27.6087 39.1312 27.2458 39.238 26.831 39.238L26.831 39.238ZM26.8307 38.7253L26.831 38.7253L26.8308 38.9816L26.8307 38.7253Z" transform="translate(20.064745 3.9068966)" id="Shape" fill="#EE6723" stroke="none" />
    <path d="M11.5874 37.138L11.5667 37.3935C11.2218 41.6414 10.3138 46.7484 7.94624 46.9551C7.89861 46.9593 7.84921 46.9615 7.79981 46.9615C6.19147 46.9615 4.66986 44.6676 3.27731 40.1432C1.95976 35.8629 0.937349 30.1159 0.398425 23.961C-0.140534 17.8073 -0.132445 11.9703 0.421163 7.52527C1.02459 2.68157 2.17339 0.15203 3.83547 0.00683321C3.88459 0.00232398 3.93552 0 3.98582 0C5.15258 0 6.91099 1.31517 8.71113 7.44098L7.53573 7.66683C6.9347 5.61974 6.27969 3.9548 5.62943 2.81074C5.02791 1.75253 4.44306 1.16976 3.98249 1.16976C3.96735 1.16976 3.95211 1.17039 3.93708 1.17167C3.21667 1.23466 2.16749 2.97428 1.58257 7.66971C1.03882 12.035 1.03226 17.7845 1.5641 23.8592C2.09626 29.9348 3.10197 35.5959 4.39588 39.7995C4.97535 41.6822 5.61096 43.2338 6.23397 44.2866C6.80847 45.2575 7.36444 45.7923 7.79946 45.7923C7.81442 45.7923 7.82932 45.7916 7.84418 45.7903C8.53349 45.7302 9.83251 43.9199 10.3792 37.5507L11.5874 37.138" transform="translate(28.556768 0.016059782)" id="Path" fill="#EE6723" stroke="none" />
  </g>
</svg>