<?xml version="1.0" encoding="utf-8"?>
<svg width="23px" height="23px" viewBox="0 0 23 23" version="1.1" xmlns:xlink="http://www.w3.org/1999/xlink" xmlns="http://www.w3.org/2000/svg">
  <g id="idea-2">
    <path d="M3.61118 7.72459L0 4.11327L3.03717 1.07615L6.84924 0L9.0925 2.24331L3.61118 7.72459Z" transform="translate(0 5.4968653)" id="Path" fill="#C3DAFD" stroke="none" />
    <path d="M3.61131 9.09241L0 5.48105L5.48114 0L7.72813 2.24677L6.64826 6.05547L3.61131 9.09241Z" transform="translate(9.771406 13.900625)" id="Path" fill="#A1B8D8" stroke="none" />
    <path d="M1.5957e-16 0L6.71404 0L6.71404 1.34507L0 1.34507L1.5957e-16 0Z" transform="matrix(0.70710677 -0.70710677 0.70710677 0.70710677 0.023825526 22.01387)" id="Path" fill="#ECC443" stroke="none" />
    <path d="M0 0L6.71404 0L6.71404 0.665911L2.39356e-16 0.665911L0 0Z" transform="matrix(0.70710677 -0.70710677 0.70710677 0.70710677 0.50497794 22.492882)" id="Path" fill="#E39069" stroke="none" />
    <path d="M0 0L3.52628 0L3.52628 1.34512L6.38282e-16 1.34512L0 0Z" transform="matrix(0.70710677 -0.70710677 0.70710677 0.70710677 4.2071447 21.687107)" id="Path" fill="#E39069" stroke="none" />
    <path d="M7.97852e-17 0L3.5261 0L3.5261 1.34507L0 1.34507L7.97852e-17 0Z" transform="matrix(0.70710677 -0.70710677 0.70710677 0.70710677 0.351068 17.830006)" id="Path" fill="#ECC443" stroke="none" />
    <path d="M9.70726 6.79241L2.91503 0L1.1416 0.502855L0 3.19368L6.45828 9.65209L9.20445 8.5657L9.70726 6.79241Z" transform="translate(1.5219082 11.770924)" id="Path" fill="#2B4CA1" stroke="none" />
    <path d="M2.87361 0C2.48369 0.389922 0.00844531 2.86525 0 2.87365C0.294283 3.16789 3.03021 5.90381 3.19938 6.07299L5.94554 4.9866L6.26763 3.39398L2.87361 0Z" transform="translate(4.7808557 15.350029)" id="Path" fill="#213B82" stroke="none" />
    <path d="M18.7982 7.84389C20.6125 3.74046 20.2946 0.423877 20.3341 0.00259984C20.086 0.051969 12.711 -0.649756 6.69709 5.57224L0 12.2692L8.06294 20.332L14.7596 13.6354C16.4445 12.0113 17.8411 10.0089 18.7982 7.84389Z" transform="translate(2.662834 0.003868912)" id="Path" fill="#E4F3FF" stroke="none" />
    <path d="M14.7651 7.84129C16.5794 3.73786 16.2614 0.421277 16.3009 0C16.3006 4.49219e-05 16.2999 4.49219e-05 16.2996 0.000134766L0 16.2997L4.02981 20.3294L10.7264 13.6328C12.4114 12.0087 13.8079 10.0063 14.7651 7.84129Z" transform="translate(6.6960096 0.00646875)" id="Path" fill="#C3DAFD" stroke="none" />
    <path d="M0.898645 5.24077C-1.01166 3.33046 0.316458 0.00175288 3.069 9.22268e-07C5.80092 -0.00202056 7.16269 3.31955 5.23927 5.24297C4.04322 6.43892 2.09608 6.43802 0.898645 5.24077L0.898645 5.24077Z" transform="translate(11.27105 5.590931)" id="Path" fill="#84D9F3" stroke="none" />
    <path d="M4.34269 0L0 4.34264C1.19753 5.53833 3.14354 5.53878 4.33909 4.34336C5.63338 3.04912 5.44004 1.12174 4.34269 0Z" transform="translate(12.171223 6.490582)" id="Path" fill="#77B0FB" stroke="none" />
  </g>
</svg>