<?xml version="1.0" encoding="UTF-8"?>
<svg width="21px" height="17px" viewBox="0 0 21 17" version="1.1" xmlns="http://www.w3.org/2000/svg" xmlns:xlink="http://www.w3.org/1999/xlink">
    <title>picture</title>
    <g id="Page-1" stroke="none" stroke-width="1" fill="none" fill-rule="evenodd">
        <g id="5-Файлообменник-стартовый-экран" transform="translate(-283.000000, -256.000000)" fill="#DBBB95" fill-rule="nonzero">
            <g id="picture" transform="translate(283.000000, 256.000000)">
                <path d="M20.637931,0 L0.362068966,0 C0.162206897,0 0,0.160336957 0,0.358695652 L0,16.1413043 C0,16.339663 0.162206897,16.5 0.362068966,16.5 L20.637931,16.5 C20.8377931,16.5 21,16.339663 21,16.1413043 L21,0.358695652 C21,0.160336957 20.8377931,0 20.637931,0 Z M20.2758621,15.7826087 L0.724137931,15.7826087 L0.724137931,0.717391304 L20.2758621,0.717391304 L20.2758621,15.7826087 Z" id="Shape"></path>
                <path d="M5.79310345,7.94080435 C6.90501724,7.94080435 7.80946552,7.04478261 7.80946552,5.94358696 C7.80946552,4.84167391 6.90501724,3.94565217 5.79310345,3.94565217 C4.68118966,3.94565217 3.77674138,4.84167391 3.77674138,5.94322826 C3.77674138,7.04478261 4.68118966,7.94080435 5.79310345,7.94080435 Z M5.79310345,4.66304348 C6.50565517,4.66304348 7.08532759,5.23767391 7.08532759,5.94322826 C7.08532759,6.64878261 6.50565517,7.22341304 5.79310345,7.22341304 C5.08055172,7.22341304 4.50087931,6.6491413 4.50087931,5.94358696 C4.50087931,5.23803261 5.08055172,4.66304348 5.79310345,4.66304348 Z" id="Shape"></path>
                <path d="M2.53448276,14.3478261 C2.6192069,14.3478261 2.70465517,14.318413 2.77344828,14.2585109 L8.67987931,9.10692391 L12.4099138,12.8018478 C12.5514828,12.9420978 12.7803103,12.9420978 12.9218793,12.8018478 C13.0634483,12.6615978 13.0634483,12.4349022 12.9218793,12.2946522 L11.1814138,10.5704022 L14.505569,6.96407609 L18.5828276,10.6668913 C18.7301897,10.8006848 18.9593793,10.7906413 19.094431,10.6446522 C19.2294828,10.498663 19.2197069,10.2716087 19.0719828,10.1378152 L14.7271552,6.19216304 C14.6561897,6.12795652 14.5616897,6.09603261 14.4664655,6.09818478 C14.3705172,6.10248913 14.28,6.14445652 14.2151897,6.21476087 L10.6690862,10.0624891 L8.9517931,8.36119565 C8.81637931,8.22740217 8.59986207,8.22058696 8.45648276,8.34541304 L2.29515517,13.71975 C2.14489655,13.8506739 2.13041379,14.0773696 2.26256897,14.2262283 C2.33425862,14.3069348 2.43418966,14.3478261 2.53448276,14.3478261 Z" id="Path"></path>
            </g>
        </g>
    </g>
</svg>