<?xml version="1.0" encoding="utf-8"?>
<svg width="15px" height="15px" viewBox="0 0 15 15" version="1.1" xmlns:xlink="http://www.w3.org/1999/xlink" xmlns="http://www.w3.org/2000/svg">
  <g id="instagram">
    <path d="M10.9396 0L4.06036 0C1.82144 0 0 1.82144 0 4.06036L0 10.9398C0 13.1786 1.82144 15 4.06036 15L10.9398 15C13.1786 15 15 13.1786 15 10.9398L15 4.06036C15 1.82144 13.1786 8.32667e-16 10.9396 0ZM7.5 11.6014C5.23842 11.6014 3.39855 9.76158 3.39855 7.5C3.39855 5.23842 5.23842 3.39855 7.5 3.39855C9.76158 3.39855 11.6014 5.23842 11.6014 7.5C11.6014 9.76158 9.76158 11.6014 7.5 11.6014L7.5 11.6014ZM11.6995 4.36581C11.0312 4.36581 10.4876 3.82221 10.4876 3.15388C10.4876 2.48554 11.0312 1.94183 11.6995 1.94183C12.3679 1.94183 12.9116 2.48554 12.9116 3.15388C12.9116 3.82221 12.3679 4.36581 11.6995 4.36581Z" id="Shape" fill="#A1A1A1" stroke="none" />
    <path d="M3.22208 8.32667e-16C1.4455 8.32667e-16 0 1.44539 0 3.22208C0 4.99866 1.4455 6.44417 3.22208 6.44417C4.99878 6.44417 6.44417 4.99866 6.44417 3.22208C6.44417 1.44539 4.99878 0 3.22208 8.32667e-16Z" transform="translate(4.277916 4.277916)" id="Path" fill="#A1A1A1" stroke="none" />
  </g>
</svg>