<?xml version="1.0" encoding="utf-8"?>
<svg width="17px" height="12px" viewBox="0 0 17 12" version="1.1" xmlns:xlink="http://www.w3.org/1999/xlink" xmlns="http://www.w3.org/2000/svg">
  <g id="letter">
    <path d="M14.9762 2.96884e-17L2.02381 2.96884e-17C0.906287 0.000391721 0.000505952 0.935541 0 2.08914L0 9.88984C0.000505952 11.0434 0.906287 11.9787 2.02381 11.979L14.9762 11.979C16.0937 11.9787 16.9995 11.0434 17 9.88984L17 2.08914C16.9995 0.935541 16.0937 0.000391721 14.9762 2.96884e-17ZM2.02381 0.835655L14.9762 0.835655C15.5592 0.837221 16.0594 1.26432 16.1702 1.85502L8.5 6.26741L0.829762 1.85502C0.940565 1.26432 1.44083 0.837221 2.02381 0.835655ZM14.9762 11.1393L2.02381 11.1393C1.35406 11.1372 0.811421 10.5772 0.809524 9.88579L0.809524 2.79944L8.30167 7.11129C8.36238 7.14576 8.43056 7.16456 8.5 7.16574C8.5697 7.16652 8.63813 7.14772 8.69833 7.11129L16.1905 2.79944L16.1905 9.88579C16.19 10.5778 15.6466 11.1386 14.9762 11.1393Z" transform="translate(0 0.013971109)" id="Shape" fill="#DBBB95" stroke="none" />
  </g>
</svg>