<svg width="14" height="18" viewBox="0 0 14 18" fill="none" xmlns="http://www.w3.org/2000/svg">
<path d="M0.492231 4.40373H3.474C3.47606 4.40373 3.48018 4.40373 3.48224 4.40373C3.98023 4.39958 4.38356 3.99341 4.38767 3.4919C4.38767 3.48983 4.38767 3.48569 4.38767 3.48361V0.478732C4.38767 0.201039 4.16131 0.0166016 3.92674 0.0166016C3.81356 0.0166016 3.70038 0.0580482 3.60573 0.153375L0.167096 3.61624C-0.120998 3.90637 0.0827258 4.40373 0.492231 4.40373Z" fill="white"/>
<path fill-rule="evenodd" clip-rule="evenodd" d="M12.777 17.5982H8.55643H6.94104H2.30067H1.10714C0.506257 17.5982 0.0185547 17.1071 0.0185547 16.502V5.81538H0.397193C0.42806 5.81745 0.460985 5.81952 0.491852 5.81952H2.86451H4.28132C5.12708 5.81952 5.81439 5.12736 5.81439 4.27564V2.86811V0.478709C5.81439 0.439334 5.81231 0.39996 5.80822 0.362658V0H6.94104H12.777C13.3779 0 13.8656 0.491143 13.8656 1.09626V2.24641V16.502C13.8656 17.1071 13.3779 17.5982 12.777 17.5982ZM4.99905 10.0043C4.85344 9.8468 4.60575 9.83701 4.45048 9.98462C4.29507 10.1372 4.2854 10.3832 4.42136 10.5457L7.26643 13.6414C7.34399 13.72 7.44116 13.7643 7.55275 13.7643C7.66448 13.7643 7.76641 13.72 7.83922 13.6414L10.6843 10.5457C10.8299 10.3881 10.8202 10.1372 10.6648 9.98944C10.5096 9.84183 10.2619 9.85177 10.1163 10.0092L7.94605 12.3715V6.74626C7.94605 6.52967 7.77132 6.35254 7.55765 6.35254C7.34399 6.35254 7.16926 6.52967 7.16926 6.74626V12.3667L4.99905 10.0043Z" fill="white"/>
</svg>
