<?xml version="1.0" encoding="UTF-8"?>
<svg width="12px" height="16px" viewBox="0 0 12 16" version="1.1" xmlns="http://www.w3.org/2000/svg" xmlns:xlink="http://www.w3.org/1999/xlink">
    <title>locked (1)</title>
    <g id="Page-1" stroke="none" stroke-width="1" fill="none" fill-rule="evenodd">
        <g id="6,12-выехжающее-меню-аватар" transform="translate(-516.000000, -725.000000)">
            <g id="locked-(1)" transform="translate(516.000000, 726.000000)">
                <path d="M2.65116279,7.09090909 L2.65116279,2.89118182 C2.65116279,1.30090909 4.09534884,0 5.86046512,0 L5.86046512,0 C7.6255814,0 9.06976744,1.30090909 9.06976744,2.89118182 L9.06976744,7.09090909 L2.65116279,7.09090909 Z" id="Path" stroke="#424A60" stroke-width="1.09090909" stroke-linecap="round"></path>
                <rect id="Rectangle" fill="#EBBA16" fill-rule="nonzero" x="0.139534884" y="6.27272727" width="11.7209302" height="8.72727273"></rect>
                <path d="M6,11.7272727 L6,11.7272727 C5.53953488,11.7272727 5.1627907,11.3590909 5.1627907,10.9090909 L5.1627907,9.27272727 C5.1627907,8.82272727 5.53953488,8.45454545 6,8.45454545 L6,8.45454545 C6.46046512,8.45454545 6.8372093,8.82272727 6.8372093,9.27272727 L6.8372093,10.9090909 C6.8372093,11.3590909 6.46046512,11.7272727 6,11.7272727 Z" id="Path" fill="#424A60" fill-rule="nonzero"></path>
                <rect id="Rectangle" fill="#38454F" fill-rule="nonzero" x="0.139534884" y="13.3636364" width="11.7209302" height="1.63636364"></rect>
            </g>
        </g>
    </g>
</svg>