<?xml version="1.0" encoding="utf-8"?>
<svg width="72px" height="23px" viewBox="0 0 72 23" version="1.1" xmlns:xlink="http://www.w3.org/1999/xlink" xmlns="http://www.w3.org/2000/svg">
  <g id="Group-10">
    <path d="M0.793837 0L7.15453 0Q7.23272 0 7.3094 0.0152534Q7.38609 0.0305067 7.45832 0.0604272Q7.53055 0.0903478 7.59556 0.133786Q7.66057 0.177224 7.71586 0.232509Q7.77115 0.287795 7.81458 0.352805Q7.85802 0.417814 7.88794 0.490049Q7.91786 0.562283 7.93312 0.638967Q7.94837 0.715651 7.94837 0.793837L7.94837 7.15453Q7.94837 7.23272 7.93312 7.3094Q7.91786 7.38609 7.88794 7.45832Q7.85802 7.53055 7.81458 7.59556Q7.77115 7.66057 7.71586 7.71586Q7.66057 7.77115 7.59556 7.81458Q7.53055 7.85802 7.45832 7.88794Q7.38609 7.91786 7.3094 7.93312Q7.23272 7.94837 7.15453 7.94837L0.793837 7.94837Q0.715651 7.94837 0.638967 7.93312Q0.562283 7.91786 0.490049 7.88794Q0.417814 7.85802 0.352805 7.81458Q0.287795 7.77115 0.232509 7.71586Q0.177224 7.66057 0.133786 7.59556Q0.0903478 7.53055 0.0604272 7.45832Q0.0305067 7.38609 0.0152534 7.3094Q0 7.23272 0 7.15453L0 0.793837Q0 0.715651 0.0152534 0.638967Q0.0305067 0.562283 0.0604272 0.490049Q0.0903478 0.417814 0.133786 0.352805Q0.177224 0.287795 0.232509 0.232509Q0.287795 0.177224 0.352805 0.133786Q0.417814 0.0903478 0.490049 0.0604272Q0.562283 0.0305067 0.638967 0.0152534Q0.715651 0 0.793837 0Z" transform="translate(11.127717 11.127717)" id="Rectangle" fill="#EED328" fill-rule="evenodd" stroke="none" />
    <path d="M0.793837 0L7.15453 0Q7.23272 0 7.3094 0.0152534Q7.38609 0.0305067 7.45832 0.0604272Q7.53055 0.0903478 7.59556 0.133786Q7.66057 0.177224 7.71586 0.232509Q7.77115 0.287795 7.81458 0.352805Q7.85802 0.417814 7.88794 0.490049Q7.91786 0.562283 7.93312 0.638967Q7.94837 0.715651 7.94837 0.793837L7.94837 7.15453Q7.94837 7.23272 7.93312 7.3094Q7.91786 7.38609 7.88794 7.45832Q7.85802 7.53055 7.81458 7.59556Q7.77115 7.66057 7.71586 7.71586Q7.66057 7.77115 7.59556 7.81458Q7.53055 7.85802 7.45832 7.88794Q7.38609 7.91786 7.3094 7.93312Q7.23272 7.94837 7.15453 7.94837L0.793837 7.94837Q0.715651 7.94837 0.638967 7.93312Q0.562283 7.91786 0.490049 7.88794Q0.417814 7.85802 0.352805 7.81458Q0.287795 7.77115 0.232509 7.71586Q0.177224 7.66057 0.133786 7.59556Q0.0903478 7.53055 0.0604272 7.45832Q0.0305067 7.38609 0.0152534 7.3094Q0 7.23272 0 7.15453L0 0.793837Q0 0.715651 0.0152534 0.638967Q0.0305067 0.562283 0.0604272 0.490049Q0.0903478 0.417814 0.133786 0.352805Q0.177224 0.287795 0.232509 0.232509Q0.287795 0.177224 0.352805 0.133786Q0.417814 0.0903478 0.490049 0.0604272Q0.562283 0.0305067 0.638967 0.0152534Q0.715651 0 0.793837 0Z" transform="translate(11.127717 2.3845108)" id="Rectangle" fill="#EED328" fill-rule="evenodd" stroke="none" />
    <path d="M0.793837 0L7.15453 0Q7.23272 0 7.3094 0.0152534Q7.38609 0.0305067 7.45832 0.0604272Q7.53055 0.0903478 7.59556 0.133786Q7.66057 0.177224 7.71586 0.232509Q7.77115 0.287795 7.81458 0.352805Q7.85802 0.417814 7.88794 0.490049Q7.91786 0.562283 7.93312 0.638967Q7.94837 0.715651 7.94837 0.793837L7.94837 7.15453Q7.94837 7.23272 7.93312 7.3094Q7.91786 7.38609 7.88794 7.45832Q7.85802 7.53055 7.81458 7.59556Q7.77115 7.66057 7.71586 7.71586Q7.66057 7.77115 7.59556 7.81458Q7.53055 7.85802 7.45832 7.88794Q7.38609 7.91786 7.3094 7.93312Q7.23272 7.94837 7.15453 7.94837L0.793837 7.94837Q0.715651 7.94837 0.638967 7.93312Q0.562283 7.91786 0.490049 7.88794Q0.417814 7.85802 0.352805 7.81458Q0.287795 7.77115 0.232509 7.71586Q0.177224 7.66057 0.133786 7.59556Q0.0903478 7.53055 0.0604272 7.45832Q0.0305067 7.38609 0.0152534 7.3094Q0 7.23272 0 7.15453L0 0.793837Q0 0.715651 0.0152534 0.638967Q0.0305067 0.562283 0.0604272 0.490049Q0.0903478 0.417814 0.133786 0.352805Q0.177224 0.287795 0.232509 0.232509Q0.287795 0.177224 0.352805 0.133786Q0.417814 0.0903478 0.490049 0.0604272Q0.562283 0.0305067 0.638967 0.0152534Q0.715651 0 0.793837 0Z" transform="matrix(1 0 0 1 -6.661338E-15 -6.3193895E-13)" id="Rectangle" fill="#34C6A2" fill-rule="evenodd" stroke="none" />
    <path d="M0.793837 0L7.15453 0Q7.23272 0 7.3094 0.0152534Q7.38609 0.0305067 7.45832 0.0604272Q7.53055 0.0903478 7.59556 0.133786Q7.66057 0.177224 7.71586 0.232509Q7.77115 0.287795 7.81458 0.352805Q7.85802 0.417814 7.88794 0.490049Q7.91786 0.562283 7.93312 0.638967Q7.94837 0.715651 7.94837 0.793837L7.94837 7.15453Q7.94837 7.23272 7.93312 7.3094Q7.91786 7.38609 7.88794 7.45832Q7.85802 7.53055 7.81458 7.59556Q7.77115 7.66057 7.71586 7.71586Q7.66057 7.77115 7.59556 7.81458Q7.53055 7.85802 7.45832 7.88794Q7.38609 7.91786 7.3094 7.93312Q7.23272 7.94837 7.15453 7.94837L0.793837 7.94837Q0.715651 7.94837 0.638967 7.93312Q0.562283 7.91786 0.490049 7.88794Q0.417814 7.85802 0.352805 7.81458Q0.287795 7.77115 0.232509 7.71586Q0.177224 7.66057 0.133786 7.59556Q0.0903478 7.53055 0.0604272 7.45832Q0.0305067 7.38609 0.0152534 7.3094Q0 7.23272 0 7.15453L0 0.793837Q0 0.715651 0.0152534 0.638967Q0.0305067 0.562283 0.0604272 0.490049Q0.0903478 0.417814 0.133786 0.352805Q0.177224 0.287795 0.232509 0.232509Q0.287795 0.177224 0.352805 0.133786Q0.417814 0.0903478 0.490049 0.0604272Q0.562283 0.0305067 0.638967 0.0152534Q0.715651 0 0.793837 0Z" transform="translate(2.3845108 11.127717)" id="Rectangle" fill="#EED328" fill-rule="evenodd" stroke="none" />
    <g id="Group" transform="translate(23 3)">
      <g id="4Hub">
        <g id="4" fill="#555555">
          <path d="M6.43311 5.07349L6.43311 12.2407L7.82568 12.2407L7.82568 13.376L6.43311 13.376L6.43311 15.9265L5.20703 15.9265L5.20703 13.376L0.105957 13.376L0.105957 12.3013Q0.817383 11.499 1.54395 10.587Q2.27051 9.67505 2.93274 8.73657Q3.59497 7.7981 4.15881 6.8634Q4.72266 5.92871 5.10864 5.07349L6.43311 5.07349ZM1.5061 12.2407L5.20703 12.2407L5.20703 6.92773Q4.6394 7.91919 4.13232 8.69873Q3.62524 9.47827 3.16736 10.114Q2.70947 10.7498 2.29321 11.2644Q1.87695 11.7791 1.5061 12.2407Z" />
        </g>
        <g id="Hub" fill="#555555">
          <path d="M30.4431 14.8064L30.4734 14.8064Q31.2605 16.1082 32.7969 16.1082Q34.4392 16.1082 35.3853 14.9388Q36.3313 13.7695 36.3313 11.8245Q36.3313 10.0762 35.4875 9.03552Q34.6436 7.99487 33.1526 7.99487Q31.3892 7.99487 30.4734 9.53882L30.4431 9.53882L30.4431 4.45288L29.2019 4.45288L29.2019 15.9265L30.4431 15.9265L30.4431 14.8064ZM17.875 15.9265L16.6035 15.9265L16.6035 10.9768L10.9878 10.9768L10.9878 15.9265L9.71632 15.9265L9.71632 5.07349L10.9878 5.07349L10.9878 9.83398L16.6035 9.83398L16.6035 5.07349L17.875 5.07349L17.875 15.9265ZM26.7588 15.9265L25.5176 15.9265L25.5176 14.7004L25.4873 14.7004Q24.7154 16.1082 23.0957 16.1082Q20.3257 16.1082 20.3257 12.8083L20.3257 8.17651L21.5593 8.17651L21.5593 12.6116Q21.5593 15.0637 23.4363 15.0637Q24.3445 15.0637 24.9311 14.3939Q25.5176 13.7241 25.5176 12.6418L25.5176 8.17651L26.7588 8.17651L26.7588 15.9265ZM30.4431 12.7629L30.4431 11.6807Q30.4431 10.5454 31.1016 9.79236Q31.76 9.03931 32.8423 9.03931Q33.864 9.03931 34.4619 9.77344Q35.0598 10.5076 35.0598 11.8018Q35.0598 13.3381 34.4203 14.2009Q33.7808 15.0637 32.6531 15.0637Q31.6919 15.0637 31.0675 14.3939Q30.4431 13.7241 30.4431 12.7629Z" />
        </g>
      </g>
    </g>
  </g>
</svg>