<?xml version="1.0" encoding="UTF-8"?>
<svg width="20px" height="19px" viewBox="0 0 20 19" version="1.1" xmlns="http://www.w3.org/2000/svg" xmlns:xlink="http://www.w3.org/1999/xlink">
    <title>magnifying-glass-2</title>
    <g id="Page-1" stroke="none" stroke-width="1" fill="none" fill-rule="evenodd">
        <g id="5-Файлообменник-стартовый-экран" transform="translate(-916.000000, -36.000000)" fill="#AEAEAE" fill-rule="nonzero">
            <g id="magnifying-glass-2" transform="translate(916.750000, 36.000000)">
                <path d="M18.5204082,17.4183673 L14.0127551,12.9107143 C15.130102,11.5484694 15.8035714,9.80357143 15.8035714,7.90178571 C15.8035714,3.53954082 12.2640306,0 7.90178571,0 C3.53571429,0 0,3.53954082 0,7.90178571 C0,12.2640306 3.53571429,15.8035714 7.90178571,15.8035714 C9.80357143,15.8035714 11.5446429,15.1339286 12.9068878,14.0165816 L17.4145408,18.5204082 C17.7206633,18.8265306 18.2142857,18.8265306 18.5204082,18.5204082 C18.8265306,18.2181122 18.8265306,17.7206633 18.5204082,17.4183673 Z M7.90178571,14.2308673 C4.40816327,14.2308673 1.56887755,11.3915816 1.56887755,7.90178571 C1.56887755,4.4119898 4.40816327,1.56887755 7.90178571,1.56887755 C11.3915816,1.56887755 14.2346939,4.4119898 14.2346939,7.90178571 C14.2346939,11.3915816 11.3915816,14.2308673 7.90178571,14.2308673 Z" id="Shape"></path>
            </g>
        </g>
    </g>
</svg>