<?xml version="1.0" encoding="UTF-8"?>
<svg width="23px" height="17px" viewBox="0 0 23 17" version="1.1" xmlns="http://www.w3.org/2000/svg" xmlns:xlink="http://www.w3.org/1999/xlink">
    <title>mail</title>
    <g id="Page-1" stroke="none" stroke-width="1" fill="none" fill-rule="evenodd">
        <g id="5-Файлообменник-стартовый-экран" transform="translate(-514.000000, -900.000000)" fill="#FFFFFF" fill-rule="nonzero">
            <g id="Group-4" transform="translate(443.000000, 881.000000)">
                <g id="Group-2" transform="translate(71.000000, 15.000000)">
                    <g id="mail" transform="translate(0.000000, 4.000000)">
                        <path d="M0.480125,1.37930208 C3.63678516,4.01390365 9.17574219,8.64897135 10.8037109,10.0941927 C11.0222559,10.28925 11.2566582,10.3884167 11.5,10.3884167 C11.7428477,10.3884167 11.9768457,10.2901797 12.1948965,10.0960521 C13.8242578,8.64941406 19.3632148,4.01390365 22.5199199,1.37930208 C22.7164531,1.21558854 22.746416,0.927828125 22.5873027,0.727679688 C22.2194824,0.265182292 21.6710762,0 21.0833184,0 L1.91668164,0 C1.32896875,0 0.780517578,0.265182292 0.412742188,0.727723958 C0.253628906,0.927828125 0.283591797,1.21558854 0.480125,1.37930208 Z" id="Path"></path>
                        <path d="M22.7220684,2.80703646 C22.5522187,2.72911979 22.3524063,2.75630208 22.211082,2.87530208 C18.7104102,5.79992187 14.2425703,9.5486875 12.836875,10.7969922 C12.0479121,11.498862 10.9529414,11.498862 10.1621367,10.7960625 C8.6638125,9.46563542 3.64657812,5.26220833 0.788917969,2.87525781 C0.646650391,2.75625781 0.446388672,2.73000521 0.277931641,2.80699219 C0.108576172,2.88451042 0,3.05145573 0,3.23544531 L0,15.1110964 C0,16.1528776 0.859580078,17 1.91668164,17 L21.0833633,17 C22.1404199,17 23,16.1528776 23,15.1110964 L23,3.23544531 C23,3.05145573 22.8914238,2.88406771 22.7220684,2.80703646 Z" id="Path"></path>
                    </g>
                </g>
            </g>
        </g>
    </g>
</svg>