<?xml version="1.0" encoding="UTF-8"?>
<svg width="20px" height="17px" viewBox="0 0 20 17" version="1.1" xmlns="http://www.w3.org/2000/svg" xmlns:xlink="http://www.w3.org/1999/xlink">
    <title>men</title>
    <g id="Page-1" stroke="none" stroke-width="1" fill="none" fill-rule="evenodd">
        <g id="5-Файлообменник-стартовый-экран" transform="translate(-14.000000, -412.000000)" fill="#FFFFFF" fill-rule="nonzero">
            <g id="men" transform="translate(14.000000, 412.000000)">
                <path d="M17.1128906,9.1753211 L15.5661719,9.1753211 C15.7238281,9.60616972 15.8099609,10.0711353 15.8099609,10.5557523 L15.8099609,16.3907294 C15.8099609,16.5927798 15.7747266,16.7867202 15.710625,16.9670917 L18.2676953,16.9670917 C19.2228906,16.9670917 19.9999609,16.1914083 19.9999609,15.2380046 L19.9999609,12.057094 C19.9999609,10.4681009 18.7048438,9.1753211 17.1128906,9.1753211 Z" id="Path"></path>
                <path d="M4.19003906,10.5557913 C4.19003906,10.0711353 4.27617188,9.60620872 4.43382812,9.17536009 L2.88710937,9.17536009 C1.29515625,9.17536009 0,10.4681399 0,12.057172 L0,15.2380826 C0,16.1914862 0.777070313,16.9671697 1.73226562,16.9671697 L4.289375,16.9671697 C4.22527344,16.7867202 4.19003906,16.5928188 4.19003906,16.3907683 L4.19003906,10.5557913 Z" id="Path"></path>
                <path d="M11.7680078,7.67397936 L8.23199219,7.67397936 C6.64003906,7.67397936 5.34488281,8.96675917 5.34488281,10.5557913 L5.34488281,16.3907683 C5.34488281,16.7090505 5.60339844,16.9671307 5.92230469,16.9671307 L14.0776953,16.9671307 C14.3966016,16.9671307 14.6551172,16.7090894 14.6551172,16.3907683 L14.6551172,10.5557913 C14.6551172,8.96675917 13.3599609,7.67397936 11.7680078,7.67397936 Z" id="Path"></path>
                <path d="M10,0.0327522936 C8.08546875,0.0327522936 6.52789063,1.58747248 6.52789063,3.49852982 C6.52789063,4.79477982 7.24464844,5.92687844 8.30316406,6.52125459 C8.80523438,6.80315826 9.3840625,6.96426835 10,6.96426835 C10.6159375,6.96426835 11.1947656,6.80315826 11.6968359,6.52125459 C12.7553906,5.92687844 13.4721094,4.79474083 13.4721094,3.49852982 C13.4721094,1.58751147 11.9145312,0.0327522936 10,0.0327522936 Z" id="Path"></path>
                <path d="M3.90304688,3.26310321 C2.47121094,3.26310321 1.30636719,4.42580963 1.30636719,5.85501835 C1.30636719,7.28422706 2.47121094,8.44693349 3.90304688,8.44693349 C4.26625,8.44693349 4.61210938,8.37183716 4.92628906,8.23685092 C5.46949219,8.00341284 5.91738281,7.59018807 6.19453125,7.07258486 C6.3890625,6.70930734 6.49972656,6.29487385 6.49972656,5.85501835 C6.49972656,4.42584862 5.33488281,3.26310321 3.90304688,3.26310321 Z" id="Path"></path>
                <path d="M16.0969531,3.26310321 C14.6651172,3.26310321 13.5002734,4.42580963 13.5002734,5.85501835 C13.5002734,6.29491284 13.6109375,6.70934633 13.8054687,7.07258486 C14.0826172,7.59022706 14.5305078,8.00345183 15.0737109,8.23685092 C15.3878906,8.37183716 15.73375,8.44693349 16.0969531,8.44693349 C17.5287891,8.44693349 18.6936328,7.28422706 18.6936328,5.85501835 C18.6936328,4.42580963 17.5287891,3.26310321 16.0969531,3.26310321 Z" id="Path"></path>
            </g>
        </g>
    </g>
</svg>