<?xml version="1.0" encoding="utf-8"?>
<svg width="36px" height="36px" viewBox="0 0 36 36" version="1.1" xmlns:xlink="http://www.w3.org/1999/xlink" xmlns="http://www.w3.org/2000/svg">
  <g id="Group-20" transform="translate(0.5 0.5)">
    <path d="M17.5 35C27.165 35 35 27.165 35 17.5C35 7.83502 27.165 0 17.5 0C7.83502 0 0 7.83502 0 17.5C0 27.165 7.83502 35 17.5 35Z" id="Oval" fill="#C2C2C2" fill-rule="evenodd" stroke="none" />
    <path d="M2.5 5C3.88071 5 5 3.88071 5 2.5C5 1.11929 3.88071 0 2.5 0C1.11929 0 0 1.11929 0 2.5C0 3.88071 1.11929 5 2.5 5Z" transform="translate(15 15)" id="Oval" fill="#FFFFFF" fill-rule="evenodd" stroke="none" />
    <path d="M2.5 5C3.88071 5 5 3.88071 5 2.5C5 1.11929 3.88071 0 2.5 0C1.11929 0 0 1.11929 0 2.5C0 3.88071 1.11929 5 2.5 5Z" transform="translate(7 15)" id="Oval" fill="#FFFFFF" fill-rule="evenodd" stroke="none" />
    <path d="M2.5 5C3.88071 5 5 3.88071 5 2.5C5 1.11929 3.88071 0 2.5 0C1.11929 0 0 1.11929 0 2.5C0 3.88071 1.11929 5 2.5 5Z" transform="translate(23 15)" id="Oval" fill="#FFFFFF" fill-rule="evenodd" stroke="none" />
  </g>
</svg>