<?xml version="1.0" encoding="UTF-8"?>
<svg width="18px" height="20px" viewBox="0 0 18 20" version="1.1" xmlns="http://www.w3.org/2000/svg" xmlns:xlink="http://www.w3.org/1999/xlink">
    <title>music-player</title>
    <g id="Page-1" stroke="none" stroke-width="1" fill="none" fill-rule="evenodd">
        <g id="5-Файлообменник-стартовый-экран" transform="translate(-283.000000, -198.000000)" fill="#DBBB95" fill-rule="nonzero">
            <g id="music-player" transform="translate(283.000000, 198.000000)">
                <path d="M17.88,0.0882818182 C17.8037647,0.0212727273 17.7031765,-0.00921818182 17.6015294,0.00283636364 L6.66035294,1.42491818 C6.48458824,1.44796364 6.35294118,1.59793636 6.35294118,1.77627273 L6.35294118,3.90957273 L6.35294118,5.40291818 L6.35294118,14.4027 C5.70847059,13.6244727 4.68458824,13.1181818 3.52941176,13.1181818 C1.58329412,13.1181818 0,14.5494818 0,16.3090909 C0,18.0687 1.58329412,19.5 3.52941176,19.5 C5.47552941,19.5 7.05882353,18.0687 7.05882353,16.3090909 C7.05882353,16.2268364 7.05211765,16.146 7.04505882,16.0655182 C7.04964706,16.0424727 7.05882353,16.0215545 7.05882353,15.9974455 L7.05882353,5.71456364 L17.2941176,4.38395455 L17.2941176,10.8568909 C16.6496471,10.0790182 15.6257647,9.57272727 14.4705882,9.57272727 C12.5244706,9.57272727 10.9411765,11.0040273 10.9411765,12.7636364 C10.9411765,14.5232455 12.5244706,15.9545455 14.4705882,15.9545455 C16.3990588,15.9545455 17.9692941,14.5484182 17.9975294,12.8107909 C17.9975294,12.8061818 18,12.8022818 18,12.7976727 L18,3.98048182 L18,2.48749091 L18,0.354545455 C18,0.252436364 17.9562353,0.155290909 17.88,0.0882818182 Z M3.52941176,18.7909091 C1.97258824,18.7909091 0.705882353,17.6772818 0.705882353,16.3090909 C0.705882353,14.9409 1.97258824,13.8272727 3.52941176,13.8272727 C5.08623529,13.8272727 6.35294118,14.9409 6.35294118,16.3090909 C6.35294118,17.6772818 5.08623529,18.7909091 3.52941176,18.7909091 Z M14.4705882,15.2454545 C12.9137647,15.2454545 11.6470588,14.1318273 11.6470588,12.7636364 C11.6470588,11.3954455 12.9137647,10.2818182 14.4705882,10.2818182 C16.0274118,10.2818182 17.2941176,11.3954455 17.2941176,12.7636364 C17.2941176,14.1318273 16.0274118,15.2454545 14.4705882,15.2454545 Z M7.05882353,4.99944545 L7.05882353,3.90957273 L7.05882353,2.08791818 L17.2941176,0.757663636 L17.2941176,2.48749091 L17.2941176,3.66883636 L7.05882353,4.99944545 Z" id="Shape"></path>
            </g>
        </g>
    </g>
</svg>