<?xml version="1.0" encoding="utf-8"?>
<svg width="18px" height="20px" viewBox="0 0 18 20" version="1.1" xmlns:xlink="http://www.w3.org/1999/xlink" xmlns="http://www.w3.org/2000/svg">
  <g id="music-player">
    <path d="M17.88 0.0880244C17.8038 0.0210154 17.7032 -0.00947556 17.6015 0.00257899L6.66035 1.42466C6.48459 1.44771 6.35294 1.59768 6.35294 1.77602L6.35294 3.90932L6.35294 5.40266L6.35294 14.4024C5.70847 13.6242 4.68459 13.1179 3.52941 13.1179C1.58329 13.1179 0 14.5492 0 16.3088C0 18.0684 1.58329 19.4997 3.52941 19.4997C5.47553 19.4997 7.05882 18.0684 7.05882 16.3088C7.05882 16.2266 7.05212 16.1457 7.04506 16.0653C7.04965 16.0422 7.05882 16.0213 7.05882 15.9972L7.05882 5.71431L17.2941 4.3837L17.2941 10.8566C16.6496 10.0788 15.6258 9.57247 14.4706 9.57247C12.5245 9.57247 10.9412 11.0038 10.9412 12.7634C10.9412 14.523 12.5245 15.9543 14.4706 15.9543C16.3991 15.9543 17.9693 14.5482 17.9975 12.8105C17.9975 12.8059 18 12.802 18 12.7974L18 3.98022L18 2.48723L18 0.354288C18 0.252179 17.9562 0.155034 17.88 0.0880244ZM3.52941 18.7907C1.97259 18.7907 0.705882 17.677 0.705882 16.3088C0.705882 14.9406 1.97259 13.827 3.52941 13.827C5.08624 13.827 6.35294 14.9406 6.35294 16.3088C6.35294 17.677 5.08624 18.7907 3.52941 18.7907ZM14.4706 15.2452C12.9138 15.2452 11.6471 14.1316 11.6471 12.7634C11.6471 11.3952 12.9138 10.2816 14.4706 10.2816C16.0274 10.2816 17.2941 11.3952 17.2941 12.7634C17.2941 14.1316 16.0274 15.2452 14.4706 15.2452ZM7.05882 4.99919L7.05882 3.90932L7.05882 2.08766L17.2941 0.757406L17.2941 2.48723L17.2941 3.66858L7.05882 4.99919Z" transform="translate(0 0.0002573729)" id="Shape" fill="#7B66D0" stroke="none" />
  </g>
</svg>