<?xml version="1.0" encoding="UTF-8"?>
<svg width="12px" height="13px" viewBox="0 0 12 13" version="1.1" xmlns="http://www.w3.org/2000/svg" xmlns:xlink="http://www.w3.org/1999/xlink">
    <title>notebook-of-contacts</title>
    <g id="Page-1" stroke="none" stroke-width="1" fill="none" fill-rule="evenodd">
        <g id="7,18-контакты" transform="translate(-435.000000, -490.000000)" fill="#979797" fill-rule="nonzero">
            <g id="notebook-of-contacts" transform="translate(435.000000, 490.000000)">
                <path d="M2.22222222,6.5 C2.22222222,6.77620588 1.97356209,7 1.66666667,7 L0.555555556,7 C0.248660131,7 0,6.77620588 0,6.5 L0,6.5 C0,6.22379412 0.248660131,6 0.555555556,6 L1.66666667,6 C1.97359477,6 2.22222222,6.22379412 2.22222222,6.5 L2.22222222,6.5 Z M2.22222222,3.3 C2.22222222,3.02379412 1.97356209,2.8 1.66666667,2.8 L0.555555556,2.8 C0.248660131,2.8 0,3.02379412 0,3.3 L0,3.3 C0,3.57620588 0.248660131,3.8 0.555555556,3.8 L1.66666667,3.8 C1.97359477,3.8 2.22222222,3.57620588 2.22222222,3.3 L2.22222222,3.3 Z M2.22222222,9.70002941 C2.22222222,9.42376471 1.97356209,9.20002941 1.66666667,9.20002941 L0.555555556,9.20002941 C0.248660131,9.20002941 0,9.42376471 0,9.70002941 L0,9.70002941 C0,9.97623529 0.248660131,10.2000294 0.555555556,10.2000294 L1.66666667,10.2000294 C1.97359477,10.2000294 2.22222222,9.97620588 2.22222222,9.70002941 L2.22222222,9.70002941 Z M12,1.6 L12,11.4 C12,12.2836176 11.2040196,13 10.2222876,13 L2.4445098,13 C1.4627451,13 0.666666667,12.2836176 0.666666667,11.4 L0.666666667,10.6 L1.66673203,10.6 C2.2180719,10.6 2.66673203,10.1961765 2.66673203,9.7 C2.66673203,9.20379412 2.2180719,8.79994118 1.66673203,8.79994118 L0.666666667,8.79994118 L0.666666667,7.39994118 L1.66666667,7.39994118 C2.21800654,7.39994118 2.66666667,6.99614706 2.66666667,6.49994118 C2.66666667,6.00373529 2.21800654,5.59994118 1.66666667,5.59994118 L0.666666667,5.59994118 L0.666666667,4.19994118 L1.66666667,4.19994118 C2.21800654,4.19994118 2.66666667,3.79614706 2.66666667,3.29994118 C2.66666667,2.80373529 2.21800654,2.39994118 1.66666667,2.39994118 L0.666666667,2.39994118 L0.666666667,1.6 C0.666666667,0.716411765 1.46267974,0 2.44444444,0 L10.2222222,0 C11.2039869,0 12,0.716382353 12,1.6 Z M4.95245098,4.74279412 C4.95245098,5.59479412 5.72,6.28558824 6.66666667,6.28558824 C7.61336601,6.28558824 8.38088235,5.59479412 8.38088235,4.74279412 C8.38088235,3.89079412 7.61336601,3.19997059 6.66666667,3.19997059 C5.72003268,3.19997059 4.95245098,3.89079412 4.95245098,4.74279412 Z M9.33333333,8.51417647 C9.33333333,7.56758824 8.48045752,6.79997059 7.42866013,6.79997059 L5.90490196,6.79997059 C4.8529085,6.79997059 4,7.56761765 4,8.51417647 L4,9.2 L9.33333333,9.2 L9.33333333,8.51417647 Z" id="Shape"></path>
            </g>
        </g>
    </g>
</svg>