<?xml version="1.0" encoding="utf-8"?>
<svg width="18px" height="21px" viewBox="0 0 18 21" version="1.1" xmlns:xlink="http://www.w3.org/1999/xlink" xmlns="http://www.w3.org/2000/svg">
  <g id="notification">
    <path d="M17.1356 14.1269L15.6584 11.7121C14.9775 10.5975 14.6172 9.32176 14.6172 8.02153L14.6172 5.90624C14.6172 2.65022 11.9165 0 8.59851 0C5.2805 0 2.57983 2.65022 2.57983 5.90624L2.57983 8.02153C2.57983 9.32176 2.21955 10.5975 1.53858 11.7121L0.0614086 14.1269C-0.018554 14.2568 -0.0202871 14.4197 0.0554033 14.5513C0.13194 14.6838 0.275502 14.7657 0.430268 14.7657L16.7667 14.7657C16.9215 14.7657 17.0651 14.6838 17.1416 14.5513C17.2173 14.4197 17.2156 14.2568 17.1356 14.1269ZM1.18951 13.9219L2.27545 12.1458C3.03724 10.9004 3.43963 9.47447 3.43963 8.02153L3.43963 5.90624C3.43963 3.11427 5.75338 0.843737 8.59851 0.843737C11.4436 0.843737 13.7574 3.11427 13.7574 5.90624L13.7574 8.02153C13.7574 9.47447 14.1598 10.9004 14.9207 12.1458L16.0075 13.9219L1.18951 13.9219Z" transform="translate(0.026493868 2.953138)" id="Shape" fill="#000000" stroke="none" />
    <path d="M1.71964 0C0.771252 0 0 0.756844 0 1.68751L0 3.37503C0 3.60786 0.192612 3.79688 0.42992 3.79688C0.667228 3.79688 0.85984 3.60786 0.85984 3.37499L0.85984 1.68751C0.85984 1.22176 1.24502 0.843776 1.71964 0.843776C2.19426 0.843776 2.57944 1.22176 2.57944 1.68751L2.57944 3.37503C2.57944 3.60786 2.77205 3.79688 3.00936 3.79688C3.24667 3.79688 3.43928 3.60786 3.43928 3.37499L3.43928 1.68751C3.43928 0.756844 2.66803 0 1.71964 0Z" transform="translate(6.90536 0)" id="Path" fill="#000000" stroke="none" />
    <path d="M4.01018 0.207897C3.88895 0.00709732 3.62669 -0.0587152 3.42122 0.0568522C3.21571 0.17499 3.14696 0.434008 3.2673 0.634808C3.37907 0.82129 3.44013 1.04487 3.44013 1.26509C3.44013 1.96288 2.86148 2.53071 2.15041 2.53071C1.43933 2.53071 0.860686 1.96288 0.860686 1.26509C0.860686 1.04487 0.921746 0.82129 1.03351 0.634808C1.15301 0.433138 1.08425 0.174951 0.879589 0.0568522C0.672387 -0.0587547 0.410977 0.00705777 0.29063 0.207897C0.100598 0.526834 0 0.892165 0 1.26513C4.03037e-05 2.42863 0.963864 3.37449 2.14956 3.37449C3.33526 3.37449 4.29908 2.42863 4.30081 1.26513C4.30081 0.892165 4.20021 0.526834 4.01018 0.207897Z" transform="translate(6.4754405 16.87551)" id="Path" fill="#000000" stroke="none" />
  </g>
</svg>