<?xml version="1.0" encoding="utf-8"?>
<svg width="16px" height="16px" viewBox="0 0 16 16" version="1.1" xmlns:xlink="http://www.w3.org/1999/xlink" xmlns="http://www.w3.org/2000/svg">
  <g id="phone-call-2">
    <path d="M5.75312 2.09223C4.37125 0.742943 2.53387 -7.54717e-05 0.57971 0C0.259478 0 0 0.253434 0 0.566038C0 0.878641 0.259556 1.13208 0.57971 1.13208C2.22423 1.132 3.77036 1.75728 4.93326 2.89275C6.09623 4.02823 6.73662 5.53796 6.73654 7.14377C6.73654 7.45638 6.99602 7.70981 7.31625 7.70981C7.63641 7.70981 7.89596 7.45638 7.89596 7.14385C7.89604 5.23555 7.13507 3.44151 5.75312 2.09223Z" transform="translate(8.0786085 0)" id="Path" fill="#DBBB95" stroke="none" />
    <path d="M3.36843 3.85494C3.36843 4.16755 3.62798 4.42098 3.94821 4.42091C4.26837 4.42091 4.52785 4.16747 4.52785 3.85487C4.52769 1.72958 2.75656 0.000301887 0.579787 0C0.57971 0 0.579787 0 0.57971 0C0.259556 0 7.72947e-05 0.253358 0 0.565962C0 0.878566 0.259478 1.132 0.579633 1.13208C2.11726 1.1323 3.36827 2.35374 3.36843 3.85494Z" transform="translate(8.0786085 3.2889056)" id="Path" fill="#DBBB95" stroke="none" />
    <path d="M10.0909 7.62718C9.20727 7.5825 8.7571 8.22416 8.54122 8.53239C8.36042 8.79043 8.42813 9.14265 8.69241 9.31918C8.95668 9.49571 9.31741 9.42959 9.4982 9.17156C9.75327 8.80741 9.86883 8.75012 10.0256 8.75737C10.5273 8.81495 12.5033 10.2288 12.7012 10.671C12.7508 10.8011 12.749 10.9288 12.6957 11.084C12.4883 11.6852 12.1449 12.1077 11.7024 12.3057C11.2821 12.4939 10.7668 12.4768 10.2125 12.2566C8.14276 11.4329 6.33453 10.2834 4.83811 8.83993C4.83749 8.83933 4.83687 8.8388 4.83633 8.8382C3.36108 7.3785 2.18597 5.61518 1.34377 3.59737C1.11814 3.05571 1.10068 2.55246 1.29337 2.14212C1.49619 1.71012 1.92889 1.3748 2.54408 1.17246C2.70361 1.12024 2.83409 1.11858 2.96618 1.16658C3.4206 1.36046 4.86856 3.28982 4.927 3.7742C4.93534 3.93299 4.87621 4.04575 4.50357 4.29435C4.23923 4.47065 4.17129 4.82288 4.35192 5.08099C4.53248 5.3391 4.89314 5.40537 5.15757 5.22907C5.47339 5.0185 6.1304 4.58016 6.08479 3.71443C6.03455 2.81012 4.23297 0.415331 3.37214 0.106274C2.98929 -0.0330465 2.58659 -0.0354616 2.17476 0.0994818C1.24815 0.404161 0.578937 0.947406 0.239459 1.67043C-0.0898165 2.37186 -0.0793817 3.18567 0.26999 4.02431C1.17132 6.18371 2.43239 8.07314 4.01809 9.64031C4.02195 9.64416 4.02589 9.64793 4.02991 9.65163C5.63378 11.1971 7.56661 12.4261 9.77523 13.3051C10.2175 13.4808 10.6531 13.5687 11.0696 13.5687C11.4618 13.5687 11.8373 13.4908 12.1856 13.3349C12.9261 13.0035 13.4824 12.3501 13.7947 11.4448C13.9326 11.0434 13.9304 10.6503 13.7888 10.2783C13.4711 9.43548 11.0185 7.67639 10.0909 7.62718Z" transform="translate(0.07335271 2.4027069)" id="Path" fill="#DBBB95" stroke="none" />
  </g>
</svg>