<?xml version="1.0" encoding="UTF-8"?>
<svg width="21px" height="18px" viewBox="0 0 21 18" version="1.1" xmlns="http://www.w3.org/2000/svg" xmlns:xlink="http://www.w3.org/1999/xlink">
    <title>photo-2</title>
    <g id="Page-1" stroke="none" stroke-width="1" fill="none" fill-rule="evenodd">
        <g id="5-Файлообменник-стартовый-экран" transform="translate(-1054.000000, -898.000000)" fill="#FFFFFF" fill-rule="nonzero">
            <g id="Group-4" transform="translate(443.000000, 881.000000)">
                <g id="Group-2" transform="translate(71.000000, 15.000000)">
                    <g id="photo-2" transform="translate(540.000000, 2.000000)">
                        <ellipse id="Oval" cx="13.5966797" cy="7.1880531" rx="1.25097656" ry="1.21460177"></ellipse>
                        <path d="M10.7763633,10.2782788 C12.5089863,11.1240398 14.151416,11.9255973 17.3085938,12.0176681 L17.3085938,3.5840708 L3.69140625,3.5840708 L3.69140625,8.41117699 C7.14697266,8.5069115 8.99058398,9.40651327 10.7763633,10.2782788 Z M13.5966797,4.77876106 C14.9649199,4.77876106 16.078125,5.85959735 16.078125,7.1880531 C16.078125,8.51650885 14.9649199,9.59734513 13.5966797,9.59734513 C12.2284395,9.59734513 11.1152344,8.51650885 11.1152344,7.1880531 C11.1152344,5.85959735 12.2284395,4.77876106 13.5966797,4.77876106 Z" id="Shape"></path>
                        <path d="M10.2236367,11.345615 C8.49101367,10.4998938 6.84858398,9.69833628 3.69140625,9.60622566 L3.69140625,14.4159292 L17.3085938,14.4159292 L17.3085938,13.2127168 C13.8530273,13.1169823 12.009416,12.2173805 10.2236367,11.345615 Z" id="Path"></path>
                        <path d="M0,1.82608696 L0,16.173913 C1.47091023e-15,17.182433 0.817566979,18 1.82608696,18 L19.173913,18 C20.182433,18 21,17.182433 21,16.173913 L21,1.82608696 C21,0.817566979 20.182433,-1.85262114e-16 19.173913,0 L1.82608696,0 C0.817566979,1.85262114e-16 -1.0116865e-15,0.817566979 0,1.82608696 Z M2.4609375,15.6106195 L2.4609375,2.38938053 L18.5390625,2.38938053 L18.5390625,15.6106195 L2.4609375,15.6106195 Z" id="Shape"></path>
                    </g>
                </g>
            </g>
        </g>
    </g>
</svg>