<?xml version="1.0" encoding="UTF-8"?>
<svg width="22px" height="22px" viewBox="0 0 22 22" version="1.1" xmlns="http://www.w3.org/2000/svg" xmlns:xlink="http://www.w3.org/1999/xlink">
    <title>pie-chart-5</title>
    <g id="Page-1" stroke="none" stroke-width="1" fill="none" fill-rule="evenodd">
        <g id="5-Файлообменник-стартовый-экран" transform="translate(-1001.000000, -35.000000)" fill="#4086F1" fill-rule="nonzero">
            <g id="pie-chart-5" transform="translate(1001.000000, 35.000000)">
                <path d="M9.87176667,0 L9.5081381,0.0245142857 C4.44695952,0.369757143 0.369757143,4.44695952 0.0248547619,9.5081381 L0,9.87176667 L9.87176667,9.87176667 L9.87176667,0 Z" id="Path"></path>
                <path d="M18.742769,4.33960476 C16.9440333,2.25078333 14.4435762,0.997490476 11.7020619,0.810228571 L11.3384333,0.785714286 L11.3384333,11.3384333 L0.785714286,11.3384333 L0.810569048,11.7020619 C0.961740476,13.9189024 1.81190952,15.9825286 3.2694881,17.670269 C3.40023095,17.8214405 3.54663571,17.9722714 3.74445238,18.1591929 L4.26367857,18.649819 C4.46183571,18.8374214 4.62049762,18.9749738 4.77847857,19.0961833 C6.57653333,20.480219 8.72732143,21.2122429 10.9979571,21.2122429 C11.2655714,21.2122429 11.5372714,21.2016881 11.8059071,21.180919 C16.7482595,20.7999262 20.7771143,16.7887762 21.1775143,11.850169 C21.4015476,9.09095 20.5367381,6.42331905 18.742769,4.33960476 Z" id="Path"></path>
            </g>
        </g>
    </g>
</svg>