<?xml version="1.0" encoding="utf-8"?>
<svg width="18px" height="18px" viewBox="0 0 18 18" version="1.1" xmlns:xlink="http://www.w3.org/1999/xlink" xmlns="http://www.w3.org/2000/svg">
  <g id="plus-3">
    <path d="M9 0C4.03754 0 0 4.03719 0 9C0 13.9628 4.03754 18 9 18C13.9625 18 18 13.9628 18 9C18 4.03719 13.9625 0 9 0ZM13.3269 9.69231L9.69231 9.69231L9.69231 13.5C9.69231 13.8822 9.38215 14.1923 9 14.1923C8.61785 14.1923 8.30769 13.8822 8.30769 13.5L8.30769 9.69231L4.67308 9.69231C4.29092 9.69231 3.98077 9.38215 3.98077 9C3.98077 8.61785 4.29092 8.30769 4.67308 8.30769L8.30769 8.30769L8.30769 4.84615C8.30769 4.464 8.61785 4.15385 9 4.15385C9.38215 4.15385 9.69231 4.464 9.69231 4.84615L9.69231 8.30769L13.3269 8.30769C13.7091 8.30769 14.0192 8.61785 14.0192 9C14.0192 9.38215 13.7091 9.69231 13.3269 9.69231Z" id="Shape" fill="#4086F1" stroke="none" />
  </g>
</svg>