<?xml version="1.0" encoding="UTF-8"?>
<svg width="18px" height="18px" viewBox="0 0 18 18" version="1.1" xmlns="http://www.w3.org/2000/svg" xmlns:xlink="http://www.w3.org/1999/xlink">
    <title>thinking</title>
    <g id="Page-1" stroke="none" stroke-width="1" fill="none" fill-rule="evenodd">
        <g id="5-Файлообменник-стартовый-экран" transform="translate(-17.000000, -263.000000)" fill="#FFFFFF" fill-rule="nonzero">
            <g id="thinking" transform="translate(17.000000, 263.000000)">
                <path d="M2.62253291,11.5339966 C2.52083333,11.7372437 2.56044407,11.9829254 2.72066884,12.1436005 L2.84936951,12.2725525 C3.22121712,11.8310394 3.65460526,11.3518982 4.18023575,10.8253784 C4.21737937,10.7881622 4.25561951,10.7701721 4.29290021,10.7358398 L3.46491228,9.90609743 C2.98355263,10.7784119 2.70285088,11.3744201 2.62253291,11.5339966 Z" id="Path"></path>
                <path d="M7.15748354,13.8084412 C6.63061951,14.3363342 6.15364582,14.7713928 5.71546053,15.1442413 L5.88980263,15.3189239 C6.05153509,15.4809723 6.299068,15.5199737 6.50260418,15.4150543 C6.7752193,15.274292 7.20394737,15.0721436 8.11403509,14.5643006 L7.24698463,13.6955566 C7.2127193,13.7330475 7.19476425,13.771225 7.15748354,13.8084412 L7.15748354,13.8084412 Z" id="Path"></path>
                <path d="M6.87691888,11.1071777 C6.49657347,10.7260895 5.42694628,11.0677643 4.92447916,11.5710754 C3.24355811,13.2552795 2.48437502,14.4493561 2.1435033,15.1544037 C2.04577853,15.3564148 2.08648575,15.5982514 2.24492874,15.7570038 C2.40364582,15.9161682 2.64542214,15.956543 2.84717653,15.8586273 C3.53508772,15.5239563 4.71230811,14.766861 6.41324014,13.0627441 C6.96573467,12.5088959 7.23834979,11.4694519 6.87733004,11.1075897 L6.87691888,11.1071777 Z" id="Path"></path>
                <path d="M1.64281796,7.02108766 L0.15419407,8.51261903 C-0.0141173333,8.68125916 -0.048656807,8.94232178 0.0705866316,9.14913942 C0.186951754,9.35321045 0.430646947,9.45716857 0.662554807,9.3949585 C1.46710526,9.17880251 2.1750274,9.08747863 2.65172698,9.20997619 C3.32990681,8.00189209 4.05866228,6.88980101 4.83045505,5.87960817 C4.38404604,5.59286501 2.90885418,5.75257873 1.64281796,7.02108766 L1.64281796,7.02108766 Z" id="Path"></path>
                <path d="M8.90858004,17.9434204 C9.11129386,18.0461426 9.35677084,18.0064545 9.51726975,17.8455048 L11.0060307,16.3539734 C12.15858,15.1988983 12.3614309,13.7086029 12.0999178,13.2360535 C10.975466,14.0851593 9.8363487,14.8021545 8.77357456,15.40242 C8.84690242,15.8172912 8.79810856,16.2198028 8.62472589,17.39534 C8.59087172,17.6228943 8.70819628,17.8430328 8.90858004,17.9434204 L8.90858004,17.9434204 Z" id="Path"></path>
                <path d="M10.4491502,5.28991699 C9.83360744,5.90679932 9.83360744,6.91026307 10.4491502,7.52714539 C11.06483,8.14402772 12.0664748,8.14402772 12.6821546,7.52714539 C13.2978344,6.91026307 13.2978344,5.90679932 12.6821546,5.28991699 C12.0664748,4.67303467 11.06483,4.67303467 10.4491502,5.28991699 Z" id="Path"></path>
                <path d="M17.9339364,0.514434797 C17.9150219,0.253646859 17.7077851,0.0475158516 17.4483279,0.0280151367 C16.1557018,-0.0694885078 14.8681469,0.08981325 13.6060855,0.476532 C13.7010691,1.34527588 14.149534,2.28543089 14.915159,3.05255127 C15.6899671,3.82873535 16.6537829,4.27793885 17.5363213,4.36198426 C17.8762335,3.16845703 18.0374178,1.89019775 17.9339364,0.514434797 L17.9339364,0.514434797 Z" id="Path"></path>
                <path d="M14.1709156,3.79838563 C13.2950932,2.92085265 12.7602796,1.86836242 12.5886787,0.84361268 C9.42817982,2.14233398 6.40268639,4.97845459 4.01192435,8.96264648 L5.19969846,10.1527405 C6.01123902,9.82260134 6.99643642,9.73539735 7.62129933,10.3613434 C8.24698463,10.9883881 8.15830593,11.9750977 7.82894737,12.7871246 L9.055784,14.0163574 C12.1152686,12.168869 15.6772204,9.25817871 17.191886,5.38563537 C16.1441886,5.22702028 15.0609923,4.6902008 14.1709156,3.79838563 L14.1709156,3.79838563 Z M13.426398,8.27297972 C12.4004934,9.30088807 10.7309485,9.30088807 9.70490681,8.27297972 C8.67886512,7.24493408 8.67886512,5.57199098 9.70490681,4.54408263 C10.7309485,3.51617432 12.4004934,3.51617432 13.426398,4.54408263 C14.4524397,5.5721283 14.4524397,7.24493408 13.426398,8.27297972 Z" id="Shape"></path>
            </g>
        </g>
    </g>
</svg>