<?xml version="1.0" encoding="utf-8"?>
<svg width="33px" height="33px" viewBox="0 0 33 33" version="1.1" xmlns:xlink="http://www.w3.org/1999/xlink" xmlns="http://www.w3.org/2000/svg">
  <g id="puzzle" transform="matrix(0.70710677 0.70710677 -0.70710677 0.70710677 16.26294 0)">
    <path d="M15.3549 7.10296L13.0223 4.77042C12.672 4.42008 12.0747 4.55691 11.9117 5.02467C11.6747 5.70494 10.798 5.91194 10.2822 5.39621C9.76682 4.8808 9.97315 4.00388 10.6538 3.76671C11.1217 3.60369 11.2583 3.00636 10.908 2.65612L8.5519 0.299986C8.15225 -0.099846 7.50283 -0.100115 7.10299 0.299897L5.36181 2.04108C4.4501 1.09346 2.94699 1.09006 2.0303 2.00665C1.106 2.93091 1.12523 4.43779 2.06474 5.33811L0.29997 7.10288C-0.099818 7.50248 -0.100132 8.15195 0.29988 8.55179L2.06469 10.3166C1.12573 11.2131 1.10524 12.7231 2.03026 13.6481C2.95447 14.5723 4.46136 14.5532 5.36172 13.6137L7.10286 15.3548C7.50247 15.7546 8.15194 15.7549 8.55177 15.3549L10.908 12.9987C11.2584 12.6483 11.1215 12.051 10.6537 11.8881C9.97463 11.6515 9.76566 10.7752 10.2822 10.2586C10.7977 9.74312 11.6746 9.94954 11.9117 10.6301C12.0747 11.0979 12.672 11.2347 13.0223 10.8843L15.3548 8.55179C15.7548 8.15191 15.7547 7.5028 15.3549 7.10296Z" transform="matrix(0.9999999 0 0 0.9999999 0 7.3134766)" id="Path" fill="#928BFF" stroke="none" />
    <path d="M13.3361 2.52948L11.0035 0.196926C10.6532 -0.153409 10.0559 -0.0165747 9.89296 0.451182C9.65592 1.13145 8.77918 1.33845 8.26346 0.822724C8.24507 0.804341 8.65127 0.411234 0 9.06251C0.926322 10.0017 2.44123 9.98116 3.34298 9.04022L5.08412 10.7813C5.48373 11.1811 6.1332 11.1814 6.53303 10.7814L8.88925 8.42523C9.23963 8.07485 9.10275 7.47757 8.635 7.31464C7.95589 7.07801 7.74692 6.20172 8.26346 5.68514C8.77892 5.16968 9.65583 5.3761 9.89296 6.05664C10.0559 6.52444 10.6533 6.66123 11.0035 6.31089L13.3361 3.97834C13.736 3.57842 13.7359 2.92931 13.3361 2.52948L13.3361 2.52948Z" transform="matrix(0.9999999 0 0 0.9999999 2.022705 11.896484)" id="Path" fill="#736DD9" stroke="none" />
    <path d="M15.7794 7.10295L13.4469 4.7704C13.0966 4.42006 12.4993 4.55685 12.3363 5.02465C12.1007 5.7008 11.2266 5.91592 10.7068 5.39615C10.1906 4.87979 10.3989 4.00346 11.0783 3.76665C11.5462 3.60368 11.6829 3.00635 11.3326 2.65606L8.97641 0.29997C8.5768 -0.099818 7.92733 -0.100132 7.5275 0.29988L5.78627 2.04106C4.88981 1.1021 3.37983 1.08175 2.45481 2.00663C1.53912 2.92228 1.54087 4.42567 2.48925 5.33814C1.96702 5.86037 0.52214 7.30524 0 7.82738L2.48925 10.3166C1.54172 11.2282 1.53818 12.7315 2.45481 13.6481C3.37015 14.5635 4.87349 14.5625 5.78632 13.6137L8.25193 16.0793L11.3325 12.9987C11.6829 12.6484 11.5461 12.051 11.0782 11.8881C10.3992 11.6514 10.1902 10.7752 10.7068 10.2586C11.2179 9.74745 12.0964 9.94168 12.3363 10.6302C12.4993 11.098 13.0966 11.2347 13.4469 10.8844L15.7794 8.55186C16.1792 8.15216 16.1794 7.50274 15.7794 7.10295L15.7794 7.10295Z" transform="matrix(0.9999999 0 0 0.9999999 6.890381 0)" id="Path" fill="#FF6888" stroke="none" />
    <path d="M8.88925 8.42514C9.23959 8.07481 9.1028 7.47748 8.63495 7.31455C7.95594 7.07787 7.74692 6.20163 8.2635 5.68505C8.78394 5.16461 9.65758 5.38094 9.893 6.05659C10.056 6.52439 10.6533 6.66118 11.0036 6.31085L13.3361 3.9783C13.7358 3.57864 13.7361 2.92926 13.3361 2.52948L11.0036 0.196926C10.6533 -0.153409 10.0559 -0.0165747 9.893 0.451182C9.6574 1.12733 8.78327 1.34244 8.2635 0.822679C8.24512 0.804297 8.65127 0.411234 0 9.06251C0.917489 9.99277 2.42876 9.99044 3.34303 9.04022L5.80864 11.5058L8.88925 8.42514Z" transform="matrix(0.9999999 0 0 0.9999999 9.337891 4.5820312)" id="Path" fill="#FF515E" stroke="none" />
  </g>
</svg>