<?xml version="1.0" encoding="UTF-8"?>
<svg width="16px" height="21px" viewBox="0 0 16 21" version="1.1" xmlns="http://www.w3.org/2000/svg" xmlns:xlink="http://www.w3.org/1999/xlink">
    <title>round-webcam</title>
    <g id="Page-1" stroke="none" stroke-width="1" fill="none" fill-rule="evenodd">
        <g id="5-Файлообменник-стартовый-экран" transform="translate(-845.000000, -896.000000)" fill="#FFFFFF" fill-rule="nonzero">
            <g id="Group-4" transform="translate(443.000000, 881.000000)">
                <g id="Group-2" transform="translate(71.000000, 15.000000)">
                    <g id="round-webcam" transform="translate(331.000000, 0.000000)">
                        <path d="M13.5384615,19.7695312 L11.9624205,19.7695312 C11.5978667,19.361877 10.7063385,18.2495332 10.2024205,16.9910508 C9.49526154,17.1650801 8.76020513,17.2675781 8,17.2675781 C7.23926154,17.2675781 6.50375385,17.164998 5.79606154,16.9906816 C5.29156923,18.2470723 4.40077949,19.3608926 4.03675897,19.7695312 L2.46153846,19.7695312 L2.46153846,21 L13.5384615,21 L13.5384615,19.7695312 Z" id="Path"></path>
                        <path d="M8,16.0371094 C12.4110769,16.0371094 16,12.4490625 16,8.0390625 C16,5.2150957 14.5245538,2.69283984 12.3076923,1.26931055 L12.3076923,8.0390625 C12.3076923,10.413498 10.3750154,12.3457031 8,12.3457031 C5.62498462,12.3457031 3.69230769,10.413498 3.69230769,8.0390625 L3.69230769,1.26931055 C1.47544615,2.69283984 0,5.2150957 0,8.0390625 C0,12.4490625 3.58892308,16.0371094 8,16.0371094 Z" id="Path"></path>
                        <path d="M8,11.1152344 C9.69653333,11.1152344 11.0769231,9.73518164 11.0769231,8.0390625 L11.0769231,0.617039062 C10.1290667,0.220582031 9.09001026,0 8,0 C6.90998974,0 5.87093333,0.220582031 4.92307692,0.617039062 L4.92307692,8.0390625 C4.92307692,9.73518164 6.30346667,11.1152344 8,11.1152344 Z M8,6.19335938 C9.01801026,6.19335938 9.84615385,7.02130078 9.84615385,8.0390625 C9.84615385,9.05682422 9.01801026,9.88476562 8,9.88476562 C6.98198974,9.88476562 6.15384615,9.05682422 6.15384615,8.0390625 C6.15384615,7.02130078 6.98198974,6.19335938 8,6.19335938 Z" id="Shape"></path>
                    </g>
                </g>
            </g>
        </g>
    </g>
</svg>