<?xml version="1.0" encoding="UTF-8"?>
<svg width="18px" height="18px" viewBox="0 0 18 18" version="1.1" xmlns="http://www.w3.org/2000/svg" xmlns:xlink="http://www.w3.org/1999/xlink">
    <title>safe</title>
    <g id="Page-1" stroke="none" stroke-width="1" fill="none" fill-rule="evenodd">
        <g id="5-Файлообменник-стартовый-экран" transform="translate(-15.000000, -312.000000)" fill="#FFFFFF" fill-rule="nonzero">
            <g id="safe" transform="translate(15.000000, 312.000000)">
                <path d="M3.1875,6.75 L0.5625,6.75 C0.252,6.75 0,6.498 0,6.1875 L0,4.3125 C0,4.002 0.252,3.75 0.5625,3.75 L3.1875,3.75 C3.498,3.75 3.75,4.002 3.75,4.3125 L3.75,6.1875 C3.75,6.498 3.498,6.75 3.1875,6.75 Z" id="Path"></path>
                <path d="M3.1875,14.25 L0.5625,14.25 C0.252,14.25 0,13.998 0,13.6875 L0,11.8125 C0,11.502 0.252,11.25 0.5625,11.25 L3.1875,11.25 C3.498,11.25 3.75,11.502 3.75,11.8125 L3.75,13.6875 C3.75,13.998 3.498,14.25 3.1875,14.25 Z" id="Path"></path>
                <path d="M15.9375,0 L3.375,0 C2.23725,0 1.3125,0.92475 1.3125,2.0625 L1.3125,3 L3.1875,3 C3.91125,3 4.5,3.58875 4.5,4.3125 L4.5,6.1875 C4.5,6.91125 3.91125,7.5 3.1875,7.5 L1.3125,7.5 L1.3125,10.5 L3.1875,10.5 C3.91125,10.5 4.5,11.08875 4.5,11.8125 L4.5,13.6875 C4.5,14.41125 3.91125,15 3.1875,15 L1.3125,15 L1.3125,15.9375 C1.3125,17.07525 2.23725,18 3.375,18 L15.9375,18 C17.07525,18 18,17.07525 18,15.9375 L18,2.0625 C18,0.92475 17.07525,0 15.9375,0 Z M13.68225,12.183 C12.83325,13.032 11.703,13.5 10.5,13.5 C9.297,13.5 8.16675,13.032 7.31775,12.183 C6.468,11.33325 6,10.203 6,9 C6,7.797 6.468,6.66675 7.31775,5.817 C8.16675,4.968 9.297,4.5 10.5,4.5 C11.703,4.5 12.83325,4.968 13.68225,5.817 C14.532,6.66675 15,7.797 15,9 C15,10.203 14.532,11.33325 13.68225,12.183 Z M13.78125,8.53125 L12.69975,8.53125 C12.6435,8.2605 12.5385,8.00475 12.39,7.773 L13.152,7.011 C13.335,6.828 13.335,6.531 13.152,6.348 C12.969,6.165 12.672,6.165 12.489,6.348 L11.727,7.11 C11.49525,6.96525 11.23725,6.867 10.96875,6.8145 L10.96875,5.71875 C10.96875,5.46 10.75875,5.25 10.5,5.25 C10.24125,5.25 10.03125,5.46 10.03125,5.71875 L10.03125,6.8145 C9.76275,6.867 9.504,6.96525 9.273,7.11 L8.511,6.348 C8.328,6.165 8.031,6.165 7.848,6.348 C7.665,6.531 7.665,6.828 7.848,7.011 L8.61,7.773 C8.4615,8.00475 8.35575,8.2605 8.30025,8.53125 L7.21875,8.53125 C6.96,8.53125 6.75,8.74125 6.75,9 C6.75,9.25875 6.96,9.46875 7.21875,9.46875 L8.2995,9.46875 C8.35575,9.7395 8.46075,9.996 8.60925,10.22775 L7.848,10.98975 C7.665,11.17275 7.665,11.46975 7.848,11.65275 C7.9395,11.74425 8.0595,11.79 8.1795,11.79 C8.2995,11.79 8.4195,11.74425 8.511,11.65275 L9.26775,10.89525 C9.50025,11.0475 9.75975,11.15475 10.03125,11.21325 L10.03125,12.28125 C10.03125,12.54 10.24125,12.75 10.5,12.75 C10.75875,12.75 10.96875,12.54 10.96875,12.28125 L10.96875,11.21325 C11.24025,11.15475 11.49975,11.04675 11.73225,10.89525 L12.489,11.65275 C12.5805,11.74425 12.7005,11.79 12.8205,11.79 C12.9405,11.79 13.0605,11.74425 13.152,11.65275 C13.335,11.46975 13.335,11.17275 13.152,10.98975 L12.39075,10.22775 C12.53925,9.996 12.645,9.7395 12.7005,9.46875 L13.78125,9.46875 C14.04,9.46875 14.25,9.25875 14.25,9 C14.25,8.74125 14.04,8.53125 13.78125,8.53125 L13.78125,8.53125 Z" id="Shape"></path>
            </g>
        </g>
    </g>
</svg>