<?xml version="1.0" encoding="UTF-8"?>
<svg width="19px" height="19px" viewBox="0 0 19 19" version="1.1" xmlns="http://www.w3.org/2000/svg" xmlns:xlink="http://www.w3.org/1999/xlink">
    <title>send</title>
    <g id="Page-1" stroke="none" stroke-width="1" fill="none" fill-rule="evenodd">
        <g id="21-Ñ‡Ğ°Ñ‚" transform="translate(-700.000000, -872.000000)" fill="#DCDCDC" fill-rule="nonzero">
            <g id="send" transform="translate(709.500000, 881.500000) scale(-1, 1) translate(-709.500000, -881.500000) translate(700.000000, 872.000000)">
                <path d="M17.9770885,7.66192887 L2.87466872,0.231577406 C1.87986626,-0.258646444 0.682592593,0.163884937 0.200399177,1.17533682 C-0.0454670782,1.6910795 -0.0660308642,2.28830753 0.143751029,2.82030753 L2.50303498,8.81516527 L18.989249,8.81516527 C18.8156687,8.30943933 18.4515802,7.8945795 17.9770885,7.66192887 Z" id="Path"></path>
                <path d="M2.50303498,10.1719163 L0.143751029,16.1681255 C-0.265648148,17.2149937 0.237148148,18.4011025 1.26678395,18.8173933 C1.49990535,18.9116381 1.74839095,18.9606088 1.99926132,18.9617218 C2.30240123,18.9617218 2.60163169,18.8921611 2.87462963,18.7582071 L17.9770494,11.3251527 C18.4515412,11.0924623 18.8156687,10.6776025 18.9892099,10.1719163 L2.50303498,10.1719163 L2.50303498,10.1719163 Z" id="Path"></path>
            </g>
        </g>
    </g>
</svg>