<?xml version="1.0" encoding="UTF-8"?>
<svg width="14px" height="18px" viewBox="0 0 14 18" version="1.1" xmlns="http://www.w3.org/2000/svg" xmlns:xlink="http://www.w3.org/1999/xlink">
    <title>file-4</title>
    <g id="Page-1" stroke="none" stroke-width="1" fill="none" fill-rule="evenodd">
        <g id="5-Файлообменник-стартовый-экран" transform="translate(-18.000000, -463.000000)" fill-rule="nonzero">
            <g id="file-4" transform="translate(18.000000, 463.000000)">
                <path d="M8.55639392,17.5982232 L12.7769721,17.5982232 C13.377854,17.5982232 13.8655561,17.1071012 13.8655561,16.502001 L13.8655561,2.24640796 L13.8655561,1.09626366 C13.8655561,0.491142699 13.377854,0 12.7769721,0 L6.94100931,0 L5.80818226,0 L5.80818226,0.362658111 C5.81227732,0.399960088 5.81435571,0.439334398 5.81435571,0.478708707 L5.81435571,2.86810758 L5.81435571,4.27563552 C5.81435571,5.12736399 5.12704557,5.8195229 4.28128368,5.8195229 L2.8644782,5.8195229 L0.491817736,5.8195229 C0.460950514,5.8195229 0.428025478,5.81745057 0.397158256,5.81537824 L0.0185203332,5.81537824 L0.0185203332,16.502001 C0.0185203332,17.1071012 0.50622244,17.5982232 1.10710436,17.5982232 L2.30063694,17.5982232 L6.94100931,17.5982232 L8.55639392,17.5982232 Z" id="Shape" fill="#FFFFFF"></path>
                <path d="M0.491817736,4.40370564 L3.47359138,4.40370564 C3.47564919,4.40370564 3.47976482,4.40370564 3.48182264,4.40370564 C3.97981382,4.39956097 4.38314552,3.99338389 4.38726115,3.49187953 C4.38726115,3.4898072 4.38726115,3.48566253 4.38726115,3.4835902 L4.38726115,0.478708707 C4.38726115,0.20101621 4.16090152,0.0165786565 3.92633121,0.0165786565 C3.8131514,0.0165786565 3.69997158,0.0580252978 3.6053121,0.153352573 L0.166682999,3.61621945 C-0.121411073,3.90634594 0.0823125919,4.40370564 0.491817736,4.40370564 Z" id="Path" fill="#FFFFFF"></path>
                <path d="M4.45052086,9.98501815 C4.60579562,9.83740737 4.85347911,9.84720077 4.99909292,10.0047469 L7.16929882,12.3670872 L7.16929882,6.74666458 C7.16929882,6.53007412 7.3440354,6.35294118 7.55769566,6.35294118 C7.77135595,6.35294118 7.94609252,6.53007412 7.94609252,6.74666458 L7.94609252,12.371913 L10.1162984,10.0095726 C10.2619122,9.85216845 10.5095957,9.84223309 10.6648705,9.98984387 C10.8202852,10.1375966 10.8299461,10.3885349 10.6843323,10.5460811 L7.83926238,13.6417915 C7.76645547,13.7204226 7.6645258,13.7647059 7.55279522,13.7647059 C7.4412046,13.7647059 7.3440354,13.7204226 7.26646803,13.6417915 L4.42139809,10.5460811 C4.28544522,10.3835673 4.29510613,10.1375966 4.45052086,9.98501815 Z" id="Path" stroke="#283ED3" stroke-width="0.5" fill="#283FD3" transform="translate(7.556982, 10.058824) scale(1, -1) translate(-7.556982, -10.058824) "></path>
            </g>
        </g>
    </g>
</svg>