<svg width="14" height="18" viewBox="0 0 14 18" fill="none" xmlns="http://www.w3.org/2000/svg">
<path d="M0.492231 4.40373H3.474C3.47606 4.40373 3.48018 4.40373 3.48224 4.40373C3.98023 4.39958 4.38356 3.99341 4.38767 3.4919C4.38767 3.48983 4.38767 3.48569 4.38767 3.48361V0.478732C4.38767 0.201039 4.16131 0.0166016 3.92674 0.0166016C3.81356 0.0166016 3.70038 0.0580482 3.60573 0.153375L0.167096 3.61624C-0.120998 3.90637 0.0827258 4.40373 0.492231 4.40373Z" fill="white"/>
<path fill-rule="evenodd" clip-rule="evenodd" d="M12.777 17.5982H8.55643H6.94104H2.30067H1.10714C0.506257 17.5982 0.0185547 17.1071 0.0185547 16.502V5.81538H0.397193C0.42806 5.81745 0.460985 5.81952 0.491852 5.81952H2.86451H4.28132C5.12708 5.81952 5.81439 5.12736 5.81439 4.27564V2.86811V0.478709C5.81439 0.439334 5.81231 0.39996 5.80822 0.362658V0H6.94104H12.777C13.3779 0 13.8656 0.491143 13.8656 1.09626V2.24641V16.502C13.8656 17.1071 13.3779 17.5982 12.777 17.5982ZM4.99905 10.1128C4.85344 10.2704 4.60575 10.2802 4.45048 10.1326C4.29507 9.97999 4.2854 9.73402 4.42136 9.57151L7.26643 6.4758C7.34399 6.39717 7.44116 6.35288 7.55275 6.35288C7.66448 6.35288 7.76641 6.39717 7.83922 6.4758L10.6843 9.57151C10.8299 9.72905 10.8202 9.97999 10.6648 10.1277C10.5096 10.2754 10.2619 10.2654 10.1163 10.108L7.94605 7.74568V13.3709C7.94605 13.5875 7.77132 13.7646 7.55765 13.7646C7.34399 13.7646 7.16926 13.5875 7.16926 13.3709V7.7505L4.99905 10.1128Z" fill="white"/>
</svg>
