<?xml version="1.0" encoding="UTF-8"?>
<svg width="19px" height="20px" viewBox="0 0 19 20" version="1.1" xmlns="http://www.w3.org/2000/svg" xmlns:xlink="http://www.w3.org/1999/xlink">
    <title>shopping-cart</title>
    <g id="Page-1" stroke="none" stroke-width="1" fill="none" fill-rule="evenodd">
        <g id="5-Файлообменник-стартовый-экран" transform="translate(-1154.000000, -896.000000)" fill="#FFFFFF" fill-rule="nonzero">
            <g id="Group-4" transform="translate(443.000000, 881.000000)">
                <g id="Group-2" transform="translate(71.000000, 15.000000)">
                    <g id="shopping-cart" transform="translate(640.000000, 0.000000)">
                        <ellipse id="Oval" cx="7.57422087" cy="17.6184507" rx="2.31394175" ry="2.35568075"></ellipse>
                        <path d="M14.3271529,15.2628169 L14.3271529,15.2628169 C13.0492184,15.2628169 12.0132112,16.3175117 12.0132112,17.6184977 C12.0132112,18.9194836 13.0492184,19.9741784 14.3271529,19.9741784 C15.6050874,19.9741784 16.6410947,18.9194836 16.6410947,17.6184977 C16.6410947,16.3175117 15.6050874,15.2628169 14.3271529,15.2628169 Z" id="Path"></path>
                        <path d="M18.2702985,12.8590141 L6.20474515,12.8590141 L5.96862864,11.4648357 L15.8855218,11.4648357 C16.1772549,11.4657277 16.4397039,11.2844131 16.5466481,11.0081221 L18.9078131,4.95065728 C19.0512816,4.58014085 18.8724879,4.1613615 18.5085364,4.01535211 C18.4251578,3.98187793 18.3362913,3.96483568 18.2466869,3.96511737 L4.74082282,3.96511737 L4.1741432,0.647934272 C4.11594417,0.297183099 3.81517233,0.0420187793 3.46579369,0.0469237593 L0.750453883,0.0469237593 C0.359247573,0.0469237593 0.0421043689,0.369859155 0.0421043689,0.768122066 C0.0421043689,1.16638498 0.359247573,1.48924883 0.750453883,1.48924883 L2.87550243,1.48924883 L4.90610437,13.7003286 C4.9643034,14.0510798 5.26507524,14.3062441 5.61445388,14.3013392 L18.2702985,14.3013392 C18.6615049,14.3013392 18.9786481,13.9784038 18.9786481,13.5801408 C18.9786481,13.1818779 18.6615049,12.8590141 18.2702985,12.8590141 Z" id="Path"></path>
                    </g>
                </g>
            </g>
        </g>
    </g>
</svg>