<?xml version="1.0" encoding="utf-8"?>
<svg width="30px" height="30px" viewBox="0 0 30 30" version="1.1" xmlns:xlink="http://www.w3.org/1999/xlink" xmlns="http://www.w3.org/2000/svg">
  <g id="skype">
    <path d="M27.9708 17.4592C30.0564 8.08719 21.846 -0.426808 12.204 1.20759C6.9696 -2.04081 0 1.62999 0 7.85799C0 9.30639 0.3996 10.6624 1.0944 11.8312C-0.8436 21.2248 7.434 29.6164 17.0676 27.8704C18.1908 28.4644 19.4724 28.8028 20.8344 28.8028C26.7732 28.8028 30.576 22.6432 27.9708 17.4592ZM14.5152 23.8576C11.7048 23.8576 8.9592 23.1796 7.3344 20.8588C4.9128 17.434 8.106 15.7204 9.6732 17.026C10.9812 18.1288 10.5708 20.7964 14.412 20.7964C16.1052 20.7964 18.1956 20.074 18.1956 18.3952C18.1956 15.0172 10.7016 16.6156 7.722 12.9328C6.6276 11.584 6.4212 9.20439 7.7652 7.47879C10.1076 4.46439 16.9812 4.28079 19.9368 6.55719C22.6656 8.66919 21.9288 11.4724 19.7268 11.4724C17.0784 11.4724 18.4704 8.00679 14.1948 8.00679C11.0952 8.00679 9.876 10.2112 12.0588 11.284C14.964 12.7264 22.5588 12.2764 22.5588 18.0076C22.5492 22.036 18.6624 23.8576 14.5152 23.8576L14.5152 23.8576Z" transform="translate(1.7763568E-15 1.1972076)" id="Shape" fill="#03A9F4" stroke="none" />
  </g>
</svg>