<?xml version="1.0" encoding="utf-8"?>
<svg width="23px" height="23px" viewBox="0 0 23 23" version="1.1" xmlns:xlink="http://www.w3.org/1999/xlink" xmlns="http://www.w3.org/2000/svg">
  <g id="Group-4">
    <path d="M4.75762 0L18.2424 0Q18.3592 0 18.4758 0.00573076Q18.5925 0.0114615 18.7087 0.0229092Q18.8249 0.034357 18.9405 0.0514941Q19.056 0.0686311 19.1705 0.0914163Q19.2851 0.114202 19.3984 0.14258Q19.5117 0.170958 19.6234 0.204862Q19.7352 0.238765 19.8452 0.278111Q19.9551 0.317458 20.063 0.362152Q20.1709 0.406847 20.2765 0.456782Q20.3821 0.506718 20.4851 0.561774Q20.5881 0.61683 20.6883 0.676873Q20.7885 0.736917 20.8856 0.801804Q20.9827 0.86669 21.0765 0.936264Q21.1703 1.00584 21.2606 1.07993Q21.3509 1.15402 21.4374 1.23246Q21.5239 1.31089 21.6065 1.39347Q21.6891 1.47606 21.7675 1.5626Q21.846 1.64914 21.9201 1.73942Q21.9942 1.8297 22.0637 1.92351Q22.1333 2.01732 22.1982 2.11443Q22.2631 2.21154 22.3231 2.31171Q22.3832 2.41189 22.4382 2.51489Q22.4933 2.6179 22.5432 2.72348Q22.5931 2.82906 22.6378 2.93696Q22.6825 3.04486 22.7219 3.15483Q22.7612 3.26479 22.7951 3.37656Q22.829 3.48832 22.8574 3.60161Q22.8858 3.71491 22.9086 3.82945Q22.9314 3.944 22.9485 4.05953Q22.9656 4.17506 22.9771 4.29129Q22.9885 4.40752 22.9943 4.52418Q23 4.64083 23 4.75762L23 18.2424Q23 18.3592 22.9943 18.4758Q22.9885 18.5925 22.9771 18.7087Q22.9656 18.8249 22.9485 18.9405Q22.9314 19.056 22.9086 19.1705Q22.8858 19.2851 22.8574 19.3984Q22.829 19.5117 22.7951 19.6234Q22.7612 19.7352 22.7219 19.8452Q22.6825 19.9551 22.6378 20.063Q22.5931 20.1709 22.5432 20.2765Q22.4933 20.3821 22.4382 20.4851Q22.3832 20.5881 22.3231 20.6883Q22.2631 20.7885 22.1982 20.8856Q22.1333 20.9827 22.0637 21.0765Q21.9942 21.1703 21.9201 21.2606Q21.846 21.3509 21.7675 21.4374Q21.6891 21.5239 21.6065 21.6065Q21.5239 21.6891 21.4374 21.7675Q21.3509 21.846 21.2606 21.9201Q21.1703 21.9942 21.0765 22.0637Q20.9827 22.1333 20.8856 22.1982Q20.7885 22.2631 20.6883 22.3231Q20.5881 22.3832 20.4851 22.4382Q20.3821 22.4933 20.2765 22.5432Q20.1709 22.5931 20.063 22.6378Q19.9551 22.6825 19.8452 22.7219Q19.7352 22.7612 19.6234 22.7951Q19.5117 22.829 19.3984 22.8574Q19.2851 22.8858 19.1705 22.9086Q19.056 22.9314 18.9405 22.9485Q18.8249 22.9656 18.7087 22.9771Q18.5925 22.9885 18.4758 22.9943Q18.3592 23 18.2424 23L4.75762 23Q4.64083 23 4.52418 22.9943Q4.40752 22.9885 4.29129 22.9771Q4.17506 22.9656 4.05953 22.9485Q3.944 22.9314 3.82945 22.9086Q3.71491 22.8858 3.60161 22.8574Q3.48832 22.829 3.37656 22.7951Q3.26479 22.7612 3.15483 22.7219Q3.04486 22.6825 2.93696 22.6378Q2.82906 22.5931 2.72348 22.5432Q2.6179 22.4933 2.51489 22.4382Q2.41189 22.3832 2.31171 22.3231Q2.21154 22.2631 2.11443 22.1982Q2.01732 22.1333 1.92351 22.0637Q1.8297 21.9942 1.73942 21.9201Q1.64914 21.846 1.5626 21.7675Q1.47606 21.6891 1.39347 21.6065Q1.31089 21.5239 1.23246 21.4374Q1.15402 21.3509 1.07993 21.2606Q1.00584 21.1703 0.936264 21.0765Q0.86669 20.9827 0.801804 20.8856Q0.736917 20.7885 0.676873 20.6883Q0.61683 20.5881 0.561774 20.4851Q0.506718 20.3821 0.456783 20.2765Q0.406847 20.1709 0.362152 20.063Q0.317458 19.9551 0.278111 19.8452Q0.238765 19.7352 0.204862 19.6234Q0.170958 19.5117 0.14258 19.3984Q0.114202 19.2851 0.0914163 19.1705Q0.0686311 19.056 0.0514941 18.9405Q0.034357 18.8249 0.0229092 18.7087Q0.0114615 18.5925 0.00573076 18.4758Q0 18.3592 0 18.2424L0 4.75762Q0 4.64083 0.00573076 4.52418Q0.0114615 4.40752 0.0229092 4.29129Q0.034357 4.17506 0.0514941 4.05953Q0.0686311 3.944 0.0914163 3.82945Q0.114202 3.71491 0.14258 3.60161Q0.170958 3.48832 0.204862 3.37656Q0.238765 3.26479 0.278111 3.15483Q0.317458 3.04486 0.362152 2.93696Q0.406847 2.82906 0.456782 2.72348Q0.506718 2.6179 0.561774 2.51489Q0.61683 2.41189 0.676873 2.31171Q0.736917 2.21154 0.801804 2.11443Q0.86669 2.01732 0.936264 1.92351Q1.00584 1.8297 1.07993 1.73942Q1.15402 1.64914 1.23246 1.5626Q1.31089 1.47606 1.39347 1.39347Q1.47606 1.31089 1.5626 1.23246Q1.64914 1.15402 1.73942 1.07993Q1.8297 1.00584 1.92351 0.936264Q2.01732 0.86669 2.11443 0.801804Q2.21154 0.736917 2.31171 0.676873Q2.41189 0.61683 2.51489 0.561774Q2.6179 0.506718 2.72348 0.456783Q2.82906 0.406847 2.93696 0.362152Q3.04486 0.317458 3.15483 0.278111Q3.26479 0.238765 3.37656 0.204862Q3.48832 0.170958 3.60161 0.14258Q3.71491 0.114202 3.82945 0.0914163Q3.944 0.0686311 4.05953 0.0514941Q4.17506 0.034357 4.29129 0.0229092Q4.40752 0.0114615 4.52418 0.00573076Q4.64083 0 4.75762 0Z" id="Rectangle" fill="#531755" fill-rule="evenodd" stroke="none" />
    <g id="slack" transform="translate(3.1723633 3.1723633)">
      <path d="M1.75962 0C0.788027 0 0 0.820757 0 1.83271L0 6.41702C0 7.42897 0.788027 8.24973 1.75962 8.24973C2.73122 8.24973 3.51925 7.42897 3.51925 6.41702L3.51925 1.83271C3.51855 0.820757 2.73052 0 1.75962 0Z" transform="translate(4.411377 9.197754)" id="Path" fill="#E91E63" stroke="none" />
      <path d="M0 1.83416C0 2.84684 0.788725 3.66832 1.76102 3.66832C2.73332 3.66832 3.52204 2.84684 3.52204 1.83416L3.52204 0L1.76242 0C1.76172 0 1.76172 0 1.76102 0C0.788725 0 3.99569e-16 0.821484 0 1.83416Z" transform="translate(0.011962891 9.195801)" id="Path" fill="#E91E63" stroke="none" />
      <path d="M1.76311 0C1.76242 0 1.76172 0 1.76102 0C0.788725 0 0 0.821484 0 1.83416C0 2.84684 0.788725 3.66832 1.76102 3.66832L3.52064 3.66832L3.52064 1.83416C3.52064 1.83344 3.52064 1.83198 3.52064 1.83053C3.51995 0.819303 2.73332 8.00801e-17 1.76311 0Z" transform="translate(4.409912 0)" id="Path" fill="#00BCD4" stroke="none" />
      <path d="M1.76102 3.66832L6.1709 3.66832C7.1432 3.66832 7.93192 2.84684 7.93192 1.83416C7.93192 0.821484 7.1432 0 6.1709 0L1.76102 0C0.788725 0 0 0.821484 0 1.83416C0 2.84684 0.788725 3.66832 1.76102 3.66832Z" transform="translate(0 4.5981445)" id="Path" fill="#00BCD4" stroke="none" />
      <path d="M1.75753 0C0.786631 0 0 0.819303 0 1.83053L0 1.83416L0 3.66832L1.75962 3.66832C2.73192 3.66832 3.52064 2.84684 3.52064 1.83416C3.52064 0.821484 2.73192 1.29137e-15 1.75962 1.29137e-15C1.75893 1.29137e-15 1.75823 1.29137e-15 1.75753 1.29137e-15L1.75753 0Z" transform="translate(13.2178955 4.597168)" id="Path" fill="#4CAF50" stroke="none" />
      <path d="M1.23987e-15 1.83271L1.23987e-15 6.43084C1.23987e-15 7.44279 0.788027 8.26354 1.75962 8.26354C2.73122 8.26354 3.51925 7.44279 3.51925 6.43084L3.51925 1.83271C3.51925 0.820757 2.73122 0 1.75962 0C0.788027 0 0 0.820757 0 1.83271L1.23987e-15 1.83271Z" transform="translate(8.821899 0.0014648438)" id="Path" fill="#4CAF50" stroke="none" />
      <g id="Group" transform="translate(8.37439 8.724609)">
        <path d="M3.51925 1.83271C3.51925 0.820757 2.73122 0 1.75962 0L0 0L0 1.83416C0.000697987 2.84539 0.788027 3.66542 1.75962 3.66542C2.73122 3.66542 3.51925 2.84466 3.51925 1.83271Z" transform="translate(0.44671148 5.056123)" id="Path" fill="#FF9800" stroke="none" />
        <path d="M6.1709 0L1.76102 0C0.788725 0 0 0.821484 0 1.83416C0 2.84684 0.788725 3.66832 1.76102 3.66832L6.1709 3.66832C7.1432 3.66832 7.93192 2.84684 7.93192 1.83416C7.93192 0.821484 7.1432 1.29137e-15 6.1709 1.29137e-15L6.1709 0Z" transform="translate(0.4453155 0.47180787)" id="Path" fill="#FF9800" stroke="none" />
      </g>
    </g>
  </g>
</svg>