<?xml version="1.0" encoding="UTF-8"?>
<svg width="23px" height="19px" viewBox="0 0 23 19" version="1.1" xmlns="http://www.w3.org/2000/svg" xmlns:xlink="http://www.w3.org/1999/xlink">
    <title>sms</title>
    <g id="Page-1" stroke="none" stroke-width="1" fill="none" fill-rule="evenodd">
        <g id="5-Файлообменник-стартовый-экран" transform="translate(-742.000000, -898.000000)" fill="#FFFFFF" fill-rule="nonzero">
            <g id="Group-4" transform="translate(443.000000, 881.000000)">
                <g id="Group-2" transform="translate(71.000000, 15.000000)">
                    <g id="sms" transform="translate(228.000000, 2.000000)">
                        <path d="M21.2082258,5.0692 L20.5835161,5.0692 L20.5835161,12.103 C20.5835161,13.19816 19.9610323,14.18844 18.7130968,14.18844 L6.48674194,14.18844 L6.48674194,14.52284 C6.48674194,15.49108 7.56180645,16.46844 8.66580645,16.46844 L18.0134516,16.46844 L21.5895806,18.62228 L21.0709677,16.46844 L21.2082258,16.46844 C22.3114839,16.46844 22.8093226,15.49336 22.8093226,14.52284 L22.8093226,6.73892 C22.8093226,5.77068 22.3114839,5.0692 21.2082258,5.0692 Z" id="Path"></path>
                        <path d="M16.8879355,0.1824 L2.68729032,0.1824 C1.43787097,0.1824 0,1.31936 0,2.41528 L0,11.23128 C0,12.24056 1.21825806,12.9694 2.38680645,13.08188 L1.62632258,16.03904 L6.49935484,13.1024 L16.8879355,13.1024 C18.1373548,13.1024 19.2903226,12.32644 19.2903226,11.23128 L19.2903226,4.09868 L19.2903226,2.41528 C19.2903226,1.31936 18.1366129,0.1824 16.8879355,0.1824 Z M4.85374194,7.62432 C4.14519355,7.62432 3.57093548,7.03608 3.57093548,6.31028 C3.57093548,5.58448 4.14519355,4.99624 4.85374194,4.99624 C5.56154839,4.99624 6.13654839,5.58448 6.13654839,6.31028 C6.13654839,7.03608 5.56154839,7.62432 4.85374194,7.62432 Z M9.64516129,7.62432 C8.9366129,7.62432 8.36235484,7.03608 8.36235484,6.31028 C8.36235484,5.58448 8.9366129,4.99624 9.64516129,4.99624 C10.3537097,4.99624 10.9279677,5.58448 10.9279677,6.31028 C10.9279677,7.03608 10.3537097,7.62432 9.64516129,7.62432 Z M14.4373226,7.62432 C13.7287742,7.62432 13.1537742,7.03608 13.1537742,6.31028 C13.1537742,5.58448 13.7287742,4.99624 14.4373226,4.99624 C15.1443871,4.99624 15.720129,5.58448 15.720129,6.31028 C15.720129,7.03608 15.1443871,7.62432 14.4373226,7.62432 Z" id="Shape"></path>
                    </g>
                </g>
            </g>
        </g>
    </g>
</svg>