<?xml version="1.0" encoding="utf-8"?>
<svg width="20px" height="19px" viewBox="0 0 20 19" version="1.1" xmlns:xlink="http://www.w3.org/1999/xlink" xmlns="http://www.w3.org/2000/svg">
  <g id="speech-bubble">
    <path d="M19.3346 7.7882C19.7704 7.00549 20 6.1188 20 5.21247C20 2.33832 17.7125 0 14.9007 0C13.1596 0 11.5407 0.912359 10.6064 2.40035C9.71309 2.03005 8.73703 1.826 7.71523 1.826C3.46105 1.826 0 5.36247 0 9.70944C0 11.5944 0.661445 13.4186 1.8625 14.8461C3.0173 16.2187 4.59926 17.1451 6.33059 17.4661L7.41051 18.8422C7.48461 18.9367 7.59676 18.9916 7.71523 18.9916C7.83375 18.9916 7.94582 18.9367 8.02 18.8422L9.09988 17.4661C10.8313 17.1451 12.4131 16.2188 13.568 14.8461C14.6216 13.5939 15.2599 12.0363 15.4007 10.4002C16.3417 10.3069 17.2302 9.95105 17.9853 9.36313L18.0723 9.29647L19.21 9.46883C19.3403 9.48842 19.4712 9.43997 19.5588 9.33962C19.6464 9.23927 19.6786 9.1006 19.6446 8.97071L19.3346 7.7882ZM8.82574 16.7042C8.73016 16.7199 8.64367 16.7713 8.58309 16.8485L7.71523 17.9544L6.8473 16.8485C6.78672 16.7713 6.70023 16.7198 6.60465 16.7041C3.23031 16.1494 0.78125 13.2077 0.78125 9.70944C0.78125 5.8027 3.89184 2.62436 7.71523 2.62436C11.5386 2.62436 14.6492 5.8027 14.6492 9.70944C14.6492 13.2077 12.2001 16.1494 8.82574 16.7042ZM18.582 7.52049C18.5258 7.61389 18.5097 7.72681 18.5375 7.83271L18.7359 8.58992L18.0257 8.4823C17.9225 8.46674 17.8176 8.49384 17.7342 8.5577L17.5142 8.72611C16.9014 9.20326 16.187 9.4996 15.4295 9.59388C15.3876 6.62593 13.7325 4.04971 11.3219 2.74167C12.1211 1.53449 13.4616 0.798279 14.9007 0.798279C17.2817 0.798319 19.2188 2.77847 19.2188 5.21247C19.2188 6.02967 18.9986 6.82775 18.582 7.52049Z" transform="translate(0 0.0042310925)" id="Shape" fill="#DBBB95" stroke="none" />
    <path d="M6.39359 0C5.46727 0 4.85297 0.500985 4.47773 0.978939C4.10258 0.500985 3.48828 0 2.56191 0C1.8357 0 1.17234 0.305517 0.693945 0.860349C0.246445 1.37934 0 2.0704 0 2.80621C0 3.60062 0.294648 4.32881 0.927305 5.09783C1.22398 5.45847 2.10168 6.16678 2.78578 6.6975C3.12273 6.95891 3.48863 7.23557 3.78965 7.45662C4.29883 7.83055 4.33738 7.85275 4.4777 7.85275C4.61801 7.85275 4.65656 7.83051 5.16578 7.45662C5.46676 7.23561 5.83266 6.95891 6.16961 6.6975C6.85371 6.16682 7.73141 5.45847 8.02809 5.09787C8.66074 4.32881 8.95543 3.60062 8.95543 2.80621C8.95543 2.0704 8.70898 1.37934 8.26149 0.860309C7.78316 0.305557 7.11977 1.13448e-15 6.39359 1.13448e-15L6.39359 0ZM7.43016 4.58415C7.03793 5.0609 5.10504 6.53085 4.47773 6.97803C3.85039 6.53085 1.91746 5.06083 1.52531 4.58419C1.0177 3.96713 0.78125 3.40216 0.78125 2.80625C0.78125 2.26487 0.958398 1.76125 1.28012 1.38816C1.60809 1.00784 2.06328 0.798399 2.56191 0.798399C3.11937 0.798399 3.58824 1.06699 3.95551 1.59676C4.01871 1.68793 4.07855 1.7872 4.13348 1.89182C4.20145 2.02146 4.33375 2.10237 4.47773 2.10241L4.47777 2.10241C4.62172 2.10241 4.75398 2.02154 4.82203 1.89194C4.87707 1.78704 4.93695 1.68773 5.00004 1.5968C5.3673 1.06703 5.83621 0.798439 6.39367 0.798439C6.8923 0.798439 7.34754 1.00792 7.67547 1.3882C7.99715 1.76129 8.17434 2.26491 8.17434 2.80629C8.17426 3.40212 7.93781 3.96705 7.43016 4.58415L7.43016 4.58415Z" transform="translate(3.2374609 6.486624)" id="Shape" fill="#DBBB95" stroke="none" />
  </g>
</svg>