<?xml version="1.0" encoding="utf-8"?>
<svg width="20px" height="19px" viewBox="0 0 20 19" version="1.1" xmlns:xlink="http://www.w3.org/1999/xlink" xmlns="http://www.w3.org/2000/svg">
  <path d="M19.9324 7.19138C19.8637 6.98079 19.6807 6.82732 19.4604 6.79552L13.2724 5.90117L10.5049 0.324202C10.4065 0.125671 10.2032 0 9.98058 0C9.75797 0 9.55469 0.125671 9.45617 0.324202L6.68861 5.90117L0.500697 6.79552C0.280463 6.82732 0.0974218 6.98079 0.0286498 7.19134C-0.0401611 7.40193 0.0172268 7.63308 0.176642 7.7876L4.65415 12.1287L3.5973 18.2584C3.55964 18.4766 3.64986 18.6971 3.82994 18.8273C3.93181 18.9009 4.05247 18.9383 4.17372 18.9383C4.26682 18.9383 4.36023 18.9163 4.44577 18.8715L9.98054 15.9774L15.5151 18.8715C15.7122 18.9745 15.9509 18.9574 16.131 18.8273C16.311 18.6971 16.4013 18.4766 16.3637 18.2583L15.3065 12.1287L19.7845 7.78756C19.9439 7.63308 20.0013 7.40193 19.9324 7.19138Z" id="Path" fill="#8C8C8C" stroke="none" />
</svg>