<?xml version="1.0" encoding="utf-8"?>
<svg width="18px" height="17px" viewBox="0 0 18 17" version="1.1" xmlns:xlink="http://www.w3.org/1999/xlink" xmlns="http://www.w3.org/2000/svg">
  <g id="star-2">
    <path d="M4.02868 16.9533C3.83147 16.9533 3.63564 16.8928 3.46851 16.7741C3.15719 16.5523 3.01176 16.1711 3.09649 15.8033L4.25445 10.7901L0.327385 7.40524C0.0387194 7.15757 -0.0715558 6.76534 0.0469592 6.40645C0.165474 6.04823 0.487923 5.79462 0.869698 5.75993L6.06568 5.2963L8.11999 0.571337C8.27146 0.224189 8.61643 0 8.99972 0C9.383 0 9.72797 0.224189 9.87945 0.570527L11.9338 5.2963L17.1289 5.75993C17.5115 5.79381 17.834 6.04823 17.9525 6.40645C18.071 6.76466 17.9614 7.15757 17.6727 7.40524L13.7457 10.7894L14.9036 15.8025C14.9885 16.1711 14.8429 16.5523 14.5317 16.7734C14.2212 16.9945 13.8072 17.0115 13.4802 16.8183L8.99972 14.1868L4.51922 16.8198C4.36774 16.9082 4.19897 16.9533 4.02868 16.9533ZM8.99972 13.0531C9.17001 13.0531 9.33865 13.0981 9.49026 13.1865L13.7188 15.6721L12.6259 10.9404C12.5479 10.6037 12.6642 10.2521 12.929 10.0242L16.637 6.8281L11.7312 6.39025C11.378 6.35853 11.0742 6.14028 10.9362 5.8204L8.99972 1.36146L7.06091 5.82107C6.9244 6.1388 6.62063 6.35705 6.26824 6.38877L1.36175 6.82662L5.06963 10.0228C5.33523 10.2513 5.45141 10.6022 5.37272 10.9398L4.28068 15.6713L8.50918 13.1865C8.66065 13.0981 8.82943 13.0531 8.99972 13.0531Z" transform="translate(7.392629E-06 0.017006496)" id="Shape" fill="#DBBB95" stroke="none" />
  </g>
</svg>