<?xml version="1.0" encoding="UTF-8"?>
<svg width="17px" height="19px" viewBox="0 0 17 19" version="1.1" xmlns="http://www.w3.org/2000/svg" xmlns:xlink="http://www.w3.org/1999/xlink">
    <title>garbage</title>
    <g id="Page-1" stroke="none" stroke-width="1" fill="none" fill-rule="evenodd">
        <g id="5-Файлообменник-стартовый-экран" transform="translate(-17.000000, -666.000000)" fill="#FFFFFF" fill-rule="nonzero">
            <g id="garbage" transform="translate(17.250000, 666.000000)">
                <path d="M15.2678571,1.90677966 L10.7537143,1.90677966 C10.7183571,1.5095339 10.5946071,0.839618644 10.1709643,0.409639831 C9.90289286,0.137923729 9.56282143,0 9.16039286,0 L5.94642857,0 C5.544,0 5.20392857,0.137923729 4.93585714,0.409639831 C4.51221429,0.839618644 4.38846429,1.5095339 4.35310714,1.90677966 L0.482142857,1.90677966 C0.304714286,1.90677966 0.160714286,2.04883475 0.160714286,2.22457627 C0.160714286,2.4003178 0.304714286,2.54237288 0.482142857,2.54237288 L1.13817857,2.54237288 L1.75371429,17.1676907 C1.76560714,17.7149364 2.11017857,18.75 3.33128571,18.75 L12.4187143,18.75 C13.6398214,18.75 13.9843929,17.7149364 13.9959643,17.1743644 L14.6118214,2.54237288 L15.2678571,2.54237288 C15.4452857,2.54237288 15.5892857,2.4003178 15.5892857,2.22457627 C15.5892857,2.04883475 15.4452857,1.90677966 15.2678571,1.90677966 Z M5.08928571,15.8898305 C5.08928571,16.065572 4.92128571,16.2076271 4.71428571,16.2076271 C4.50728571,16.2076271 4.33928571,16.065572 4.33928571,15.8898305 L4.33928571,5.40254237 C4.33928571,5.22680085 4.50728571,5.08474576 4.71428571,5.08474576 C4.92128571,5.08474576 5.08928571,5.22680085 5.08928571,5.40254237 L5.08928571,15.8898305 Z M8.30357143,15.8898305 C8.30357143,16.065572 8.13557143,16.2076271 7.92857143,16.2076271 C7.72157143,16.2076271 7.55357143,16.065572 7.55357143,15.8898305 L7.55357143,5.40254237 C7.55357143,5.22680085 7.72157143,5.08474576 7.92857143,5.08474576 C8.13557143,5.08474576 8.30357143,5.22680085 8.30357143,5.40254237 L8.30357143,15.8898305 Z M11.5178571,15.8898305 C11.5178571,16.065572 11.3498571,16.2076271 11.1428571,16.2076271 C10.9358571,16.2076271 10.7678571,16.065572 10.7678571,15.8898305 L10.7678571,5.40254237 C10.7678571,5.22680085 10.9358571,5.08474576 11.1428571,5.08474576 C11.3498571,5.08474576 11.5178571,5.22680085 11.5178571,5.40254237 L11.5178571,15.8898305 Z M6.04150586,1.28446716 C6.14720613,1.19859216 6.27909552,1.15677966 6.44448812,1.15677966 L8.80363308,1.15677966 C8.96902568,1.15677966 9.10091508,1.19859216 9.20661534,1.28446716 C9.3965455,1.43877966 9.47275351,1.71027966 9.49917857,1.90677966 L5.74917857,1.90677966 C5.77560364,1.71027966 5.85181164,1.43877966 6.04150586,1.28446716 Z" id="Shape"></path>
            </g>
        </g>
    </g>
</svg>