<?xml version="1.0" encoding="UTF-8"?>
<svg width="12px" height="12px" viewBox="0 0 12 12" version="1.1" xmlns="http://www.w3.org/2000/svg" xmlns:xlink="http://www.w3.org/1999/xlink">
    <title>Group 11</title>
    <g id="Page-1" stroke="none" stroke-width="1" fill="none" fill-rule="evenodd">
        <g id="6,9Мои-папки-сортировка" transform="translate(-852.000000, -231.000000)" fill="#616161" fill-rule="nonzero">
            <g id="Group-12" transform="translate(658.000000, 210.000000)">
                <g id="Group-11" transform="translate(194.000000, 21.000000)">
                    <g id="right-arrow-3" transform="translate(0.000000, 5.133333)">
                        <path d="M11.8625156,2.59843656 L9.41278125,0.137772043 C9.22928906,-0.0465311828 8.9325,-0.0458451613 8.74985156,0.139380645 C8.56722656,0.324582796 8.56792969,0.624137634 8.75142187,0.808464516 L10.3958906,2.46021505 L0.46875,2.46021505 C0.209859375,2.46021505 0,2.67203011 0,2.93333333 C0,3.19463656 0.209859375,3.40645161 0.46875,3.40645161 L10.3958672,3.40645161 L8.75144531,5.05820215 C8.56795312,5.24252903 8.56725,5.54208387 8.749875,5.72728602 C8.93252344,5.91253548 9.22933594,5.91317419 9.41280469,5.72889462 L11.8621172,3.26867957 C12.046125,3.08328817 12.0455391,2.78276344 11.8625156,2.59843656 Z" id="Path"></path>
                    </g>
                    <g id="right-arrow-3" transform="translate(6.000000, 3.000000) scale(-1, 1) translate(-6.000000, -3.000000) ">
                        <path d="M11.8625156,2.59843656 L9.41278125,0.137772043 C9.22928906,-0.0465311828 8.9325,-0.0458451613 8.74985156,0.139380645 C8.56722656,0.324582796 8.56792969,0.624137634 8.75142187,0.808464516 L10.3958906,2.46021505 L0.46875,2.46021505 C0.209859375,2.46021505 0,2.67203011 0,2.93333333 C0,3.19463656 0.209859375,3.40645161 0.46875,3.40645161 L10.3958672,3.40645161 L8.75144531,5.05820215 C8.56795312,5.24252903 8.56725,5.54208387 8.749875,5.72728602 C8.93252344,5.91253548 9.22933594,5.91317419 9.41280469,5.72889462 L11.8621172,3.26867957 C12.046125,3.08328817 12.0455391,2.78276344 11.8625156,2.59843656 Z" id="Path"></path>
                    </g>
                </g>
            </g>
        </g>
    </g>
</svg>