<?xml version="1.0" encoding="utf-8"?>
<svg width="21px" height="16px" viewBox="0 0 21 16" version="1.1" xmlns:xlink="http://www.w3.org/1999/xlink" xmlns="http://www.w3.org/2000/svg">
  <g id="video-player">
    <path d="M4.37714 2.45008L0.536625 0.0533398C0.429091 -0.0134265 0.292927 -0.0178776 0.180853 0.0420408C0.0694784 0.102302 0 0.217345 0 0.342318L0 5.1358C0 5.26077 0.0694784 5.37581 0.181203 5.43607C0.233573 5.46415 0.291181 5.47819 0.349138 5.47819C0.414427 5.47819 0.479715 5.46004 0.536625 5.42477L4.37714 3.02804C4.47769 2.96504 4.53879 2.85616 4.53879 2.73906C4.53879 2.62196 4.47769 2.51308 4.37714 2.45008ZM0.698276 4.5123L0.698276 0.965813L3.53921 2.73906L0.698276 4.5123Z" transform="translate(8.378906 5.135742)" id="Shape" fill="#007BFF" stroke="none" />
    <path d="M19.9009 0L16.4095 0L3.84052 0L0.349138 0C0.156414 0 0 0.153049 0 0.342391L0 4.1087L0 7.875L0 11.6413L0 15.4076C0 15.597 0.156414 15.75 0.349138 15.75L3.84052 15.75L16.4095 15.75L19.9009 15.75C20.0936 15.75 20.25 15.597 20.25 15.4076L20.25 11.6413L20.25 7.875L20.25 4.1087L20.25 0.342391C20.25 0.153049 20.0936 0 19.9009 0ZM3.49138 7.53261L0.698276 7.53261L0.698276 4.45109L3.49138 4.45109L3.49138 7.53261ZM0.698276 8.21739L3.49138 8.21739L3.49138 11.2989L0.698276 11.2989L0.698276 8.21739ZM4.18966 11.6413L4.18966 7.875L4.18966 4.1087L4.18966 0.684783L16.0603 0.684783L16.0603 4.1087L16.0603 7.875L16.0603 11.6413L16.0603 15.0652L4.18966 15.0652L4.18966 11.6413ZM19.5517 7.53261L16.7586 7.53261L16.7586 4.45109L19.5517 4.45109L19.5517 7.53261ZM16.7586 8.21739L19.5517 8.21739L19.5517 11.2989L16.7586 11.2989L16.7586 8.21739ZM19.5517 0.684783L19.5517 3.7663L16.7586 3.7663L16.7586 0.684783L19.5517 0.684783ZM0.698276 0.684783L3.49138 0.684783L3.49138 3.7663L0.698276 3.7663L0.698276 0.684783ZM0.698276 15.0652L0.698276 11.9837L3.49138 11.9837L3.49138 15.0652L0.698276 15.0652ZM19.5517 15.0652L16.7586 15.0652L16.7586 11.9837L19.5517 11.9837L19.5517 15.0652Z" id="Shape" fill="#007BFF" stroke="none" />
  </g>
</svg>