<?xml version="1.0" encoding="UTF-8"?>
<svg width="21px" height="16px" viewBox="0 0 21 16" version="1.1" xmlns="http://www.w3.org/2000/svg" xmlns:xlink="http://www.w3.org/1999/xlink">
    <title>video-player</title>
    <g id="Page-1" stroke="none" stroke-width="1" fill="none" fill-rule="evenodd">
        <g id="5-Файлообменник-стартовый-экран" transform="translate(-284.000000, -144.000000)" fill="#DBBB95" fill-rule="nonzero">
            <g id="video-player" transform="translate(284.000000, 144.000000)">
                <path d="M12.7564526,7.58602174 L8.91593534,5.18928261 C8.80840086,5.1225163 8.67223707,5.11806522 8.56016379,5.1779837 C8.44878879,5.23824457 8.37931034,5.35328804 8.37931034,5.47826087 L8.37931034,10.2717391 C8.37931034,10.396712 8.44878879,10.5117554 8.56051293,10.5720163 C8.61288362,10.6000924 8.67049138,10.6141304 8.72844828,10.6141304 C8.79373707,10.6141304 8.85902586,10.5959837 8.91593534,10.5607174 L12.7564526,8.16397826 C12.8570043,8.10097826 12.9181034,7.99209783 12.9181034,7.875 C12.9181034,7.75790217 12.8570043,7.64902174 12.7564526,7.58602174 Z M9.07758621,9.64824457 L9.07758621,6.10175543 L11.9185216,7.875 L9.07758621,9.64824457 Z" id="Shape"></path>
                <path d="M19.9008621,0 L16.4094828,0 L3.84051724,0 L0.349137931,0 C0.156413793,0 0,0.153048913 0,0.342391304 L0,4.10869565 L0,7.875 L0,11.6413043 L0,15.4076087 C0,15.5969511 0.156413793,15.75 0.349137931,15.75 L3.84051724,15.75 L16.4094828,15.75 L19.9008621,15.75 C20.0935862,15.75 20.25,15.5969511 20.25,15.4076087 L20.25,11.6413043 L20.25,7.875 L20.25,4.10869565 L20.25,0.342391304 C20.25,0.153048913 20.0935862,0 19.9008621,0 Z M3.49137931,7.5326087 L0.698275862,7.5326087 L0.698275862,4.45108696 L3.49137931,4.45108696 L3.49137931,7.5326087 Z M0.698275862,8.2173913 L3.49137931,8.2173913 L3.49137931,11.298913 L0.698275862,11.298913 L0.698275862,8.2173913 Z M4.18965517,11.6413043 L4.18965517,7.875 L4.18965517,4.10869565 L4.18965517,0.684782609 L16.0603448,0.684782609 L16.0603448,4.10869565 L16.0603448,7.875 L16.0603448,11.6413043 L16.0603448,15.0652174 L4.18965517,15.0652174 L4.18965517,11.6413043 Z M19.5517241,7.5326087 L16.7586207,7.5326087 L16.7586207,4.45108696 L19.5517241,4.45108696 L19.5517241,7.5326087 Z M16.7586207,8.2173913 L19.5517241,8.2173913 L19.5517241,11.298913 L16.7586207,11.298913 L16.7586207,8.2173913 Z M19.5517241,0.684782609 L19.5517241,3.76630435 L16.7586207,3.76630435 L16.7586207,0.684782609 L19.5517241,0.684782609 Z M0.698275862,0.684782609 L3.49137931,0.684782609 L3.49137931,3.76630435 L0.698275862,3.76630435 L0.698275862,0.684782609 Z M0.698275862,15.0652174 L0.698275862,11.9836957 L3.49137931,11.9836957 L3.49137931,15.0652174 L0.698275862,15.0652174 Z M19.5517241,15.0652174 L16.7586207,15.0652174 L16.7586207,11.9836957 L19.5517241,11.9836957 L19.5517241,15.0652174 Z" id="Shape"></path>
            </g>
        </g>
    </g>
</svg>