<?xml version="1.0" encoding="UTF-8"?>
<svg width="20px" height="8px" viewBox="0 0 20 8" version="1.1" xmlns="http://www.w3.org/2000/svg" xmlns:xlink="http://www.w3.org/1999/xlink">
    <title>zipper</title>
    <g id="Page-1" stroke="none" stroke-width="1" fill="none" fill-rule="evenodd">
        <g id="6,7-Мои-папки-ZIP" transform="translate(-1057.000000, -311.000000)" fill="#FFFFFF" fill-rule="nonzero">
            <g id="файл-2" transform="translate(1009.000000, 240.000000)">
                <g id="zipper" transform="translate(58.000000, 75.000000) rotate(-90.000000) translate(-58.000000, -75.000000) translate(54.000000, 65.000000)">
                    <path d="M6.26295238,10.068125 C6.17817041,9.73424389 5.8734259,9.5 5.52380952,9.5 L4.76190476,9.5 L4.76190476,7.25 L7.04761905,7.25 L7.04761905,5.75 L4.76190476,5.75 L4.76190476,4.25 L7.04761905,4.25 L7.04761905,2.75 L4.76190476,2.75 L4.76190476,0 L3.23809524,0 L3.23809524,4.25 L0.952380952,4.25 L0.952380952,5.75 L3.23809524,5.75 L3.23809524,7.25 L0.952380952,7.25 L0.952380952,8.75 L3.23809524,8.75 L3.23809524,9.5 L2.47619048,9.5 C2.1265741,9.5 1.82182959,9.73424389 1.73704762,10.068125 L0.161333333,16.2724063 C-0.0662718494,17.1686188 0.138265543,18.1180767 0.715798315,18.84622 C1.29333109,19.5743632 2.17944762,20 3.11790476,20 L4.88209524,20 C5.82055238,20 6.70666891,19.5743632 7.28420169,18.84622 C7.86173446,18.1180767 8.06627185,17.1686188 7.83866667,16.2724063 L6.26295238,10.068125 Z M4,17.75 C3.15842324,17.75 2.47619048,17.0784271 2.47619048,16.25 C2.47619048,15.4215729 3.15842324,14.75 4,14.75 C4.84157676,14.75 5.52380952,15.4215729 5.52380952,16.25 C5.52380952,17.0784271 4.84157676,17.75 4,17.75 Z" id="Shape"></path>
                </g>
            </g>
        </g>
    </g>
</svg>