<svg width="40" height="40" viewBox="0 0 40 40" fill="none" xmlns="http://www.w3.org/2000/svg">
<path d="M7.08336 0H32.9167C36.8334 0 40 3.24783 40 7.26497V32.735C40 36.7521 36.8334 40 32.9166 40H7.08336C3.16664 39.9999 0 36.7521 0 32.735V7.26497C0 3.24783 3.16664 0 7.08336 0V0Z" fill="#390000"/>
<path d="M19.3829 23.9985H13.1829L11.9163 28.0156C11.8829 28.1694 11.7496 28.272 11.5996 28.2549H8.46627C8.28291 28.2549 8.23291 28.1523 8.28291 27.9472L13.6495 12.1011C13.6995 11.9302 13.7495 11.7421 13.8162 11.537C13.8828 11.178 13.9162 10.802 13.9162 10.4259C13.8995 10.3404 13.9662 10.2549 14.0495 10.2378H14.0995H18.3662C18.4995 10.2378 18.5662 10.2891 18.5828 10.3746L24.6662 27.9813C24.7162 28.1694 24.6662 28.2548 24.4995 28.2548H21.0162C20.8995 28.2719 20.7828 28.1865 20.7495 28.0668L19.3829 23.9985ZM14.1495 20.5284H18.3829L16.2495 13.4002L14.1495 20.5284Z" fill="#FF9A00"/>
<path d="M28.299 13.1613C27.749 13.1784 27.2157 12.9562 26.8157 12.563C26.4323 12.1357 26.2323 11.5716 26.249 10.9903C26.2324 10.4091 26.449 9.86211 26.849 9.46892C27.249 9.07573 27.7824 8.87061 28.3324 8.87061C28.9824 8.87061 29.4824 9.07573 29.849 9.46892C30.2156 9.87918 30.4156 10.4262 30.399 10.9903C30.4156 11.5715 30.2157 12.1356 29.8157 12.563C29.4324 12.9732 28.8657 13.1954 28.299 13.1613Z" fill="#FF9A00"/>
<path d="M26.4326 27.9996V14.8372C26.4326 14.6663 26.4993 14.5979 26.6493 14.5979H29.9493C30.0993 14.5979 30.1659 14.6834 30.1659 14.8372V27.9996C30.1659 28.1877 30.0993 28.2731 29.9493 28.2731H26.6826C26.5159 28.2731 26.4326 28.1705 26.4326 27.9996Z" fill="#FF9A00"/>
</svg>
