<svg width="40" height="40" viewBox="0 0 40 40" fill="none" xmlns="http://www.w3.org/2000/svg">
<path d="M7.08336 0.5H32.9167C36.8334 0.5 40 3.66664 40 7.58336V32.4167C40 36.3334 36.8334 39.5001 32.9166 39.5001H7.08336C3.16664 39.5 0 36.3334 0 32.4166V7.58336C0 3.66664 3.16664 0.5 7.08336 0.5Z" fill="#001834"/>
<path d="M9 27.8501V10.7001C9 10.5835 9.05 10.5167 9.16664 10.5167C9.45 10.5167 9.71664 10.5167 10.1 10.5001C10.5 10.4835 10.9166 10.4835 11.3666 10.4667C11.8166 10.45 12.3 10.4501 12.8166 10.4334C13.3333 10.4167 13.8333 10.4167 14.3333 10.4167C15.6999 10.4167 16.8333 10.5834 17.7666 10.9334C18.6 11.2167 19.3666 11.6834 20 12.3C20.5334 12.8334 20.95 13.4834 21.2166 14.2C21.4666 14.9 21.6 15.6167 21.6 16.3667C21.6 17.8 21.2666 18.9833 20.6 19.9167C19.9334 20.85 19 21.55 17.9166 21.95C16.7833 22.3667 15.5333 22.5167 14.1666 22.5167C13.7666 22.5167 13.5 22.5167 13.3333 22.5C13.1666 22.4834 12.9333 22.4834 12.6166 22.4834V27.8334C12.6333 27.95 12.55 28.05 12.4333 28.0667C12.4166 28.0667 12.3999 28.0667 12.3666 28.0667H9.2C9.06664 28.0667 9 28.0001 9 27.8501ZM12.6334 13.7335V19.3335C12.8667 19.3501 13.0834 19.3668 13.2834 19.3668H14.1667C15.3176 19.3668 16.6467 19.0964 17.45 18.1835C18.1413 17.3979 18.1433 15.84 17.5834 14.9835C16.9187 13.9669 15.5895 13.6724 14.45 13.7002C14.0166 13.7002 13.6334 13.7002 13.3166 13.7168C12.9834 13.7001 12.75 13.7167 12.6334 13.7335Z" fill="#00A9FF"/>
<path d="M32 18.3167C31.5 18.05 30.9666 17.8667 30.4 17.75C29.7834 17.6167 29.1666 17.5334 28.5334 17.5334C28.2 17.5168 27.85 17.5668 27.5334 17.65C27.3167 17.7 27.1334 17.8167 27.0167 17.9834C26.9334 18.1168 26.8834 18.2834 26.8834 18.4334C26.8834 18.5834 26.95 18.7334 27.05 18.8668C27.2 19.0501 27.4 19.2001 27.6166 19.3168C28 19.5168 28.4 19.7001 28.8 19.8668C29.7 20.1668 30.5666 20.5834 31.3666 21.0834C31.9166 21.4334 32.3666 21.9 32.6833 22.4668C32.9499 23.0001 33.0833 23.5834 33.0666 24.1834C33.0833 24.9668 32.85 25.7501 32.4166 26.4001C31.95 27.0667 31.3 27.5834 30.55 27.8834C29.7334 28.2334 28.7334 28.4168 27.5334 28.4168C26.7667 28.4168 26.0167 28.3501 25.2667 28.2001C24.6834 28.1001 24.1001 27.9168 23.5667 27.6668C23.4501 27.6001 23.3667 27.4834 23.3834 27.3501V24.4501C23.3834 24.4001 23.4 24.3335 23.45 24.3001C23.5 24.2668 23.55 24.2835 23.6 24.3168C24.25 24.7001 24.9334 24.9668 25.6666 25.1334C26.3 25.3 26.9666 25.3834 27.6333 25.3834C28.2666 25.3834 28.7166 25.3001 29.0166 25.1501C29.2833 25.0334 29.4666 24.75 29.4666 24.45C29.4666 24.2167 29.3333 24 29.0666 23.7834C28.8 23.5668 28.25 23.3168 27.4333 23C26.5833 22.7 25.7999 22.3 25.0666 21.8C24.55 21.4334 24.1166 20.95 23.8 20.3834C23.5334 19.85 23.4 19.2668 23.4166 18.6834C23.4166 17.9668 23.6166 17.2834 23.9833 16.6668C24.3999 16.0001 25.0166 15.4668 25.7333 15.1334C26.5166 14.7334 27.4999 14.55 28.6833 14.55C29.3666 14.55 30.0666 14.6 30.7499 14.7C31.2499 14.7667 31.7333 14.9 32.1833 15.0834C32.2499 15.1 32.3166 15.1668 32.3499 15.2334C32.3666 15.3 32.3833 15.3668 32.3833 15.4334V18.15C32.3833 18.2167 32.3499 18.2834 32.2999 18.3167C32.15 18.35 32.0666 18.35 32 18.3167Z" fill="#00A9FF"/>
</svg>
