<svg width="40" height="40" viewBox="0 0 40 40" fill="none" xmlns="http://www.w3.org/2000/svg">
<g clip-path="url(#clip0_0_252)">
<path d="M7.08334 0.5H32.9167C36.8334 0.5 40 3.66664 40 7.58333V32.4167C40 36.3334 36.8334 39.5 32.9167 39.5H7.08334C3.16664 39.5 0 36.3333 0 32.4167V7.58333C0 3.66664 3.16664 0.5 7.08334 0.5V0.5Z" fill="#00005B"/>
<path d="M14.8334 10.4167C16.2 10.4167 17.3333 10.5834 18.2666 10.9334C19.8339 11.5211 21.1229 12.6043 21.7167 14.2001C21.9667 14.9001 22.1 15.6168 22.1 16.3668C22.1 18.8241 20.8035 21.0688 18.4167 21.9501C17.2834 22.3668 16.0334 22.5168 14.6667 22.5168C14.2667 22.5168 14 22.5168 13.8334 22.5001C13.6668 22.4835 13.4334 22.4835 13.1168 22.4835V27.8335C13.1334 27.9501 13.0501 28.0501 12.9334 28.0668C12.9168 28.0668 12.9001 28.0668 12.8668 28.0668H9.70015C9.56679 28.0668 9.50015 28.0002 9.50015 27.8502V10.7C9.50015 10.5834 9.55015 10.5167 9.66679 10.5167C9.95014 10.5167 10.2168 10.5167 10.6001 10.5L14.8334 10.4167ZM13.1333 13.7334V19.3334C13.3667 19.35 13.5833 19.3668 13.7833 19.3668H14.6667C15.3166 19.3668 15.9666 19.2668 16.5832 19.0668C17.7768 18.6797 18.4666 17.7086 18.4666 16.4668C18.4666 15.4268 17.9169 14.4128 16.9167 14.0335C16.3 13.7835 15.6333 13.6835 14.95 13.7001C14.5167 13.7001 14.1333 13.7001 13.8167 13.7167C13.4833 13.7 13.25 13.7167 13.1333 13.7334Z" fill="#9999FF"/>
<path d="M24.4334 14.7001H27.35C27.5166 14.7001 27.65 14.8167 27.7 14.9667C27.75 15.1001 27.7834 15.2334 27.8 15.3834C27.8333 15.55 27.8666 15.7334 27.8833 15.9C27.9 16.0833 27.9167 16.2833 27.9167 16.5C28.4167 15.9166 29.0167 15.4333 29.7 15.0667C30.4667 14.6333 31.35 14.4167 32.2334 14.4167C32.35 14.4 32.45 14.4833 32.4667 14.6V14.6667V17.9167C32.4667 18.05 32.3834 18.1 32.2001 18.1C31.6001 18.0834 30.9834 18.1334 30.4001 18.2666C29.9167 18.3666 29.4501 18.5166 29 18.7166C28.6834 18.8666 28.3834 19.0666 28.1501 19.3333V27.8333C28.1501 27.9999 28.0834 28.0666 27.9334 28.0666H24.6501C24.5167 28.0833 24.4001 28 24.3834 27.8666C24.3834 27.85 24.3834 27.8166 24.3834 27.8V18.5666C24.3834 18.1667 24.3835 17.7499 24.3668 17.3167C24.3502 16.8833 24.3502 16.45 24.3335 16.0167C24.3335 15.6334 24.3001 15.2667 24.2668 14.8834C24.2502 14.8 24.3002 14.7167 24.3834 14.7C24.3834 14.6834 24.4167 14.6834 24.4334 14.7001Z" fill="#9999FF"/>
</g>
<defs>
<clipPath id="clip0_0_252">
<rect width="40" height="40" fill="white"/>
</clipPath>
</defs>
</svg>
