<svg width="40" height="40" viewBox="0 0 40 40" fill="none" xmlns="http://www.w3.org/2000/svg">
<path d="M7.08332 0.5H32.9167C36.8287 0.5 40 3.67132 40 7.58332V32.4167C40 36.3287 36.8287 39.5 32.9167 39.5H7.08332C3.17132 39.5 0 36.3287 0 32.4167V7.58332C0 3.67132 3.17132 0.5 7.08332 0.5V0.5Z" fill="#470137"/>
<path d="M21.0279 10.7564L16.0368 18.9942L21.3767 27.7419C21.4109 27.8031 21.4205 27.8751 21.4036 27.9431C21.3855 28.006 21.3231 27.9664 21.2157 27.9841H17.4055C17.137 27.9841 16.9492 27.9746 16.8419 27.7956C16.4838 27.0979 16.126 26.4047 15.7685 25.716C15.4105 25.0275 15.0304 24.3253 14.6282 23.6096C14.2257 22.8944 13.8277 22.1699 13.4341 21.4361H13.4072C13.0492 22.1517 12.6779 22.8673 12.2936 23.5827C11.9087 24.2984 11.5286 25.0095 11.1532 25.7159C10.7775 26.4228 10.3929 27.125 9.99941 27.8224C9.92769 27.9834 9.80231 27.9999 9.62364 27.9999H5.94749C5.87616 27.9999 5.83593 28.0281 5.82671 27.9565C5.81663 27.891 5.83093 27.8242 5.86702 27.7687L11.0458 19.2625L6.00116 10.7295C5.94749 10.6583 5.93858 10.6002 5.97429 10.5552C6.01444 10.5088 6.07413 10.4839 6.13537 10.4881H9.91879C10.0013 10.4835 10.0838 10.4973 10.1603 10.5284C10.2245 10.5647 10.2796 10.6152 10.3214 10.676C10.6434 11.3916 11.0012 12.1072 11.3947 12.8226C11.788 13.5383 12.186 14.2449 12.5888 14.9425C12.9913 15.6401 13.3625 16.3467 13.7024 17.0623H13.7293C14.0869 16.329 14.4491 15.6135 14.8161 14.9157C15.1826 14.218 15.5582 13.5159 15.943 12.8093C16.3275 12.1028 16.6988 11.4006 17.0566 10.7028C17.0772 10.6366 17.1141 10.5767 17.164 10.5285C17.2302 10.4949 17.3047 10.4809 17.3787 10.4881H20.8938C20.9762 10.4678 21.0596 10.5181 21.08 10.6006C21.094 10.6581 21.0738 10.7188 21.0279 10.7564Z" fill="#FF61F6"/>
<path d="M28.7287 28.3323C27.4936 28.3511 26.2698 28.0944 25.1464 27.5809C24.0999 27.0966 23.225 26.3059 22.6376 25.3135C22.0292 24.3031 21.7251 23.0374 21.7253 21.5166C21.7152 20.2851 22.0299 19.0726 22.6376 18.0014C23.2636 16.9103 24.1843 16.0175 25.2941 15.4253C26.4567 14.7814 27.861 14.4594 29.5069 14.4594C29.5962 14.4594 29.7125 14.4638 29.8557 14.4728C29.9987 14.482 30.1687 14.4954 30.3656 14.513V9.22685C30.3656 9.10193 30.4193 9.03904 30.5267 9.03904H33.9076C33.9854 9.02795 34.0575 9.08201 34.0686 9.15982C34.0705 9.17318 34.0705 9.18669 34.0686 9.20005V25.0586C34.0686 25.363 34.082 25.694 34.1088 26.0515C34.1357 26.4095 34.1581 26.7315 34.1759 27.0174C34.1827 27.1315 34.1188 27.2381 34.0149 27.2858C33.1426 27.6495 32.2341 27.9195 31.3048 28.0908C30.4549 28.2476 29.5929 28.3284 28.7287 28.3323ZM30.3655 25.005V17.6795C30.2205 17.6402 30.0724 17.6133 29.9228 17.599C29.74 17.5806 29.5564 17.5716 29.3726 17.5722C28.7215 17.5657 28.078 17.7128 27.4943 18.0014C26.9258 18.284 26.4404 18.7093 26.0856 19.2358C25.7187 19.7724 25.5354 20.479 25.5355 21.3557C25.5224 21.9406 25.618 22.5229 25.8172 23.0729C25.9794 23.5162 26.2357 23.919 26.5686 24.2536C26.8872 24.5615 27.273 24.7911 27.6955 24.9245C28.1418 25.069 28.6083 25.1414 29.0774 25.1391C29.3277 25.1391 29.5603 25.1301 29.775 25.1123C29.9752 25.0973 30.173 25.0612 30.3655 25.005Z" fill="#FF61F6"/>
</svg>
