<svg width="17" height="22" viewBox="0 0 17 22" fill="none" xmlns="http://www.w3.org/2000/svg">
<path d="M10.0052 21.1972H14.9403C15.643 21.1972 16.2132 20.6057 16.2132 19.8768V2.70582V1.32046C16.2132 0.591586 15.643 0 14.9403 0H8.11628H6.79165V0.436825C6.79644 0.481755 6.79887 0.529182 6.79887 0.576609V3.45466V5.15004C6.79887 6.17596 5.99519 7.00967 5.00623 7.00967H3.34954H0.575161C0.539068 7.00967 0.500568 7.00717 0.464474 7.00467H0.0217285V19.8768C0.0217285 20.6057 0.592004 21.1972 1.29462 21.1972H2.69024H8.11628H10.0052Z" fill="#4086F1"/>
<path d="M0.575242 5.30435H4.06187C4.06427 5.30435 4.06909 5.30435 4.07149 5.30435C4.6538 5.29936 5.12542 4.81012 5.13023 4.20605C5.13023 4.20355 5.13023 4.19856 5.13023 4.19607V0.576659C5.13023 0.242176 4.86555 0.0200195 4.59126 0.0200195C4.45892 0.0200195 4.32658 0.0699424 4.21589 0.184765L0.195058 4.35582C-0.141814 4.70528 0.0964029 5.30435 0.575242 5.30435Z" fill="#4086F1"/>
</svg>
