<svg width="113" height="87" viewBox="0 0 113 87" fill="none" xmlns="http://www.w3.org/2000/svg">
<path fill-rule="evenodd" clip-rule="evenodd" d="M2.32439 72.2658C1.40128 72.2658 0.652832 71.5166 0.652832 70.5931V1.69563C0.652832 0.771699 1.40128 0.0229492 2.32439 0.0229492H110.467C111.391 0.0229492 112.139 0.771699 112.139 1.69563V70.5931C112.139 71.5166 111.391 72.2658 110.467 72.2658H2.32439Z" fill="#3879DB"/>
<path fill-rule="evenodd" clip-rule="evenodd" d="M40.4532 79.7674H72.3381V72.2656H40.4532V79.7674Z" fill="#4086F1"/>
<path fill-rule="evenodd" clip-rule="evenodd" d="M78.9808 86.9825H33.811C33.811 82.9978 37.0399 79.7676 41.023 79.7676H71.7693C75.7524 79.7676 78.9808 82.9978 78.9808 86.9825Z" fill="#3879DB"/>
<path fill-rule="evenodd" clip-rule="evenodd" d="M0.652832 56.043V70.5929C0.652832 71.5164 1.40128 72.2656 2.32439 72.2656H110.467C111.391 72.2656 112.139 71.5164 112.139 70.5929V56.043H0.652832Z" fill="#2F72D9"/>
<path fill-rule="evenodd" clip-rule="evenodd" d="M3.65283 53.3186H109.015V3.02295H3.65283V53.3186Z" fill="#F5F5F5"/>
<path fill-rule="evenodd" clip-rule="evenodd" d="M41.6528 23.541H71.3904L56.5216 32.0595L41.6528 23.541Z" fill="#B98238"/>
<path fill-rule="evenodd" clip-rule="evenodd" d="M71.3904 23.5412H41.6528L56.5216 15.0229L71.3904 23.5412Z" fill="#D89338"/>
<path fill-rule="evenodd" clip-rule="evenodd" d="M46.9176 33.8765H65.5229V19.3999H46.9176V33.8765Z" fill="white"/>
<path fill-rule="evenodd" clip-rule="evenodd" d="M71.3904 40.8177H41.6528V23.541L56.5216 32.0595L71.3904 23.541V40.8177Z" fill="#EDA23B"/>
<path fill-rule="evenodd" clip-rule="evenodd" d="M71.3904 23.541L56.5216 32.0595L71.3904 40.8177V23.541Z" fill="#EDB04B"/>
</svg>
