<svg width="19" height="19" viewBox="0 0 19 19" fill="none" xmlns="http://www.w3.org/2000/svg">
<path d="M18.05 3.80019H13.9333V2.53353C13.9323 1.65945 13.2241 0.951278 12.35 0.950195H6.65C5.77592 0.951278 5.06775 1.65945 5.06667 2.53353V3.80019H0.95C0.425366 3.80019 0 4.22556 0 4.7502V11.7991C0.00201009 12.2008 0.255127 12.5582 0.633333 12.6931V17.1002C0.633333 17.6248 1.0587 18.0502 1.58333 18.0502H17.4167C17.9413 18.0502 18.3667 17.6248 18.3667 17.1002V12.6935C18.7449 12.5583 18.9981 12.2008 19 11.7991V4.7502C19 4.22556 18.5746 3.80019 18.05 3.80019ZM5.7 2.53353C5.7 2.00889 6.12537 1.58353 6.65 1.58353H12.35C12.8746 1.58353 13.3 2.00889 13.3 2.53353V3.80019H12.6667V2.53353C12.6667 2.35865 12.5249 2.21686 12.35 2.21686H6.65C6.47512 2.21686 6.33333 2.35865 6.33333 2.53353V3.80019H5.7V2.53353ZM12.0333 3.80019H6.96667V2.8502H12.0333V3.80019ZM17.7333 17.1002C17.7333 17.2751 17.5915 17.4169 17.4167 17.4169H1.58333C1.40846 17.4169 1.26667 17.2751 1.26667 17.1002V12.802L8.23333 13.7628V14.5669C8.23333 15.0915 8.6587 15.5169 9.18333 15.5169H9.81667C10.3413 15.5169 10.7667 15.0915 10.7667 14.5669V13.7628L17.7333 12.802V17.1002ZM10.1333 14.5669C10.1333 14.7417 9.99154 14.8835 9.81667 14.8835H9.18333C9.00846 14.8835 8.86667 14.7417 8.86667 14.5669V12.6669C8.86667 12.492 9.00846 12.3502 9.18333 12.3502H9.81667C9.99154 12.3502 10.1333 12.492 10.1333 12.6669V14.5669ZM18.3667 11.7991C18.3668 11.957 18.2507 12.0909 18.0944 12.113L18.0066 12.1251L10.7667 13.1235V12.6669C10.7667 12.1422 10.3413 11.7169 9.81667 11.7169H9.18333C8.6587 11.7169 8.23333 12.1422 8.23333 12.6669V13.1235L0.905933 12.113C0.749609 12.091 0.633179 11.9571 0.633333 11.7991V4.7502C0.633333 4.57532 0.775122 4.43353 0.95 4.43353H18.05C18.2249 4.43353 18.3667 4.57532 18.3667 4.7502V11.7991Z" fill="#DBBB95"/>
</svg>
