<svg width="24" height="24" viewBox="0 0 24 24" fill="none" xmlns="http://www.w3.org/2000/svg">
<path d="M16.7179 8.21162C16.5498 8.34005 16.5176 8.5804 16.646 8.74845C17.3648 9.6892 17.7447 10.8136 17.7447 12.0001C17.7447 14.9565 15.3394 17.3618 12.383 17.3618C9.42653 17.3618 7.02127 14.9565 7.02127 12.0001C7.02127 9.04365 9.42653 6.63839 12.383 6.63839C13.5694 6.63839 14.6939 7.01826 15.6347 7.73708C15.8027 7.86551 16.0431 7.83334 16.1715 7.66524C16.2999 7.49719 16.2678 7.25683 16.0997 7.1284C15.0242 6.30673 13.739 5.87244 12.383 5.87244C9.00418 5.87244 6.25531 8.6213 6.25531 12.0001C6.25531 15.3789 9.00418 18.1278 12.383 18.1278C15.7618 18.1278 18.5106 15.3789 18.5106 12.0001C18.5106 10.6441 18.0763 9.35887 17.2547 8.28347C17.1263 8.11542 16.886 8.08319 16.7179 8.21162Z" fill="#DBBB95"/>
<path d="M12.383 3.82983C7.87793 3.82983 4.21277 7.49494 4.21277 12C4.21277 16.5052 7.87793 20.1703 12.383 20.1703C16.8881 20.1703 20.5532 16.5052 20.5532 12C20.5532 7.49494 16.8881 3.82983 12.383 3.82983ZM12.383 19.4043C8.30027 19.4043 4.97873 16.0828 4.97873 12C4.97873 7.91734 8.30027 4.59579 12.383 4.59579C16.4657 4.59579 19.7872 7.91734 19.7872 12C19.7872 16.0828 16.4657 19.4043 12.383 19.4043Z" fill="#DBBB95"/>
<path d="M3.44681 3.82983C3.2353 3.82983 3.06383 4.00126 3.06383 4.21281V7.4043H2.29787V4.21281C2.29787 4.00126 2.1264 3.82983 1.91489 3.82983C1.70339 3.82983 1.53191 4.00126 1.53191 4.21281V7.4043H0.765957V4.21281C0.765957 4.00126 0.594485 3.82983 0.382979 3.82983C0.171472 3.82983 0 4.00126 0 4.21281V8.80856C0 9.73332 0.658928 10.507 1.53191 10.6849V19.7873C1.53191 19.9988 1.70339 20.1703 1.91489 20.1703C2.1264 20.1703 2.29787 19.9988 2.29787 19.7873V10.6849C3.17086 10.507 3.82979 9.73332 3.82979 8.80856V4.21281C3.82979 4.00126 3.65831 3.82983 3.44681 3.82983ZM1.91489 9.95749C1.28134 9.95749 0.765957 9.44206 0.765957 8.80856V8.17026H3.06383V8.80856C3.06383 9.44206 2.54844 9.95749 1.91489 9.95749Z" fill="#DBBB95"/>
<path d="M23.617 3.82983C22.5611 3.82983 21.7021 4.68883 21.7021 5.74473V12.766C21.7021 12.9776 21.8736 13.149 22.0851 13.149H23.2341V19.7873C23.2341 19.9988 23.4055 20.1703 23.617 20.1703C23.8286 20.1703 24 19.9988 24 19.7873V4.21281C24 4.00126 23.8286 3.82983 23.617 3.82983ZM23.2341 12.383H22.4681V5.74473C22.4681 5.24543 22.7883 4.8195 23.2341 4.66141V12.383Z" fill="#DBBB95"/>
</svg>
