<svg width="22" height="22" viewBox="0 0 22 22" fill="none" xmlns="http://www.w3.org/2000/svg">
<path d="M18.9699 20.54H3.03004C2.76195 20.54 2.50485 20.4335 2.31529 20.244C2.12572 20.0544 2.01923 19.7973 2.01923 19.5292V8.5524C2.01914 8.47322 2.05034 8.39722 2.10602 8.34093C2.16169 8.28464 2.23735 8.25261 2.31652 8.25183H9.28487C9.36372 8.25183 9.43934 8.28315 9.4951 8.33891C9.55085 8.39466 9.58217 8.47028 9.58217 8.54913C9.58217 8.62798 9.55085 8.70359 9.4951 8.75935C9.43934 8.8151 9.36372 8.84643 9.28487 8.84643H2.6162V19.5298C2.6162 19.6402 2.66005 19.7461 2.73811 19.8241C2.81616 19.9022 2.92203 19.946 3.03242 19.946H18.9699C19.0803 19.946 19.1862 19.9022 19.2642 19.8241C19.3423 19.7461 19.3861 19.6402 19.3861 19.5298V8.84643H12.7151C12.6362 8.84643 12.5606 8.8151 12.5049 8.75935C12.4491 8.70359 12.4178 8.62798 12.4178 8.54913C12.4178 8.47028 12.4491 8.39466 12.5049 8.33891C12.5606 8.28315 12.6362 8.25183 12.7151 8.25183H19.6826C19.7614 8.25183 19.837 8.28315 19.8928 8.33891C19.9485 8.39466 19.9798 8.47028 19.9798 8.54913V19.5298C19.9797 19.7976 19.8732 20.0544 19.6839 20.2439C19.4945 20.4333 19.2378 20.5398 18.9699 20.54Z" fill="#DBBB95"/>
<path d="M20.76 8.84967H12.7151C12.6363 8.84967 12.5607 8.81835 12.5049 8.7626C12.4491 8.70684 12.4178 8.63122 12.4178 8.55238C12.4178 8.47353 12.4491 8.39791 12.5049 8.34215C12.5607 8.2864 12.6363 8.25508 12.7151 8.25508H20.76C20.7669 8.25493 20.7737 8.2534 20.78 8.25058C20.7863 8.24777 20.792 8.24373 20.7968 8.23869C20.8015 8.23365 20.8052 8.22772 20.8076 8.22125C20.81 8.21477 20.8111 8.20788 20.8108 8.20097V5.88651C20.8111 5.8796 20.81 5.87271 20.8076 5.86624C20.8052 5.85976 20.8015 5.85383 20.7968 5.84879C20.792 5.84376 20.7863 5.83971 20.78 5.8369C20.7737 5.83408 20.7669 5.83256 20.76 5.8324H1.24004C1.23313 5.83256 1.22632 5.83408 1.22 5.8369C1.21369 5.83971 1.208 5.84376 1.20327 5.84879C1.19853 5.85383 1.19485 5.85976 1.19244 5.86624C1.19002 5.87271 1.18892 5.8796 1.1892 5.88651V8.20038C1.18892 8.20728 1.19002 8.21417 1.19244 8.22065C1.19485 8.22713 1.19853 8.23306 1.20327 8.23809C1.208 8.24313 1.21369 8.24718 1.22 8.24999C1.22632 8.2528 1.23313 8.25433 1.24004 8.25448H9.2849C9.36375 8.25448 9.43937 8.28581 9.49512 8.34156C9.55088 8.39731 9.5822 8.47293 9.5822 8.55178C9.5822 8.63063 9.55088 8.70625 9.49512 8.762C9.43937 8.81776 9.36375 8.84908 9.2849 8.84908H1.24004C1.06859 8.84845 0.90438 8.77988 0.783397 8.6584C0.662415 8.53691 0.594525 8.37242 0.594605 8.20097V5.88651C0.594525 5.71506 0.662415 5.55057 0.783397 5.42909C0.90438 5.3076 1.06859 5.23903 1.24004 5.2384H20.76C20.9314 5.23903 21.0956 5.3076 21.2166 5.42909C21.3376 5.55057 21.4055 5.71506 21.4054 5.88651V8.20038C21.4058 8.37203 21.3381 8.53683 21.217 8.65857C21.096 8.78031 20.9316 8.84904 20.76 8.84967Z" fill="#DBBB95"/>
<path d="M12.7145 20.5406H9.28546C9.20661 20.5406 9.13099 20.5093 9.07524 20.4535C9.01948 20.3978 8.98816 20.3222 8.98816 20.2433V8.54913C8.98816 8.47028 9.01948 8.39466 9.07524 8.33891C9.13099 8.28315 9.20661 8.25183 9.28546 8.25183H12.7145C12.7933 8.25183 12.869 8.28315 12.9247 8.33891C12.9805 8.39466 13.0118 8.47028 13.0118 8.54913V20.2433C13.0118 20.3222 12.9805 20.3978 12.9247 20.4535C12.869 20.5093 12.7933 20.5406 12.7145 20.5406ZM9.58275 19.946H12.4172V8.84643H9.58275V19.946Z" fill="#DBBB95"/>
<path d="M11.003 5.83299C10.9524 5.83294 10.9027 5.82 10.8586 5.79538C10.8144 5.77077 10.7772 5.73529 10.7506 5.69232C10.724 5.64934 10.7087 5.60029 10.7063 5.54978C10.7039 5.49928 10.7145 5.449 10.7369 5.4037C11.6936 3.47275 12.4369 2.30259 12.9455 1.92532C13.2056 1.73355 13.5019 1.59655 13.8165 1.52261C14.1311 1.44866 14.4574 1.43931 14.7757 1.49513C15.0996 1.55198 15.4086 1.67393 15.684 1.8536C15.9594 2.03326 16.1956 2.26691 16.3781 2.54043C16.701 3.02173 16.8548 3.59661 16.8156 4.17483C16.7764 4.75305 16.5463 5.30188 16.1614 5.73518C16.1084 5.79365 16.0344 5.82869 15.9557 5.83259C15.8769 5.83649 15.7998 5.80894 15.7413 5.75599C15.6828 5.70305 15.6478 5.62904 15.6439 5.55026C15.64 5.47148 15.6676 5.39438 15.7205 5.33591C16.017 5.00205 16.1942 4.57914 16.2243 4.13361C16.2543 3.68809 16.1354 3.24522 15.8864 2.87459C15.7484 2.66729 15.5698 2.4901 15.3614 2.35372C15.1531 2.21734 14.9192 2.1246 14.674 2.0811C14.4347 2.03905 14.1893 2.04602 13.9528 2.10156C13.7162 2.15711 13.4934 2.26009 13.2978 2.40426C12.8855 2.70989 12.1455 3.89997 11.2697 5.6674C11.2451 5.71713 11.2071 5.759 11.16 5.78826C11.1128 5.81752 11.0585 5.83302 11.003 5.83299Z" fill="#DBBB95"/>
<path d="M10.997 5.83303C10.9414 5.83323 10.8868 5.81781 10.8395 5.78854C10.7922 5.75926 10.7541 5.71731 10.7294 5.66744C9.85361 3.90001 9.11364 2.70993 8.69921 2.40282C8.50386 2.25932 8.28149 2.15685 8.04549 2.10157C7.80949 2.04628 7.56474 2.03934 7.32599 2.08114C7.08072 2.12447 6.84679 2.21711 6.63835 2.35344C6.42991 2.48978 6.2513 2.66698 6.11331 2.87433C5.86415 3.24496 5.74521 3.68787 5.77519 4.13346C5.80516 4.57904 5.98235 5.00204 6.27891 5.33595C6.33186 5.39442 6.35941 5.47152 6.3555 5.5503C6.3516 5.62908 6.31656 5.70309 6.2581 5.75603C6.19963 5.80898 6.12253 5.83653 6.04375 5.83263C5.96497 5.82873 5.89096 5.79369 5.83802 5.73522C5.45311 5.30187 5.22301 4.75296 5.18384 4.17468C5.14467 3.59639 5.29864 3.02147 5.62158 2.54017C5.80418 2.26665 6.04037 2.03302 6.31585 1.85341C6.59133 1.67379 6.90038 1.55192 7.22431 1.49517C7.5422 1.43904 7.86818 1.44807 8.18247 1.52171C8.49677 1.59535 8.79283 1.73207 9.05269 1.92357C9.56375 2.30263 10.307 3.47279 11.2637 5.40374C11.2861 5.44904 11.2967 5.49932 11.2943 5.54982C11.2919 5.60033 11.2766 5.64938 11.25 5.69236C11.2234 5.73533 11.1862 5.77081 11.142 5.79542C11.0979 5.82004 11.0482 5.83298 10.9976 5.83303H10.997Z" fill="#DBBB95"/>
</svg>
