<svg width="22" height="22" viewBox="0 0 22 22" fill="none" xmlns="http://www.w3.org/2000/svg">
<path d="M17.7873 16.7028C19.8192 14.6718 20.9803 11.9294 21.0245 9.05688C21.0688 6.18436 19.9928 3.40749 18.0245 1.31483L18.7533 0.586081C18.8124 0.520587 18.8441 0.43486 18.8417 0.346649C18.8394 0.258439 18.8033 0.174501 18.7408 0.112215C18.6782 0.0499296 18.5942 0.014067 18.506 0.0120526C18.4177 0.0100382 18.3321 0.0420263 18.2668 0.101394L16.0015 2.36499C14.3121 0.832484 12.0978 0.00863953 9.81754 0.0641451C7.53724 0.119651 5.3657 1.05025 3.75281 2.66314C2.13992 4.27603 1.20932 6.44757 1.15381 8.72787C1.09831 11.0082 1.92215 13.2224 3.45466 14.9119L1.18419 17.1875C1.1363 17.2357 1.10376 17.2969 1.09067 17.3636C1.07758 17.4302 1.08453 17.4993 1.11064 17.562C1.13675 17.6247 1.18086 17.6782 1.23738 17.7159C1.29391 17.7536 1.36033 17.7736 1.42825 17.7736C1.51903 17.7737 1.60614 17.7378 1.6706 17.6739L2.40622 16.94C4.36277 18.7917 6.93228 19.8586 9.62497 19.9375V21.3125H4.12497C4.0338 21.3125 3.94637 21.3487 3.8819 21.4132C3.81744 21.4776 3.78122 21.5651 3.78122 21.6562C3.78122 21.7474 3.81744 21.8348 3.8819 21.8993C3.94637 21.9638 4.0338 22 4.12497 22H15.8125C15.9036 22 15.9911 21.9638 16.0555 21.8993C16.12 21.8348 16.1562 21.7474 16.1562 21.6562C16.1562 21.5651 16.12 21.4776 16.0555 21.4132C15.9911 21.3487 15.9036 21.3125 15.8125 21.3125H10.3125V19.9375C13.1267 19.8577 15.8027 18.6996 17.7873 16.7028ZM12.2873 6.07921C11.5918 5.32492 11.0448 4.44616 10.6751 3.48905C11.1706 3.22022 11.6881 2.99424 12.222 2.81358C13.6193 2.34436 14.764 2.36842 15.4997 2.8703L12.2873 6.07921ZM11.8009 6.56561L9.96872 8.3978L7.44903 5.87811C8.24754 5.10539 9.12687 4.42083 10.0718 3.83624C10.4766 4.84405 11.0626 5.76913 11.8009 6.56561ZM9.48231 8.8842L7.65184 10.7147C6.85649 9.97448 5.93115 9.38769 4.92247 8.98389C5.5062 8.03825 6.1902 7.15832 6.96263 6.35936L9.48231 8.8842ZM7.16716 11.2011L3.9531 14.4134C3.45294 13.6778 3.42888 12.5331 3.89638 11.1358C4.07873 10.602 4.30584 10.0845 4.57528 9.58889C5.53286 9.95868 6.41216 10.5056 7.16716 11.2011ZM4.4395 14.8998L7.65356 11.6875C8.35003 12.4411 8.89711 13.32 9.26575 14.2776C8.7706 14.5503 8.2531 14.7803 7.71888 14.9651C6.31981 15.424 5.17513 15.4 4.4395 14.8998ZM8.13825 11.2011L9.96872 9.37061L12.4884 11.8903C11.6918 12.6625 10.8141 13.3465 9.87075 13.9305C9.46566 12.922 8.87837 11.9968 8.13825 11.2011ZM10.4551 8.8842L12.2873 7.04686C13.0827 7.78059 14.0053 8.36305 15.0098 8.76561C14.4292 9.71629 13.7469 10.6009 12.9748 11.4039L10.4551 8.8842ZM12.7737 6.56561L15.9843 3.35671C16.689 4.38796 16.4003 6.22358 15.3553 8.16921C14.402 7.80089 13.5263 7.25694 12.7737 6.56561ZM12.002 2.16046C11.4692 2.34273 10.9519 2.56746 10.4551 2.83249C10.2501 2.13537 10.1391 1.41399 10.1251 0.687488C11.5152 0.711697 12.876 1.09095 14.0783 1.78921C13.3705 1.79842 12.6691 1.92384 12.002 2.16046ZM9.83466 3.17796C8.79688 3.80518 7.8334 4.54782 6.96263 5.39171L4.42231 2.85139C5.79724 1.58026 7.56875 0.822607 9.43763 0.706394C9.4528 1.54484 9.58646 2.37694 9.83466 3.17796ZM3.93591 3.3378L6.47622 5.87811C5.63237 6.74829 4.88973 7.71119 4.26247 8.74842C3.46124 8.50137 2.62923 8.3683 1.79091 8.35311C1.9067 6.48413 2.66442 4.7125 3.93591 3.3378ZM3.917 9.36374C3.65311 9.8611 3.42842 10.3783 3.24497 10.9106C3.00897 11.5795 2.8847 12.2827 2.87716 12.992C2.1789 11.7898 1.79965 10.429 1.77544 9.03889C2.50048 9.05238 3.22057 9.16161 3.917 9.36374ZM5.89872 15.9844C6.59305 15.9712 7.28074 15.8464 7.93544 15.6148C8.46832 15.4328 8.98562 15.2081 9.48231 14.9428C9.68443 15.6392 9.79309 16.3593 9.80544 17.0844C8.41548 17.0608 7.05465 16.6822 5.85231 15.9844H5.89872ZM10.4998 17.0689C10.4846 16.2306 10.3516 15.3986 10.1045 14.5973C11.1422 13.9674 12.1051 13.2218 12.9748 12.375L15.5151 14.917C14.1407 16.1889 12.3689 16.9466 10.4998 17.062V17.0689ZM16.0015 14.4375L13.4612 11.8903C14.3073 11.0204 15.0523 10.0575 15.6818 9.01999C16.4806 9.26748 17.3104 9.40057 18.1465 9.4153C18.032 11.2866 17.2742 13.0608 16.0015 14.4375ZM16.0308 8.40983C16.7183 7.1053 17.0758 5.84889 17.062 4.78327C17.7605 5.9852 18.1387 7.34638 18.1603 8.73639C17.4389 8.7207 16.7228 8.60915 16.0308 8.40467V8.40983ZM3.93591 15.4034C5.62536 16.9359 7.83961 17.7598 10.1199 17.7043C12.4002 17.6488 14.5717 16.7182 16.1846 15.1053C17.7975 13.4924 18.7281 11.3208 18.7836 9.04055C18.8391 6.76025 18.0153 4.546 16.4828 2.85655L17.5312 1.80124C19.3596 3.77021 20.3559 6.36988 20.3117 9.05652C20.2675 11.7432 19.1862 14.3086 17.294 16.2164C15.392 18.1192 12.8245 19.2079 10.1345 19.2521C7.44436 19.2964 4.84248 18.2928 2.87888 16.4536L3.93591 15.4034Z" fill="#DBBB95"/>
</svg>
