<svg width="20" height="20" viewBox="0 0 20 20" fill="none" xmlns="http://www.w3.org/2000/svg">
<g clip-path="url(#clip0_39_945)">
<path d="M14.5141 15.0687C14.5969 15.0687 14.6764 15.0358 14.735 14.9772C14.7936 14.9186 14.8266 14.8391 14.8266 14.7562C14.8275 13.5673 14.3883 12.4202 13.5938 11.5359C14.016 11.2224 14.5171 11.0324 15.0411 10.9871C15.565 10.9417 16.0913 11.0428 16.5612 11.279C17.0311 11.5153 17.4261 11.8774 17.7022 12.325C17.9784 12.7726 18.1247 13.2881 18.125 13.814C18.125 13.8969 18.1579 13.9764 18.2165 14.035C18.2751 14.0936 18.3546 14.1265 18.4375 14.1265C18.5204 14.1265 18.5999 14.0936 18.6585 14.035C18.7171 13.9764 18.75 13.8969 18.75 13.814C18.7488 13.1092 18.5332 12.4215 18.1319 11.8421C17.7306 11.2627 17.1625 10.8192 16.5031 10.5703C16.8527 10.3136 17.1122 9.95303 17.2447 9.54008C17.3771 9.12712 17.3757 8.68287 17.2406 8.27076C17.1056 7.85865 16.8438 7.49974 16.4926 7.24528C16.1414 6.99082 15.7188 6.8538 15.2852 6.8538C14.8515 6.8538 14.4289 6.99082 14.0777 7.24528C13.7265 7.49974 13.4647 7.85865 13.3297 8.27076C13.1946 8.68287 13.1932 9.12712 13.3257 9.54008C13.4581 9.95303 13.7176 10.3136 14.0672 10.5703C13.7326 10.6957 13.4195 10.8722 13.1391 11.0937C12.6435 10.6692 12.0667 10.3502 11.4437 10.1562C11.9719 9.8403 12.3818 9.35989 12.6107 8.78864C12.8396 8.21739 12.8748 7.58682 12.711 6.99364C12.5471 6.40045 12.1932 5.87739 11.7035 5.50464C11.2138 5.1319 10.6154 4.93005 10 4.93005C9.3846 4.93005 8.78618 5.1319 8.2965 5.50464C7.80682 5.87739 7.45291 6.40045 7.28904 6.99364C7.12517 7.58682 7.16039 8.21739 7.38928 8.78864C7.61817 9.35989 8.02812 9.8403 8.55625 10.1562C7.9333 10.3502 7.35645 10.6692 6.86094 11.0937C6.58185 10.8732 6.27036 10.6972 5.9375 10.5718C6.28706 10.3152 6.54658 9.9546 6.67903 9.54164C6.81147 9.12868 6.81007 8.68444 6.67501 8.27233C6.53995 7.86021 6.27815 7.50131 5.92697 7.24684C5.5758 6.99238 5.15321 6.85537 4.71953 6.85537C4.28585 6.85537 3.86326 6.99238 3.51209 7.24684C3.16091 7.50131 2.89911 7.86021 2.76405 8.27233C2.62899 8.68444 2.62759 9.12868 2.76003 9.54164C2.89248 9.9546 3.15201 10.3152 3.50156 10.5718C2.84155 10.8199 2.27265 11.2629 1.87047 11.842C1.46829 12.4211 1.25188 13.1089 1.25 13.814C1.25 13.8969 1.28292 13.9764 1.34153 14.035C1.40013 14.0936 1.47962 14.1265 1.5625 14.1265C1.64538 14.1265 1.72487 14.0936 1.78347 14.035C1.84208 13.9764 1.875 13.8969 1.875 13.814C1.87528 13.2881 2.02164 12.7726 2.29777 12.325C2.57389 11.8774 2.96892 11.5153 3.4388 11.279C3.90868 11.0428 4.43495 10.9417 4.95892 10.9871C5.48288 11.0324 5.98395 11.2224 6.40625 11.5359C5.61108 12.42 5.17137 13.5671 5.17187 14.7562C5.17187 14.8391 5.2048 14.9186 5.2634 14.9772C5.32201 15.0358 5.40149 15.0687 5.48438 15.0687C5.56726 15.0687 5.64674 15.0358 5.70535 14.9772C5.76395 14.9186 5.79688 14.8391 5.79688 14.7562C5.79688 13.6419 6.23954 12.5732 7.02748 11.7853C7.81543 10.9973 8.88411 10.5546 9.99844 10.5546C11.1128 10.5546 12.1814 10.9973 12.9694 11.7853C13.7573 12.5732 14.2 13.6419 14.2 14.7562C14.2 14.7974 14.2081 14.8381 14.2239 14.8762C14.2397 14.9142 14.2629 14.9487 14.2921 14.9777C14.3213 15.0068 14.3559 15.0298 14.394 15.0454C14.4321 15.061 14.4729 15.0689 14.5141 15.0687ZM13.8516 8.91715C13.8516 8.63376 13.9356 8.35675 14.093 8.12112C14.2505 7.8855 14.4742 7.70185 14.7361 7.5934C14.9979 7.48496 15.286 7.45658 15.5639 7.51187C15.8418 7.56715 16.0971 7.70361 16.2975 7.904C16.4979 8.10438 16.6344 8.35968 16.6897 8.63762C16.7449 8.91556 16.7166 9.20365 16.6081 9.46546C16.4997 9.72727 16.316 9.95105 16.0804 10.1085C15.8448 10.2659 15.5678 10.35 15.2844 10.35C14.9046 10.3491 14.5407 10.1979 14.2721 9.92939C14.0036 9.66086 13.8524 9.2969 13.8516 8.91715ZM3.28125 8.91715C3.28125 8.63376 3.36528 8.35675 3.52272 8.12112C3.68016 7.8855 3.90394 7.70185 4.16575 7.5934C4.42756 7.48496 4.71565 7.45658 4.99359 7.51187C5.27153 7.56715 5.52683 7.70361 5.72721 7.904C5.9276 8.10438 6.06406 8.35968 6.11934 8.63762C6.17463 8.91556 6.14626 9.20365 6.03781 9.46546C5.92936 9.72727 5.74572 9.95105 5.51009 10.1085C5.27447 10.2659 4.99745 10.35 4.71406 10.35C4.33418 10.3495 3.96998 10.1985 3.70137 9.92984C3.43275 9.66123 3.28166 9.29703 3.28125 8.91715ZM7.8125 7.74371C7.8125 7.31106 7.94079 6.88813 8.18116 6.5284C8.42153 6.16867 8.76317 5.88829 9.16288 5.72272C9.56259 5.55716 10.0024 5.51384 10.4268 5.59824C10.8511 5.68265 11.2409 5.89099 11.5468 6.19691C11.8527 6.50284 12.0611 6.89262 12.1455 7.31695C12.2299 7.74128 12.1866 8.18112 12.021 8.58083C11.8554 8.98054 11.575 9.32219 11.2153 9.56255C10.8556 9.80292 10.4326 9.93121 10 9.93121C9.41984 9.93121 8.86344 9.70074 8.4532 9.29051C8.04297 8.88027 7.8125 8.32387 7.8125 7.74371Z" fill="#DBBB95"/>
<path d="M0.3125 6.25C0.39538 6.25 0.474866 6.21708 0.533471 6.15847C0.592076 6.09987 0.625 6.02038 0.625 5.9375V0.625H5.9375C6.02038 0.625 6.09987 0.592076 6.15847 0.533471C6.21708 0.474866 6.25 0.39538 6.25 0.3125C6.25 0.22962 6.21708 0.150134 6.15847 0.0915291C6.09987 0.032924 6.02038 0 5.9375 0L0.3125 0C0.22962 0 0.150134 0.032924 0.0915291 0.0915291C0.032924 0.150134 0 0.22962 0 0.3125L0 5.9375C0 6.02038 0.032924 6.09987 0.0915291 6.15847C0.150134 6.21708 0.22962 6.25 0.3125 6.25Z" fill="#DBBB95"/>
<path d="M19.6875 0H14.0625C13.9796 0 13.9001 0.032924 13.8415 0.0915291C13.7829 0.150134 13.75 0.22962 13.75 0.3125C13.75 0.39538 13.7829 0.474866 13.8415 0.533471C13.9001 0.592076 13.9796 0.625 14.0625 0.625H19.375V5.9375C19.375 6.02038 19.4079 6.09987 19.4665 6.15847C19.5251 6.21708 19.6046 6.25 19.6875 6.25C19.7704 6.25 19.8499 6.21708 19.9085 6.15847C19.9671 6.09987 20 6.02038 20 5.9375V0.3125C20 0.22962 19.9671 0.150134 19.9085 0.0915291C19.8499 0.032924 19.7704 0 19.6875 0V0Z" fill="#DBBB95"/>
<path d="M19.6875 13.75C19.6046 13.75 19.5251 13.7829 19.4665 13.8415C19.4079 13.9001 19.375 13.9796 19.375 14.0625V19.375H14.0625C13.9796 19.375 13.9001 19.4079 13.8415 19.4665C13.7829 19.5251 13.75 19.6046 13.75 19.6875C13.75 19.7704 13.7829 19.8499 13.8415 19.9085C13.9001 19.9671 13.9796 20 14.0625 20H19.6875C19.7704 20 19.8499 19.9671 19.9085 19.9085C19.9671 19.8499 20 19.7704 20 19.6875V14.0625C20 13.9796 19.9671 13.9001 19.9085 13.8415C19.8499 13.7829 19.7704 13.75 19.6875 13.75Z" fill="#DBBB95"/>
<path d="M5.9375 19.375H0.625V14.0625C0.625 13.9796 0.592076 13.9001 0.533471 13.8415C0.474866 13.7829 0.39538 13.75 0.3125 13.75C0.22962 13.75 0.150134 13.7829 0.0915291 13.8415C0.032924 13.9001 0 13.9796 0 14.0625L0 19.6875C0 19.7704 0.032924 19.8499 0.0915291 19.9085C0.150134 19.9671 0.22962 20 0.3125 20H5.9375C6.02038 20 6.09987 19.9671 6.15847 19.9085C6.21708 19.8499 6.25 19.7704 6.25 19.6875C6.25 19.6046 6.21708 19.5251 6.15847 19.4665C6.09987 19.4079 6.02038 19.375 5.9375 19.375Z" fill="#DBBB95"/>
</g>
<defs>
<clipPath id="clip0_39_945">
<rect width="20" height="20" fill="white"/>
</clipPath>
</defs>
</svg>
