<svg width="22" height="22" viewBox="0 0 22 22" fill="none" xmlns="http://www.w3.org/2000/svg">
<path d="M18.802 20.7546H3.19805C3.11921 20.7546 3.04359 20.7232 2.98783 20.6675C2.93208 20.6117 2.90076 20.5361 2.90076 20.4573V11.5829C2.90076 11.5041 2.93208 11.4285 2.98783 11.3727C3.04359 11.317 3.11921 11.2856 3.19805 11.2856C3.2769 11.2856 3.35252 11.317 3.40828 11.3727C3.46403 11.4285 3.49535 11.5041 3.49535 11.5829V20.16H18.5047V11.5829C18.5047 11.5041 18.536 11.4285 18.5918 11.3727C18.6475 11.317 18.7232 11.2856 18.802 11.2856C18.8808 11.2856 18.9565 11.317 19.0122 11.3727C19.068 11.4285 19.0993 11.5041 19.0993 11.5829V20.4573C19.0993 20.5361 19.068 20.6117 19.0122 20.6675C18.9565 20.7232 18.8808 20.7546 18.802 20.7546Z" fill="#DBBB95"/>
<path d="M20.1811 12.8754C20.0203 12.8757 19.8609 12.8442 19.7123 12.7825C19.5637 12.7209 19.4288 12.6304 19.3154 12.5163L11 4.20115L2.68429 12.5163C2.57062 12.6299 2.43568 12.7201 2.28717 12.7816C2.13866 12.8431 1.97949 12.8747 1.81875 12.8747C1.65802 12.8747 1.49885 12.843 1.35035 12.7815C1.20186 12.72 1.06693 12.6298 0.953279 12.5161C0.839629 12.4024 0.74948 12.2675 0.687981 12.119C0.626481 11.9705 0.594835 11.8113 0.594849 11.6506C0.594862 11.4898 0.626536 11.3307 0.688061 11.1822C0.749586 11.0337 0.839758 10.8987 0.953428 10.7851L10.1343 1.60545C10.3639 1.3759 10.6753 1.24695 11 1.24695C11.3247 1.24695 11.6361 1.3759 11.8657 1.60545L21.0466 10.7854C21.2178 10.9566 21.3344 11.1747 21.3816 11.4122C21.4289 11.6497 21.4047 11.8958 21.312 12.1195C21.2194 12.3432 21.0625 12.5344 20.8612 12.669C20.6599 12.8035 20.4233 12.8753 20.1811 12.8754ZM11 3.48347C11.0788 3.48349 11.1544 3.51482 11.2102 3.57058L19.7361 12.0962C19.8559 12.2107 20.0153 12.2746 20.1811 12.2746C20.3469 12.2746 20.5063 12.2107 20.6262 12.0962C20.6847 12.0377 20.7311 11.9684 20.7628 11.892C20.7945 11.8156 20.8108 11.7337 20.8108 11.651C20.8108 11.5683 20.7945 11.4864 20.7628 11.41C20.7311 11.3336 20.6847 11.2642 20.6262 11.2058L11.4459 2.02463C11.326 1.91016 11.1666 1.84628 11.0007 1.84628C10.8349 1.84628 10.6755 1.91016 10.5555 2.02463L1.37381 11.2058C1.31528 11.2642 1.26885 11.3336 1.23716 11.41C1.20548 11.4864 1.18918 11.5683 1.18918 11.651C1.18918 11.7337 1.20548 11.8156 1.23716 11.892C1.26885 11.9684 1.31528 12.0377 1.37381 12.0962C1.49371 12.2106 1.6531 12.2745 1.81886 12.2745C1.98462 12.2745 2.14401 12.2106 2.26391 12.0962L10.7898 3.57058C10.8455 3.51482 10.9212 3.48349 11 3.48347Z" fill="#DBBB95"/>
<path d="M3.89459 8.56487C3.81574 8.56487 3.74012 8.53354 3.68437 8.47779C3.62861 8.42204 3.59729 8.34642 3.59729 8.26757V2.16168C3.59729 2.08283 3.62861 2.00721 3.68437 1.95146C3.74012 1.8957 3.81574 1.86438 3.89459 1.86438H6.67551C6.75435 1.86438 6.82997 1.8957 6.88573 1.95146C6.94148 2.00721 6.9728 2.08283 6.9728 2.16168V5.48665C6.9728 5.5655 6.94148 5.64112 6.88573 5.69687C6.82997 5.75263 6.75435 5.78395 6.67551 5.78395C6.59666 5.78395 6.52104 5.75263 6.46529 5.69687C6.40953 5.64112 6.37821 5.5655 6.37821 5.48665V2.45897H4.19188V8.26757C4.19188 8.34642 4.16056 8.42204 4.10481 8.47779C4.04905 8.53354 3.97344 8.56487 3.89459 8.56487Z" fill="#DBBB95"/>
</svg>
