<svg width="22" height="22" viewBox="0 0 22 22" fill="none" xmlns="http://www.w3.org/2000/svg">
<g clip-path="url(#clip0_39_953)">
<path d="M21.6562 5.32812H18.2188V4.29688C18.2188 3.79545 18.0196 3.31456 17.665 2.96C17.3104 2.60544 16.8295 2.40625 16.3281 2.40625C15.8267 2.40625 15.3458 2.60544 14.9913 2.96C14.6367 3.31456 14.4375 3.79545 14.4375 4.29688V5.32812H7.21875C7.12758 5.32812 7.04015 5.36434 6.97568 5.42881C6.91122 5.49327 6.875 5.58071 6.875 5.67188V6.875C6.875 7.19409 6.74824 7.50011 6.52261 7.72574C6.29698 7.95137 5.99096 8.07812 5.67188 8.07812C5.35279 8.07812 5.04677 7.95137 4.82114 7.72574C4.59551 7.50011 4.46875 7.19409 4.46875 6.875V5.67188C4.46875 5.58071 4.43253 5.49327 4.36807 5.42881C4.3036 5.36434 4.21617 5.32812 4.125 5.32812H0.34375C0.252582 5.32812 0.165148 5.36434 0.100682 5.42881C0.0362164 5.49327 0 5.58071 0 5.67188L0 16.3281C0 16.4193 0.0362164 16.5067 0.100682 16.5712C0.165148 16.6357 0.252582 16.6719 0.34375 16.6719H3.78125V17.7031C3.78125 18.2045 3.98044 18.6854 4.335 19.04C4.68956 19.3946 5.17045 19.5938 5.67188 19.5938C6.1733 19.5938 6.65419 19.3946 7.00875 19.04C7.36331 18.6854 7.5625 18.2045 7.5625 17.7031V16.6719H14.7812C14.8724 16.6719 14.9599 16.6357 15.0243 16.5712C15.0888 16.5067 15.125 16.4193 15.125 16.3281V15.125C15.125 14.8059 15.2518 14.4999 15.4774 14.2743C15.703 14.0486 16.009 13.9219 16.3281 13.9219C16.6472 13.9219 16.9532 14.0486 17.1789 14.2743C17.4045 14.4999 17.5312 14.8059 17.5312 15.125V16.3281C17.5312 16.4193 17.5675 16.5067 17.6319 16.5712C17.6964 16.6357 17.7838 16.6719 17.875 16.6719H21.6562C21.7474 16.6719 21.8349 16.6357 21.8993 16.5712C21.9638 16.5067 22 16.4193 22 16.3281V5.67188C22 5.58071 21.9638 5.49327 21.8993 5.42881C21.8349 5.36434 21.7474 5.32812 21.6562 5.32812ZM7.21875 15.9844C7.12758 15.9844 7.04015 16.0206 6.97568 16.0851C6.91122 16.1495 6.875 16.237 6.875 16.3281V17.7031C6.875 18.0222 6.74824 18.3282 6.52261 18.5539C6.29698 18.7795 5.99096 18.9062 5.67188 18.9062C5.35279 18.9062 5.04677 18.7795 4.82114 18.5539C4.59551 18.3282 4.46875 18.0222 4.46875 17.7031V16.3281C4.46875 16.237 4.43253 16.1495 4.36807 16.0851C4.3036 16.0206 4.21617 15.9844 4.125 15.9844H0.6875V6.01562H3.78125V6.875C3.78125 7.37642 3.98044 7.85731 4.335 8.21187C4.68956 8.56643 5.17045 8.76562 5.67188 8.76562C6.1733 8.76562 6.65419 8.56643 7.00875 8.21187C7.36331 7.85731 7.5625 7.37642 7.5625 6.875V6.01562H10.6562V9.10938H9.79688C9.29545 9.10938 8.81456 9.30857 8.46 9.66313C8.10544 10.0177 7.90625 10.4986 7.90625 11C7.90625 11.5014 8.10544 11.9823 8.46 12.3369C8.81456 12.6914 9.29545 12.8906 9.79688 12.8906H10.6562V15.9844H7.21875ZM21.3125 15.9844H18.2188V15.125C18.2188 14.6236 18.0196 14.1427 17.665 13.7881C17.3104 13.4336 16.8295 13.2344 16.3281 13.2344C15.8267 13.2344 15.3458 13.4336 14.9913 13.7881C14.6367 14.1427 14.4375 14.6236 14.4375 15.125V15.9844H11.3438V12.5469C11.3438 12.4557 11.3075 12.3683 11.2431 12.3038C11.1786 12.2393 11.0912 12.2031 11 12.2031H9.79688C9.47779 12.2031 9.17177 12.0764 8.94614 11.8507C8.72051 11.6251 8.59375 11.3191 8.59375 11C8.59375 10.6809 8.72051 10.3749 8.94614 10.1493C9.17177 9.92363 9.47779 9.79688 9.79688 9.79688H11C11.0912 9.79688 11.1786 9.76066 11.2431 9.69619C11.3075 9.63173 11.3438 9.54429 11.3438 9.45312V6.01562H14.7812C14.8724 6.01562 14.9599 5.97941 15.0243 5.91494C15.0888 5.85048 15.125 5.76304 15.125 5.67188V4.29688C15.125 3.97779 15.2518 3.67177 15.4774 3.44614C15.703 3.22051 16.009 3.09375 16.3281 3.09375C16.6472 3.09375 16.9532 3.22051 17.1789 3.44614C17.4045 3.67177 17.5312 3.97779 17.5312 4.29688V5.67188C17.5312 5.76304 17.5675 5.85048 17.6319 5.91494C17.6964 5.97941 17.7838 6.01562 17.875 6.01562H21.3125V15.9844Z" fill="#DBBB95"/>
</g>
<defs>
<clipPath id="clip0_39_953">
<rect width="22" height="22" fill="white"/>
</clipPath>
</defs>
</svg>
