<svg width="23" height="23" viewBox="0 0 23 23" fill="none" xmlns="http://www.w3.org/2000/svg">
<path d="M11.5 1.86475H22.0676V2.48637H11.5V1.86475Z" fill="#DBBB95"/>
<path d="M11.5 4.9729H22.0676V5.59452H11.5V4.9729Z" fill="#DBBB95"/>
<path d="M11.5 8.08105H22.0676V8.70268H11.5V8.08105Z" fill="#DBBB95"/>
<path d="M0.932373 11.1892H22.0675V11.8108H0.932373V11.1892Z" fill="#DBBB95"/>
<path d="M0.932373 14.2974H22.0675V14.919H0.932373V14.2974Z" fill="#DBBB95"/>
<path d="M0.932373 17.4055H22.0675V18.0271H0.932373V17.4055Z" fill="#DBBB95"/>
<path d="M0.932373 20.5134H22.0675V21.135H0.932373V20.5134Z" fill="#DBBB95"/>
<path d="M8.4193 8.51939L5.90546 2.93319L3.39163 8.51939L2.82471 8.26453L5.622 2.04831C5.64657 1.99369 5.68639 1.94734 5.73668 1.91481C5.78697 1.88229 5.84558 1.86499 5.90546 1.86499C5.96535 1.86499 6.02396 1.88229 6.07425 1.91481C6.12454 1.94734 6.16436 1.99369 6.18892 2.04831L8.98622 8.26453L8.4193 8.51939Z" fill="#DBBB95"/>
<path d="M4.35132 5.59448H7.42058V6.2161H4.35132V5.59448Z" fill="#DBBB95"/>
</svg>
