<svg width="23" height="23" viewBox="0 0 23 23" fill="none" xmlns="http://www.w3.org/2000/svg">
<path d="M11.5 22.3783C9.78891 22.3764 8.14846 21.6958 6.93853 20.4858C5.7286 19.2759 5.04799 17.6355 5.04602 15.9244V10.8053C5.04602 9.0936 5.72599 7.452 6.93635 6.24165C8.14671 5.03129 9.7883 4.35132 11.5 4.35132C13.2117 4.35132 14.8533 5.03129 16.0637 6.24165C17.274 7.452 17.954 9.0936 17.954 10.8053V15.9244C17.952 17.6355 17.2714 19.2759 16.0615 20.4858C14.8516 21.6958 13.2111 22.3764 11.5 22.3783ZM11.5 4.97294C9.9537 4.97467 8.47122 5.5897 7.37781 6.68311C6.2844 7.77651 5.66937 9.259 5.66764 10.8053V15.9244C5.66764 17.4712 6.28212 18.9547 7.3759 20.0485C8.46968 21.1422 9.95317 21.7567 11.5 21.7567C13.0468 21.7567 14.5303 21.1422 15.6241 20.0485C16.7179 18.9547 17.3324 17.4712 17.3324 15.9244V10.8053C17.3306 9.259 16.7156 7.77651 15.6222 6.68311C14.5288 5.5897 13.0463 4.97467 11.5 4.97294Z" fill="#DBBB95"/>
<path d="M17.6416 11.8108H5.35836C5.27593 11.8108 5.19687 11.7781 5.13858 11.7198C5.08029 11.6615 5.04755 11.5825 5.04755 11.5C5.04755 11.4176 5.08029 11.3385 5.13858 11.2802C5.19687 11.222 5.27593 11.1892 5.35836 11.1892H17.6416C17.724 11.1892 17.8031 11.222 17.8614 11.2802C17.9197 11.3385 17.9524 11.4176 17.9524 11.5C17.9524 11.5825 17.9197 11.6615 17.8614 11.7198C17.8031 11.7781 17.724 11.8108 17.6416 11.8108Z" fill="#DBBB95"/>
<path d="M11.5 11.8108C11.4176 11.8108 11.3385 11.7781 11.2802 11.7198C11.222 11.6615 11.1892 11.5824 11.1892 11.5V9.94594C11.1892 9.86351 11.222 9.78445 11.2802 9.72617C11.3385 9.66788 11.4176 9.63513 11.5 9.63513C11.5825 9.63513 11.6615 9.66788 11.7198 9.72617C11.7781 9.78445 11.8108 9.86351 11.8108 9.94594V11.5C11.8108 11.5824 11.7781 11.6615 11.7198 11.7198C11.6615 11.7781 11.5825 11.8108 11.5 11.8108Z" fill="#DBBB95"/>
<path d="M11.5 6.90245C11.4176 6.90245 11.3385 6.8697 11.2802 6.81141C11.222 6.75312 11.1892 6.67407 11.1892 6.59164V4.35131C11.1897 3.85687 11.3863 3.38282 11.736 3.0332C12.0856 2.68358 12.5596 2.48694 13.0541 2.48645H13.9865C14.3162 2.48645 14.6325 2.35546 14.8656 2.12231C15.0988 1.88916 15.2297 1.57293 15.2297 1.2432V0.932393C15.2297 0.849961 15.2625 0.770905 15.3208 0.712616C15.3791 0.654328 15.4581 0.621582 15.5406 0.621582C15.623 0.621582 15.702 0.654328 15.7603 0.712616C15.8186 0.770905 15.8514 0.849961 15.8514 0.932393V1.2432C15.8509 1.73765 15.6542 2.21169 15.3046 2.56132C14.955 2.91094 14.4809 3.10757 13.9865 3.10807H13.0541C12.7243 3.10807 12.4081 3.23905 12.175 3.47221C11.9418 3.70536 11.8108 4.02158 11.8108 4.35131V6.59164C11.8108 6.67407 11.7781 6.75312 11.7198 6.81141C11.6615 6.8697 11.5825 6.90245 11.5 6.90245Z" fill="#DBBB95"/>
<path d="M11.5 10.2567C11.1859 10.2564 10.8847 10.1314 10.6626 9.90932C10.4404 9.6872 10.3155 9.38603 10.3152 9.0719V7.46594C10.3152 7.15171 10.44 6.85035 10.6622 6.62815C10.8844 6.40596 11.1858 6.28113 11.5 6.28113C11.8142 6.28113 12.1156 6.40596 12.3378 6.62815C12.56 6.85035 12.6848 7.15171 12.6848 7.46594V9.0719C12.6845 9.38603 12.5595 9.6872 12.3374 9.90932C12.1153 10.1314 11.8141 10.2564 11.5 10.2567ZM11.5 6.90244C11.3506 6.9026 11.2074 6.96203 11.1018 7.06768C10.9962 7.17333 10.9369 7.31657 10.9368 7.46594V9.0719C10.9368 9.22127 10.9961 9.36452 11.1018 9.47013C11.2074 9.57575 11.3506 9.63509 11.5 9.63509C11.6494 9.63509 11.7926 9.57575 11.8982 9.47013C12.0038 9.36452 12.0632 9.22127 12.0632 9.0719V7.46594C12.0631 7.31657 12.0038 7.17333 11.8982 7.06768C11.7926 6.96203 11.6494 6.9026 11.5 6.90244Z" fill="#DBBB95"/>
</svg>
