<svg width="23" height="23" viewBox="0 0 23 23" fill="none" xmlns="http://www.w3.org/2000/svg">
<g clip-path="url(#clip0_39_1039)">
<path d="M22.9999 5.56131C22.9999 5.74543 23.0004 16.7599 22.9991 16.8092C22.9517 18.622 21.5014 20.0926 19.6839 20.0926C17.8555 20.0926 16.3679 18.605 16.3679 16.7766C16.3679 14.4106 18.7316 12.8793 20.8454 13.6698C21.0438 13.744 21.1444 13.9649 21.0702 14.1633C20.996 14.3617 20.775 14.4625 20.5767 14.3881C18.9171 13.7674 17.1348 14.9907 17.1348 16.7766C17.1348 18.1821 18.2783 19.3256 19.6839 19.3256C21.0895 19.3256 22.2329 18.1821 22.2329 16.7766V8.65833L12.9455 10.0872C12.7366 10.1193 12.5404 9.97615 12.5081 9.76648C12.4759 9.55715 12.6195 9.36134 12.8288 9.32913L22.2329 7.88236V5.56136C22.2329 5.32686 22.0247 5.14624 21.7912 5.18234L11.4269 6.77689C11.0501 6.83484 10.7765 7.15361 10.7765 7.53488V18.6623C10.7765 20.4861 9.29282 21.9698 7.46905 21.9698C5.64528 21.9698 4.16155 20.4861 4.16155 18.6623C4.16155 16.4505 6.28933 14.8619 8.41116 15.491C8.61421 15.5513 8.72997 15.7647 8.66977 15.9678C8.60956 16.1708 8.39611 16.2865 8.19306 16.2264C6.56519 15.7434 4.92851 16.9623 4.92851 18.6623C4.92851 20.0632 6.06816 21.2028 7.46905 21.2028C8.86994 21.2028 10.0096 20.0632 10.0096 18.6623V7.53483C10.0096 6.77229 10.5566 6.13471 11.3103 6.01875L21.6746 4.4242C22.3752 4.31702 22.9999 4.85969 22.9999 5.56131ZM4.90655 8.72285C4.93891 8.63072 4.92851 9.01136 4.92851 2.53155C5.44898 3.04929 6.0879 3.42769 6.79748 3.62944C7.0013 3.68745 7.21327 3.56914 7.27122 3.36542C7.32913 3.16174 7.21092 2.94963 7.0072 2.89168C6.10358 2.6348 5.36658 2.05656 4.87583 1.21952C4.67877 0.883646 4.16155 1.02362 4.16155 1.41352C4.16155 9.44589 4.14367 8.51208 4.14367 8.58527C4.14367 9.51621 3.38625 10.2736 2.45531 10.2736C1.52437 10.2737 0.766956 9.51626 0.766956 8.58532C0.766956 7.65433 1.52437 6.89692 2.45536 6.89692C2.66714 6.89692 2.83884 6.72521 2.83884 6.51344C2.83884 6.30166 2.66714 6.12996 2.45536 6.12996C1.10149 6.12996 0 7.23145 0 8.58532C0 9.93919 1.10149 11.0406 2.45536 11.0406C3.76307 11.0406 4.83499 10.013 4.90655 8.72285Z" fill="#DBBB95"/>
</g>
<defs>
<clipPath id="clip0_39_1039">
<rect width="23" height="23" fill="white"/>
</clipPath>
</defs>
</svg>
