<svg width="22" height="22" viewBox="0 0 22 22" fill="none" xmlns="http://www.w3.org/2000/svg">
<path d="M19.9189 21.4053H2.08109C1.687 21.4048 1.30918 21.2481 1.03051 20.9694C0.75184 20.6907 0.595077 20.3129 0.594604 19.9188V2.08097C0.595077 1.68687 0.75184 1.30905 1.03051 1.03039C1.30918 0.751718 1.687 0.594954 2.08109 0.594482H19.9189C20.313 0.594954 20.6908 0.751718 20.9695 1.03039C21.2482 1.30905 21.4049 1.68687 21.4054 2.08097V19.9188C21.4049 20.3129 21.2482 20.6907 20.9695 20.9694C20.6908 21.2481 20.313 21.4048 19.9189 21.4053ZM2.08109 1.18908C1.84455 1.18908 1.61769 1.28304 1.45043 1.45031C1.28317 1.61757 1.1892 1.84442 1.1892 2.08097V19.9188C1.1892 20.1554 1.28317 20.3822 1.45043 20.5495C1.61769 20.7167 1.84455 20.8107 2.08109 20.8107H19.9189C20.1555 20.8107 20.3823 20.7167 20.5496 20.5495C20.7169 20.3822 20.8108 20.1554 20.8108 19.9188V2.08097C20.8108 1.84442 20.7169 1.61757 20.5496 1.45031C20.3823 1.28304 20.1555 1.18908 19.9189 1.18908H2.08109Z" fill="#DBBB95"/>
<path d="M12.8825 17.7392L6.41445 11.2715L1.11245 17.1452L0.671265 16.7469L6.18375 10.641C6.21077 10.611 6.2436 10.5869 6.28024 10.57C6.31689 10.5531 6.35659 10.5439 6.39691 10.5429C6.43731 10.5407 6.47768 10.5474 6.51525 10.5624C6.55282 10.5774 6.58669 10.6003 6.61453 10.6297L13.3037 17.3189L12.8825 17.7392Z" fill="#DBBB95"/>
<path d="M10.0439 14.4804L9.62354 14.06L15.4095 8.2743C15.4653 8.21857 15.5409 8.18726 15.6197 8.18726C15.6986 8.18726 15.7742 8.21857 15.8299 8.2743L21.3183 13.7627L20.8979 14.1831L15.6197 8.90487L10.0439 14.4804Z" fill="#DBBB95"/>
<path d="M9.81075 8.6215C9.34035 8.6215 8.88052 8.48201 8.4894 8.22068C8.09827 7.95934 7.79343 7.58788 7.61342 7.15329C7.4334 6.7187 7.3863 6.24049 7.47807 5.77913C7.56984 5.31777 7.79636 4.89398 8.12899 4.56136C8.46161 4.22874 8.88539 4.00222 9.34675 3.91045C9.80811 3.81868 10.2863 3.86578 10.7209 4.04579C11.1555 4.2258 11.527 4.53065 11.7883 4.92177C12.0496 5.31289 12.1891 5.77273 12.1891 6.24313C12.1884 6.87369 11.9376 7.47823 11.4917 7.92411C11.0459 8.36999 10.4413 8.6208 9.81075 8.6215ZM9.81075 4.45934C9.45795 4.45934 9.11308 4.56396 8.81974 4.75996C8.52639 4.95597 8.29776 5.23456 8.16275 5.5605C8.02774 5.88645 7.99242 6.2451 8.06124 6.59112C8.13007 6.93714 8.29996 7.25499 8.54943 7.50445C8.79889 7.75392 9.11673 7.92381 9.46275 7.99264C9.80877 8.06146 10.1674 8.02614 10.4934 7.89113C10.8193 7.75612 11.0979 7.52748 11.2939 7.23414C11.4899 6.9408 11.5945 6.59593 11.5945 6.24313C11.594 5.77021 11.4059 5.31681 11.0715 4.98241C10.7371 4.648 10.2837 4.45989 9.81075 4.45934Z" fill="#DBBB95"/>
</svg>
