<svg width="22" height="22" viewBox="0 0 22 22" fill="none" xmlns="http://www.w3.org/2000/svg">
<path d="M19.9189 19.3244H2.08109C1.687 19.3239 1.30918 19.1672 1.03051 18.8885C0.75184 18.6098 0.595077 18.232 0.594604 17.8379V6.24332C0.595077 5.84923 0.75184 5.47141 1.03051 5.19274C1.30918 4.91407 1.687 4.75731 2.08109 4.75684H19.9189C20.313 4.75731 20.6908 4.91407 20.9695 5.19274C21.2482 5.47141 21.4049 5.84923 21.4054 6.24332V17.8379C21.4049 18.232 21.2482 18.6098 20.9695 18.8885C20.6908 19.1672 20.313 19.3239 19.9189 19.3244ZM2.08109 5.35143C1.84455 5.35143 1.61769 5.4454 1.45043 5.61266C1.28317 5.77992 1.1892 6.00678 1.1892 6.24332V17.8379C1.1892 18.0745 1.28317 18.3013 1.45043 18.4686C1.61769 18.6358 1.84455 18.7298 2.08109 18.7298H19.9189C20.1555 18.7298 20.3823 18.6358 20.5496 18.4686C20.7169 18.3013 20.8108 18.0745 20.8108 17.8379V6.24332C20.8108 6.00678 20.7169 5.77992 20.5496 5.61266C20.3823 5.4454 20.1555 5.35143 19.9189 5.35143H2.08109Z" fill="#DBBB95"/>
<path d="M18.2838 13.0812H12.6351V12.4866H18.2838C18.9538 12.4858 19.5961 12.2193 20.0698 11.7455C20.5435 11.2718 20.81 10.6295 20.8108 9.95954V6.24332C20.8108 6.00678 20.7169 5.77992 20.5496 5.61266C20.3823 5.4454 20.1555 5.35143 19.9189 5.35143H2.08109C1.84455 5.35143 1.61769 5.4454 1.45043 5.61266C1.28317 5.77992 1.1892 6.00678 1.1892 6.24332V9.95954C1.18999 10.6295 1.45648 11.2718 1.93022 11.7455C2.40396 12.2193 3.04626 12.4858 3.71623 12.4866H9.36488V13.0812H3.71623C2.88861 13.0802 2.09516 12.751 1.50995 12.1658C0.924736 11.5806 0.595549 10.7872 0.594604 9.95954V6.24332C0.595077 5.84923 0.75184 5.47141 1.03051 5.19274C1.30918 4.91407 1.687 4.75731 2.08109 4.75684H19.9189C20.313 4.75731 20.6908 4.91407 20.9695 5.19274C21.2482 5.47141 21.4049 5.84923 21.4054 6.24332V9.95954C21.4045 10.7872 21.0753 11.5806 20.4901 12.1658C19.9049 12.751 19.1114 13.0802 18.2838 13.0812Z" fill="#DBBB95"/>
<path d="M12.3379 14.2703H9.66222C9.50453 14.2703 9.35329 14.2077 9.24178 14.0962C9.13027 13.9847 9.06763 13.8334 9.06763 13.6757V11.892C9.06763 11.7343 9.13027 11.583 9.24178 11.4715C9.35329 11.36 9.50453 11.2974 9.66222 11.2974H12.3379C12.4956 11.2974 12.6468 11.36 12.7583 11.4715C12.8698 11.583 12.9325 11.7343 12.9325 11.892V13.6757C12.9325 13.8334 12.8698 13.9847 12.7583 14.0962C12.6468 14.2077 12.4956 14.2703 12.3379 14.2703ZM12.3379 11.892H9.66222V13.6757H12.3379V11.892Z" fill="#DBBB95"/>
<path d="M13.973 5.35139H8.02703C7.94819 5.35139 7.87257 5.32007 7.81681 5.26431C7.76106 5.20856 7.72974 5.13294 7.72974 5.05409V3.8649C7.73021 3.47081 7.88697 3.09299 8.16564 2.81432C8.44431 2.53565 8.82213 2.37889 9.21622 2.37842H12.7838C13.1779 2.37889 13.5557 2.53565 13.8344 2.81432C14.113 3.09299 14.2698 3.47081 14.2703 3.8649V5.05409C14.2703 5.13294 14.239 5.20856 14.1832 5.26431C14.1274 5.32007 14.0518 5.35139 13.973 5.35139ZM8.32433 4.7568H13.6757V3.8649C13.6757 3.62836 13.5817 3.4015 13.4145 3.23424C13.2472 3.06698 13.0203 2.97301 12.7838 2.97301H9.21622C8.97968 2.97301 8.75282 3.06698 8.58556 3.23424C8.4183 3.4015 8.32433 3.62836 8.32433 3.8649V4.7568Z" fill="#DBBB95"/>
</svg>
