<svg width="21" height="21" viewBox="0 0 21 21" fill="none" xmlns="http://www.w3.org/2000/svg">
<g clip-path="url(#clip0_39_884)">
<path d="M11.201 16.4813C11.3711 16.4813 11.5089 16.3434 11.5089 16.1733C11.5089 16.0032 11.3711 15.8654 11.201 15.8654H9.79904C9.62896 15.8654 9.49109 16.0032 9.49109 16.1733C9.49109 16.3435 9.62896 16.4813 9.79904 16.4813H11.201Z" fill="#DBBB95"/>
<path d="M19.6522 2.93126H17.0699L17.5011 2.50009C17.7031 2.29808 17.7031 1.96954 17.5011 1.76753L16.797 1.06341C16.595 0.861451 16.2665 0.861451 16.0644 1.06341L15.6279 1.5C15.3528 1.34342 15.06 1.222 14.7558 1.1383V0.521414C14.7558 0.235827 14.5234 0.00341797 14.2378 0.00341797H13.242C12.9564 0.00341797 12.7241 0.235786 12.7241 0.521414V1.13826C12.4198 1.22196 12.1271 1.34338 11.8519 1.5L11.4154 1.06341C11.2133 0.861451 10.8848 0.861451 10.6828 1.06341L9.97872 1.76753C9.77676 1.96954 9.77676 2.29808 9.97872 2.50009L10.41 2.93126H1.34784C0.604616 2.93126 0 3.53592 0 4.27914V16.4553C0 17.1985 0.604616 17.8032 1.34784 17.8032H4.20383C4.37391 17.8032 4.51178 17.6653 4.51178 17.4952C4.51178 17.325 4.37391 17.1872 4.20383 17.1872H1.34784C0.944284 17.1872 0.615941 16.8589 0.615941 16.4553V15.16H1.59194H20.3841V16.4553C20.3841 16.8589 20.0558 17.1872 19.6522 17.1872H5.66804C5.49796 17.1872 5.36009 17.3251 5.36009 17.4952C5.36009 17.6653 5.49796 17.8032 5.66804 17.8032H8.19598C8.17308 18.5062 8.103 19.7222 7.9451 20.3811H6.8778C6.70772 20.3811 6.56986 20.5189 6.56986 20.6891C6.56986 20.8592 6.70772 20.997 6.8778 20.997H14.1222C14.2924 20.997 14.4302 20.8591 14.4302 20.6891C14.4302 20.5189 14.2923 20.3811 14.1222 20.3811H13.055C12.8972 19.7224 12.827 18.5063 12.8041 17.8032H19.6522C20.3954 17.8032 21 17.1985 21 16.4553V4.27914C21 3.53592 20.3954 2.93126 19.6522 2.93126ZM8.57524 20.3811C8.73814 19.5835 8.79415 18.3667 8.81204 17.8032H12.188C12.2058 18.3667 12.2619 19.5835 12.4248 20.3811H8.57524ZM10.9044 2.55466L10.4835 2.13383L11.0491 1.56828L11.47 1.98915C11.6378 2.15681 11.8977 2.18881 12.1022 2.06699C12.3665 1.90963 12.6508 1.79166 12.9475 1.71628C13.1786 1.65744 13.34 1.45084 13.34 1.2138V0.6194H14.1399V1.2138C14.1399 1.45084 14.3013 1.65748 14.5324 1.71628C14.8291 1.7917 15.1135 1.90975 15.3775 2.06691C15.5822 2.18886 15.8422 2.15689 16.0099 1.98911L16.4308 1.56828L16.9963 2.13383L16.5754 2.55474C16.4078 2.7224 16.3758 2.98239 16.4976 3.18702C16.6549 3.45106 16.7729 3.73546 16.8483 4.03212C16.907 4.2633 17.1137 4.42476 17.3508 4.42476H17.9452V5.22461H17.3508C17.1136 5.22461 16.907 5.38608 16.8483 5.61713C16.7729 5.91384 16.6549 6.19819 16.4975 6.46236C16.3758 6.66695 16.4078 6.92697 16.5755 7.09463L16.9963 7.51546L16.4308 8.08102L16.0099 7.66014C15.8422 7.49244 15.5821 7.46048 15.3777 7.58226C15.1135 7.73958 14.8291 7.85759 14.5324 7.93301C14.3013 7.99177 14.1399 8.19837 14.1399 8.43546V9.02985H13.34V8.43546C13.34 8.19833 13.1786 7.99169 12.9474 7.93301C12.6507 7.85755 12.3664 7.73958 12.1022 7.58222C11.8977 7.46052 11.6377 7.49253 11.4699 7.66014L11.0491 8.08102L10.4835 7.51546L10.9044 7.09463C11.0721 6.92689 11.1041 6.66687 10.9823 6.46232C10.825 6.19815 10.707 5.9138 10.6316 5.61717C10.5729 5.38603 10.3662 5.22461 10.1291 5.22461H9.53471V4.42476H10.1291C10.3662 4.42476 10.5729 4.2633 10.6316 4.03216C10.707 3.7355 10.825 3.45114 10.9823 3.18702C11.1041 2.98247 11.0721 2.72249 10.9044 2.55466ZM1.28395 5.10652V14.5441H0.615941V4.27914C0.615941 3.87558 0.944243 3.54724 1.34784 3.54724H10.1363C10.1057 3.63341 10.0779 3.72056 10.0536 3.80882H9.43676C9.15113 3.80882 8.91881 4.04119 8.91881 4.32678V4.34385H2.04667C1.62612 4.34381 1.28395 4.68594 1.28395 5.10652ZM19.1001 14.544H1.89989V5.10652C1.89989 5.0256 1.96575 4.95975 2.04667 4.95975H8.91877V5.32252C8.91877 5.6081 9.15114 5.84051 9.43672 5.84051H10.0536C10.1373 6.14477 10.2587 6.43745 10.4153 6.71262L9.97876 7.14917C9.7768 7.35117 9.7768 7.67972 9.97876 7.88172L10.6828 8.58584C10.8849 8.7878 11.2134 8.7878 11.4154 8.58584L11.8519 8.14929C12.127 8.30587 12.4197 8.42729 12.7241 8.51108V9.12792C12.7241 9.41351 12.9565 9.64588 13.242 9.64588H14.2378C14.5234 9.64588 14.7558 9.41355 14.7558 9.12792V8.51104C15.0601 8.42729 15.3528 8.30587 15.6279 8.14929L16.0645 8.58584C16.2665 8.7878 16.595 8.7878 16.797 8.58584L17.5012 7.88172C17.7031 7.67976 17.7031 7.35117 17.5012 7.14917L17.0646 6.71262C17.2211 6.43758 17.3426 6.14489 17.4263 5.84051H18.0432C18.3288 5.84051 18.5612 5.60814 18.5612 5.32252V4.95975H18.9534C19.0343 4.95975 19.1002 5.0256 19.1002 5.10652V14.544H19.1001ZM20.3841 14.544H19.7161V5.10652C19.7161 4.68594 19.374 4.34381 18.9534 4.34381H18.5611V4.32674C18.5611 4.04115 18.3288 3.80878 18.0431 3.80878H17.4263C17.402 3.72052 17.3742 3.63337 17.3436 3.5472H19.6522C20.0558 3.5472 20.3841 3.87554 20.3841 4.2791V14.544Z" fill="#DBBB95"/>
<path d="M13.74 7.21165C15.0563 7.21165 16.1272 6.14074 16.1272 4.82441C16.1272 3.50804 15.0563 2.43713 13.74 2.43713C13.5173 2.43713 13.2967 2.46783 13.0844 2.52831C12.9208 2.57492 12.826 2.74537 12.8727 2.90893C12.9194 3.07248 13.0897 3.16723 13.2533 3.12066C13.4106 3.07577 13.5744 3.05303 13.7399 3.05303C14.7166 3.05303 15.5112 3.84767 15.5112 4.82437C15.5112 5.80107 14.7166 6.59567 13.7399 6.59567C12.7632 6.59567 11.9686 5.80107 11.9686 4.82437C11.9686 4.46936 12.0732 4.12698 12.271 3.83417C12.3662 3.69327 12.3291 3.50181 12.1882 3.40657C12.0473 3.31137 11.8558 3.34843 11.7606 3.48937C11.4937 3.88435 11.3527 4.34597 11.3527 4.82433C11.3527 6.14078 12.4236 7.21165 13.74 7.21165Z" fill="#DBBB95"/>
<path d="M14.9817 4.82437C14.9817 4.13966 14.4247 3.58264 13.74 3.58264C13.0552 3.58264 12.4982 4.13966 12.4982 4.82437C12.4982 5.50908 13.0552 6.0661 13.74 6.0661C14.4247 6.0661 14.9817 5.50908 14.9817 4.82437ZM13.1141 4.82437C13.1141 4.47933 13.3949 4.19858 13.7399 4.19858C14.085 4.19858 14.3657 4.47933 14.3657 4.82437C14.3657 5.16941 14.085 5.45016 13.7399 5.45016C13.3949 5.45016 13.1141 5.16945 13.1141 4.82437Z" fill="#DBBB95"/>
<path d="M9.58125 9.19685H9.16325C9.10355 8.99468 9.02251 8.7992 8.92132 8.61361L9.21708 8.31781C9.30567 8.22926 9.35446 8.11154 9.35446 7.98631C9.35446 7.86112 9.30571 7.74343 9.21713 7.6548L8.67792 7.1156C8.49516 6.93279 8.19775 6.93275 8.01495 7.1156L7.71915 7.4114C7.53352 7.31021 7.33808 7.22917 7.13587 7.16947V6.75147C7.13587 6.49297 6.92558 6.28271 6.66707 6.28271H5.90448C5.64602 6.28271 5.43568 6.49301 5.43568 6.75147V7.16947C5.23347 7.22913 5.03808 7.31021 4.8524 7.4114L4.5566 7.1156C4.37384 6.93279 4.07644 6.93284 3.89364 7.1156L3.35434 7.65489C3.17167 7.83769 3.17167 8.13509 3.35443 8.31781L3.65023 8.61361C3.54904 8.7992 3.468 8.9946 3.40826 9.19685H2.99022C2.73172 9.19685 2.52142 9.40718 2.52142 9.66565V10.4282C2.52142 10.6867 2.73172 10.897 2.99022 10.897H3.40822C3.46796 11.0993 3.54904 11.2948 3.65019 11.4803L3.3543 11.7761C3.17163 11.9589 3.17163 12.2563 3.35439 12.439L3.89355 12.9782C3.9821 13.0668 4.09987 13.1155 4.2251 13.1155C4.35037 13.1155 4.46809 13.0668 4.5566 12.9783L4.8524 12.6824C5.03808 12.7837 5.23352 12.8648 5.43568 12.9244V13.3424C5.43568 13.6009 5.64597 13.8112 5.90448 13.8112H6.66707C6.92554 13.8112 7.13587 13.6009 7.13587 13.3424V12.9244C7.33808 12.8647 7.53347 12.7837 7.71915 12.6824L8.01487 12.9782C8.10342 13.0668 8.22118 13.1155 8.34641 13.1155C8.47169 13.1155 8.58941 13.0668 8.67792 12.9783L9.21708 12.439C9.30567 12.3505 9.35446 12.2328 9.35446 12.1075C9.35446 11.9824 9.30571 11.8647 9.21713 11.776L8.92132 11.4803C9.02251 11.2946 9.10359 11.0992 9.16325 10.897H9.58125C9.83971 10.897 10.05 10.6867 10.05 10.4282V9.66565C10.05 9.40714 9.83975 9.19685 9.58125 9.19685ZM9.43411 10.2811H9.05102C8.83647 10.2811 8.64948 10.427 8.5963 10.6361C8.54025 10.8565 8.45256 11.0679 8.33562 11.2642C8.22549 11.4493 8.2545 11.6845 8.40628 11.8364L8.67755 12.1076L8.34641 12.4387L8.07519 12.1675C7.92341 12.0157 7.68813 11.9867 7.50307 12.0968C7.30669 12.2138 7.09537 12.3015 6.87486 12.3575C6.66588 12.4106 6.51993 12.5976 6.51993 12.8122V13.1953H6.05162V12.8122C6.05162 12.5976 5.90567 12.4106 5.69661 12.3575C5.47618 12.3015 5.26486 12.2138 5.06852 12.0969C4.88342 11.9866 4.64814 12.0157 4.49641 12.1674L4.2251 12.4387L3.89396 12.1076L4.16527 11.8363C4.31697 11.6846 4.34602 11.4493 4.23585 11.2642C4.11895 11.0679 4.03126 10.8566 3.97521 10.6361C3.92211 10.4271 3.73513 10.2811 3.52049 10.2811H3.13736V9.81275H3.52044C3.73509 9.81275 3.92207 9.6668 3.97513 9.45778C4.03122 9.23727 4.11891 9.02595 4.23585 8.82957C4.34598 8.64455 4.31697 8.40931 4.16519 8.25749L3.89388 7.98623L4.22502 7.65509L4.49628 7.92636C4.64806 8.07818 4.88334 8.10723 5.0684 7.99702C5.26478 7.88007 5.4761 7.79239 5.69657 7.73634C5.90559 7.6832 6.05154 7.49621 6.05154 7.28165V6.89857H6.51985V7.28165C6.51985 7.49621 6.6658 7.6832 6.87478 7.73634C7.09525 7.79239 7.30661 7.88007 7.50291 7.99698C7.68805 8.10727 7.92333 8.07814 8.07502 7.9264L8.34629 7.65509L8.67742 7.98623L8.40612 8.25753C8.25438 8.40935 8.22533 8.64463 8.33554 8.82961C8.45248 9.02599 8.54017 9.23735 8.59622 9.45782C8.64936 9.6668 8.83634 9.81275 9.05094 9.81275H9.43402V10.2811H9.43411Z" fill="#DBBB95"/>
<path d="M6.28572 8.41748C5.38727 8.41748 4.65631 9.14844 4.65631 10.0469C4.65631 10.9453 5.38727 11.6763 6.28572 11.6763C7.18417 11.6763 7.91512 10.9453 7.91512 10.0469C7.91512 9.14844 7.18421 8.41748 6.28572 8.41748ZM6.28572 11.0603C5.72689 11.0603 5.27225 10.6057 5.27225 10.0469C5.27225 9.48802 5.72689 9.03342 6.28572 9.03342C6.84454 9.03342 7.29918 9.48802 7.29918 10.0469C7.29918 10.6057 6.84458 11.0603 6.28572 11.0603Z" fill="#DBBB95"/>
</g>
<defs>
<clipPath id="clip0_39_884">
<rect width="21" height="21" fill="white"/>
</clipPath>
</defs>
</svg>
