<svg width="19" height="19" viewBox="0 0 19 19" fill="none" xmlns="http://www.w3.org/2000/svg">
<g clip-path="url(#clip0_39_858)">
<path d="M18.7211 18.4422H16.9178V7.41779C16.9178 7.26379 16.793 7.13892 16.6389 7.13892H13.6644C13.5103 7.13892 13.3855 7.26379 13.3855 7.41779V18.4422H11.2661V10.6898C11.2661 10.5358 11.1413 10.4109 10.9873 10.4109H8.01273C7.85869 10.4109 7.73385 10.5358 7.73385 10.6898V18.4422H5.6145V12.1771C5.6145 12.0231 5.48966 11.8982 5.33562 11.8982H2.36108C2.20704 11.8982 2.08221 12.0231 2.08221 12.1771V18.4422H0.278877C0.124836 18.4422 0 18.5671 0 18.7211C0 18.8751 0.124836 19 0.278877 19H18.7211C18.8752 19 19 18.8751 19 18.7211C19 18.5671 18.8752 18.4422 18.7211 18.4422ZM5.05675 18.4422H2.63992V12.4559H5.05675V18.4422ZM10.7084 18.4422H8.29161V10.9687H10.7084V18.4422ZM16.3601 18.4422H13.9433V7.69667H16.3601V18.4422Z" fill="#DBBB95"/>
<path d="M18.1096 0.218775C17.9217 0.0528593 17.6715 -0.0244395 17.4229 0.00680658L15.0433 0.304275C14.5709 0.363316 14.2255 0.806736 14.2846 1.27962C14.3443 1.75748 14.7815 2.09803 15.26 2.03829L15.4542 2.01405C12.5335 5.40051 9.06127 7.15066 6.60767 8.03023C3.54834 9.12699 1.16714 9.22081 1.14395 9.22158C0.662898 9.23661 0.283343 9.64025 0.29789 10.1214C0.312288 10.5965 0.69574 10.9687 1.17093 10.9687C1.17976 10.9687 1.18863 10.9686 1.19772 10.9683C1.30359 10.9651 3.82781 10.876 7.15337 9.69098C9.02286 9.02479 10.782 8.14044 12.3818 7.06252C12.5095 6.9765 12.5433 6.80313 12.4572 6.67544C12.3712 6.54767 12.1979 6.51394 12.0701 6.59999C10.509 7.6519 8.79178 8.5151 6.96615 9.16562C3.72231 10.3215 1.28303 10.4077 1.18102 10.4108L1.17093 10.4109C0.999183 10.4109 0.860542 10.2763 0.855347 10.1045C0.850077 9.93045 0.987382 9.78446 1.1615 9.77901C1.18584 9.77823 3.63499 9.68835 6.79589 8.55521C9.44398 7.60592 13.249 5.66758 16.3377 1.82439C16.4915 1.63305 16.3289 1.34252 16.0858 1.37299L15.191 1.48484C15.0359 1.50402 14.8852 1.40238 14.8458 1.2509C14.7985 1.06862 14.9259 0.880992 15.1125 0.857613L17.4922 0.560145C17.678 0.536654 17.8474 0.686836 17.8474 0.873756V3.25339C17.8474 3.42766 17.7056 3.56946 17.5313 3.56946C17.357 3.56946 17.2153 3.4277 17.2153 3.25339V2.53199C17.2153 2.41803 17.1416 2.31145 17.035 2.27118C16.9249 2.22958 16.7948 2.2645 16.7203 2.35564C15.6788 3.63187 14.4929 4.78672 13.1954 5.78808C13.0735 5.88219 13.0509 6.05731 13.145 6.17925C13.2391 6.30119 13.4143 6.32371 13.5362 6.22964C14.6663 5.35738 15.7139 4.37172 16.6585 3.29277C16.6791 3.75638 17.0627 4.12725 17.5314 4.12725C18.0132 4.12725 18.4052 3.73526 18.4052 3.25347V0.87383C18.4051 0.623342 18.2974 0.384543 18.1096 0.218775Z" fill="#DBBB95"/>
</g>
<defs>
<clipPath id="clip0_39_858">
<rect width="19" height="19" fill="white"/>
</clipPath>
</defs>
</svg>
