<svg width="20" height="18" viewBox="0 0 20 18" fill="none" xmlns="http://www.w3.org/2000/svg">
<path d="M18.5391 6.18758H18.3751V4.6257C18.3751 4.02031 17.8829 3.56258 17.2266 3.56258H7.71102C7.58049 3.56258 7.4553 3.51072 7.36299 3.41842C7.27069 3.32612 7.21883 3.20093 7.21883 3.07039V2.08602C7.21459 1.78275 7.09224 1.4931 6.87777 1.27864C6.66331 1.06418 6.37366 0.94182 6.0704 0.937578H1.14852C0.848254 0.934068 0.558825 1.04966 0.343588 1.25906C0.128351 1.46845 0.00483786 1.75459 8.4981e-05 2.05484V16.6876C-0.00189383 16.8605 0.0307036 17.032 0.0959622 17.1922C0.161221 17.3523 0.257824 17.4978 0.380098 17.6201C0.502371 17.7423 0.647848 17.8389 0.807981 17.9042C0.968115 17.9695 1.13968 18.0021 1.31258 18.0001H18.5391C18.8373 18.0058 19.1255 17.8932 19.3407 17.6868C19.556 17.4805 19.6807 17.1973 19.6876 16.8992V7.28844C19.6807 6.99035 19.556 6.70714 19.3407 6.50082C19.1255 6.29449 18.8373 6.18186 18.5391 6.18758ZM0.656335 16.6876V2.05484C0.661043 1.92864 0.715396 1.8094 0.807569 1.72306C0.899743 1.63673 1.02228 1.59028 1.14852 1.59383H6.0704C6.19989 1.59715 6.32316 1.65007 6.41475 1.74166C6.50634 1.83326 6.55926 1.95653 6.56258 2.08602V3.07039C6.56258 3.37497 6.68358 3.66708 6.89895 3.88246C7.11433 4.09783 7.40644 4.21883 7.71102 4.21883H17.2266C17.4711 4.21883 17.7188 4.35828 17.7188 4.6257V6.18758H3.11727C2.81916 6.18186 2.53093 6.29449 2.31569 6.50082C2.10044 6.70714 1.97572 6.99035 1.96883 7.28844V16.6876C1.97383 16.7751 1.96028 16.8626 1.92907 16.9445C1.89786 17.0264 1.84969 17.1008 1.78773 17.1627C1.72576 17.2247 1.6514 17.2729 1.56952 17.3041C1.48763 17.3353 1.40007 17.3488 1.31258 17.3438C1.13854 17.3438 0.971617 17.2747 0.848546 17.1516C0.725475 17.0285 0.656335 16.8616 0.656335 16.6876ZM19.0313 16.8992C19.0245 17.0233 18.969 17.1396 18.8768 17.2229C18.7846 17.3062 18.6632 17.3496 18.5391 17.3438H2.46102C2.57044 17.1425 2.62689 16.9167 2.62509 16.6876V7.28844C2.63188 7.16438 2.68742 7.04804 2.77961 6.96476C2.8718 6.88148 2.99317 6.83801 3.11727 6.84383H18.5391C18.6632 6.83801 18.7846 6.88148 18.8768 6.96476C18.969 7.04804 19.0245 7.16438 19.0313 7.28844V16.8992Z" fill="#DBBB95"/>
</svg>
