<svg width="23" height="23" viewBox="0 0 23 23" fill="none" xmlns="http://www.w3.org/2000/svg">
<path d="M19.8534 21.5535H2.14026C1.73763 21.553 1.3516 21.3929 1.06689 21.1082C0.782184 20.8235 0.622054 20.4375 0.621643 20.0348V5.94484C0.621643 5.86241 0.654389 5.78336 0.712677 5.72507C0.770966 5.66678 0.850022 5.63403 0.932454 5.63403H19.8534C20.256 5.63453 20.642 5.79468 20.9267 6.07937C21.2113 6.36406 21.3715 6.75004 21.372 7.15265V11.3113C21.372 11.3937 21.3392 11.4728 21.281 11.5311C21.2227 11.5894 21.1436 11.6221 21.0612 11.6221C20.9788 11.6221 20.8997 11.5894 20.8414 11.5311C20.7831 11.4728 20.7504 11.3937 20.7504 11.3113V7.15265C20.7501 6.91483 20.6555 6.68682 20.4874 6.51865C20.3192 6.35049 20.0912 6.2559 19.8534 6.25565H1.24326V20.0348C1.24359 20.2726 1.3382 20.5006 1.50635 20.6687C1.6745 20.8369 1.90247 20.9315 2.14026 20.9318H19.8534C20.0912 20.9315 20.3191 20.8369 20.4873 20.6687C20.6554 20.5006 20.75 20.2726 20.7504 20.0348V15.8765C20.7504 15.7941 20.7831 15.715 20.8414 15.6567C20.8997 15.5984 20.9788 15.5657 21.0612 15.5657C21.1436 15.5657 21.2227 15.5984 21.281 15.6567C21.3392 15.715 21.372 15.7941 21.372 15.8765V20.0348C21.3715 20.4374 21.2113 20.8234 20.9267 21.1081C20.642 21.3928 20.256 21.553 19.8534 21.5535Z" fill="#DBBB95"/>
<path d="M21.5476 16.1858H17.9077C17.2202 16.1858 16.5608 15.9127 16.0747 15.4266C15.5886 14.9404 15.3155 14.2811 15.3155 13.5936C15.3155 12.9061 15.5886 12.2468 16.0747 11.7607C16.5608 11.2746 17.2202 11.0015 17.9077 11.0015H21.5476C21.7679 11.0018 21.979 11.0895 22.1348 11.2453C22.2905 11.4011 22.3781 11.6123 22.3784 11.8326V15.3541C22.3784 15.5745 22.2909 15.7859 22.1351 15.9419C21.9793 16.0978 21.768 16.1855 21.5476 16.1858ZM17.9077 11.6243C17.6489 11.6243 17.3926 11.6753 17.1536 11.7743C16.9145 11.8734 16.6973 12.0185 16.5143 12.2015C16.3313 12.3845 16.1861 12.6017 16.0871 12.8408C15.9881 13.0799 15.9371 13.3361 15.9371 13.5949C15.9371 13.8536 15.9881 14.1099 16.0871 14.349C16.1861 14.588 16.3313 14.8053 16.5143 14.9883C16.6973 15.1712 16.9145 15.3164 17.1536 15.4154C17.3926 15.5144 17.6489 15.5654 17.9077 15.5654H21.5476C21.5752 15.5654 21.6026 15.5599 21.6281 15.5492C21.6536 15.5385 21.6767 15.5229 21.6961 15.5033C21.7156 15.4836 21.731 15.4603 21.7414 15.4347C21.7518 15.4091 21.757 15.3817 21.7567 15.3541V11.8326C21.7567 11.7771 21.7346 11.7239 21.6954 11.6846C21.6562 11.6454 21.603 11.6233 21.5476 11.6231L17.9077 11.6243Z" fill="#DBBB95"/>
<path d="M0.932403 6.25572C0.858829 6.2557 0.787645 6.22959 0.731515 6.18203C0.675384 6.13446 0.637947 6.06853 0.625864 5.99595C0.613781 5.92338 0.627834 5.84887 0.665525 5.78568C0.703216 5.7225 0.762099 5.67473 0.8317 5.65088L12.7432 1.57024C13.0836 1.45358 13.4468 1.41985 13.8028 1.47186C14.1588 1.52387 14.4973 1.66011 14.79 1.86925C15.0828 2.0784 15.3213 2.35441 15.4859 2.67433C15.6505 2.99425 15.7364 3.34884 15.7363 3.70862V5.94491C15.7363 6.02734 15.7036 6.10639 15.6453 6.16468C15.587 6.22297 15.5079 6.25572 15.4255 6.25572C15.3431 6.25572 15.264 6.22297 15.2057 6.16468C15.1474 6.10639 15.1147 6.02734 15.1147 5.94491V3.70862C15.1147 3.44779 15.0524 3.19073 14.9331 2.95881C14.8137 2.72689 14.6407 2.5268 14.4285 2.37518C14.2163 2.22356 13.9709 2.12478 13.7128 2.08706C13.4547 2.04934 13.1914 2.07376 12.9446 2.1583L1.03311 6.23893C1.0007 6.25008 0.96667 6.25576 0.932403 6.25572Z" fill="#DBBB95"/>
<path d="M18.0295 14.7098C17.8088 14.7097 17.593 14.6442 17.4095 14.5215C17.226 14.3989 17.083 14.2245 16.9986 14.0206C16.9141 13.8166 16.8921 13.5922 16.9352 13.3757C16.9783 13.1592 17.0846 12.9604 17.2407 12.8043C17.3968 12.6483 17.5957 12.542 17.8122 12.499C18.0287 12.4559 18.2531 12.478 18.457 12.5625C18.6609 12.647 18.8352 12.7901 18.9579 12.9736C19.0805 13.1571 19.1459 13.3729 19.1459 13.5937C19.1457 13.8897 19.028 14.1734 18.8187 14.3827C18.6093 14.592 18.3255 14.7096 18.0295 14.7098ZM18.0295 13.0995C17.9317 13.0995 17.8361 13.1285 17.7547 13.1828C17.6734 13.2372 17.61 13.3144 17.5726 13.4048C17.5352 13.4952 17.5254 13.5946 17.5445 13.6906C17.5636 13.7865 17.6108 13.8746 17.68 13.9437C17.7491 14.0129 17.8373 14.06 17.9332 14.079C18.0292 14.0981 18.1286 14.0882 18.219 14.0507C18.3093 14.0133 18.3865 13.9498 18.4408 13.8685C18.4951 13.7871 18.5241 13.6915 18.524 13.5937C18.5239 13.4626 18.4718 13.3369 18.3791 13.2442C18.2863 13.1515 18.1606 13.0995 18.0295 13.0995Z" fill="#DBBB95"/>
</svg>
