<svg width="15" height="14" viewBox="0 0 15 14" fill="none" xmlns="http://www.w3.org/2000/svg">
<path d="M7.47266 0.4375C3.62785 0.4375 0.5 3.19725 0.5 6.58984C0.5 8.02298 1.06716 9.41166 2.09936 10.5124C2.30365 11.3547 2.0557 12.2471 1.44046 12.8623C1.18321 13.1196 1.36513 13.5625 1.73047 13.5625C2.89925 13.5625 4.02598 13.1047 4.86311 12.2972C5.69143 12.5928 6.56782 12.7422 7.47266 12.7422C11.3175 12.7422 14.5 9.98244 14.5 6.58984C14.5 3.19725 11.3175 0.4375 7.47266 0.4375ZM4.24609 7.82031C3.56759 7.82031 3.01562 7.26835 3.01562 6.58984C3.01562 5.91134 3.56759 5.35938 4.24609 5.35938C4.9246 5.35938 5.47656 5.91134 5.47656 6.58984C5.47656 7.26835 4.9246 7.82031 4.24609 7.82031ZM7.52734 7.82031C6.84884 7.82031 6.29688 7.26835 6.29688 6.58984C6.29688 5.91134 6.84884 5.35938 7.52734 5.35938C8.20585 5.35938 8.75781 5.91134 8.75781 6.58984C8.75781 7.26835 8.20585 7.82031 7.52734 7.82031ZM10.8086 7.82031C10.1301 7.82031 9.57812 7.26835 9.57812 6.58984C9.57812 5.91134 10.1301 5.35938 10.8086 5.35938C11.4871 5.35938 12.0391 5.91134 12.0391 6.58984C12.0391 7.26835 11.4871 7.82031 10.8086 7.82031Z" fill="#4086F1"/>
</svg>
