<svg width="17" height="11" viewBox="0 0 17 11" fill="none" xmlns="http://www.w3.org/2000/svg">
<path d="M7.41577 10H8.98462L5.55029 0.488037H3.96167L0.527344 10H2.04346L2.92017 7.47534H6.54565L7.41577 10ZM4.68018 2.21509H4.79224L6.16992 6.23608H3.2959L4.68018 2.21509ZM12.7939 8.92554C12.0226 8.92554 11.4623 8.5498 11.4623 7.90381C11.4623 7.271 11.9106 6.93481 12.8993 6.8689L14.6528 6.75684V7.35669C14.6528 8.24658 13.8617 8.92554 12.7939 8.92554ZM12.4313 10.1187C13.3739 10.1187 14.1584 9.70996 14.5868 8.99146H14.6989V10H16.0634V5.0957C16.0634 3.57959 15.0483 2.68311 13.2487 2.68311C11.6205 2.68311 10.4604 3.47412 10.3153 4.70679H11.6864C11.8446 4.19922 12.3918 3.90918 13.1828 3.90918C14.1518 3.90918 14.6528 4.33765 14.6528 5.0957V5.71533L12.7082 5.82739C11.0009 5.93286 10.0385 6.67773 10.0385 7.96973C10.0385 9.28149 11.047 10.1187 12.4313 10.1187Z" fill="#686868"/>
</svg>
