<?xml version="1.0" encoding="utf-8"?>
<svg width="17px" height="19px" viewBox="0 0 17 19" version="1.1" xmlns:xlink="http://www.w3.org/1999/xlink" xmlns="http://www.w3.org/2000/svg">
  <g id="file-2" transform="translate(0.25 0.25)">
    <path d="M0 0L0 3.45313C0 4.238 0.696889 4.875 1.55556 4.875L14.4444 4.875C15.3031 4.875 16 4.238 16 3.45313L16 0L0 0ZM10.6667 2.64063C10.6667 2.977 10.368 3.25 10 3.25L6 3.25C5.632 3.25 5.33333 2.977 5.33333 2.64063L5.33333 1.82813C5.33333 1.49175 5.632 1.21875 6 1.21875C6.368 1.21875 6.66667 1.49175 6.66667 1.82813L6.66667 2.03125L9.33333 2.03125L9.33333 1.82813C9.33333 1.49175 9.632 1.21875 10 1.21875C10.368 1.21875 10.6667 1.49175 10.6667 1.82813L10.6667 2.64063Z" transform="translate(0 13)" id="Shape" fill="#FFFFFF" stroke="#DBBB95" stroke-width="0.5" />
    <path d="M0 0L0 4.875L16 4.875L16 0L0 0ZM10.6667 2.64063C10.6667 2.977 10.368 3.25 10 3.25L6 3.25C5.632 3.25 5.33333 2.977 5.33333 2.64063L5.33333 1.82813C5.33333 1.49175 5.632 1.21875 6 1.21875C6.368 1.21875 6.66667 1.49175 6.66667 1.82813L6.66667 2.03125L9.33333 2.03125L9.33333 1.82813C9.33333 1.49175 9.632 1.21875 10 1.21875C10.368 1.21875 10.6667 1.49175 10.6667 1.82813L10.6667 2.64063Z" transform="translate(0 7.3125)" id="Shape" fill="#FFFFFF" stroke="#DBBB95" stroke-width="0.5" />
    <path d="M14.4444 0L1.55556 0C0.696889 0 0 0.637 0 1.42188L0 6.5L16 6.5L16 1.42188C16 0.637 15.3031 0 14.4444 0ZM10.6667 3.85938C10.6667 4.19575 10.368 4.46875 10 4.46875L6 4.46875C5.632 4.46875 5.33333 4.19575 5.33333 3.85938L5.33333 3.04688C5.33333 2.7105 5.632 2.4375 6 2.4375C6.368 2.4375 6.66667 2.7105 6.66667 3.04688L6.66667 3.25L9.33333 3.25L9.33333 3.04688C9.33333 2.7105 9.632 2.4375 10 2.4375C10.368 2.4375 10.6667 2.7105 10.6667 3.04688L10.6667 3.85938Z" id="Shape" fill="#FFFFFF" stroke="#DBBB95" stroke-width="0.5" />
  </g>
</svg>