<?xml version="1.0" encoding="utf-8"?>
<svg width="20px" height="20px" viewBox="0 0 20 20" version="1.1" xmlns:xlink="http://www.w3.org/1999/xlink" xmlns="http://www.w3.org/2000/svg">
  <g id="link-4" transform="translate(0.2998047 0.2998047)">
    <path d="M9.37469 0C4.19725 0 0 4.19756 0 9.37481C0 14.5521 4.19725 18.75 9.37469 18.75C14.5521 18.75 18.7499 14.5523 18.7499 9.37481C18.7499 4.19731 14.5521 0 9.37469 0ZM14.0851 7.70638L11.7922 9.99925C11.5436 10.2479 11.2129 10.3849 10.8613 10.3849C10.5098 10.3849 10.1791 10.2479 9.93038 9.99937L9.84056 9.90956L9.59644 10.1537L9.68606 10.2433C10.1994 10.7567 10.1994 11.592 9.68606 12.1054L7.3935 14.3983C7.14481 14.6469 6.81419 14.7839 6.46237 14.7839C6.11062 14.7839 5.77994 14.6469 5.53113 14.3981L4.66456 13.5313C4.15119 13.0182 4.15119 12.1829 4.66437 11.6694L6.95744 9.37663C7.20613 9.12794 7.53675 8.991 7.88856 8.991C8.24038 8.991 8.57081 9.128 8.81969 9.37663L8.90919 9.46613L9.15331 9.222L9.06381 9.1325C8.55044 8.61931 8.55044 7.784 9.0635 7.27063L11.3566 4.97775C11.6054 4.72894 11.9361 4.59194 12.2877 4.59194C12.6393 4.59194 12.9699 4.72894 13.2188 4.97756L14.0856 5.84462C14.5985 6.35769 14.5985 7.19312 14.0851 7.70638Z" transform="translate(6.25E-05 0)" id="Shape" fill="#FFFFFF" stroke="#DBBB95" stroke-width="0.6" />
    <path d="M3.65698 0.877625L3.21367 1.32094L2.52605 0.6335L2.96936 0.190187L2.87986 0.100687C2.81486 0.035875 2.72848 0 2.63673 0C2.5448 0 2.45842 0.0358125 2.39342 0.100687L0.100547 2.39325C-0.0335156 2.52744 -0.0335156 2.74563 0.100547 2.87969L0.967422 3.74675C1.09761 3.87694 1.32417 3.87675 1.45405 3.74694L3.74661 1.45406C3.88086 1.31987 3.88086 1.1015 3.74661 0.96725L3.65698 0.877625Z" transform="translate(5.2517033 9.963563)" id="Path" fill="#FFFFFF" stroke="none" />
    <path d="M2.88026 0.100813C2.81526 0.0358125 2.7287 0 2.63676 0C2.54482 0 2.45826 0.0358125 2.39326 0.101L0.100383 2.39375C-0.0334922 2.52794 -0.0334922 2.74612 0.10057 2.88038L0.190195 2.96988L0.870195 2.28969L1.55782 2.97731L0.87782 3.6575L0.967445 3.74712C1.09763 3.87694 1.32388 3.87713 1.45407 3.74694L3.74682 1.45438C3.88088 1.32019 3.88088 1.102 3.74682 0.96775L2.88026 0.100813Z" transform="translate(9.650555 5.564375)" id="Path" fill="#FFFFFF" stroke="none" />
  </g>
</svg>