<?xml version="1.0" encoding="utf-8"?>
<svg width="15px" height="19px" viewBox="0 0 15 19" version="1.1" xmlns:xlink="http://www.w3.org/1999/xlink" xmlns="http://www.w3.org/2000/svg">
  <g id="file-4" transform="translate(0.2998047 0.2998047)">
    <path d="M8.53787 17.5982L12.7585 17.5982C13.3593 17.5982 13.847 17.1071 13.847 16.502L13.847 2.24641L13.847 1.09626C13.847 0.491143 13.3593 0 12.7585 0L6.92249 0L5.78966 0L5.78966 0.362658C5.79376 0.39996 5.79584 0.439334 5.79584 0.478709L5.79584 2.86811L5.79584 4.27564C5.79584 5.12736 5.10853 5.81952 4.26276 5.81952L2.84596 5.81952L0.473297 5.81952C0.44243 5.81952 0.409505 5.81745 0.378638 5.81538L0 5.81538L0 16.502C0 17.1071 0.487702 17.5982 1.08858 17.5982L2.28212 17.5982L6.92249 17.5982L8.53787 17.5982Z" transform="translate(0.018520333 0)" id="Shape" fill="#FFFFFF" fill-rule="evenodd" stroke="#DBBB95" stroke-width="0.6" />
    <path d="M0.460004 4.38713L3.44178 4.38713C3.44384 4.38713 3.44795 4.38713 3.45001 4.38713C3.948 4.38298 4.35133 3.97681 4.35545 3.4753C4.35545 3.47323 4.35545 3.46908 4.35545 3.46701L4.35545 0.46213C4.35545 0.184438 4.12909 0 3.89452 0C3.78134 0 3.66816 0.0414466 3.5735 0.136774L0.13487 3.59964C-0.153224 3.88977 0.0504992 4.38713 0.460004 4.38713Z" transform="translate(0.031813383 0.016578656)" id="Path" fill="#FFFFFF" stroke="#DBBB95" stroke-width="0.6" />
  </g>
</svg>