<?xml version="1.0" encoding="utf-8"?>
<svg width="19px" height="19px" viewBox="0 0 19 19" version="1.1" xmlns:xlink="http://www.w3.org/1999/xlink" xmlns="http://www.w3.org/2000/svg">
  <g id="thinking" transform="translate(0.25 0.25)">
    <path d="M0.0558987 1.6279C-0.0458009 1.83115 -0.00619012 2.07683 0.154035 2.2375L0.282735 2.36646C0.654583 1.92494 1.08797 1.4458 1.6136 0.919281C1.65075 0.882065 1.68899 0.864075 1.72627 0.829742L0.898278 0C0.416918 0.872314 0.136217 1.46832 0.0558987 1.6279Z" transform="translate(2.5666342 9.906097)" id="Path" fill="none" stroke="#DBBB95" stroke-width="0.5" />
    <path d="M1.44202 0.112885C0.915159 0.640778 0.438185 1.07584 0 1.44868L0.174342 1.62337C0.336075 1.78542 0.583607 1.82442 0.787144 1.7195C1.05976 1.57874 1.48849 1.37659 2.39857 0.868744L1.53152 0C1.49726 0.0374908 1.4793 0.0756683 1.44202 0.112885L1.44202 0.112885Z" transform="translate(5.7154603 13.695557)" id="Path" fill="none" stroke="#DBBB95" stroke-width="0.5" />
    <path d="M4.7861 0.16299C4.40576 -0.218099 3.33613 0.123576 2.83367 0.626887C1.15274 2.31109 0.393561 3.50517 0.0526891 4.21022C-0.0450357 4.41223 -0.00432845 4.65406 0.154115 4.81282C0.312832 4.97198 0.554608 5.01235 0.756362 4.91444C1.44427 4.57977 2.62149 3.82267 4.32243 2.11856C4.87492 1.56471 5.14754 0.525264 4.78652 0.163402L4.7861 0.16299Z" transform="translate(2.090814 10.944188)" id="Path" fill="none" stroke="#DBBB95" stroke-width="0.5" />
    <path d="M1.64279 1.26307L0.154166 2.7546C-0.0141452 2.92324 -0.0486847 3.18431 0.0705588 3.39112C0.186924 3.5952 0.430619 3.69915 0.662527 3.63694C1.46708 3.42079 2.175 3.32946 2.6517 3.45196C3.32988 2.24388 4.05863 1.13179 4.83043 0.121593C4.38402 -0.16515 2.90883 -0.00543612 1.64279 1.26307L1.64279 1.26307Z" transform="translate(2.7862958E-05 5.7580147)" id="Path" fill="none" stroke="#DBBB95" stroke-width="0.5" />
    <path d="M0.289639 4.70737C0.492353 4.81009 0.73783 4.7704 0.898329 4.60945L2.38709 3.11792C3.53964 1.96284 3.74249 0.472549 3.48098 0C2.35653 0.849106 1.21741 1.5661 0.154634 2.16637C0.227962 2.58124 0.179168 2.98375 0.00578528 4.15929C-0.0280689 4.38684 0.0892557 4.60698 0.289639 4.70737L0.289639 4.70737Z" transform="translate(8.61894 13.236053)" id="Path" fill="none" stroke="#DBBB95" stroke-width="0.5" />
    <path d="M0.461657 0.462662C-0.153886 1.07954 -0.153886 2.08301 0.461657 2.69989C1.07734 3.31677 2.07898 3.31677 2.69466 2.69989C3.31034 2.08301 3.31034 1.07954 2.69466 0.462662C2.07898 -0.154221 1.07734 -0.154221 0.461657 0.462662Z" transform="translate(9.9874935 4.8272552)" id="Path" fill="#FFFFFF" stroke="none" />
    <path d="M4.32785 0.514389C4.30894 0.253601 4.1017 0.0474702 3.84224 0.0279695C2.54962 -0.0695342 1.26206 0.0897676 0 0.476486C0.0949835 1.34523 0.543448 2.28539 1.30907 3.05251C2.08388 3.82869 3.0477 4.27789 3.93024 4.36194C4.27015 3.16841 4.43133 1.89015 4.32785 0.514389L4.32785 0.514389Z" transform="translate(13.606086 4.565059E-05)" id="Path" fill="none" stroke="#DBBB95" stroke-width="0.5" />
    <path d="M10.159 2.95477C9.28317 2.07724 8.74835 1.02475 8.57675 0C5.41626 1.29872 2.39076 4.13484 0 8.11903L1.18777 9.30913C1.99931 8.97899 2.98451 8.89178 3.60937 9.51773C4.23506 10.1448 4.14638 11.1315 3.81702 11.9435L5.04386 13.1727C8.10334 11.3253 11.6653 8.41457 13.18 4.54202C12.1323 4.38341 11.0491 3.84659 10.159 2.95477L10.159 2.95477ZM9.41447 7.42937C8.38857 8.45728 6.71902 8.45728 5.69298 7.42937C4.66694 6.40132 4.66694 4.72838 5.69298 3.70047C6.71902 2.67256 8.38857 2.67256 9.41447 3.70047C10.4405 4.72852 10.4405 6.40132 9.41447 7.42937Z" transform="translate(4.0119243 0.8436127)" id="Shape" fill="#FFFFFF" stroke="#DBBB95" stroke-width="0.5" />
  </g>
</svg>