<?xml version="1.0" encoding="utf-8"?>
<svg width="21px" height="18px" viewBox="0 0 21 18" version="1.1" xmlns:xlink="http://www.w3.org/1999/xlink" xmlns="http://www.w3.org/2000/svg">
  <g id="men" transform="translate(0.25 0.25)">
    <path d="M1.54672 0L0 0C0.157656 0.430849 0.243789 0.895814 0.243789 1.38043L0.243789 7.21541C0.243789 7.41746 0.208555 7.6114 0.144453 7.79177L2.70152 7.79177C3.65672 7.79177 4.43379 7.01609 4.43379 6.06268L4.43379 2.88177C4.43383 1.29278 3.13867 0 1.54672 0Z" transform="translate(15.566172 9.175321)" id="Path" fill="none" stroke="#DBBB95" stroke-width="0.5" />
    <path d="M4.19004 1.38043C4.19004 0.895775 4.27617 0.430849 4.43383 0L2.88711 0C1.29516 0 0 1.29278 0 2.88181L0 6.06272C0 7.01613 0.77707 7.79181 1.73227 7.79181L4.28938 7.79181C4.22527 7.61136 4.19004 7.41746 4.19004 7.21541L4.19004 1.38043Z" transform="translate(0 9.17536)" id="Path" fill="none" stroke="#DBBB95" stroke-width="0.5" />
    <path d="M6.42312 0L2.88711 0C1.29516 0 0 1.29278 0 2.88181L0 8.71679C0 9.03507 0.258516 9.29315 0.577422 9.29315L8.73281 9.29315C9.05172 9.29315 9.31023 9.03511 9.31023 8.71679L9.31023 2.88181C9.31023 1.29278 8.01508 0 6.42312 0Z" transform="translate(5.344883 7.6739793)" id="Path" fill="none" stroke="#DBBB95" stroke-width="0.5" />
    <path d="M3.47211 0C1.55758 0 0 1.55472 0 3.46578C0 4.76203 0.716758 5.89413 1.77527 6.4885C2.27734 6.77041 2.85617 6.93152 3.47211 6.93152C4.08805 6.93152 4.66687 6.77041 5.16895 6.4885C6.2275 5.89413 6.94422 4.76199 6.94422 3.46578C6.94422 1.55476 5.38664 0 3.47211 0Z" transform="translate(6.5278907 0.032752294)" id="Path" fill="none" stroke="#DBBB95" stroke-width="0.5" />
    <path d="M2.59668 0C1.16484 0 0 1.16271 0 2.59192C0 4.02112 1.16484 5.18383 2.59668 5.18383C2.95988 5.18383 3.30574 5.10873 3.61992 4.97375C4.16313 4.74031 4.61102 4.32709 4.88816 3.80948C5.0827 3.4462 5.19336 3.03177 5.19336 2.59192C5.19336 1.16275 4.02852 0 2.59668 0Z" transform="translate(1.3063672 3.2631032)" id="Path" fill="none" stroke="#DBBB95" stroke-width="0.5" />
    <path d="M2.59668 0C1.16484 0 0 1.16271 0 2.59192C0 3.03181 0.110664 3.44624 0.305195 3.80948C0.582344 4.32712 1.03023 4.74035 1.57344 4.97375C1.88762 5.10873 2.23348 5.18383 2.59668 5.18383C4.02852 5.18383 5.19336 4.02112 5.19336 2.59192C5.19336 1.16271 4.02852 0 2.59668 0Z" transform="translate(13.500274 3.2631032)" id="Path" fill="none" stroke="#DBBB95" stroke-width="0.5" />
  </g>
</svg>