<?xml version="1.0" encoding="utf-8"?>
<svg width="17px" height="20px" viewBox="0 0 17 20" version="1.1" xmlns:xlink="http://www.w3.org/1999/xlink" xmlns="http://www.w3.org/2000/svg">
  <g id="garbage" transform="translate(0.25 0.25)">
    <path d="M15.1071 1.90678L10.593 1.90678C10.5576 1.50953 10.4339 0.839619 10.0103 0.40964C9.74218 0.137924 9.40211 0 8.99968 0L5.78571 0C5.38329 0 5.04321 0.137924 4.77514 0.40964C4.3515 0.839619 4.22775 1.50953 4.19239 1.90678L0.321429 1.90678C0.144 1.90678 0 2.04883 0 2.22458C0 2.40032 0.144 2.54237 0.321429 2.54237L0.977464 2.54237L1.593 17.1677C1.60489 17.7149 1.94946 18.75 3.17057 18.75L12.258 18.75C13.4791 18.75 13.8237 17.7149 13.8352 17.1744L14.4511 2.54237L15.1071 2.54237C15.2846 2.54237 15.4286 2.40032 15.4286 2.22458C15.4286 2.04883 15.2846 1.90678 15.1071 1.90678ZM4.92857 15.8898C4.92857 16.0656 4.76057 16.2076 4.55357 16.2076C4.34657 16.2076 4.17857 16.0656 4.17857 15.8898L4.17857 5.40254C4.17857 5.2268 4.34657 5.08475 4.55357 5.08475C4.76057 5.08475 4.92857 5.2268 4.92857 5.40254L4.92857 15.8898ZM8.14286 15.8898C8.14286 16.0656 7.97486 16.2076 7.76786 16.2076C7.56086 16.2076 7.39286 16.0656 7.39286 15.8898L7.39286 5.40254C7.39286 5.2268 7.56086 5.08475 7.76786 5.08475C7.97486 5.08475 8.14286 5.2268 8.14286 5.40254L8.14286 15.8898ZM11.3571 15.8898C11.3571 16.0656 11.1891 16.2076 10.9821 16.2076C10.7751 16.2076 10.6071 16.0656 10.6071 15.8898L10.6071 5.40254C10.6071 5.2268 10.7751 5.08475 10.9821 5.08475C11.1891 5.08475 11.3571 5.2268 11.3571 5.40254L11.3571 15.8898ZM5.88079 1.28447C5.98649 1.19859 6.11838 1.15678 6.28377 1.15678L8.64292 1.15678C8.80831 1.15678 8.9402 1.19859 9.0459 1.28447C9.23583 1.43878 9.31204 1.71028 9.33846 1.90678L5.58846 1.90678C5.61489 1.71028 5.6911 1.43878 5.88079 1.28447Z" transform="translate(0.16071428 0)" id="Shape" fill="none" stroke="#DBBB95" stroke-width="0.5" />
  </g>
</svg>