<svg width="16" height="21" viewBox="0 0 16 21" fill="none" xmlns="http://www.w3.org/2000/svg">
<path d="M11.3333 1.3125H9.88533C9.61067 0.548625 8.86933 0 8 0C7.13067 0 6.38933 0.548625 6.11333 1.3125H4.66667C4.29867 1.3125 4 1.6065 4 1.96875V4.59375C4 4.956 4.29867 5.25 4.66667 5.25H11.3333C11.7013 5.25 12 4.956 12 4.59375V1.96875C12 1.6065 11.7013 1.3125 11.3333 1.3125Z" fill="#B0B0B0"/>
<path d="M14.6667 2.625H13.3333V4.59375C13.3333 5.67919 12.436 6.5625 11.3333 6.5625H4.66667C3.564 6.5625 2.66667 5.67919 2.66667 4.59375V2.625H1.33333C0.598667 2.625 0 3.21431 0 3.9375V19.6875C0 20.4238 0.585333 21 1.33333 21H14.6667C15.4147 21 16 20.4238 16 19.6875V3.9375C16 3.20119 15.4147 2.625 14.6667 2.625Z" fill="#B0B0B0"/>
</svg>
