<svg width="20" height="17" viewBox="0 0 20 17" fill="none" xmlns="http://www.w3.org/2000/svg">
<path d="M19.375 11.7692H18.125V8.5C18.125 8.13908 17.845 7.84615 17.5 7.84615H10.625V5.23077H11.875C12.22 5.23077 12.5 4.93785 12.5 4.57692V0.653846C12.5 0.292923 12.22 0 11.875 0H8.125C7.78 0 7.5 0.292923 7.5 0.653846V4.57692C7.5 4.93785 7.78 5.23077 8.125 5.23077H9.375V7.84615H2.5C2.155 7.84615 1.875 8.13908 1.875 8.5V11.7692H0.625C0.28 11.7692 0 12.0622 0 12.4231V16.3462C0 16.7071 0.28 17 0.625 17H4.375C4.72 17 5 16.7071 5 16.3462V12.4231C5 12.0622 4.72 11.7692 4.375 11.7692H3.125V9.15385H9.375V11.7692H8.125C7.78 11.7692 7.5 12.0622 7.5 12.4231V16.3462C7.5 16.7071 7.78 17 8.125 17H11.875C12.22 17 12.5 16.7071 12.5 16.3462V12.4231C12.5 12.0622 12.22 11.7692 11.875 11.7692H10.625V9.15385H16.875V11.7692H15.625C15.28 11.7692 15 12.0622 15 12.4231V16.3462C15 16.7071 15.28 17 15.625 17H19.375C19.72 17 20 16.7071 20 16.3462V12.4231C20 12.0622 19.72 11.7692 19.375 11.7692Z" fill="#B0B0B0"/>
</svg>
