<svg width="37" height="37" viewBox="0 0 37 37" fill="none" xmlns="http://www.w3.org/2000/svg">
<path d="M18.9198 36.205C28.6981 36.205 36.6249 28.2782 36.6249 18.5C36.6249 8.72174 28.6981 0.794922 18.9198 0.794922C9.1416 0.794922 1.21478 8.72174 1.21478 18.5C1.21478 28.2782 9.1416 36.205 18.9198 36.205Z" fill="#1A2B63"/>
<path d="M36.5121 9.57227H19.2244V16.261C19.2244 16.4597 19.0618 16.6223 18.8631 16.6223H16.5129V23.1323C16.5129 23.4007 16.7326 23.6202 17.0007 23.6202H36.5121C36.7804 23.6202 36.9999 23.4006 36.9999 23.1323V10.0601C36.9999 9.79174 36.7804 9.57227 36.5121 9.57227Z" fill="#91E0E8"/>
<path d="M17.9469 23.1324V16.6223H16.513V23.1324C16.513 23.4007 16.7326 23.6202 17.0008 23.6202H18.4347C18.1665 23.6203 17.9469 23.4007 17.9469 23.1324Z" fill="#5DC1D8"/>
<path d="M32.3208 17.21C32.1479 17.0049 31.865 17.0049 31.692 17.21L29.1562 20.2188C28.9832 20.4239 28.7003 20.4239 28.5275 20.2188L23.7408 14.5402C23.5679 14.3349 23.285 14.3349 23.112 14.5402L16.513 22.3688V23.1322C16.513 23.4006 16.7326 23.6201 17.0008 23.6201H36.5121C36.7805 23.6201 37 23.4005 37 23.1322V22.7609L32.3208 17.21Z" fill="#0F9390"/>
<path d="M33.5818 15.0314C34.592 15.0314 35.411 14.2125 35.411 13.2022C35.411 12.192 34.592 11.373 33.5818 11.373C32.5715 11.373 31.7526 12.192 31.7526 13.2022C31.7526 14.2125 32.5715 15.0314 33.5818 15.0314Z" fill="white"/>
<path d="M32.7634 13.2021C32.7634 12.3671 33.323 11.6634 34.0873 11.4441C33.9268 11.398 33.7575 11.3728 33.5821 11.3728C32.5719 11.3728 31.753 12.1917 31.753 13.2021C31.753 14.2124 32.5719 15.0313 33.5821 15.0313C33.7575 15.0313 33.9268 15.0061 34.0873 14.9601C33.323 14.7407 32.7634 14.0371 32.7634 13.2021Z" fill="#D9EAFC"/>
<path d="M19.2967 16.3333C19.2967 16.532 19.1341 16.6946 18.9354 16.6946H0.361327C0.162597 16.6946 0 16.532 0 16.3333V2.16797C0 1.96924 0.162597 1.80664 0.361327 1.80664H18.9354C19.1341 1.80664 19.2967 1.96924 19.2967 2.16797V16.3333Z" fill="#FE3745"/>
<path d="M5.96161 5.71616C5.96161 5.3187 6.24323 5.15611 6.58743 5.35484L12.7093 8.8892C13.0535 9.08793 13.0535 9.41312 12.7093 9.61185L6.58743 13.1463C6.24323 13.345 5.96161 13.1824 5.96161 12.785V5.71616Z" fill="white"/>
<path d="M7.3955 5.82138L6.58743 5.35484C6.24323 5.15611 5.96161 5.3187 5.96161 5.71616V12.785C5.96161 13.1824 6.24323 13.345 6.58743 13.1463L7.3955 12.6797V5.82138Z" fill="#D9EAFC"/>
<path d="M18.1753 4.5897C18.1753 4.70893 18.0777 4.80649 17.9585 4.80649H16.441C16.3217 4.80649 16.2242 4.70893 16.2242 4.5897V3.07227C16.2242 2.95303 16.3217 2.85547 16.441 2.85547H17.9585C18.0777 2.85547 18.1753 2.95303 18.1753 3.07227V4.5897Z" fill="#B7092B"/>
<path d="M18.1753 7.29941C18.1753 7.41865 18.0777 7.51621 17.9585 7.51621H16.441C16.3217 7.51621 16.2242 7.41865 16.2242 7.29941V5.78198C16.2242 5.66274 16.3217 5.56519 16.441 5.56519H17.9585C18.0777 5.56519 18.1753 5.66274 18.1753 5.78198V7.29941Z" fill="#B7092B"/>
<path d="M18.1753 10.0094C18.1753 10.1286 18.0777 10.2262 17.9585 10.2262H16.441C16.3217 10.2262 16.2242 10.1286 16.2242 10.0094V8.49194C16.2242 8.3727 16.3217 8.27515 16.441 8.27515H17.9585C18.0777 8.27515 18.1753 8.3727 18.1753 8.49194V10.0094Z" fill="#B7092B"/>
<path d="M18.1753 12.7191C18.1753 12.8383 18.0777 12.9359 17.9585 12.9359H16.441C16.3217 12.9359 16.2242 12.8383 16.2242 12.7191V11.2017C16.2242 11.0824 16.3217 10.9849 16.441 10.9849H17.9585C18.0777 10.9849 18.1753 11.0824 18.1753 11.2017V12.7191Z" fill="#B7092B"/>
<path d="M18.1753 15.4291C18.1753 15.5483 18.0777 15.6459 17.9585 15.6459H16.441C16.3217 15.6459 16.2242 15.5483 16.2242 15.4291V13.9116C16.2242 13.7924 16.3217 13.6948 16.441 13.6948H17.9585C18.0777 13.6948 18.1753 13.7924 18.1753 13.9116V15.4291Z" fill="#B7092B"/>
<path d="M3.07251 4.5897C3.07251 4.70893 2.97496 4.80649 2.85572 4.80649H1.33829C1.21905 4.80649 1.12149 4.70893 1.12149 4.5897V3.07227C1.12149 2.95303 1.21905 2.85547 1.33829 2.85547H2.85572C2.97496 2.85547 3.07251 2.95303 3.07251 3.07227V4.5897Z" fill="#B7092B"/>
<path d="M3.07251 7.29941C3.07251 7.41865 2.97496 7.51621 2.85572 7.51621H1.33829C1.21905 7.51621 1.12149 7.41865 1.12149 7.29941V5.78198C1.12149 5.66274 1.21905 5.56519 1.33829 5.56519H2.85572C2.97496 5.56519 3.07251 5.66274 3.07251 5.78198V7.29941Z" fill="#B7092B"/>
<path d="M3.07251 10.0094C3.07251 10.1286 2.97496 10.2262 2.85572 10.2262H1.33829C1.21905 10.2262 1.12149 10.1286 1.12149 10.0094V8.49194C1.12149 8.3727 1.21905 8.27515 1.33829 8.27515H2.85572C2.97496 8.27515 3.07251 8.3727 3.07251 8.49194V10.0094Z" fill="#B7092B"/>
<path d="M3.07251 12.7191C3.07251 12.8383 2.97496 12.9359 2.85572 12.9359H1.33829C1.21905 12.9359 1.12149 12.8383 1.12149 12.7191V11.2017C1.12149 11.0824 1.21905 10.9849 1.33829 10.9849H2.85572C2.97496 10.9849 3.07251 11.0824 3.07251 11.2017V12.7191Z" fill="#B7092B"/>
<path d="M3.07251 15.4291C3.07251 15.5483 2.97496 15.6459 2.85572 15.6459H1.33829C1.21905 15.6459 1.12149 15.5483 1.12149 15.4291V13.9116C1.12149 13.7924 1.21905 13.6948 1.33829 13.6948H2.85572C2.97496 13.6948 3.07251 13.7924 3.07251 13.9116V15.4291Z" fill="#B7092B"/>
<path d="M14.8828 18.4246H2.3154C2.11667 18.4246 1.95407 18.5872 1.95407 18.7859V23.5732C2.45444 25.249 3.19617 26.8205 4.13916 28.2477H8.6976L11.6444 31.1945C11.7849 31.335 11.8999 31.2874 11.8999 31.0887V28.2477H14.8829C15.0816 28.2477 15.2442 28.0851 15.2442 27.8864V18.7859C15.2441 18.5872 15.0815 18.4246 14.8828 18.4246Z" fill="#52BBEF"/>
<path d="M3.38796 18.7859C3.38796 18.5872 3.55056 18.4246 3.74929 18.4246H2.3154C2.11667 18.4246 1.95407 18.5872 1.95407 18.7859V23.5732C2.31272 24.7745 2.79604 25.9217 3.38796 27.001V18.7859Z" fill="#1E99D6"/>
<path d="M12.1855 22.0168H5.01254C4.71322 22.0168 4.47055 21.7742 4.47055 21.4749C4.47055 21.1755 4.71322 20.9329 5.01254 20.9329H12.1855C12.4848 20.9329 12.7275 21.1755 12.7275 21.4749C12.7275 21.7742 12.4848 22.0168 12.1855 22.0168Z" fill="white"/>
<path d="M12.1855 23.9038H5.01254C4.71322 23.9038 4.47055 23.6611 4.47055 23.3618C4.47055 23.0625 4.71322 22.8198 5.01254 22.8198H12.1855C12.4848 22.8198 12.7275 23.0625 12.7275 23.3618C12.7275 23.6611 12.4848 23.9038 12.1855 23.9038Z" fill="white"/>
<path d="M8.61331 25.7908H5.01254C4.71322 25.7908 4.47055 25.5481 4.47055 25.2488C4.47055 24.9495 4.71322 24.7068 5.01254 24.7068H8.61331C8.91264 24.7068 9.1553 24.9495 9.1553 25.2488C9.1553 25.5481 8.91264 25.7908 8.61331 25.7908Z" fill="white"/>
<path d="M28.2999 25.4778H16.9105C16.7118 25.4778 16.5492 25.6404 16.5492 25.8391V34.4613C16.5492 34.6601 16.7118 34.8226 16.9105 34.8226H25.7901C26.7984 34.3978 27.7584 33.8815 28.6612 33.2854V25.8392C28.6612 25.6404 28.4986 25.4778 28.2999 25.4778Z" fill="#EF8318"/>
<path d="M17.9831 34.4612V25.8391C17.9831 25.6404 18.1457 25.4778 18.3444 25.4778H16.9105C16.7118 25.4778 16.5492 25.6404 16.5492 25.8391V34.4613C16.5492 34.6601 16.7118 34.8226 16.9105 34.8226H18.3444C18.1457 34.8226 17.9831 34.66 17.9831 34.4612Z" fill="#DB722C"/>
<path d="M20.5975 28.2008C20.5975 27.8033 20.8791 27.6407 21.2233 27.8395L24.5998 29.7889C24.944 29.9876 24.944 30.3128 24.5998 30.5115L21.2233 32.461C20.8791 32.6597 20.5975 32.4971 20.5975 32.0997V28.2008Z" fill="white"/>
</svg>
