<svg width="22" height="22" viewBox="0 0 22 22" fill="none" xmlns="http://www.w3.org/2000/svg">
<path d="M21.4333 9.31255L16.7616 13.8666L17.8648 20.2986C17.9128 20.5798 17.7973 20.8641 17.5663 21.0321C17.4358 21.1273 17.2806 21.1753 17.1253 21.1753C17.0061 21.1753 16.8861 21.1468 16.7766 21.0891L11.0001 18.0523L5.22431 21.0883C4.97231 21.2218 4.66556 21.2001 4.43456 21.0313C4.20356 20.8633 4.08806 20.5791 4.13606 20.2978L5.23931 13.8658L0.566807 9.31255C0.362807 9.11305 0.288557 8.81455 0.377057 8.5438C0.465557 8.27305 0.700307 8.0743 0.983057 8.03305L7.43981 7.09555L10.3273 1.24405C10.5801 0.731801 11.4201 0.731801 11.6728 1.24405L14.5603 7.09555L21.0171 8.03305C21.2998 8.0743 21.5346 8.2723 21.6231 8.5438C21.7116 8.8153 21.6373 9.1123 21.4333 9.31255Z" fill="#FFB800"/>
</svg>
